0
SECTION
2
HEADER
9
$INSUNITS
70
4
9
$ACADVER
1
AC1014
9
$HANDSEED
5
FFFF
0
ENDSEC
0
SECTION
2
TABLES
0
TABLE
2
VPORT
5
8
100
AcDbSymbolTable
0
ENDTAB
0
TABLE
2
LTYPE
5
5
100
AcDbSymbolTable
0
LTYPE
5
14
100
AcDbSymbolTableRecord
100
AcDbLinetypeTableRecord
2
BYBLOCK
70
0
0
LTYPE
5
15
100
AcDbSymbolTableRecord
100
AcDbLinetypeTableRecord
2
BYLAYER
70
0
0
ENDTAB
0
TABLE
2
LAYER
5
2
100
AcDbSymbolTable
70
2
0
LAYER
5
50
100
AcDbSymbolTableRecord
100
AcDbLayerTableRecord
2
0
70
0
6
CONTINUOUS
0
ENDTAB
0
TABLE
2
STYLE
5
3
100
AcDbSymbolTable
70
1
0
STYLE
5
11
100
AcDbSymbolTableRecord
100
AcDbTextStyleTableRecord
2
STANDARD
70
0
0
ENDTAB
0
TABLE
2
VIEW
5
6
100
AcDbSymbolTable
70
0
0
ENDTAB
0
TABLE
2
UCS
5
7
100
AcDbSymbolTable
70
0
0
ENDTAB
0
TABLE
2
APPID
5
9
100
AcDbSymbolTable
70
2
0
APPID
5
12
100
AcDbSymbolTableRecord
100
AcDbRegAppTableRecord
2
ACAD
70
0
0
ENDTAB
0
TABLE
2
DIMSTYLE
5
A
100
AcDbSymbolTable
70
1
0
ENDTAB
0
TABLE
2
BLOCK_RECORD
5
1
100
AcDbSymbolTable
70
1
0
BLOCK_RECORD
5
1F
100
AcDbSymbolTableRecord
100
AcDbBlockTableRecord
2
*MODEL_SPACE
0
BLOCK_RECORD
5
1B
100
AcDbSymbolTableRecord
100
AcDbBlockTableRecord
2
*PAPER_SPACE
0
ENDTAB
0
ENDSEC
0
SECTION
2
BLOCKS
0
BLOCK
5
20
100
AcDbEntity
100
AcDbBlockBegin
2
*MODEL_SPACE
0
ENDBLK
5
21
100
AcDbEntity
100
AcDbBlockEnd
0
BLOCK
5
1C
100
AcDbEntity
100
AcDbBlockBegin
2
*PAPER_SPACE
0
ENDBLK
5
1D
100
AcDbEntity
100
AcDbBlockEnd
0
ENDSEC
0
SECTION
2
ENTITIES
0
CIRCLE
5
100
100
AcDbEntity
8
0
100
AcDbCircle
10
80.558078622700918
20
-19.984893510317875
30
0
40
1.2
210
0
220
-0
230
1
0
CIRCLE
5
101
100
AcDbEntity
8
0
100
AcDbCircle
10
-80.558078622700862
20
-19.984893510317839
30
0
40
1.2
210
0
220
-0
230
1
0
CIRCLE
5
102
100
AcDbEntity
8
0
100
AcDbCircle
10
22.999999999999986
20
-79.749608149507552
30
0
40
1.2
210
0
220
-0
230
1
0
CIRCLE
5
103
100
AcDbEntity
8
0
100
AcDbCircle
10
-23.000000000000011
20
-79.749608149507566
30
0
40
1.2
210
0
220
-0
230
1
0
CIRCLE
5
104
100
AcDbEntity
8
0
100
AcDbCircle
10
-80.558078622700862
20
19.984893510317846
30
0
40
1.2
210
0
220
-0
230
1
0
CIRCLE
5
105
100
AcDbEntity
8
0
100
AcDbCircle
10
80.558078622700876
20
19.984893510317853
30
0
40
1.2
210
0
220
-0
230
1
0
LWPOLYLINE
5
106
100
AcDbEntity
8
0
100
AcDbPolyline
90
38
70
1
43
0.0
10
50.00000074505806
20
23.00000037252903
42
-0.41421356237309176
10
52.00000074505806
20
25.00000037252903
10
74.527865194050662
20
25
42
-0.11643381391426184
10
75.422292331738561
20
24.78885440865584
10
81.45250576038876
20
21.77374791897368
42
-0.21941721524735991
10
82.499237143729829
20
20.466457209361639
42
-0.12218836072548514
10
82.499237143729815
20
-20.466457209361653
42
-0.21941721524735933
10
81.452505760388775
20
-21.77374791897368
10
75.422291586680444
20
-24.788854781184867
42
-0.11643381391427061
10
74.527864448992545
20
-25.00000037252903
10
55.000000000000036
20
-25.000000059622991
10
24.999999999999996
20
-55.000000008517574
10
25
20
-79.749608149507566
42
-0.33416985749149075
10
23.554216867468018
20
-81.671285454315495
42
-0.0015395860448375741
10
23.050813911480628
20
-81.814790704482604
42
-0.068764338140162445
10
22.508441819445761
20
-81.889736805553611
10
-22.508441819445878
20
-81.889736805553611
42
-0.068764338140183526
10
-23.050813911482479
20
-81.814790704482078
42
-0.0015395860448375741
10
-23.554216867469869
20
-81.671285454314969
42
-0.33416985749149664
10
-25
20
-79.749608149507566
10
-25.000000000000004
20
-55
10
-55.000000000000007
20
-24.999999999999996
10
-74.527865194050662
20
-25
42
-0.11643381391427028
10
-75.422292331738561
20
-24.788854408655837
10
-81.452505760388775
20
-21.77374791897368
42
-0.21941721524735711
10
-82.499237143729829
20
-20.46645720936165
42
-0.12218836072548514
10
-82.499237143729815
20
20.466457209361643
42
-0.21941721524735419
10
-81.452505760388775
20
21.773747918973683
10
-75.422292331738561
20
24.788854408655844
42
-0.11643381391427185
10
-74.527865194050662
20
25
10
-51.999999999999993
20
24.999999999999993
42
-0.41421356237309243
10
-50
20
23
10
-50
20
-20.000000298023224
10
-45.000000670552254
20
-25.00000037252903
10
-19.999999999999996
20
-50
10
20.000001341104511
20
-50
10
45.000000670552254
20
-25.00000037252903
10
50.00000074505806
20
-20.000000298023224
0
ENDSEC
0
SECTION
2
OBJECTS
0
DICTIONARY
5
C
100
AcDbDictionary
3
ACAD_GROUP
350
D
3
ACAD_MLINESTYLE
350
17
0
DICTIONARY
5
D
100
AcDbDictionary
0
DICTIONARY
5
1A
330
C
100
AcDbDictionary
0
DICTIONARY
5
17
100
AcDbDictionary
0
ENDSEC
0
EOF
