G04 #@! TF.GenerationSoftware,KiCad,Pcbnew,(6.0.1)*
G04 #@! TF.CreationDate,2022-04-06T23:24:07+09:00*
G04 #@! TF.ProjectId,xbee-gyro20220207,78626565-2d67-4797-926f-323032323032,V1.1*
G04 #@! TF.SameCoordinates,Original*
G04 #@! TF.FileFunction,Legend,Top*
G04 #@! TF.FilePolarity,Positive*
%FSLAX46Y46*%
G04 Gerber Fmt 4.6, Leading zero omitted, Abs format (unit mm)*
G04 Created by KiCad (PCBNEW (6.0.1)) date 2022-04-06 23:24:07*
%MOMM*%
%LPD*%
G01*
G04 APERTURE LIST*
%ADD10C,0.250000*%
%ADD11C,0.150000*%
%ADD12C,0.120000*%
G04 APERTURE END LIST*
D10*
X59305357Y-127842380D02*
X59972023Y-128842380D01*
X59972023Y-127842380D02*
X59305357Y-128842380D01*
X60686309Y-128318571D02*
X60829166Y-128366190D01*
X60876785Y-128413809D01*
X60924404Y-128509047D01*
X60924404Y-128651904D01*
X60876785Y-128747142D01*
X60829166Y-128794761D01*
X60733928Y-128842380D01*
X60352976Y-128842380D01*
X60352976Y-127842380D01*
X60686309Y-127842380D01*
X60781547Y-127890000D01*
X60829166Y-127937619D01*
X60876785Y-128032857D01*
X60876785Y-128128095D01*
X60829166Y-128223333D01*
X60781547Y-128270952D01*
X60686309Y-128318571D01*
X60352976Y-128318571D01*
X61733928Y-128794761D02*
X61638690Y-128842380D01*
X61448214Y-128842380D01*
X61352976Y-128794761D01*
X61305357Y-128699523D01*
X61305357Y-128318571D01*
X61352976Y-128223333D01*
X61448214Y-128175714D01*
X61638690Y-128175714D01*
X61733928Y-128223333D01*
X61781547Y-128318571D01*
X61781547Y-128413809D01*
X61305357Y-128509047D01*
X62591071Y-128794761D02*
X62495833Y-128842380D01*
X62305357Y-128842380D01*
X62210119Y-128794761D01*
X62162500Y-128699523D01*
X62162500Y-128318571D01*
X62210119Y-128223333D01*
X62305357Y-128175714D01*
X62495833Y-128175714D01*
X62591071Y-128223333D01*
X62638690Y-128318571D01*
X62638690Y-128413809D01*
X62162500Y-128509047D01*
X63067261Y-128461428D02*
X63829166Y-128461428D01*
X64829166Y-127890000D02*
X64733928Y-127842380D01*
X64591071Y-127842380D01*
X64448214Y-127890000D01*
X64352976Y-127985238D01*
X64305357Y-128080476D01*
X64257738Y-128270952D01*
X64257738Y-128413809D01*
X64305357Y-128604285D01*
X64352976Y-128699523D01*
X64448214Y-128794761D01*
X64591071Y-128842380D01*
X64686309Y-128842380D01*
X64829166Y-128794761D01*
X64876785Y-128747142D01*
X64876785Y-128413809D01*
X64686309Y-128413809D01*
X65210119Y-128175714D02*
X65448214Y-128842380D01*
X65686309Y-128175714D02*
X65448214Y-128842380D01*
X65352976Y-129080476D01*
X65305357Y-129128095D01*
X65210119Y-129175714D01*
X66067261Y-128842380D02*
X66067261Y-128175714D01*
X66067261Y-128366190D02*
X66114880Y-128270952D01*
X66162500Y-128223333D01*
X66257738Y-128175714D01*
X66352976Y-128175714D01*
X66829166Y-128842380D02*
X66733928Y-128794761D01*
X66686309Y-128747142D01*
X66638690Y-128651904D01*
X66638690Y-128366190D01*
X66686309Y-128270952D01*
X66733928Y-128223333D01*
X66829166Y-128175714D01*
X66972023Y-128175714D01*
X67067261Y-128223333D01*
X67114880Y-128270952D01*
X67162500Y-128366190D01*
X67162500Y-128651904D01*
X67114880Y-128747142D01*
X67067261Y-128794761D01*
X66972023Y-128842380D01*
X66829166Y-128842380D01*
X59352976Y-130166666D02*
X59829166Y-130166666D01*
X59257738Y-130452380D02*
X59591071Y-129452380D01*
X59924404Y-130452380D01*
X60257738Y-129785714D02*
X60257738Y-130785714D01*
X60257738Y-129833333D02*
X60352976Y-129785714D01*
X60543452Y-129785714D01*
X60638690Y-129833333D01*
X60686309Y-129880952D01*
X60733928Y-129976190D01*
X60733928Y-130261904D01*
X60686309Y-130357142D01*
X60638690Y-130404761D01*
X60543452Y-130452380D01*
X60352976Y-130452380D01*
X60257738Y-130404761D01*
X61162500Y-130452380D02*
X61162500Y-129785714D01*
X61162500Y-129976190D02*
X61210119Y-129880952D01*
X61257738Y-129833333D01*
X61352976Y-129785714D01*
X61448214Y-129785714D01*
X61781547Y-130357142D02*
X61829166Y-130404761D01*
X61781547Y-130452380D01*
X61733928Y-130404761D01*
X61781547Y-130357142D01*
X61781547Y-130452380D01*
X62210119Y-129547619D02*
X62257738Y-129500000D01*
X62352976Y-129452380D01*
X62591071Y-129452380D01*
X62686309Y-129500000D01*
X62733928Y-129547619D01*
X62781547Y-129642857D01*
X62781547Y-129738095D01*
X62733928Y-129880952D01*
X62162500Y-130452380D01*
X62781547Y-130452380D01*
X63400595Y-129452380D02*
X63495833Y-129452380D01*
X63591071Y-129500000D01*
X63638690Y-129547619D01*
X63686309Y-129642857D01*
X63733928Y-129833333D01*
X63733928Y-130071428D01*
X63686309Y-130261904D01*
X63638690Y-130357142D01*
X63591071Y-130404761D01*
X63495833Y-130452380D01*
X63400595Y-130452380D01*
X63305357Y-130404761D01*
X63257738Y-130357142D01*
X63210119Y-130261904D01*
X63162500Y-130071428D01*
X63162500Y-129833333D01*
X63210119Y-129642857D01*
X63257738Y-129547619D01*
X63305357Y-129500000D01*
X63400595Y-129452380D01*
X64114880Y-129547619D02*
X64162500Y-129500000D01*
X64257738Y-129452380D01*
X64495833Y-129452380D01*
X64591071Y-129500000D01*
X64638690Y-129547619D01*
X64686309Y-129642857D01*
X64686309Y-129738095D01*
X64638690Y-129880952D01*
X64067261Y-130452380D01*
X64686309Y-130452380D01*
X65067261Y-129547619D02*
X65114880Y-129500000D01*
X65210119Y-129452380D01*
X65448214Y-129452380D01*
X65543452Y-129500000D01*
X65591071Y-129547619D01*
X65638690Y-129642857D01*
X65638690Y-129738095D01*
X65591071Y-129880952D01*
X65019642Y-130452380D01*
X65638690Y-130452380D01*
X59400595Y-132062380D02*
X59400595Y-131062380D01*
X59400595Y-131443333D02*
X59495833Y-131395714D01*
X59686309Y-131395714D01*
X59781547Y-131443333D01*
X59829166Y-131490952D01*
X59876785Y-131586190D01*
X59876785Y-131871904D01*
X59829166Y-131967142D01*
X59781547Y-132014761D01*
X59686309Y-132062380D01*
X59495833Y-132062380D01*
X59400595Y-132014761D01*
X60210119Y-131395714D02*
X60448214Y-132062380D01*
X60686309Y-131395714D02*
X60448214Y-132062380D01*
X60352976Y-132300476D01*
X60305357Y-132348095D01*
X60210119Y-132395714D01*
X61781547Y-131776666D02*
X62257738Y-131776666D01*
X61686309Y-132062380D02*
X62019642Y-131062380D01*
X62352976Y-132062380D01*
X62686309Y-131967142D02*
X62733928Y-132014761D01*
X62686309Y-132062380D01*
X62638690Y-132014761D01*
X62686309Y-131967142D01*
X62686309Y-132062380D01*
X63114880Y-132014761D02*
X63257738Y-132062380D01*
X63495833Y-132062380D01*
X63591071Y-132014761D01*
X63638690Y-131967142D01*
X63686309Y-131871904D01*
X63686309Y-131776666D01*
X63638690Y-131681428D01*
X63591071Y-131633809D01*
X63495833Y-131586190D01*
X63305357Y-131538571D01*
X63210119Y-131490952D01*
X63162500Y-131443333D01*
X63114880Y-131348095D01*
X63114880Y-131252857D01*
X63162500Y-131157619D01*
X63210119Y-131110000D01*
X63305357Y-131062380D01*
X63543452Y-131062380D01*
X63686309Y-131110000D01*
X64543452Y-132062380D02*
X64543452Y-131538571D01*
X64495833Y-131443333D01*
X64400595Y-131395714D01*
X64210119Y-131395714D01*
X64114880Y-131443333D01*
X64543452Y-132014761D02*
X64448214Y-132062380D01*
X64210119Y-132062380D01*
X64114880Y-132014761D01*
X64067261Y-131919523D01*
X64067261Y-131824285D01*
X64114880Y-131729047D01*
X64210119Y-131681428D01*
X64448214Y-131681428D01*
X64543452Y-131633809D01*
X65400595Y-132014761D02*
X65305357Y-132062380D01*
X65114880Y-132062380D01*
X65019642Y-132014761D01*
X64972023Y-131919523D01*
X64972023Y-131538571D01*
X65019642Y-131443333D01*
X65114880Y-131395714D01*
X65305357Y-131395714D01*
X65400595Y-131443333D01*
X65448214Y-131538571D01*
X65448214Y-131633809D01*
X64972023Y-131729047D01*
X65876785Y-132062380D02*
X65876785Y-131062380D01*
X65972023Y-131681428D02*
X66257738Y-132062380D01*
X66257738Y-131395714D02*
X65876785Y-131776666D01*
X66686309Y-132062380D02*
X66686309Y-131395714D01*
X66686309Y-131062380D02*
X66638690Y-131110000D01*
X66686309Y-131157619D01*
X66733928Y-131110000D01*
X66686309Y-131062380D01*
X66686309Y-131157619D01*
D11*
X48022380Y-102738095D02*
X47022380Y-102738095D01*
X47022380Y-102500000D01*
X47070000Y-102357142D01*
X47165238Y-102261904D01*
X47260476Y-102214285D01*
X47450952Y-102166666D01*
X47593809Y-102166666D01*
X47784285Y-102214285D01*
X47879523Y-102261904D01*
X47974761Y-102357142D01*
X48022380Y-102500000D01*
X48022380Y-102738095D01*
X47117619Y-101785714D02*
X47070000Y-101738095D01*
X47022380Y-101642857D01*
X47022380Y-101404761D01*
X47070000Y-101309523D01*
X47117619Y-101261904D01*
X47212857Y-101214285D01*
X47308095Y-101214285D01*
X47450952Y-101261904D01*
X48022380Y-101833333D01*
X48022380Y-101214285D01*
X86022380Y-99166666D02*
X85546190Y-99500000D01*
X86022380Y-99738095D02*
X85022380Y-99738095D01*
X85022380Y-99357142D01*
X85070000Y-99261904D01*
X85117619Y-99214285D01*
X85212857Y-99166666D01*
X85355714Y-99166666D01*
X85450952Y-99214285D01*
X85498571Y-99261904D01*
X85546190Y-99357142D01*
X85546190Y-99738095D01*
X85022380Y-98261904D02*
X85022380Y-98738095D01*
X85498571Y-98785714D01*
X85450952Y-98738095D01*
X85403333Y-98642857D01*
X85403333Y-98404761D01*
X85450952Y-98309523D01*
X85498571Y-98261904D01*
X85593809Y-98214285D01*
X85831904Y-98214285D01*
X85927142Y-98261904D01*
X85974761Y-98309523D01*
X86022380Y-98404761D01*
X86022380Y-98642857D01*
X85974761Y-98738095D01*
X85927142Y-98785714D01*
X53022380Y-98166666D02*
X52546190Y-98500000D01*
X53022380Y-98738095D02*
X52022380Y-98738095D01*
X52022380Y-98357142D01*
X52070000Y-98261904D01*
X52117619Y-98214285D01*
X52212857Y-98166666D01*
X52355714Y-98166666D01*
X52450952Y-98214285D01*
X52498571Y-98261904D01*
X52546190Y-98357142D01*
X52546190Y-98738095D01*
X52022380Y-97833333D02*
X52022380Y-97166666D01*
X53022380Y-97595238D01*
X69826286Y-133297691D02*
X70331362Y-133802767D01*
X70398706Y-133937454D01*
X70398706Y-134072141D01*
X70331362Y-134206828D01*
X70264019Y-134274171D01*
X70196675Y-133061988D02*
X70196675Y-132994645D01*
X70230347Y-132893630D01*
X70398706Y-132725271D01*
X70499721Y-132691599D01*
X70567065Y-132691599D01*
X70668080Y-132725271D01*
X70735423Y-132792614D01*
X70802767Y-132927301D01*
X70802767Y-133735423D01*
X71240500Y-133297691D01*
X98833333Y-108882380D02*
X98500000Y-108406190D01*
X98261904Y-108882380D02*
X98261904Y-107882380D01*
X98642857Y-107882380D01*
X98738095Y-107930000D01*
X98785714Y-107977619D01*
X98833333Y-108072857D01*
X98833333Y-108215714D01*
X98785714Y-108310952D01*
X98738095Y-108358571D01*
X98642857Y-108406190D01*
X98261904Y-108406190D01*
X99166666Y-107882380D02*
X99785714Y-107882380D01*
X99452380Y-108263333D01*
X99595238Y-108263333D01*
X99690476Y-108310952D01*
X99738095Y-108358571D01*
X99785714Y-108453809D01*
X99785714Y-108691904D01*
X99738095Y-108787142D01*
X99690476Y-108834761D01*
X99595238Y-108882380D01*
X99309523Y-108882380D01*
X99214285Y-108834761D01*
X99166666Y-108787142D01*
X90022380Y-99166666D02*
X89546190Y-99500000D01*
X90022380Y-99738095D02*
X89022380Y-99738095D01*
X89022380Y-99357142D01*
X89070000Y-99261904D01*
X89117619Y-99214285D01*
X89212857Y-99166666D01*
X89355714Y-99166666D01*
X89450952Y-99214285D01*
X89498571Y-99261904D01*
X89546190Y-99357142D01*
X89546190Y-99738095D01*
X89022380Y-98309523D02*
X89022380Y-98500000D01*
X89070000Y-98595238D01*
X89117619Y-98642857D01*
X89260476Y-98738095D01*
X89450952Y-98785714D01*
X89831904Y-98785714D01*
X89927142Y-98738095D01*
X89974761Y-98690476D01*
X90022380Y-98595238D01*
X90022380Y-98404761D01*
X89974761Y-98309523D01*
X89927142Y-98261904D01*
X89831904Y-98214285D01*
X89593809Y-98214285D01*
X89498571Y-98261904D01*
X89450952Y-98309523D01*
X89403333Y-98404761D01*
X89403333Y-98595238D01*
X89450952Y-98690476D01*
X89498571Y-98738095D01*
X89593809Y-98785714D01*
X101952380Y-114061904D02*
X102761904Y-114061904D01*
X102857142Y-114014285D01*
X102904761Y-113966666D01*
X102952380Y-113871428D01*
X102952380Y-113680952D01*
X102904761Y-113585714D01*
X102857142Y-113538095D01*
X102761904Y-113490476D01*
X101952380Y-113490476D01*
X102047619Y-113061904D02*
X102000000Y-113014285D01*
X101952380Y-112919047D01*
X101952380Y-112680952D01*
X102000000Y-112585714D01*
X102047619Y-112538095D01*
X102142857Y-112490476D01*
X102238095Y-112490476D01*
X102380952Y-112538095D01*
X102952380Y-113109523D01*
X102952380Y-112490476D01*
X48882380Y-121166666D02*
X48406190Y-121500000D01*
X48882380Y-121738095D02*
X47882380Y-121738095D01*
X47882380Y-121357142D01*
X47930000Y-121261904D01*
X47977619Y-121214285D01*
X48072857Y-121166666D01*
X48215714Y-121166666D01*
X48310952Y-121214285D01*
X48358571Y-121261904D01*
X48406190Y-121357142D01*
X48406190Y-121738095D01*
X48882380Y-120214285D02*
X48882380Y-120785714D01*
X48882380Y-120500000D02*
X47882380Y-120500000D01*
X48025238Y-120595238D01*
X48120476Y-120690476D01*
X48168095Y-120785714D01*
X48022380Y-98738095D02*
X47022380Y-98738095D01*
X47022380Y-98500000D01*
X47070000Y-98357142D01*
X47165238Y-98261904D01*
X47260476Y-98214285D01*
X47450952Y-98166666D01*
X47593809Y-98166666D01*
X47784285Y-98214285D01*
X47879523Y-98261904D01*
X47974761Y-98357142D01*
X48022380Y-98500000D01*
X48022380Y-98738095D01*
X47022380Y-97833333D02*
X47022380Y-97214285D01*
X47403333Y-97547619D01*
X47403333Y-97404761D01*
X47450952Y-97309523D01*
X47498571Y-97261904D01*
X47593809Y-97214285D01*
X47831904Y-97214285D01*
X47927142Y-97261904D01*
X47974761Y-97309523D01*
X48022380Y-97404761D01*
X48022380Y-97690476D01*
X47974761Y-97785714D01*
X47927142Y-97833333D01*
X53022380Y-102166666D02*
X52546190Y-102500000D01*
X53022380Y-102738095D02*
X52022380Y-102738095D01*
X52022380Y-102357142D01*
X52070000Y-102261904D01*
X52117619Y-102214285D01*
X52212857Y-102166666D01*
X52355714Y-102166666D01*
X52450952Y-102214285D01*
X52498571Y-102261904D01*
X52546190Y-102357142D01*
X52546190Y-102738095D01*
X52355714Y-101309523D02*
X53022380Y-101309523D01*
X51974761Y-101547619D02*
X52689047Y-101785714D01*
X52689047Y-101166666D01*
X80927142Y-108166666D02*
X80974761Y-108214285D01*
X81022380Y-108357142D01*
X81022380Y-108452380D01*
X80974761Y-108595238D01*
X80879523Y-108690476D01*
X80784285Y-108738095D01*
X80593809Y-108785714D01*
X80450952Y-108785714D01*
X80260476Y-108738095D01*
X80165238Y-108690476D01*
X80070000Y-108595238D01*
X80022380Y-108452380D01*
X80022380Y-108357142D01*
X80070000Y-108214285D01*
X80117619Y-108166666D01*
X81022380Y-107214285D02*
X81022380Y-107785714D01*
X81022380Y-107500000D02*
X80022380Y-107500000D01*
X80165238Y-107595238D01*
X80260476Y-107690476D01*
X80308095Y-107785714D01*
X72089791Y-95250913D02*
X72594867Y-94745837D01*
X72729554Y-94678493D01*
X72864241Y-94678493D01*
X72998928Y-94745837D01*
X73066271Y-94813180D01*
X71820417Y-94981539D02*
X71382684Y-94543806D01*
X71887760Y-94510134D01*
X71786745Y-94409119D01*
X71753073Y-94308104D01*
X71753073Y-94240760D01*
X71786745Y-94139745D01*
X71955104Y-93971386D01*
X72056119Y-93937715D01*
X72123462Y-93937715D01*
X72224478Y-93971386D01*
X72426508Y-94173417D01*
X72460180Y-94274432D01*
X72460180Y-94341776D01*
X47833333Y-110882380D02*
X47500000Y-110406190D01*
X47261904Y-110882380D02*
X47261904Y-109882380D01*
X47642857Y-109882380D01*
X47738095Y-109930000D01*
X47785714Y-109977619D01*
X47833333Y-110072857D01*
X47833333Y-110215714D01*
X47785714Y-110310952D01*
X47738095Y-110358571D01*
X47642857Y-110406190D01*
X47261904Y-110406190D01*
X48214285Y-109977619D02*
X48261904Y-109930000D01*
X48357142Y-109882380D01*
X48595238Y-109882380D01*
X48690476Y-109930000D01*
X48738095Y-109977619D01*
X48785714Y-110072857D01*
X48785714Y-110168095D01*
X48738095Y-110310952D01*
X48166666Y-110882380D01*
X48785714Y-110882380D01*
X47022380Y-125738095D02*
X46022380Y-125738095D01*
X46022380Y-125500000D01*
X46070000Y-125357142D01*
X46165238Y-125261904D01*
X46260476Y-125214285D01*
X46450952Y-125166666D01*
X46593809Y-125166666D01*
X46784285Y-125214285D01*
X46879523Y-125261904D01*
X46974761Y-125357142D01*
X47022380Y-125500000D01*
X47022380Y-125738095D01*
X47022380Y-124214285D02*
X47022380Y-124785714D01*
X47022380Y-124500000D02*
X46022380Y-124500000D01*
X46165238Y-124595238D01*
X46260476Y-124690476D01*
X46308095Y-124785714D01*
D12*
X48265000Y-103660000D02*
X49735000Y-103660000D01*
X48265000Y-101200000D02*
X48265000Y-103660000D01*
X49735000Y-103660000D02*
X49735000Y-101200000D01*
X86477500Y-99254724D02*
X86477500Y-98745276D01*
X87522500Y-99254724D02*
X87522500Y-98745276D01*
X54522500Y-98254724D02*
X54522500Y-97745276D01*
X53477500Y-98254724D02*
X53477500Y-97745276D01*
X79592105Y-144473009D02*
X81473009Y-142592105D01*
X71467448Y-134467448D02*
X72407900Y-133526996D01*
X72365474Y-137246378D02*
X74246378Y-135365474D01*
X74246378Y-135365474D02*
X81473009Y-142592105D01*
X72407900Y-133526996D02*
X73348352Y-134467448D01*
X72365474Y-137246378D02*
X79592105Y-144473009D01*
G36*
X50698840Y-129764175D02*
G01*
X50727910Y-129543403D01*
X50771315Y-129321378D01*
X50799780Y-129203986D01*
X50812682Y-129155042D01*
X50825461Y-129109156D01*
X50838808Y-129064363D01*
X50853416Y-129018698D01*
X50869975Y-128970197D01*
X50889178Y-128916894D01*
X50911715Y-128856825D01*
X50938279Y-128788025D01*
X50969561Y-128708528D01*
X51006252Y-128616370D01*
X51009172Y-128609066D01*
X51037044Y-128538991D01*
X51064439Y-128469416D01*
X51090452Y-128402692D01*
X51114176Y-128341169D01*
X51134705Y-128287199D01*
X51151134Y-128243133D01*
X51162555Y-128211322D01*
X51163358Y-128208991D01*
X51202559Y-128088203D01*
X51235599Y-127971758D01*
X51263043Y-127856535D01*
X51285455Y-127739415D01*
X51303401Y-127617276D01*
X51317444Y-127487000D01*
X51328148Y-127345464D01*
X51332073Y-127276383D01*
X51337283Y-127179861D01*
X51342300Y-127097296D01*
X51347360Y-127026651D01*
X51352702Y-126965888D01*
X51358563Y-126912971D01*
X51365181Y-126865862D01*
X51372794Y-126822524D01*
X51381640Y-126780920D01*
X51391956Y-126739013D01*
X51397009Y-126720000D01*
X51437538Y-126589889D01*
X51485715Y-126469890D01*
X51540974Y-126360917D01*
X51602747Y-126263886D01*
X51670466Y-126179710D01*
X51743565Y-126109306D01*
X51803039Y-126065135D01*
X51893310Y-126015425D01*
X51994319Y-125976870D01*
X52105160Y-125949652D01*
X52224928Y-125933952D01*
X52352719Y-125929950D01*
X52455234Y-125934890D01*
X52534240Y-125942451D01*
X52625692Y-125953228D01*
X52726469Y-125966745D01*
X52833448Y-125982523D01*
X52943507Y-126000085D01*
X53053526Y-126018955D01*
X53160382Y-126038655D01*
X53248760Y-126056184D01*
X53313710Y-126069414D01*
X53378717Y-126082397D01*
X53440683Y-126094534D01*
X53496513Y-126105226D01*
X53543111Y-126113872D01*
X53577380Y-126119874D01*
X53579373Y-126120201D01*
X53658296Y-126130393D01*
X53749706Y-126137497D01*
X53850375Y-126141418D01*
X53957071Y-126142057D01*
X54066565Y-126139317D01*
X54122533Y-126136582D01*
X54213675Y-126130676D01*
X54291316Y-126123949D01*
X54357951Y-126115931D01*
X54416075Y-126106155D01*
X54468181Y-126094152D01*
X54516766Y-126079453D01*
X54564324Y-126061588D01*
X54597446Y-126047350D01*
X54620034Y-126036912D01*
X54642340Y-126025810D01*
X54666029Y-126013025D01*
X54692767Y-125997535D01*
X54724220Y-125978321D01*
X54762054Y-125954362D01*
X54807935Y-125924638D01*
X54863527Y-125888127D01*
X54930498Y-125843811D01*
X54940000Y-125837508D01*
X55046082Y-125769063D01*
X55141823Y-125711453D01*
X55228171Y-125664171D01*
X55306072Y-125626710D01*
X55376473Y-125598564D01*
X55404232Y-125589337D01*
X55505910Y-125562041D01*
X55597808Y-125546713D01*
X55680961Y-125543529D01*
X55756400Y-125552663D01*
X55825158Y-125574288D01*
X55888269Y-125608581D01*
X55946765Y-125655714D01*
X55976244Y-125685954D01*
X56036899Y-125764851D01*
X56086363Y-125855011D01*
X56124599Y-125956225D01*
X56151565Y-126068284D01*
X56167225Y-126190977D01*
X56171538Y-126324095D01*
X56164465Y-126467428D01*
X56147888Y-126608000D01*
X56138626Y-126673985D01*
X56132108Y-126729992D01*
X56127899Y-126781725D01*
X56125561Y-126834885D01*
X56124658Y-126895177D01*
X56124605Y-126912000D01*
X56124733Y-126966535D01*
X56125466Y-127008209D01*
X56127072Y-127040156D01*
X56129817Y-127065510D01*
X56133967Y-127087407D01*
X56139788Y-127108980D01*
X56141945Y-127116000D01*
X56156573Y-127157970D01*
X56174808Y-127201217D01*
X56197334Y-127246727D01*
X56224834Y-127295489D01*
X56257992Y-127348490D01*
X56297494Y-127406718D01*
X56344022Y-127471161D01*
X56398262Y-127542807D01*
X56460896Y-127622644D01*
X56532609Y-127711659D01*
X56614085Y-127810841D01*
X56668241Y-127876000D01*
X56717711Y-127935658D01*
X56758573Y-127985904D01*
X56792764Y-128029360D01*
X56822223Y-128068647D01*
X56848887Y-128106385D01*
X56874695Y-128145196D01*
X56901583Y-128187702D01*
X56916148Y-128211339D01*
X57005207Y-128369532D01*
X57086503Y-128539890D01*
X57159226Y-128720168D01*
X57222570Y-128908119D01*
X57275723Y-129101500D01*
X57317878Y-129298066D01*
X57327589Y-129353300D01*
X57339747Y-129428112D01*
X57349512Y-129494093D01*
X57357131Y-129554529D01*
X57362852Y-129612704D01*
X57366921Y-129671904D01*
X57369585Y-129735414D01*
X57371092Y-129806518D01*
X57371689Y-129888503D01*
X57371719Y-129940000D01*
X57371536Y-130013681D01*
X57371084Y-130073801D01*
X57370240Y-130122798D01*
X57368880Y-130163110D01*
X57366880Y-130197174D01*
X57364116Y-130227429D01*
X57360466Y-130256312D01*
X57355806Y-130286262D01*
X57353473Y-130300000D01*
X57313206Y-130491127D01*
X57259287Y-130679035D01*
X57192461Y-130861969D01*
X57113478Y-131038174D01*
X57023083Y-131205897D01*
X56922025Y-131363382D01*
X56870122Y-131434597D01*
X56777641Y-131544902D01*
X56675268Y-131646100D01*
X56564659Y-131737092D01*
X56447473Y-131816784D01*
X56325367Y-131884079D01*
X56199998Y-131937882D01*
X56073024Y-131977094D01*
X56037507Y-131985289D01*
X56000833Y-131992356D01*
X55965160Y-131997324D01*
X55926348Y-132000524D01*
X55880259Y-132002284D01*
X55822754Y-132002936D01*
X55816000Y-132002953D01*
X55747094Y-132002013D01*
X55683102Y-131998566D01*
X55620668Y-131992094D01*
X55556438Y-131982081D01*
X55487058Y-131968009D01*
X55409173Y-131949360D01*
X55325665Y-131927319D01*
X55234309Y-131902476D01*
X55156801Y-131881542D01*
X55091568Y-131864167D01*
X55037034Y-131849999D01*
X54991626Y-131838688D01*
X54953771Y-131829882D01*
X54921893Y-131823232D01*
X54894418Y-131818385D01*
X54869773Y-131814991D01*
X54846384Y-131812700D01*
X54822676Y-131811159D01*
X54800000Y-131810135D01*
X54726565Y-131809952D01*
X54655327Y-131815813D01*
X54584601Y-131828353D01*
X54512700Y-131848205D01*
X54437936Y-131876003D01*
X54358625Y-131912382D01*
X54273078Y-131957976D01*
X54179611Y-132013419D01*
X54076535Y-132079345D01*
X54066485Y-132085976D01*
X53937096Y-132166302D01*
X53798310Y-132242838D01*
X53653147Y-132314304D01*
X53504630Y-132379417D01*
X53355781Y-132436895D01*
X53209620Y-132485458D01*
X53069169Y-132523823D01*
X52996116Y-132539979D01*
X52904281Y-132555510D01*
X52807221Y-132566674D01*
X52708699Y-132573337D01*
X52612477Y-132575371D01*
X52522318Y-132572642D01*
X52441984Y-132565022D01*
X52412000Y-132560316D01*
X52266803Y-132528668D01*
X52130049Y-132487628D01*
X52003336Y-132437798D01*
X51888259Y-132379779D01*
X51818944Y-132336947D01*
X51750649Y-132286772D01*
X51676729Y-132224672D01*
X51599191Y-132152788D01*
X51520040Y-132073258D01*
X51441283Y-131988224D01*
X51364925Y-131899824D01*
X51292971Y-131810198D01*
X51227427Y-131721485D01*
X51188921Y-131664881D01*
X51142882Y-131591748D01*
X51093624Y-131508452D01*
X51042898Y-131418317D01*
X50992455Y-131324668D01*
X50944048Y-131230829D01*
X50899428Y-131140124D01*
X50860348Y-131055876D01*
X50828558Y-130981411D01*
X50827991Y-130980000D01*
X50787600Y-130872448D01*
X50754763Y-130768705D01*
X50728849Y-130665458D01*
X50709228Y-130559394D01*
X50695270Y-130447201D01*
X50686345Y-130325568D01*
X50682287Y-130214155D01*
X50682856Y-130125717D01*
X50876882Y-130125717D01*
X50879961Y-130281004D01*
X50891519Y-130427002D01*
X50903666Y-130515670D01*
X50918620Y-130598010D01*
X50936429Y-130677070D01*
X50957847Y-130754732D01*
X50983625Y-130832877D01*
X51014518Y-130913390D01*
X51051279Y-130998151D01*
X51094661Y-131089044D01*
X51145417Y-131187950D01*
X51204301Y-131296753D01*
X51246346Y-131372000D01*
X51308401Y-131478132D01*
X51369105Y-131573415D01*
X51431477Y-131661954D01*
X51498537Y-131747853D01*
X51573304Y-131835215D01*
X51643584Y-131912000D01*
X51723575Y-131994684D01*
X51797557Y-132065153D01*
X51867798Y-132124882D01*
X51936565Y-132175351D01*
X52006126Y-132218034D01*
X52078748Y-132254410D01*
X52156698Y-132285956D01*
X52242246Y-132314149D01*
X52276000Y-132323948D01*
X52353507Y-132344677D01*
X52422175Y-132360248D01*
X52485780Y-132370970D01*
X52548097Y-132377149D01*
X52612903Y-132379094D01*
X52683974Y-132377113D01*
X52765086Y-132371513D01*
X52810082Y-132367500D01*
X52925911Y-132351290D01*
X53051202Y-132323762D01*
X53184567Y-132285356D01*
X53324617Y-132236510D01*
X53469961Y-132177665D01*
X53604000Y-132116589D01*
X53684123Y-132077071D01*
X53758825Y-132037652D01*
X53832284Y-131995935D01*
X53908679Y-131949526D01*
X53992186Y-131896029D01*
X54016000Y-131880386D01*
X54092697Y-131832029D01*
X54172074Y-131786092D01*
X54250927Y-131744220D01*
X54326057Y-131708059D01*
X54394262Y-131679255D01*
X54436135Y-131664362D01*
X54505855Y-131643428D01*
X54567040Y-131628659D01*
X54625501Y-131619142D01*
X54687051Y-131613961D01*
X54757503Y-131612203D01*
X54768000Y-131612178D01*
X54816484Y-131612711D01*
X54860529Y-131614653D01*
X54902843Y-131618477D01*
X54946134Y-131624656D01*
X54993109Y-131633665D01*
X55046475Y-131645976D01*
X55108941Y-131662062D01*
X55183213Y-131682397D01*
X55205689Y-131688691D01*
X55310743Y-131717749D01*
X55402437Y-131742034D01*
X55482570Y-131761897D01*
X55552938Y-131777692D01*
X55615340Y-131789771D01*
X55671572Y-131798486D01*
X55723433Y-131804191D01*
X55772719Y-131807237D01*
X55813978Y-131808000D01*
X55931141Y-131800309D01*
X56047355Y-131777166D01*
X56162890Y-131738462D01*
X56278014Y-131684089D01*
X56392994Y-131613938D01*
X56508098Y-131527902D01*
X56509053Y-131527122D01*
X56593952Y-131449372D01*
X56676492Y-131357435D01*
X56755805Y-131253052D01*
X56831018Y-131137968D01*
X56901263Y-131013925D01*
X56965670Y-130882667D01*
X57023368Y-130745936D01*
X57073487Y-130605475D01*
X57115157Y-130463027D01*
X57147508Y-130320336D01*
X57165400Y-130212272D01*
X57170752Y-130160580D01*
X57174606Y-130096390D01*
X57176966Y-130023135D01*
X57177835Y-129944246D01*
X57177216Y-129863156D01*
X57175113Y-129783297D01*
X57171531Y-129708100D01*
X57166472Y-129640998D01*
X57164778Y-129624000D01*
X57135444Y-129408294D01*
X57094001Y-129198143D01*
X57040838Y-128994727D01*
X56976348Y-128799225D01*
X56900921Y-128612815D01*
X56814949Y-128436679D01*
X56718823Y-128271995D01*
X56713704Y-128264000D01*
X56698253Y-128240271D01*
X56683077Y-128217784D01*
X56666999Y-128195033D01*
X56648843Y-128170515D01*
X56627431Y-128142727D01*
X56601586Y-128110164D01*
X56570131Y-128071322D01*
X56531889Y-128024699D01*
X56485683Y-127968788D01*
X56431923Y-127904000D01*
X56353930Y-127809318D01*
X56285881Y-127724877D01*
X56226769Y-127649252D01*
X56175587Y-127581018D01*
X56131326Y-127518751D01*
X56092980Y-127461027D01*
X56059540Y-127406422D01*
X56029999Y-127353511D01*
X56003350Y-127300871D01*
X55999425Y-127292670D01*
X55974253Y-127236074D01*
X55955816Y-127184793D01*
X55942777Y-127133550D01*
X55933801Y-127077066D01*
X55927554Y-127010064D01*
X55927406Y-127008000D01*
X55924440Y-126936720D01*
X55925394Y-126858947D01*
X55930400Y-126772555D01*
X55939588Y-126675420D01*
X55953089Y-126565416D01*
X55955900Y-126544724D01*
X55963484Y-126483648D01*
X55969612Y-126422506D01*
X55973871Y-126366144D01*
X55975849Y-126319410D01*
X55975939Y-126309303D01*
X55971478Y-126209219D01*
X55958619Y-126115427D01*
X55937938Y-126029147D01*
X55910011Y-125951598D01*
X55875413Y-125884001D01*
X55834721Y-125827574D01*
X55788511Y-125783538D01*
X55737359Y-125753113D01*
X55708473Y-125742932D01*
X55671421Y-125738591D01*
X55623145Y-125741850D01*
X55566136Y-125752071D01*
X55502885Y-125768616D01*
X55435884Y-125790847D01*
X55367625Y-125818126D01*
X55310309Y-125844890D01*
X55280291Y-125861094D01*
X55239871Y-125884625D01*
X55191842Y-125913763D01*
X55139000Y-125946789D01*
X55084139Y-125981981D01*
X55034309Y-126014778D01*
X54950017Y-126070463D01*
X54876763Y-126117543D01*
X54812762Y-126156979D01*
X54756226Y-126189732D01*
X54705370Y-126216766D01*
X54658408Y-126239041D01*
X54613555Y-126257520D01*
X54569023Y-126273165D01*
X54535687Y-126283351D01*
X54470716Y-126299279D01*
X54396079Y-126312165D01*
X54310731Y-126322087D01*
X54213631Y-126329124D01*
X54103736Y-126333352D01*
X53980002Y-126334851D01*
X53860000Y-126333992D01*
X53794545Y-126332966D01*
X53738600Y-126331776D01*
X53689798Y-126330122D01*
X53645767Y-126327702D01*
X53604139Y-126324218D01*
X53562544Y-126319367D01*
X53518613Y-126312851D01*
X53469976Y-126304368D01*
X53414264Y-126293618D01*
X53349108Y-126280301D01*
X53272137Y-126264116D01*
X53217750Y-126252575D01*
X53077597Y-126224106D01*
X52941157Y-126199212D01*
X52803352Y-126177070D01*
X52659104Y-126156858D01*
X52522669Y-126139998D01*
X52405375Y-126130488D01*
X52293411Y-126129750D01*
X52189182Y-126137658D01*
X52095098Y-126154086D01*
X52056000Y-126164436D01*
X51975532Y-126195821D01*
X51901729Y-126240247D01*
X51834253Y-126298099D01*
X51772768Y-126369762D01*
X51716936Y-126455622D01*
X51666419Y-126556063D01*
X51626993Y-126654335D01*
X51608342Y-126707955D01*
X51592605Y-126758738D01*
X51579416Y-126808984D01*
X51568407Y-126860991D01*
X51559210Y-126917060D01*
X51551458Y-126979488D01*
X51544783Y-127050575D01*
X51538818Y-127132621D01*
X51533196Y-127227925D01*
X51532122Y-127248000D01*
X51524931Y-127371022D01*
X51516915Y-127480703D01*
X51507715Y-127579691D01*
X51496974Y-127670639D01*
X51484335Y-127756196D01*
X51469439Y-127839013D01*
X51451929Y-127921740D01*
X51431448Y-128007029D01*
X51427793Y-128021399D01*
X51414648Y-128071133D01*
X51400777Y-128120116D01*
X51385571Y-128170079D01*
X51368416Y-128222752D01*
X51348702Y-128279864D01*
X51325817Y-128343145D01*
X51299150Y-128414326D01*
X51268088Y-128495136D01*
X51232021Y-128587305D01*
X51192152Y-128688000D01*
X51162816Y-128762384D01*
X51134169Y-128836152D01*
X51107020Y-128907146D01*
X51082177Y-128973207D01*
X51060445Y-129032175D01*
X51042634Y-129081893D01*
X51029550Y-129120199D01*
X51024418Y-129136431D01*
X50981141Y-129295885D01*
X50945052Y-129460784D01*
X50916367Y-129628673D01*
X50895300Y-129797095D01*
X50882067Y-129963595D01*
X50876882Y-130125717D01*
X50682856Y-130125717D01*
X50683751Y-129986742D01*
X50698840Y-129764175D01*
G37*
G36*
X56779363Y-133068389D02*
G01*
X56822322Y-132998213D01*
X56872436Y-132933403D01*
X56927587Y-132876772D01*
X56985653Y-132831132D01*
X57031181Y-132805172D01*
X57060785Y-132792268D01*
X57085938Y-132784719D01*
X57113323Y-132781142D01*
X57149620Y-132780152D01*
X57152000Y-132780145D01*
X57187474Y-132780694D01*
X57212410Y-132783280D01*
X57232242Y-132789036D01*
X57252405Y-132799096D01*
X57257787Y-132802212D01*
X57297269Y-132834398D01*
X57317787Y-132862212D01*
X57335011Y-132905927D01*
X57341187Y-132956635D01*
X57336295Y-133009735D01*
X57320311Y-133060625D01*
X57318769Y-133064000D01*
X57278759Y-133131059D01*
X57224763Y-133191932D01*
X57157878Y-133245768D01*
X57079202Y-133291715D01*
X56989835Y-133328920D01*
X56968000Y-133336114D01*
X56930952Y-133348985D01*
X56907958Y-133360993D01*
X56897364Y-133374312D01*
X56897513Y-133391113D01*
X56906750Y-133413570D01*
X56907649Y-133415323D01*
X56927513Y-133441105D01*
X56956199Y-133456734D01*
X56995628Y-133462989D01*
X57024023Y-133462639D01*
X57083928Y-133451647D01*
X57145942Y-133425727D01*
X57208685Y-133385566D01*
X57253371Y-133348370D01*
X57290502Y-133316902D01*
X57320205Y-133297845D01*
X57344195Y-133290483D01*
X57364189Y-133294098D01*
X57371883Y-133298773D01*
X57383812Y-133316889D01*
X57386799Y-133344269D01*
X57380921Y-133376955D01*
X57369909Y-133404216D01*
X57350655Y-133433140D01*
X57321276Y-133466749D01*
X57285397Y-133501547D01*
X57246642Y-133534037D01*
X57208635Y-133560722D01*
X57205973Y-133562357D01*
X57139677Y-133594954D01*
X57067784Y-133616782D01*
X56994843Y-133626845D01*
X56925401Y-133624151D01*
X56924000Y-133623948D01*
X56863017Y-133608171D01*
X56812190Y-133580074D01*
X56771094Y-133539340D01*
X56739501Y-133486094D01*
X56723478Y-133437112D01*
X56714183Y-133378239D01*
X56711898Y-133314227D01*
X56716903Y-133249831D01*
X56723389Y-133213588D01*
X56728407Y-133197274D01*
X56913405Y-133197274D01*
X56917376Y-133204456D01*
X56930181Y-133203743D01*
X56953453Y-133195399D01*
X56988824Y-133179688D01*
X57006825Y-133171354D01*
X57045879Y-133149594D01*
X57084750Y-133121658D01*
X57120544Y-133090300D01*
X57150370Y-133058278D01*
X57171337Y-133028348D01*
X57180122Y-133006160D01*
X57181932Y-132970927D01*
X57172883Y-132946406D01*
X57153918Y-132933583D01*
X57125978Y-132933445D01*
X57113865Y-132936704D01*
X57082371Y-132953245D01*
X57047608Y-132981738D01*
X57012098Y-133019220D01*
X56978363Y-133062727D01*
X56948924Y-133109296D01*
X56926302Y-133155964D01*
X56925428Y-133158161D01*
X56916633Y-133181930D01*
X56913405Y-133197274D01*
X56728407Y-133197274D01*
X56745678Y-133141118D01*
X56779363Y-133068389D01*
G37*
G36*
X52270527Y-128904045D02*
G01*
X52291558Y-128746310D01*
X52326958Y-128590612D01*
X52376732Y-128437945D01*
X52440883Y-128289304D01*
X52519414Y-128145684D01*
X52611393Y-128009335D01*
X52717006Y-127880608D01*
X52833299Y-127763459D01*
X52959425Y-127658370D01*
X53094539Y-127565822D01*
X53237794Y-127486296D01*
X53388344Y-127420272D01*
X53545344Y-127368232D01*
X53707947Y-127330656D01*
X53838621Y-127311644D01*
X53891974Y-127307630D01*
X53956267Y-127305619D01*
X54027210Y-127305500D01*
X54100514Y-127307162D01*
X54171890Y-127310494D01*
X54237047Y-127315385D01*
X54291697Y-127321726D01*
X54304000Y-127323656D01*
X54467295Y-127359037D01*
X54625029Y-127408939D01*
X54776340Y-127472733D01*
X54920367Y-127549791D01*
X55056247Y-127639486D01*
X55183121Y-127741191D01*
X55300126Y-127854277D01*
X55406400Y-127978117D01*
X55501083Y-128112083D01*
X55583314Y-128255547D01*
X55583545Y-128256000D01*
X55648361Y-128395624D01*
X55698906Y-128534027D01*
X55735964Y-128674283D01*
X55760318Y-128819463D01*
X55772755Y-128972642D01*
X55773790Y-129001378D01*
X55772911Y-129157104D01*
X55760420Y-129304252D01*
X55735824Y-129445748D01*
X55698630Y-129584519D01*
X55655088Y-129706706D01*
X55587429Y-129856174D01*
X55506414Y-129997859D01*
X55412961Y-130130950D01*
X55307990Y-130254634D01*
X55192419Y-130368101D01*
X55067168Y-130470537D01*
X54933153Y-130561130D01*
X54791296Y-130639070D01*
X54642513Y-130703544D01*
X54487724Y-130753740D01*
X54462971Y-130760262D01*
X54321268Y-130789906D01*
X54173850Y-130808516D01*
X54025537Y-130815733D01*
X53881154Y-130811195D01*
X53836000Y-130807142D01*
X53673783Y-130782107D01*
X53514172Y-130741641D01*
X53358415Y-130686255D01*
X53207760Y-130616461D01*
X53063457Y-130532770D01*
X52926752Y-130435694D01*
X52924120Y-130433631D01*
X52883286Y-130399211D01*
X52835897Y-130355426D01*
X52785166Y-130305584D01*
X52734309Y-130252991D01*
X52686540Y-130200952D01*
X52645074Y-130152775D01*
X52619156Y-130119981D01*
X52525360Y-129981735D01*
X52445904Y-129837573D01*
X52380793Y-129688490D01*
X52330029Y-129535479D01*
X52293617Y-129379535D01*
X52271561Y-129221652D01*
X52264440Y-129074732D01*
X52698216Y-129074732D01*
X52698984Y-129096847D01*
X52700263Y-129103096D01*
X52705031Y-129102316D01*
X52713676Y-129086827D01*
X52725844Y-129057352D01*
X52735219Y-129031758D01*
X52751772Y-128987396D01*
X52772150Y-128936284D01*
X52793243Y-128886094D01*
X52805257Y-128858934D01*
X52882936Y-128706871D01*
X52975382Y-128560024D01*
X53081948Y-128419312D01*
X53201988Y-128285653D01*
X53223577Y-128263811D01*
X53348824Y-128147103D01*
X53476960Y-128044685D01*
X53610442Y-127955007D01*
X53751727Y-127876519D01*
X53903271Y-127807668D01*
X54012000Y-127766076D01*
X54100000Y-127734661D01*
X53988000Y-127739126D01*
X53891653Y-127745346D01*
X53804541Y-127756444D01*
X53720376Y-127773406D01*
X53649960Y-127792147D01*
X53515293Y-127839550D01*
X53387893Y-127900699D01*
X53268598Y-127974688D01*
X53158250Y-128060613D01*
X53057686Y-128157567D01*
X52967747Y-128264644D01*
X52889272Y-128380938D01*
X52823102Y-128505544D01*
X52770074Y-128637556D01*
X52731030Y-128776067D01*
X52728840Y-128785990D01*
X52722578Y-128819726D01*
X52716476Y-128861171D01*
X52710815Y-128907203D01*
X52705877Y-128954698D01*
X52701944Y-129000534D01*
X52699296Y-129041586D01*
X52698216Y-129074732D01*
X52264440Y-129074732D01*
X52263863Y-129062824D01*
X52270527Y-128904045D01*
G37*
G36*
X52096686Y-132789129D02*
G01*
X52136333Y-132815196D01*
X52170354Y-132856219D01*
X52184410Y-132880803D01*
X52202217Y-132925771D01*
X52211392Y-132971622D01*
X52212097Y-133015193D01*
X52204494Y-133053325D01*
X52188745Y-133082856D01*
X52173322Y-133096499D01*
X52139288Y-133110154D01*
X52107901Y-133108171D01*
X52086203Y-133096304D01*
X52072445Y-133080564D01*
X52060863Y-133055533D01*
X52050483Y-133018692D01*
X52043794Y-132986552D01*
X52035273Y-132960465D01*
X52021594Y-132949108D01*
X52001411Y-132951672D01*
X51992500Y-132955741D01*
X51968639Y-132973917D01*
X51941112Y-133004413D01*
X51911613Y-133044477D01*
X51881842Y-133091354D01*
X51853495Y-133142292D01*
X51828268Y-133194537D01*
X51807860Y-133245336D01*
X51800745Y-133266842D01*
X51791254Y-133306487D01*
X51785693Y-133347847D01*
X51784297Y-133386346D01*
X51787302Y-133417408D01*
X51792237Y-133432443D01*
X51812501Y-133454189D01*
X51843743Y-133467192D01*
X51883696Y-133471686D01*
X51930094Y-133467904D01*
X51980672Y-133456081D01*
X52033163Y-133436451D01*
X52085300Y-133409249D01*
X52098824Y-133400766D01*
X52142509Y-133374541D01*
X52177087Y-133359092D01*
X52204551Y-133353670D01*
X52220019Y-133355290D01*
X52237868Y-133366991D01*
X52245911Y-133388338D01*
X52243038Y-133415543D01*
X52240100Y-133423756D01*
X52222509Y-133451908D01*
X52192941Y-133483586D01*
X52154341Y-133516546D01*
X52109654Y-133548542D01*
X52061826Y-133577328D01*
X52013802Y-133600660D01*
X52001572Y-133605585D01*
X51957550Y-133618281D01*
X51906030Y-133626629D01*
X51852323Y-133630317D01*
X51801745Y-133629035D01*
X51759609Y-133622472D01*
X51751755Y-133620210D01*
X51712466Y-133601373D01*
X51674526Y-133572562D01*
X51643616Y-133538549D01*
X51631631Y-133519277D01*
X51613956Y-133468959D01*
X51606271Y-133409000D01*
X51608287Y-133342024D01*
X51619716Y-133270652D01*
X51640270Y-133197508D01*
X51669661Y-133125213D01*
X51676451Y-133111331D01*
X51708445Y-133054584D01*
X51746790Y-132997521D01*
X51789231Y-132942726D01*
X51833514Y-132892787D01*
X51877384Y-132850288D01*
X51918588Y-132817817D01*
X51946548Y-132801522D01*
X52001538Y-132782207D01*
X52051669Y-132778104D01*
X52096686Y-132789129D01*
G37*
G36*
X53010862Y-132821086D02*
G01*
X53054876Y-132836549D01*
X53090081Y-132861412D01*
X53093467Y-132864944D01*
X53115973Y-132899764D01*
X53126968Y-132939841D01*
X53125659Y-132980230D01*
X53116295Y-133007427D01*
X53096838Y-133030868D01*
X53070475Y-133040224D01*
X53037939Y-133035469D01*
X52999967Y-133016574D01*
X52993090Y-133012000D01*
X52969272Y-132997081D01*
X52948980Y-132986924D01*
X52938622Y-132984000D01*
X52915378Y-132991099D01*
X52885466Y-133012122D01*
X52849325Y-133046655D01*
X52807392Y-133094287D01*
X52765416Y-133147542D01*
X52708572Y-133235423D01*
X52663027Y-133332942D01*
X52629975Y-133437328D01*
X52619643Y-133485020D01*
X52612410Y-133520322D01*
X52604672Y-133552545D01*
X52597767Y-133576267D01*
X52595832Y-133581468D01*
X52577119Y-133607524D01*
X52549059Y-133624726D01*
X52516163Y-133632213D01*
X52482944Y-133629121D01*
X52453917Y-133614589D01*
X52448396Y-133609627D01*
X52428333Y-133579726D01*
X52417011Y-133545233D01*
X52412244Y-133512414D01*
X52409187Y-133468267D01*
X52407716Y-133415030D01*
X52407705Y-133354941D01*
X52409031Y-133290237D01*
X52411570Y-133223157D01*
X52415196Y-133155938D01*
X52419785Y-133090819D01*
X52425212Y-133030036D01*
X52431354Y-132975828D01*
X52438085Y-132930433D01*
X52445281Y-132896088D01*
X52452818Y-132875031D01*
X52454442Y-132872494D01*
X52484544Y-132841141D01*
X52518479Y-132824210D01*
X52551942Y-132820000D01*
X52580861Y-132822421D01*
X52601351Y-132831216D01*
X52611355Y-132839394D01*
X52623581Y-132855068D01*
X52630254Y-132875432D01*
X52631343Y-132902749D01*
X52626817Y-132939283D01*
X52616645Y-132987297D01*
X52608887Y-133018429D01*
X52598853Y-133059413D01*
X52589922Y-133099679D01*
X52583242Y-133133854D01*
X52580427Y-133152000D01*
X52575079Y-133196000D01*
X52608030Y-133136597D01*
X52651334Y-133064449D01*
X52697541Y-132998180D01*
X52744957Y-132939758D01*
X52791889Y-132891152D01*
X52836642Y-132854330D01*
X52866543Y-132836230D01*
X52912638Y-132820413D01*
X52962097Y-132815537D01*
X53010862Y-132821086D01*
G37*
G36*
X54162916Y-132808609D02*
G01*
X54192009Y-132826682D01*
X54211881Y-132852880D01*
X54220101Y-132877554D01*
X54223931Y-132908993D01*
X54223270Y-132948959D01*
X54218017Y-132999214D01*
X54208072Y-133061519D01*
X54196500Y-133122071D01*
X54187379Y-133167762D01*
X54179492Y-133208011D01*
X54173338Y-133240201D01*
X54169419Y-133261719D01*
X54168216Y-133269827D01*
X54171721Y-133265354D01*
X54181233Y-133248926D01*
X54195484Y-133222836D01*
X54213207Y-133189381D01*
X54222701Y-133171139D01*
X54269852Y-133085260D01*
X54315189Y-133013648D01*
X54359710Y-132954818D01*
X54392630Y-132918728D01*
X54435164Y-132881935D01*
X54476492Y-132859141D01*
X54519591Y-132848903D01*
X54538498Y-132848000D01*
X54579918Y-132853460D01*
X54614119Y-132870260D01*
X54641415Y-132899024D01*
X54662121Y-132940379D01*
X54676551Y-132994950D01*
X54685020Y-133063362D01*
X54687841Y-133144883D01*
X54688740Y-133193533D01*
X54691061Y-133235249D01*
X54694562Y-133267750D01*
X54698999Y-133288759D01*
X54703990Y-133296000D01*
X54709183Y-133289196D01*
X54720410Y-133270174D01*
X54736528Y-133241014D01*
X54756394Y-133203798D01*
X54778867Y-133160608D01*
X54786977Y-133144778D01*
X54823199Y-133075178D01*
X54854370Y-133018643D01*
X54881663Y-132973496D01*
X54906251Y-132938061D01*
X54929305Y-132910661D01*
X54951998Y-132889619D01*
X54975502Y-132873261D01*
X54977765Y-132871921D01*
X55003102Y-132858294D01*
X55024101Y-132851258D01*
X55048008Y-132849149D01*
X55073731Y-132849871D01*
X55104560Y-132852284D01*
X55125077Y-132857097D01*
X55140963Y-132866213D01*
X55152446Y-132876246D01*
X55171151Y-132896707D01*
X55186553Y-132920413D01*
X55199308Y-132949543D01*
X55210074Y-132986275D01*
X55219510Y-133032789D01*
X55228272Y-133091263D01*
X55235682Y-133152000D01*
X55241449Y-133198587D01*
X55248090Y-133245745D01*
X55254787Y-133287988D01*
X55260720Y-133319832D01*
X55260756Y-133320000D01*
X55268277Y-133351915D01*
X55276546Y-133374060D01*
X55288938Y-133392447D01*
X55308827Y-133413088D01*
X55317774Y-133421573D01*
X55343638Y-133448004D01*
X55357799Y-133468226D01*
X55362000Y-133484325D01*
X55354566Y-133513442D01*
X55334533Y-133540064D01*
X55305299Y-133561851D01*
X55270263Y-133576463D01*
X55232824Y-133581560D01*
X55221717Y-133580894D01*
X55179408Y-133570103D01*
X55145183Y-133547340D01*
X55118127Y-133511636D01*
X55097325Y-133462021D01*
X55091970Y-133443540D01*
X55087075Y-133420144D01*
X55081242Y-133384386D01*
X55074974Y-133339837D01*
X55068780Y-133290068D01*
X55063709Y-133244000D01*
X55056452Y-133178153D01*
X55049672Y-133127131D01*
X55043133Y-133089775D01*
X55036598Y-133064925D01*
X55029831Y-133051422D01*
X55023740Y-133048000D01*
X55014959Y-133052301D01*
X55002804Y-133065845D01*
X54986694Y-133089594D01*
X54966045Y-133124510D01*
X54940274Y-133171554D01*
X54908799Y-133231688D01*
X54889110Y-133270169D01*
X54862761Y-133321253D01*
X54837143Y-133369571D01*
X54813635Y-133412625D01*
X54793617Y-133447914D01*
X54778468Y-133472939D01*
X54772065Y-133482283D01*
X54745193Y-133510112D01*
X54712681Y-133532996D01*
X54679602Y-133547888D01*
X54656000Y-133552000D01*
X54629956Y-133546907D01*
X54600714Y-133533910D01*
X54574377Y-133516427D01*
X54557052Y-133497879D01*
X54555989Y-133495979D01*
X54547604Y-133473907D01*
X54540323Y-133441631D01*
X54533989Y-133397906D01*
X54528444Y-133341488D01*
X54523529Y-133271131D01*
X54520582Y-133217032D01*
X54517713Y-133167987D01*
X54514398Y-133125415D01*
X54510888Y-133091790D01*
X54507436Y-133069585D01*
X54504738Y-133061538D01*
X54496589Y-133058788D01*
X54484983Y-133064645D01*
X54469035Y-133080123D01*
X54447856Y-133106232D01*
X54420561Y-133143986D01*
X54386262Y-133194396D01*
X54379868Y-133204000D01*
X54342768Y-133261322D01*
X54307156Y-133319078D01*
X54274090Y-133375314D01*
X54244629Y-133428076D01*
X54219831Y-133475411D01*
X54200755Y-133515365D01*
X54188459Y-133545983D01*
X54184001Y-133565313D01*
X54184000Y-133565582D01*
X54178696Y-133578251D01*
X54165483Y-133595491D01*
X54160615Y-133600615D01*
X54131109Y-133619780D01*
X54097279Y-133625405D01*
X54063407Y-133617443D01*
X54039967Y-133602000D01*
X54025866Y-133586603D01*
X54015183Y-133567893D01*
X54007679Y-133543903D01*
X54003113Y-133512667D01*
X54001247Y-133472218D01*
X54001839Y-133420591D01*
X54004651Y-133355818D01*
X54006322Y-133326159D01*
X54009738Y-133272868D01*
X54013539Y-133221399D01*
X54017428Y-133175251D01*
X54021110Y-133137925D01*
X54024287Y-133112921D01*
X54024414Y-133112140D01*
X54028125Y-133084161D01*
X54032107Y-133045136D01*
X54035908Y-133000004D01*
X54039077Y-132953703D01*
X54039372Y-132948675D01*
X54042061Y-132904259D01*
X54044567Y-132872923D01*
X54047513Y-132851766D01*
X54051522Y-132837890D01*
X54057217Y-132828394D01*
X54065222Y-132820378D01*
X54067344Y-132818534D01*
X54096101Y-132803470D01*
X54129452Y-132800517D01*
X54162916Y-132808609D01*
G37*
G36*
X53118572Y-133268942D02*
G01*
X53143464Y-133202853D01*
X53156571Y-133175331D01*
X53182701Y-133128799D01*
X53216731Y-133076376D01*
X53254977Y-133023213D01*
X53293757Y-132974455D01*
X53325595Y-132939082D01*
X53382086Y-132885839D01*
X53435044Y-132846087D01*
X53486939Y-132818489D01*
X53540244Y-132801704D01*
X53592000Y-132794703D01*
X53625255Y-132793347D01*
X53647849Y-132794901D01*
X53664976Y-132800131D01*
X53678103Y-132807394D01*
X53699679Y-132826402D01*
X53716735Y-132850233D01*
X53717585Y-132851945D01*
X53730336Y-132871261D01*
X53743640Y-132879885D01*
X53745105Y-132880000D01*
X53773740Y-132886721D01*
X53797689Y-132904146D01*
X53808040Y-132920098D01*
X53811152Y-132931799D01*
X53811894Y-132948233D01*
X53810039Y-132971974D01*
X53805361Y-133005593D01*
X53797632Y-133051662D01*
X53795262Y-133065061D01*
X53783175Y-133143562D01*
X53775310Y-133218319D01*
X53771702Y-133287101D01*
X53772386Y-133347675D01*
X53777396Y-133397809D01*
X53786769Y-133435271D01*
X53789346Y-133441432D01*
X53808870Y-133472791D01*
X53831183Y-133491577D01*
X53853590Y-133510769D01*
X53862547Y-133536159D01*
X53856890Y-133564067D01*
X53855155Y-133567445D01*
X53834856Y-133590119D01*
X53804429Y-133607936D01*
X53769019Y-133619329D01*
X53733775Y-133622733D01*
X53703845Y-133616580D01*
X53700000Y-133614664D01*
X53671957Y-133594597D01*
X53650751Y-133568004D01*
X53635301Y-133532495D01*
X53624523Y-133485680D01*
X53618092Y-133433735D01*
X53612000Y-133367470D01*
X53580000Y-133408595D01*
X53544562Y-133448449D01*
X53500587Y-133489409D01*
X53453039Y-133527356D01*
X53406886Y-133558171D01*
X53385758Y-133569679D01*
X53345001Y-133586586D01*
X53304535Y-133595448D01*
X53277758Y-133597907D01*
X53225885Y-133596135D01*
X53184034Y-133583119D01*
X53149816Y-133557708D01*
X53124000Y-133523986D01*
X53112973Y-133505102D01*
X53105977Y-133488552D01*
X53102113Y-133469838D01*
X53100487Y-133444461D01*
X53100201Y-133407925D01*
X53100208Y-133404607D01*
X53101994Y-133376272D01*
X53281197Y-133376272D01*
X53281259Y-133406135D01*
X53286388Y-133425734D01*
X53287830Y-133427795D01*
X53303774Y-133435771D01*
X53329019Y-133431956D01*
X53364132Y-133416240D01*
X53372428Y-133411637D01*
X53398071Y-133393268D01*
X53429766Y-133364913D01*
X53464497Y-133329773D01*
X53499253Y-133291047D01*
X53531019Y-133251935D01*
X53556249Y-133216463D01*
X53588874Y-133159747D01*
X53611602Y-133106531D01*
X53624079Y-133058498D01*
X53625954Y-133017331D01*
X53616875Y-132984714D01*
X53607439Y-132971403D01*
X53591546Y-132957366D01*
X53576203Y-132953112D01*
X53556306Y-132958354D01*
X53537029Y-132967475D01*
X53508094Y-132987414D01*
X53474467Y-133018958D01*
X53438341Y-133059270D01*
X53401908Y-133105514D01*
X53367364Y-133154851D01*
X53336900Y-133204446D01*
X53312712Y-133251461D01*
X53306730Y-133265315D01*
X53294400Y-133301842D01*
X53285733Y-133340167D01*
X53281197Y-133376272D01*
X53101994Y-133376272D01*
X53104648Y-133334178D01*
X53118572Y-133268942D01*
G37*
G36*
X51281326Y-132529653D02*
G01*
X51321744Y-132531776D01*
X51351257Y-132534986D01*
X51374964Y-132540374D01*
X51397960Y-132549031D01*
X51419813Y-132559311D01*
X51466141Y-132587193D01*
X51497600Y-132618456D01*
X51515190Y-132654413D01*
X51519987Y-132691200D01*
X51513725Y-132737381D01*
X51495801Y-132774169D01*
X51467467Y-132800183D01*
X51429971Y-132814042D01*
X51407022Y-132815987D01*
X51387839Y-132814688D01*
X51378565Y-132807633D01*
X51373897Y-132790116D01*
X51373218Y-132786000D01*
X51362931Y-132750700D01*
X51344014Y-132725014D01*
X51314871Y-132707980D01*
X51273905Y-132698634D01*
X51223977Y-132696000D01*
X51150295Y-132703172D01*
X51076984Y-132723572D01*
X51009549Y-132755526D01*
X50992219Y-132766484D01*
X50950703Y-132799806D01*
X50924465Y-132833864D01*
X50912783Y-132869702D01*
X50912000Y-132882421D01*
X50914106Y-132904173D01*
X50922558Y-132921796D01*
X50940553Y-132941620D01*
X50943172Y-132944131D01*
X50956137Y-132955256D01*
X50971439Y-132965357D01*
X50991500Y-132975488D01*
X51018746Y-132986708D01*
X51055598Y-133000072D01*
X51104482Y-133016638D01*
X51125172Y-133023484D01*
X51211136Y-133053007D01*
X51282660Y-133080385D01*
X51341038Y-133106372D01*
X51387565Y-133131723D01*
X51423535Y-133157191D01*
X51450244Y-133183532D01*
X51468985Y-133211499D01*
X51476506Y-133228213D01*
X51485651Y-133270440D01*
X51484806Y-133317343D01*
X51474401Y-133361459D01*
X51467992Y-133376014D01*
X51437338Y-133420803D01*
X51392891Y-133465233D01*
X51336830Y-133508006D01*
X51271334Y-133547825D01*
X51198581Y-133583395D01*
X51120753Y-133613418D01*
X51040026Y-133636597D01*
X51024000Y-133640238D01*
X50967817Y-133650397D01*
X50910647Y-133657131D01*
X50856402Y-133660241D01*
X50808994Y-133659527D01*
X50772335Y-133654788D01*
X50766788Y-133653383D01*
X50720074Y-133635017D01*
X50687941Y-133610290D01*
X50670182Y-133578947D01*
X50666586Y-133540731D01*
X50667682Y-133531329D01*
X50676520Y-133502890D01*
X50692337Y-133476718D01*
X50711759Y-133457055D01*
X50731409Y-133448147D01*
X50733957Y-133448000D01*
X50749506Y-133450676D01*
X50774048Y-133457620D01*
X50796747Y-133465355D01*
X50854377Y-133479492D01*
X50919992Y-133483647D01*
X50989143Y-133477905D01*
X51057378Y-133462351D01*
X51064000Y-133460253D01*
X51127194Y-133437218D01*
X51182661Y-133412129D01*
X51228834Y-133386000D01*
X51264148Y-133359849D01*
X51287038Y-133334692D01*
X51295938Y-133311545D01*
X51296000Y-133309626D01*
X51293935Y-133295177D01*
X51286773Y-133281722D01*
X51273063Y-133268468D01*
X51251352Y-133254622D01*
X51220189Y-133239389D01*
X51178122Y-133221976D01*
X51123700Y-133201590D01*
X51055470Y-133177436D01*
X51052000Y-133176230D01*
X51003063Y-133158839D01*
X50955952Y-133141389D01*
X50914107Y-133125206D01*
X50880969Y-133111616D01*
X50861763Y-133102868D01*
X50807301Y-133068347D01*
X50767246Y-133026924D01*
X50741459Y-132978370D01*
X50729803Y-132922451D01*
X50729818Y-132880929D01*
X50740143Y-132824188D01*
X50763325Y-132771521D01*
X50800554Y-132720646D01*
X50828071Y-132692000D01*
X50902533Y-132631006D01*
X50984358Y-132584195D01*
X51073410Y-132551615D01*
X51169554Y-132533316D01*
X51272654Y-132529345D01*
X51281326Y-132529653D01*
G37*
G36*
X56613191Y-132370576D02*
G01*
X56641635Y-132385182D01*
X56645334Y-132388607D01*
X56655484Y-132399819D01*
X56661302Y-132411148D01*
X56663632Y-132426920D01*
X56663312Y-132451457D01*
X56662055Y-132474607D01*
X56656750Y-132519284D01*
X56645318Y-132578397D01*
X56627825Y-132651630D01*
X56617216Y-132692000D01*
X56578740Y-132849864D01*
X56551134Y-132998410D01*
X56534169Y-133139846D01*
X56527617Y-133276381D01*
X56531252Y-133410221D01*
X56536555Y-133474230D01*
X56540168Y-133513646D01*
X56541497Y-133541106D01*
X56540375Y-133560515D01*
X56536633Y-133575776D01*
X56531703Y-133587493D01*
X56510762Y-133616690D01*
X56482143Y-133636918D01*
X56449688Y-133647154D01*
X56417241Y-133646374D01*
X56388645Y-133633555D01*
X56381636Y-133627455D01*
X56368463Y-133610202D01*
X56358516Y-133586887D01*
X56351448Y-133555462D01*
X56346914Y-133513880D01*
X56344565Y-133460094D01*
X56344027Y-133405606D01*
X56346724Y-133291131D01*
X56354930Y-133171192D01*
X56368894Y-133043529D01*
X56388867Y-132905886D01*
X56415096Y-132756005D01*
X56416604Y-132748000D01*
X56433799Y-132660338D01*
X56449623Y-132587260D01*
X56464528Y-132527452D01*
X56478969Y-132479602D01*
X56493401Y-132442397D01*
X56508278Y-132414525D01*
X56524054Y-132394672D01*
X56541182Y-132381527D01*
X56543913Y-132380044D01*
X56579276Y-132368750D01*
X56613191Y-132370576D01*
G37*
G36*
X55469710Y-133310960D02*
G01*
X55476347Y-133260143D01*
X55485060Y-133199471D01*
X55495514Y-133130892D01*
X55507377Y-133056356D01*
X55520314Y-132977811D01*
X55533991Y-132897206D01*
X55548074Y-132816489D01*
X55562229Y-132737610D01*
X55576123Y-132662516D01*
X55589420Y-132593157D01*
X55601788Y-132531482D01*
X55612893Y-132479438D01*
X55622399Y-132438976D01*
X55627970Y-132418434D01*
X55645851Y-132378191D01*
X55671617Y-132346859D01*
X55702563Y-132327353D01*
X55716258Y-132323423D01*
X55751982Y-132321178D01*
X55777551Y-132330402D01*
X55794613Y-132351768D01*
X55796527Y-132356027D01*
X55803685Y-132379105D01*
X55807230Y-132406822D01*
X55806966Y-132440790D01*
X55802693Y-132482623D01*
X55794214Y-132533934D01*
X55781332Y-132596337D01*
X55763847Y-132671444D01*
X55751886Y-132720000D01*
X55739551Y-132770007D01*
X55727065Y-132821814D01*
X55715666Y-132870207D01*
X55706591Y-132909973D01*
X55704386Y-132920000D01*
X55696763Y-132955031D01*
X55690008Y-132985893D01*
X55685118Y-133008038D01*
X55683639Y-133014620D01*
X55685422Y-133019130D01*
X55695566Y-133013319D01*
X55714759Y-132996648D01*
X55743687Y-132968574D01*
X55749691Y-132962560D01*
X55818435Y-132898933D01*
X55883171Y-132850436D01*
X55944339Y-132816829D01*
X56002381Y-132797873D01*
X56057736Y-132793329D01*
X56061015Y-132793511D01*
X56092993Y-132797016D01*
X56115945Y-132804174D01*
X56136794Y-132817363D01*
X56141666Y-132821213D01*
X56177586Y-132860386D01*
X56201557Y-132909798D01*
X56213456Y-132968912D01*
X56213162Y-133037187D01*
X56204419Y-133096302D01*
X56177211Y-133190609D01*
X56134783Y-133281273D01*
X56077672Y-133367433D01*
X56006417Y-133448226D01*
X55956284Y-133494463D01*
X55920840Y-133520898D01*
X55878509Y-133546549D01*
X55833955Y-133569077D01*
X55791841Y-133586148D01*
X55756827Y-133595423D01*
X55754075Y-133595810D01*
X55726571Y-133599280D01*
X55702534Y-133602301D01*
X55696000Y-133603119D01*
X55675415Y-133603214D01*
X55648780Y-133600376D01*
X55641174Y-133599083D01*
X55599593Y-133586136D01*
X55562988Y-133565151D01*
X55534284Y-133538667D01*
X55516403Y-133509222D01*
X55511854Y-133486790D01*
X55507531Y-133474410D01*
X55496623Y-133454479D01*
X55487854Y-133440796D01*
X55468680Y-133403282D01*
X55464000Y-133375234D01*
X55464450Y-133367564D01*
X55632845Y-133367564D01*
X55633764Y-133397342D01*
X55645342Y-133421269D01*
X55651636Y-133428363D01*
X55674508Y-133443499D01*
X55702737Y-133447135D01*
X55738353Y-133439219D01*
X55772000Y-133425260D01*
X55821359Y-133395611D01*
X55869142Y-133355323D01*
X55913890Y-133306843D01*
X55954145Y-133252619D01*
X55988448Y-133195100D01*
X56015341Y-133136732D01*
X56033364Y-133079964D01*
X56041060Y-133027243D01*
X56036970Y-132981018D01*
X56036893Y-132980713D01*
X56027155Y-132964962D01*
X56008101Y-132960202D01*
X55978980Y-132966456D01*
X55939277Y-132983631D01*
X55890088Y-133014168D01*
X55838339Y-133056812D01*
X55786778Y-133108577D01*
X55738157Y-133166476D01*
X55695226Y-133227524D01*
X55663608Y-133282926D01*
X55642742Y-133330053D01*
X55632845Y-133367564D01*
X55464450Y-133367564D01*
X55465483Y-133349974D01*
X55469710Y-133310960D01*
G37*
X99254724Y-107522500D02*
X98745276Y-107522500D01*
X99254724Y-106477500D02*
X98745276Y-106477500D01*
X90477500Y-99254724D02*
X90477500Y-98745276D01*
X91522500Y-99254724D02*
X91522500Y-98745276D01*
X101130000Y-110800000D02*
X101130000Y-111940000D01*
X101360000Y-111940000D02*
X101360000Y-114660000D01*
X97950000Y-114660000D02*
X96640000Y-114660000D01*
X96640000Y-114660000D02*
X96640000Y-111940000D01*
X96640000Y-111940000D02*
X96870000Y-111940000D01*
X101360000Y-114660000D02*
X100050000Y-114660000D01*
X101360000Y-111940000D02*
X101130000Y-111940000D01*
X46477500Y-120745276D02*
X46477500Y-121254724D01*
X47522500Y-120745276D02*
X47522500Y-121254724D01*
X48265000Y-99660000D02*
X49735000Y-99660000D01*
X49735000Y-99660000D02*
X49735000Y-97200000D01*
X48265000Y-97200000D02*
X48265000Y-99660000D01*
X53477500Y-102254724D02*
X53477500Y-101745276D01*
X54522500Y-102254724D02*
X54522500Y-101745276D01*
X82510000Y-108146267D02*
X82510000Y-107853733D01*
X81490000Y-108146267D02*
X81490000Y-107853733D01*
X74157574Y-90830822D02*
X79588154Y-85400242D01*
X81469058Y-87281146D02*
X79588154Y-85400242D01*
X72319096Y-92669300D02*
X73259548Y-91728848D01*
X76038478Y-92711726D02*
X81469058Y-87281146D01*
X73259548Y-93609752D02*
X72319096Y-92669300D01*
X76038478Y-92711726D02*
X74157574Y-90830822D01*
X48254724Y-109522500D02*
X47745276Y-109522500D01*
X48254724Y-108477500D02*
X47745276Y-108477500D01*
X47265000Y-124200000D02*
X47265000Y-126660000D01*
X48735000Y-126660000D02*
X48735000Y-124200000D01*
X47265000Y-126660000D02*
X48735000Y-126660000D01*
M02*
