%TF.GenerationSoftware,KiCad,Pcbnew,(6.0.4)*%
%TF.CreationDate,2022-11-10T18:02:23+09:00*%
%TF.ProjectId,rp2040-test,72703230-3430-42d7-9465-73742e6b6963,rev?*%
%TF.SameCoordinates,Original*%
%TF.FileFunction,Paste,Bot*%
%TF.FilePolarity,Positive*%
%FSLAX46Y46*%
G04 Gerber Fmt 4.6, Leading zero omitted, Abs format (unit mm)*
G04 Created by KiCad (PCBNEW (6.0.4)) date 2022-11-10 18:02:23*
%MOMM*%
%LPD*%
G01*
G04 APERTURE LIST*
G04 Aperture macros list*
%AMRoundRect*
0 Rectangle with rounded corners*
0 $1 Rounding radius*
0 $2 $3 $4 $5 $6 $7 $8 $9 X,Y pos of 4 corners*
0 Add a 4 corners polygon primitive as box body*
4,1,4,$2,$3,$4,$5,$6,$7,$8,$9,$2,$3,0*
0 Add four circle primitives for the rounded corners*
1,1,$1+$1,$2,$3*
1,1,$1+$1,$4,$5*
1,1,$1+$1,$6,$7*
1,1,$1+$1,$8,$9*
0 Add four rect primitives between the rounded corners*
20,1,$1+$1,$2,$3,$4,$5,0*
20,1,$1+$1,$4,$5,$6,$7,0*
20,1,$1+$1,$6,$7,$8,$9,0*
20,1,$1+$1,$8,$9,$2,$3,0*%
G04 Aperture macros list end*
%ADD10RoundRect,0.250000X-0.475000X0.337500X-0.475000X-0.337500X0.475000X-0.337500X0.475000X0.337500X0*%
%ADD11RoundRect,0.250000X0.450000X-0.350000X0.450000X0.350000X-0.450000X0.350000X-0.450000X-0.350000X0*%
%ADD12RoundRect,0.250000X0.337500X0.475000X-0.337500X0.475000X-0.337500X-0.475000X0.337500X-0.475000X0*%
%ADD13RoundRect,0.250000X-0.337500X-0.475000X0.337500X-0.475000X0.337500X0.475000X-0.337500X0.475000X0*%
%ADD14RoundRect,0.250000X-0.450000X0.350000X-0.450000X-0.350000X0.450000X-0.350000X0.450000X0.350000X0*%
%ADD15RoundRect,0.250000X-0.350000X-0.450000X0.350000X-0.450000X0.350000X0.450000X-0.350000X0.450000X0*%
%ADD16RoundRect,0.250000X0.475000X-0.337500X0.475000X0.337500X-0.475000X0.337500X-0.475000X-0.337500X0*%
%ADD17RoundRect,0.250000X0.350000X0.450000X-0.350000X0.450000X-0.350000X-0.450000X0.350000X-0.450000X0*%
G04 APERTURE END LIST*
D10*
%TO.C,C4*%
X114200000Y-66962500D03*
X114200000Y-69037500D03*
%TD*%
D11*
%TO.C,R1*%
X118350000Y-58250000D03*
X118350000Y-56250000D03*
%TD*%
D10*
%TO.C,C10*%
X112950000Y-70725000D03*
X112950000Y-72800000D03*
%TD*%
D12*
%TO.C,C16*%
X117137500Y-74400000D03*
X115062500Y-74400000D03*
%TD*%
D13*
%TO.C,C2*%
X118062500Y-65000000D03*
X120137500Y-65000000D03*
%TD*%
D11*
%TO.C,R9*%
X121566000Y-44280000D03*
X121566000Y-42280000D03*
%TD*%
D13*
%TO.C,C1*%
X120400000Y-74250000D03*
X122475000Y-74250000D03*
%TD*%
%TO.C,C13*%
X122162500Y-58050000D03*
X124237500Y-58050000D03*
%TD*%
D14*
%TO.C,R4*%
X115450000Y-42650000D03*
X115450000Y-44650000D03*
%TD*%
D13*
%TO.C,C9*%
X122893000Y-64262000D03*
X124968000Y-64262000D03*
%TD*%
D10*
%TO.C,C5*%
X116170000Y-63100000D03*
X116170000Y-65175000D03*
%TD*%
D15*
%TO.C,R10*%
X121582000Y-46382000D03*
X123582000Y-46382000D03*
%TD*%
%TO.C,R3*%
X111850000Y-50100000D03*
X113850000Y-50100000D03*
%TD*%
D16*
%TO.C,C7*%
X123200000Y-62037500D03*
X123200000Y-59962500D03*
%TD*%
D10*
%TO.C,C6*%
X122250000Y-66550000D03*
X122250000Y-68625000D03*
%TD*%
D16*
%TO.C,C15*%
X116586000Y-51329500D03*
X116586000Y-49254500D03*
%TD*%
D11*
%TO.C,R7*%
X122750000Y-54850000D03*
X122750000Y-52850000D03*
%TD*%
D16*
%TO.C,C3*%
X121150000Y-62037500D03*
X121150000Y-59962500D03*
%TD*%
D14*
%TO.C,R5*%
X124306000Y-40937000D03*
X124306000Y-42937000D03*
%TD*%
D11*
%TO.C,R2*%
X120350000Y-58250000D03*
X120350000Y-56250000D03*
%TD*%
D10*
%TO.C,C8*%
X123825000Y-70336500D03*
X123825000Y-72411500D03*
%TD*%
D17*
%TO.C,R8*%
X113850000Y-52150000D03*
X111850000Y-52150000D03*
%TD*%
M02*
