%TF.GenerationSoftware,KiCad,Pcbnew,(6.0.4)*%
%TF.CreationDate,2022-11-10T18:02:23+09:00*%
%TF.ProjectId,rp2040-test,72703230-3430-42d7-9465-73742e6b6963,rev?*%
%TF.SameCoordinates,Original*%
%TF.FileFunction,Legend,Top*%
%TF.FilePolarity,Positive*%
%FSLAX46Y46*%
G04 Gerber Fmt 4.6, Leading zero omitted, Abs format (unit mm)*
G04 Created by KiCad (PCBNEW (6.0.4)) date 2022-11-10 18:02:23*
%MOMM*%
%LPD*%
G01*
G04 APERTURE LIST*
%ADD10C,0.120000*%
%ADD11C,0.150000*%
%ADD12C,0.200000*%
G04 APERTURE END LIST*
D10*
X116459000Y-76962000D02*
X116967000Y-76962000D01*
X123890285Y-42741904D02*
X124385523Y-42741904D01*
X124118857Y-43046666D01*
X124233142Y-43046666D01*
X124309333Y-43084761D01*
X124347428Y-43122857D01*
X124385523Y-43199047D01*
X124385523Y-43389523D01*
X124347428Y-43465714D01*
X124309333Y-43503809D01*
X124233142Y-43541904D01*
X124004571Y-43541904D01*
X123928380Y-43503809D01*
X123890285Y-43465714D01*
X124614095Y-42741904D02*
X124880761Y-43541904D01*
X125147428Y-42741904D01*
X125337904Y-42741904D02*
X125833142Y-42741904D01*
X125566476Y-43046666D01*
X125680761Y-43046666D01*
X125756952Y-43084761D01*
X125795047Y-43122857D01*
X125833142Y-43199047D01*
X125833142Y-43389523D01*
X125795047Y-43465714D01*
X125756952Y-43503809D01*
X125680761Y-43541904D01*
X125452190Y-43541904D01*
X125376000Y-43503809D01*
X125337904Y-43465714D01*
X123259809Y-82827619D02*
X123297904Y-82713333D01*
X123297904Y-82522857D01*
X123259809Y-82446666D01*
X123221714Y-82408571D01*
X123145523Y-82370476D01*
X123069333Y-82370476D01*
X122993142Y-82408571D01*
X122955047Y-82446666D01*
X122916952Y-82522857D01*
X122878857Y-82675238D01*
X122840761Y-82751428D01*
X122802666Y-82789523D01*
X122726476Y-82827619D01*
X122650285Y-82827619D01*
X122574095Y-82789523D01*
X122536000Y-82751428D01*
X122497904Y-82675238D01*
X122497904Y-82484761D01*
X122536000Y-82370476D01*
X122497904Y-82103809D02*
X123297904Y-81913333D01*
X122726476Y-81760952D01*
X123297904Y-81608571D01*
X122497904Y-81418095D01*
X123221714Y-80656190D02*
X123259809Y-80694285D01*
X123297904Y-80808571D01*
X123297904Y-80884761D01*
X123259809Y-80999047D01*
X123183619Y-81075238D01*
X123107428Y-81113333D01*
X122955047Y-81151428D01*
X122840761Y-81151428D01*
X122688380Y-81113333D01*
X122612190Y-81075238D01*
X122536000Y-80999047D01*
X122497904Y-80884761D01*
X122497904Y-80808571D01*
X122536000Y-80694285D01*
X122574095Y-80656190D01*
X123297904Y-80313333D02*
X122497904Y-80313333D01*
X123297904Y-79856190D02*
X122840761Y-80199047D01*
X122497904Y-79856190D02*
X122955047Y-80313333D01*
X110720333Y-52961904D02*
X110567952Y-52961904D01*
X110491761Y-53000000D01*
X110453666Y-53038095D01*
X110377476Y-53152380D01*
X110339380Y-53304761D01*
X110339380Y-53609523D01*
X110377476Y-53685714D01*
X110415571Y-53723809D01*
X110491761Y-53761904D01*
X110644142Y-53761904D01*
X110720333Y-53723809D01*
X110758428Y-53685714D01*
X110796523Y-53609523D01*
X110796523Y-53419047D01*
X110758428Y-53342857D01*
X110720333Y-53304761D01*
X110644142Y-53266666D01*
X110491761Y-53266666D01*
X110415571Y-53304761D01*
X110377476Y-53342857D01*
X110339380Y-53419047D01*
X110720333Y-45548571D02*
X110720333Y-46081904D01*
X110529857Y-45243809D02*
X110339380Y-45815238D01*
X110834619Y-45815238D01*
X110796523Y-68941904D02*
X110339380Y-68941904D01*
X110567952Y-68941904D02*
X110567952Y-68141904D01*
X110491761Y-68256190D01*
X110415571Y-68332380D01*
X110339380Y-68370476D01*
X111558428Y-68941904D02*
X111101285Y-68941904D01*
X111329857Y-68941904D02*
X111329857Y-68141904D01*
X111253666Y-68256190D01*
X111177476Y-68332380D01*
X111101285Y-68370476D01*
X110796523Y-71481904D02*
X110339380Y-71481904D01*
X110567952Y-71481904D02*
X110567952Y-70681904D01*
X110491761Y-70796190D01*
X110415571Y-70872380D01*
X110339380Y-70910476D01*
X111101285Y-70758095D02*
X111139380Y-70720000D01*
X111215571Y-70681904D01*
X111406047Y-70681904D01*
X111482238Y-70720000D01*
X111520333Y-70758095D01*
X111558428Y-70834285D01*
X111558428Y-70910476D01*
X111520333Y-71024761D01*
X111063190Y-71481904D01*
X111558428Y-71481904D01*
X123217190Y-45408904D02*
X123483857Y-46208904D01*
X123750523Y-45408904D01*
X124474333Y-46208904D02*
X124207666Y-45827952D01*
X124017190Y-46208904D02*
X124017190Y-45408904D01*
X124321952Y-45408904D01*
X124398142Y-45447000D01*
X124436238Y-45485095D01*
X124474333Y-45561285D01*
X124474333Y-45675571D01*
X124436238Y-45751761D01*
X124398142Y-45789857D01*
X124321952Y-45827952D01*
X124017190Y-45827952D01*
X124817190Y-45789857D02*
X125083857Y-45789857D01*
X125198142Y-46208904D02*
X124817190Y-46208904D01*
X124817190Y-45408904D01*
X125198142Y-45408904D01*
X125807666Y-45789857D02*
X125541000Y-45789857D01*
X125541000Y-46208904D02*
X125541000Y-45408904D01*
X125921952Y-45408904D01*
X110301285Y-55461904D02*
X110834619Y-55461904D01*
X110491761Y-56261904D01*
X110758428Y-47821904D02*
X110377476Y-47821904D01*
X110339380Y-48202857D01*
X110377476Y-48164761D01*
X110453666Y-48126666D01*
X110644142Y-48126666D01*
X110720333Y-48164761D01*
X110758428Y-48202857D01*
X110796523Y-48279047D01*
X110796523Y-48469523D01*
X110758428Y-48545714D01*
X110720333Y-48583809D01*
X110644142Y-48621904D01*
X110453666Y-48621904D01*
X110377476Y-48583809D01*
X110339380Y-48545714D01*
X122281904Y-54265380D02*
X121900952Y-54532047D01*
X122281904Y-54722523D02*
X121481904Y-54722523D01*
X121481904Y-54417761D01*
X121520000Y-54341571D01*
X121558095Y-54303476D01*
X121634285Y-54265380D01*
X121748571Y-54265380D01*
X121824761Y-54303476D01*
X121862857Y-54341571D01*
X121900952Y-54417761D01*
X121900952Y-54722523D01*
X121481904Y-53922523D02*
X122129523Y-53922523D01*
X122205714Y-53884428D01*
X122243809Y-53846333D01*
X122281904Y-53770142D01*
X122281904Y-53617761D01*
X122243809Y-53541571D01*
X122205714Y-53503476D01*
X122129523Y-53465380D01*
X121481904Y-53465380D01*
X122281904Y-53084428D02*
X121481904Y-53084428D01*
X122281904Y-52627285D01*
X121481904Y-52627285D01*
X110890095Y-35396619D02*
X111271047Y-35129952D01*
X110890095Y-34939476D02*
X111690095Y-34939476D01*
X111690095Y-35244238D01*
X111652000Y-35320428D01*
X111613904Y-35358523D01*
X111537714Y-35396619D01*
X111423428Y-35396619D01*
X111347238Y-35358523D01*
X111309142Y-35320428D01*
X111271047Y-35244238D01*
X111271047Y-34939476D01*
X111690095Y-35663285D02*
X110890095Y-36196619D01*
X111690095Y-36196619D02*
X110890095Y-35663285D01*
X123259809Y-77747619D02*
X123297904Y-77633333D01*
X123297904Y-77442857D01*
X123259809Y-77366666D01*
X123221714Y-77328571D01*
X123145523Y-77290476D01*
X123069333Y-77290476D01*
X122993142Y-77328571D01*
X122955047Y-77366666D01*
X122916952Y-77442857D01*
X122878857Y-77595238D01*
X122840761Y-77671428D01*
X122802666Y-77709523D01*
X122726476Y-77747619D01*
X122650285Y-77747619D01*
X122574095Y-77709523D01*
X122536000Y-77671428D01*
X122497904Y-77595238D01*
X122497904Y-77404761D01*
X122536000Y-77290476D01*
X122497904Y-77023809D02*
X123297904Y-76833333D01*
X122726476Y-76680952D01*
X123297904Y-76528571D01*
X122497904Y-76338095D01*
X123297904Y-76033333D02*
X122497904Y-76033333D01*
X122497904Y-75842857D01*
X122536000Y-75728571D01*
X122612190Y-75652380D01*
X122688380Y-75614285D01*
X122840761Y-75576190D01*
X122955047Y-75576190D01*
X123107428Y-75614285D01*
X123183619Y-75652380D01*
X123259809Y-75728571D01*
X123297904Y-75842857D01*
X123297904Y-76033333D01*
X110339380Y-40278095D02*
X110377476Y-40240000D01*
X110453666Y-40201904D01*
X110644142Y-40201904D01*
X110720333Y-40240000D01*
X110758428Y-40278095D01*
X110796523Y-40354285D01*
X110796523Y-40430476D01*
X110758428Y-40544761D01*
X110301285Y-41001904D01*
X110796523Y-41001904D01*
X112676142Y-49218857D02*
X112790428Y-49256952D01*
X112828523Y-49295047D01*
X112866619Y-49371238D01*
X112866619Y-49485523D01*
X112828523Y-49561714D01*
X112790428Y-49599809D01*
X112714238Y-49637904D01*
X112409476Y-49637904D01*
X112409476Y-48837904D01*
X112676142Y-48837904D01*
X112752333Y-48876000D01*
X112790428Y-48914095D01*
X112828523Y-48990285D01*
X112828523Y-49066476D01*
X112790428Y-49142666D01*
X112752333Y-49180761D01*
X112676142Y-49218857D01*
X112409476Y-49218857D01*
X113361857Y-48837904D02*
X113514238Y-48837904D01*
X113590428Y-48876000D01*
X113666619Y-48952190D01*
X113704714Y-49104571D01*
X113704714Y-49371238D01*
X113666619Y-49523619D01*
X113590428Y-49599809D01*
X113514238Y-49637904D01*
X113361857Y-49637904D01*
X113285666Y-49599809D01*
X113209476Y-49523619D01*
X113171380Y-49371238D01*
X113171380Y-49104571D01*
X113209476Y-48952190D01*
X113285666Y-48876000D01*
X113361857Y-48837904D01*
X114199952Y-48837904D02*
X114352333Y-48837904D01*
X114428523Y-48876000D01*
X114504714Y-48952190D01*
X114542809Y-49104571D01*
X114542809Y-49371238D01*
X114504714Y-49523619D01*
X114428523Y-49599809D01*
X114352333Y-49637904D01*
X114199952Y-49637904D01*
X114123761Y-49599809D01*
X114047571Y-49523619D01*
X114009476Y-49371238D01*
X114009476Y-49104571D01*
X114047571Y-48952190D01*
X114123761Y-48876000D01*
X114199952Y-48837904D01*
X114771380Y-48837904D02*
X115228523Y-48837904D01*
X114999952Y-49637904D02*
X114999952Y-48837904D01*
X111182190Y-47347380D02*
X111144095Y-47461666D01*
X111144095Y-47652142D01*
X111182190Y-47728333D01*
X111220285Y-47766428D01*
X111296476Y-47804523D01*
X111372666Y-47804523D01*
X111448857Y-47766428D01*
X111486952Y-47728333D01*
X111525047Y-47652142D01*
X111563142Y-47499761D01*
X111601238Y-47423571D01*
X111639333Y-47385476D01*
X111715523Y-47347380D01*
X111791714Y-47347380D01*
X111867904Y-47385476D01*
X111906000Y-47423571D01*
X111944095Y-47499761D01*
X111944095Y-47690238D01*
X111906000Y-47804523D01*
X111220285Y-48604523D02*
X111182190Y-48566428D01*
X111144095Y-48452142D01*
X111144095Y-48375952D01*
X111182190Y-48261666D01*
X111258380Y-48185476D01*
X111334571Y-48147380D01*
X111486952Y-48109285D01*
X111601238Y-48109285D01*
X111753619Y-48147380D01*
X111829809Y-48185476D01*
X111906000Y-48261666D01*
X111944095Y-48375952D01*
X111944095Y-48452142D01*
X111906000Y-48566428D01*
X111867904Y-48604523D01*
X111144095Y-49328333D02*
X111144095Y-48947380D01*
X111944095Y-48947380D01*
X123213952Y-70527904D02*
X123671095Y-70527904D01*
X123442523Y-71327904D02*
X123442523Y-70527904D01*
X123861571Y-70527904D02*
X124394904Y-71327904D01*
X124394904Y-70527904D02*
X123861571Y-71327904D01*
X125118714Y-71327904D02*
X124661571Y-71327904D01*
X124890142Y-71327904D02*
X124890142Y-70527904D01*
X124813952Y-70642190D01*
X124737761Y-70718380D01*
X124661571Y-70756476D01*
X125499666Y-71327904D02*
X125652047Y-71327904D01*
X125728238Y-71289809D01*
X125766333Y-71251714D01*
X125842523Y-71137428D01*
X125880619Y-70985047D01*
X125880619Y-70680285D01*
X125842523Y-70604095D01*
X125804428Y-70566000D01*
X125728238Y-70527904D01*
X125575857Y-70527904D01*
X125499666Y-70566000D01*
X125461571Y-70604095D01*
X125423476Y-70680285D01*
X125423476Y-70870761D01*
X125461571Y-70946952D01*
X125499666Y-70985047D01*
X125575857Y-71023142D01*
X125728238Y-71023142D01*
X125804428Y-70985047D01*
X125842523Y-70946952D01*
X125880619Y-70870761D01*
X122299666Y-72577809D02*
X122413952Y-72615904D01*
X122604428Y-72615904D01*
X122680619Y-72577809D01*
X122718714Y-72539714D01*
X122756809Y-72463523D01*
X122756809Y-72387333D01*
X122718714Y-72311142D01*
X122680619Y-72273047D01*
X122604428Y-72234952D01*
X122452047Y-72196857D01*
X122375857Y-72158761D01*
X122337761Y-72120666D01*
X122299666Y-72044476D01*
X122299666Y-71968285D01*
X122337761Y-71892095D01*
X122375857Y-71854000D01*
X122452047Y-71815904D01*
X122642523Y-71815904D01*
X122756809Y-71854000D01*
X123556809Y-72539714D02*
X123518714Y-72577809D01*
X123404428Y-72615904D01*
X123328238Y-72615904D01*
X123213952Y-72577809D01*
X123137761Y-72501619D01*
X123099666Y-72425428D01*
X123061571Y-72273047D01*
X123061571Y-72158761D01*
X123099666Y-72006380D01*
X123137761Y-71930190D01*
X123213952Y-71854000D01*
X123328238Y-71815904D01*
X123404428Y-71815904D01*
X123518714Y-71854000D01*
X123556809Y-71892095D01*
X123899666Y-72615904D02*
X123899666Y-71815904D01*
X124356809Y-72615904D02*
X124013952Y-72158761D01*
X124356809Y-71815904D02*
X123899666Y-72273047D01*
X125118714Y-72615904D02*
X124661571Y-72615904D01*
X124890142Y-72615904D02*
X124890142Y-71815904D01*
X124813952Y-71930190D01*
X124737761Y-72006380D01*
X124661571Y-72044476D01*
X125575857Y-72158761D02*
X125499666Y-72120666D01*
X125461571Y-72082571D01*
X125423476Y-72006380D01*
X125423476Y-71968285D01*
X125461571Y-71892095D01*
X125499666Y-71854000D01*
X125575857Y-71815904D01*
X125728238Y-71815904D01*
X125804428Y-71854000D01*
X125842523Y-71892095D01*
X125880619Y-71968285D01*
X125880619Y-72006380D01*
X125842523Y-72082571D01*
X125804428Y-72120666D01*
X125728238Y-72158761D01*
X125575857Y-72158761D01*
X125499666Y-72196857D01*
X125461571Y-72234952D01*
X125423476Y-72311142D01*
X125423476Y-72463523D01*
X125461571Y-72539714D01*
X125499666Y-72577809D01*
X125575857Y-72615904D01*
X125728238Y-72615904D01*
X125804428Y-72577809D01*
X125842523Y-72539714D01*
X125880619Y-72463523D01*
X125880619Y-72311142D01*
X125842523Y-72234952D01*
X125804428Y-72196857D01*
X125728238Y-72158761D01*
X122871095Y-73827714D02*
X122833000Y-73865809D01*
X122718714Y-73903904D01*
X122642523Y-73903904D01*
X122528238Y-73865809D01*
X122452047Y-73789619D01*
X122413952Y-73713428D01*
X122375857Y-73561047D01*
X122375857Y-73446761D01*
X122413952Y-73294380D01*
X122452047Y-73218190D01*
X122528238Y-73142000D01*
X122642523Y-73103904D01*
X122718714Y-73103904D01*
X122833000Y-73142000D01*
X122871095Y-73180095D01*
X123175857Y-73865809D02*
X123290142Y-73903904D01*
X123480619Y-73903904D01*
X123556809Y-73865809D01*
X123594904Y-73827714D01*
X123633000Y-73751523D01*
X123633000Y-73675333D01*
X123594904Y-73599142D01*
X123556809Y-73561047D01*
X123480619Y-73522952D01*
X123328238Y-73484857D01*
X123252047Y-73446761D01*
X123213952Y-73408666D01*
X123175857Y-73332476D01*
X123175857Y-73256285D01*
X123213952Y-73180095D01*
X123252047Y-73142000D01*
X123328238Y-73103904D01*
X123518714Y-73103904D01*
X123633000Y-73142000D01*
X123975857Y-73370571D02*
X123975857Y-73903904D01*
X123975857Y-73446761D02*
X124013952Y-73408666D01*
X124090142Y-73370571D01*
X124204428Y-73370571D01*
X124280619Y-73408666D01*
X124318714Y-73484857D01*
X124318714Y-73903904D01*
X125118714Y-73903904D02*
X124661571Y-73903904D01*
X124890142Y-73903904D02*
X124890142Y-73103904D01*
X124813952Y-73218190D01*
X124737761Y-73294380D01*
X124661571Y-73332476D01*
X125385380Y-73103904D02*
X125918714Y-73103904D01*
X125575857Y-73903904D01*
X123594904Y-75191904D02*
X123328238Y-74810952D01*
X123137761Y-75191904D02*
X123137761Y-74391904D01*
X123442523Y-74391904D01*
X123518714Y-74430000D01*
X123556809Y-74468095D01*
X123594904Y-74544285D01*
X123594904Y-74658571D01*
X123556809Y-74734761D01*
X123518714Y-74772857D01*
X123442523Y-74810952D01*
X123137761Y-74810952D01*
X123861571Y-74391904D02*
X124394904Y-75191904D01*
X124394904Y-74391904D02*
X123861571Y-75191904D01*
X125118714Y-75191904D02*
X124661571Y-75191904D01*
X124890142Y-75191904D02*
X124890142Y-74391904D01*
X124813952Y-74506190D01*
X124737761Y-74582380D01*
X124661571Y-74620476D01*
X125804428Y-74391904D02*
X125652047Y-74391904D01*
X125575857Y-74430000D01*
X125537761Y-74468095D01*
X125461571Y-74582380D01*
X125423476Y-74734761D01*
X125423476Y-75039523D01*
X125461571Y-75115714D01*
X125499666Y-75153809D01*
X125575857Y-75191904D01*
X125728238Y-75191904D01*
X125804428Y-75153809D01*
X125842523Y-75115714D01*
X125880619Y-75039523D01*
X125880619Y-74849047D01*
X125842523Y-74772857D01*
X125804428Y-74734761D01*
X125728238Y-74696666D01*
X125575857Y-74696666D01*
X125499666Y-74734761D01*
X125461571Y-74772857D01*
X125423476Y-74849047D01*
X122658380Y-55124333D02*
X123039333Y-55124333D01*
X122582190Y-55352904D02*
X122848857Y-54552904D01*
X123115523Y-55352904D01*
X123801238Y-55352904D02*
X123344095Y-55352904D01*
X123572666Y-55352904D02*
X123572666Y-54552904D01*
X123496476Y-54667190D01*
X123420285Y-54743380D01*
X123344095Y-54781476D01*
X124715523Y-54629095D02*
X124753619Y-54591000D01*
X124829809Y-54552904D01*
X125020285Y-54552904D01*
X125096476Y-54591000D01*
X125134571Y-54629095D01*
X125172666Y-54705285D01*
X125172666Y-54781476D01*
X125134571Y-54895761D01*
X124677428Y-55352904D01*
X125172666Y-55352904D01*
X125439333Y-54552904D02*
X125972666Y-54552904D01*
X125629809Y-55352904D01*
X125109428Y-32581904D02*
X124728476Y-32581904D01*
X124690380Y-32962857D01*
X124728476Y-32924761D01*
X124804666Y-32886666D01*
X124995142Y-32886666D01*
X125071333Y-32924761D01*
X125109428Y-32962857D01*
X125147523Y-33039047D01*
X125147523Y-33229523D01*
X125109428Y-33305714D01*
X125071333Y-33343809D01*
X124995142Y-33381904D01*
X124804666Y-33381904D01*
X124728476Y-33343809D01*
X124690380Y-33305714D01*
X125376095Y-32581904D02*
X125642761Y-33381904D01*
X125909428Y-32581904D01*
X110532761Y-58394761D02*
X110456571Y-58356666D01*
X110418476Y-58318571D01*
X110380380Y-58242380D01*
X110380380Y-58204285D01*
X110418476Y-58128095D01*
X110456571Y-58090000D01*
X110532761Y-58051904D01*
X110685142Y-58051904D01*
X110761333Y-58090000D01*
X110799428Y-58128095D01*
X110837523Y-58204285D01*
X110837523Y-58242380D01*
X110799428Y-58318571D01*
X110761333Y-58356666D01*
X110685142Y-58394761D01*
X110532761Y-58394761D01*
X110456571Y-58432857D01*
X110418476Y-58470952D01*
X110380380Y-58547142D01*
X110380380Y-58699523D01*
X110418476Y-58775714D01*
X110456571Y-58813809D01*
X110532761Y-58851904D01*
X110685142Y-58851904D01*
X110761333Y-58813809D01*
X110799428Y-58775714D01*
X110837523Y-58699523D01*
X110837523Y-58547142D01*
X110799428Y-58470952D01*
X110761333Y-58432857D01*
X110685142Y-58394761D01*
X122658380Y-56267333D02*
X123039333Y-56267333D01*
X122582190Y-56495904D02*
X122848857Y-55695904D01*
X123115523Y-56495904D01*
X123534571Y-55695904D02*
X123610761Y-55695904D01*
X123686952Y-55734000D01*
X123725047Y-55772095D01*
X123763142Y-55848285D01*
X123801238Y-56000666D01*
X123801238Y-56191142D01*
X123763142Y-56343523D01*
X123725047Y-56419714D01*
X123686952Y-56457809D01*
X123610761Y-56495904D01*
X123534571Y-56495904D01*
X123458380Y-56457809D01*
X123420285Y-56419714D01*
X123382190Y-56343523D01*
X123344095Y-56191142D01*
X123344095Y-56000666D01*
X123382190Y-55848285D01*
X123420285Y-55772095D01*
X123458380Y-55734000D01*
X123534571Y-55695904D01*
X124715523Y-55772095D02*
X124753619Y-55734000D01*
X124829809Y-55695904D01*
X125020285Y-55695904D01*
X125096476Y-55734000D01*
X125134571Y-55772095D01*
X125172666Y-55848285D01*
X125172666Y-55924476D01*
X125134571Y-56038761D01*
X124677428Y-56495904D01*
X125172666Y-56495904D01*
X125858380Y-55695904D02*
X125706000Y-55695904D01*
X125629809Y-55734000D01*
X125591714Y-55772095D01*
X125515523Y-55886380D01*
X125477428Y-56038761D01*
X125477428Y-56343523D01*
X125515523Y-56419714D01*
X125553619Y-56457809D01*
X125629809Y-56495904D01*
X125782190Y-56495904D01*
X125858380Y-56457809D01*
X125896476Y-56419714D01*
X125934571Y-56343523D01*
X125934571Y-56153047D01*
X125896476Y-56076857D01*
X125858380Y-56038761D01*
X125782190Y-56000666D01*
X125629809Y-56000666D01*
X125553619Y-56038761D01*
X125515523Y-56076857D01*
X125477428Y-56153047D01*
X110402857Y-32581904D02*
X110479047Y-32581904D01*
X110555238Y-32620000D01*
X110593333Y-32658095D01*
X110631428Y-32734285D01*
X110669523Y-32886666D01*
X110669523Y-33077142D01*
X110631428Y-33229523D01*
X110593333Y-33305714D01*
X110555238Y-33343809D01*
X110479047Y-33381904D01*
X110402857Y-33381904D01*
X110326666Y-33343809D01*
X110288571Y-33305714D01*
X110250476Y-33229523D01*
X110212380Y-33077142D01*
X110212380Y-32886666D01*
X110250476Y-32734285D01*
X110288571Y-32658095D01*
X110326666Y-32620000D01*
X110402857Y-32581904D01*
X110796523Y-81641904D02*
X110339380Y-81641904D01*
X110567952Y-81641904D02*
X110567952Y-80841904D01*
X110491761Y-80956190D01*
X110415571Y-81032380D01*
X110339380Y-81070476D01*
X111520333Y-80841904D02*
X111139380Y-80841904D01*
X111101285Y-81222857D01*
X111139380Y-81184761D01*
X111215571Y-81146666D01*
X111406047Y-81146666D01*
X111482238Y-81184761D01*
X111520333Y-81222857D01*
X111558428Y-81299047D01*
X111558428Y-81489523D01*
X111520333Y-81565714D01*
X111482238Y-81603809D01*
X111406047Y-81641904D01*
X111215571Y-81641904D01*
X111139380Y-81603809D01*
X111101285Y-81565714D01*
X124690380Y-65678095D02*
X124728476Y-65640000D01*
X124804666Y-65601904D01*
X124995142Y-65601904D01*
X125071333Y-65640000D01*
X125109428Y-65678095D01*
X125147523Y-65754285D01*
X125147523Y-65830476D01*
X125109428Y-65944761D01*
X124652285Y-66401904D01*
X125147523Y-66401904D01*
X125909428Y-66401904D02*
X125452285Y-66401904D01*
X125680857Y-66401904D02*
X125680857Y-65601904D01*
X125604666Y-65716190D01*
X125528476Y-65792380D01*
X125452285Y-65830476D01*
X110796523Y-79101904D02*
X110339380Y-79101904D01*
X110567952Y-79101904D02*
X110567952Y-78301904D01*
X110491761Y-78416190D01*
X110415571Y-78492380D01*
X110339380Y-78530476D01*
X111482238Y-78568571D02*
X111482238Y-79101904D01*
X111291761Y-78263809D02*
X111101285Y-78835238D01*
X111596523Y-78835238D01*
X111182190Y-44680380D02*
X111144095Y-44794666D01*
X111144095Y-44985142D01*
X111182190Y-45061333D01*
X111220285Y-45099428D01*
X111296476Y-45137523D01*
X111372666Y-45137523D01*
X111448857Y-45099428D01*
X111486952Y-45061333D01*
X111525047Y-44985142D01*
X111563142Y-44832761D01*
X111601238Y-44756571D01*
X111639333Y-44718476D01*
X111715523Y-44680380D01*
X111791714Y-44680380D01*
X111867904Y-44718476D01*
X111906000Y-44756571D01*
X111944095Y-44832761D01*
X111944095Y-45023238D01*
X111906000Y-45137523D01*
X111144095Y-45480380D02*
X111944095Y-45480380D01*
X111944095Y-45670857D01*
X111906000Y-45785142D01*
X111829809Y-45861333D01*
X111753619Y-45899428D01*
X111601238Y-45937523D01*
X111486952Y-45937523D01*
X111334571Y-45899428D01*
X111258380Y-45861333D01*
X111182190Y-45785142D01*
X111144095Y-45670857D01*
X111144095Y-45480380D01*
X111372666Y-46242285D02*
X111372666Y-46623238D01*
X111144095Y-46166095D02*
X111944095Y-46432761D01*
X111144095Y-46699428D01*
X110669523Y-35794904D02*
X110212380Y-35794904D01*
X110440952Y-35794904D02*
X110440952Y-34994904D01*
X110364761Y-35109190D01*
X110288571Y-35185380D01*
X110212380Y-35223476D01*
X125109428Y-35121904D02*
X124728476Y-35121904D01*
X124690380Y-35502857D01*
X124728476Y-35464761D01*
X124804666Y-35426666D01*
X124995142Y-35426666D01*
X125071333Y-35464761D01*
X125109428Y-35502857D01*
X125147523Y-35579047D01*
X125147523Y-35769523D01*
X125109428Y-35845714D01*
X125071333Y-35883809D01*
X124995142Y-35921904D01*
X124804666Y-35921904D01*
X124728476Y-35883809D01*
X124690380Y-35845714D01*
X125376095Y-35121904D02*
X125642761Y-35921904D01*
X125909428Y-35121904D01*
X110796523Y-74021904D02*
X110339380Y-74021904D01*
X110567952Y-74021904D02*
X110567952Y-73221904D01*
X110491761Y-73336190D01*
X110415571Y-73412380D01*
X110339380Y-73450476D01*
X111063190Y-73221904D02*
X111558428Y-73221904D01*
X111291761Y-73526666D01*
X111406047Y-73526666D01*
X111482238Y-73564761D01*
X111520333Y-73602857D01*
X111558428Y-73679047D01*
X111558428Y-73869523D01*
X111520333Y-73945714D01*
X111482238Y-73983809D01*
X111406047Y-74021904D01*
X111177476Y-74021904D01*
X111101285Y-73983809D01*
X111063190Y-73945714D01*
X110466571Y-61271904D02*
X110618952Y-61271904D01*
X110695142Y-61233809D01*
X110733238Y-61195714D01*
X110809428Y-61081428D01*
X110847523Y-60929047D01*
X110847523Y-60624285D01*
X110809428Y-60548095D01*
X110771333Y-60510000D01*
X110695142Y-60471904D01*
X110542761Y-60471904D01*
X110466571Y-60510000D01*
X110428476Y-60548095D01*
X110390380Y-60624285D01*
X110390380Y-60814761D01*
X110428476Y-60890952D01*
X110466571Y-60929047D01*
X110542761Y-60967142D01*
X110695142Y-60967142D01*
X110771333Y-60929047D01*
X110809428Y-60890952D01*
X110847523Y-60814761D01*
X124690380Y-60598095D02*
X124728476Y-60560000D01*
X124804666Y-60521904D01*
X124995142Y-60521904D01*
X125071333Y-60560000D01*
X125109428Y-60598095D01*
X125147523Y-60674285D01*
X125147523Y-60750476D01*
X125109428Y-60864761D01*
X124652285Y-61321904D01*
X125147523Y-61321904D01*
X125452285Y-60598095D02*
X125490380Y-60560000D01*
X125566571Y-60521904D01*
X125757047Y-60521904D01*
X125833238Y-60560000D01*
X125871333Y-60598095D01*
X125909428Y-60674285D01*
X125909428Y-60750476D01*
X125871333Y-60864761D01*
X125414190Y-61321904D01*
X125909428Y-61321904D01*
X122658380Y-47758333D02*
X123039333Y-47758333D01*
X122582190Y-47986904D02*
X122848857Y-47186904D01*
X123115523Y-47986904D01*
X123306000Y-47186904D02*
X123801238Y-47186904D01*
X123534571Y-47491666D01*
X123648857Y-47491666D01*
X123725047Y-47529761D01*
X123763142Y-47567857D01*
X123801238Y-47644047D01*
X123801238Y-47834523D01*
X123763142Y-47910714D01*
X123725047Y-47948809D01*
X123648857Y-47986904D01*
X123420285Y-47986904D01*
X123344095Y-47948809D01*
X123306000Y-47910714D01*
X124715523Y-47263095D02*
X124753619Y-47225000D01*
X124829809Y-47186904D01*
X125020285Y-47186904D01*
X125096476Y-47225000D01*
X125134571Y-47263095D01*
X125172666Y-47339285D01*
X125172666Y-47415476D01*
X125134571Y-47529761D01*
X124677428Y-47986904D01*
X125172666Y-47986904D01*
X125629809Y-47529761D02*
X125553619Y-47491666D01*
X125515523Y-47453571D01*
X125477428Y-47377380D01*
X125477428Y-47339285D01*
X125515523Y-47263095D01*
X125553619Y-47225000D01*
X125629809Y-47186904D01*
X125782190Y-47186904D01*
X125858380Y-47225000D01*
X125896476Y-47263095D01*
X125934571Y-47339285D01*
X125934571Y-47377380D01*
X125896476Y-47453571D01*
X125858380Y-47491666D01*
X125782190Y-47529761D01*
X125629809Y-47529761D01*
X125553619Y-47567857D01*
X125515523Y-47605952D01*
X125477428Y-47682142D01*
X125477428Y-47834523D01*
X125515523Y-47910714D01*
X125553619Y-47948809D01*
X125629809Y-47986904D01*
X125782190Y-47986904D01*
X125858380Y-47948809D01*
X125896476Y-47910714D01*
X125934571Y-47834523D01*
X125934571Y-47682142D01*
X125896476Y-47605952D01*
X125858380Y-47567857D01*
X125782190Y-47529761D01*
X124690380Y-40278095D02*
X124728476Y-40240000D01*
X124804666Y-40201904D01*
X124995142Y-40201904D01*
X125071333Y-40240000D01*
X125109428Y-40278095D01*
X125147523Y-40354285D01*
X125147523Y-40430476D01*
X125109428Y-40544761D01*
X124652285Y-41001904D01*
X125147523Y-41001904D01*
X125414190Y-40201904D02*
X125909428Y-40201904D01*
X125642761Y-40506666D01*
X125757047Y-40506666D01*
X125833238Y-40544761D01*
X125871333Y-40582857D01*
X125909428Y-40659047D01*
X125909428Y-40849523D01*
X125871333Y-40925714D01*
X125833238Y-40963809D01*
X125757047Y-41001904D01*
X125528476Y-41001904D01*
X125452285Y-40963809D01*
X125414190Y-40925714D01*
X111690095Y-32412190D02*
X111690095Y-32869333D01*
X110890095Y-32640761D02*
X111690095Y-32640761D01*
X111690095Y-33059809D02*
X110890095Y-33593142D01*
X111690095Y-33593142D02*
X110890095Y-33059809D01*
X110796523Y-66401904D02*
X110339380Y-66401904D01*
X110567952Y-66401904D02*
X110567952Y-65601904D01*
X110491761Y-65716190D01*
X110415571Y-65792380D01*
X110339380Y-65830476D01*
X111291761Y-65601904D02*
X111367952Y-65601904D01*
X111444142Y-65640000D01*
X111482238Y-65678095D01*
X111520333Y-65754285D01*
X111558428Y-65906666D01*
X111558428Y-66097142D01*
X111520333Y-66249523D01*
X111482238Y-66325714D01*
X111444142Y-66363809D01*
X111367952Y-66401904D01*
X111291761Y-66401904D01*
X111215571Y-66363809D01*
X111177476Y-66325714D01*
X111139380Y-66249523D01*
X111101285Y-66097142D01*
X111101285Y-65906666D01*
X111139380Y-65754285D01*
X111177476Y-65678095D01*
X111215571Y-65640000D01*
X111291761Y-65601904D01*
X110301285Y-42741904D02*
X110796523Y-42741904D01*
X110529857Y-43046666D01*
X110644142Y-43046666D01*
X110720333Y-43084761D01*
X110758428Y-43122857D01*
X110796523Y-43199047D01*
X110796523Y-43389523D01*
X110758428Y-43465714D01*
X110720333Y-43503809D01*
X110644142Y-43541904D01*
X110415571Y-43541904D01*
X110339380Y-43503809D01*
X110301285Y-43465714D01*
X124296619Y-58781904D02*
X124029952Y-58400952D01*
X123839476Y-58781904D02*
X123839476Y-57981904D01*
X124144238Y-57981904D01*
X124220428Y-58020000D01*
X124258523Y-58058095D01*
X124296619Y-58134285D01*
X124296619Y-58248571D01*
X124258523Y-58324761D01*
X124220428Y-58362857D01*
X124144238Y-58400952D01*
X123839476Y-58400952D01*
X124639476Y-57981904D02*
X124639476Y-58629523D01*
X124677571Y-58705714D01*
X124715666Y-58743809D01*
X124791857Y-58781904D01*
X124944238Y-58781904D01*
X125020428Y-58743809D01*
X125058523Y-58705714D01*
X125096619Y-58629523D01*
X125096619Y-57981904D01*
X125477571Y-58781904D02*
X125477571Y-57981904D01*
X125934714Y-58781904D01*
X125934714Y-57981904D01*
X124690380Y-68218095D02*
X124728476Y-68180000D01*
X124804666Y-68141904D01*
X124995142Y-68141904D01*
X125071333Y-68180000D01*
X125109428Y-68218095D01*
X125147523Y-68294285D01*
X125147523Y-68370476D01*
X125109428Y-68484761D01*
X124652285Y-68941904D01*
X125147523Y-68941904D01*
X125642761Y-68141904D02*
X125718952Y-68141904D01*
X125795142Y-68180000D01*
X125833238Y-68218095D01*
X125871333Y-68294285D01*
X125909428Y-68446666D01*
X125909428Y-68637142D01*
X125871333Y-68789523D01*
X125833238Y-68865714D01*
X125795142Y-68903809D01*
X125718952Y-68941904D01*
X125642761Y-68941904D01*
X125566571Y-68903809D01*
X125528476Y-68865714D01*
X125490380Y-68789523D01*
X125452285Y-68637142D01*
X125452285Y-68446666D01*
X125490380Y-68294285D01*
X125528476Y-68218095D01*
X125566571Y-68180000D01*
X125642761Y-68141904D01*
%TO.C,R6*%
X116198666Y-76688904D02*
X115932000Y-76307952D01*
X115741523Y-76688904D02*
X115741523Y-75888904D01*
X116046285Y-75888904D01*
X116122476Y-75927000D01*
X116160571Y-75965095D01*
X116198666Y-76041285D01*
X116198666Y-76155571D01*
X116160571Y-76231761D01*
X116122476Y-76269857D01*
X116046285Y-76307952D01*
X115741523Y-76307952D01*
X116884380Y-75888904D02*
X116732000Y-75888904D01*
X116655809Y-75927000D01*
X116617714Y-75965095D01*
X116541523Y-76079380D01*
X116503428Y-76231761D01*
X116503428Y-76536523D01*
X116541523Y-76612714D01*
X116579619Y-76650809D01*
X116655809Y-76688904D01*
X116808190Y-76688904D01*
X116884380Y-76650809D01*
X116922476Y-76612714D01*
X116960571Y-76536523D01*
X116960571Y-76346047D01*
X116922476Y-76269857D01*
X116884380Y-76231761D01*
X116808190Y-76193666D01*
X116655809Y-76193666D01*
X116579619Y-76231761D01*
X116541523Y-76269857D01*
X116503428Y-76346047D01*
%TO.C,C11*%
X112515714Y-79025714D02*
X112477619Y-79063809D01*
X112363333Y-79101904D01*
X112287142Y-79101904D01*
X112172857Y-79063809D01*
X112096666Y-78987619D01*
X112058571Y-78911428D01*
X112020476Y-78759047D01*
X112020476Y-78644761D01*
X112058571Y-78492380D01*
X112096666Y-78416190D01*
X112172857Y-78340000D01*
X112287142Y-78301904D01*
X112363333Y-78301904D01*
X112477619Y-78340000D01*
X112515714Y-78378095D01*
X113277619Y-79101904D02*
X112820476Y-79101904D01*
X113049047Y-79101904D02*
X113049047Y-78301904D01*
X112972857Y-78416190D01*
X112896666Y-78492380D01*
X112820476Y-78530476D01*
X114039523Y-79101904D02*
X113582380Y-79101904D01*
X113810952Y-79101904D02*
X113810952Y-78301904D01*
X113734761Y-78416190D01*
X113658571Y-78492380D01*
X113582380Y-78530476D01*
D11*
%TO.C,U2*%
X115948095Y-57999380D02*
X115948095Y-58808904D01*
X115995714Y-58904142D01*
X116043333Y-58951761D01*
X116138571Y-58999380D01*
X116329047Y-58999380D01*
X116424285Y-58951761D01*
X116471904Y-58904142D01*
X116519523Y-58808904D01*
X116519523Y-57999380D01*
X116948095Y-58094619D02*
X116995714Y-58047000D01*
X117090952Y-57999380D01*
X117329047Y-57999380D01*
X117424285Y-58047000D01*
X117471904Y-58094619D01*
X117519523Y-58189857D01*
X117519523Y-58285095D01*
X117471904Y-58427952D01*
X116900476Y-58999380D01*
X117519523Y-58999380D01*
D10*
%TO.C,C12*%
X120389714Y-78898714D02*
X120351619Y-78936809D01*
X120237333Y-78974904D01*
X120161142Y-78974904D01*
X120046857Y-78936809D01*
X119970666Y-78860619D01*
X119932571Y-78784428D01*
X119894476Y-78632047D01*
X119894476Y-78517761D01*
X119932571Y-78365380D01*
X119970666Y-78289190D01*
X120046857Y-78213000D01*
X120161142Y-78174904D01*
X120237333Y-78174904D01*
X120351619Y-78213000D01*
X120389714Y-78251095D01*
X121151619Y-78974904D02*
X120694476Y-78974904D01*
X120923047Y-78974904D02*
X120923047Y-78174904D01*
X120846857Y-78289190D01*
X120770666Y-78365380D01*
X120694476Y-78403476D01*
X121456380Y-78251095D02*
X121494476Y-78213000D01*
X121570666Y-78174904D01*
X121761142Y-78174904D01*
X121837333Y-78213000D01*
X121875428Y-78251095D01*
X121913523Y-78327285D01*
X121913523Y-78403476D01*
X121875428Y-78517761D01*
X121418285Y-78974904D01*
X121913523Y-78974904D01*
%TO.C,C14*%
X118992714Y-44100714D02*
X118954619Y-44138809D01*
X118840333Y-44176904D01*
X118764142Y-44176904D01*
X118649857Y-44138809D01*
X118573666Y-44062619D01*
X118535571Y-43986428D01*
X118497476Y-43834047D01*
X118497476Y-43719761D01*
X118535571Y-43567380D01*
X118573666Y-43491190D01*
X118649857Y-43415000D01*
X118764142Y-43376904D01*
X118840333Y-43376904D01*
X118954619Y-43415000D01*
X118992714Y-43453095D01*
X119754619Y-44176904D02*
X119297476Y-44176904D01*
X119526047Y-44176904D02*
X119526047Y-43376904D01*
X119449857Y-43491190D01*
X119373666Y-43567380D01*
X119297476Y-43605476D01*
X120440333Y-43643571D02*
X120440333Y-44176904D01*
X120249857Y-43338809D02*
X120059380Y-43910238D01*
X120554619Y-43910238D01*
D11*
%TO.C,U3*%
X118491095Y-49617380D02*
X118491095Y-50426904D01*
X118538714Y-50522142D01*
X118586333Y-50569761D01*
X118681571Y-50617380D01*
X118872047Y-50617380D01*
X118967285Y-50569761D01*
X119014904Y-50522142D01*
X119062523Y-50426904D01*
X119062523Y-49617380D01*
X119443476Y-49617380D02*
X120062523Y-49617380D01*
X119729190Y-49998333D01*
X119872047Y-49998333D01*
X119967285Y-50045952D01*
X120014904Y-50093571D01*
X120062523Y-50188809D01*
X120062523Y-50426904D01*
X120014904Y-50522142D01*
X119967285Y-50569761D01*
X119872047Y-50617380D01*
X119586333Y-50617380D01*
X119491095Y-50569761D01*
X119443476Y-50522142D01*
D10*
%TO.C,Y1*%
X114935047Y-78212952D02*
X114935047Y-78593904D01*
X114668380Y-77793904D02*
X114935047Y-78212952D01*
X115201714Y-77793904D01*
X115887428Y-78593904D02*
X115430285Y-78593904D01*
X115658857Y-78593904D02*
X115658857Y-77793904D01*
X115582666Y-77908190D01*
X115506476Y-77984380D01*
X115430285Y-78022476D01*
%TO.C,R6*%
X118685000Y-76322936D02*
X118685000Y-76777064D01*
X117215000Y-76322936D02*
X117215000Y-76777064D01*
D12*
%TO.C,J1*%
X116850000Y-38250000D02*
X116875000Y-39600000D01*
X119850000Y-38250000D02*
X119850000Y-39600000D01*
D10*
%TO.C,U1*%
X121910000Y-72410000D02*
X121910000Y-71760000D01*
X121260000Y-72410000D02*
X121910000Y-72410000D01*
X114690000Y-65190000D02*
X114690000Y-65840000D01*
X121260000Y-65190000D02*
X121910000Y-65190000D01*
X115340000Y-65190000D02*
X114690000Y-65190000D01*
X115340000Y-72410000D02*
X114690000Y-72410000D01*
X114690000Y-72410000D02*
X114690000Y-71760000D01*
X121910000Y-65190000D02*
X121910000Y-65840000D01*
D12*
X114525000Y-65600000D02*
G75*
G03*
X114525000Y-65600000I-100000J0D01*
G01*
D10*
%TO.C,C11*%
X113735000Y-80938748D02*
X113735000Y-81461252D01*
X112265000Y-80938748D02*
X112265000Y-81461252D01*
%TO.C,U2*%
X119435000Y-61735000D02*
X119435000Y-61475000D01*
X116710000Y-56285000D02*
X119435000Y-56285000D01*
X116710000Y-56285000D02*
X113985000Y-56285000D01*
X119435000Y-56285000D02*
X119435000Y-56545000D01*
X116710000Y-61735000D02*
X119435000Y-61735000D01*
X113985000Y-56545000D02*
X112310000Y-56545000D01*
X116710000Y-61735000D02*
X113985000Y-61735000D01*
X113985000Y-61735000D02*
X113985000Y-61475000D01*
X113985000Y-56285000D02*
X113985000Y-56545000D01*
%TO.C,C12*%
X120165000Y-81361252D02*
X120165000Y-80838748D01*
X121635000Y-81361252D02*
X121635000Y-80838748D01*
%TO.C,C14*%
X116765000Y-43961252D02*
X116765000Y-43438748D01*
X118235000Y-43961252D02*
X118235000Y-43438748D01*
%TO.C,U3*%
X122210000Y-52210000D02*
X120950000Y-52210000D01*
X115390000Y-52210000D02*
X116650000Y-52210000D01*
X115390000Y-48450000D02*
X115390000Y-52210000D01*
X122210000Y-46200000D02*
X122210000Y-52210000D01*
%TO.C,Y1*%
X114400000Y-82900000D02*
X119400000Y-82900000D01*
X114400000Y-78700000D02*
X114400000Y-82900000D01*
%TD*%
M02*
