%TF.GenerationSoftware,KiCad,Pcbnew,(6.0.4)*%
%TF.CreationDate,2022-11-10T18:02:23+09:00*%
%TF.ProjectId,rp2040-test,72703230-3430-42d7-9465-73742e6b6963,rev?*%
%TF.SameCoordinates,Original*%
%TF.FileFunction,Paste,Top*%
%TF.FilePolarity,Positive*%
%FSLAX46Y46*%
G04 Gerber Fmt 4.6, Leading zero omitted, Abs format (unit mm)*
G04 Created by KiCad (PCBNEW (6.0.4)) date 2022-11-10 18:02:23*
%MOMM*%
%LPD*%
G01*
G04 APERTURE LIST*
G04 Aperture macros list*
%AMRoundRect*
0 Rectangle with rounded corners*
0 $1 Rounding radius*
0 $2 $3 $4 $5 $6 $7 $8 $9 X,Y pos of 4 corners*
0 Add a 4 corners polygon primitive as box body*
4,1,4,$2,$3,$4,$5,$6,$7,$8,$9,$2,$3,0*
0 Add four circle primitives for the rounded corners*
1,1,$1+$1,$2,$3*
1,1,$1+$1,$4,$5*
1,1,$1+$1,$6,$7*
1,1,$1+$1,$8,$9*
0 Add four rect primitives between the rounded corners*
20,1,$1+$1,$2,$3,$4,$5,0*
20,1,$1+$1,$4,$5,$6,$7,0*
20,1,$1+$1,$6,$7,$8,$9,0*
20,1,$1+$1,$8,$9,$2,$3,0*%
G04 Aperture macros list end*
%ADD10RoundRect,0.250000X-0.450000X0.350000X-0.450000X-0.350000X0.450000X-0.350000X0.450000X0.350000X0*%
%ADD11RoundRect,0.162500X0.162500X-0.612500X0.162500X0.612500X-0.162500X0.612500X-0.162500X-0.612500X0*%
%ADD12R,0.575000X1.650000*%
%ADD13R,0.300000X1.650000*%
%ADD14R,1.350000X0.200000*%
%ADD15R,0.200000X1.350000*%
%ADD16RoundRect,0.250000X-0.475000X0.337500X-0.475000X-0.337500X0.475000X-0.337500X0.475000X0.337500X0*%
%ADD17RoundRect,0.150000X-1.150000X-0.150000X1.150000X-0.150000X1.150000X0.150000X-1.150000X0.150000X0*%
%ADD18RoundRect,0.250000X0.475000X-0.337500X0.475000X0.337500X-0.475000X0.337500X-0.475000X-0.337500X0*%
%ADD19R,1.500000X2.000000*%
%ADD20R,3.800000X2.000000*%
%ADD21R,1.900000X1.650000*%
G04 APERTURE END LIST*
D10*
%TO.C,R6*%
X117950000Y-75550000D03*
X117950000Y-77550000D03*
%TD*%
D11*
%TO.C,SW2*%
X122925000Y-53550000D03*
X122925000Y-48900000D03*
X125075000Y-48900000D03*
X125075000Y-53550000D03*
%TD*%
D12*
%TO.C,J1*%
X115650000Y-38850000D03*
X120550000Y-38850000D03*
D13*
X118850000Y-38850000D03*
X117850000Y-38850000D03*
X118350000Y-38850000D03*
X117350000Y-38850000D03*
D12*
X121325000Y-38850000D03*
X114875000Y-38850000D03*
D13*
X119350000Y-38850000D03*
X116350000Y-38850000D03*
%TD*%
D11*
%TO.C,SW1*%
X112775000Y-47579000D03*
X112775000Y-42929000D03*
X114925000Y-47579000D03*
X114925000Y-42929000D03*
%TD*%
D14*
%TO.C,U1*%
X114600000Y-66200000D03*
X114600000Y-66600000D03*
X114600000Y-67000000D03*
X114600000Y-67400000D03*
X114600000Y-67800000D03*
X114600000Y-68200000D03*
X114600000Y-68600000D03*
X114600000Y-69000000D03*
X114600000Y-69400000D03*
X114600000Y-69800000D03*
X114600000Y-70200000D03*
X114600000Y-70600000D03*
X114600000Y-71000000D03*
X114600000Y-71400000D03*
D15*
X115700000Y-72500000D03*
X116100000Y-72500000D03*
X116500000Y-72500000D03*
X116900000Y-72500000D03*
X117300000Y-72500000D03*
X117700000Y-72500000D03*
X118100000Y-72500000D03*
X118500000Y-72500000D03*
X118900000Y-72500000D03*
X119300000Y-72500000D03*
X119700000Y-72500000D03*
X120100000Y-72500000D03*
X120500000Y-72500000D03*
X120900000Y-72500000D03*
D14*
X122000000Y-71400000D03*
X122000000Y-71000000D03*
X122000000Y-70600000D03*
X122000000Y-70200000D03*
X122000000Y-69800000D03*
X122000000Y-69400000D03*
X122000000Y-69000000D03*
X122000000Y-68600000D03*
X122000000Y-68200000D03*
X122000000Y-67800000D03*
X122000000Y-67400000D03*
X122000000Y-67000000D03*
X122000000Y-66600000D03*
X122000000Y-66200000D03*
D15*
X120900000Y-65100000D03*
X120500000Y-65100000D03*
X120100000Y-65100000D03*
X119700000Y-65100000D03*
X119300000Y-65100000D03*
X118900000Y-65100000D03*
X118500000Y-65100000D03*
X118100000Y-65100000D03*
X117700000Y-65100000D03*
X117300000Y-65100000D03*
X116900000Y-65100000D03*
X116500000Y-65100000D03*
X116100000Y-65100000D03*
X115700000Y-65100000D03*
%TD*%
D16*
%TO.C,C11*%
X113000000Y-80162500D03*
X113000000Y-82237500D03*
%TD*%
D17*
%TO.C,U2*%
X113610000Y-57105000D03*
X113610000Y-58375000D03*
X113610000Y-59645000D03*
X113610000Y-60915000D03*
X119810000Y-60915000D03*
X119810000Y-59645000D03*
X119810000Y-58375000D03*
X119810000Y-57105000D03*
%TD*%
D18*
%TO.C,C12*%
X120900000Y-82137500D03*
X120900000Y-80062500D03*
%TD*%
%TO.C,C14*%
X117500000Y-44737500D03*
X117500000Y-42662500D03*
%TD*%
D19*
%TO.C,U3*%
X121100000Y-47150000D03*
X118800000Y-47150000D03*
D20*
X118800000Y-53450000D03*
D19*
X116500000Y-47150000D03*
%TD*%
D21*
%TO.C,Y1*%
X115550000Y-81875000D03*
X118250000Y-81875000D03*
X118250000Y-79725000D03*
X115550000Y-79725000D03*
%TD*%
M02*
