M48
; DRILL file {KiCad (6.0.9)} date Wed Dec 21 05:15:35 2022
; FORMAT={-:-/ absolute / metric / decimal}
; #@! TF.CreationDate,2022-12-21T05:15:35+09:00
; #@! TF.GenerationSoftware,Kicad,Pcbnew,(6.0.9)
; #@! TF.FileFunction,MixedPlating,1,2
FMAT,2
METRIC
; #@! TA.AperFunction,Plated,PTH,ViaDrill
T1C0.400
; #@! TA.AperFunction,Plated,PTH,ComponentDrill
T2C0.600
; #@! TA.AperFunction,Plated,PTH,ComponentDrill
T3C0.650
; #@! TA.AperFunction,Plated,PTH,ComponentDrill
T4C0.700
; #@! TA.AperFunction,Plated,PTH,ComponentDrill
T5C0.800
; #@! TA.AperFunction,Plated,PTH,ComponentDrill
T6C0.813
; #@! TA.AperFunction,Plated,PTH,ComponentDrill
T7C0.920
; #@! TA.AperFunction,Plated,PTH,ViaDrill
T8C1.000
; #@! TA.AperFunction,Plated,PTH,ComponentDrill
T9C1.000
; #@! TA.AperFunction,Plated,PTH,ComponentDrill
T10C1.700
; #@! TA.AperFunction,Plated,PTH,ComponentDrill
T11C2.800
; #@! TA.AperFunction,NonPlated,NPTH,ComponentDrill
T12C0.750
%
G90
G05
T1
X70.352Y-109.09
X71.972Y-111.137
X74.784Y-116.325
X92.817Y-121.75
X93.959Y-113.609
X94.699Y-120.273
X95.698Y-101.386
X97.228Y-108.23
X99.531Y-106.113
X100.09Y-84.472
X100.737Y-100.4
X101.607Y-75.393
X101.974Y-97.155
X102.466Y-100.417
X102.514Y-118.851
X103.195Y-97.495
X103.477Y-101.111
X104.087Y-92.968
X105.563Y-97.671
X105.632Y-112.488
X105.687Y-91.087
X105.963Y-76.165
X106.032Y-71.172
X110.19Y-113.571
X111.261Y-98.8
X111.66Y-91.166
X111.98Y-101.201
X113.096Y-97.544
X113.852Y-105.659
X114.081Y-88.004
X114.979Y-134.994
X115.334Y-107.023
X115.885Y-78.231
X116.348Y-76.343
X116.407Y-55.798
X116.563Y-67.991
X116.729Y-66.876
X117.289Y-105.039
X117.563Y-134.665
X118.155Y-89.224
X118.191Y-97.218
X118.738Y-66.306
X118.83Y-88.483
X119.423Y-69.92
X120.134Y-82.602
X120.469Y-69.903
X120.534Y-94.084
X120.904Y-116.748
X120.917Y-81.475
X121.758Y-117.518
X122.087Y-94.08
X122.152Y-118.521
X122.211Y-83.295
X122.505Y-112.507
X122.663Y-71.677
X123.17Y-118.864
X123.448Y-76.104
X123.664Y-70.0
X123.675Y-109.483
X123.763Y-79.645
X123.997Y-99.9
X123.999Y-103.085
X124.002Y-66.8
X124.98Y-110.498
X124.993Y-74.591
X125.575Y-76.309
X126.088Y-84.347
X126.258Y-100.575
X126.316Y-88.406
X126.346Y-79.656
X126.455Y-73.503
X127.1Y-106.793
X127.176Y-82.945
X127.186Y-115.21
X127.248Y-81.374
X128.635Y-82.485
X128.684Y-81.395
X129.216Y-83.53
X129.443Y-101.264
X129.808Y-87.165
X129.894Y-79.65
X130.903Y-86.495
X130.962Y-88.921
X131.635Y-105.056
X132.419Y-90.218
X133.792Y-84.883
X134.091Y-80.72
X134.615Y-92.27
X136.018Y-90.801
X136.178Y-88.693
X136.542Y-108.538
X137.198Y-90.465
X141.288Y-89.377
X142.647Y-88.018
X143.145Y-83.821
X143.182Y-84.83
X143.543Y-127.148
X144.095Y-83.095
X144.431Y-114.76
X144.66Y-119.749
X146.392Y-113.969
X147.139Y-113.288
X149.636Y-83.525
X149.638Y-85.962
X149.642Y-84.962
X150.379Y-130.93
X156.972Y-120.305
X157.724Y-119.623
X158.019Y-81.303
X164.754Y-132.067
X167.896Y-106.394
X168.358Y-105.421
X170.766Y-128.451
X170.93Y-100.162
X171.707Y-101.613
X172.101Y-99.384
X173.53Y-94.192
X176.356Y-101.92
X177.29Y-95.55
X177.991Y-94.776
X178.454Y-63.706
X180.399Y-97.877
X180.675Y-96.141
X180.876Y-99.627
X181.149Y-94.047
X181.689Y-95.748
X181.693Y-97.098
X182.443Y-97.777
X183.204Y-92.694
X183.443Y-97.804
X183.516Y-100.632
X184.204Y-92.875
X184.266Y-98.956
X184.315Y-97.223
X184.519Y-101.331
X185.327Y-75.114
X185.478Y-105.199
X186.598Y-74.434
X188.874Y-68.953
X190.086Y-64.214
X190.56Y-124.706
X192.995Y-91.516
X193.312Y-103.649
X193.398Y-88.868
X193.486Y-94.687
X194.0Y-108.829
X194.057Y-95.595
X194.836Y-96.901
X195.862Y-105.199
X196.079Y-77.309
X196.629Y-98.6
X196.964Y-96.187
X198.016Y-72.483
X199.848Y-97.24
X199.921Y-102.46
X200.15Y-99.024
X200.84Y-100.981
X201.762Y-99.699
X204.693Y-82.937
X204.76Y-104.406
X206.102Y-115.708
X206.471Y-88.013
X210.016Y-84.727
X220.361Y-104.05
X221.856Y-103.523
X222.061Y-100.131
X222.744Y-101.411
X222.744Y-99.011
X222.825Y-103.055
X229.582Y-116.874
T3
X85.0Y-82.73
X85.0Y-84.0
T4
X107.75Y-123.45
X109.25Y-123.45
X110.75Y-123.45
X112.25Y-123.45
X115.45Y-96.25
X115.45Y-97.75
X115.45Y-99.25
X115.45Y-100.75
X115.45Y-102.25
X115.45Y-103.75
X118.25Y-56.45
X118.5Y-122.0
X118.5Y-129.0
X118.75Y-136.45
X119.75Y-56.45
X120.0Y-122.0
X120.0Y-129.0
X120.25Y-136.45
X121.25Y-56.45
X121.5Y-122.0
X121.5Y-129.0
X121.75Y-136.45
X122.75Y-56.45
X123.0Y-122.0
X123.0Y-129.0
X123.25Y-136.45
X124.25Y-56.45
X125.75Y-56.45
X132.75Y-138.45
X133.25Y-77.55
X134.25Y-138.45
X134.75Y-77.55
X135.75Y-138.45
X136.091Y-94.273
X136.091Y-105.727
X136.25Y-77.55
X137.151Y-93.212
X137.151Y-106.788
X137.25Y-138.45
X137.75Y-77.55
X138.212Y-92.151
X138.212Y-107.849
X139.25Y-77.55
X139.273Y-91.091
X139.273Y-108.909
X140.75Y-77.55
X156.775Y-77.525
X158.275Y-77.525
X159.775Y-77.525
X160.727Y-91.091
X160.727Y-108.909
X161.275Y-77.525
X161.788Y-92.151
X161.788Y-107.849
X162.775Y-77.525
X162.849Y-93.212
X162.849Y-106.788
X163.909Y-94.273
X163.909Y-105.727
X164.275Y-77.525
X165.775Y-77.525
X167.275Y-77.525
X169.0Y-138.0
X170.5Y-138.0
X172.0Y-138.0
X173.5Y-138.0
X180.46Y-115.0
X185.54Y-115.0
X189.0Y-115.46
X189.0Y-120.54
T5
X88.725Y-107.147
X88.725Y-114.767
X91.265Y-107.147
X91.265Y-114.767
X131.19Y-123.19
X131.19Y-130.81
X133.73Y-123.19
X133.73Y-130.81
X136.27Y-123.19
X136.27Y-130.81
X138.81Y-123.19
X138.81Y-130.81
T6
X211.19Y-107.46
X211.19Y-112.54
X212.565Y-97.46
X212.565Y-100.0
X212.565Y-102.54
X217.645Y-97.46
X217.645Y-100.0
X217.645Y-102.54
X218.81Y-107.46
X218.81Y-112.54
T7
X77.5Y-90.0
X77.5Y-100.0
X77.5Y-110.0
X80.0Y-87.5
X80.0Y-97.5
X80.0Y-107.5
X82.5Y-90.0
X82.5Y-100.0
X82.5Y-110.0
X87.5Y-90.0
X87.5Y-100.0
X90.0Y-87.5
X90.0Y-97.5
X92.5Y-90.0
X92.5Y-100.0
T8
X156.5Y-118.0
X158.5Y-118.0
X181.0Y-135.0
X183.0Y-135.0
T9
X94.313Y-77.687
X94.313Y-122.313
X96.109Y-75.891
X96.109Y-124.109
X97.905Y-74.095
X97.905Y-125.905
X99.701Y-72.299
X99.701Y-127.701
X108.0Y-110.0
X109.0Y-71.45
X109.0Y-73.95
X109.0Y-76.45
X110.5Y-110.0
X113.0Y-110.0
X148.75Y-81.0
X148.75Y-118.0
X151.25Y-81.0
X151.25Y-118.0
X159.0Y-138.0
X161.5Y-138.0
X180.0Y-90.0
X182.5Y-90.0
X185.0Y-90.0
X200.299Y-127.701
X202.095Y-125.905
X203.891Y-124.109
X205.687Y-122.313
T10
X148.243Y-129.45
X152.202Y-129.45
T11
X190.0Y-100.0
T12
X69.4Y-117.0
X71.0Y-117.0
X229.625Y-85.0
X230.2Y-115.0
X231.8Y-115.0
X232.375Y-85.0
T2
G00X225.98Y-94.25
M15
G01X226.78Y-94.25
M16
G05
G00X225.98Y-105.75
M15
G01X226.78Y-105.75
M16
G05
G00X229.78Y-94.25
M15
G01X230.98Y-94.25
M16
G05
G00X229.78Y-105.75
M15
G01X230.98Y-105.75
M16
G05
T4
G00X211.5Y-90.0
M15
G01X212.5Y-90.0
M16
G05
G00X214.5Y-90.0
M15
G01X215.5Y-90.0
M16
G05
G00X217.5Y-90.0
M15
G01X218.5Y-90.0
M16
G05
T0
M30
