%TF.GenerationSoftware,KiCad,Pcbnew,(6.0.9)*%
%TF.CreationDate,2022-12-21T05:14:32+09:00*%
%TF.ProjectId,main,6d61696e-2e6b-4696-9361-645f70636258,rev?*%
%TF.SameCoordinates,Original*%
%TF.FileFunction,Legend,Bot*%
%TF.FilePolarity,Positive*%
%FSLAX46Y46*%
G04 Gerber Fmt 4.6, Leading zero omitted, Abs format (unit mm)*
G04 Created by KiCad (PCBNEW (6.0.9)) date 2022-12-21 05:14:32*
%MOMM*%
%LPD*%
G01*
G04 APERTURE LIST*
%ADD10C,0.150000*%
%ADD11C,0.200000*%
%ADD12C,0.120000*%
%ADD13C,0.100000*%
%ADD14C,0.149860*%
%ADD15C,0.381000*%
G04 APERTURE END LIST*
D10*
%TO.C,C24*%
X196787142Y-75357142D02*
X196834761Y-75309523D01*
X196882380Y-75166666D01*
X196882380Y-75071428D01*
X196834761Y-74928571D01*
X196739523Y-74833333D01*
X196644285Y-74785714D01*
X196453809Y-74738095D01*
X196310952Y-74738095D01*
X196120476Y-74785714D01*
X196025238Y-74833333D01*
X195930000Y-74928571D01*
X195882380Y-75071428D01*
X195882380Y-75166666D01*
X195930000Y-75309523D01*
X195977619Y-75357142D01*
X195977619Y-75738095D02*
X195930000Y-75785714D01*
X195882380Y-75880952D01*
X195882380Y-76119047D01*
X195930000Y-76214285D01*
X195977619Y-76261904D01*
X196072857Y-76309523D01*
X196168095Y-76309523D01*
X196310952Y-76261904D01*
X196882380Y-75690476D01*
X196882380Y-76309523D01*
X196215714Y-77166666D02*
X196882380Y-77166666D01*
X195834761Y-76928571D02*
X196549047Y-76690476D01*
X196549047Y-77309523D01*
%TO.C,C25*%
X196642857Y-71927142D02*
X196690476Y-71974761D01*
X196833333Y-72022380D01*
X196928571Y-72022380D01*
X197071428Y-71974761D01*
X197166666Y-71879523D01*
X197214285Y-71784285D01*
X197261904Y-71593809D01*
X197261904Y-71450952D01*
X197214285Y-71260476D01*
X197166666Y-71165238D01*
X197071428Y-71070000D01*
X196928571Y-71022380D01*
X196833333Y-71022380D01*
X196690476Y-71070000D01*
X196642857Y-71117619D01*
X196261904Y-71117619D02*
X196214285Y-71070000D01*
X196119047Y-71022380D01*
X195880952Y-71022380D01*
X195785714Y-71070000D01*
X195738095Y-71117619D01*
X195690476Y-71212857D01*
X195690476Y-71308095D01*
X195738095Y-71450952D01*
X196309523Y-72022380D01*
X195690476Y-72022380D01*
X194785714Y-71022380D02*
X195261904Y-71022380D01*
X195309523Y-71498571D01*
X195261904Y-71450952D01*
X195166666Y-71403333D01*
X194928571Y-71403333D01*
X194833333Y-71450952D01*
X194785714Y-71498571D01*
X194738095Y-71593809D01*
X194738095Y-71831904D01*
X194785714Y-71927142D01*
X194833333Y-71974761D01*
X194928571Y-72022380D01*
X195166666Y-72022380D01*
X195261904Y-71974761D01*
X195309523Y-71927142D01*
%TO.C,R35*%
X197882380Y-95357142D02*
X197406190Y-95023809D01*
X197882380Y-94785714D02*
X196882380Y-94785714D01*
X196882380Y-95166666D01*
X196930000Y-95261904D01*
X196977619Y-95309523D01*
X197072857Y-95357142D01*
X197215714Y-95357142D01*
X197310952Y-95309523D01*
X197358571Y-95261904D01*
X197406190Y-95166666D01*
X197406190Y-94785714D01*
X196882380Y-95690476D02*
X196882380Y-96309523D01*
X197263333Y-95976190D01*
X197263333Y-96119047D01*
X197310952Y-96214285D01*
X197358571Y-96261904D01*
X197453809Y-96309523D01*
X197691904Y-96309523D01*
X197787142Y-96261904D01*
X197834761Y-96214285D01*
X197882380Y-96119047D01*
X197882380Y-95833333D01*
X197834761Y-95738095D01*
X197787142Y-95690476D01*
X196882380Y-97214285D02*
X196882380Y-96738095D01*
X197358571Y-96690476D01*
X197310952Y-96738095D01*
X197263333Y-96833333D01*
X197263333Y-97071428D01*
X197310952Y-97166666D01*
X197358571Y-97214285D01*
X197453809Y-97261904D01*
X197691904Y-97261904D01*
X197787142Y-97214285D01*
X197834761Y-97166666D01*
X197882380Y-97071428D01*
X197882380Y-96833333D01*
X197834761Y-96738095D01*
X197787142Y-96690476D01*
D11*
%TO.C,U4*%
X188773904Y-122035380D02*
X188773904Y-122844904D01*
X188726285Y-122940142D01*
X188678666Y-122987761D01*
X188583428Y-123035380D01*
X188392952Y-123035380D01*
X188297714Y-122987761D01*
X188250095Y-122940142D01*
X188202476Y-122844904D01*
X188202476Y-122035380D01*
X187297714Y-122368714D02*
X187297714Y-123035380D01*
X187535809Y-121987761D02*
X187773904Y-122702047D01*
X187154857Y-122702047D01*
D10*
%TO.C,R26*%
X136022380Y-134357142D02*
X135546190Y-134023809D01*
X136022380Y-133785714D02*
X135022380Y-133785714D01*
X135022380Y-134166666D01*
X135070000Y-134261904D01*
X135117619Y-134309523D01*
X135212857Y-134357142D01*
X135355714Y-134357142D01*
X135450952Y-134309523D01*
X135498571Y-134261904D01*
X135546190Y-134166666D01*
X135546190Y-133785714D01*
X135117619Y-134738095D02*
X135070000Y-134785714D01*
X135022380Y-134880952D01*
X135022380Y-135119047D01*
X135070000Y-135214285D01*
X135117619Y-135261904D01*
X135212857Y-135309523D01*
X135308095Y-135309523D01*
X135450952Y-135261904D01*
X136022380Y-134690476D01*
X136022380Y-135309523D01*
X135022380Y-136166666D02*
X135022380Y-135976190D01*
X135070000Y-135880952D01*
X135117619Y-135833333D01*
X135260476Y-135738095D01*
X135450952Y-135690476D01*
X135831904Y-135690476D01*
X135927142Y-135738095D01*
X135974761Y-135785714D01*
X136022380Y-135880952D01*
X136022380Y-136071428D01*
X135974761Y-136166666D01*
X135927142Y-136214285D01*
X135831904Y-136261904D01*
X135593809Y-136261904D01*
X135498571Y-136214285D01*
X135450952Y-136166666D01*
X135403333Y-136071428D01*
X135403333Y-135880952D01*
X135450952Y-135785714D01*
X135498571Y-135738095D01*
X135593809Y-135690476D01*
%TO.C,C14*%
X186642857Y-94927142D02*
X186690476Y-94974761D01*
X186833333Y-95022380D01*
X186928571Y-95022380D01*
X187071428Y-94974761D01*
X187166666Y-94879523D01*
X187214285Y-94784285D01*
X187261904Y-94593809D01*
X187261904Y-94450952D01*
X187214285Y-94260476D01*
X187166666Y-94165238D01*
X187071428Y-94070000D01*
X186928571Y-94022380D01*
X186833333Y-94022380D01*
X186690476Y-94070000D01*
X186642857Y-94117619D01*
X185690476Y-95022380D02*
X186261904Y-95022380D01*
X185976190Y-95022380D02*
X185976190Y-94022380D01*
X186071428Y-94165238D01*
X186166666Y-94260476D01*
X186261904Y-94308095D01*
X184833333Y-94355714D02*
X184833333Y-95022380D01*
X185071428Y-93974761D02*
X185309523Y-94689047D01*
X184690476Y-94689047D01*
%TO.C,R29*%
X71882380Y-111357142D02*
X71406190Y-111023809D01*
X71882380Y-110785714D02*
X70882380Y-110785714D01*
X70882380Y-111166666D01*
X70930000Y-111261904D01*
X70977619Y-111309523D01*
X71072857Y-111357142D01*
X71215714Y-111357142D01*
X71310952Y-111309523D01*
X71358571Y-111261904D01*
X71406190Y-111166666D01*
X71406190Y-110785714D01*
X70977619Y-111738095D02*
X70930000Y-111785714D01*
X70882380Y-111880952D01*
X70882380Y-112119047D01*
X70930000Y-112214285D01*
X70977619Y-112261904D01*
X71072857Y-112309523D01*
X71168095Y-112309523D01*
X71310952Y-112261904D01*
X71882380Y-111690476D01*
X71882380Y-112309523D01*
X71882380Y-112785714D02*
X71882380Y-112976190D01*
X71834761Y-113071428D01*
X71787142Y-113119047D01*
X71644285Y-113214285D01*
X71453809Y-113261904D01*
X71072857Y-113261904D01*
X70977619Y-113214285D01*
X70930000Y-113166666D01*
X70882380Y-113071428D01*
X70882380Y-112880952D01*
X70930000Y-112785714D01*
X70977619Y-112738095D01*
X71072857Y-112690476D01*
X71310952Y-112690476D01*
X71406190Y-112738095D01*
X71453809Y-112785714D01*
X71501428Y-112880952D01*
X71501428Y-113071428D01*
X71453809Y-113166666D01*
X71406190Y-113214285D01*
X71310952Y-113261904D01*
%TO.C,C23*%
X105642857Y-88927142D02*
X105690476Y-88974761D01*
X105833333Y-89022380D01*
X105928571Y-89022380D01*
X106071428Y-88974761D01*
X106166666Y-88879523D01*
X106214285Y-88784285D01*
X106261904Y-88593809D01*
X106261904Y-88450952D01*
X106214285Y-88260476D01*
X106166666Y-88165238D01*
X106071428Y-88070000D01*
X105928571Y-88022380D01*
X105833333Y-88022380D01*
X105690476Y-88070000D01*
X105642857Y-88117619D01*
X105261904Y-88117619D02*
X105214285Y-88070000D01*
X105119047Y-88022380D01*
X104880952Y-88022380D01*
X104785714Y-88070000D01*
X104738095Y-88117619D01*
X104690476Y-88212857D01*
X104690476Y-88308095D01*
X104738095Y-88450952D01*
X105309523Y-89022380D01*
X104690476Y-89022380D01*
X104357142Y-88022380D02*
X103738095Y-88022380D01*
X104071428Y-88403333D01*
X103928571Y-88403333D01*
X103833333Y-88450952D01*
X103785714Y-88498571D01*
X103738095Y-88593809D01*
X103738095Y-88831904D01*
X103785714Y-88927142D01*
X103833333Y-88974761D01*
X103928571Y-89022380D01*
X104214285Y-89022380D01*
X104309523Y-88974761D01*
X104357142Y-88927142D01*
%TO.C,R6*%
X221166666Y-85522380D02*
X221500000Y-85046190D01*
X221738095Y-85522380D02*
X221738095Y-84522380D01*
X221357142Y-84522380D01*
X221261904Y-84570000D01*
X221214285Y-84617619D01*
X221166666Y-84712857D01*
X221166666Y-84855714D01*
X221214285Y-84950952D01*
X221261904Y-84998571D01*
X221357142Y-85046190D01*
X221738095Y-85046190D01*
X220309523Y-84522380D02*
X220500000Y-84522380D01*
X220595238Y-84570000D01*
X220642857Y-84617619D01*
X220738095Y-84760476D01*
X220785714Y-84950952D01*
X220785714Y-85331904D01*
X220738095Y-85427142D01*
X220690476Y-85474761D01*
X220595238Y-85522380D01*
X220404761Y-85522380D01*
X220309523Y-85474761D01*
X220261904Y-85427142D01*
X220214285Y-85331904D01*
X220214285Y-85093809D01*
X220261904Y-84998571D01*
X220309523Y-84950952D01*
X220404761Y-84903333D01*
X220595238Y-84903333D01*
X220690476Y-84950952D01*
X220738095Y-84998571D01*
X220785714Y-85093809D01*
%TO.C,R17*%
X204882380Y-113357142D02*
X204406190Y-113023809D01*
X204882380Y-112785714D02*
X203882380Y-112785714D01*
X203882380Y-113166666D01*
X203930000Y-113261904D01*
X203977619Y-113309523D01*
X204072857Y-113357142D01*
X204215714Y-113357142D01*
X204310952Y-113309523D01*
X204358571Y-113261904D01*
X204406190Y-113166666D01*
X204406190Y-112785714D01*
X204882380Y-114309523D02*
X204882380Y-113738095D01*
X204882380Y-114023809D02*
X203882380Y-114023809D01*
X204025238Y-113928571D01*
X204120476Y-113833333D01*
X204168095Y-113738095D01*
X203882380Y-114642857D02*
X203882380Y-115309523D01*
X204882380Y-114880952D01*
%TO.C,SW1*%
X235904761Y-83666666D02*
X235952380Y-83809523D01*
X235952380Y-84047619D01*
X235904761Y-84142857D01*
X235857142Y-84190476D01*
X235761904Y-84238095D01*
X235666666Y-84238095D01*
X235571428Y-84190476D01*
X235523809Y-84142857D01*
X235476190Y-84047619D01*
X235428571Y-83857142D01*
X235380952Y-83761904D01*
X235333333Y-83714285D01*
X235238095Y-83666666D01*
X235142857Y-83666666D01*
X235047619Y-83714285D01*
X235000000Y-83761904D01*
X234952380Y-83857142D01*
X234952380Y-84095238D01*
X235000000Y-84238095D01*
X234952380Y-84571428D02*
X235952380Y-84809523D01*
X235238095Y-85000000D01*
X235952380Y-85190476D01*
X234952380Y-85428571D01*
X235952380Y-86333333D02*
X235952380Y-85761904D01*
X235952380Y-86047619D02*
X234952380Y-86047619D01*
X235095238Y-85952380D01*
X235190476Y-85857142D01*
X235238095Y-85761904D01*
%TO.C,R47*%
X126022380Y-129357142D02*
X125546190Y-129023809D01*
X126022380Y-128785714D02*
X125022380Y-128785714D01*
X125022380Y-129166666D01*
X125070000Y-129261904D01*
X125117619Y-129309523D01*
X125212857Y-129357142D01*
X125355714Y-129357142D01*
X125450952Y-129309523D01*
X125498571Y-129261904D01*
X125546190Y-129166666D01*
X125546190Y-128785714D01*
X125355714Y-130214285D02*
X126022380Y-130214285D01*
X124974761Y-129976190D02*
X125689047Y-129738095D01*
X125689047Y-130357142D01*
X125022380Y-130642857D02*
X125022380Y-131309523D01*
X126022380Y-130880952D01*
%TO.C,C12*%
X187787142Y-99357142D02*
X187834761Y-99309523D01*
X187882380Y-99166666D01*
X187882380Y-99071428D01*
X187834761Y-98928571D01*
X187739523Y-98833333D01*
X187644285Y-98785714D01*
X187453809Y-98738095D01*
X187310952Y-98738095D01*
X187120476Y-98785714D01*
X187025238Y-98833333D01*
X186930000Y-98928571D01*
X186882380Y-99071428D01*
X186882380Y-99166666D01*
X186930000Y-99309523D01*
X186977619Y-99357142D01*
X187882380Y-100309523D02*
X187882380Y-99738095D01*
X187882380Y-100023809D02*
X186882380Y-100023809D01*
X187025238Y-99928571D01*
X187120476Y-99833333D01*
X187168095Y-99738095D01*
X186977619Y-100690476D02*
X186930000Y-100738095D01*
X186882380Y-100833333D01*
X186882380Y-101071428D01*
X186930000Y-101166666D01*
X186977619Y-101214285D01*
X187072857Y-101261904D01*
X187168095Y-101261904D01*
X187310952Y-101214285D01*
X187882380Y-100642857D01*
X187882380Y-101261904D01*
%TO.C,R37*%
X120642857Y-70022380D02*
X120976190Y-69546190D01*
X121214285Y-70022380D02*
X121214285Y-69022380D01*
X120833333Y-69022380D01*
X120738095Y-69070000D01*
X120690476Y-69117619D01*
X120642857Y-69212857D01*
X120642857Y-69355714D01*
X120690476Y-69450952D01*
X120738095Y-69498571D01*
X120833333Y-69546190D01*
X121214285Y-69546190D01*
X120309523Y-69022380D02*
X119690476Y-69022380D01*
X120023809Y-69403333D01*
X119880952Y-69403333D01*
X119785714Y-69450952D01*
X119738095Y-69498571D01*
X119690476Y-69593809D01*
X119690476Y-69831904D01*
X119738095Y-69927142D01*
X119785714Y-69974761D01*
X119880952Y-70022380D01*
X120166666Y-70022380D01*
X120261904Y-69974761D01*
X120309523Y-69927142D01*
X119357142Y-69022380D02*
X118690476Y-69022380D01*
X119119047Y-70022380D01*
%TO.C,C21*%
X167642857Y-81787142D02*
X167690476Y-81834761D01*
X167833333Y-81882380D01*
X167928571Y-81882380D01*
X168071428Y-81834761D01*
X168166666Y-81739523D01*
X168214285Y-81644285D01*
X168261904Y-81453809D01*
X168261904Y-81310952D01*
X168214285Y-81120476D01*
X168166666Y-81025238D01*
X168071428Y-80930000D01*
X167928571Y-80882380D01*
X167833333Y-80882380D01*
X167690476Y-80930000D01*
X167642857Y-80977619D01*
X167261904Y-80977619D02*
X167214285Y-80930000D01*
X167119047Y-80882380D01*
X166880952Y-80882380D01*
X166785714Y-80930000D01*
X166738095Y-80977619D01*
X166690476Y-81072857D01*
X166690476Y-81168095D01*
X166738095Y-81310952D01*
X167309523Y-81882380D01*
X166690476Y-81882380D01*
X165738095Y-81882380D02*
X166309523Y-81882380D01*
X166023809Y-81882380D02*
X166023809Y-80882380D01*
X166119047Y-81025238D01*
X166214285Y-81120476D01*
X166309523Y-81168095D01*
%TO.C,R18*%
X196022380Y-113357142D02*
X195546190Y-113023809D01*
X196022380Y-112785714D02*
X195022380Y-112785714D01*
X195022380Y-113166666D01*
X195070000Y-113261904D01*
X195117619Y-113309523D01*
X195212857Y-113357142D01*
X195355714Y-113357142D01*
X195450952Y-113309523D01*
X195498571Y-113261904D01*
X195546190Y-113166666D01*
X195546190Y-112785714D01*
X196022380Y-114309523D02*
X196022380Y-113738095D01*
X196022380Y-114023809D02*
X195022380Y-114023809D01*
X195165238Y-113928571D01*
X195260476Y-113833333D01*
X195308095Y-113738095D01*
X195450952Y-114880952D02*
X195403333Y-114785714D01*
X195355714Y-114738095D01*
X195260476Y-114690476D01*
X195212857Y-114690476D01*
X195117619Y-114738095D01*
X195070000Y-114785714D01*
X195022380Y-114880952D01*
X195022380Y-115071428D01*
X195070000Y-115166666D01*
X195117619Y-115214285D01*
X195212857Y-115261904D01*
X195260476Y-115261904D01*
X195355714Y-115214285D01*
X195403333Y-115166666D01*
X195450952Y-115071428D01*
X195450952Y-114880952D01*
X195498571Y-114785714D01*
X195546190Y-114738095D01*
X195641428Y-114690476D01*
X195831904Y-114690476D01*
X195927142Y-114738095D01*
X195974761Y-114785714D01*
X196022380Y-114880952D01*
X196022380Y-115071428D01*
X195974761Y-115166666D01*
X195927142Y-115214285D01*
X195831904Y-115261904D01*
X195641428Y-115261904D01*
X195546190Y-115214285D01*
X195498571Y-115166666D01*
X195450952Y-115071428D01*
%TO.C,U10*%
X119252380Y-109761904D02*
X120061904Y-109761904D01*
X120157142Y-109809523D01*
X120204761Y-109857142D01*
X120252380Y-109952380D01*
X120252380Y-110142857D01*
X120204761Y-110238095D01*
X120157142Y-110285714D01*
X120061904Y-110333333D01*
X119252380Y-110333333D01*
X120252380Y-111333333D02*
X120252380Y-110761904D01*
X120252380Y-111047619D02*
X119252380Y-111047619D01*
X119395238Y-110952380D01*
X119490476Y-110857142D01*
X119538095Y-110761904D01*
X119252380Y-111952380D02*
X119252380Y-112047619D01*
X119300000Y-112142857D01*
X119347619Y-112190476D01*
X119442857Y-112238095D01*
X119633333Y-112285714D01*
X119871428Y-112285714D01*
X120061904Y-112238095D01*
X120157142Y-112190476D01*
X120204761Y-112142857D01*
X120252380Y-112047619D01*
X120252380Y-111952380D01*
X120204761Y-111857142D01*
X120157142Y-111809523D01*
X120061904Y-111761904D01*
X119871428Y-111714285D01*
X119633333Y-111714285D01*
X119442857Y-111761904D01*
X119347619Y-111809523D01*
X119300000Y-111857142D01*
X119252380Y-111952380D01*
%TO.C,C11*%
X114927142Y-64357142D02*
X114974761Y-64309523D01*
X115022380Y-64166666D01*
X115022380Y-64071428D01*
X114974761Y-63928571D01*
X114879523Y-63833333D01*
X114784285Y-63785714D01*
X114593809Y-63738095D01*
X114450952Y-63738095D01*
X114260476Y-63785714D01*
X114165238Y-63833333D01*
X114070000Y-63928571D01*
X114022380Y-64071428D01*
X114022380Y-64166666D01*
X114070000Y-64309523D01*
X114117619Y-64357142D01*
X115022380Y-65309523D02*
X115022380Y-64738095D01*
X115022380Y-65023809D02*
X114022380Y-65023809D01*
X114165238Y-64928571D01*
X114260476Y-64833333D01*
X114308095Y-64738095D01*
X115022380Y-66261904D02*
X115022380Y-65690476D01*
X115022380Y-65976190D02*
X114022380Y-65976190D01*
X114165238Y-65880952D01*
X114260476Y-65785714D01*
X114308095Y-65690476D01*
%TO.C,R27*%
X131882380Y-138357142D02*
X131406190Y-138023809D01*
X131882380Y-137785714D02*
X130882380Y-137785714D01*
X130882380Y-138166666D01*
X130930000Y-138261904D01*
X130977619Y-138309523D01*
X131072857Y-138357142D01*
X131215714Y-138357142D01*
X131310952Y-138309523D01*
X131358571Y-138261904D01*
X131406190Y-138166666D01*
X131406190Y-137785714D01*
X130977619Y-138738095D02*
X130930000Y-138785714D01*
X130882380Y-138880952D01*
X130882380Y-139119047D01*
X130930000Y-139214285D01*
X130977619Y-139261904D01*
X131072857Y-139309523D01*
X131168095Y-139309523D01*
X131310952Y-139261904D01*
X131882380Y-138690476D01*
X131882380Y-139309523D01*
X130882380Y-139642857D02*
X130882380Y-140309523D01*
X131882380Y-139880952D01*
%TO.C,R40*%
X122642857Y-74022380D02*
X122976190Y-73546190D01*
X123214285Y-74022380D02*
X123214285Y-73022380D01*
X122833333Y-73022380D01*
X122738095Y-73070000D01*
X122690476Y-73117619D01*
X122642857Y-73212857D01*
X122642857Y-73355714D01*
X122690476Y-73450952D01*
X122738095Y-73498571D01*
X122833333Y-73546190D01*
X123214285Y-73546190D01*
X121785714Y-73355714D02*
X121785714Y-74022380D01*
X122023809Y-72974761D02*
X122261904Y-73689047D01*
X121642857Y-73689047D01*
X121071428Y-73022380D02*
X120976190Y-73022380D01*
X120880952Y-73070000D01*
X120833333Y-73117619D01*
X120785714Y-73212857D01*
X120738095Y-73403333D01*
X120738095Y-73641428D01*
X120785714Y-73831904D01*
X120833333Y-73927142D01*
X120880952Y-73974761D01*
X120976190Y-74022380D01*
X121071428Y-74022380D01*
X121166666Y-73974761D01*
X121214285Y-73927142D01*
X121261904Y-73831904D01*
X121309523Y-73641428D01*
X121309523Y-73403333D01*
X121261904Y-73212857D01*
X121214285Y-73117619D01*
X121166666Y-73070000D01*
X121071428Y-73022380D01*
%TO.C,J4*%
X206711631Y-120816963D02*
X207216707Y-120311887D01*
X207284051Y-120177200D01*
X207284051Y-120042513D01*
X207216707Y-119907826D01*
X207149364Y-119840483D01*
X207587097Y-121221024D02*
X208058501Y-120749620D01*
X207149364Y-121322040D02*
X207486081Y-120648605D01*
X207923814Y-121086337D01*
%TO.C,R25*%
X122642857Y-66022380D02*
X122976190Y-65546190D01*
X123214285Y-66022380D02*
X123214285Y-65022380D01*
X122833333Y-65022380D01*
X122738095Y-65070000D01*
X122690476Y-65117619D01*
X122642857Y-65212857D01*
X122642857Y-65355714D01*
X122690476Y-65450952D01*
X122738095Y-65498571D01*
X122833333Y-65546190D01*
X123214285Y-65546190D01*
X122261904Y-65117619D02*
X122214285Y-65070000D01*
X122119047Y-65022380D01*
X121880952Y-65022380D01*
X121785714Y-65070000D01*
X121738095Y-65117619D01*
X121690476Y-65212857D01*
X121690476Y-65308095D01*
X121738095Y-65450952D01*
X122309523Y-66022380D01*
X121690476Y-66022380D01*
X120785714Y-65022380D02*
X121261904Y-65022380D01*
X121309523Y-65498571D01*
X121261904Y-65450952D01*
X121166666Y-65403333D01*
X120928571Y-65403333D01*
X120833333Y-65450952D01*
X120785714Y-65498571D01*
X120738095Y-65593809D01*
X120738095Y-65831904D01*
X120785714Y-65927142D01*
X120833333Y-65974761D01*
X120928571Y-66022380D01*
X121166666Y-66022380D01*
X121261904Y-65974761D01*
X121309523Y-65927142D01*
%TO.C,D1*%
X196952380Y-122261904D02*
X195952380Y-122261904D01*
X195952380Y-122500000D01*
X196000000Y-122642857D01*
X196095238Y-122738095D01*
X196190476Y-122785714D01*
X196380952Y-122833333D01*
X196523809Y-122833333D01*
X196714285Y-122785714D01*
X196809523Y-122738095D01*
X196904761Y-122642857D01*
X196952380Y-122500000D01*
X196952380Y-122261904D01*
X196952380Y-123785714D02*
X196952380Y-123214285D01*
X196952380Y-123500000D02*
X195952380Y-123500000D01*
X196095238Y-123404761D01*
X196190476Y-123309523D01*
X196238095Y-123214285D01*
%TO.C,C15*%
X192927142Y-100357142D02*
X192974761Y-100309523D01*
X193022380Y-100166666D01*
X193022380Y-100071428D01*
X192974761Y-99928571D01*
X192879523Y-99833333D01*
X192784285Y-99785714D01*
X192593809Y-99738095D01*
X192450952Y-99738095D01*
X192260476Y-99785714D01*
X192165238Y-99833333D01*
X192070000Y-99928571D01*
X192022380Y-100071428D01*
X192022380Y-100166666D01*
X192070000Y-100309523D01*
X192117619Y-100357142D01*
X193022380Y-101309523D02*
X193022380Y-100738095D01*
X193022380Y-101023809D02*
X192022380Y-101023809D01*
X192165238Y-100928571D01*
X192260476Y-100833333D01*
X192308095Y-100738095D01*
X192022380Y-102214285D02*
X192022380Y-101738095D01*
X192498571Y-101690476D01*
X192450952Y-101738095D01*
X192403333Y-101833333D01*
X192403333Y-102071428D01*
X192450952Y-102166666D01*
X192498571Y-102214285D01*
X192593809Y-102261904D01*
X192831904Y-102261904D01*
X192927142Y-102214285D01*
X192974761Y-102166666D01*
X193022380Y-102071428D01*
X193022380Y-101833333D01*
X192974761Y-101738095D01*
X192927142Y-101690476D01*
%TO.C,C17*%
X195642857Y-92787142D02*
X195690476Y-92834761D01*
X195833333Y-92882380D01*
X195928571Y-92882380D01*
X196071428Y-92834761D01*
X196166666Y-92739523D01*
X196214285Y-92644285D01*
X196261904Y-92453809D01*
X196261904Y-92310952D01*
X196214285Y-92120476D01*
X196166666Y-92025238D01*
X196071428Y-91930000D01*
X195928571Y-91882380D01*
X195833333Y-91882380D01*
X195690476Y-91930000D01*
X195642857Y-91977619D01*
X194690476Y-92882380D02*
X195261904Y-92882380D01*
X194976190Y-92882380D02*
X194976190Y-91882380D01*
X195071428Y-92025238D01*
X195166666Y-92120476D01*
X195261904Y-92168095D01*
X194357142Y-91882380D02*
X193690476Y-91882380D01*
X194119047Y-92882380D01*
%TO.C,C13*%
X183787142Y-99357142D02*
X183834761Y-99309523D01*
X183882380Y-99166666D01*
X183882380Y-99071428D01*
X183834761Y-98928571D01*
X183739523Y-98833333D01*
X183644285Y-98785714D01*
X183453809Y-98738095D01*
X183310952Y-98738095D01*
X183120476Y-98785714D01*
X183025238Y-98833333D01*
X182930000Y-98928571D01*
X182882380Y-99071428D01*
X182882380Y-99166666D01*
X182930000Y-99309523D01*
X182977619Y-99357142D01*
X183882380Y-100309523D02*
X183882380Y-99738095D01*
X183882380Y-100023809D02*
X182882380Y-100023809D01*
X183025238Y-99928571D01*
X183120476Y-99833333D01*
X183168095Y-99738095D01*
X182882380Y-100642857D02*
X182882380Y-101261904D01*
X183263333Y-100928571D01*
X183263333Y-101071428D01*
X183310952Y-101166666D01*
X183358571Y-101214285D01*
X183453809Y-101261904D01*
X183691904Y-101261904D01*
X183787142Y-101214285D01*
X183834761Y-101166666D01*
X183882380Y-101071428D01*
X183882380Y-100785714D01*
X183834761Y-100690476D01*
X183787142Y-100642857D01*
%TO.C,SW2*%
X73104761Y-115666666D02*
X73152380Y-115809523D01*
X73152380Y-116047619D01*
X73104761Y-116142857D01*
X73057142Y-116190476D01*
X72961904Y-116238095D01*
X72866666Y-116238095D01*
X72771428Y-116190476D01*
X72723809Y-116142857D01*
X72676190Y-116047619D01*
X72628571Y-115857142D01*
X72580952Y-115761904D01*
X72533333Y-115714285D01*
X72438095Y-115666666D01*
X72342857Y-115666666D01*
X72247619Y-115714285D01*
X72200000Y-115761904D01*
X72152380Y-115857142D01*
X72152380Y-116095238D01*
X72200000Y-116238095D01*
X72152380Y-116571428D02*
X73152380Y-116809523D01*
X72438095Y-117000000D01*
X73152380Y-117190476D01*
X72152380Y-117428571D01*
X72247619Y-117761904D02*
X72200000Y-117809523D01*
X72152380Y-117904761D01*
X72152380Y-118142857D01*
X72200000Y-118238095D01*
X72247619Y-118285714D01*
X72342857Y-118333333D01*
X72438095Y-118333333D01*
X72580952Y-118285714D01*
X73152380Y-117714285D01*
X73152380Y-118333333D01*
%TO.C,D3*%
X227952380Y-83761904D02*
X226952380Y-83761904D01*
X226952380Y-84000000D01*
X227000000Y-84142857D01*
X227095238Y-84238095D01*
X227190476Y-84285714D01*
X227380952Y-84333333D01*
X227523809Y-84333333D01*
X227714285Y-84285714D01*
X227809523Y-84238095D01*
X227904761Y-84142857D01*
X227952380Y-84000000D01*
X227952380Y-83761904D01*
X226952380Y-84666666D02*
X226952380Y-85285714D01*
X227333333Y-84952380D01*
X227333333Y-85095238D01*
X227380952Y-85190476D01*
X227428571Y-85238095D01*
X227523809Y-85285714D01*
X227761904Y-85285714D01*
X227857142Y-85238095D01*
X227904761Y-85190476D01*
X227952380Y-85095238D01*
X227952380Y-84809523D01*
X227904761Y-84714285D01*
X227857142Y-84666666D01*
%TO.C,J12*%
X92850635Y-119705796D02*
X93355711Y-120210872D01*
X93490398Y-120278215D01*
X93625085Y-120278215D01*
X93759772Y-120210872D01*
X93827116Y-120143528D01*
X92850635Y-121120009D02*
X93254696Y-120715948D01*
X93052666Y-120917979D02*
X92345559Y-120210872D01*
X92513918Y-120244544D01*
X92648605Y-120244544D01*
X92749620Y-120210872D01*
X91941498Y-120749620D02*
X91874154Y-120749620D01*
X91773139Y-120783292D01*
X91604780Y-120951650D01*
X91571109Y-121052666D01*
X91571109Y-121120009D01*
X91604780Y-121221024D01*
X91672124Y-121288368D01*
X91806811Y-121355711D01*
X92614933Y-121355711D01*
X92177200Y-121793444D01*
%TO.C,U8*%
X205761904Y-88012380D02*
X205761904Y-88821904D01*
X205714285Y-88917142D01*
X205666666Y-88964761D01*
X205571428Y-89012380D01*
X205380952Y-89012380D01*
X205285714Y-88964761D01*
X205238095Y-88917142D01*
X205190476Y-88821904D01*
X205190476Y-88012380D01*
X204571428Y-88440952D02*
X204666666Y-88393333D01*
X204714285Y-88345714D01*
X204761904Y-88250476D01*
X204761904Y-88202857D01*
X204714285Y-88107619D01*
X204666666Y-88060000D01*
X204571428Y-88012380D01*
X204380952Y-88012380D01*
X204285714Y-88060000D01*
X204238095Y-88107619D01*
X204190476Y-88202857D01*
X204190476Y-88250476D01*
X204238095Y-88345714D01*
X204285714Y-88393333D01*
X204380952Y-88440952D01*
X204571428Y-88440952D01*
X204666666Y-88488571D01*
X204714285Y-88536190D01*
X204761904Y-88631428D01*
X204761904Y-88821904D01*
X204714285Y-88917142D01*
X204666666Y-88964761D01*
X204571428Y-89012380D01*
X204380952Y-89012380D01*
X204285714Y-88964761D01*
X204238095Y-88917142D01*
X204190476Y-88821904D01*
X204190476Y-88631428D01*
X204238095Y-88536190D01*
X204285714Y-88488571D01*
X204380952Y-88440952D01*
%TO.C,D2*%
X192738095Y-126952380D02*
X192738095Y-125952380D01*
X192500000Y-125952380D01*
X192357142Y-126000000D01*
X192261904Y-126095238D01*
X192214285Y-126190476D01*
X192166666Y-126380952D01*
X192166666Y-126523809D01*
X192214285Y-126714285D01*
X192261904Y-126809523D01*
X192357142Y-126904761D01*
X192500000Y-126952380D01*
X192738095Y-126952380D01*
X191785714Y-126047619D02*
X191738095Y-126000000D01*
X191642857Y-125952380D01*
X191404761Y-125952380D01*
X191309523Y-126000000D01*
X191261904Y-126047619D01*
X191214285Y-126142857D01*
X191214285Y-126238095D01*
X191261904Y-126380952D01*
X191833333Y-126952380D01*
X191214285Y-126952380D01*
D11*
%TO.C,U3*%
X123277619Y-89507904D02*
X122468095Y-89507904D01*
X122372857Y-89460285D01*
X122325238Y-89412666D01*
X122277619Y-89317428D01*
X122277619Y-89126952D01*
X122325238Y-89031714D01*
X122372857Y-88984095D01*
X122468095Y-88936476D01*
X123277619Y-88936476D01*
X123277619Y-88555523D02*
X123277619Y-87936476D01*
X122896666Y-88269809D01*
X122896666Y-88126952D01*
X122849047Y-88031714D01*
X122801428Y-87984095D01*
X122706190Y-87936476D01*
X122468095Y-87936476D01*
X122372857Y-87984095D01*
X122325238Y-88031714D01*
X122277619Y-88126952D01*
X122277619Y-88412666D01*
X122325238Y-88507904D01*
X122372857Y-88555523D01*
X125309619Y-91785714D02*
X125309619Y-91119047D01*
X124309619Y-91547619D01*
X124976285Y-90309523D02*
X124309619Y-90309523D01*
X125357238Y-90547619D02*
X124642952Y-90785714D01*
X124642952Y-90166666D01*
X124309619Y-89785714D02*
X125309619Y-89785714D01*
X124833428Y-89785714D02*
X124833428Y-89214285D01*
X124309619Y-89214285D02*
X125309619Y-89214285D01*
X124404857Y-88166666D02*
X124357238Y-88214285D01*
X124309619Y-88357142D01*
X124309619Y-88452380D01*
X124357238Y-88595238D01*
X124452476Y-88690476D01*
X124547714Y-88738095D01*
X124738190Y-88785714D01*
X124881047Y-88785714D01*
X125071523Y-88738095D01*
X125166761Y-88690476D01*
X125262000Y-88595238D01*
X125309619Y-88452380D01*
X125309619Y-88357142D01*
X125262000Y-88214285D01*
X125214380Y-88166666D01*
X125309619Y-87547619D02*
X125309619Y-87452380D01*
X125262000Y-87357142D01*
X125214380Y-87309523D01*
X125119142Y-87261904D01*
X124928666Y-87214285D01*
X124690571Y-87214285D01*
X124500095Y-87261904D01*
X124404857Y-87309523D01*
X124357238Y-87357142D01*
X124309619Y-87452380D01*
X124309619Y-87547619D01*
X124357238Y-87642857D01*
X124404857Y-87690476D01*
X124500095Y-87738095D01*
X124690571Y-87785714D01*
X124928666Y-87785714D01*
X125119142Y-87738095D01*
X125214380Y-87690476D01*
X125262000Y-87642857D01*
X125309619Y-87547619D01*
X124976285Y-86357142D02*
X124309619Y-86357142D01*
X125357238Y-86595238D02*
X124642952Y-86833333D01*
X124642952Y-86214285D01*
D10*
%TO.C,R48*%
X124022380Y-100857142D02*
X123546190Y-100523809D01*
X124022380Y-100285714D02*
X123022380Y-100285714D01*
X123022380Y-100666666D01*
X123070000Y-100761904D01*
X123117619Y-100809523D01*
X123212857Y-100857142D01*
X123355714Y-100857142D01*
X123450952Y-100809523D01*
X123498571Y-100761904D01*
X123546190Y-100666666D01*
X123546190Y-100285714D01*
X123355714Y-101714285D02*
X124022380Y-101714285D01*
X122974761Y-101476190D02*
X123689047Y-101238095D01*
X123689047Y-101857142D01*
X123450952Y-102380952D02*
X123403333Y-102285714D01*
X123355714Y-102238095D01*
X123260476Y-102190476D01*
X123212857Y-102190476D01*
X123117619Y-102238095D01*
X123070000Y-102285714D01*
X123022380Y-102380952D01*
X123022380Y-102571428D01*
X123070000Y-102666666D01*
X123117619Y-102714285D01*
X123212857Y-102761904D01*
X123260476Y-102761904D01*
X123355714Y-102714285D01*
X123403333Y-102666666D01*
X123450952Y-102571428D01*
X123450952Y-102380952D01*
X123498571Y-102285714D01*
X123546190Y-102238095D01*
X123641428Y-102190476D01*
X123831904Y-102190476D01*
X123927142Y-102238095D01*
X123974761Y-102285714D01*
X124022380Y-102380952D01*
X124022380Y-102571428D01*
X123974761Y-102666666D01*
X123927142Y-102714285D01*
X123831904Y-102761904D01*
X123641428Y-102761904D01*
X123546190Y-102714285D01*
X123498571Y-102666666D01*
X123450952Y-102571428D01*
%TO.C,C16*%
X175927142Y-62357142D02*
X175974761Y-62309523D01*
X176022380Y-62166666D01*
X176022380Y-62071428D01*
X175974761Y-61928571D01*
X175879523Y-61833333D01*
X175784285Y-61785714D01*
X175593809Y-61738095D01*
X175450952Y-61738095D01*
X175260476Y-61785714D01*
X175165238Y-61833333D01*
X175070000Y-61928571D01*
X175022380Y-62071428D01*
X175022380Y-62166666D01*
X175070000Y-62309523D01*
X175117619Y-62357142D01*
X176022380Y-63309523D02*
X176022380Y-62738095D01*
X176022380Y-63023809D02*
X175022380Y-63023809D01*
X175165238Y-62928571D01*
X175260476Y-62833333D01*
X175308095Y-62738095D01*
X175022380Y-64166666D02*
X175022380Y-63976190D01*
X175070000Y-63880952D01*
X175117619Y-63833333D01*
X175260476Y-63738095D01*
X175450952Y-63690476D01*
X175831904Y-63690476D01*
X175927142Y-63738095D01*
X175974761Y-63785714D01*
X176022380Y-63880952D01*
X176022380Y-64071428D01*
X175974761Y-64166666D01*
X175927142Y-64214285D01*
X175831904Y-64261904D01*
X175593809Y-64261904D01*
X175498571Y-64214285D01*
X175450952Y-64166666D01*
X175403333Y-64071428D01*
X175403333Y-63880952D01*
X175450952Y-63785714D01*
X175498571Y-63738095D01*
X175593809Y-63690476D01*
%TO.C,C19*%
X189642857Y-65927142D02*
X189690476Y-65974761D01*
X189833333Y-66022380D01*
X189928571Y-66022380D01*
X190071428Y-65974761D01*
X190166666Y-65879523D01*
X190214285Y-65784285D01*
X190261904Y-65593809D01*
X190261904Y-65450952D01*
X190214285Y-65260476D01*
X190166666Y-65165238D01*
X190071428Y-65070000D01*
X189928571Y-65022380D01*
X189833333Y-65022380D01*
X189690476Y-65070000D01*
X189642857Y-65117619D01*
X188690476Y-66022380D02*
X189261904Y-66022380D01*
X188976190Y-66022380D02*
X188976190Y-65022380D01*
X189071428Y-65165238D01*
X189166666Y-65260476D01*
X189261904Y-65308095D01*
X188214285Y-66022380D02*
X188023809Y-66022380D01*
X187928571Y-65974761D01*
X187880952Y-65927142D01*
X187785714Y-65784285D01*
X187738095Y-65593809D01*
X187738095Y-65212857D01*
X187785714Y-65117619D01*
X187833333Y-65070000D01*
X187928571Y-65022380D01*
X188119047Y-65022380D01*
X188214285Y-65070000D01*
X188261904Y-65117619D01*
X188309523Y-65212857D01*
X188309523Y-65450952D01*
X188261904Y-65546190D01*
X188214285Y-65593809D01*
X188119047Y-65641428D01*
X187928571Y-65641428D01*
X187833333Y-65593809D01*
X187785714Y-65546190D01*
X187738095Y-65450952D01*
%TO.C,R3*%
X199022380Y-122833333D02*
X198546190Y-122500000D01*
X199022380Y-122261904D02*
X198022380Y-122261904D01*
X198022380Y-122642857D01*
X198070000Y-122738095D01*
X198117619Y-122785714D01*
X198212857Y-122833333D01*
X198355714Y-122833333D01*
X198450952Y-122785714D01*
X198498571Y-122738095D01*
X198546190Y-122642857D01*
X198546190Y-122261904D01*
X198022380Y-123166666D02*
X198022380Y-123785714D01*
X198403333Y-123452380D01*
X198403333Y-123595238D01*
X198450952Y-123690476D01*
X198498571Y-123738095D01*
X198593809Y-123785714D01*
X198831904Y-123785714D01*
X198927142Y-123738095D01*
X198974761Y-123690476D01*
X199022380Y-123595238D01*
X199022380Y-123309523D01*
X198974761Y-123214285D01*
X198927142Y-123166666D01*
%TO.C,R5*%
X230666666Y-92382380D02*
X231000000Y-91906190D01*
X231238095Y-92382380D02*
X231238095Y-91382380D01*
X230857142Y-91382380D01*
X230761904Y-91430000D01*
X230714285Y-91477619D01*
X230666666Y-91572857D01*
X230666666Y-91715714D01*
X230714285Y-91810952D01*
X230761904Y-91858571D01*
X230857142Y-91906190D01*
X231238095Y-91906190D01*
X229761904Y-91382380D02*
X230238095Y-91382380D01*
X230285714Y-91858571D01*
X230238095Y-91810952D01*
X230142857Y-91763333D01*
X229904761Y-91763333D01*
X229809523Y-91810952D01*
X229761904Y-91858571D01*
X229714285Y-91953809D01*
X229714285Y-92191904D01*
X229761904Y-92287142D01*
X229809523Y-92334761D01*
X229904761Y-92382380D01*
X230142857Y-92382380D01*
X230238095Y-92334761D01*
X230285714Y-92287142D01*
%TO.C,C3*%
X229666666Y-81787142D02*
X229714285Y-81834761D01*
X229857142Y-81882380D01*
X229952380Y-81882380D01*
X230095238Y-81834761D01*
X230190476Y-81739523D01*
X230238095Y-81644285D01*
X230285714Y-81453809D01*
X230285714Y-81310952D01*
X230238095Y-81120476D01*
X230190476Y-81025238D01*
X230095238Y-80930000D01*
X229952380Y-80882380D01*
X229857142Y-80882380D01*
X229714285Y-80930000D01*
X229666666Y-80977619D01*
X229333333Y-80882380D02*
X228714285Y-80882380D01*
X229047619Y-81263333D01*
X228904761Y-81263333D01*
X228809523Y-81310952D01*
X228761904Y-81358571D01*
X228714285Y-81453809D01*
X228714285Y-81691904D01*
X228761904Y-81787142D01*
X228809523Y-81834761D01*
X228904761Y-81882380D01*
X229190476Y-81882380D01*
X229285714Y-81834761D01*
X229333333Y-81787142D01*
%TO.C,Y3*%
X182976190Y-87276190D02*
X182976190Y-87752380D01*
X183309523Y-86752380D02*
X182976190Y-87276190D01*
X182642857Y-86752380D01*
X182404761Y-86752380D02*
X181785714Y-86752380D01*
X182119047Y-87133333D01*
X181976190Y-87133333D01*
X181880952Y-87180952D01*
X181833333Y-87228571D01*
X181785714Y-87323809D01*
X181785714Y-87561904D01*
X181833333Y-87657142D01*
X181880952Y-87704761D01*
X181976190Y-87752380D01*
X182261904Y-87752380D01*
X182357142Y-87704761D01*
X182404761Y-87657142D01*
%TO.C,J13*%
X91705796Y-79149364D02*
X92210872Y-78644288D01*
X92278215Y-78509601D01*
X92278215Y-78374914D01*
X92210872Y-78240227D01*
X92143528Y-78172883D01*
X93120009Y-79149364D02*
X92715948Y-78745303D01*
X92917979Y-78947333D02*
X92210872Y-79654440D01*
X92244544Y-79486081D01*
X92244544Y-79351394D01*
X92210872Y-79250379D01*
X92648605Y-80092173D02*
X93086337Y-80529906D01*
X93120009Y-80024829D01*
X93221024Y-80125845D01*
X93322040Y-80159516D01*
X93389383Y-80159516D01*
X93490398Y-80125845D01*
X93658757Y-79957486D01*
X93692429Y-79856471D01*
X93692429Y-79789127D01*
X93658757Y-79688112D01*
X93456727Y-79486081D01*
X93355711Y-79452410D01*
X93288368Y-79452410D01*
%TO.C,C27*%
X126927142Y-101444642D02*
X126974761Y-101397023D01*
X127022380Y-101254166D01*
X127022380Y-101158928D01*
X126974761Y-101016071D01*
X126879523Y-100920833D01*
X126784285Y-100873214D01*
X126593809Y-100825595D01*
X126450952Y-100825595D01*
X126260476Y-100873214D01*
X126165238Y-100920833D01*
X126070000Y-101016071D01*
X126022380Y-101158928D01*
X126022380Y-101254166D01*
X126070000Y-101397023D01*
X126117619Y-101444642D01*
X126117619Y-101825595D02*
X126070000Y-101873214D01*
X126022380Y-101968452D01*
X126022380Y-102206547D01*
X126070000Y-102301785D01*
X126117619Y-102349404D01*
X126212857Y-102397023D01*
X126308095Y-102397023D01*
X126450952Y-102349404D01*
X127022380Y-101777976D01*
X127022380Y-102397023D01*
X126022380Y-102730357D02*
X126022380Y-103397023D01*
X127022380Y-102968452D01*
%TO.C,SW3*%
X232904761Y-113666666D02*
X232952380Y-113809523D01*
X232952380Y-114047619D01*
X232904761Y-114142857D01*
X232857142Y-114190476D01*
X232761904Y-114238095D01*
X232666666Y-114238095D01*
X232571428Y-114190476D01*
X232523809Y-114142857D01*
X232476190Y-114047619D01*
X232428571Y-113857142D01*
X232380952Y-113761904D01*
X232333333Y-113714285D01*
X232238095Y-113666666D01*
X232142857Y-113666666D01*
X232047619Y-113714285D01*
X232000000Y-113761904D01*
X231952380Y-113857142D01*
X231952380Y-114095238D01*
X232000000Y-114238095D01*
X231952380Y-114571428D02*
X232952380Y-114809523D01*
X232238095Y-115000000D01*
X232952380Y-115190476D01*
X231952380Y-115428571D01*
X231952380Y-115714285D02*
X231952380Y-116333333D01*
X232333333Y-116000000D01*
X232333333Y-116142857D01*
X232380952Y-116238095D01*
X232428571Y-116285714D01*
X232523809Y-116333333D01*
X232761904Y-116333333D01*
X232857142Y-116285714D01*
X232904761Y-116238095D01*
X232952380Y-116142857D01*
X232952380Y-115857142D01*
X232904761Y-115761904D01*
X232857142Y-115714285D01*
%TO.C,D11*%
X67452380Y-110785714D02*
X66452380Y-110785714D01*
X66452380Y-111023809D01*
X66500000Y-111166666D01*
X66595238Y-111261904D01*
X66690476Y-111309523D01*
X66880952Y-111357142D01*
X67023809Y-111357142D01*
X67214285Y-111309523D01*
X67309523Y-111261904D01*
X67404761Y-111166666D01*
X67452380Y-111023809D01*
X67452380Y-110785714D01*
X67452380Y-112309523D02*
X67452380Y-111738095D01*
X67452380Y-112023809D02*
X66452380Y-112023809D01*
X66595238Y-111928571D01*
X66690476Y-111833333D01*
X66738095Y-111738095D01*
X67452380Y-113261904D02*
X67452380Y-112690476D01*
X67452380Y-112976190D02*
X66452380Y-112976190D01*
X66595238Y-112880952D01*
X66690476Y-112785714D01*
X66738095Y-112690476D01*
%TO.C,C18*%
X191927142Y-105357142D02*
X191974761Y-105309523D01*
X192022380Y-105166666D01*
X192022380Y-105071428D01*
X191974761Y-104928571D01*
X191879523Y-104833333D01*
X191784285Y-104785714D01*
X191593809Y-104738095D01*
X191450952Y-104738095D01*
X191260476Y-104785714D01*
X191165238Y-104833333D01*
X191070000Y-104928571D01*
X191022380Y-105071428D01*
X191022380Y-105166666D01*
X191070000Y-105309523D01*
X191117619Y-105357142D01*
X192022380Y-106309523D02*
X192022380Y-105738095D01*
X192022380Y-106023809D02*
X191022380Y-106023809D01*
X191165238Y-105928571D01*
X191260476Y-105833333D01*
X191308095Y-105738095D01*
X191450952Y-106880952D02*
X191403333Y-106785714D01*
X191355714Y-106738095D01*
X191260476Y-106690476D01*
X191212857Y-106690476D01*
X191117619Y-106738095D01*
X191070000Y-106785714D01*
X191022380Y-106880952D01*
X191022380Y-107071428D01*
X191070000Y-107166666D01*
X191117619Y-107214285D01*
X191212857Y-107261904D01*
X191260476Y-107261904D01*
X191355714Y-107214285D01*
X191403333Y-107166666D01*
X191450952Y-107071428D01*
X191450952Y-106880952D01*
X191498571Y-106785714D01*
X191546190Y-106738095D01*
X191641428Y-106690476D01*
X191831904Y-106690476D01*
X191927142Y-106738095D01*
X191974761Y-106785714D01*
X192022380Y-106880952D01*
X192022380Y-107071428D01*
X191974761Y-107166666D01*
X191927142Y-107214285D01*
X191831904Y-107261904D01*
X191641428Y-107261904D01*
X191546190Y-107214285D01*
X191498571Y-107166666D01*
X191450952Y-107071428D01*
%TO.C,R46*%
X114022380Y-128357142D02*
X113546190Y-128023809D01*
X114022380Y-127785714D02*
X113022380Y-127785714D01*
X113022380Y-128166666D01*
X113070000Y-128261904D01*
X113117619Y-128309523D01*
X113212857Y-128357142D01*
X113355714Y-128357142D01*
X113450952Y-128309523D01*
X113498571Y-128261904D01*
X113546190Y-128166666D01*
X113546190Y-127785714D01*
X113355714Y-129214285D02*
X114022380Y-129214285D01*
X112974761Y-128976190D02*
X113689047Y-128738095D01*
X113689047Y-129357142D01*
X113022380Y-130166666D02*
X113022380Y-129976190D01*
X113070000Y-129880952D01*
X113117619Y-129833333D01*
X113260476Y-129738095D01*
X113450952Y-129690476D01*
X113831904Y-129690476D01*
X113927142Y-129738095D01*
X113974761Y-129785714D01*
X114022380Y-129880952D01*
X114022380Y-130071428D01*
X113974761Y-130166666D01*
X113927142Y-130214285D01*
X113831904Y-130261904D01*
X113593809Y-130261904D01*
X113498571Y-130214285D01*
X113450952Y-130166666D01*
X113403333Y-130071428D01*
X113403333Y-129880952D01*
X113450952Y-129785714D01*
X113498571Y-129738095D01*
X113593809Y-129690476D01*
%TO.C,C8*%
X97927142Y-102833333D02*
X97974761Y-102785714D01*
X98022380Y-102642857D01*
X98022380Y-102547619D01*
X97974761Y-102404761D01*
X97879523Y-102309523D01*
X97784285Y-102261904D01*
X97593809Y-102214285D01*
X97450952Y-102214285D01*
X97260476Y-102261904D01*
X97165238Y-102309523D01*
X97070000Y-102404761D01*
X97022380Y-102547619D01*
X97022380Y-102642857D01*
X97070000Y-102785714D01*
X97117619Y-102833333D01*
X97450952Y-103404761D02*
X97403333Y-103309523D01*
X97355714Y-103261904D01*
X97260476Y-103214285D01*
X97212857Y-103214285D01*
X97117619Y-103261904D01*
X97070000Y-103309523D01*
X97022380Y-103404761D01*
X97022380Y-103595238D01*
X97070000Y-103690476D01*
X97117619Y-103738095D01*
X97212857Y-103785714D01*
X97260476Y-103785714D01*
X97355714Y-103738095D01*
X97403333Y-103690476D01*
X97450952Y-103595238D01*
X97450952Y-103404761D01*
X97498571Y-103309523D01*
X97546190Y-103261904D01*
X97641428Y-103214285D01*
X97831904Y-103214285D01*
X97927142Y-103261904D01*
X97974761Y-103309523D01*
X98022380Y-103404761D01*
X98022380Y-103595238D01*
X97974761Y-103690476D01*
X97927142Y-103738095D01*
X97831904Y-103785714D01*
X97641428Y-103785714D01*
X97546190Y-103738095D01*
X97498571Y-103690476D01*
X97450952Y-103595238D01*
%TO.C,D12*%
X68802380Y-81785714D02*
X67802380Y-81785714D01*
X67802380Y-82023809D01*
X67850000Y-82166666D01*
X67945238Y-82261904D01*
X68040476Y-82309523D01*
X68230952Y-82357142D01*
X68373809Y-82357142D01*
X68564285Y-82309523D01*
X68659523Y-82261904D01*
X68754761Y-82166666D01*
X68802380Y-82023809D01*
X68802380Y-81785714D01*
X68802380Y-83309523D02*
X68802380Y-82738095D01*
X68802380Y-83023809D02*
X67802380Y-83023809D01*
X67945238Y-82928571D01*
X68040476Y-82833333D01*
X68088095Y-82738095D01*
X67897619Y-83690476D02*
X67850000Y-83738095D01*
X67802380Y-83833333D01*
X67802380Y-84071428D01*
X67850000Y-84166666D01*
X67897619Y-84214285D01*
X67992857Y-84261904D01*
X68088095Y-84261904D01*
X68230952Y-84214285D01*
X68802380Y-83642857D01*
X68802380Y-84261904D01*
%TO.C,C6*%
X198927142Y-113833333D02*
X198974761Y-113785714D01*
X199022380Y-113642857D01*
X199022380Y-113547619D01*
X198974761Y-113404761D01*
X198879523Y-113309523D01*
X198784285Y-113261904D01*
X198593809Y-113214285D01*
X198450952Y-113214285D01*
X198260476Y-113261904D01*
X198165238Y-113309523D01*
X198070000Y-113404761D01*
X198022380Y-113547619D01*
X198022380Y-113642857D01*
X198070000Y-113785714D01*
X198117619Y-113833333D01*
X198022380Y-114690476D02*
X198022380Y-114500000D01*
X198070000Y-114404761D01*
X198117619Y-114357142D01*
X198260476Y-114261904D01*
X198450952Y-114214285D01*
X198831904Y-114214285D01*
X198927142Y-114261904D01*
X198974761Y-114309523D01*
X199022380Y-114404761D01*
X199022380Y-114595238D01*
X198974761Y-114690476D01*
X198927142Y-114738095D01*
X198831904Y-114785714D01*
X198593809Y-114785714D01*
X198498571Y-114738095D01*
X198450952Y-114690476D01*
X198403333Y-114595238D01*
X198403333Y-114404761D01*
X198450952Y-114309523D01*
X198498571Y-114261904D01*
X198593809Y-114214285D01*
%TO.C,Y2*%
X111676190Y-73473809D02*
X112152380Y-73473809D01*
X111152380Y-73140476D02*
X111676190Y-73473809D01*
X111152380Y-73807142D01*
X111247619Y-74092857D02*
X111200000Y-74140476D01*
X111152380Y-74235714D01*
X111152380Y-74473809D01*
X111200000Y-74569047D01*
X111247619Y-74616666D01*
X111342857Y-74664285D01*
X111438095Y-74664285D01*
X111580952Y-74616666D01*
X112152380Y-74045238D01*
X112152380Y-74664285D01*
%TO.C,Y1*%
X105426190Y-109523809D02*
X105902380Y-109523809D01*
X104902380Y-109190476D02*
X105426190Y-109523809D01*
X104902380Y-109857142D01*
X105902380Y-110714285D02*
X105902380Y-110142857D01*
X105902380Y-110428571D02*
X104902380Y-110428571D01*
X105045238Y-110333333D01*
X105140476Y-110238095D01*
X105188095Y-110142857D01*
%TO.C,C22*%
X187927142Y-104357142D02*
X187974761Y-104309523D01*
X188022380Y-104166666D01*
X188022380Y-104071428D01*
X187974761Y-103928571D01*
X187879523Y-103833333D01*
X187784285Y-103785714D01*
X187593809Y-103738095D01*
X187450952Y-103738095D01*
X187260476Y-103785714D01*
X187165238Y-103833333D01*
X187070000Y-103928571D01*
X187022380Y-104071428D01*
X187022380Y-104166666D01*
X187070000Y-104309523D01*
X187117619Y-104357142D01*
X187117619Y-104738095D02*
X187070000Y-104785714D01*
X187022380Y-104880952D01*
X187022380Y-105119047D01*
X187070000Y-105214285D01*
X187117619Y-105261904D01*
X187212857Y-105309523D01*
X187308095Y-105309523D01*
X187450952Y-105261904D01*
X188022380Y-104690476D01*
X188022380Y-105309523D01*
X187117619Y-105690476D02*
X187070000Y-105738095D01*
X187022380Y-105833333D01*
X187022380Y-106071428D01*
X187070000Y-106166666D01*
X187117619Y-106214285D01*
X187212857Y-106261904D01*
X187308095Y-106261904D01*
X187450952Y-106214285D01*
X188022380Y-105642857D01*
X188022380Y-106261904D01*
D12*
%TO.C,C24*%
X194490000Y-76146267D02*
X194490000Y-75853733D01*
X195510000Y-76146267D02*
X195510000Y-75853733D01*
%TO.C,C25*%
X196146267Y-72490000D02*
X195853733Y-72490000D01*
X196146267Y-73510000D02*
X195853733Y-73510000D01*
%TO.C,R35*%
X195477500Y-96254724D02*
X195477500Y-95745276D01*
X196522500Y-96254724D02*
X196522500Y-95745276D01*
D13*
%TO.C,U4*%
X186107000Y-130963000D02*
X186107000Y-118773000D01*
X173917000Y-130963000D02*
X186107000Y-130963000D01*
X186107000Y-118773000D02*
X173917000Y-118773000D01*
X173917000Y-118773000D02*
X173917000Y-130963000D01*
G36*
X184710000Y-130076000D02*
G01*
X175312000Y-130076000D01*
X175312000Y-119789000D01*
X184710000Y-119662000D01*
X184710000Y-130076000D01*
G37*
X184710000Y-130076000D02*
X175312000Y-130076000D01*
X175312000Y-119789000D01*
X184710000Y-119662000D01*
X184710000Y-130076000D01*
D12*
%TO.C,R26*%
X136477500Y-134745276D02*
X136477500Y-135254724D01*
X137522500Y-134745276D02*
X137522500Y-135254724D01*
%TO.C,C14*%
X186146267Y-96510000D02*
X185853733Y-96510000D01*
X186146267Y-95490000D02*
X185853733Y-95490000D01*
%TO.C,R29*%
X69477500Y-112254724D02*
X69477500Y-111745276D01*
X70522500Y-112254724D02*
X70522500Y-111745276D01*
%TO.C,C23*%
X105146267Y-89490000D02*
X104853733Y-89490000D01*
X105146267Y-90510000D02*
X104853733Y-90510000D01*
%TO.C,R6*%
X221254724Y-87022500D02*
X220745276Y-87022500D01*
X221254724Y-85977500D02*
X220745276Y-85977500D01*
%TO.C,R17*%
X203522500Y-114254724D02*
X203522500Y-113745276D01*
X202477500Y-114254724D02*
X202477500Y-113745276D01*
%TO.C,SW1*%
X229150000Y-82650000D02*
X229150000Y-87350000D01*
X230725000Y-87450000D02*
X231275000Y-87450000D01*
X232850000Y-86425000D02*
X232850000Y-87350000D01*
X230725000Y-82550000D02*
X231275000Y-82550000D01*
X232850000Y-82650000D02*
X232850000Y-83575000D01*
%TO.C,R47*%
X127522500Y-129745276D02*
X127522500Y-130254724D01*
X126477500Y-129745276D02*
X126477500Y-130254724D01*
%TO.C,C12*%
X185490000Y-100146267D02*
X185490000Y-99853733D01*
X186510000Y-100146267D02*
X186510000Y-99853733D01*
%TO.C,R37*%
X120254724Y-70477500D02*
X119745276Y-70477500D01*
X120254724Y-71522500D02*
X119745276Y-71522500D01*
%TO.C,C21*%
X166853733Y-80510000D02*
X167146267Y-80510000D01*
X166853733Y-79490000D02*
X167146267Y-79490000D01*
%TO.C,R18*%
X197522500Y-113745276D02*
X197522500Y-114254724D01*
X196477500Y-113745276D02*
X196477500Y-114254724D01*
%TO.C,U10*%
X127385000Y-111000000D02*
X127385000Y-108800000D01*
X127385000Y-111000000D02*
X127385000Y-113200000D01*
X120615000Y-111000000D02*
X120615000Y-107400000D01*
X120615000Y-111000000D02*
X120615000Y-113200000D01*
%TO.C,C11*%
X115490000Y-64853733D02*
X115490000Y-65146267D01*
X116510000Y-64853733D02*
X116510000Y-65146267D01*
%TO.C,R27*%
X130522500Y-139254724D02*
X130522500Y-138745276D01*
X129477500Y-139254724D02*
X129477500Y-138745276D01*
%TO.C,R40*%
X122254724Y-74477500D02*
X121745276Y-74477500D01*
X122254724Y-75522500D02*
X121745276Y-75522500D01*
%TO.C,J4*%
X203848522Y-122270574D02*
X198417942Y-127701154D01*
X207567904Y-122313000D02*
X206627452Y-121372548D01*
X205729426Y-124151478D02*
X203848522Y-122270574D01*
X200298846Y-129582058D02*
X198417942Y-127701154D01*
X206627452Y-123253452D02*
X207567904Y-122313000D01*
X205729426Y-124151478D02*
X200298846Y-129582058D01*
%TO.C,R25*%
X122254724Y-66477500D02*
X121745276Y-66477500D01*
X122254724Y-67522500D02*
X121745276Y-67522500D01*
%TO.C,D1*%
X192350000Y-126400000D02*
X192350000Y-121000000D01*
X195650000Y-126400000D02*
X192350000Y-126400000D01*
X195650000Y-126400000D02*
X195650000Y-121000000D01*
%TO.C,C15*%
X194510000Y-100853733D02*
X194510000Y-101146267D01*
X193490000Y-100853733D02*
X193490000Y-101146267D01*
%TO.C,C17*%
X194853733Y-90490000D02*
X195146267Y-90490000D01*
X194853733Y-91510000D02*
X195146267Y-91510000D01*
%TO.C,C13*%
X182510000Y-100146267D02*
X182510000Y-99853733D01*
X181490000Y-100146267D02*
X181490000Y-99853733D01*
%TO.C,SW2*%
X68700000Y-115500000D02*
X68700000Y-118500000D01*
X71700000Y-115500000D02*
X71700000Y-118500000D01*
X71700000Y-118500000D02*
X71200000Y-118500000D01*
X69200000Y-118500000D02*
X68700000Y-118500000D01*
X69200000Y-115500000D02*
X68700000Y-115500000D01*
X71700000Y-115500000D02*
X71200000Y-115500000D01*
%TO.C,D3*%
X226650000Y-87900000D02*
X226650000Y-82500000D01*
X223350000Y-87900000D02*
X223350000Y-82500000D01*
X226650000Y-87900000D02*
X223350000Y-87900000D01*
%TO.C,J12*%
X96151478Y-122270574D02*
X94270574Y-124151478D01*
X94270574Y-124151478D02*
X99701154Y-129582058D01*
X96151478Y-122270574D02*
X101582058Y-127701154D01*
X101582058Y-127701154D02*
X99701154Y-129582058D01*
X95253452Y-121372548D02*
X94313000Y-120432096D01*
X94313000Y-120432096D02*
X93372548Y-121372548D01*
%TO.C,U8*%
X205000000Y-87725000D02*
X202275000Y-87725000D01*
X207725000Y-87725000D02*
X207725000Y-87465000D01*
X207725000Y-82275000D02*
X207725000Y-82535000D01*
X202275000Y-87465000D02*
X200600000Y-87465000D01*
X205000000Y-82275000D02*
X207725000Y-82275000D01*
X202275000Y-82275000D02*
X202275000Y-82535000D01*
X202275000Y-87725000D02*
X202275000Y-87465000D01*
X205000000Y-82275000D02*
X202275000Y-82275000D01*
X205000000Y-87725000D02*
X207725000Y-87725000D01*
%TO.C,D2*%
X195400000Y-127350000D02*
X190000000Y-127350000D01*
X195400000Y-130650000D02*
X190000000Y-130650000D01*
X195400000Y-127350000D02*
X195400000Y-130650000D01*
D14*
%TO.C,U3*%
X127175000Y-93348480D02*
X120825000Y-93348480D01*
X120784360Y-93348480D02*
X120784360Y-93234180D01*
X127215640Y-84765820D02*
X127215640Y-84651520D01*
X120784360Y-84765820D02*
X120784360Y-84651520D01*
X127175000Y-84651520D02*
X120784360Y-84651520D01*
X127215640Y-93348480D02*
X127215640Y-93234180D01*
D15*
X122192916Y-92810000D02*
G75*
G03*
X122192916Y-92810000I-224916J0D01*
G01*
D12*
%TO.C,R48*%
X124477500Y-101245276D02*
X124477500Y-101754724D01*
X125522500Y-101245276D02*
X125522500Y-101754724D01*
%TO.C,C16*%
X176490000Y-62853733D02*
X176490000Y-63146267D01*
X177510000Y-62853733D02*
X177510000Y-63146267D01*
%TO.C,C19*%
X189146267Y-67510000D02*
X188853733Y-67510000D01*
X189146267Y-66490000D02*
X188853733Y-66490000D01*
%TO.C,R3*%
X200522500Y-122745276D02*
X200522500Y-123254724D01*
X199477500Y-122745276D02*
X199477500Y-123254724D01*
%TO.C,R5*%
X230245276Y-91022500D02*
X230754724Y-91022500D01*
X230245276Y-89977500D02*
X230754724Y-89977500D01*
%TO.C,C3*%
X229353733Y-79490000D02*
X229646267Y-79490000D01*
X229353733Y-80510000D02*
X229646267Y-80510000D01*
%TO.C,Y3*%
X184000000Y-88300000D02*
X181000000Y-88300000D01*
X184000000Y-91700000D02*
X181000000Y-91700000D01*
X179662210Y-91048961D02*
G75*
G03*
X181000000Y-91700000I1337790J1048961D01*
G01*
X184000000Y-91700000D02*
G75*
G03*
X185337790Y-91048961I2J1699996D01*
G01*
X181000000Y-88300000D02*
G75*
G03*
X179662210Y-88951039I0J-1700000D01*
G01*
X185337790Y-88951039D02*
G75*
G03*
X184000000Y-88300000I-1337790J-1048961D01*
G01*
%TO.C,J13*%
X93372548Y-76746548D02*
X92432096Y-77687000D01*
X92432096Y-77687000D02*
X93372548Y-78627452D01*
X96151478Y-77729426D02*
X101582058Y-72298846D01*
X99701154Y-70417942D02*
X101582058Y-72298846D01*
X94270574Y-75848522D02*
X99701154Y-70417942D01*
X94270574Y-75848522D02*
X96151478Y-77729426D01*
%TO.C,C27*%
X127490000Y-101941233D02*
X127490000Y-102233767D01*
X128510000Y-101941233D02*
X128510000Y-102233767D01*
%TO.C,SW3*%
X232500000Y-116500000D02*
X232500000Y-113500000D01*
X232000000Y-113500000D02*
X232500000Y-113500000D01*
X229500000Y-116500000D02*
X229500000Y-113500000D01*
X232000000Y-116500000D02*
X232500000Y-116500000D01*
X229500000Y-116500000D02*
X230000000Y-116500000D01*
X229500000Y-113500000D02*
X230000000Y-113500000D01*
%TO.C,D11*%
X67040000Y-110140000D02*
X68960000Y-110140000D01*
X67040000Y-113000000D02*
X67040000Y-110140000D01*
X68960000Y-110140000D02*
X68960000Y-113000000D01*
%TO.C,C18*%
X192490000Y-105853733D02*
X192490000Y-106146267D01*
X193510000Y-105853733D02*
X193510000Y-106146267D01*
%TO.C,R46*%
X114477500Y-128745276D02*
X114477500Y-129254724D01*
X115522500Y-128745276D02*
X115522500Y-129254724D01*
%TO.C,C8*%
X98490000Y-102853733D02*
X98490000Y-103146267D01*
X99510000Y-102853733D02*
X99510000Y-103146267D01*
%TO.C,D12*%
X69040000Y-81140000D02*
X70960000Y-81140000D01*
X69040000Y-84000000D02*
X69040000Y-81140000D01*
X70960000Y-81140000D02*
X70960000Y-84000000D01*
%TO.C,C6*%
X199490000Y-113853733D02*
X199490000Y-114146267D01*
X200510000Y-113853733D02*
X200510000Y-114146267D01*
%TO.C,Y2*%
X107300000Y-75450000D02*
X107300000Y-72450000D01*
X110700000Y-75450000D02*
X110700000Y-72450000D01*
X110700000Y-72450000D02*
G75*
G03*
X110048961Y-71112210I-1700000J0D01*
G01*
X107951039Y-71112210D02*
G75*
G03*
X107300000Y-72450000I1048961J-1337790D01*
G01*
X110048961Y-76787790D02*
G75*
G03*
X110700000Y-75450000I-1048961J1337790D01*
G01*
X107300000Y-75450000D02*
G75*
G03*
X107951039Y-76787790I1699996J-2D01*
G01*
%TO.C,Y1*%
X109000000Y-111700000D02*
X112000000Y-111700000D01*
X109000000Y-108300000D02*
X112000000Y-108300000D01*
X107662210Y-111048961D02*
G75*
G03*
X109000000Y-111700000I1337790J1048961D01*
G01*
X113337790Y-108951039D02*
G75*
G03*
X112000000Y-108300000I-1337790J-1048961D01*
G01*
X112000000Y-111700000D02*
G75*
G03*
X113337790Y-111048961I0J1700000D01*
G01*
X109000000Y-108300000D02*
G75*
G03*
X107662210Y-108951039I-2J-1699996D01*
G01*
%TO.C,C22*%
X188490000Y-104853733D02*
X188490000Y-105146267D01*
X189510000Y-104853733D02*
X189510000Y-105146267D01*
D11*
%TO.C,J1*%
X225870000Y-98250000D02*
X224520000Y-98250000D01*
X225870000Y-101250000D02*
X224520000Y-101225000D01*
%TD*%
M02*
