%TF.GenerationSoftware,KiCad,Pcbnew,(6.0.9)*%
%TF.CreationDate,2022-12-21T05:14:32+09:00*%
%TF.ProjectId,main,6d61696e-2e6b-4696-9361-645f70636258,rev?*%
%TF.SameCoordinates,Original*%
%TF.FileFunction,Legend,Top*%
%TF.FilePolarity,Positive*%
%FSLAX46Y46*%
G04 Gerber Fmt 4.6, Leading zero omitted, Abs format (unit mm)*
G04 Created by KiCad (PCBNEW (6.0.9)) date 2022-12-21 05:14:32*
%MOMM*%
%LPD*%
G01*
G04 APERTURE LIST*
%ADD10C,0.150000*%
%ADD11C,0.254000*%
%ADD12C,0.200000*%
%ADD13C,0.120000*%
%ADD14C,0.100000*%
%ADD15C,0.203200*%
%ADD16C,0.149860*%
%ADD17C,0.381000*%
G04 APERTURE END LIST*
D10*
%TO.C,R20*%
X106882380Y-118142857D02*
X106406190Y-118476190D01*
X106882380Y-118714285D02*
X105882380Y-118714285D01*
X105882380Y-118333333D01*
X105930000Y-118238095D01*
X105977619Y-118190476D01*
X106072857Y-118142857D01*
X106215714Y-118142857D01*
X106310952Y-118190476D01*
X106358571Y-118238095D01*
X106406190Y-118333333D01*
X106406190Y-118714285D01*
X105977619Y-117761904D02*
X105930000Y-117714285D01*
X105882380Y-117619047D01*
X105882380Y-117380952D01*
X105930000Y-117285714D01*
X105977619Y-117238095D01*
X106072857Y-117190476D01*
X106168095Y-117190476D01*
X106310952Y-117238095D01*
X106882380Y-117809523D01*
X106882380Y-117190476D01*
X105882380Y-116571428D02*
X105882380Y-116476190D01*
X105930000Y-116380952D01*
X105977619Y-116333333D01*
X106072857Y-116285714D01*
X106263333Y-116238095D01*
X106501428Y-116238095D01*
X106691904Y-116285714D01*
X106787142Y-116333333D01*
X106834761Y-116380952D01*
X106882380Y-116476190D01*
X106882380Y-116571428D01*
X106834761Y-116666666D01*
X106787142Y-116714285D01*
X106691904Y-116761904D01*
X106501428Y-116809523D01*
X106263333Y-116809523D01*
X106072857Y-116761904D01*
X105977619Y-116714285D01*
X105930000Y-116666666D01*
X105882380Y-116571428D01*
%TO.C,SW5*%
X208304761Y-91333333D02*
X208352380Y-91190476D01*
X208352380Y-90952380D01*
X208304761Y-90857142D01*
X208257142Y-90809523D01*
X208161904Y-90761904D01*
X208066666Y-90761904D01*
X207971428Y-90809523D01*
X207923809Y-90857142D01*
X207876190Y-90952380D01*
X207828571Y-91142857D01*
X207780952Y-91238095D01*
X207733333Y-91285714D01*
X207638095Y-91333333D01*
X207542857Y-91333333D01*
X207447619Y-91285714D01*
X207400000Y-91238095D01*
X207352380Y-91142857D01*
X207352380Y-90904761D01*
X207400000Y-90761904D01*
X207352380Y-90428571D02*
X208352380Y-90190476D01*
X207638095Y-90000000D01*
X208352380Y-89809523D01*
X207352380Y-89571428D01*
X207352380Y-88714285D02*
X207352380Y-89190476D01*
X207828571Y-89238095D01*
X207780952Y-89190476D01*
X207733333Y-89095238D01*
X207733333Y-88857142D01*
X207780952Y-88761904D01*
X207828571Y-88714285D01*
X207923809Y-88666666D01*
X208161904Y-88666666D01*
X208257142Y-88714285D01*
X208304761Y-88761904D01*
X208352380Y-88857142D01*
X208352380Y-89095238D01*
X208304761Y-89190476D01*
X208257142Y-89238095D01*
D11*
%TO.C,RV2*%
X89244047Y-84224523D02*
X88820714Y-83619761D01*
X88518333Y-84224523D02*
X88518333Y-82954523D01*
X89002142Y-82954523D01*
X89123095Y-83015000D01*
X89183571Y-83075476D01*
X89244047Y-83196428D01*
X89244047Y-83377857D01*
X89183571Y-83498809D01*
X89123095Y-83559285D01*
X89002142Y-83619761D01*
X88518333Y-83619761D01*
X89606904Y-82954523D02*
X90030238Y-84224523D01*
X90453571Y-82954523D01*
X90816428Y-83075476D02*
X90876904Y-83015000D01*
X90997857Y-82954523D01*
X91300238Y-82954523D01*
X91421190Y-83015000D01*
X91481666Y-83075476D01*
X91542142Y-83196428D01*
X91542142Y-83317380D01*
X91481666Y-83498809D01*
X90755952Y-84224523D01*
X91542142Y-84224523D01*
D10*
%TO.C,R28*%
X117382380Y-82642857D02*
X116906190Y-82976190D01*
X117382380Y-83214285D02*
X116382380Y-83214285D01*
X116382380Y-82833333D01*
X116430000Y-82738095D01*
X116477619Y-82690476D01*
X116572857Y-82642857D01*
X116715714Y-82642857D01*
X116810952Y-82690476D01*
X116858571Y-82738095D01*
X116906190Y-82833333D01*
X116906190Y-83214285D01*
X116477619Y-82261904D02*
X116430000Y-82214285D01*
X116382380Y-82119047D01*
X116382380Y-81880952D01*
X116430000Y-81785714D01*
X116477619Y-81738095D01*
X116572857Y-81690476D01*
X116668095Y-81690476D01*
X116810952Y-81738095D01*
X117382380Y-82309523D01*
X117382380Y-81690476D01*
X116810952Y-81119047D02*
X116763333Y-81214285D01*
X116715714Y-81261904D01*
X116620476Y-81309523D01*
X116572857Y-81309523D01*
X116477619Y-81261904D01*
X116430000Y-81214285D01*
X116382380Y-81119047D01*
X116382380Y-80928571D01*
X116430000Y-80833333D01*
X116477619Y-80785714D01*
X116572857Y-80738095D01*
X116620476Y-80738095D01*
X116715714Y-80785714D01*
X116763333Y-80833333D01*
X116810952Y-80928571D01*
X116810952Y-81119047D01*
X116858571Y-81214285D01*
X116906190Y-81261904D01*
X117001428Y-81309523D01*
X117191904Y-81309523D01*
X117287142Y-81261904D01*
X117334761Y-81214285D01*
X117382380Y-81119047D01*
X117382380Y-80928571D01*
X117334761Y-80833333D01*
X117287142Y-80785714D01*
X117191904Y-80738095D01*
X117001428Y-80738095D01*
X116906190Y-80785714D01*
X116858571Y-80833333D01*
X116810952Y-80928571D01*
D11*
%TO.C,J17*%
X111198523Y-97278095D02*
X112105666Y-97278095D01*
X112287095Y-97338571D01*
X112408047Y-97459523D01*
X112468523Y-97640952D01*
X112468523Y-97761904D01*
X112468523Y-96008095D02*
X112468523Y-96733809D01*
X112468523Y-96370952D02*
X111198523Y-96370952D01*
X111379952Y-96491904D01*
X111500904Y-96612857D01*
X111561380Y-96733809D01*
X111198523Y-95584761D02*
X111198523Y-94738095D01*
X112468523Y-95282380D01*
X119072523Y-101934761D02*
X117802523Y-101934761D01*
X118951571Y-100604285D02*
X119012047Y-100664761D01*
X119072523Y-100846190D01*
X119072523Y-100967142D01*
X119012047Y-101148571D01*
X118891095Y-101269523D01*
X118770142Y-101330000D01*
X118528238Y-101390476D01*
X118346809Y-101390476D01*
X118104904Y-101330000D01*
X117983952Y-101269523D01*
X117863000Y-101148571D01*
X117802523Y-100967142D01*
X117802523Y-100846190D01*
X117863000Y-100664761D01*
X117923476Y-100604285D01*
X119012047Y-100120476D02*
X119072523Y-99939047D01*
X119072523Y-99636666D01*
X119012047Y-99515714D01*
X118951571Y-99455238D01*
X118830619Y-99394761D01*
X118709666Y-99394761D01*
X118588714Y-99455238D01*
X118528238Y-99515714D01*
X118467761Y-99636666D01*
X118407285Y-99878571D01*
X118346809Y-99999523D01*
X118286333Y-100060000D01*
X118165380Y-100120476D01*
X118044428Y-100120476D01*
X117923476Y-100060000D01*
X117863000Y-99999523D01*
X117802523Y-99878571D01*
X117802523Y-99576190D01*
X117863000Y-99394761D01*
X119072523Y-98850476D02*
X117802523Y-98850476D01*
X117802523Y-98366666D01*
X117863000Y-98245714D01*
X117923476Y-98185238D01*
X118044428Y-98124761D01*
X118225857Y-98124761D01*
X118346809Y-98185238D01*
X118407285Y-98245714D01*
X118467761Y-98366666D01*
X118467761Y-98850476D01*
D10*
%TO.C,J8*%
X149666666Y-76452380D02*
X149666666Y-77166666D01*
X149619047Y-77309523D01*
X149523809Y-77404761D01*
X149380952Y-77452380D01*
X149285714Y-77452380D01*
X150285714Y-76880952D02*
X150190476Y-76833333D01*
X150142857Y-76785714D01*
X150095238Y-76690476D01*
X150095238Y-76642857D01*
X150142857Y-76547619D01*
X150190476Y-76500000D01*
X150285714Y-76452380D01*
X150476190Y-76452380D01*
X150571428Y-76500000D01*
X150619047Y-76547619D01*
X150666666Y-76642857D01*
X150666666Y-76690476D01*
X150619047Y-76785714D01*
X150571428Y-76833333D01*
X150476190Y-76880952D01*
X150285714Y-76880952D01*
X150190476Y-76928571D01*
X150142857Y-76976190D01*
X150095238Y-77071428D01*
X150095238Y-77261904D01*
X150142857Y-77357142D01*
X150190476Y-77404761D01*
X150285714Y-77452380D01*
X150476190Y-77452380D01*
X150571428Y-77404761D01*
X150619047Y-77357142D01*
X150666666Y-77261904D01*
X150666666Y-77071428D01*
X150619047Y-76976190D01*
X150571428Y-76928571D01*
X150476190Y-76880952D01*
%TO.C,D4*%
X177522380Y-125738095D02*
X176522380Y-125738095D01*
X176522380Y-125500000D01*
X176570000Y-125357142D01*
X176665238Y-125261904D01*
X176760476Y-125214285D01*
X176950952Y-125166666D01*
X177093809Y-125166666D01*
X177284285Y-125214285D01*
X177379523Y-125261904D01*
X177474761Y-125357142D01*
X177522380Y-125500000D01*
X177522380Y-125738095D01*
X176855714Y-124309523D02*
X177522380Y-124309523D01*
X176474761Y-124547619D02*
X177189047Y-124785714D01*
X177189047Y-124166666D01*
%TO.C,C5*%
X169979600Y-126847142D02*
X169931981Y-126894761D01*
X169789124Y-126942380D01*
X169693886Y-126942380D01*
X169551028Y-126894761D01*
X169455790Y-126799523D01*
X169408171Y-126704285D01*
X169360552Y-126513809D01*
X169360552Y-126370952D01*
X169408171Y-126180476D01*
X169455790Y-126085238D01*
X169551028Y-125990000D01*
X169693886Y-125942380D01*
X169789124Y-125942380D01*
X169931981Y-125990000D01*
X169979600Y-126037619D01*
X170884362Y-125942380D02*
X170408171Y-125942380D01*
X170360552Y-126418571D01*
X170408171Y-126370952D01*
X170503409Y-126323333D01*
X170741505Y-126323333D01*
X170836743Y-126370952D01*
X170884362Y-126418571D01*
X170931981Y-126513809D01*
X170931981Y-126751904D01*
X170884362Y-126847142D01*
X170836743Y-126894761D01*
X170741505Y-126942380D01*
X170503409Y-126942380D01*
X170408171Y-126894761D01*
X170360552Y-126847142D01*
%TO.C,D15*%
X66785714Y-103882380D02*
X66785714Y-102882380D01*
X67023809Y-102882380D01*
X67166666Y-102930000D01*
X67261904Y-103025238D01*
X67309523Y-103120476D01*
X67357142Y-103310952D01*
X67357142Y-103453809D01*
X67309523Y-103644285D01*
X67261904Y-103739523D01*
X67166666Y-103834761D01*
X67023809Y-103882380D01*
X66785714Y-103882380D01*
X68309523Y-103882380D02*
X67738095Y-103882380D01*
X68023809Y-103882380D02*
X68023809Y-102882380D01*
X67928571Y-103025238D01*
X67833333Y-103120476D01*
X67738095Y-103168095D01*
X69214285Y-102882380D02*
X68738095Y-102882380D01*
X68690476Y-103358571D01*
X68738095Y-103310952D01*
X68833333Y-103263333D01*
X69071428Y-103263333D01*
X69166666Y-103310952D01*
X69214285Y-103358571D01*
X69261904Y-103453809D01*
X69261904Y-103691904D01*
X69214285Y-103787142D01*
X69166666Y-103834761D01*
X69071428Y-103882380D01*
X68833333Y-103882380D01*
X68738095Y-103834761D01*
X68690476Y-103787142D01*
%TO.C,U1*%
X179238095Y-58952380D02*
X179238095Y-59761904D01*
X179285714Y-59857142D01*
X179333333Y-59904761D01*
X179428571Y-59952380D01*
X179619047Y-59952380D01*
X179714285Y-59904761D01*
X179761904Y-59857142D01*
X179809523Y-59761904D01*
X179809523Y-58952380D01*
X180809523Y-59952380D02*
X180238095Y-59952380D01*
X180523809Y-59952380D02*
X180523809Y-58952380D01*
X180428571Y-59095238D01*
X180333333Y-59190476D01*
X180238095Y-59238095D01*
%TO.C,R23*%
X99022380Y-82642857D02*
X98546190Y-82976190D01*
X99022380Y-83214285D02*
X98022380Y-83214285D01*
X98022380Y-82833333D01*
X98070000Y-82738095D01*
X98117619Y-82690476D01*
X98212857Y-82642857D01*
X98355714Y-82642857D01*
X98450952Y-82690476D01*
X98498571Y-82738095D01*
X98546190Y-82833333D01*
X98546190Y-83214285D01*
X98117619Y-82261904D02*
X98070000Y-82214285D01*
X98022380Y-82119047D01*
X98022380Y-81880952D01*
X98070000Y-81785714D01*
X98117619Y-81738095D01*
X98212857Y-81690476D01*
X98308095Y-81690476D01*
X98450952Y-81738095D01*
X99022380Y-82309523D01*
X99022380Y-81690476D01*
X98022380Y-81357142D02*
X98022380Y-80738095D01*
X98403333Y-81071428D01*
X98403333Y-80928571D01*
X98450952Y-80833333D01*
X98498571Y-80785714D01*
X98593809Y-80738095D01*
X98831904Y-80738095D01*
X98927142Y-80785714D01*
X98974761Y-80833333D01*
X99022380Y-80928571D01*
X99022380Y-81214285D01*
X98974761Y-81309523D01*
X98927142Y-81357142D01*
%TO.C,R31*%
X187452380Y-63642857D02*
X186976190Y-63976190D01*
X187452380Y-64214285D02*
X186452380Y-64214285D01*
X186452380Y-63833333D01*
X186500000Y-63738095D01*
X186547619Y-63690476D01*
X186642857Y-63642857D01*
X186785714Y-63642857D01*
X186880952Y-63690476D01*
X186928571Y-63738095D01*
X186976190Y-63833333D01*
X186976190Y-64214285D01*
X186452380Y-63309523D02*
X186452380Y-62690476D01*
X186833333Y-63023809D01*
X186833333Y-62880952D01*
X186880952Y-62785714D01*
X186928571Y-62738095D01*
X187023809Y-62690476D01*
X187261904Y-62690476D01*
X187357142Y-62738095D01*
X187404761Y-62785714D01*
X187452380Y-62880952D01*
X187452380Y-63166666D01*
X187404761Y-63261904D01*
X187357142Y-63309523D01*
X187452380Y-61738095D02*
X187452380Y-62309523D01*
X187452380Y-62023809D02*
X186452380Y-62023809D01*
X186595238Y-62119047D01*
X186690476Y-62214285D01*
X186738095Y-62309523D01*
%TO.C,SW6*%
X212501666Y-95664761D02*
X212644523Y-95712380D01*
X212882619Y-95712380D01*
X212977857Y-95664761D01*
X213025476Y-95617142D01*
X213073095Y-95521904D01*
X213073095Y-95426666D01*
X213025476Y-95331428D01*
X212977857Y-95283809D01*
X212882619Y-95236190D01*
X212692142Y-95188571D01*
X212596904Y-95140952D01*
X212549285Y-95093333D01*
X212501666Y-94998095D01*
X212501666Y-94902857D01*
X212549285Y-94807619D01*
X212596904Y-94760000D01*
X212692142Y-94712380D01*
X212930238Y-94712380D01*
X213073095Y-94760000D01*
X213406428Y-94712380D02*
X213644523Y-95712380D01*
X213835000Y-94998095D01*
X214025476Y-95712380D01*
X214263571Y-94712380D01*
X215073095Y-94712380D02*
X214882619Y-94712380D01*
X214787380Y-94760000D01*
X214739761Y-94807619D01*
X214644523Y-94950476D01*
X214596904Y-95140952D01*
X214596904Y-95521904D01*
X214644523Y-95617142D01*
X214692142Y-95664761D01*
X214787380Y-95712380D01*
X214977857Y-95712380D01*
X215073095Y-95664761D01*
X215120714Y-95617142D01*
X215168333Y-95521904D01*
X215168333Y-95283809D01*
X215120714Y-95188571D01*
X215073095Y-95140952D01*
X214977857Y-95093333D01*
X214787380Y-95093333D01*
X214692142Y-95140952D01*
X214644523Y-95188571D01*
X214596904Y-95283809D01*
%TO.C,D5*%
X105802380Y-91913095D02*
X104802380Y-91913095D01*
X104802380Y-91675000D01*
X104850000Y-91532142D01*
X104945238Y-91436904D01*
X105040476Y-91389285D01*
X105230952Y-91341666D01*
X105373809Y-91341666D01*
X105564285Y-91389285D01*
X105659523Y-91436904D01*
X105754761Y-91532142D01*
X105802380Y-91675000D01*
X105802380Y-91913095D01*
X104802380Y-90436904D02*
X104802380Y-90913095D01*
X105278571Y-90960714D01*
X105230952Y-90913095D01*
X105183333Y-90817857D01*
X105183333Y-90579761D01*
X105230952Y-90484523D01*
X105278571Y-90436904D01*
X105373809Y-90389285D01*
X105611904Y-90389285D01*
X105707142Y-90436904D01*
X105754761Y-90484523D01*
X105802380Y-90579761D01*
X105802380Y-90817857D01*
X105754761Y-90913095D01*
X105707142Y-90960714D01*
%TO.C,R7*%
X220833333Y-84382380D02*
X220500000Y-83906190D01*
X220261904Y-84382380D02*
X220261904Y-83382380D01*
X220642857Y-83382380D01*
X220738095Y-83430000D01*
X220785714Y-83477619D01*
X220833333Y-83572857D01*
X220833333Y-83715714D01*
X220785714Y-83810952D01*
X220738095Y-83858571D01*
X220642857Y-83906190D01*
X220261904Y-83906190D01*
X221166666Y-83382380D02*
X221833333Y-83382380D01*
X221404761Y-84382380D01*
D11*
%TO.C,J14*%
X117653904Y-117748523D02*
X117653904Y-118655666D01*
X117593428Y-118837095D01*
X117472476Y-118958047D01*
X117291047Y-119018523D01*
X117170095Y-119018523D01*
X118923904Y-119018523D02*
X118198190Y-119018523D01*
X118561047Y-119018523D02*
X118561047Y-117748523D01*
X118440095Y-117929952D01*
X118319142Y-118050904D01*
X118198190Y-118111380D01*
X120012476Y-118171857D02*
X120012476Y-119018523D01*
X119710095Y-117688047D02*
X119407714Y-118595190D01*
X120193904Y-118595190D01*
X118571666Y-125574523D02*
X118571666Y-124304523D01*
X119115952Y-124425476D02*
X119176428Y-124365000D01*
X119297380Y-124304523D01*
X119599761Y-124304523D01*
X119720714Y-124365000D01*
X119781190Y-124425476D01*
X119841666Y-124546428D01*
X119841666Y-124667380D01*
X119781190Y-124848809D01*
X119055476Y-125574523D01*
X119841666Y-125574523D01*
X121111666Y-125453571D02*
X121051190Y-125514047D01*
X120869761Y-125574523D01*
X120748809Y-125574523D01*
X120567380Y-125514047D01*
X120446428Y-125393095D01*
X120385952Y-125272142D01*
X120325476Y-125030238D01*
X120325476Y-124848809D01*
X120385952Y-124606904D01*
X120446428Y-124485952D01*
X120567380Y-124365000D01*
X120748809Y-124304523D01*
X120869761Y-124304523D01*
X121051190Y-124365000D01*
X121111666Y-124425476D01*
X121353571Y-125695476D02*
X122321190Y-125695476D01*
X122563095Y-124425476D02*
X122623571Y-124365000D01*
X122744523Y-124304523D01*
X123046904Y-124304523D01*
X123167857Y-124365000D01*
X123228333Y-124425476D01*
X123288809Y-124546428D01*
X123288809Y-124667380D01*
X123228333Y-124848809D01*
X122502619Y-125574523D01*
X123288809Y-125574523D01*
D10*
%TO.C,J5*%
X149889166Y-124002380D02*
X149889166Y-124716666D01*
X149841547Y-124859523D01*
X149746309Y-124954761D01*
X149603452Y-125002380D01*
X149508214Y-125002380D01*
X150841547Y-124002380D02*
X150365357Y-124002380D01*
X150317738Y-124478571D01*
X150365357Y-124430952D01*
X150460595Y-124383333D01*
X150698690Y-124383333D01*
X150793928Y-124430952D01*
X150841547Y-124478571D01*
X150889166Y-124573809D01*
X150889166Y-124811904D01*
X150841547Y-124907142D01*
X150793928Y-124954761D01*
X150698690Y-125002380D01*
X150460595Y-125002380D01*
X150365357Y-124954761D01*
X150317738Y-124907142D01*
%TO.C,C10*%
X71787142Y-112642857D02*
X71834761Y-112690476D01*
X71882380Y-112833333D01*
X71882380Y-112928571D01*
X71834761Y-113071428D01*
X71739523Y-113166666D01*
X71644285Y-113214285D01*
X71453809Y-113261904D01*
X71310952Y-113261904D01*
X71120476Y-113214285D01*
X71025238Y-113166666D01*
X70930000Y-113071428D01*
X70882380Y-112928571D01*
X70882380Y-112833333D01*
X70930000Y-112690476D01*
X70977619Y-112642857D01*
X71882380Y-111690476D02*
X71882380Y-112261904D01*
X71882380Y-111976190D02*
X70882380Y-111976190D01*
X71025238Y-112071428D01*
X71120476Y-112166666D01*
X71168095Y-112261904D01*
X70882380Y-111071428D02*
X70882380Y-110976190D01*
X70930000Y-110880952D01*
X70977619Y-110833333D01*
X71072857Y-110785714D01*
X71263333Y-110738095D01*
X71501428Y-110738095D01*
X71691904Y-110785714D01*
X71787142Y-110833333D01*
X71834761Y-110880952D01*
X71882380Y-110976190D01*
X71882380Y-111071428D01*
X71834761Y-111166666D01*
X71787142Y-111214285D01*
X71691904Y-111261904D01*
X71501428Y-111309523D01*
X71263333Y-111309523D01*
X71072857Y-111261904D01*
X70977619Y-111214285D01*
X70930000Y-111166666D01*
X70882380Y-111071428D01*
D11*
%TO.C,J20*%
X134235204Y-104329673D02*
X134876651Y-103688226D01*
X135047703Y-103602699D01*
X135218756Y-103602699D01*
X135389808Y-103688226D01*
X135475334Y-103773752D01*
X133935862Y-103859278D02*
X133850336Y-103859278D01*
X133722046Y-103816515D01*
X133508231Y-103602699D01*
X133465467Y-103474410D01*
X133465467Y-103388884D01*
X133508231Y-103260594D01*
X133593757Y-103175068D01*
X133764809Y-103089542D01*
X134791124Y-103089542D01*
X134235204Y-102533621D01*
X132781257Y-102875726D02*
X132695731Y-102790200D01*
X132652968Y-102661911D01*
X132652968Y-102576384D01*
X132695731Y-102448095D01*
X132824021Y-102234279D01*
X133037836Y-102020464D01*
X133251652Y-101892174D01*
X133379941Y-101849411D01*
X133465467Y-101849411D01*
X133593757Y-101892174D01*
X133679283Y-101977701D01*
X133722046Y-102105990D01*
X133722046Y-102191516D01*
X133679283Y-102319806D01*
X133550994Y-102533621D01*
X133337178Y-102747437D01*
X133123362Y-102875726D01*
X132995073Y-102918489D01*
X132909547Y-102918489D01*
X132781257Y-102875726D01*
X137248790Y-110315332D02*
X136350764Y-111213357D01*
X136692869Y-110272569D01*
X135752081Y-110614674D01*
X136650106Y-109716648D01*
X136222475Y-109289017D02*
X135324450Y-110187042D01*
X135110634Y-109973227D01*
X135025108Y-109802174D01*
X135025108Y-109631122D01*
X135067871Y-109502832D01*
X135196160Y-109289017D01*
X135324450Y-109160727D01*
X135538265Y-109032438D01*
X135666555Y-108989675D01*
X135837607Y-108989675D01*
X136008659Y-109075201D01*
X136222475Y-109289017D01*
X134511950Y-109374543D02*
X133956030Y-108818622D01*
X134597476Y-108775859D01*
X134469187Y-108647570D01*
X134426424Y-108519281D01*
X134426424Y-108433754D01*
X134469187Y-108305465D01*
X134683003Y-108091649D01*
X134811292Y-108048886D01*
X134896818Y-108048886D01*
X135025108Y-108091649D01*
X135281686Y-108348228D01*
X135324450Y-108476517D01*
X135324450Y-108562044D01*
D10*
%TO.C,R14*%
X122357142Y-87022380D02*
X122023809Y-86546190D01*
X121785714Y-87022380D02*
X121785714Y-86022380D01*
X122166666Y-86022380D01*
X122261904Y-86070000D01*
X122309523Y-86117619D01*
X122357142Y-86212857D01*
X122357142Y-86355714D01*
X122309523Y-86450952D01*
X122261904Y-86498571D01*
X122166666Y-86546190D01*
X121785714Y-86546190D01*
X123309523Y-87022380D02*
X122738095Y-87022380D01*
X123023809Y-87022380D02*
X123023809Y-86022380D01*
X122928571Y-86165238D01*
X122833333Y-86260476D01*
X122738095Y-86308095D01*
X124166666Y-86355714D02*
X124166666Y-87022380D01*
X123928571Y-85974761D02*
X123690476Y-86689047D01*
X124309523Y-86689047D01*
%TO.C,D8*%
X98691904Y-110062380D02*
X98691904Y-109062380D01*
X98930000Y-109062380D01*
X99072857Y-109110000D01*
X99168095Y-109205238D01*
X99215714Y-109300476D01*
X99263333Y-109490952D01*
X99263333Y-109633809D01*
X99215714Y-109824285D01*
X99168095Y-109919523D01*
X99072857Y-110014761D01*
X98930000Y-110062380D01*
X98691904Y-110062380D01*
X99834761Y-109490952D02*
X99739523Y-109443333D01*
X99691904Y-109395714D01*
X99644285Y-109300476D01*
X99644285Y-109252857D01*
X99691904Y-109157619D01*
X99739523Y-109110000D01*
X99834761Y-109062380D01*
X100025238Y-109062380D01*
X100120476Y-109110000D01*
X100168095Y-109157619D01*
X100215714Y-109252857D01*
X100215714Y-109300476D01*
X100168095Y-109395714D01*
X100120476Y-109443333D01*
X100025238Y-109490952D01*
X99834761Y-109490952D01*
X99739523Y-109538571D01*
X99691904Y-109586190D01*
X99644285Y-109681428D01*
X99644285Y-109871904D01*
X99691904Y-109967142D01*
X99739523Y-110014761D01*
X99834761Y-110062380D01*
X100025238Y-110062380D01*
X100120476Y-110014761D01*
X100168095Y-109967142D01*
X100215714Y-109871904D01*
X100215714Y-109681428D01*
X100168095Y-109586190D01*
X100120476Y-109538571D01*
X100025238Y-109490952D01*
%TO.C,SW7*%
X85709761Y-112290833D02*
X85757380Y-112147976D01*
X85757380Y-111909880D01*
X85709761Y-111814642D01*
X85662142Y-111767023D01*
X85566904Y-111719404D01*
X85471666Y-111719404D01*
X85376428Y-111767023D01*
X85328809Y-111814642D01*
X85281190Y-111909880D01*
X85233571Y-112100357D01*
X85185952Y-112195595D01*
X85138333Y-112243214D01*
X85043095Y-112290833D01*
X84947857Y-112290833D01*
X84852619Y-112243214D01*
X84805000Y-112195595D01*
X84757380Y-112100357D01*
X84757380Y-111862261D01*
X84805000Y-111719404D01*
X84757380Y-111386071D02*
X85757380Y-111147976D01*
X85043095Y-110957500D01*
X85757380Y-110767023D01*
X84757380Y-110528928D01*
X84757380Y-110243214D02*
X84757380Y-109576547D01*
X85757380Y-110005119D01*
%TO.C,R41*%
X132882380Y-109642857D02*
X132406190Y-109976190D01*
X132882380Y-110214285D02*
X131882380Y-110214285D01*
X131882380Y-109833333D01*
X131930000Y-109738095D01*
X131977619Y-109690476D01*
X132072857Y-109642857D01*
X132215714Y-109642857D01*
X132310952Y-109690476D01*
X132358571Y-109738095D01*
X132406190Y-109833333D01*
X132406190Y-110214285D01*
X132215714Y-108785714D02*
X132882380Y-108785714D01*
X131834761Y-109023809D02*
X132549047Y-109261904D01*
X132549047Y-108642857D01*
X132882380Y-107738095D02*
X132882380Y-108309523D01*
X132882380Y-108023809D02*
X131882380Y-108023809D01*
X132025238Y-108119047D01*
X132120476Y-108214285D01*
X132168095Y-108309523D01*
%TO.C,R15*%
X180522380Y-125642857D02*
X180046190Y-125976190D01*
X180522380Y-126214285D02*
X179522380Y-126214285D01*
X179522380Y-125833333D01*
X179570000Y-125738095D01*
X179617619Y-125690476D01*
X179712857Y-125642857D01*
X179855714Y-125642857D01*
X179950952Y-125690476D01*
X179998571Y-125738095D01*
X180046190Y-125833333D01*
X180046190Y-126214285D01*
X180522380Y-124690476D02*
X180522380Y-125261904D01*
X180522380Y-124976190D02*
X179522380Y-124976190D01*
X179665238Y-125071428D01*
X179760476Y-125166666D01*
X179808095Y-125261904D01*
X179522380Y-123785714D02*
X179522380Y-124261904D01*
X179998571Y-124309523D01*
X179950952Y-124261904D01*
X179903333Y-124166666D01*
X179903333Y-123928571D01*
X179950952Y-123833333D01*
X179998571Y-123785714D01*
X180093809Y-123738095D01*
X180331904Y-123738095D01*
X180427142Y-123785714D01*
X180474761Y-123833333D01*
X180522380Y-123928571D01*
X180522380Y-124166666D01*
X180474761Y-124261904D01*
X180427142Y-124309523D01*
%TO.C,R34*%
X201357142Y-101452380D02*
X201023809Y-100976190D01*
X200785714Y-101452380D02*
X200785714Y-100452380D01*
X201166666Y-100452380D01*
X201261904Y-100500000D01*
X201309523Y-100547619D01*
X201357142Y-100642857D01*
X201357142Y-100785714D01*
X201309523Y-100880952D01*
X201261904Y-100928571D01*
X201166666Y-100976190D01*
X200785714Y-100976190D01*
X201690476Y-100452380D02*
X202309523Y-100452380D01*
X201976190Y-100833333D01*
X202119047Y-100833333D01*
X202214285Y-100880952D01*
X202261904Y-100928571D01*
X202309523Y-101023809D01*
X202309523Y-101261904D01*
X202261904Y-101357142D01*
X202214285Y-101404761D01*
X202119047Y-101452380D01*
X201833333Y-101452380D01*
X201738095Y-101404761D01*
X201690476Y-101357142D01*
X203166666Y-100785714D02*
X203166666Y-101452380D01*
X202928571Y-100404761D02*
X202690476Y-101119047D01*
X203309523Y-101119047D01*
%TO.C,D9*%
X114382380Y-82738095D02*
X113382380Y-82738095D01*
X113382380Y-82500000D01*
X113430000Y-82357142D01*
X113525238Y-82261904D01*
X113620476Y-82214285D01*
X113810952Y-82166666D01*
X113953809Y-82166666D01*
X114144285Y-82214285D01*
X114239523Y-82261904D01*
X114334761Y-82357142D01*
X114382380Y-82500000D01*
X114382380Y-82738095D01*
X114382380Y-81690476D02*
X114382380Y-81500000D01*
X114334761Y-81404761D01*
X114287142Y-81357142D01*
X114144285Y-81261904D01*
X113953809Y-81214285D01*
X113572857Y-81214285D01*
X113477619Y-81261904D01*
X113430000Y-81309523D01*
X113382380Y-81404761D01*
X113382380Y-81595238D01*
X113430000Y-81690476D01*
X113477619Y-81738095D01*
X113572857Y-81785714D01*
X113810952Y-81785714D01*
X113906190Y-81738095D01*
X113953809Y-81690476D01*
X114001428Y-81595238D01*
X114001428Y-81404761D01*
X113953809Y-81309523D01*
X113906190Y-81261904D01*
X113810952Y-81214285D01*
%TO.C,D7*%
X96022380Y-82738095D02*
X95022380Y-82738095D01*
X95022380Y-82500000D01*
X95070000Y-82357142D01*
X95165238Y-82261904D01*
X95260476Y-82214285D01*
X95450952Y-82166666D01*
X95593809Y-82166666D01*
X95784285Y-82214285D01*
X95879523Y-82261904D01*
X95974761Y-82357142D01*
X96022380Y-82500000D01*
X96022380Y-82738095D01*
X95022380Y-81833333D02*
X95022380Y-81166666D01*
X96022380Y-81595238D01*
%TO.C,Q1*%
X187904761Y-76047619D02*
X187809523Y-76000000D01*
X187714285Y-75904761D01*
X187571428Y-75761904D01*
X187476190Y-75714285D01*
X187380952Y-75714285D01*
X187428571Y-75952380D02*
X187333333Y-75904761D01*
X187238095Y-75809523D01*
X187190476Y-75619047D01*
X187190476Y-75285714D01*
X187238095Y-75095238D01*
X187333333Y-75000000D01*
X187428571Y-74952380D01*
X187619047Y-74952380D01*
X187714285Y-75000000D01*
X187809523Y-75095238D01*
X187857142Y-75285714D01*
X187857142Y-75619047D01*
X187809523Y-75809523D01*
X187714285Y-75904761D01*
X187619047Y-75952380D01*
X187428571Y-75952380D01*
X188809523Y-75952380D02*
X188238095Y-75952380D01*
X188523809Y-75952380D02*
X188523809Y-74952380D01*
X188428571Y-75095238D01*
X188333333Y-75190476D01*
X188238095Y-75238095D01*
%TO.C,J9*%
X149666666Y-122552380D02*
X149666666Y-123266666D01*
X149619047Y-123409523D01*
X149523809Y-123504761D01*
X149380952Y-123552380D01*
X149285714Y-123552380D01*
X150190476Y-123552380D02*
X150380952Y-123552380D01*
X150476190Y-123504761D01*
X150523809Y-123457142D01*
X150619047Y-123314285D01*
X150666666Y-123123809D01*
X150666666Y-122742857D01*
X150619047Y-122647619D01*
X150571428Y-122600000D01*
X150476190Y-122552380D01*
X150285714Y-122552380D01*
X150190476Y-122600000D01*
X150142857Y-122647619D01*
X150095238Y-122742857D01*
X150095238Y-122980952D01*
X150142857Y-123076190D01*
X150190476Y-123123809D01*
X150285714Y-123171428D01*
X150476190Y-123171428D01*
X150571428Y-123123809D01*
X150619047Y-123076190D01*
X150666666Y-122980952D01*
%TO.C,R8*%
X122833333Y-92452380D02*
X122500000Y-91976190D01*
X122261904Y-92452380D02*
X122261904Y-91452380D01*
X122642857Y-91452380D01*
X122738095Y-91500000D01*
X122785714Y-91547619D01*
X122833333Y-91642857D01*
X122833333Y-91785714D01*
X122785714Y-91880952D01*
X122738095Y-91928571D01*
X122642857Y-91976190D01*
X122261904Y-91976190D01*
X123404761Y-91880952D02*
X123309523Y-91833333D01*
X123261904Y-91785714D01*
X123214285Y-91690476D01*
X123214285Y-91642857D01*
X123261904Y-91547619D01*
X123309523Y-91500000D01*
X123404761Y-91452380D01*
X123595238Y-91452380D01*
X123690476Y-91500000D01*
X123738095Y-91547619D01*
X123785714Y-91642857D01*
X123785714Y-91690476D01*
X123738095Y-91785714D01*
X123690476Y-91833333D01*
X123595238Y-91880952D01*
X123404761Y-91880952D01*
X123309523Y-91928571D01*
X123261904Y-91976190D01*
X123214285Y-92071428D01*
X123214285Y-92261904D01*
X123261904Y-92357142D01*
X123309523Y-92404761D01*
X123404761Y-92452380D01*
X123595238Y-92452380D01*
X123690476Y-92404761D01*
X123738095Y-92357142D01*
X123785714Y-92261904D01*
X123785714Y-92071428D01*
X123738095Y-91976190D01*
X123690476Y-91928571D01*
X123595238Y-91880952D01*
%TO.C,J15*%
X159440476Y-133902380D02*
X159440476Y-134616666D01*
X159392857Y-134759523D01*
X159297619Y-134854761D01*
X159154761Y-134902380D01*
X159059523Y-134902380D01*
X160440476Y-134902380D02*
X159869047Y-134902380D01*
X160154761Y-134902380D02*
X160154761Y-133902380D01*
X160059523Y-134045238D01*
X159964285Y-134140476D01*
X159869047Y-134188095D01*
X161345238Y-133902380D02*
X160869047Y-133902380D01*
X160821428Y-134378571D01*
X160869047Y-134330952D01*
X160964285Y-134283333D01*
X161202380Y-134283333D01*
X161297619Y-134330952D01*
X161345238Y-134378571D01*
X161392857Y-134473809D01*
X161392857Y-134711904D01*
X161345238Y-134807142D01*
X161297619Y-134854761D01*
X161202380Y-134902380D01*
X160964285Y-134902380D01*
X160869047Y-134854761D01*
X160821428Y-134807142D01*
D11*
%TO.C,RV5*%
X79244047Y-104224523D02*
X78820714Y-103619761D01*
X78518333Y-104224523D02*
X78518333Y-102954523D01*
X79002142Y-102954523D01*
X79123095Y-103015000D01*
X79183571Y-103075476D01*
X79244047Y-103196428D01*
X79244047Y-103377857D01*
X79183571Y-103498809D01*
X79123095Y-103559285D01*
X79002142Y-103619761D01*
X78518333Y-103619761D01*
X79606904Y-102954523D02*
X80030238Y-104224523D01*
X80453571Y-102954523D01*
X81481666Y-102954523D02*
X80876904Y-102954523D01*
X80816428Y-103559285D01*
X80876904Y-103498809D01*
X80997857Y-103438333D01*
X81300238Y-103438333D01*
X81421190Y-103498809D01*
X81481666Y-103559285D01*
X81542142Y-103680238D01*
X81542142Y-103982619D01*
X81481666Y-104103571D01*
X81421190Y-104164047D01*
X81300238Y-104224523D01*
X80997857Y-104224523D01*
X80876904Y-104164047D01*
X80816428Y-104103571D01*
D10*
%TO.C,R39*%
X126357142Y-111882380D02*
X126023809Y-111406190D01*
X125785714Y-111882380D02*
X125785714Y-110882380D01*
X126166666Y-110882380D01*
X126261904Y-110930000D01*
X126309523Y-110977619D01*
X126357142Y-111072857D01*
X126357142Y-111215714D01*
X126309523Y-111310952D01*
X126261904Y-111358571D01*
X126166666Y-111406190D01*
X125785714Y-111406190D01*
X126690476Y-110882380D02*
X127309523Y-110882380D01*
X126976190Y-111263333D01*
X127119047Y-111263333D01*
X127214285Y-111310952D01*
X127261904Y-111358571D01*
X127309523Y-111453809D01*
X127309523Y-111691904D01*
X127261904Y-111787142D01*
X127214285Y-111834761D01*
X127119047Y-111882380D01*
X126833333Y-111882380D01*
X126738095Y-111834761D01*
X126690476Y-111787142D01*
X127785714Y-111882380D02*
X127976190Y-111882380D01*
X128071428Y-111834761D01*
X128119047Y-111787142D01*
X128214285Y-111644285D01*
X128261904Y-111453809D01*
X128261904Y-111072857D01*
X128214285Y-110977619D01*
X128166666Y-110930000D01*
X128071428Y-110882380D01*
X127880952Y-110882380D01*
X127785714Y-110930000D01*
X127738095Y-110977619D01*
X127690476Y-111072857D01*
X127690476Y-111310952D01*
X127738095Y-111406190D01*
X127785714Y-111453809D01*
X127880952Y-111501428D01*
X128071428Y-111501428D01*
X128166666Y-111453809D01*
X128214285Y-111406190D01*
X128261904Y-111310952D01*
%TO.C,R43*%
X71357142Y-99882380D02*
X71023809Y-99406190D01*
X70785714Y-99882380D02*
X70785714Y-98882380D01*
X71166666Y-98882380D01*
X71261904Y-98930000D01*
X71309523Y-98977619D01*
X71357142Y-99072857D01*
X71357142Y-99215714D01*
X71309523Y-99310952D01*
X71261904Y-99358571D01*
X71166666Y-99406190D01*
X70785714Y-99406190D01*
X72214285Y-99215714D02*
X72214285Y-99882380D01*
X71976190Y-98834761D02*
X71738095Y-99549047D01*
X72357142Y-99549047D01*
X72642857Y-98882380D02*
X73261904Y-98882380D01*
X72928571Y-99263333D01*
X73071428Y-99263333D01*
X73166666Y-99310952D01*
X73214285Y-99358571D01*
X73261904Y-99453809D01*
X73261904Y-99691904D01*
X73214285Y-99787142D01*
X73166666Y-99834761D01*
X73071428Y-99882380D01*
X72785714Y-99882380D01*
X72690476Y-99834761D01*
X72642857Y-99787142D01*
D11*
%TO.C,J23*%
X124721904Y-52198523D02*
X124721904Y-53105666D01*
X124661428Y-53287095D01*
X124540476Y-53408047D01*
X124359047Y-53468523D01*
X124238095Y-53468523D01*
X125266190Y-52319476D02*
X125326666Y-52259000D01*
X125447619Y-52198523D01*
X125750000Y-52198523D01*
X125870952Y-52259000D01*
X125931428Y-52319476D01*
X125991904Y-52440428D01*
X125991904Y-52561380D01*
X125931428Y-52742809D01*
X125205714Y-53468523D01*
X125991904Y-53468523D01*
X126415238Y-52198523D02*
X127201428Y-52198523D01*
X126778095Y-52682333D01*
X126959523Y-52682333D01*
X127080476Y-52742809D01*
X127140952Y-52803285D01*
X127201428Y-52924238D01*
X127201428Y-53226619D01*
X127140952Y-53347571D01*
X127080476Y-53408047D01*
X126959523Y-53468523D01*
X126596666Y-53468523D01*
X126475714Y-53408047D01*
X126415238Y-53347571D01*
X120065238Y-62072523D02*
X120065238Y-60802523D01*
X121395714Y-61951571D02*
X121335238Y-62012047D01*
X121153809Y-62072523D01*
X121032857Y-62072523D01*
X120851428Y-62012047D01*
X120730476Y-61891095D01*
X120670000Y-61770142D01*
X120609523Y-61528238D01*
X120609523Y-61346809D01*
X120670000Y-61104904D01*
X120730476Y-60983952D01*
X120851428Y-60863000D01*
X121032857Y-60802523D01*
X121153809Y-60802523D01*
X121335238Y-60863000D01*
X121395714Y-60923476D01*
X121879523Y-62012047D02*
X122060952Y-62072523D01*
X122363333Y-62072523D01*
X122484285Y-62012047D01*
X122544761Y-61951571D01*
X122605238Y-61830619D01*
X122605238Y-61709666D01*
X122544761Y-61588714D01*
X122484285Y-61528238D01*
X122363333Y-61467761D01*
X122121428Y-61407285D01*
X122000476Y-61346809D01*
X121940000Y-61286333D01*
X121879523Y-61165380D01*
X121879523Y-61044428D01*
X121940000Y-60923476D01*
X122000476Y-60863000D01*
X122121428Y-60802523D01*
X122423809Y-60802523D01*
X122605238Y-60863000D01*
X123149523Y-62072523D02*
X123149523Y-60802523D01*
X123633333Y-60802523D01*
X123754285Y-60863000D01*
X123814761Y-60923476D01*
X123875238Y-61044428D01*
X123875238Y-61225857D01*
X123814761Y-61346809D01*
X123754285Y-61407285D01*
X123633333Y-61467761D01*
X123149523Y-61467761D01*
D10*
%TO.C,R13*%
X126357142Y-74022380D02*
X126023809Y-73546190D01*
X125785714Y-74022380D02*
X125785714Y-73022380D01*
X126166666Y-73022380D01*
X126261904Y-73070000D01*
X126309523Y-73117619D01*
X126357142Y-73212857D01*
X126357142Y-73355714D01*
X126309523Y-73450952D01*
X126261904Y-73498571D01*
X126166666Y-73546190D01*
X125785714Y-73546190D01*
X127309523Y-74022380D02*
X126738095Y-74022380D01*
X127023809Y-74022380D02*
X127023809Y-73022380D01*
X126928571Y-73165238D01*
X126833333Y-73260476D01*
X126738095Y-73308095D01*
X127642857Y-73022380D02*
X128261904Y-73022380D01*
X127928571Y-73403333D01*
X128071428Y-73403333D01*
X128166666Y-73450952D01*
X128214285Y-73498571D01*
X128261904Y-73593809D01*
X128261904Y-73831904D01*
X128214285Y-73927142D01*
X128166666Y-73974761D01*
X128071428Y-74022380D01*
X127785714Y-74022380D01*
X127690476Y-73974761D01*
X127642857Y-73927142D01*
D11*
%TO.C,RV4*%
X89244047Y-94224523D02*
X88820714Y-93619761D01*
X88518333Y-94224523D02*
X88518333Y-92954523D01*
X89002142Y-92954523D01*
X89123095Y-93015000D01*
X89183571Y-93075476D01*
X89244047Y-93196428D01*
X89244047Y-93377857D01*
X89183571Y-93498809D01*
X89123095Y-93559285D01*
X89002142Y-93619761D01*
X88518333Y-93619761D01*
X89606904Y-92954523D02*
X90030238Y-94224523D01*
X90453571Y-92954523D01*
X91421190Y-93377857D02*
X91421190Y-94224523D01*
X91118809Y-92894047D02*
X90816428Y-93801190D01*
X91602619Y-93801190D01*
D10*
%TO.C,R11*%
X182357142Y-113532380D02*
X182023809Y-113056190D01*
X181785714Y-113532380D02*
X181785714Y-112532380D01*
X182166666Y-112532380D01*
X182261904Y-112580000D01*
X182309523Y-112627619D01*
X182357142Y-112722857D01*
X182357142Y-112865714D01*
X182309523Y-112960952D01*
X182261904Y-113008571D01*
X182166666Y-113056190D01*
X181785714Y-113056190D01*
X183309523Y-113532380D02*
X182738095Y-113532380D01*
X183023809Y-113532380D02*
X183023809Y-112532380D01*
X182928571Y-112675238D01*
X182833333Y-112770476D01*
X182738095Y-112818095D01*
X184261904Y-113532380D02*
X183690476Y-113532380D01*
X183976190Y-113532380D02*
X183976190Y-112532380D01*
X183880952Y-112675238D01*
X183785714Y-112770476D01*
X183690476Y-112818095D01*
%TO.C,SW4*%
X213666666Y-115024761D02*
X213809523Y-115072380D01*
X214047619Y-115072380D01*
X214142857Y-115024761D01*
X214190476Y-114977142D01*
X214238095Y-114881904D01*
X214238095Y-114786666D01*
X214190476Y-114691428D01*
X214142857Y-114643809D01*
X214047619Y-114596190D01*
X213857142Y-114548571D01*
X213761904Y-114500952D01*
X213714285Y-114453333D01*
X213666666Y-114358095D01*
X213666666Y-114262857D01*
X213714285Y-114167619D01*
X213761904Y-114120000D01*
X213857142Y-114072380D01*
X214095238Y-114072380D01*
X214238095Y-114120000D01*
X214571428Y-114072380D02*
X214809523Y-115072380D01*
X215000000Y-114358095D01*
X215190476Y-115072380D01*
X215428571Y-114072380D01*
X216238095Y-114405714D02*
X216238095Y-115072380D01*
X216000000Y-114024761D02*
X215761904Y-114739047D01*
X216380952Y-114739047D01*
D11*
%TO.C,J21*%
X140781238Y-89235204D02*
X141422685Y-89876651D01*
X141508212Y-90047703D01*
X141508212Y-90218756D01*
X141422685Y-90389808D01*
X141337159Y-90475334D01*
X141251633Y-88935862D02*
X141251633Y-88850336D01*
X141294396Y-88722046D01*
X141508212Y-88508231D01*
X141636501Y-88465467D01*
X141722027Y-88465467D01*
X141850317Y-88508231D01*
X141935843Y-88593757D01*
X142021369Y-88764809D01*
X142021369Y-89791124D01*
X142577290Y-89235204D01*
X143432552Y-88379941D02*
X142919395Y-88893099D01*
X143175973Y-88636520D02*
X142277948Y-87738494D01*
X142320711Y-87952310D01*
X142320711Y-88123362D01*
X142277948Y-88251652D01*
X134684667Y-92248790D02*
X133786642Y-91350764D01*
X134727430Y-91692869D01*
X134385325Y-90752081D01*
X135283351Y-91650106D01*
X135710982Y-91222475D02*
X134812957Y-90324450D01*
X135026772Y-90110634D01*
X135197825Y-90025108D01*
X135368877Y-90025108D01*
X135497167Y-90067871D01*
X135710982Y-90196160D01*
X135839272Y-90324450D01*
X135967561Y-90538265D01*
X136010324Y-90666555D01*
X136010324Y-90837607D01*
X135924798Y-91008659D01*
X135710982Y-91222475D01*
X136395192Y-89340898D02*
X136993876Y-89939581D01*
X135839272Y-89212608D02*
X136266903Y-90067871D01*
X136822823Y-89511950D01*
D10*
%TO.C,Q2*%
X181904761Y-74047619D02*
X181809523Y-74000000D01*
X181714285Y-73904761D01*
X181571428Y-73761904D01*
X181476190Y-73714285D01*
X181380952Y-73714285D01*
X181428571Y-73952380D02*
X181333333Y-73904761D01*
X181238095Y-73809523D01*
X181190476Y-73619047D01*
X181190476Y-73285714D01*
X181238095Y-73095238D01*
X181333333Y-73000000D01*
X181428571Y-72952380D01*
X181619047Y-72952380D01*
X181714285Y-73000000D01*
X181809523Y-73095238D01*
X181857142Y-73285714D01*
X181857142Y-73619047D01*
X181809523Y-73809523D01*
X181714285Y-73904761D01*
X181619047Y-73952380D01*
X181428571Y-73952380D01*
X182238095Y-73047619D02*
X182285714Y-73000000D01*
X182380952Y-72952380D01*
X182619047Y-72952380D01*
X182714285Y-73000000D01*
X182761904Y-73047619D01*
X182809523Y-73142857D01*
X182809523Y-73238095D01*
X182761904Y-73380952D01*
X182190476Y-73952380D01*
X182809523Y-73952380D01*
%TO.C,JP1*%
X84166666Y-85147380D02*
X84166666Y-85861666D01*
X84119047Y-86004523D01*
X84023809Y-86099761D01*
X83880952Y-86147380D01*
X83785714Y-86147380D01*
X84642857Y-86147380D02*
X84642857Y-85147380D01*
X85023809Y-85147380D01*
X85119047Y-85195000D01*
X85166666Y-85242619D01*
X85214285Y-85337857D01*
X85214285Y-85480714D01*
X85166666Y-85575952D01*
X85119047Y-85623571D01*
X85023809Y-85671190D01*
X84642857Y-85671190D01*
X86166666Y-86147380D02*
X85595238Y-86147380D01*
X85880952Y-86147380D02*
X85880952Y-85147380D01*
X85785714Y-85290238D01*
X85690476Y-85385476D01*
X85595238Y-85433095D01*
%TO.C,R36*%
X229444642Y-120382380D02*
X229111309Y-119906190D01*
X228873214Y-120382380D02*
X228873214Y-119382380D01*
X229254166Y-119382380D01*
X229349404Y-119430000D01*
X229397023Y-119477619D01*
X229444642Y-119572857D01*
X229444642Y-119715714D01*
X229397023Y-119810952D01*
X229349404Y-119858571D01*
X229254166Y-119906190D01*
X228873214Y-119906190D01*
X229777976Y-119382380D02*
X230397023Y-119382380D01*
X230063690Y-119763333D01*
X230206547Y-119763333D01*
X230301785Y-119810952D01*
X230349404Y-119858571D01*
X230397023Y-119953809D01*
X230397023Y-120191904D01*
X230349404Y-120287142D01*
X230301785Y-120334761D01*
X230206547Y-120382380D01*
X229920833Y-120382380D01*
X229825595Y-120334761D01*
X229777976Y-120287142D01*
X231254166Y-119382380D02*
X231063690Y-119382380D01*
X230968452Y-119430000D01*
X230920833Y-119477619D01*
X230825595Y-119620476D01*
X230777976Y-119810952D01*
X230777976Y-120191904D01*
X230825595Y-120287142D01*
X230873214Y-120334761D01*
X230968452Y-120382380D01*
X231158928Y-120382380D01*
X231254166Y-120334761D01*
X231301785Y-120287142D01*
X231349404Y-120191904D01*
X231349404Y-119953809D01*
X231301785Y-119858571D01*
X231254166Y-119810952D01*
X231158928Y-119763333D01*
X230968452Y-119763333D01*
X230873214Y-119810952D01*
X230825595Y-119858571D01*
X230777976Y-119953809D01*
%TO.C,D18*%
X124022380Y-104301785D02*
X123022380Y-104301785D01*
X123022380Y-104063690D01*
X123070000Y-103920833D01*
X123165238Y-103825595D01*
X123260476Y-103777976D01*
X123450952Y-103730357D01*
X123593809Y-103730357D01*
X123784285Y-103777976D01*
X123879523Y-103825595D01*
X123974761Y-103920833D01*
X124022380Y-104063690D01*
X124022380Y-104301785D01*
X124022380Y-102777976D02*
X124022380Y-103349404D01*
X124022380Y-103063690D02*
X123022380Y-103063690D01*
X123165238Y-103158928D01*
X123260476Y-103254166D01*
X123308095Y-103349404D01*
X123450952Y-102206547D02*
X123403333Y-102301785D01*
X123355714Y-102349404D01*
X123260476Y-102397023D01*
X123212857Y-102397023D01*
X123117619Y-102349404D01*
X123070000Y-102301785D01*
X123022380Y-102206547D01*
X123022380Y-102016071D01*
X123070000Y-101920833D01*
X123117619Y-101873214D01*
X123212857Y-101825595D01*
X123260476Y-101825595D01*
X123355714Y-101873214D01*
X123403333Y-101920833D01*
X123450952Y-102016071D01*
X123450952Y-102206547D01*
X123498571Y-102301785D01*
X123546190Y-102349404D01*
X123641428Y-102397023D01*
X123831904Y-102397023D01*
X123927142Y-102349404D01*
X123974761Y-102301785D01*
X124022380Y-102206547D01*
X124022380Y-102016071D01*
X123974761Y-101920833D01*
X123927142Y-101873214D01*
X123831904Y-101825595D01*
X123641428Y-101825595D01*
X123546190Y-101873214D01*
X123498571Y-101920833D01*
X123450952Y-102016071D01*
%TO.C,R21*%
X102357142Y-111022380D02*
X102023809Y-110546190D01*
X101785714Y-111022380D02*
X101785714Y-110022380D01*
X102166666Y-110022380D01*
X102261904Y-110070000D01*
X102309523Y-110117619D01*
X102357142Y-110212857D01*
X102357142Y-110355714D01*
X102309523Y-110450952D01*
X102261904Y-110498571D01*
X102166666Y-110546190D01*
X101785714Y-110546190D01*
X102738095Y-110117619D02*
X102785714Y-110070000D01*
X102880952Y-110022380D01*
X103119047Y-110022380D01*
X103214285Y-110070000D01*
X103261904Y-110117619D01*
X103309523Y-110212857D01*
X103309523Y-110308095D01*
X103261904Y-110450952D01*
X102690476Y-111022380D01*
X103309523Y-111022380D01*
X104261904Y-111022380D02*
X103690476Y-111022380D01*
X103976190Y-111022380D02*
X103976190Y-110022380D01*
X103880952Y-110165238D01*
X103785714Y-110260476D01*
X103690476Y-110308095D01*
D11*
%TO.C,J16*%
X155746904Y-74289523D02*
X155746904Y-75196666D01*
X155686428Y-75378095D01*
X155565476Y-75499047D01*
X155384047Y-75559523D01*
X155263095Y-75559523D01*
X157016904Y-75559523D02*
X156291190Y-75559523D01*
X156654047Y-75559523D02*
X156654047Y-74289523D01*
X156533095Y-74470952D01*
X156412142Y-74591904D01*
X156291190Y-74652380D01*
X158105476Y-74289523D02*
X157863571Y-74289523D01*
X157742619Y-74350000D01*
X157682142Y-74410476D01*
X157561190Y-74591904D01*
X157500714Y-74833809D01*
X157500714Y-75317619D01*
X157561190Y-75438571D01*
X157621666Y-75499047D01*
X157742619Y-75559523D01*
X157984523Y-75559523D01*
X158105476Y-75499047D01*
X158165952Y-75438571D01*
X158226428Y-75317619D01*
X158226428Y-75015238D01*
X158165952Y-74894285D01*
X158105476Y-74833809D01*
X157984523Y-74773333D01*
X157742619Y-74773333D01*
X157621666Y-74833809D01*
X157561190Y-74894285D01*
X157500714Y-75015238D01*
X159181952Y-82290523D02*
X158577190Y-82290523D01*
X158577190Y-81020523D01*
X159605285Y-82290523D02*
X159605285Y-81020523D01*
X160210047Y-82290523D02*
X160210047Y-81020523D01*
X160935761Y-82290523D01*
X160935761Y-81020523D01*
X161540523Y-81625285D02*
X161963857Y-81625285D01*
X162145285Y-82290523D02*
X161540523Y-82290523D01*
X161540523Y-81020523D01*
X162145285Y-81020523D01*
D10*
%TO.C,R22*%
X97022380Y-90642857D02*
X96546190Y-90976190D01*
X97022380Y-91214285D02*
X96022380Y-91214285D01*
X96022380Y-90833333D01*
X96070000Y-90738095D01*
X96117619Y-90690476D01*
X96212857Y-90642857D01*
X96355714Y-90642857D01*
X96450952Y-90690476D01*
X96498571Y-90738095D01*
X96546190Y-90833333D01*
X96546190Y-91214285D01*
X96117619Y-90261904D02*
X96070000Y-90214285D01*
X96022380Y-90119047D01*
X96022380Y-89880952D01*
X96070000Y-89785714D01*
X96117619Y-89738095D01*
X96212857Y-89690476D01*
X96308095Y-89690476D01*
X96450952Y-89738095D01*
X97022380Y-90309523D01*
X97022380Y-89690476D01*
X96117619Y-89309523D02*
X96070000Y-89261904D01*
X96022380Y-89166666D01*
X96022380Y-88928571D01*
X96070000Y-88833333D01*
X96117619Y-88785714D01*
X96212857Y-88738095D01*
X96308095Y-88738095D01*
X96450952Y-88785714D01*
X97022380Y-89357142D01*
X97022380Y-88738095D01*
%TO.C,R19*%
X103444642Y-91197380D02*
X103111309Y-90721190D01*
X102873214Y-91197380D02*
X102873214Y-90197380D01*
X103254166Y-90197380D01*
X103349404Y-90245000D01*
X103397023Y-90292619D01*
X103444642Y-90387857D01*
X103444642Y-90530714D01*
X103397023Y-90625952D01*
X103349404Y-90673571D01*
X103254166Y-90721190D01*
X102873214Y-90721190D01*
X104397023Y-91197380D02*
X103825595Y-91197380D01*
X104111309Y-91197380D02*
X104111309Y-90197380D01*
X104016071Y-90340238D01*
X103920833Y-90435476D01*
X103825595Y-90483095D01*
X104873214Y-91197380D02*
X105063690Y-91197380D01*
X105158928Y-91149761D01*
X105206547Y-91102142D01*
X105301785Y-90959285D01*
X105349404Y-90768809D01*
X105349404Y-90387857D01*
X105301785Y-90292619D01*
X105254166Y-90245000D01*
X105158928Y-90197380D01*
X104968452Y-90197380D01*
X104873214Y-90245000D01*
X104825595Y-90292619D01*
X104777976Y-90387857D01*
X104777976Y-90625952D01*
X104825595Y-90721190D01*
X104873214Y-90768809D01*
X104968452Y-90816428D01*
X105158928Y-90816428D01*
X105254166Y-90768809D01*
X105301785Y-90721190D01*
X105349404Y-90625952D01*
D11*
%TO.C,J6*%
X173576666Y-135304523D02*
X173576666Y-136211666D01*
X173516190Y-136393095D01*
X173395238Y-136514047D01*
X173213809Y-136574523D01*
X173092857Y-136574523D01*
X174725714Y-135304523D02*
X174483809Y-135304523D01*
X174362857Y-135365000D01*
X174302380Y-135425476D01*
X174181428Y-135606904D01*
X174120952Y-135848809D01*
X174120952Y-136332619D01*
X174181428Y-136453571D01*
X174241904Y-136514047D01*
X174362857Y-136574523D01*
X174604761Y-136574523D01*
X174725714Y-136514047D01*
X174786190Y-136453571D01*
X174846666Y-136332619D01*
X174846666Y-136030238D01*
X174786190Y-135909285D01*
X174725714Y-135848809D01*
X174604761Y-135788333D01*
X174362857Y-135788333D01*
X174241904Y-135848809D01*
X174181428Y-135909285D01*
X174120952Y-136030238D01*
X167591666Y-142514047D02*
X167773095Y-142574523D01*
X168075476Y-142574523D01*
X168196428Y-142514047D01*
X168256904Y-142453571D01*
X168317380Y-142332619D01*
X168317380Y-142211666D01*
X168256904Y-142090714D01*
X168196428Y-142030238D01*
X168075476Y-141969761D01*
X167833571Y-141909285D01*
X167712619Y-141848809D01*
X167652142Y-141788333D01*
X167591666Y-141667380D01*
X167591666Y-141546428D01*
X167652142Y-141425476D01*
X167712619Y-141365000D01*
X167833571Y-141304523D01*
X168135952Y-141304523D01*
X168317380Y-141365000D01*
X169345476Y-142514047D02*
X169224523Y-142574523D01*
X168982619Y-142574523D01*
X168861666Y-142514047D01*
X168801190Y-142393095D01*
X168801190Y-141909285D01*
X168861666Y-141788333D01*
X168982619Y-141727857D01*
X169224523Y-141727857D01*
X169345476Y-141788333D01*
X169405952Y-141909285D01*
X169405952Y-142030238D01*
X168801190Y-142151190D01*
X169950238Y-142574523D02*
X169950238Y-141727857D01*
X169950238Y-141969761D02*
X170010714Y-141848809D01*
X170071190Y-141788333D01*
X170192142Y-141727857D01*
X170313095Y-141727857D01*
X170736428Y-142574523D02*
X170736428Y-141727857D01*
X170736428Y-141304523D02*
X170675952Y-141365000D01*
X170736428Y-141425476D01*
X170796904Y-141365000D01*
X170736428Y-141304523D01*
X170736428Y-141425476D01*
X171885476Y-142574523D02*
X171885476Y-141909285D01*
X171825000Y-141788333D01*
X171704047Y-141727857D01*
X171462142Y-141727857D01*
X171341190Y-141788333D01*
X171885476Y-142514047D02*
X171764523Y-142574523D01*
X171462142Y-142574523D01*
X171341190Y-142514047D01*
X171280714Y-142393095D01*
X171280714Y-142272142D01*
X171341190Y-142151190D01*
X171462142Y-142090714D01*
X171764523Y-142090714D01*
X171885476Y-142030238D01*
X172671666Y-142574523D02*
X172550714Y-142514047D01*
X172490238Y-142393095D01*
X172490238Y-141304523D01*
X173034523Y-141304523D02*
X173820714Y-141304523D01*
X173397380Y-141788333D01*
X173578809Y-141788333D01*
X173699761Y-141848809D01*
X173760238Y-141909285D01*
X173820714Y-142030238D01*
X173820714Y-142332619D01*
X173760238Y-142453571D01*
X173699761Y-142514047D01*
X173578809Y-142574523D01*
X173215952Y-142574523D01*
X173095000Y-142514047D01*
X173034523Y-142453571D01*
X175272142Y-141244047D02*
X174183571Y-142876904D01*
X175937380Y-141304523D02*
X176179285Y-141304523D01*
X176300238Y-141365000D01*
X176421190Y-141485952D01*
X176481666Y-141727857D01*
X176481666Y-142151190D01*
X176421190Y-142393095D01*
X176300238Y-142514047D01*
X176179285Y-142574523D01*
X175937380Y-142574523D01*
X175816428Y-142514047D01*
X175695476Y-142393095D01*
X175635000Y-142151190D01*
X175635000Y-141727857D01*
X175695476Y-141485952D01*
X175816428Y-141365000D01*
X175937380Y-141304523D01*
X177025952Y-141727857D02*
X177025952Y-142997857D01*
X177025952Y-141788333D02*
X177146904Y-141727857D01*
X177388809Y-141727857D01*
X177509761Y-141788333D01*
X177570238Y-141848809D01*
X177630714Y-141969761D01*
X177630714Y-142332619D01*
X177570238Y-142453571D01*
X177509761Y-142514047D01*
X177388809Y-142574523D01*
X177146904Y-142574523D01*
X177025952Y-142514047D01*
X178658809Y-142514047D02*
X178537857Y-142574523D01*
X178295952Y-142574523D01*
X178175000Y-142514047D01*
X178114523Y-142393095D01*
X178114523Y-141909285D01*
X178175000Y-141788333D01*
X178295952Y-141727857D01*
X178537857Y-141727857D01*
X178658809Y-141788333D01*
X178719285Y-141909285D01*
X178719285Y-142030238D01*
X178114523Y-142151190D01*
X179263571Y-141727857D02*
X179263571Y-142574523D01*
X179263571Y-141848809D02*
X179324047Y-141788333D01*
X179445000Y-141727857D01*
X179626428Y-141727857D01*
X179747380Y-141788333D01*
X179807857Y-141909285D01*
X179807857Y-142574523D01*
X180412619Y-142574523D02*
X180412619Y-141304523D01*
X180835952Y-142211666D01*
X181259285Y-141304523D01*
X181259285Y-142574523D01*
X181682619Y-141304523D02*
X182105952Y-142574523D01*
X182529285Y-141304523D01*
%TO.C,RV3*%
X79244047Y-94224523D02*
X78820714Y-93619761D01*
X78518333Y-94224523D02*
X78518333Y-92954523D01*
X79002142Y-92954523D01*
X79123095Y-93015000D01*
X79183571Y-93075476D01*
X79244047Y-93196428D01*
X79244047Y-93377857D01*
X79183571Y-93498809D01*
X79123095Y-93559285D01*
X79002142Y-93619761D01*
X78518333Y-93619761D01*
X79606904Y-92954523D02*
X80030238Y-94224523D01*
X80453571Y-92954523D01*
X80755952Y-92954523D02*
X81542142Y-92954523D01*
X81118809Y-93438333D01*
X81300238Y-93438333D01*
X81421190Y-93498809D01*
X81481666Y-93559285D01*
X81542142Y-93680238D01*
X81542142Y-93982619D01*
X81481666Y-94103571D01*
X81421190Y-94164047D01*
X81300238Y-94224523D01*
X80937380Y-94224523D01*
X80816428Y-94164047D01*
X80755952Y-94103571D01*
%TO.C,J2*%
X107508666Y-119198523D02*
X107508666Y-120105666D01*
X107448190Y-120287095D01*
X107327238Y-120408047D01*
X107145809Y-120468523D01*
X107024857Y-120468523D01*
X108052952Y-119319476D02*
X108113428Y-119259000D01*
X108234380Y-119198523D01*
X108536761Y-119198523D01*
X108657714Y-119259000D01*
X108718190Y-119319476D01*
X108778666Y-119440428D01*
X108778666Y-119561380D01*
X108718190Y-119742809D01*
X107992476Y-120468523D01*
X108778666Y-120468523D01*
X107972857Y-126661666D02*
X108577619Y-126661666D01*
X107851904Y-127024523D02*
X108275238Y-125754523D01*
X108698571Y-127024523D01*
X109121904Y-125754523D02*
X109121904Y-126782619D01*
X109182380Y-126903571D01*
X109242857Y-126964047D01*
X109363809Y-127024523D01*
X109605714Y-127024523D01*
X109726666Y-126964047D01*
X109787142Y-126903571D01*
X109847619Y-126782619D01*
X109847619Y-125754523D01*
X110331428Y-125754523D02*
X111178095Y-127024523D01*
X111178095Y-125754523D02*
X110331428Y-127024523D01*
X112327142Y-127024523D02*
X111601428Y-127024523D01*
X111964285Y-127024523D02*
X111964285Y-125754523D01*
X111843333Y-125935952D01*
X111722380Y-126056904D01*
X111601428Y-126117380D01*
D10*
%TO.C,R30*%
X177022380Y-91642857D02*
X176546190Y-91976190D01*
X177022380Y-92214285D02*
X176022380Y-92214285D01*
X176022380Y-91833333D01*
X176070000Y-91738095D01*
X176117619Y-91690476D01*
X176212857Y-91642857D01*
X176355714Y-91642857D01*
X176450952Y-91690476D01*
X176498571Y-91738095D01*
X176546190Y-91833333D01*
X176546190Y-92214285D01*
X176022380Y-91309523D02*
X176022380Y-90690476D01*
X176403333Y-91023809D01*
X176403333Y-90880952D01*
X176450952Y-90785714D01*
X176498571Y-90738095D01*
X176593809Y-90690476D01*
X176831904Y-90690476D01*
X176927142Y-90738095D01*
X176974761Y-90785714D01*
X177022380Y-90880952D01*
X177022380Y-91166666D01*
X176974761Y-91261904D01*
X176927142Y-91309523D01*
X176022380Y-90071428D02*
X176022380Y-89976190D01*
X176070000Y-89880952D01*
X176117619Y-89833333D01*
X176212857Y-89785714D01*
X176403333Y-89738095D01*
X176641428Y-89738095D01*
X176831904Y-89785714D01*
X176927142Y-89833333D01*
X176974761Y-89880952D01*
X177022380Y-89976190D01*
X177022380Y-90071428D01*
X176974761Y-90166666D01*
X176927142Y-90214285D01*
X176831904Y-90261904D01*
X176641428Y-90309523D01*
X176403333Y-90309523D01*
X176212857Y-90261904D01*
X176117619Y-90214285D01*
X176070000Y-90166666D01*
X176022380Y-90071428D01*
%TO.C,C7*%
X101833333Y-90962142D02*
X101785714Y-91009761D01*
X101642857Y-91057380D01*
X101547619Y-91057380D01*
X101404761Y-91009761D01*
X101309523Y-90914523D01*
X101261904Y-90819285D01*
X101214285Y-90628809D01*
X101214285Y-90485952D01*
X101261904Y-90295476D01*
X101309523Y-90200238D01*
X101404761Y-90105000D01*
X101547619Y-90057380D01*
X101642857Y-90057380D01*
X101785714Y-90105000D01*
X101833333Y-90152619D01*
X102166666Y-90057380D02*
X102833333Y-90057380D01*
X102404761Y-91057380D01*
%TO.C,U11*%
X130585595Y-127301666D02*
X131061785Y-127301666D01*
X130490357Y-127587380D02*
X130823690Y-126587380D01*
X131157023Y-127587380D01*
X131490357Y-127063571D02*
X131823690Y-127063571D01*
X131966547Y-127587380D02*
X131490357Y-127587380D01*
X131490357Y-126587380D01*
X131966547Y-126587380D01*
X132395119Y-127206428D02*
X133157023Y-127206428D01*
X133966547Y-127063571D02*
X134109404Y-127111190D01*
X134157023Y-127158809D01*
X134204642Y-127254047D01*
X134204642Y-127396904D01*
X134157023Y-127492142D01*
X134109404Y-127539761D01*
X134014166Y-127587380D01*
X133633214Y-127587380D01*
X133633214Y-126587380D01*
X133966547Y-126587380D01*
X134061785Y-126635000D01*
X134109404Y-126682619D01*
X134157023Y-126777857D01*
X134157023Y-126873095D01*
X134109404Y-126968333D01*
X134061785Y-127015952D01*
X133966547Y-127063571D01*
X133633214Y-127063571D01*
X134633214Y-127587380D02*
X134633214Y-126587380D01*
X135204642Y-127587380D01*
X135204642Y-126587380D01*
X135871309Y-126587380D02*
X136061785Y-126587380D01*
X136157023Y-126635000D01*
X136252261Y-126730238D01*
X136299880Y-126920714D01*
X136299880Y-127254047D01*
X136252261Y-127444523D01*
X136157023Y-127539761D01*
X136061785Y-127587380D01*
X135871309Y-127587380D01*
X135776071Y-127539761D01*
X135680833Y-127444523D01*
X135633214Y-127254047D01*
X135633214Y-126920714D01*
X135680833Y-126730238D01*
X135776071Y-126635000D01*
X135871309Y-126587380D01*
X136918928Y-126587380D02*
X137014166Y-126587380D01*
X137109404Y-126635000D01*
X137157023Y-126682619D01*
X137204642Y-126777857D01*
X137252261Y-126968333D01*
X137252261Y-127206428D01*
X137204642Y-127396904D01*
X137157023Y-127492142D01*
X137109404Y-127539761D01*
X137014166Y-127587380D01*
X136918928Y-127587380D01*
X136823690Y-127539761D01*
X136776071Y-127492142D01*
X136728452Y-127396904D01*
X136680833Y-127206428D01*
X136680833Y-126968333D01*
X136728452Y-126777857D01*
X136776071Y-126682619D01*
X136823690Y-126635000D01*
X136918928Y-126587380D01*
X138157023Y-126587380D02*
X137680833Y-126587380D01*
X137633214Y-127063571D01*
X137680833Y-127015952D01*
X137776071Y-126968333D01*
X138014166Y-126968333D01*
X138109404Y-127015952D01*
X138157023Y-127063571D01*
X138204642Y-127158809D01*
X138204642Y-127396904D01*
X138157023Y-127492142D01*
X138109404Y-127539761D01*
X138014166Y-127587380D01*
X137776071Y-127587380D01*
X137680833Y-127539761D01*
X137633214Y-127492142D01*
X139109404Y-126587380D02*
X138633214Y-126587380D01*
X138585595Y-127063571D01*
X138633214Y-127015952D01*
X138728452Y-126968333D01*
X138966547Y-126968333D01*
X139061785Y-127015952D01*
X139109404Y-127063571D01*
X139157023Y-127158809D01*
X139157023Y-127396904D01*
X139109404Y-127492142D01*
X139061785Y-127539761D01*
X138966547Y-127587380D01*
X138728452Y-127587380D01*
X138633214Y-127539761D01*
X138585595Y-127492142D01*
%TO.C,R10*%
X118357142Y-85882380D02*
X118023809Y-85406190D01*
X117785714Y-85882380D02*
X117785714Y-84882380D01*
X118166666Y-84882380D01*
X118261904Y-84930000D01*
X118309523Y-84977619D01*
X118357142Y-85072857D01*
X118357142Y-85215714D01*
X118309523Y-85310952D01*
X118261904Y-85358571D01*
X118166666Y-85406190D01*
X117785714Y-85406190D01*
X119309523Y-85882380D02*
X118738095Y-85882380D01*
X119023809Y-85882380D02*
X119023809Y-84882380D01*
X118928571Y-85025238D01*
X118833333Y-85120476D01*
X118738095Y-85168095D01*
X119928571Y-84882380D02*
X120023809Y-84882380D01*
X120119047Y-84930000D01*
X120166666Y-84977619D01*
X120214285Y-85072857D01*
X120261904Y-85263333D01*
X120261904Y-85501428D01*
X120214285Y-85691904D01*
X120166666Y-85787142D01*
X120119047Y-85834761D01*
X120023809Y-85882380D01*
X119928571Y-85882380D01*
X119833333Y-85834761D01*
X119785714Y-85787142D01*
X119738095Y-85691904D01*
X119690476Y-85501428D01*
X119690476Y-85263333D01*
X119738095Y-85072857D01*
X119785714Y-84977619D01*
X119833333Y-84930000D01*
X119928571Y-84882380D01*
D11*
%TO.C,J22*%
X131903904Y-134198523D02*
X131903904Y-135105666D01*
X131843428Y-135287095D01*
X131722476Y-135408047D01*
X131541047Y-135468523D01*
X131420095Y-135468523D01*
X132448190Y-134319476D02*
X132508666Y-134259000D01*
X132629619Y-134198523D01*
X132932000Y-134198523D01*
X133052952Y-134259000D01*
X133113428Y-134319476D01*
X133173904Y-134440428D01*
X133173904Y-134561380D01*
X133113428Y-134742809D01*
X132387714Y-135468523D01*
X133173904Y-135468523D01*
X133657714Y-134319476D02*
X133718190Y-134259000D01*
X133839142Y-134198523D01*
X134141523Y-134198523D01*
X134262476Y-134259000D01*
X134322952Y-134319476D01*
X134383428Y-134440428D01*
X134383428Y-134561380D01*
X134322952Y-134742809D01*
X133597238Y-135468523D01*
X134383428Y-135468523D01*
X130856190Y-142024523D02*
X130856190Y-140754523D01*
X131400476Y-140875476D02*
X131460952Y-140815000D01*
X131581904Y-140754523D01*
X131884285Y-140754523D01*
X132005238Y-140815000D01*
X132065714Y-140875476D01*
X132126190Y-140996428D01*
X132126190Y-141117380D01*
X132065714Y-141298809D01*
X131340000Y-142024523D01*
X132126190Y-142024523D01*
X133396190Y-141903571D02*
X133335714Y-141964047D01*
X133154285Y-142024523D01*
X133033333Y-142024523D01*
X132851904Y-141964047D01*
X132730952Y-141843095D01*
X132670476Y-141722142D01*
X132610000Y-141480238D01*
X132610000Y-141298809D01*
X132670476Y-141056904D01*
X132730952Y-140935952D01*
X132851904Y-140815000D01*
X133033333Y-140754523D01*
X133154285Y-140754523D01*
X133335714Y-140815000D01*
X133396190Y-140875476D01*
X134847619Y-140694047D02*
X133759047Y-142326904D01*
X135512857Y-140754523D02*
X135754761Y-140754523D01*
X135875714Y-140815000D01*
X135996666Y-140935952D01*
X136057142Y-141177857D01*
X136057142Y-141601190D01*
X135996666Y-141843095D01*
X135875714Y-141964047D01*
X135754761Y-142024523D01*
X135512857Y-142024523D01*
X135391904Y-141964047D01*
X135270952Y-141843095D01*
X135210476Y-141601190D01*
X135210476Y-141177857D01*
X135270952Y-140935952D01*
X135391904Y-140815000D01*
X135512857Y-140754523D01*
X137206190Y-142024523D02*
X136601428Y-142024523D01*
X136601428Y-140754523D01*
X137629523Y-141359285D02*
X138052857Y-141359285D01*
X138234285Y-142024523D02*
X137629523Y-142024523D01*
X137629523Y-140754523D01*
X138234285Y-140754523D01*
X138778571Y-142024523D02*
X138778571Y-140754523D01*
X139080952Y-140754523D01*
X139262380Y-140815000D01*
X139383333Y-140935952D01*
X139443809Y-141056904D01*
X139504285Y-141298809D01*
X139504285Y-141480238D01*
X139443809Y-141722142D01*
X139383333Y-141843095D01*
X139262380Y-141964047D01*
X139080952Y-142024523D01*
X138778571Y-142024523D01*
D10*
%TO.C,C1*%
X172927142Y-65166666D02*
X172974761Y-65214285D01*
X173022380Y-65357142D01*
X173022380Y-65452380D01*
X172974761Y-65595238D01*
X172879523Y-65690476D01*
X172784285Y-65738095D01*
X172593809Y-65785714D01*
X172450952Y-65785714D01*
X172260476Y-65738095D01*
X172165238Y-65690476D01*
X172070000Y-65595238D01*
X172022380Y-65452380D01*
X172022380Y-65357142D01*
X172070000Y-65214285D01*
X172117619Y-65166666D01*
X173022380Y-64214285D02*
X173022380Y-64785714D01*
X173022380Y-64500000D02*
X172022380Y-64500000D01*
X172165238Y-64595238D01*
X172260476Y-64690476D01*
X172308095Y-64785714D01*
%TO.C,D6*%
X102882380Y-118238095D02*
X101882380Y-118238095D01*
X101882380Y-118000000D01*
X101930000Y-117857142D01*
X102025238Y-117761904D01*
X102120476Y-117714285D01*
X102310952Y-117666666D01*
X102453809Y-117666666D01*
X102644285Y-117714285D01*
X102739523Y-117761904D01*
X102834761Y-117857142D01*
X102882380Y-118000000D01*
X102882380Y-118238095D01*
X101882380Y-116809523D02*
X101882380Y-117000000D01*
X101930000Y-117095238D01*
X101977619Y-117142857D01*
X102120476Y-117238095D01*
X102310952Y-117285714D01*
X102691904Y-117285714D01*
X102787142Y-117238095D01*
X102834761Y-117190476D01*
X102882380Y-117095238D01*
X102882380Y-116904761D01*
X102834761Y-116809523D01*
X102787142Y-116761904D01*
X102691904Y-116714285D01*
X102453809Y-116714285D01*
X102358571Y-116761904D01*
X102310952Y-116809523D01*
X102263333Y-116904761D01*
X102263333Y-117095238D01*
X102310952Y-117190476D01*
X102358571Y-117238095D01*
X102453809Y-117285714D01*
%TO.C,C2*%
X228927142Y-89166666D02*
X228974761Y-89214285D01*
X229022380Y-89357142D01*
X229022380Y-89452380D01*
X228974761Y-89595238D01*
X228879523Y-89690476D01*
X228784285Y-89738095D01*
X228593809Y-89785714D01*
X228450952Y-89785714D01*
X228260476Y-89738095D01*
X228165238Y-89690476D01*
X228070000Y-89595238D01*
X228022380Y-89452380D01*
X228022380Y-89357142D01*
X228070000Y-89214285D01*
X228117619Y-89166666D01*
X228117619Y-88785714D02*
X228070000Y-88738095D01*
X228022380Y-88642857D01*
X228022380Y-88404761D01*
X228070000Y-88309523D01*
X228117619Y-88261904D01*
X228212857Y-88214285D01*
X228308095Y-88214285D01*
X228450952Y-88261904D01*
X229022380Y-88833333D01*
X229022380Y-88214285D01*
D12*
%TO.C,U2*%
X126507904Y-81277619D02*
X126507904Y-80468095D01*
X126460285Y-80372857D01*
X126412666Y-80325238D01*
X126317428Y-80277619D01*
X126126952Y-80277619D01*
X126031714Y-80325238D01*
X125984095Y-80372857D01*
X125936476Y-80468095D01*
X125936476Y-81277619D01*
X125507904Y-81182380D02*
X125460285Y-81230000D01*
X125365047Y-81277619D01*
X125126952Y-81277619D01*
X125031714Y-81230000D01*
X124984095Y-81182380D01*
X124936476Y-81087142D01*
X124936476Y-80991904D01*
X124984095Y-80849047D01*
X125555523Y-80277619D01*
X124936476Y-80277619D01*
X128785714Y-83309619D02*
X128119047Y-83309619D01*
X128547619Y-82309619D01*
X127309523Y-82976285D02*
X127309523Y-82309619D01*
X127547619Y-83357238D02*
X127785714Y-82642952D01*
X127166666Y-82642952D01*
X126785714Y-82309619D02*
X126785714Y-83309619D01*
X126785714Y-82833428D02*
X126214285Y-82833428D01*
X126214285Y-82309619D02*
X126214285Y-83309619D01*
X125166666Y-82404857D02*
X125214285Y-82357238D01*
X125357142Y-82309619D01*
X125452380Y-82309619D01*
X125595238Y-82357238D01*
X125690476Y-82452476D01*
X125738095Y-82547714D01*
X125785714Y-82738190D01*
X125785714Y-82881047D01*
X125738095Y-83071523D01*
X125690476Y-83166761D01*
X125595238Y-83262000D01*
X125452380Y-83309619D01*
X125357142Y-83309619D01*
X125214285Y-83262000D01*
X125166666Y-83214380D01*
X124833333Y-83309619D02*
X124214285Y-83309619D01*
X124547619Y-82928666D01*
X124404761Y-82928666D01*
X124309523Y-82881047D01*
X124261904Y-82833428D01*
X124214285Y-82738190D01*
X124214285Y-82500095D01*
X124261904Y-82404857D01*
X124309523Y-82357238D01*
X124404761Y-82309619D01*
X124690476Y-82309619D01*
X124785714Y-82357238D01*
X124833333Y-82404857D01*
X123833333Y-83214380D02*
X123785714Y-83262000D01*
X123690476Y-83309619D01*
X123452380Y-83309619D01*
X123357142Y-83262000D01*
X123309523Y-83214380D01*
X123261904Y-83119142D01*
X123261904Y-83023904D01*
X123309523Y-82881047D01*
X123880952Y-82309619D01*
X123261904Y-82309619D01*
D11*
%TO.C,RV1*%
X79244047Y-84224523D02*
X78820714Y-83619761D01*
X78518333Y-84224523D02*
X78518333Y-82954523D01*
X79002142Y-82954523D01*
X79123095Y-83015000D01*
X79183571Y-83075476D01*
X79244047Y-83196428D01*
X79244047Y-83377857D01*
X79183571Y-83498809D01*
X79123095Y-83559285D01*
X79002142Y-83619761D01*
X78518333Y-83619761D01*
X79606904Y-82954523D02*
X80030238Y-84224523D01*
X80453571Y-82954523D01*
X81542142Y-84224523D02*
X80816428Y-84224523D01*
X81179285Y-84224523D02*
X81179285Y-82954523D01*
X81058333Y-83135952D01*
X80937380Y-83256904D01*
X80816428Y-83317380D01*
%TO.C,J24*%
X132221904Y-80410523D02*
X132221904Y-81317666D01*
X132161428Y-81499095D01*
X132040476Y-81620047D01*
X131859047Y-81680523D01*
X131738095Y-81680523D01*
X132766190Y-80531476D02*
X132826666Y-80471000D01*
X132947619Y-80410523D01*
X133250000Y-80410523D01*
X133370952Y-80471000D01*
X133431428Y-80531476D01*
X133491904Y-80652428D01*
X133491904Y-80773380D01*
X133431428Y-80954809D01*
X132705714Y-81680523D01*
X133491904Y-81680523D01*
X134580476Y-80833857D02*
X134580476Y-81680523D01*
X134278095Y-80350047D02*
X133975714Y-81257190D01*
X134761904Y-81257190D01*
X133370952Y-73806523D02*
X134096666Y-73806523D01*
X133733809Y-75076523D02*
X133733809Y-73806523D01*
X134520000Y-75076523D02*
X134520000Y-74229857D01*
X134520000Y-74471761D02*
X134580476Y-74350809D01*
X134640952Y-74290333D01*
X134761904Y-74229857D01*
X134882857Y-74229857D01*
X135306190Y-75076523D02*
X135306190Y-74229857D01*
X135306190Y-73806523D02*
X135245714Y-73867000D01*
X135306190Y-73927476D01*
X135366666Y-73867000D01*
X135306190Y-73806523D01*
X135306190Y-73927476D01*
X135910952Y-75076523D02*
X135910952Y-74229857D01*
X135910952Y-74350809D02*
X135971428Y-74290333D01*
X136092380Y-74229857D01*
X136273809Y-74229857D01*
X136394761Y-74290333D01*
X136455238Y-74411285D01*
X136455238Y-75076523D01*
X136455238Y-74411285D02*
X136515714Y-74290333D01*
X136636666Y-74229857D01*
X136818095Y-74229857D01*
X136939047Y-74290333D01*
X136999523Y-74411285D01*
X136999523Y-75076523D01*
X137604285Y-75076523D02*
X137604285Y-74229857D01*
X137604285Y-74350809D02*
X137664761Y-74290333D01*
X137785714Y-74229857D01*
X137967142Y-74229857D01*
X138088095Y-74290333D01*
X138148571Y-74411285D01*
X138148571Y-75076523D01*
X138148571Y-74411285D02*
X138209047Y-74290333D01*
X138330000Y-74229857D01*
X138511428Y-74229857D01*
X138632380Y-74290333D01*
X138692857Y-74411285D01*
X138692857Y-75076523D01*
X139781428Y-75016047D02*
X139660476Y-75076523D01*
X139418571Y-75076523D01*
X139297619Y-75016047D01*
X139237142Y-74895095D01*
X139237142Y-74411285D01*
X139297619Y-74290333D01*
X139418571Y-74229857D01*
X139660476Y-74229857D01*
X139781428Y-74290333D01*
X139841904Y-74411285D01*
X139841904Y-74532238D01*
X139237142Y-74653190D01*
X140386190Y-75076523D02*
X140386190Y-74229857D01*
X140386190Y-74471761D02*
X140446666Y-74350809D01*
X140507142Y-74290333D01*
X140628095Y-74229857D01*
X140749047Y-74229857D01*
D10*
%TO.C,R1*%
X225882380Y-102166666D02*
X225406190Y-102500000D01*
X225882380Y-102738095D02*
X224882380Y-102738095D01*
X224882380Y-102357142D01*
X224930000Y-102261904D01*
X224977619Y-102214285D01*
X225072857Y-102166666D01*
X225215714Y-102166666D01*
X225310952Y-102214285D01*
X225358571Y-102261904D01*
X225406190Y-102357142D01*
X225406190Y-102738095D01*
X225882380Y-101214285D02*
X225882380Y-101785714D01*
X225882380Y-101500000D02*
X224882380Y-101500000D01*
X225025238Y-101595238D01*
X225120476Y-101690476D01*
X225168095Y-101785714D01*
%TO.C,R45*%
X71357142Y-107882380D02*
X71023809Y-107406190D01*
X70785714Y-107882380D02*
X70785714Y-106882380D01*
X71166666Y-106882380D01*
X71261904Y-106930000D01*
X71309523Y-106977619D01*
X71357142Y-107072857D01*
X71357142Y-107215714D01*
X71309523Y-107310952D01*
X71261904Y-107358571D01*
X71166666Y-107406190D01*
X70785714Y-107406190D01*
X72214285Y-107215714D02*
X72214285Y-107882380D01*
X71976190Y-106834761D02*
X71738095Y-107549047D01*
X72357142Y-107549047D01*
X73214285Y-106882380D02*
X72738095Y-106882380D01*
X72690476Y-107358571D01*
X72738095Y-107310952D01*
X72833333Y-107263333D01*
X73071428Y-107263333D01*
X73166666Y-107310952D01*
X73214285Y-107358571D01*
X73261904Y-107453809D01*
X73261904Y-107691904D01*
X73214285Y-107787142D01*
X73166666Y-107834761D01*
X73071428Y-107882380D01*
X72833333Y-107882380D01*
X72738095Y-107834761D01*
X72690476Y-107787142D01*
D11*
%TO.C,J18*%
X165235189Y-99218737D02*
X165876636Y-98577290D01*
X166047688Y-98491763D01*
X166218741Y-98491763D01*
X166389793Y-98577290D01*
X166475319Y-98662816D01*
X165235189Y-97422685D02*
X165748346Y-97935843D01*
X165491767Y-97679264D02*
X164593742Y-98577290D01*
X164807557Y-98534527D01*
X164978610Y-98534527D01*
X165106899Y-98577290D01*
X164208874Y-97422685D02*
X164251637Y-97550975D01*
X164251637Y-97636501D01*
X164208874Y-97764790D01*
X164166111Y-97807553D01*
X164037821Y-97850317D01*
X163952295Y-97850317D01*
X163824006Y-97807553D01*
X163652953Y-97636501D01*
X163610190Y-97508212D01*
X163610190Y-97422685D01*
X163652953Y-97294396D01*
X163695716Y-97251633D01*
X163824006Y-97208870D01*
X163909532Y-97208870D01*
X164037821Y-97251633D01*
X164208874Y-97422685D01*
X164337163Y-97465448D01*
X164422689Y-97465448D01*
X164550979Y-97422685D01*
X164722031Y-97251633D01*
X164764794Y-97123343D01*
X164764794Y-97037817D01*
X164722031Y-96909528D01*
X164550979Y-96738475D01*
X164422689Y-96695712D01*
X164337163Y-96695712D01*
X164208874Y-96738475D01*
X164037821Y-96909528D01*
X163995058Y-97037817D01*
X163995058Y-97123343D01*
X164037821Y-97251633D01*
X165915680Y-91224140D02*
X165017654Y-92122165D01*
X165359759Y-91181377D01*
X164418971Y-91523482D01*
X165316996Y-90625456D01*
X164889365Y-90197825D02*
X163991340Y-91095850D01*
X163777524Y-90882035D01*
X163691998Y-90710982D01*
X163691998Y-90539930D01*
X163734761Y-90411640D01*
X163863050Y-90197825D01*
X163991340Y-90069535D01*
X164205155Y-89941246D01*
X164333445Y-89898483D01*
X164504497Y-89898483D01*
X164675549Y-89984009D01*
X164889365Y-90197825D01*
X163520945Y-88829405D02*
X164034103Y-89342562D01*
X163777524Y-89085984D02*
X162879498Y-89984009D01*
X163093314Y-89941246D01*
X163264366Y-89941246D01*
X163392656Y-89984009D01*
D10*
%TO.C,C9*%
X75787142Y-112166666D02*
X75834761Y-112214285D01*
X75882380Y-112357142D01*
X75882380Y-112452380D01*
X75834761Y-112595238D01*
X75739523Y-112690476D01*
X75644285Y-112738095D01*
X75453809Y-112785714D01*
X75310952Y-112785714D01*
X75120476Y-112738095D01*
X75025238Y-112690476D01*
X74930000Y-112595238D01*
X74882380Y-112452380D01*
X74882380Y-112357142D01*
X74930000Y-112214285D01*
X74977619Y-112166666D01*
X75882380Y-111690476D02*
X75882380Y-111500000D01*
X75834761Y-111404761D01*
X75787142Y-111357142D01*
X75644285Y-111261904D01*
X75453809Y-111214285D01*
X75072857Y-111214285D01*
X74977619Y-111261904D01*
X74930000Y-111309523D01*
X74882380Y-111404761D01*
X74882380Y-111595238D01*
X74930000Y-111690476D01*
X74977619Y-111738095D01*
X75072857Y-111785714D01*
X75310952Y-111785714D01*
X75406190Y-111738095D01*
X75453809Y-111690476D01*
X75501428Y-111595238D01*
X75501428Y-111404761D01*
X75453809Y-111309523D01*
X75406190Y-111261904D01*
X75310952Y-111214285D01*
%TO.C,U9*%
X195238095Y-69952380D02*
X195238095Y-70761904D01*
X195285714Y-70857142D01*
X195333333Y-70904761D01*
X195428571Y-70952380D01*
X195619047Y-70952380D01*
X195714285Y-70904761D01*
X195761904Y-70857142D01*
X195809523Y-70761904D01*
X195809523Y-69952380D01*
X196333333Y-70952380D02*
X196523809Y-70952380D01*
X196619047Y-70904761D01*
X196666666Y-70857142D01*
X196761904Y-70714285D01*
X196809523Y-70523809D01*
X196809523Y-70142857D01*
X196761904Y-70047619D01*
X196714285Y-70000000D01*
X196619047Y-69952380D01*
X196428571Y-69952380D01*
X196333333Y-70000000D01*
X196285714Y-70047619D01*
X196238095Y-70142857D01*
X196238095Y-70380952D01*
X196285714Y-70476190D01*
X196333333Y-70523809D01*
X196428571Y-70571428D01*
X196619047Y-70571428D01*
X196714285Y-70523809D01*
X196761904Y-70476190D01*
X196809523Y-70380952D01*
%TO.C,C26*%
X169357142Y-123927142D02*
X169309523Y-123974761D01*
X169166666Y-124022380D01*
X169071428Y-124022380D01*
X168928571Y-123974761D01*
X168833333Y-123879523D01*
X168785714Y-123784285D01*
X168738095Y-123593809D01*
X168738095Y-123450952D01*
X168785714Y-123260476D01*
X168833333Y-123165238D01*
X168928571Y-123070000D01*
X169071428Y-123022380D01*
X169166666Y-123022380D01*
X169309523Y-123070000D01*
X169357142Y-123117619D01*
X169738095Y-123117619D02*
X169785714Y-123070000D01*
X169880952Y-123022380D01*
X170119047Y-123022380D01*
X170214285Y-123070000D01*
X170261904Y-123117619D01*
X170309523Y-123212857D01*
X170309523Y-123308095D01*
X170261904Y-123450952D01*
X169690476Y-124022380D01*
X170309523Y-124022380D01*
X171166666Y-123022380D02*
X170976190Y-123022380D01*
X170880952Y-123070000D01*
X170833333Y-123117619D01*
X170738095Y-123260476D01*
X170690476Y-123450952D01*
X170690476Y-123831904D01*
X170738095Y-123927142D01*
X170785714Y-123974761D01*
X170880952Y-124022380D01*
X171071428Y-124022380D01*
X171166666Y-123974761D01*
X171214285Y-123927142D01*
X171261904Y-123831904D01*
X171261904Y-123593809D01*
X171214285Y-123498571D01*
X171166666Y-123450952D01*
X171071428Y-123403333D01*
X170880952Y-123403333D01*
X170785714Y-123450952D01*
X170738095Y-123498571D01*
X170690476Y-123593809D01*
%TO.C,U5*%
X96668095Y-105462380D02*
X96668095Y-106271904D01*
X96715714Y-106367142D01*
X96763333Y-106414761D01*
X96858571Y-106462380D01*
X97049047Y-106462380D01*
X97144285Y-106414761D01*
X97191904Y-106367142D01*
X97239523Y-106271904D01*
X97239523Y-105462380D01*
X98191904Y-105462380D02*
X97715714Y-105462380D01*
X97668095Y-105938571D01*
X97715714Y-105890952D01*
X97810952Y-105843333D01*
X98049047Y-105843333D01*
X98144285Y-105890952D01*
X98191904Y-105938571D01*
X98239523Y-106033809D01*
X98239523Y-106271904D01*
X98191904Y-106367142D01*
X98144285Y-106414761D01*
X98049047Y-106462380D01*
X97810952Y-106462380D01*
X97715714Y-106414761D01*
X97668095Y-106367142D01*
%TO.C,C4*%
X101927142Y-73166666D02*
X101974761Y-73214285D01*
X102022380Y-73357142D01*
X102022380Y-73452380D01*
X101974761Y-73595238D01*
X101879523Y-73690476D01*
X101784285Y-73738095D01*
X101593809Y-73785714D01*
X101450952Y-73785714D01*
X101260476Y-73738095D01*
X101165238Y-73690476D01*
X101070000Y-73595238D01*
X101022380Y-73452380D01*
X101022380Y-73357142D01*
X101070000Y-73214285D01*
X101117619Y-73166666D01*
X101355714Y-72309523D02*
X102022380Y-72309523D01*
X100974761Y-72547619D02*
X101689047Y-72785714D01*
X101689047Y-72166666D01*
%TO.C,R12*%
X132357142Y-86022380D02*
X132023809Y-85546190D01*
X131785714Y-86022380D02*
X131785714Y-85022380D01*
X132166666Y-85022380D01*
X132261904Y-85070000D01*
X132309523Y-85117619D01*
X132357142Y-85212857D01*
X132357142Y-85355714D01*
X132309523Y-85450952D01*
X132261904Y-85498571D01*
X132166666Y-85546190D01*
X131785714Y-85546190D01*
X133309523Y-86022380D02*
X132738095Y-86022380D01*
X133023809Y-86022380D02*
X133023809Y-85022380D01*
X132928571Y-85165238D01*
X132833333Y-85260476D01*
X132738095Y-85308095D01*
X133690476Y-85117619D02*
X133738095Y-85070000D01*
X133833333Y-85022380D01*
X134071428Y-85022380D01*
X134166666Y-85070000D01*
X134214285Y-85117619D01*
X134261904Y-85212857D01*
X134261904Y-85308095D01*
X134214285Y-85450952D01*
X133642857Y-86022380D01*
X134261904Y-86022380D01*
%TO.C,D16*%
X66785714Y-107882380D02*
X66785714Y-106882380D01*
X67023809Y-106882380D01*
X67166666Y-106930000D01*
X67261904Y-107025238D01*
X67309523Y-107120476D01*
X67357142Y-107310952D01*
X67357142Y-107453809D01*
X67309523Y-107644285D01*
X67261904Y-107739523D01*
X67166666Y-107834761D01*
X67023809Y-107882380D01*
X66785714Y-107882380D01*
X68309523Y-107882380D02*
X67738095Y-107882380D01*
X68023809Y-107882380D02*
X68023809Y-106882380D01*
X67928571Y-107025238D01*
X67833333Y-107120476D01*
X67738095Y-107168095D01*
X69166666Y-106882380D02*
X68976190Y-106882380D01*
X68880952Y-106930000D01*
X68833333Y-106977619D01*
X68738095Y-107120476D01*
X68690476Y-107310952D01*
X68690476Y-107691904D01*
X68738095Y-107787142D01*
X68785714Y-107834761D01*
X68880952Y-107882380D01*
X69071428Y-107882380D01*
X69166666Y-107834761D01*
X69214285Y-107787142D01*
X69261904Y-107691904D01*
X69261904Y-107453809D01*
X69214285Y-107358571D01*
X69166666Y-107310952D01*
X69071428Y-107263333D01*
X68880952Y-107263333D01*
X68785714Y-107310952D01*
X68738095Y-107358571D01*
X68690476Y-107453809D01*
%TO.C,R2*%
X222022380Y-97166666D02*
X221546190Y-97500000D01*
X222022380Y-97738095D02*
X221022380Y-97738095D01*
X221022380Y-97357142D01*
X221070000Y-97261904D01*
X221117619Y-97214285D01*
X221212857Y-97166666D01*
X221355714Y-97166666D01*
X221450952Y-97214285D01*
X221498571Y-97261904D01*
X221546190Y-97357142D01*
X221546190Y-97738095D01*
X221117619Y-96785714D02*
X221070000Y-96738095D01*
X221022380Y-96642857D01*
X221022380Y-96404761D01*
X221070000Y-96309523D01*
X221117619Y-96261904D01*
X221212857Y-96214285D01*
X221308095Y-96214285D01*
X221450952Y-96261904D01*
X222022380Y-96833333D01*
X222022380Y-96214285D01*
%TO.C,D13*%
X66785714Y-95882380D02*
X66785714Y-94882380D01*
X67023809Y-94882380D01*
X67166666Y-94930000D01*
X67261904Y-95025238D01*
X67309523Y-95120476D01*
X67357142Y-95310952D01*
X67357142Y-95453809D01*
X67309523Y-95644285D01*
X67261904Y-95739523D01*
X67166666Y-95834761D01*
X67023809Y-95882380D01*
X66785714Y-95882380D01*
X68309523Y-95882380D02*
X67738095Y-95882380D01*
X68023809Y-95882380D02*
X68023809Y-94882380D01*
X67928571Y-95025238D01*
X67833333Y-95120476D01*
X67738095Y-95168095D01*
X68642857Y-94882380D02*
X69261904Y-94882380D01*
X68928571Y-95263333D01*
X69071428Y-95263333D01*
X69166666Y-95310952D01*
X69214285Y-95358571D01*
X69261904Y-95453809D01*
X69261904Y-95691904D01*
X69214285Y-95787142D01*
X69166666Y-95834761D01*
X69071428Y-95882380D01*
X68785714Y-95882380D01*
X68690476Y-95834761D01*
X68642857Y-95787142D01*
%TO.C,U6*%
X117238095Y-61402380D02*
X117238095Y-62211904D01*
X117285714Y-62307142D01*
X117333333Y-62354761D01*
X117428571Y-62402380D01*
X117619047Y-62402380D01*
X117714285Y-62354761D01*
X117761904Y-62307142D01*
X117809523Y-62211904D01*
X117809523Y-61402380D01*
X118714285Y-61402380D02*
X118523809Y-61402380D01*
X118428571Y-61450000D01*
X118380952Y-61497619D01*
X118285714Y-61640476D01*
X118238095Y-61830952D01*
X118238095Y-62211904D01*
X118285714Y-62307142D01*
X118333333Y-62354761D01*
X118428571Y-62402380D01*
X118619047Y-62402380D01*
X118714285Y-62354761D01*
X118761904Y-62307142D01*
X118809523Y-62211904D01*
X118809523Y-61973809D01*
X118761904Y-61878571D01*
X118714285Y-61830952D01*
X118619047Y-61783333D01*
X118428571Y-61783333D01*
X118333333Y-61830952D01*
X118285714Y-61878571D01*
X118238095Y-61973809D01*
D11*
%TO.C,J19*%
X163781261Y-102235189D02*
X164422708Y-102876636D01*
X164508235Y-103047688D01*
X164508235Y-103218741D01*
X164422708Y-103389793D01*
X164337182Y-103475319D01*
X165577313Y-102235189D02*
X165064155Y-102748346D01*
X165320734Y-102491767D02*
X164422708Y-101593742D01*
X164465471Y-101807557D01*
X164465471Y-101978610D01*
X164422708Y-102106899D01*
X166004944Y-101807557D02*
X166175996Y-101636505D01*
X166218760Y-101508216D01*
X166218760Y-101422689D01*
X166175996Y-101208874D01*
X166047707Y-100995058D01*
X165705602Y-100652953D01*
X165577313Y-100610190D01*
X165491786Y-100610190D01*
X165363497Y-100652953D01*
X165192445Y-100824006D01*
X165149681Y-100952295D01*
X165149681Y-101037821D01*
X165192445Y-101166111D01*
X165406260Y-101379926D01*
X165534550Y-101422689D01*
X165620076Y-101422689D01*
X165748365Y-101379926D01*
X165919418Y-101208874D01*
X165962181Y-101080584D01*
X165962181Y-100995058D01*
X165919418Y-100866769D01*
X163775859Y-110915680D02*
X162877834Y-110017654D01*
X163818622Y-110359759D01*
X163476517Y-109418971D01*
X164374543Y-110316996D01*
X164802174Y-109889365D02*
X163904149Y-108991340D01*
X164117964Y-108777524D01*
X164289017Y-108691998D01*
X164460069Y-108691998D01*
X164588359Y-108734761D01*
X164802174Y-108863050D01*
X164930464Y-108991340D01*
X165058753Y-109205155D01*
X165101516Y-109333444D01*
X165101516Y-109504497D01*
X165015990Y-109675549D01*
X164802174Y-109889365D01*
X164844937Y-108221603D02*
X164844937Y-108136077D01*
X164887700Y-108007788D01*
X165101516Y-107793972D01*
X165229805Y-107751209D01*
X165315332Y-107751209D01*
X165443621Y-107793972D01*
X165529147Y-107879498D01*
X165614674Y-108050551D01*
X165614674Y-109076866D01*
X166170594Y-108520945D01*
D10*
%TO.C,R33*%
X194357142Y-101452380D02*
X194023809Y-100976190D01*
X193785714Y-101452380D02*
X193785714Y-100452380D01*
X194166666Y-100452380D01*
X194261904Y-100500000D01*
X194309523Y-100547619D01*
X194357142Y-100642857D01*
X194357142Y-100785714D01*
X194309523Y-100880952D01*
X194261904Y-100928571D01*
X194166666Y-100976190D01*
X193785714Y-100976190D01*
X194690476Y-100452380D02*
X195309523Y-100452380D01*
X194976190Y-100833333D01*
X195119047Y-100833333D01*
X195214285Y-100880952D01*
X195261904Y-100928571D01*
X195309523Y-101023809D01*
X195309523Y-101261904D01*
X195261904Y-101357142D01*
X195214285Y-101404761D01*
X195119047Y-101452380D01*
X194833333Y-101452380D01*
X194738095Y-101404761D01*
X194690476Y-101357142D01*
X195642857Y-100452380D02*
X196261904Y-100452380D01*
X195928571Y-100833333D01*
X196071428Y-100833333D01*
X196166666Y-100880952D01*
X196214285Y-100928571D01*
X196261904Y-101023809D01*
X196261904Y-101261904D01*
X196214285Y-101357142D01*
X196166666Y-101404761D01*
X196071428Y-101452380D01*
X195785714Y-101452380D01*
X195690476Y-101404761D01*
X195642857Y-101357142D01*
%TO.C,C20*%
X194357142Y-89927142D02*
X194309523Y-89974761D01*
X194166666Y-90022380D01*
X194071428Y-90022380D01*
X193928571Y-89974761D01*
X193833333Y-89879523D01*
X193785714Y-89784285D01*
X193738095Y-89593809D01*
X193738095Y-89450952D01*
X193785714Y-89260476D01*
X193833333Y-89165238D01*
X193928571Y-89070000D01*
X194071428Y-89022380D01*
X194166666Y-89022380D01*
X194309523Y-89070000D01*
X194357142Y-89117619D01*
X194738095Y-89117619D02*
X194785714Y-89070000D01*
X194880952Y-89022380D01*
X195119047Y-89022380D01*
X195214285Y-89070000D01*
X195261904Y-89117619D01*
X195309523Y-89212857D01*
X195309523Y-89308095D01*
X195261904Y-89450952D01*
X194690476Y-90022380D01*
X195309523Y-90022380D01*
X195928571Y-89022380D02*
X196023809Y-89022380D01*
X196119047Y-89070000D01*
X196166666Y-89117619D01*
X196214285Y-89212857D01*
X196261904Y-89403333D01*
X196261904Y-89641428D01*
X196214285Y-89831904D01*
X196166666Y-89927142D01*
X196119047Y-89974761D01*
X196023809Y-90022380D01*
X195928571Y-90022380D01*
X195833333Y-89974761D01*
X195785714Y-89927142D01*
X195738095Y-89831904D01*
X195690476Y-89641428D01*
X195690476Y-89403333D01*
X195738095Y-89212857D01*
X195785714Y-89117619D01*
X195833333Y-89070000D01*
X195928571Y-89022380D01*
%TO.C,D17*%
X140785714Y-118452380D02*
X140785714Y-117452380D01*
X141023809Y-117452380D01*
X141166666Y-117500000D01*
X141261904Y-117595238D01*
X141309523Y-117690476D01*
X141357142Y-117880952D01*
X141357142Y-118023809D01*
X141309523Y-118214285D01*
X141261904Y-118309523D01*
X141166666Y-118404761D01*
X141023809Y-118452380D01*
X140785714Y-118452380D01*
X142309523Y-118452380D02*
X141738095Y-118452380D01*
X142023809Y-118452380D02*
X142023809Y-117452380D01*
X141928571Y-117595238D01*
X141833333Y-117690476D01*
X141738095Y-117738095D01*
X142642857Y-117452380D02*
X143309523Y-117452380D01*
X142880952Y-118452380D01*
%TO.C,R32*%
X190452380Y-63642857D02*
X189976190Y-63976190D01*
X190452380Y-64214285D02*
X189452380Y-64214285D01*
X189452380Y-63833333D01*
X189500000Y-63738095D01*
X189547619Y-63690476D01*
X189642857Y-63642857D01*
X189785714Y-63642857D01*
X189880952Y-63690476D01*
X189928571Y-63738095D01*
X189976190Y-63833333D01*
X189976190Y-64214285D01*
X189452380Y-63309523D02*
X189452380Y-62690476D01*
X189833333Y-63023809D01*
X189833333Y-62880952D01*
X189880952Y-62785714D01*
X189928571Y-62738095D01*
X190023809Y-62690476D01*
X190261904Y-62690476D01*
X190357142Y-62738095D01*
X190404761Y-62785714D01*
X190452380Y-62880952D01*
X190452380Y-63166666D01*
X190404761Y-63261904D01*
X190357142Y-63309523D01*
X189547619Y-62309523D02*
X189500000Y-62261904D01*
X189452380Y-62166666D01*
X189452380Y-61928571D01*
X189500000Y-61833333D01*
X189547619Y-61785714D01*
X189642857Y-61738095D01*
X189738095Y-61738095D01*
X189880952Y-61785714D01*
X190452380Y-62357142D01*
X190452380Y-61738095D01*
%TO.C,D14*%
X66785714Y-99882380D02*
X66785714Y-98882380D01*
X67023809Y-98882380D01*
X67166666Y-98930000D01*
X67261904Y-99025238D01*
X67309523Y-99120476D01*
X67357142Y-99310952D01*
X67357142Y-99453809D01*
X67309523Y-99644285D01*
X67261904Y-99739523D01*
X67166666Y-99834761D01*
X67023809Y-99882380D01*
X66785714Y-99882380D01*
X68309523Y-99882380D02*
X67738095Y-99882380D01*
X68023809Y-99882380D02*
X68023809Y-98882380D01*
X67928571Y-99025238D01*
X67833333Y-99120476D01*
X67738095Y-99168095D01*
X69166666Y-99215714D02*
X69166666Y-99882380D01*
X68928571Y-98834761D02*
X68690476Y-99549047D01*
X69309523Y-99549047D01*
%TO.C,R38*%
X127357142Y-115882380D02*
X127023809Y-115406190D01*
X126785714Y-115882380D02*
X126785714Y-114882380D01*
X127166666Y-114882380D01*
X127261904Y-114930000D01*
X127309523Y-114977619D01*
X127357142Y-115072857D01*
X127357142Y-115215714D01*
X127309523Y-115310952D01*
X127261904Y-115358571D01*
X127166666Y-115406190D01*
X126785714Y-115406190D01*
X127690476Y-114882380D02*
X128309523Y-114882380D01*
X127976190Y-115263333D01*
X128119047Y-115263333D01*
X128214285Y-115310952D01*
X128261904Y-115358571D01*
X128309523Y-115453809D01*
X128309523Y-115691904D01*
X128261904Y-115787142D01*
X128214285Y-115834761D01*
X128119047Y-115882380D01*
X127833333Y-115882380D01*
X127738095Y-115834761D01*
X127690476Y-115787142D01*
X128880952Y-115310952D02*
X128785714Y-115263333D01*
X128738095Y-115215714D01*
X128690476Y-115120476D01*
X128690476Y-115072857D01*
X128738095Y-114977619D01*
X128785714Y-114930000D01*
X128880952Y-114882380D01*
X129071428Y-114882380D01*
X129166666Y-114930000D01*
X129214285Y-114977619D01*
X129261904Y-115072857D01*
X129261904Y-115120476D01*
X129214285Y-115215714D01*
X129166666Y-115263333D01*
X129071428Y-115310952D01*
X128880952Y-115310952D01*
X128785714Y-115358571D01*
X128738095Y-115406190D01*
X128690476Y-115501428D01*
X128690476Y-115691904D01*
X128738095Y-115787142D01*
X128785714Y-115834761D01*
X128880952Y-115882380D01*
X129071428Y-115882380D01*
X129166666Y-115834761D01*
X129214285Y-115787142D01*
X129261904Y-115691904D01*
X129261904Y-115501428D01*
X129214285Y-115406190D01*
X129166666Y-115358571D01*
X129071428Y-115310952D01*
D11*
%TO.C,J11*%
X117653904Y-124748523D02*
X117653904Y-125655666D01*
X117593428Y-125837095D01*
X117472476Y-125958047D01*
X117291047Y-126018523D01*
X117170095Y-126018523D01*
X118923904Y-126018523D02*
X118198190Y-126018523D01*
X118561047Y-126018523D02*
X118561047Y-124748523D01*
X118440095Y-124929952D01*
X118319142Y-125050904D01*
X118198190Y-125111380D01*
X120133428Y-126018523D02*
X119407714Y-126018523D01*
X119770571Y-126018523D02*
X119770571Y-124748523D01*
X119649619Y-124929952D01*
X119528666Y-125050904D01*
X119407714Y-125111380D01*
X118571666Y-132574523D02*
X118571666Y-131304523D01*
X119115952Y-131425476D02*
X119176428Y-131365000D01*
X119297380Y-131304523D01*
X119599761Y-131304523D01*
X119720714Y-131365000D01*
X119781190Y-131425476D01*
X119841666Y-131546428D01*
X119841666Y-131667380D01*
X119781190Y-131848809D01*
X119055476Y-132574523D01*
X119841666Y-132574523D01*
X121111666Y-132453571D02*
X121051190Y-132514047D01*
X120869761Y-132574523D01*
X120748809Y-132574523D01*
X120567380Y-132514047D01*
X120446428Y-132393095D01*
X120385952Y-132272142D01*
X120325476Y-132030238D01*
X120325476Y-131848809D01*
X120385952Y-131606904D01*
X120446428Y-131485952D01*
X120567380Y-131365000D01*
X120748809Y-131304523D01*
X120869761Y-131304523D01*
X121051190Y-131365000D01*
X121111666Y-131425476D01*
X121353571Y-132695476D02*
X122321190Y-132695476D01*
X123288809Y-132574523D02*
X122563095Y-132574523D01*
X122925952Y-132574523D02*
X122925952Y-131304523D01*
X122805000Y-131485952D01*
X122684047Y-131606904D01*
X122563095Y-131667380D01*
D10*
%TO.C,R4*%
X175833333Y-130882380D02*
X175500000Y-130406190D01*
X175261904Y-130882380D02*
X175261904Y-129882380D01*
X175642857Y-129882380D01*
X175738095Y-129930000D01*
X175785714Y-129977619D01*
X175833333Y-130072857D01*
X175833333Y-130215714D01*
X175785714Y-130310952D01*
X175738095Y-130358571D01*
X175642857Y-130406190D01*
X175261904Y-130406190D01*
X176690476Y-130215714D02*
X176690476Y-130882380D01*
X176452380Y-129834761D02*
X176214285Y-130549047D01*
X176833333Y-130549047D01*
%TO.C,R9*%
X191372380Y-118166666D02*
X190896190Y-118500000D01*
X191372380Y-118738095D02*
X190372380Y-118738095D01*
X190372380Y-118357142D01*
X190420000Y-118261904D01*
X190467619Y-118214285D01*
X190562857Y-118166666D01*
X190705714Y-118166666D01*
X190800952Y-118214285D01*
X190848571Y-118261904D01*
X190896190Y-118357142D01*
X190896190Y-118738095D01*
X191372380Y-117690476D02*
X191372380Y-117500000D01*
X191324761Y-117404761D01*
X191277142Y-117357142D01*
X191134285Y-117261904D01*
X190943809Y-117214285D01*
X190562857Y-117214285D01*
X190467619Y-117261904D01*
X190420000Y-117309523D01*
X190372380Y-117404761D01*
X190372380Y-117595238D01*
X190420000Y-117690476D01*
X190467619Y-117738095D01*
X190562857Y-117785714D01*
X190800952Y-117785714D01*
X190896190Y-117738095D01*
X190943809Y-117690476D01*
X190991428Y-117595238D01*
X190991428Y-117404761D01*
X190943809Y-117309523D01*
X190896190Y-117261904D01*
X190800952Y-117214285D01*
%TO.C,R44*%
X71357142Y-103882380D02*
X71023809Y-103406190D01*
X70785714Y-103882380D02*
X70785714Y-102882380D01*
X71166666Y-102882380D01*
X71261904Y-102930000D01*
X71309523Y-102977619D01*
X71357142Y-103072857D01*
X71357142Y-103215714D01*
X71309523Y-103310952D01*
X71261904Y-103358571D01*
X71166666Y-103406190D01*
X70785714Y-103406190D01*
X72214285Y-103215714D02*
X72214285Y-103882380D01*
X71976190Y-102834761D02*
X71738095Y-103549047D01*
X72357142Y-103549047D01*
X73166666Y-103215714D02*
X73166666Y-103882380D01*
X72928571Y-102834761D02*
X72690476Y-103549047D01*
X73309523Y-103549047D01*
%TO.C,R24*%
X98812142Y-108982380D02*
X98478809Y-108506190D01*
X98240714Y-108982380D02*
X98240714Y-107982380D01*
X98621666Y-107982380D01*
X98716904Y-108030000D01*
X98764523Y-108077619D01*
X98812142Y-108172857D01*
X98812142Y-108315714D01*
X98764523Y-108410952D01*
X98716904Y-108458571D01*
X98621666Y-108506190D01*
X98240714Y-108506190D01*
X99193095Y-108077619D02*
X99240714Y-108030000D01*
X99335952Y-107982380D01*
X99574047Y-107982380D01*
X99669285Y-108030000D01*
X99716904Y-108077619D01*
X99764523Y-108172857D01*
X99764523Y-108268095D01*
X99716904Y-108410952D01*
X99145476Y-108982380D01*
X99764523Y-108982380D01*
X100621666Y-108315714D02*
X100621666Y-108982380D01*
X100383571Y-107934761D02*
X100145476Y-108649047D01*
X100764523Y-108649047D01*
%TO.C,R16*%
X177022380Y-76642857D02*
X176546190Y-76976190D01*
X177022380Y-77214285D02*
X176022380Y-77214285D01*
X176022380Y-76833333D01*
X176070000Y-76738095D01*
X176117619Y-76690476D01*
X176212857Y-76642857D01*
X176355714Y-76642857D01*
X176450952Y-76690476D01*
X176498571Y-76738095D01*
X176546190Y-76833333D01*
X176546190Y-77214285D01*
X177022380Y-75690476D02*
X177022380Y-76261904D01*
X177022380Y-75976190D02*
X176022380Y-75976190D01*
X176165238Y-76071428D01*
X176260476Y-76166666D01*
X176308095Y-76261904D01*
X176022380Y-74833333D02*
X176022380Y-75023809D01*
X176070000Y-75119047D01*
X176117619Y-75166666D01*
X176260476Y-75261904D01*
X176450952Y-75309523D01*
X176831904Y-75309523D01*
X176927142Y-75261904D01*
X176974761Y-75214285D01*
X177022380Y-75119047D01*
X177022380Y-74928571D01*
X176974761Y-74833333D01*
X176927142Y-74785714D01*
X176831904Y-74738095D01*
X176593809Y-74738095D01*
X176498571Y-74785714D01*
X176450952Y-74833333D01*
X176403333Y-74928571D01*
X176403333Y-75119047D01*
X176450952Y-75214285D01*
X176498571Y-75261904D01*
X176593809Y-75309523D01*
D11*
%TO.C,J3*%
X118508666Y-132198523D02*
X118508666Y-133105666D01*
X118448190Y-133287095D01*
X118327238Y-133408047D01*
X118145809Y-133468523D01*
X118024857Y-133468523D01*
X118992476Y-132198523D02*
X119778666Y-132198523D01*
X119355333Y-132682333D01*
X119536761Y-132682333D01*
X119657714Y-132742809D01*
X119718190Y-132803285D01*
X119778666Y-132924238D01*
X119778666Y-133226619D01*
X119718190Y-133347571D01*
X119657714Y-133408047D01*
X119536761Y-133468523D01*
X119173904Y-133468523D01*
X119052952Y-133408047D01*
X118992476Y-133347571D01*
X118821666Y-140024523D02*
X118821666Y-138754523D01*
X119365952Y-138875476D02*
X119426428Y-138815000D01*
X119547380Y-138754523D01*
X119849761Y-138754523D01*
X119970714Y-138815000D01*
X120031190Y-138875476D01*
X120091666Y-138996428D01*
X120091666Y-139117380D01*
X120031190Y-139298809D01*
X119305476Y-140024523D01*
X120091666Y-140024523D01*
X121361666Y-139903571D02*
X121301190Y-139964047D01*
X121119761Y-140024523D01*
X120998809Y-140024523D01*
X120817380Y-139964047D01*
X120696428Y-139843095D01*
X120635952Y-139722142D01*
X120575476Y-139480238D01*
X120575476Y-139298809D01*
X120635952Y-139056904D01*
X120696428Y-138935952D01*
X120817380Y-138815000D01*
X120998809Y-138754523D01*
X121119761Y-138754523D01*
X121301190Y-138815000D01*
X121361666Y-138875476D01*
X121603571Y-140145476D02*
X122571190Y-140145476D01*
X122752619Y-138754523D02*
X123538809Y-138754523D01*
X123115476Y-139238333D01*
X123296904Y-139238333D01*
X123417857Y-139298809D01*
X123478333Y-139359285D01*
X123538809Y-139480238D01*
X123538809Y-139782619D01*
X123478333Y-139903571D01*
X123417857Y-139964047D01*
X123296904Y-140024523D01*
X122934047Y-140024523D01*
X122813095Y-139964047D01*
X122752619Y-139903571D01*
D10*
%TO.C,D10*%
X123285714Y-59952380D02*
X123285714Y-58952380D01*
X123523809Y-58952380D01*
X123666666Y-59000000D01*
X123761904Y-59095238D01*
X123809523Y-59190476D01*
X123857142Y-59380952D01*
X123857142Y-59523809D01*
X123809523Y-59714285D01*
X123761904Y-59809523D01*
X123666666Y-59904761D01*
X123523809Y-59952380D01*
X123285714Y-59952380D01*
X124809523Y-59952380D02*
X124238095Y-59952380D01*
X124523809Y-59952380D02*
X124523809Y-58952380D01*
X124428571Y-59095238D01*
X124333333Y-59190476D01*
X124238095Y-59238095D01*
X125428571Y-58952380D02*
X125523809Y-58952380D01*
X125619047Y-59000000D01*
X125666666Y-59047619D01*
X125714285Y-59142857D01*
X125761904Y-59333333D01*
X125761904Y-59571428D01*
X125714285Y-59761904D01*
X125666666Y-59857142D01*
X125619047Y-59904761D01*
X125523809Y-59952380D01*
X125428571Y-59952380D01*
X125333333Y-59904761D01*
X125285714Y-59857142D01*
X125238095Y-59761904D01*
X125190476Y-59571428D01*
X125190476Y-59333333D01*
X125238095Y-59142857D01*
X125285714Y-59047619D01*
X125333333Y-59000000D01*
X125428571Y-58952380D01*
%TO.C,R42*%
X71357142Y-95882380D02*
X71023809Y-95406190D01*
X70785714Y-95882380D02*
X70785714Y-94882380D01*
X71166666Y-94882380D01*
X71261904Y-94930000D01*
X71309523Y-94977619D01*
X71357142Y-95072857D01*
X71357142Y-95215714D01*
X71309523Y-95310952D01*
X71261904Y-95358571D01*
X71166666Y-95406190D01*
X70785714Y-95406190D01*
X72214285Y-95215714D02*
X72214285Y-95882380D01*
X71976190Y-94834761D02*
X71738095Y-95549047D01*
X72357142Y-95549047D01*
X72690476Y-94977619D02*
X72738095Y-94930000D01*
X72833333Y-94882380D01*
X73071428Y-94882380D01*
X73166666Y-94930000D01*
X73214285Y-94977619D01*
X73261904Y-95072857D01*
X73261904Y-95168095D01*
X73214285Y-95310952D01*
X72642857Y-95882380D01*
X73261904Y-95882380D01*
D13*
%TO.C,R20*%
X105522500Y-117245276D02*
X105522500Y-117754724D01*
X104477500Y-117245276D02*
X104477500Y-117754724D01*
D14*
%TO.C,SW5*%
X209200000Y-92700000D02*
X220800000Y-92700000D01*
X220800000Y-87300000D02*
X209200000Y-87300000D01*
X209200000Y-87300000D02*
X209200000Y-92700000D01*
X220800000Y-92700000D02*
X220800000Y-87300000D01*
%TO.C,RV2*%
X86600000Y-93400000D02*
X86600000Y-86600000D01*
X86600000Y-86600000D02*
X93400000Y-86600000D01*
X93400000Y-86600000D02*
X93400000Y-93400000D01*
X93400000Y-93400000D02*
X86600000Y-93400000D01*
D13*
%TO.C,R28*%
X116022500Y-81745276D02*
X116022500Y-82254724D01*
X114977500Y-81745276D02*
X114977500Y-82254724D01*
D12*
%TO.C,J17*%
X113250000Y-105250000D02*
X113250000Y-94750000D01*
X116750000Y-96250000D02*
X116750000Y-105250000D01*
X116750000Y-105250000D02*
X113250000Y-105250000D01*
X113250000Y-94750000D02*
X115450000Y-94750000D01*
D13*
%TO.C,J8*%
X148500000Y-88100000D02*
X149000000Y-88100000D01*
X153810000Y-88710000D02*
X153810000Y-76990000D01*
X151500000Y-88100000D02*
X151500000Y-82600000D01*
X148750000Y-79500000D02*
X148450000Y-78900000D01*
X150000000Y-88710000D02*
X153810000Y-88710000D01*
X148500000Y-82600000D02*
X148500000Y-88100000D01*
X147610000Y-76990000D02*
X147610000Y-81490000D01*
X149050000Y-78900000D02*
X148750000Y-79500000D01*
X150000000Y-88710000D02*
X146190000Y-88710000D01*
X146190000Y-88710000D02*
X146190000Y-76990000D01*
X151500000Y-82600000D02*
X151000000Y-82600000D01*
X146190000Y-76990000D02*
X147610000Y-76990000D01*
X149000000Y-82600000D02*
X148500000Y-82600000D01*
X151000000Y-88100000D02*
X151500000Y-88100000D01*
X151000000Y-82600000D02*
X151000000Y-88100000D01*
X149000000Y-88100000D02*
X149000000Y-82600000D01*
X148450000Y-78900000D02*
X149050000Y-78900000D01*
X153810000Y-76990000D02*
X152390000Y-76990000D01*
X152390000Y-76990000D02*
X152390000Y-81490000D01*
%TO.C,D4*%
X177765000Y-124200000D02*
X177765000Y-126660000D01*
X177765000Y-126660000D02*
X179235000Y-126660000D01*
X179235000Y-126660000D02*
X179235000Y-124200000D01*
%TO.C,C5*%
X169853733Y-127510000D02*
X170146267Y-127510000D01*
X169853733Y-126490000D02*
X170146267Y-126490000D01*
%TO.C,D15*%
X67200000Y-102735000D02*
X69660000Y-102735000D01*
X69660000Y-102735000D02*
X69660000Y-101265000D01*
X69660000Y-101265000D02*
X67200000Y-101265000D01*
%TO.C,U1*%
X181910000Y-67410000D02*
X181910000Y-66150000D01*
X181910000Y-60590000D02*
X181910000Y-61850000D01*
X175900000Y-60590000D02*
X181910000Y-60590000D01*
X178150000Y-67410000D02*
X181910000Y-67410000D01*
%TO.C,R23*%
X99477500Y-82254724D02*
X99477500Y-81745276D01*
X100522500Y-82254724D02*
X100522500Y-81745276D01*
%TO.C,R31*%
X185477500Y-62745276D02*
X185477500Y-63254724D01*
X186522500Y-62745276D02*
X186522500Y-63254724D01*
%TO.C,SW6*%
X211223880Y-96139200D02*
X218788000Y-96139200D01*
X218788000Y-96190000D02*
X218788000Y-103911600D01*
X211223880Y-103860800D02*
X218788000Y-103860800D01*
X211223880Y-103860800D02*
X211223880Y-96139200D01*
%TO.C,D5*%
X106040000Y-90175000D02*
X106040000Y-93035000D01*
X106040000Y-93035000D02*
X107960000Y-93035000D01*
X107960000Y-93035000D02*
X107960000Y-90175000D01*
%TO.C,R7*%
X221254724Y-83022500D02*
X220745276Y-83022500D01*
X221254724Y-81977500D02*
X220745276Y-81977500D01*
D12*
%TO.C,J14*%
X117000000Y-119800000D02*
X124500000Y-119800000D01*
X124500000Y-119800000D02*
X124500000Y-122000000D01*
X117000000Y-123300000D02*
X117000000Y-119800000D01*
X123000000Y-123300000D02*
X117000000Y-123300000D01*
D13*
%TO.C,J5*%
X147382500Y-127340000D02*
X147382500Y-125640000D01*
X154262500Y-127340000D02*
X154262500Y-134360000D01*
X153062500Y-127340000D02*
X154262500Y-127340000D01*
X145982500Y-129450000D02*
X145382500Y-129750000D01*
X153062500Y-125640000D02*
X153062500Y-127340000D01*
X145382500Y-129750000D02*
X145382500Y-129150000D01*
X147382500Y-125640000D02*
X153062500Y-125640000D01*
X146182500Y-127340000D02*
X147382500Y-127340000D01*
X146182500Y-134360000D02*
X146182500Y-127340000D01*
X154262500Y-134360000D02*
X146182500Y-134360000D01*
X145382500Y-129150000D02*
X145982500Y-129450000D01*
%TO.C,C10*%
X70510000Y-111853733D02*
X70510000Y-112146267D01*
X69490000Y-111853733D02*
X69490000Y-112146267D01*
D12*
%TO.C,J20*%
X141889095Y-108414225D02*
X140333460Y-109969860D01*
X134110920Y-105585798D02*
X136585794Y-103110924D01*
X136585794Y-103110924D02*
X141889095Y-108414225D01*
X138353561Y-109828439D02*
X134110920Y-105585798D01*
D13*
%TO.C,R14*%
X122745276Y-87477500D02*
X123254724Y-87477500D01*
X122745276Y-88522500D02*
X123254724Y-88522500D01*
%TO.C,D8*%
X101290000Y-107000000D02*
X98430000Y-107000000D01*
X98430000Y-108920000D02*
X101290000Y-108920000D01*
X101290000Y-108920000D02*
X101290000Y-107000000D01*
%TO.C,SW7*%
X91470000Y-112987500D02*
X91470000Y-111634167D01*
X88810000Y-112987500D02*
X88810000Y-111634167D01*
X91110000Y-112987500D02*
X91110000Y-111634167D01*
X89290000Y-112987500D02*
X89290000Y-111634167D01*
X89360000Y-108927500D02*
X88090000Y-108927500D01*
X88570000Y-112987500D02*
X88570000Y-111634167D01*
X90630000Y-112987500D02*
X91900000Y-112987500D01*
X91710000Y-112987500D02*
X91710000Y-111634167D01*
X86305000Y-106007500D02*
X93685000Y-106007500D01*
X90870000Y-112987500D02*
X90870000Y-111634167D01*
X88090000Y-108927500D02*
X88090000Y-112987500D01*
X90990000Y-112987500D02*
X90990000Y-111634167D01*
X90630000Y-111634167D02*
X91900000Y-111634167D01*
X89360000Y-112987500D02*
X89360000Y-108927500D01*
X91830000Y-112987500D02*
X91830000Y-111634167D01*
X88090000Y-111634167D02*
X89360000Y-111634167D01*
X91900000Y-112987500D02*
X91900000Y-108927500D01*
X91900000Y-108927500D02*
X90630000Y-108927500D01*
X91350000Y-112987500D02*
X91350000Y-111634167D01*
X88210000Y-112987500D02*
X88210000Y-111634167D01*
X86065000Y-116147500D02*
X86065000Y-114763500D01*
X88690000Y-112987500D02*
X88690000Y-111634167D01*
X86305000Y-115907500D02*
X93685000Y-115907500D01*
X88450000Y-112987500D02*
X88450000Y-111634167D01*
X86305000Y-115907500D02*
X86305000Y-106007500D01*
X88330000Y-112987500D02*
X88330000Y-111634167D01*
X91230000Y-112987500D02*
X91230000Y-111634167D01*
X90630000Y-108927500D02*
X90630000Y-112987500D01*
X89170000Y-112987500D02*
X89170000Y-111634167D01*
X88090000Y-112987500D02*
X89360000Y-112987500D01*
X90750000Y-112987500D02*
X90750000Y-111634167D01*
X93685000Y-115907500D02*
X93685000Y-106007500D01*
X88930000Y-112987500D02*
X88930000Y-111634167D01*
X86065000Y-116147500D02*
X87448000Y-116147500D01*
X91590000Y-112987500D02*
X91590000Y-111634167D01*
X89050000Y-112987500D02*
X89050000Y-111634167D01*
%TO.C,R41*%
X130477500Y-108745276D02*
X130477500Y-109254724D01*
X131522500Y-108745276D02*
X131522500Y-109254724D01*
%TO.C,R15*%
X180977500Y-125254724D02*
X180977500Y-124745276D01*
X182022500Y-125254724D02*
X182022500Y-124745276D01*
%TO.C,R34*%
X204745276Y-101522500D02*
X205254724Y-101522500D01*
X204745276Y-100477500D02*
X205254724Y-100477500D01*
%TO.C,D9*%
X113235000Y-80340000D02*
X111765000Y-80340000D01*
X111765000Y-80340000D02*
X111765000Y-82800000D01*
X113235000Y-82800000D02*
X113235000Y-80340000D01*
%TO.C,D7*%
X96265000Y-81200000D02*
X96265000Y-83660000D01*
X96265000Y-83660000D02*
X97735000Y-83660000D01*
X97735000Y-83660000D02*
X97735000Y-81200000D01*
%TO.C,Q1*%
X187240000Y-74580000D02*
X190400000Y-74580000D01*
X187240000Y-74580000D02*
X187240000Y-73650000D01*
X187240000Y-71420000D02*
X187240000Y-72350000D01*
X187240000Y-71420000D02*
X188700000Y-71420000D01*
%TO.C,J9*%
X151550000Y-120100000D02*
X150950000Y-120100000D01*
X153810000Y-110290000D02*
X153810000Y-122010000D01*
X146190000Y-122010000D02*
X147610000Y-122010000D01*
X150000000Y-110290000D02*
X153810000Y-110290000D01*
X152390000Y-122010000D02*
X152390000Y-117510000D01*
X150000000Y-110290000D02*
X146190000Y-110290000D01*
X151500000Y-116400000D02*
X151500000Y-110900000D01*
X151250000Y-119500000D02*
X151550000Y-120100000D01*
X149000000Y-116400000D02*
X149000000Y-110900000D01*
X148500000Y-116400000D02*
X149000000Y-116400000D01*
X147610000Y-122010000D02*
X147610000Y-117510000D01*
X151000000Y-116400000D02*
X151500000Y-116400000D01*
X148500000Y-110900000D02*
X148500000Y-116400000D01*
X149000000Y-110900000D02*
X148500000Y-110900000D01*
X146190000Y-110290000D02*
X146190000Y-122010000D01*
X153810000Y-122010000D02*
X152390000Y-122010000D01*
X151500000Y-110900000D02*
X151000000Y-110900000D01*
X150950000Y-120100000D02*
X151250000Y-119500000D01*
X151000000Y-110900000D02*
X151000000Y-116400000D01*
%TO.C,R8*%
X122745276Y-92477500D02*
X123254724Y-92477500D01*
X122745276Y-93522500D02*
X123254724Y-93522500D01*
%TO.C,J15*%
X163300000Y-137800000D02*
X163300000Y-140750000D01*
X163300000Y-140750000D02*
X160250000Y-140750000D01*
X164060000Y-135540000D02*
X156440000Y-135540000D01*
X157400000Y-135250000D02*
X156150000Y-135250000D01*
X164050000Y-135550000D02*
X162250000Y-135550000D01*
X156450000Y-137800000D02*
X157200000Y-137800000D01*
X162250000Y-136300000D02*
X164050000Y-136300000D01*
X156150000Y-135250000D02*
X156150000Y-136500000D01*
X158250000Y-135550000D02*
X156450000Y-135550000D01*
X159750000Y-135550000D02*
X159750000Y-136300000D01*
X156450000Y-135550000D02*
X156450000Y-136300000D01*
X164050000Y-136300000D02*
X164050000Y-135550000D01*
X156450000Y-136300000D02*
X158250000Y-136300000D01*
X162250000Y-135550000D02*
X162250000Y-136300000D01*
X159750000Y-136300000D02*
X160750000Y-136300000D01*
X157200000Y-137800000D02*
X157200000Y-140750000D01*
X157200000Y-140750000D02*
X160250000Y-140750000D01*
X158250000Y-136300000D02*
X158250000Y-135550000D01*
X164050000Y-137800000D02*
X163300000Y-137800000D01*
X156440000Y-141510000D02*
X164060000Y-141510000D01*
X160750000Y-136300000D02*
X160750000Y-135550000D01*
X156440000Y-135540000D02*
X156440000Y-141510000D01*
X160750000Y-135550000D02*
X159750000Y-135550000D01*
X164060000Y-141510000D02*
X164060000Y-135540000D01*
D14*
%TO.C,RV5*%
X76600000Y-113400000D02*
X76600000Y-106600000D01*
X83400000Y-113400000D02*
X76600000Y-113400000D01*
X83400000Y-106600000D02*
X83400000Y-113400000D01*
X76600000Y-106600000D02*
X83400000Y-106600000D01*
D13*
%TO.C,R39*%
X127254724Y-109477500D02*
X126745276Y-109477500D01*
X127254724Y-110522500D02*
X126745276Y-110522500D01*
%TO.C,R43*%
X72254724Y-98522500D02*
X71745276Y-98522500D01*
X72254724Y-97477500D02*
X71745276Y-97477500D01*
D12*
%TO.C,J23*%
X116750000Y-57750000D02*
X116750000Y-54250000D01*
X125750000Y-57750000D02*
X116750000Y-57750000D01*
X116750000Y-54250000D02*
X127250000Y-54250000D01*
X127250000Y-54250000D02*
X127250000Y-56450000D01*
D13*
%TO.C,R13*%
X126745276Y-74477500D02*
X127254724Y-74477500D01*
X126745276Y-75522500D02*
X127254724Y-75522500D01*
D14*
%TO.C,RV4*%
X86600000Y-103400000D02*
X86600000Y-96600000D01*
X86600000Y-96600000D02*
X93400000Y-96600000D01*
X93400000Y-96600000D02*
X93400000Y-103400000D01*
X93400000Y-103400000D02*
X86600000Y-103400000D01*
D13*
%TO.C,R11*%
X181080000Y-115920000D02*
X184920000Y-115920000D01*
X181080000Y-114080000D02*
X184920000Y-114080000D01*
%TO.C,SW4*%
X211190000Y-106190000D02*
X218810000Y-106190000D01*
X211190000Y-106490000D02*
X211190000Y-106190000D01*
X211190000Y-113810000D02*
X211190000Y-113510000D01*
X218810000Y-111570000D02*
X218810000Y-108430000D01*
X218810000Y-113810000D02*
X218810000Y-113510000D01*
X211190000Y-111570000D02*
X211190000Y-108430000D01*
X218810000Y-106490000D02*
X218810000Y-106190000D01*
X218810000Y-113810000D02*
X211190000Y-113810000D01*
X217540000Y-110000000D02*
G75*
G03*
X217540000Y-110000000I-2540000J0D01*
G01*
D12*
%TO.C,J21*%
X135171561Y-93353561D02*
X139414202Y-89110920D01*
X139414202Y-89110920D02*
X141889076Y-91585794D01*
X136585775Y-96889095D02*
X135030140Y-95333460D01*
X141889076Y-91585794D02*
X136585775Y-96889095D01*
D13*
%TO.C,Q2*%
X182760000Y-77580000D02*
X181300000Y-77580000D01*
X182760000Y-74420000D02*
X182760000Y-75350000D01*
X182760000Y-77580000D02*
X182760000Y-76650000D01*
X182760000Y-74420000D02*
X179600000Y-74420000D01*
%TO.C,JP1*%
X86110000Y-84760000D02*
X85000000Y-84760000D01*
X84436529Y-83240000D02*
X83890000Y-83240000D01*
X84692470Y-82035000D02*
X83890000Y-82035000D01*
X86110000Y-82035000D02*
X85307530Y-82035000D01*
X86110000Y-84000000D02*
X86110000Y-84760000D01*
X86110000Y-83240000D02*
X85563471Y-83240000D01*
X86110000Y-83240000D02*
X86110000Y-82035000D01*
X83890000Y-83240000D02*
X83890000Y-82035000D01*
%TO.C,R36*%
X230342224Y-119022500D02*
X229832776Y-119022500D01*
X230342224Y-117977500D02*
X229832776Y-117977500D01*
%TO.C,D18*%
X124265000Y-102287500D02*
X124265000Y-104747500D01*
X125735000Y-104747500D02*
X125735000Y-102287500D01*
X124265000Y-104747500D02*
X125735000Y-104747500D01*
%TO.C,R21*%
X102745276Y-111477500D02*
X103254724Y-111477500D01*
X102745276Y-112522500D02*
X103254724Y-112522500D01*
D12*
%TO.C,J16*%
X168775000Y-79775000D02*
X168775000Y-76225000D01*
X168775000Y-76225000D02*
X155225000Y-76225000D01*
X156775000Y-79775000D02*
X168775000Y-79775000D01*
X155225000Y-76225000D02*
X155225000Y-77525000D01*
D13*
%TO.C,R22*%
X98522500Y-90254724D02*
X98522500Y-89745276D01*
X97477500Y-90254724D02*
X97477500Y-89745276D01*
%TO.C,R19*%
X103832776Y-92697500D02*
X104342224Y-92697500D01*
X103832776Y-91652500D02*
X104342224Y-91652500D01*
D12*
%TO.C,J6*%
X175000000Y-140200000D02*
X167500000Y-140200000D01*
X167500000Y-140200000D02*
X167500000Y-138000000D01*
X169000000Y-136700000D02*
X175000000Y-136700000D01*
X175000000Y-136700000D02*
X175000000Y-140200000D01*
D14*
%TO.C,RV3*%
X76600000Y-96600000D02*
X83400000Y-96600000D01*
X76600000Y-103400000D02*
X76600000Y-96600000D01*
X83400000Y-96600000D02*
X83400000Y-103400000D01*
X83400000Y-103400000D02*
X76600000Y-103400000D01*
D12*
%TO.C,J2*%
X113750000Y-121250000D02*
X113750000Y-123450000D01*
X106250000Y-121250000D02*
X113750000Y-121250000D01*
X112250000Y-124750000D02*
X106250000Y-124750000D01*
X106250000Y-124750000D02*
X106250000Y-121250000D01*
D13*
%TO.C,R30*%
X178522500Y-91254724D02*
X178522500Y-90745276D01*
X177477500Y-91254724D02*
X177477500Y-90745276D01*
%TO.C,C7*%
X102146267Y-89685000D02*
X101853733Y-89685000D01*
X102146267Y-88665000D02*
X101853733Y-88665000D01*
D15*
%TO.C,U11*%
X143890000Y-121285000D02*
X126110000Y-121285000D01*
X143890000Y-132715000D02*
X126110000Y-132715000D01*
X129920000Y-129540000D02*
X129920000Y-132040000D01*
X129920000Y-124440000D02*
X140080000Y-124440000D01*
X143890000Y-132715000D02*
X143890000Y-121285000D01*
X129920000Y-121940000D02*
X140080000Y-121940000D01*
X129920000Y-124440000D02*
X129920000Y-121940000D01*
X126110000Y-132715000D02*
X126110000Y-121285000D01*
X129920000Y-129540000D02*
X140080000Y-129540000D01*
X129920000Y-132040000D02*
X140080000Y-132040000D01*
X140080000Y-132040000D02*
X140080000Y-129540000D01*
X140080000Y-121940000D02*
X140080000Y-124440000D01*
D13*
%TO.C,R10*%
X119254724Y-83477500D02*
X118745276Y-83477500D01*
X119254724Y-84522500D02*
X118745276Y-84522500D01*
D12*
%TO.C,J22*%
X131250000Y-139750000D02*
X131250000Y-136250000D01*
X131250000Y-136250000D02*
X138750000Y-136250000D01*
X138750000Y-136250000D02*
X138750000Y-138450000D01*
X137250000Y-139750000D02*
X131250000Y-139750000D01*
D13*
%TO.C,C1*%
X173490000Y-65146267D02*
X173490000Y-64853733D01*
X174510000Y-65146267D02*
X174510000Y-64853733D01*
%TO.C,D6*%
X101735000Y-115840000D02*
X100265000Y-115840000D01*
X100265000Y-115840000D02*
X100265000Y-118300000D01*
X101735000Y-118300000D02*
X101735000Y-115840000D01*
%TO.C,C2*%
X229490000Y-89146267D02*
X229490000Y-88853733D01*
X230510000Y-89146267D02*
X230510000Y-88853733D01*
D16*
%TO.C,U2*%
X130348480Y-85215640D02*
X130234180Y-85215640D01*
X121651520Y-85175000D02*
X121651520Y-78784360D01*
X121765820Y-85215640D02*
X121651520Y-85215640D01*
X130348480Y-78784360D02*
X130234180Y-78784360D01*
X121765820Y-78784360D02*
X121651520Y-78784360D01*
X130348480Y-85175000D02*
X130348480Y-78825000D01*
D17*
X130034916Y-79968000D02*
G75*
G03*
X130034916Y-79968000I-224916J0D01*
G01*
D14*
%TO.C,RV1*%
X76600000Y-93400000D02*
X76600000Y-86600000D01*
X83400000Y-93400000D02*
X76600000Y-93400000D01*
X76600000Y-86600000D02*
X83400000Y-86600000D01*
X83400000Y-86600000D02*
X83400000Y-93400000D01*
D12*
%TO.C,J24*%
X142250000Y-79750000D02*
X131750000Y-79750000D01*
X133250000Y-76250000D02*
X142250000Y-76250000D01*
X142250000Y-76250000D02*
X142250000Y-79750000D01*
X131750000Y-79750000D02*
X131750000Y-77550000D01*
D13*
%TO.C,R1*%
X224522500Y-101745276D02*
X224522500Y-102254724D01*
X223477500Y-101745276D02*
X223477500Y-102254724D01*
%TO.C,R45*%
X72254724Y-105477500D02*
X71745276Y-105477500D01*
X72254724Y-106522500D02*
X71745276Y-106522500D01*
D12*
%TO.C,J18*%
X163414206Y-96889076D02*
X158110905Y-91585775D01*
X161646439Y-90171561D02*
X165889080Y-94414202D01*
X165889080Y-94414202D02*
X163414206Y-96889076D01*
X158110905Y-91585775D02*
X159666540Y-90030140D01*
D13*
%TO.C,C9*%
X73490000Y-111853733D02*
X73490000Y-112146267D01*
X74510000Y-111853733D02*
X74510000Y-112146267D01*
%TO.C,U9*%
X194150000Y-78410000D02*
X197910000Y-78410000D01*
X197910000Y-78410000D02*
X197910000Y-77150000D01*
X191900000Y-71590000D02*
X197910000Y-71590000D01*
X197910000Y-71590000D02*
X197910000Y-72850000D01*
%TO.C,C26*%
X169853733Y-124490000D02*
X170146267Y-124490000D01*
X169853733Y-125510000D02*
X170146267Y-125510000D01*
D10*
%TO.C,U5*%
X106625000Y-103625000D02*
X106625000Y-103300000D01*
X106625000Y-96375000D02*
X106625000Y-96700000D01*
X99375000Y-103625000D02*
X99600000Y-103625000D01*
X99375000Y-96375000D02*
X99375000Y-96700000D01*
X99375000Y-96375000D02*
X99700000Y-96375000D01*
X99600000Y-103625000D02*
X99600000Y-105050000D01*
X99375000Y-103625000D02*
X99375000Y-103300000D01*
X106625000Y-103625000D02*
X106300000Y-103625000D01*
X106625000Y-96375000D02*
X106300000Y-96375000D01*
D13*
%TO.C,C4*%
X103510000Y-73146267D02*
X103510000Y-72853733D01*
X102490000Y-73146267D02*
X102490000Y-72853733D01*
%TO.C,R12*%
X132745276Y-86477500D02*
X133254724Y-86477500D01*
X132745276Y-87522500D02*
X133254724Y-87522500D01*
%TO.C,D16*%
X69660000Y-106735000D02*
X69660000Y-105265000D01*
X67200000Y-106735000D02*
X69660000Y-106735000D01*
X69660000Y-105265000D02*
X67200000Y-105265000D01*
%TO.C,R2*%
X222477500Y-97254724D02*
X222477500Y-96745276D01*
X223522500Y-97254724D02*
X223522500Y-96745276D01*
%TO.C,D13*%
X69660000Y-94735000D02*
X69660000Y-93265000D01*
X67200000Y-94735000D02*
X69660000Y-94735000D01*
X69660000Y-93265000D02*
X67200000Y-93265000D01*
D10*
%TO.C,U6*%
X114375000Y-64375000D02*
X114375000Y-64600000D01*
X114375000Y-64600000D02*
X112950000Y-64600000D01*
X121625000Y-71625000D02*
X121625000Y-71300000D01*
X121625000Y-71625000D02*
X121300000Y-71625000D01*
X121625000Y-64375000D02*
X121625000Y-64700000D01*
X121625000Y-64375000D02*
X121300000Y-64375000D01*
X114375000Y-71625000D02*
X114700000Y-71625000D01*
X114375000Y-64375000D02*
X114700000Y-64375000D01*
X114375000Y-71625000D02*
X114375000Y-71300000D01*
D12*
%TO.C,J19*%
X160585798Y-110889080D02*
X158110924Y-108414206D01*
X158110924Y-108414206D02*
X163414225Y-103110905D01*
X163414225Y-103110905D02*
X164969860Y-104666540D01*
X164828439Y-106646439D02*
X160585798Y-110889080D01*
D13*
%TO.C,R33*%
X197745276Y-100477500D02*
X198254724Y-100477500D01*
X197745276Y-101522500D02*
X198254724Y-101522500D01*
%TO.C,C20*%
X194853733Y-91510000D02*
X195146267Y-91510000D01*
X194853733Y-90490000D02*
X195146267Y-90490000D01*
%TO.C,D17*%
X143860000Y-120960000D02*
X143860000Y-119040000D01*
X141000000Y-120960000D02*
X143860000Y-120960000D01*
X143860000Y-119040000D02*
X141000000Y-119040000D01*
%TO.C,R32*%
X188477500Y-63254724D02*
X188477500Y-62745276D01*
X189522500Y-63254724D02*
X189522500Y-62745276D01*
%TO.C,D14*%
X67200000Y-98735000D02*
X69660000Y-98735000D01*
X69660000Y-98735000D02*
X69660000Y-97265000D01*
X69660000Y-97265000D02*
X67200000Y-97265000D01*
%TO.C,R38*%
X128254724Y-114522500D02*
X127745276Y-114522500D01*
X128254724Y-113477500D02*
X127745276Y-113477500D01*
D12*
%TO.C,J11*%
X117000000Y-126800000D02*
X124500000Y-126800000D01*
X123000000Y-130300000D02*
X117000000Y-130300000D01*
X124500000Y-126800000D02*
X124500000Y-129000000D01*
X117000000Y-130300000D02*
X117000000Y-126800000D01*
D13*
%TO.C,R4*%
X176254724Y-129522500D02*
X175745276Y-129522500D01*
X176254724Y-128477500D02*
X175745276Y-128477500D01*
%TO.C,U7*%
X193610000Y-103610000D02*
X192960000Y-103610000D01*
X193610000Y-96390000D02*
X192960000Y-96390000D01*
X186390000Y-102960000D02*
X186390000Y-103610000D01*
X186390000Y-96390000D02*
X187040000Y-96390000D01*
X186390000Y-103610000D02*
X187040000Y-103610000D01*
X193610000Y-102960000D02*
X193610000Y-103610000D01*
X186390000Y-97040000D02*
X186390000Y-96390000D01*
X193610000Y-97040000D02*
X193610000Y-96390000D01*
D12*
X193300000Y-96125000D02*
G75*
G03*
X193300000Y-96125000I-100000J0D01*
G01*
D13*
%TO.C,R9*%
X189920000Y-116080000D02*
X189920000Y-119920000D01*
X188080000Y-116080000D02*
X188080000Y-119920000D01*
%TO.C,R44*%
X72254724Y-102522500D02*
X71745276Y-102522500D01*
X72254724Y-101477500D02*
X71745276Y-101477500D01*
%TO.C,R24*%
X99200276Y-109437500D02*
X99709724Y-109437500D01*
X99200276Y-110482500D02*
X99709724Y-110482500D01*
%TO.C,R16*%
X178522500Y-76254724D02*
X178522500Y-75745276D01*
X177477500Y-76254724D02*
X177477500Y-75745276D01*
D12*
%TO.C,J3*%
X117250000Y-134250000D02*
X124750000Y-134250000D01*
X124750000Y-134250000D02*
X124750000Y-136450000D01*
X123250000Y-137750000D02*
X117250000Y-137750000D01*
X117250000Y-137750000D02*
X117250000Y-134250000D01*
D13*
%TO.C,D10*%
X122860000Y-58540000D02*
X120000000Y-58540000D01*
X122860000Y-60460000D02*
X122860000Y-58540000D01*
X120000000Y-60460000D02*
X122860000Y-60460000D01*
%TO.C,R42*%
X72254724Y-93477500D02*
X71745276Y-93477500D01*
X72254724Y-94522500D02*
X71745276Y-94522500D01*
%TD*%
M02*
