G04 #@! TF.GenerationSoftware,KiCad,Pcbnew,(6.0.1)*
G04 #@! TF.CreationDate,2022-02-25T12:40:39+09:00*
G04 #@! TF.ProjectId,main20220221,6d61696e-3230-4323-9230-3232312e6b69,rev?*
G04 #@! TF.SameCoordinates,Original*
G04 #@! TF.FileFunction,Legend,Top*
G04 #@! TF.FilePolarity,Positive*
%FSLAX46Y46*%
G04 Gerber Fmt 4.6, Leading zero omitted, Abs format (unit mm)*
G04 Created by KiCad (PCBNEW (6.0.1)) date 2022-02-25 12:40:39*
%MOMM*%
%LPD*%
G01*
G04 APERTURE LIST*
%ADD10C,0.300000*%
%ADD11C,0.250000*%
%ADD12C,0.150000*%
%ADD13C,0.254000*%
%ADD14C,0.200000*%
%ADD15C,0.120000*%
%ADD16C,0.100000*%
%ADD17C,0.149860*%
%ADD18C,0.381000*%
G04 APERTURE END LIST*
D10*
X131821428Y-132678571D02*
X133321428Y-132678571D01*
X133321428Y-133035714D01*
X133250000Y-133250000D01*
X133107142Y-133392857D01*
X132964285Y-133464285D01*
X132678571Y-133535714D01*
X132464285Y-133535714D01*
X132178571Y-133464285D01*
X132035714Y-133392857D01*
X131892857Y-133250000D01*
X131821428Y-133035714D01*
X131821428Y-132678571D01*
X132392857Y-134178571D02*
X132392857Y-135321428D01*
X140750000Y-132857142D02*
X140821428Y-132714285D01*
X140821428Y-132500000D01*
X140750000Y-132285714D01*
X140607142Y-132142857D01*
X140464285Y-132071428D01*
X140178571Y-132000000D01*
X139964285Y-132000000D01*
X139678571Y-132071428D01*
X139535714Y-132142857D01*
X139392857Y-132285714D01*
X139321428Y-132500000D01*
X139321428Y-132642857D01*
X139392857Y-132857142D01*
X139464285Y-132928571D01*
X139964285Y-132928571D01*
X139964285Y-132642857D01*
X139321428Y-133571428D02*
X140821428Y-133571428D01*
X139321428Y-134428571D01*
X140821428Y-134428571D01*
X139321428Y-135142857D02*
X140821428Y-135142857D01*
X140821428Y-135500000D01*
X140750000Y-135714285D01*
X140607142Y-135857142D01*
X140464285Y-135928571D01*
X140178571Y-136000000D01*
X139964285Y-136000000D01*
X139678571Y-135928571D01*
X139535714Y-135857142D01*
X139392857Y-135714285D01*
X139321428Y-135500000D01*
X139321428Y-135142857D01*
X136821428Y-133250000D02*
X138321428Y-133250000D01*
X136821428Y-133964285D02*
X138321428Y-133964285D01*
X138321428Y-134321428D01*
X138250000Y-134535714D01*
X138107142Y-134678571D01*
X137964285Y-134750000D01*
X137678571Y-134821428D01*
X137464285Y-134821428D01*
X137178571Y-134750000D01*
X137035714Y-134678571D01*
X136892857Y-134535714D01*
X136821428Y-134321428D01*
X136821428Y-133964285D01*
X134321428Y-132678571D02*
X135821428Y-132678571D01*
X135821428Y-133035714D01*
X135750000Y-133250000D01*
X135607142Y-133392857D01*
X135464285Y-133464285D01*
X135178571Y-133535714D01*
X134964285Y-133535714D01*
X134678571Y-133464285D01*
X134535714Y-133392857D01*
X134392857Y-133250000D01*
X134321428Y-133035714D01*
X134321428Y-132678571D01*
X134892857Y-134178571D02*
X134892857Y-135321428D01*
X134321428Y-134750000D02*
X135464285Y-134750000D01*
X130821428Y-132000000D02*
X129321428Y-132500000D01*
X130821428Y-133000000D01*
X129464285Y-134357142D02*
X129392857Y-134285714D01*
X129321428Y-134071428D01*
X129321428Y-133928571D01*
X129392857Y-133714285D01*
X129535714Y-133571428D01*
X129678571Y-133500000D01*
X129964285Y-133428571D01*
X130178571Y-133428571D01*
X130464285Y-133500000D01*
X130607142Y-133571428D01*
X130750000Y-133714285D01*
X130821428Y-133928571D01*
X130821428Y-134071428D01*
X130750000Y-134285714D01*
X130678571Y-134357142D01*
X129464285Y-135857142D02*
X129392857Y-135785714D01*
X129321428Y-135571428D01*
X129321428Y-135428571D01*
X129392857Y-135214285D01*
X129535714Y-135071428D01*
X129678571Y-135000000D01*
X129964285Y-134928571D01*
X130178571Y-134928571D01*
X130464285Y-135000000D01*
X130607142Y-135071428D01*
X130750000Y-135214285D01*
X130821428Y-135428571D01*
X130821428Y-135571428D01*
X130750000Y-135785714D01*
X130678571Y-135857142D01*
D11*
X104400595Y-53842380D02*
X104400595Y-52842380D01*
X104733928Y-53556666D01*
X105067261Y-52842380D01*
X105067261Y-53842380D01*
X105972023Y-53842380D02*
X105972023Y-53318571D01*
X105924404Y-53223333D01*
X105829166Y-53175714D01*
X105638690Y-53175714D01*
X105543452Y-53223333D01*
X105972023Y-53794761D02*
X105876785Y-53842380D01*
X105638690Y-53842380D01*
X105543452Y-53794761D01*
X105495833Y-53699523D01*
X105495833Y-53604285D01*
X105543452Y-53509047D01*
X105638690Y-53461428D01*
X105876785Y-53461428D01*
X105972023Y-53413809D01*
X106448214Y-53842380D02*
X106448214Y-53175714D01*
X106448214Y-52842380D02*
X106400595Y-52890000D01*
X106448214Y-52937619D01*
X106495833Y-52890000D01*
X106448214Y-52842380D01*
X106448214Y-52937619D01*
X106924404Y-53175714D02*
X106924404Y-53842380D01*
X106924404Y-53270952D02*
X106972023Y-53223333D01*
X107067261Y-53175714D01*
X107210119Y-53175714D01*
X107305357Y-53223333D01*
X107352976Y-53318571D01*
X107352976Y-53842380D01*
X108162500Y-53318571D02*
X108305357Y-53366190D01*
X108352976Y-53413809D01*
X108400595Y-53509047D01*
X108400595Y-53651904D01*
X108352976Y-53747142D01*
X108305357Y-53794761D01*
X108210119Y-53842380D01*
X107829166Y-53842380D01*
X107829166Y-52842380D01*
X108162500Y-52842380D01*
X108257738Y-52890000D01*
X108305357Y-52937619D01*
X108352976Y-53032857D01*
X108352976Y-53128095D01*
X108305357Y-53223333D01*
X108257738Y-53270952D01*
X108162500Y-53318571D01*
X107829166Y-53318571D01*
X108972023Y-53842380D02*
X108876785Y-53794761D01*
X108829166Y-53747142D01*
X108781547Y-53651904D01*
X108781547Y-53366190D01*
X108829166Y-53270952D01*
X108876785Y-53223333D01*
X108972023Y-53175714D01*
X109114880Y-53175714D01*
X109210119Y-53223333D01*
X109257738Y-53270952D01*
X109305357Y-53366190D01*
X109305357Y-53651904D01*
X109257738Y-53747142D01*
X109210119Y-53794761D01*
X109114880Y-53842380D01*
X108972023Y-53842380D01*
X110162500Y-53842380D02*
X110162500Y-53318571D01*
X110114880Y-53223333D01*
X110019642Y-53175714D01*
X109829166Y-53175714D01*
X109733928Y-53223333D01*
X110162500Y-53794761D02*
X110067261Y-53842380D01*
X109829166Y-53842380D01*
X109733928Y-53794761D01*
X109686309Y-53699523D01*
X109686309Y-53604285D01*
X109733928Y-53509047D01*
X109829166Y-53461428D01*
X110067261Y-53461428D01*
X110162500Y-53413809D01*
X110638690Y-53842380D02*
X110638690Y-53175714D01*
X110638690Y-53366190D02*
X110686309Y-53270952D01*
X110733928Y-53223333D01*
X110829166Y-53175714D01*
X110924404Y-53175714D01*
X111686309Y-53842380D02*
X111686309Y-52842380D01*
X111686309Y-53794761D02*
X111591071Y-53842380D01*
X111400595Y-53842380D01*
X111305357Y-53794761D01*
X111257738Y-53747142D01*
X111210119Y-53651904D01*
X111210119Y-53366190D01*
X111257738Y-53270952D01*
X111305357Y-53223333D01*
X111400595Y-53175714D01*
X111591071Y-53175714D01*
X111686309Y-53223333D01*
X104733928Y-54928571D02*
X104400595Y-54928571D01*
X104400595Y-55452380D02*
X104400595Y-54452380D01*
X104876785Y-54452380D01*
X105638690Y-55404761D02*
X105543452Y-55452380D01*
X105352976Y-55452380D01*
X105257738Y-55404761D01*
X105210119Y-55309523D01*
X105210119Y-54928571D01*
X105257738Y-54833333D01*
X105352976Y-54785714D01*
X105543452Y-54785714D01*
X105638690Y-54833333D01*
X105686309Y-54928571D01*
X105686309Y-55023809D01*
X105210119Y-55119047D01*
X106114880Y-55452380D02*
X106114880Y-54452380D01*
X106114880Y-54833333D02*
X106210119Y-54785714D01*
X106400595Y-54785714D01*
X106495833Y-54833333D01*
X106543452Y-54880952D01*
X106591071Y-54976190D01*
X106591071Y-55261904D01*
X106543452Y-55357142D01*
X106495833Y-55404761D01*
X106400595Y-55452380D01*
X106210119Y-55452380D01*
X106114880Y-55404761D01*
X107019642Y-55357142D02*
X107067261Y-55404761D01*
X107019642Y-55452380D01*
X106972023Y-55404761D01*
X107019642Y-55357142D01*
X107019642Y-55452380D01*
X107448214Y-54547619D02*
X107495833Y-54500000D01*
X107591071Y-54452380D01*
X107829166Y-54452380D01*
X107924404Y-54500000D01*
X107972023Y-54547619D01*
X108019642Y-54642857D01*
X108019642Y-54738095D01*
X107972023Y-54880952D01*
X107400595Y-55452380D01*
X108019642Y-55452380D01*
X108638690Y-54452380D02*
X108733928Y-54452380D01*
X108829166Y-54500000D01*
X108876785Y-54547619D01*
X108924404Y-54642857D01*
X108972023Y-54833333D01*
X108972023Y-55071428D01*
X108924404Y-55261904D01*
X108876785Y-55357142D01*
X108829166Y-55404761D01*
X108733928Y-55452380D01*
X108638690Y-55452380D01*
X108543452Y-55404761D01*
X108495833Y-55357142D01*
X108448214Y-55261904D01*
X108400595Y-55071428D01*
X108400595Y-54833333D01*
X108448214Y-54642857D01*
X108495833Y-54547619D01*
X108543452Y-54500000D01*
X108638690Y-54452380D01*
X109352976Y-54547619D02*
X109400595Y-54500000D01*
X109495833Y-54452380D01*
X109733928Y-54452380D01*
X109829166Y-54500000D01*
X109876785Y-54547619D01*
X109924404Y-54642857D01*
X109924404Y-54738095D01*
X109876785Y-54880952D01*
X109305357Y-55452380D01*
X109924404Y-55452380D01*
X110305357Y-54547619D02*
X110352976Y-54500000D01*
X110448214Y-54452380D01*
X110686309Y-54452380D01*
X110781547Y-54500000D01*
X110829166Y-54547619D01*
X110876785Y-54642857D01*
X110876785Y-54738095D01*
X110829166Y-54880952D01*
X110257738Y-55452380D01*
X110876785Y-55452380D01*
X104400595Y-57062380D02*
X104400595Y-56062380D01*
X104400595Y-56443333D02*
X104495833Y-56395714D01*
X104686309Y-56395714D01*
X104781547Y-56443333D01*
X104829166Y-56490952D01*
X104876785Y-56586190D01*
X104876785Y-56871904D01*
X104829166Y-56967142D01*
X104781547Y-57014761D01*
X104686309Y-57062380D01*
X104495833Y-57062380D01*
X104400595Y-57014761D01*
X105210119Y-56395714D02*
X105448214Y-57062380D01*
X105686309Y-56395714D02*
X105448214Y-57062380D01*
X105352976Y-57300476D01*
X105305357Y-57348095D01*
X105210119Y-57395714D01*
X106781547Y-56776666D02*
X107257738Y-56776666D01*
X106686309Y-57062380D02*
X107019642Y-56062380D01*
X107352976Y-57062380D01*
X107686309Y-56967142D02*
X107733928Y-57014761D01*
X107686309Y-57062380D01*
X107638690Y-57014761D01*
X107686309Y-56967142D01*
X107686309Y-57062380D01*
X108114880Y-57014761D02*
X108257738Y-57062380D01*
X108495833Y-57062380D01*
X108591071Y-57014761D01*
X108638690Y-56967142D01*
X108686309Y-56871904D01*
X108686309Y-56776666D01*
X108638690Y-56681428D01*
X108591071Y-56633809D01*
X108495833Y-56586190D01*
X108305357Y-56538571D01*
X108210119Y-56490952D01*
X108162500Y-56443333D01*
X108114880Y-56348095D01*
X108114880Y-56252857D01*
X108162500Y-56157619D01*
X108210119Y-56110000D01*
X108305357Y-56062380D01*
X108543452Y-56062380D01*
X108686309Y-56110000D01*
X109543452Y-57062380D02*
X109543452Y-56538571D01*
X109495833Y-56443333D01*
X109400595Y-56395714D01*
X109210119Y-56395714D01*
X109114880Y-56443333D01*
X109543452Y-57014761D02*
X109448214Y-57062380D01*
X109210119Y-57062380D01*
X109114880Y-57014761D01*
X109067261Y-56919523D01*
X109067261Y-56824285D01*
X109114880Y-56729047D01*
X109210119Y-56681428D01*
X109448214Y-56681428D01*
X109543452Y-56633809D01*
X110400595Y-57014761D02*
X110305357Y-57062380D01*
X110114880Y-57062380D01*
X110019642Y-57014761D01*
X109972023Y-56919523D01*
X109972023Y-56538571D01*
X110019642Y-56443333D01*
X110114880Y-56395714D01*
X110305357Y-56395714D01*
X110400595Y-56443333D01*
X110448214Y-56538571D01*
X110448214Y-56633809D01*
X109972023Y-56729047D01*
X110876785Y-57062380D02*
X110876785Y-56062380D01*
X110972023Y-56681428D02*
X111257738Y-57062380D01*
X111257738Y-56395714D02*
X110876785Y-56776666D01*
X111686309Y-57062380D02*
X111686309Y-56395714D01*
X111686309Y-56062380D02*
X111638690Y-56110000D01*
X111686309Y-56157619D01*
X111733928Y-56110000D01*
X111686309Y-56062380D01*
X111686309Y-56157619D01*
D12*
X63357142Y-75757380D02*
X63023809Y-75281190D01*
X62785714Y-75757380D02*
X62785714Y-74757380D01*
X63166666Y-74757380D01*
X63261904Y-74805000D01*
X63309523Y-74852619D01*
X63357142Y-74947857D01*
X63357142Y-75090714D01*
X63309523Y-75185952D01*
X63261904Y-75233571D01*
X63166666Y-75281190D01*
X62785714Y-75281190D01*
X63738095Y-74852619D02*
X63785714Y-74805000D01*
X63880952Y-74757380D01*
X64119047Y-74757380D01*
X64214285Y-74805000D01*
X64261904Y-74852619D01*
X64309523Y-74947857D01*
X64309523Y-75043095D01*
X64261904Y-75185952D01*
X63690476Y-75757380D01*
X64309523Y-75757380D01*
X64690476Y-74852619D02*
X64738095Y-74805000D01*
X64833333Y-74757380D01*
X65071428Y-74757380D01*
X65166666Y-74805000D01*
X65214285Y-74852619D01*
X65261904Y-74947857D01*
X65261904Y-75043095D01*
X65214285Y-75185952D01*
X64642857Y-75757380D01*
X65261904Y-75757380D01*
X59261904Y-73757380D02*
X59261904Y-72757380D01*
X59500000Y-72757380D01*
X59642857Y-72805000D01*
X59738095Y-72900238D01*
X59785714Y-72995476D01*
X59833333Y-73185952D01*
X59833333Y-73328809D01*
X59785714Y-73519285D01*
X59738095Y-73614523D01*
X59642857Y-73709761D01*
X59500000Y-73757380D01*
X59261904Y-73757380D01*
X60738095Y-72757380D02*
X60261904Y-72757380D01*
X60214285Y-73233571D01*
X60261904Y-73185952D01*
X60357142Y-73138333D01*
X60595238Y-73138333D01*
X60690476Y-73185952D01*
X60738095Y-73233571D01*
X60785714Y-73328809D01*
X60785714Y-73566904D01*
X60738095Y-73662142D01*
X60690476Y-73709761D01*
X60595238Y-73757380D01*
X60357142Y-73757380D01*
X60261904Y-73709761D01*
X60214285Y-73662142D01*
X144404761Y-69647619D02*
X144309523Y-69600000D01*
X144214285Y-69504761D01*
X144071428Y-69361904D01*
X143976190Y-69314285D01*
X143880952Y-69314285D01*
X143928571Y-69552380D02*
X143833333Y-69504761D01*
X143738095Y-69409523D01*
X143690476Y-69219047D01*
X143690476Y-68885714D01*
X143738095Y-68695238D01*
X143833333Y-68600000D01*
X143928571Y-68552380D01*
X144119047Y-68552380D01*
X144214285Y-68600000D01*
X144309523Y-68695238D01*
X144357142Y-68885714D01*
X144357142Y-69219047D01*
X144309523Y-69409523D01*
X144214285Y-69504761D01*
X144119047Y-69552380D01*
X143928571Y-69552380D01*
X145309523Y-69552380D02*
X144738095Y-69552380D01*
X145023809Y-69552380D02*
X145023809Y-68552380D01*
X144928571Y-68695238D01*
X144833333Y-68790476D01*
X144738095Y-68838095D01*
X145532380Y-42626666D02*
X145056190Y-42960000D01*
X145532380Y-43198095D02*
X144532380Y-43198095D01*
X144532380Y-42817142D01*
X144580000Y-42721904D01*
X144627619Y-42674285D01*
X144722857Y-42626666D01*
X144865714Y-42626666D01*
X144960952Y-42674285D01*
X145008571Y-42721904D01*
X145056190Y-42817142D01*
X145056190Y-43198095D01*
X144627619Y-42245714D02*
X144580000Y-42198095D01*
X144532380Y-42102857D01*
X144532380Y-41864761D01*
X144580000Y-41769523D01*
X144627619Y-41721904D01*
X144722857Y-41674285D01*
X144818095Y-41674285D01*
X144960952Y-41721904D01*
X145532380Y-42293333D01*
X145532380Y-41674285D01*
X168261904Y-101952380D02*
X168261904Y-100952380D01*
X168500000Y-100952380D01*
X168642857Y-101000000D01*
X168738095Y-101095238D01*
X168785714Y-101190476D01*
X168833333Y-101380952D01*
X168833333Y-101523809D01*
X168785714Y-101714285D01*
X168738095Y-101809523D01*
X168642857Y-101904761D01*
X168500000Y-101952380D01*
X168261904Y-101952380D01*
X169785714Y-101952380D02*
X169214285Y-101952380D01*
X169500000Y-101952380D02*
X169500000Y-100952380D01*
X169404761Y-101095238D01*
X169309523Y-101190476D01*
X169214285Y-101238095D01*
D13*
X123471904Y-80825523D02*
X123471904Y-81732666D01*
X123411428Y-81914095D01*
X123290476Y-82035047D01*
X123109047Y-82095523D01*
X122988095Y-82095523D01*
X124741904Y-82095523D02*
X124016190Y-82095523D01*
X124379047Y-82095523D02*
X124379047Y-80825523D01*
X124258095Y-81006952D01*
X124137142Y-81127904D01*
X124016190Y-81188380D01*
X125890952Y-80825523D02*
X125286190Y-80825523D01*
X125225714Y-81430285D01*
X125286190Y-81369809D01*
X125407142Y-81309333D01*
X125709523Y-81309333D01*
X125830476Y-81369809D01*
X125890952Y-81430285D01*
X125951428Y-81551238D01*
X125951428Y-81853619D01*
X125890952Y-81974571D01*
X125830476Y-82035047D01*
X125709523Y-82095523D01*
X125407142Y-82095523D01*
X125286190Y-82035047D01*
X125225714Y-81974571D01*
D12*
X137312380Y-146809523D02*
X138026666Y-146809523D01*
X138169523Y-146857142D01*
X138264761Y-146952380D01*
X138312380Y-147095238D01*
X138312380Y-147190476D01*
X138312380Y-145809523D02*
X138312380Y-146380952D01*
X138312380Y-146095238D02*
X137312380Y-146095238D01*
X137455238Y-146190476D01*
X137550476Y-146285714D01*
X137598095Y-146380952D01*
X137407619Y-145428571D02*
X137360000Y-145380952D01*
X137312380Y-145285714D01*
X137312380Y-145047619D01*
X137360000Y-144952380D01*
X137407619Y-144904761D01*
X137502857Y-144857142D01*
X137598095Y-144857142D01*
X137740952Y-144904761D01*
X138312380Y-145476190D01*
X138312380Y-144857142D01*
X55261904Y-76617380D02*
X55261904Y-75617380D01*
X55500000Y-75617380D01*
X55642857Y-75665000D01*
X55738095Y-75760238D01*
X55785714Y-75855476D01*
X55833333Y-76045952D01*
X55833333Y-76188809D01*
X55785714Y-76379285D01*
X55738095Y-76474523D01*
X55642857Y-76569761D01*
X55500000Y-76617380D01*
X55261904Y-76617380D01*
X56690476Y-75950714D02*
X56690476Y-76617380D01*
X56452380Y-75569761D02*
X56214285Y-76284047D01*
X56833333Y-76284047D01*
X63746666Y-103904285D02*
X63746666Y-103428095D01*
X64032380Y-103999523D02*
X63032380Y-103666190D01*
X64032380Y-103332857D01*
X63032380Y-102999523D02*
X63841904Y-102999523D01*
X63937142Y-102951904D01*
X63984761Y-102904285D01*
X64032380Y-102809047D01*
X64032380Y-102618571D01*
X63984761Y-102523333D01*
X63937142Y-102475714D01*
X63841904Y-102428095D01*
X63032380Y-102428095D01*
X63032380Y-102047142D02*
X64032380Y-101380476D01*
X63032380Y-101380476D02*
X64032380Y-102047142D01*
X64032380Y-100475714D02*
X64032380Y-101047142D01*
X64032380Y-100761428D02*
X63032380Y-100761428D01*
X63175238Y-100856666D01*
X63270476Y-100951904D01*
X63318095Y-101047142D01*
X75357142Y-98022380D02*
X75023809Y-97546190D01*
X74785714Y-98022380D02*
X74785714Y-97022380D01*
X75166666Y-97022380D01*
X75261904Y-97070000D01*
X75309523Y-97117619D01*
X75357142Y-97212857D01*
X75357142Y-97355714D01*
X75309523Y-97450952D01*
X75261904Y-97498571D01*
X75166666Y-97546190D01*
X74785714Y-97546190D01*
X75738095Y-97117619D02*
X75785714Y-97070000D01*
X75880952Y-97022380D01*
X76119047Y-97022380D01*
X76214285Y-97070000D01*
X76261904Y-97117619D01*
X76309523Y-97212857D01*
X76309523Y-97308095D01*
X76261904Y-97450952D01*
X75690476Y-98022380D01*
X76309523Y-98022380D01*
X77166666Y-97355714D02*
X77166666Y-98022380D01*
X76928571Y-96974761D02*
X76690476Y-97689047D01*
X77309523Y-97689047D01*
X144404761Y-74147619D02*
X144309523Y-74100000D01*
X144214285Y-74004761D01*
X144071428Y-73861904D01*
X143976190Y-73814285D01*
X143880952Y-73814285D01*
X143928571Y-74052380D02*
X143833333Y-74004761D01*
X143738095Y-73909523D01*
X143690476Y-73719047D01*
X143690476Y-73385714D01*
X143738095Y-73195238D01*
X143833333Y-73100000D01*
X143928571Y-73052380D01*
X144119047Y-73052380D01*
X144214285Y-73100000D01*
X144309523Y-73195238D01*
X144357142Y-73385714D01*
X144357142Y-73719047D01*
X144309523Y-73909523D01*
X144214285Y-74004761D01*
X144119047Y-74052380D01*
X143928571Y-74052380D01*
X144738095Y-73147619D02*
X144785714Y-73100000D01*
X144880952Y-73052380D01*
X145119047Y-73052380D01*
X145214285Y-73100000D01*
X145261904Y-73147619D01*
X145309523Y-73242857D01*
X145309523Y-73338095D01*
X145261904Y-73480952D01*
X144690476Y-74052380D01*
X145309523Y-74052380D01*
X121920833Y-38022380D02*
X121587500Y-37546190D01*
X121349404Y-38022380D02*
X121349404Y-37022380D01*
X121730357Y-37022380D01*
X121825595Y-37070000D01*
X121873214Y-37117619D01*
X121920833Y-37212857D01*
X121920833Y-37355714D01*
X121873214Y-37450952D01*
X121825595Y-37498571D01*
X121730357Y-37546190D01*
X121349404Y-37546190D01*
X122777976Y-37022380D02*
X122587500Y-37022380D01*
X122492261Y-37070000D01*
X122444642Y-37117619D01*
X122349404Y-37260476D01*
X122301785Y-37450952D01*
X122301785Y-37831904D01*
X122349404Y-37927142D01*
X122397023Y-37974761D01*
X122492261Y-38022380D01*
X122682738Y-38022380D01*
X122777976Y-37974761D01*
X122825595Y-37927142D01*
X122873214Y-37831904D01*
X122873214Y-37593809D01*
X122825595Y-37498571D01*
X122777976Y-37450952D01*
X122682738Y-37403333D01*
X122492261Y-37403333D01*
X122397023Y-37450952D01*
X122349404Y-37498571D01*
X122301785Y-37593809D01*
X75357142Y-102022380D02*
X75023809Y-101546190D01*
X74785714Y-102022380D02*
X74785714Y-101022380D01*
X75166666Y-101022380D01*
X75261904Y-101070000D01*
X75309523Y-101117619D01*
X75357142Y-101212857D01*
X75357142Y-101355714D01*
X75309523Y-101450952D01*
X75261904Y-101498571D01*
X75166666Y-101546190D01*
X74785714Y-101546190D01*
X75738095Y-101117619D02*
X75785714Y-101070000D01*
X75880952Y-101022380D01*
X76119047Y-101022380D01*
X76214285Y-101070000D01*
X76261904Y-101117619D01*
X76309523Y-101212857D01*
X76309523Y-101308095D01*
X76261904Y-101450952D01*
X75690476Y-102022380D01*
X76309523Y-102022380D01*
X77214285Y-101022380D02*
X76738095Y-101022380D01*
X76690476Y-101498571D01*
X76738095Y-101450952D01*
X76833333Y-101403333D01*
X77071428Y-101403333D01*
X77166666Y-101450952D01*
X77214285Y-101498571D01*
X77261904Y-101593809D01*
X77261904Y-101831904D01*
X77214285Y-101927142D01*
X77166666Y-101974761D01*
X77071428Y-102022380D01*
X76833333Y-102022380D01*
X76738095Y-101974761D01*
X76690476Y-101927142D01*
X99269642Y-69022380D02*
X98936309Y-68546190D01*
X98698214Y-69022380D02*
X98698214Y-68022380D01*
X99079166Y-68022380D01*
X99174404Y-68070000D01*
X99222023Y-68117619D01*
X99269642Y-68212857D01*
X99269642Y-68355714D01*
X99222023Y-68450952D01*
X99174404Y-68498571D01*
X99079166Y-68546190D01*
X98698214Y-68546190D01*
X100222023Y-69022380D02*
X99650595Y-69022380D01*
X99936309Y-69022380D02*
X99936309Y-68022380D01*
X99841071Y-68165238D01*
X99745833Y-68260476D01*
X99650595Y-68308095D01*
X101126785Y-68022380D02*
X100650595Y-68022380D01*
X100602976Y-68498571D01*
X100650595Y-68450952D01*
X100745833Y-68403333D01*
X100983928Y-68403333D01*
X101079166Y-68450952D01*
X101126785Y-68498571D01*
X101174404Y-68593809D01*
X101174404Y-68831904D01*
X101126785Y-68927142D01*
X101079166Y-68974761D01*
X100983928Y-69022380D01*
X100745833Y-69022380D01*
X100650595Y-68974761D01*
X100602976Y-68927142D01*
X113304761Y-147333333D02*
X113352380Y-147190476D01*
X113352380Y-146952380D01*
X113304761Y-146857142D01*
X113257142Y-146809523D01*
X113161904Y-146761904D01*
X113066666Y-146761904D01*
X112971428Y-146809523D01*
X112923809Y-146857142D01*
X112876190Y-146952380D01*
X112828571Y-147142857D01*
X112780952Y-147238095D01*
X112733333Y-147285714D01*
X112638095Y-147333333D01*
X112542857Y-147333333D01*
X112447619Y-147285714D01*
X112400000Y-147238095D01*
X112352380Y-147142857D01*
X112352380Y-146904761D01*
X112400000Y-146761904D01*
X112352380Y-146428571D02*
X113352380Y-146190476D01*
X112638095Y-146000000D01*
X113352380Y-145809523D01*
X112352380Y-145571428D01*
X112352380Y-144714285D02*
X112352380Y-145190476D01*
X112828571Y-145238095D01*
X112780952Y-145190476D01*
X112733333Y-145095238D01*
X112733333Y-144857142D01*
X112780952Y-144761904D01*
X112828571Y-144714285D01*
X112923809Y-144666666D01*
X113161904Y-144666666D01*
X113257142Y-144714285D01*
X113304761Y-144761904D01*
X113352380Y-144857142D01*
X113352380Y-145095238D01*
X113304761Y-145190476D01*
X113257142Y-145238095D01*
D13*
X58172047Y-80330523D02*
X57748714Y-79725761D01*
X57446333Y-80330523D02*
X57446333Y-79060523D01*
X57930142Y-79060523D01*
X58051095Y-79121000D01*
X58111571Y-79181476D01*
X58172047Y-79302428D01*
X58172047Y-79483857D01*
X58111571Y-79604809D01*
X58051095Y-79665285D01*
X57930142Y-79725761D01*
X57446333Y-79725761D01*
X58534904Y-79060523D02*
X58958238Y-80330523D01*
X59381571Y-79060523D01*
X59744428Y-79181476D02*
X59804904Y-79121000D01*
X59925857Y-79060523D01*
X60228238Y-79060523D01*
X60349190Y-79121000D01*
X60409666Y-79181476D01*
X60470142Y-79302428D01*
X60470142Y-79423380D01*
X60409666Y-79604809D01*
X59683952Y-80330523D01*
X60470142Y-80330523D01*
D12*
X126357142Y-153882380D02*
X126023809Y-153406190D01*
X125785714Y-153882380D02*
X125785714Y-152882380D01*
X126166666Y-152882380D01*
X126261904Y-152930000D01*
X126309523Y-152977619D01*
X126357142Y-153072857D01*
X126357142Y-153215714D01*
X126309523Y-153310952D01*
X126261904Y-153358571D01*
X126166666Y-153406190D01*
X125785714Y-153406190D01*
X126738095Y-152977619D02*
X126785714Y-152930000D01*
X126880952Y-152882380D01*
X127119047Y-152882380D01*
X127214285Y-152930000D01*
X127261904Y-152977619D01*
X127309523Y-153072857D01*
X127309523Y-153168095D01*
X127261904Y-153310952D01*
X126690476Y-153882380D01*
X127309523Y-153882380D01*
X128166666Y-152882380D02*
X127976190Y-152882380D01*
X127880952Y-152930000D01*
X127833333Y-152977619D01*
X127738095Y-153120476D01*
X127690476Y-153310952D01*
X127690476Y-153691904D01*
X127738095Y-153787142D01*
X127785714Y-153834761D01*
X127880952Y-153882380D01*
X128071428Y-153882380D01*
X128166666Y-153834761D01*
X128214285Y-153787142D01*
X128261904Y-153691904D01*
X128261904Y-153453809D01*
X128214285Y-153358571D01*
X128166666Y-153310952D01*
X128071428Y-153263333D01*
X127880952Y-153263333D01*
X127785714Y-153310952D01*
X127738095Y-153358571D01*
X127690476Y-153453809D01*
X124579307Y-94565498D02*
X125084383Y-94060422D01*
X125219070Y-93993079D01*
X125353757Y-93993079D01*
X125488444Y-94060422D01*
X125555788Y-94127766D01*
X124579307Y-93151285D02*
X124983368Y-93555346D01*
X124781338Y-93353315D02*
X124074231Y-94060422D01*
X124242590Y-94026750D01*
X124377277Y-94026750D01*
X124478292Y-94060422D01*
X123771185Y-93151285D02*
X123804857Y-93252300D01*
X123804857Y-93319644D01*
X123771185Y-93420659D01*
X123737513Y-93454331D01*
X123636498Y-93488002D01*
X123569155Y-93488002D01*
X123468139Y-93454331D01*
X123333452Y-93319644D01*
X123299781Y-93218628D01*
X123299781Y-93151285D01*
X123333452Y-93050270D01*
X123367124Y-93016598D01*
X123468139Y-92982926D01*
X123535483Y-92982926D01*
X123636498Y-93016598D01*
X123771185Y-93151285D01*
X123872200Y-93184957D01*
X123939544Y-93184957D01*
X124040559Y-93151285D01*
X124175246Y-93016598D01*
X124208918Y-92915583D01*
X124208918Y-92848239D01*
X124175246Y-92747224D01*
X124040559Y-92612537D01*
X123939544Y-92578865D01*
X123872200Y-92578865D01*
X123771185Y-92612537D01*
X123636498Y-92747224D01*
X123602826Y-92848239D01*
X123602826Y-92915583D01*
X123636498Y-93016598D01*
X143833333Y-44927142D02*
X143785714Y-44974761D01*
X143642857Y-45022380D01*
X143547619Y-45022380D01*
X143404761Y-44974761D01*
X143309523Y-44879523D01*
X143261904Y-44784285D01*
X143214285Y-44593809D01*
X143214285Y-44450952D01*
X143261904Y-44260476D01*
X143309523Y-44165238D01*
X143404761Y-44070000D01*
X143547619Y-44022380D01*
X143642857Y-44022380D01*
X143785714Y-44070000D01*
X143833333Y-44117619D01*
X144214285Y-44117619D02*
X144261904Y-44070000D01*
X144357142Y-44022380D01*
X144595238Y-44022380D01*
X144690476Y-44070000D01*
X144738095Y-44117619D01*
X144785714Y-44212857D01*
X144785714Y-44308095D01*
X144738095Y-44450952D01*
X144166666Y-45022380D01*
X144785714Y-45022380D01*
X144414009Y-93791081D02*
X144919085Y-94296157D01*
X144986428Y-94430844D01*
X144986428Y-94565531D01*
X144919085Y-94700218D01*
X144851741Y-94767562D01*
X145828222Y-93791081D02*
X145424161Y-94195142D01*
X145626192Y-93993112D02*
X144919085Y-93286005D01*
X144952757Y-93454364D01*
X144952757Y-93589051D01*
X144919085Y-93690066D01*
X145356818Y-92848272D02*
X145828222Y-92376868D01*
X146232283Y-93387020D01*
X123666701Y-86579307D02*
X124171777Y-87084383D01*
X124239120Y-87219070D01*
X124239120Y-87353757D01*
X124171777Y-87488444D01*
X124104433Y-87555788D01*
X125080914Y-86579307D02*
X124676853Y-86983368D01*
X124878884Y-86781338D02*
X124171777Y-86074231D01*
X124205449Y-86242590D01*
X124205449Y-86377277D01*
X124171777Y-86478292D01*
X125417632Y-86242590D02*
X125552319Y-86107903D01*
X125585990Y-86006887D01*
X125585990Y-85939544D01*
X125552319Y-85771185D01*
X125451303Y-85602826D01*
X125181929Y-85333452D01*
X125080914Y-85299781D01*
X125013571Y-85299781D01*
X124912555Y-85333452D01*
X124777868Y-85468139D01*
X124744197Y-85569155D01*
X124744197Y-85636498D01*
X124777868Y-85737513D01*
X124946227Y-85905872D01*
X125047242Y-85939544D01*
X125114586Y-85939544D01*
X125215601Y-85905872D01*
X125350288Y-85771185D01*
X125383960Y-85670170D01*
X125383960Y-85602826D01*
X125350288Y-85501811D01*
D13*
X169258666Y-112748523D02*
X169258666Y-113655666D01*
X169198190Y-113837095D01*
X169077238Y-113958047D01*
X168895809Y-114018523D01*
X168774857Y-114018523D01*
X170407714Y-112748523D02*
X170165809Y-112748523D01*
X170044857Y-112809000D01*
X169984380Y-112869476D01*
X169863428Y-113050904D01*
X169802952Y-113292809D01*
X169802952Y-113776619D01*
X169863428Y-113897571D01*
X169923904Y-113958047D01*
X170044857Y-114018523D01*
X170286761Y-114018523D01*
X170407714Y-113958047D01*
X170468190Y-113897571D01*
X170528666Y-113776619D01*
X170528666Y-113474238D01*
X170468190Y-113353285D01*
X170407714Y-113292809D01*
X170286761Y-113232333D01*
X170044857Y-113232333D01*
X169923904Y-113292809D01*
X169863428Y-113353285D01*
X169802952Y-113474238D01*
D14*
X89492096Y-96722380D02*
X89492096Y-97531904D01*
X89539715Y-97627142D01*
X89587334Y-97674761D01*
X89682572Y-97722380D01*
X89873048Y-97722380D01*
X89968286Y-97674761D01*
X90015905Y-97627142D01*
X90063524Y-97531904D01*
X90063524Y-96722380D01*
X90444477Y-96722380D02*
X91063524Y-96722380D01*
X90730191Y-97103333D01*
X90873048Y-97103333D01*
X90968286Y-97150952D01*
X91015905Y-97198571D01*
X91063524Y-97293809D01*
X91063524Y-97531904D01*
X91015905Y-97627142D01*
X90968286Y-97674761D01*
X90873048Y-97722380D01*
X90587334Y-97722380D01*
X90492096Y-97674761D01*
X90444477Y-97627142D01*
D12*
X199818666Y-91368571D02*
X199485333Y-91368571D01*
X199485333Y-91892380D02*
X199485333Y-90892380D01*
X199961523Y-90892380D01*
X200866285Y-91892380D02*
X200294857Y-91892380D01*
X200580571Y-91892380D02*
X200580571Y-90892380D01*
X200485333Y-91035238D01*
X200390095Y-91130476D01*
X200294857Y-91178095D01*
X70540666Y-72941380D02*
X70540666Y-73655666D01*
X70493047Y-73798523D01*
X70397809Y-73893761D01*
X70254952Y-73941380D01*
X70159714Y-73941380D01*
X71016857Y-73941380D02*
X71016857Y-72941380D01*
X71397809Y-72941380D01*
X71493047Y-72989000D01*
X71540666Y-73036619D01*
X71588285Y-73131857D01*
X71588285Y-73274714D01*
X71540666Y-73369952D01*
X71493047Y-73417571D01*
X71397809Y-73465190D01*
X71016857Y-73465190D01*
X72540666Y-73941380D02*
X71969238Y-73941380D01*
X72254952Y-73941380D02*
X72254952Y-72941380D01*
X72159714Y-73084238D01*
X72064476Y-73179476D01*
X71969238Y-73227095D01*
X171666666Y-121552380D02*
X171666666Y-122266666D01*
X171619047Y-122409523D01*
X171523809Y-122504761D01*
X171380952Y-122552380D01*
X171285714Y-122552380D01*
X172047619Y-121552380D02*
X172714285Y-121552380D01*
X172285714Y-122552380D01*
X113022380Y-165642857D02*
X112546190Y-165976190D01*
X113022380Y-166214285D02*
X112022380Y-166214285D01*
X112022380Y-165833333D01*
X112070000Y-165738095D01*
X112117619Y-165690476D01*
X112212857Y-165642857D01*
X112355714Y-165642857D01*
X112450952Y-165690476D01*
X112498571Y-165738095D01*
X112546190Y-165833333D01*
X112546190Y-166214285D01*
X113022380Y-164690476D02*
X113022380Y-165261904D01*
X113022380Y-164976190D02*
X112022380Y-164976190D01*
X112165238Y-165071428D01*
X112260476Y-165166666D01*
X112308095Y-165261904D01*
X112022380Y-164071428D02*
X112022380Y-163976190D01*
X112070000Y-163880952D01*
X112117619Y-163833333D01*
X112212857Y-163785714D01*
X112403333Y-163738095D01*
X112641428Y-163738095D01*
X112831904Y-163785714D01*
X112927142Y-163833333D01*
X112974761Y-163880952D01*
X113022380Y-163976190D01*
X113022380Y-164071428D01*
X112974761Y-164166666D01*
X112927142Y-164214285D01*
X112831904Y-164261904D01*
X112641428Y-164309523D01*
X112403333Y-164309523D01*
X112212857Y-164261904D01*
X112117619Y-164214285D01*
X112070000Y-164166666D01*
X112022380Y-164071428D01*
X204666666Y-78904761D02*
X204809523Y-78952380D01*
X205047619Y-78952380D01*
X205142857Y-78904761D01*
X205190476Y-78857142D01*
X205238095Y-78761904D01*
X205238095Y-78666666D01*
X205190476Y-78571428D01*
X205142857Y-78523809D01*
X205047619Y-78476190D01*
X204857142Y-78428571D01*
X204761904Y-78380952D01*
X204714285Y-78333333D01*
X204666666Y-78238095D01*
X204666666Y-78142857D01*
X204714285Y-78047619D01*
X204761904Y-78000000D01*
X204857142Y-77952380D01*
X205095238Y-77952380D01*
X205238095Y-78000000D01*
X205571428Y-77952380D02*
X205809523Y-78952380D01*
X206000000Y-78238095D01*
X206190476Y-78952380D01*
X206428571Y-77952380D01*
X207238095Y-78285714D02*
X207238095Y-78952380D01*
X207000000Y-77904761D02*
X206761904Y-78619047D01*
X207380952Y-78619047D01*
D13*
X105304523Y-38423333D02*
X106211666Y-38423333D01*
X106393095Y-38483809D01*
X106514047Y-38604761D01*
X106574523Y-38786190D01*
X106574523Y-38907142D01*
X105425476Y-37879047D02*
X105365000Y-37818571D01*
X105304523Y-37697619D01*
X105304523Y-37395238D01*
X105365000Y-37274285D01*
X105425476Y-37213809D01*
X105546428Y-37153333D01*
X105667380Y-37153333D01*
X105848809Y-37213809D01*
X106574523Y-37939523D01*
X106574523Y-37153333D01*
X67244047Y-89220523D02*
X66820714Y-88615761D01*
X66518333Y-89220523D02*
X66518333Y-87950523D01*
X67002142Y-87950523D01*
X67123095Y-88011000D01*
X67183571Y-88071476D01*
X67244047Y-88192428D01*
X67244047Y-88373857D01*
X67183571Y-88494809D01*
X67123095Y-88555285D01*
X67002142Y-88615761D01*
X66518333Y-88615761D01*
X67606904Y-87950523D02*
X68030238Y-89220523D01*
X68453571Y-87950523D01*
X69421190Y-88373857D02*
X69421190Y-89220523D01*
X69118809Y-87890047D02*
X68816428Y-88797190D01*
X69602619Y-88797190D01*
D12*
X134261904Y-31022380D02*
X134261904Y-30022380D01*
X134500000Y-30022380D01*
X134642857Y-30070000D01*
X134738095Y-30165238D01*
X134785714Y-30260476D01*
X134833333Y-30450952D01*
X134833333Y-30593809D01*
X134785714Y-30784285D01*
X134738095Y-30879523D01*
X134642857Y-30974761D01*
X134500000Y-31022380D01*
X134261904Y-31022380D01*
X135214285Y-30117619D02*
X135261904Y-30070000D01*
X135357142Y-30022380D01*
X135595238Y-30022380D01*
X135690476Y-30070000D01*
X135738095Y-30117619D01*
X135785714Y-30212857D01*
X135785714Y-30308095D01*
X135738095Y-30450952D01*
X135166666Y-31022380D01*
X135785714Y-31022380D01*
X126357142Y-159882380D02*
X126023809Y-159406190D01*
X125785714Y-159882380D02*
X125785714Y-158882380D01*
X126166666Y-158882380D01*
X126261904Y-158930000D01*
X126309523Y-158977619D01*
X126357142Y-159072857D01*
X126357142Y-159215714D01*
X126309523Y-159310952D01*
X126261904Y-159358571D01*
X126166666Y-159406190D01*
X125785714Y-159406190D01*
X126738095Y-158977619D02*
X126785714Y-158930000D01*
X126880952Y-158882380D01*
X127119047Y-158882380D01*
X127214285Y-158930000D01*
X127261904Y-158977619D01*
X127309523Y-159072857D01*
X127309523Y-159168095D01*
X127261904Y-159310952D01*
X126690476Y-159882380D01*
X127309523Y-159882380D01*
X127642857Y-158882380D02*
X128309523Y-158882380D01*
X127880952Y-159882380D01*
X145532380Y-35166666D02*
X145056190Y-35500000D01*
X145532380Y-35738095D02*
X144532380Y-35738095D01*
X144532380Y-35357142D01*
X144580000Y-35261904D01*
X144627619Y-35214285D01*
X144722857Y-35166666D01*
X144865714Y-35166666D01*
X144960952Y-35214285D01*
X145008571Y-35261904D01*
X145056190Y-35357142D01*
X145056190Y-35738095D01*
X145532380Y-34214285D02*
X145532380Y-34785714D01*
X145532380Y-34500000D02*
X144532380Y-34500000D01*
X144675238Y-34595238D01*
X144770476Y-34690476D01*
X144818095Y-34785714D01*
X116154761Y-166333333D02*
X116202380Y-166190476D01*
X116202380Y-165952380D01*
X116154761Y-165857142D01*
X116107142Y-165809523D01*
X116011904Y-165761904D01*
X115916666Y-165761904D01*
X115821428Y-165809523D01*
X115773809Y-165857142D01*
X115726190Y-165952380D01*
X115678571Y-166142857D01*
X115630952Y-166238095D01*
X115583333Y-166285714D01*
X115488095Y-166333333D01*
X115392857Y-166333333D01*
X115297619Y-166285714D01*
X115250000Y-166238095D01*
X115202380Y-166142857D01*
X115202380Y-165904761D01*
X115250000Y-165761904D01*
X115202380Y-165428571D02*
X116202380Y-165190476D01*
X115488095Y-165000000D01*
X116202380Y-164809523D01*
X115202380Y-164571428D01*
X115202380Y-164285714D02*
X115202380Y-163666666D01*
X115583333Y-164000000D01*
X115583333Y-163857142D01*
X115630952Y-163761904D01*
X115678571Y-163714285D01*
X115773809Y-163666666D01*
X116011904Y-163666666D01*
X116107142Y-163714285D01*
X116154761Y-163761904D01*
X116202380Y-163857142D01*
X116202380Y-164142857D01*
X116154761Y-164238095D01*
X116107142Y-164285714D01*
X185152380Y-90709523D02*
X185866666Y-90709523D01*
X186009523Y-90757142D01*
X186104761Y-90852380D01*
X186152380Y-90995238D01*
X186152380Y-91090476D01*
X186152380Y-89709523D02*
X186152380Y-90280952D01*
X186152380Y-89995238D02*
X185152380Y-89995238D01*
X185295238Y-90090476D01*
X185390476Y-90185714D01*
X185438095Y-90280952D01*
X185485714Y-88852380D02*
X186152380Y-88852380D01*
X185104761Y-89090476D02*
X185819047Y-89328571D01*
X185819047Y-88709523D01*
X191142857Y-80545904D02*
X191142857Y-79022095D01*
X191904761Y-79784000D02*
X190380952Y-79784000D01*
X191015857Y-100865904D02*
X191015857Y-99342095D01*
D14*
X89492096Y-84722380D02*
X89492096Y-85531904D01*
X89539715Y-85627142D01*
X89587334Y-85674761D01*
X89682572Y-85722380D01*
X89873048Y-85722380D01*
X89968286Y-85674761D01*
X90015905Y-85627142D01*
X90063524Y-85531904D01*
X90063524Y-84722380D01*
X90968286Y-85055714D02*
X90968286Y-85722380D01*
X90730191Y-84674761D02*
X90492096Y-85389047D01*
X91111143Y-85389047D01*
D13*
X124304523Y-130173333D02*
X125211666Y-130173333D01*
X125393095Y-130233809D01*
X125514047Y-130354761D01*
X125574523Y-130536190D01*
X125574523Y-130657142D01*
X124304523Y-129689523D02*
X124304523Y-128903333D01*
X124788333Y-129326666D01*
X124788333Y-129145238D01*
X124848809Y-129024285D01*
X124909285Y-128963809D01*
X125030238Y-128903333D01*
X125332619Y-128903333D01*
X125453571Y-128963809D01*
X125514047Y-129024285D01*
X125574523Y-129145238D01*
X125574523Y-129508095D01*
X125514047Y-129629047D01*
X125453571Y-129689523D01*
D12*
X67261904Y-73757380D02*
X67261904Y-72757380D01*
X67500000Y-72757380D01*
X67642857Y-72805000D01*
X67738095Y-72900238D01*
X67785714Y-72995476D01*
X67833333Y-73185952D01*
X67833333Y-73328809D01*
X67785714Y-73519285D01*
X67738095Y-73614523D01*
X67642857Y-73709761D01*
X67500000Y-73757380D01*
X67261904Y-73757380D01*
X68166666Y-72757380D02*
X68833333Y-72757380D01*
X68404761Y-73757380D01*
X63261904Y-73757380D02*
X63261904Y-72757380D01*
X63500000Y-72757380D01*
X63642857Y-72805000D01*
X63738095Y-72900238D01*
X63785714Y-72995476D01*
X63833333Y-73185952D01*
X63833333Y-73328809D01*
X63785714Y-73519285D01*
X63738095Y-73614523D01*
X63642857Y-73709761D01*
X63500000Y-73757380D01*
X63261904Y-73757380D01*
X64690476Y-72757380D02*
X64500000Y-72757380D01*
X64404761Y-72805000D01*
X64357142Y-72852619D01*
X64261904Y-72995476D01*
X64214285Y-73185952D01*
X64214285Y-73566904D01*
X64261904Y-73662142D01*
X64309523Y-73709761D01*
X64404761Y-73757380D01*
X64595238Y-73757380D01*
X64690476Y-73709761D01*
X64738095Y-73662142D01*
X64785714Y-73566904D01*
X64785714Y-73328809D01*
X64738095Y-73233571D01*
X64690476Y-73185952D01*
X64595238Y-73138333D01*
X64404761Y-73138333D01*
X64309523Y-73185952D01*
X64261904Y-73233571D01*
X64214285Y-73328809D01*
X182070867Y-67752569D02*
X181498447Y-67651554D01*
X181666806Y-68156630D02*
X180959699Y-67449524D01*
X181229073Y-67180149D01*
X181330088Y-67146478D01*
X181397432Y-67146478D01*
X181498447Y-67180149D01*
X181599462Y-67281165D01*
X181633134Y-67382180D01*
X181633134Y-67449524D01*
X181599462Y-67550539D01*
X181330088Y-67819913D01*
X182003524Y-66405699D02*
X181666806Y-66742417D01*
X181969852Y-67112806D01*
X181969852Y-67045462D01*
X182003524Y-66944447D01*
X182171882Y-66776088D01*
X182272898Y-66742417D01*
X182340241Y-66742417D01*
X182441256Y-66776088D01*
X182609615Y-66944447D01*
X182643287Y-67045462D01*
X182643287Y-67112806D01*
X182609615Y-67213821D01*
X182441256Y-67382180D01*
X182340241Y-67415852D01*
X182272898Y-67415852D01*
X55357142Y-78617380D02*
X55023809Y-78141190D01*
X54785714Y-78617380D02*
X54785714Y-77617380D01*
X55166666Y-77617380D01*
X55261904Y-77665000D01*
X55309523Y-77712619D01*
X55357142Y-77807857D01*
X55357142Y-77950714D01*
X55309523Y-78045952D01*
X55261904Y-78093571D01*
X55166666Y-78141190D01*
X54785714Y-78141190D01*
X55738095Y-77712619D02*
X55785714Y-77665000D01*
X55880952Y-77617380D01*
X56119047Y-77617380D01*
X56214285Y-77665000D01*
X56261904Y-77712619D01*
X56309523Y-77807857D01*
X56309523Y-77903095D01*
X56261904Y-78045952D01*
X55690476Y-78617380D01*
X56309523Y-78617380D01*
X56928571Y-77617380D02*
X57023809Y-77617380D01*
X57119047Y-77665000D01*
X57166666Y-77712619D01*
X57214285Y-77807857D01*
X57261904Y-77998333D01*
X57261904Y-78236428D01*
X57214285Y-78426904D01*
X57166666Y-78522142D01*
X57119047Y-78569761D01*
X57023809Y-78617380D01*
X56928571Y-78617380D01*
X56833333Y-78569761D01*
X56785714Y-78522142D01*
X56738095Y-78426904D01*
X56690476Y-78236428D01*
X56690476Y-77998333D01*
X56738095Y-77807857D01*
X56785714Y-77712619D01*
X56833333Y-77665000D01*
X56928571Y-77617380D01*
D13*
X67244047Y-80076523D02*
X66820714Y-79471761D01*
X66518333Y-80076523D02*
X66518333Y-78806523D01*
X67002142Y-78806523D01*
X67123095Y-78867000D01*
X67183571Y-78927476D01*
X67244047Y-79048428D01*
X67244047Y-79229857D01*
X67183571Y-79350809D01*
X67123095Y-79411285D01*
X67002142Y-79471761D01*
X66518333Y-79471761D01*
X67606904Y-78806523D02*
X68030238Y-80076523D01*
X68453571Y-78806523D01*
X69542142Y-80076523D02*
X68816428Y-80076523D01*
X69179285Y-80076523D02*
X69179285Y-78806523D01*
X69058333Y-78987952D01*
X68937380Y-79108904D01*
X68816428Y-79169380D01*
X58244047Y-89220523D02*
X57820714Y-88615761D01*
X57518333Y-89220523D02*
X57518333Y-87950523D01*
X58002142Y-87950523D01*
X58123095Y-88011000D01*
X58183571Y-88071476D01*
X58244047Y-88192428D01*
X58244047Y-88373857D01*
X58183571Y-88494809D01*
X58123095Y-88555285D01*
X58002142Y-88615761D01*
X57518333Y-88615761D01*
X58606904Y-87950523D02*
X59030238Y-89220523D01*
X59453571Y-87950523D01*
X59755952Y-87950523D02*
X60542142Y-87950523D01*
X60118809Y-88434333D01*
X60300238Y-88434333D01*
X60421190Y-88494809D01*
X60481666Y-88555285D01*
X60542142Y-88676238D01*
X60542142Y-88978619D01*
X60481666Y-89099571D01*
X60421190Y-89160047D01*
X60300238Y-89220523D01*
X59937380Y-89220523D01*
X59816428Y-89160047D01*
X59755952Y-89099571D01*
D12*
X127047380Y-130333333D02*
X127761666Y-130333333D01*
X127904523Y-130380952D01*
X127999761Y-130476190D01*
X128047380Y-130619047D01*
X128047380Y-130714285D01*
X128047380Y-129809523D02*
X128047380Y-129619047D01*
X127999761Y-129523809D01*
X127952142Y-129476190D01*
X127809285Y-129380952D01*
X127618809Y-129333333D01*
X127237857Y-129333333D01*
X127142619Y-129380952D01*
X127095000Y-129428571D01*
X127047380Y-129523809D01*
X127047380Y-129714285D01*
X127095000Y-129809523D01*
X127142619Y-129857142D01*
X127237857Y-129904761D01*
X127475952Y-129904761D01*
X127571190Y-129857142D01*
X127618809Y-129809523D01*
X127666428Y-129714285D01*
X127666428Y-129523809D01*
X127618809Y-129428571D01*
X127571190Y-129380952D01*
X127475952Y-129333333D01*
X123833333Y-41022380D02*
X123500000Y-40546190D01*
X123261904Y-41022380D02*
X123261904Y-40022380D01*
X123642857Y-40022380D01*
X123738095Y-40070000D01*
X123785714Y-40117619D01*
X123833333Y-40212857D01*
X123833333Y-40355714D01*
X123785714Y-40450952D01*
X123738095Y-40498571D01*
X123642857Y-40546190D01*
X123261904Y-40546190D01*
X124166666Y-40022380D02*
X124833333Y-40022380D01*
X124404761Y-41022380D01*
X124650666Y-155455561D02*
X124793523Y-155503180D01*
X125031619Y-155503180D01*
X125126857Y-155455561D01*
X125174476Y-155407942D01*
X125222095Y-155312704D01*
X125222095Y-155217466D01*
X125174476Y-155122228D01*
X125126857Y-155074609D01*
X125031619Y-155026990D01*
X124841142Y-154979371D01*
X124745904Y-154931752D01*
X124698285Y-154884133D01*
X124650666Y-154788895D01*
X124650666Y-154693657D01*
X124698285Y-154598419D01*
X124745904Y-154550800D01*
X124841142Y-154503180D01*
X125079238Y-154503180D01*
X125222095Y-154550800D01*
X125555428Y-154503180D02*
X125793523Y-155503180D01*
X125984000Y-154788895D01*
X126174476Y-155503180D01*
X126412571Y-154503180D01*
X127222095Y-154503180D02*
X127031619Y-154503180D01*
X126936380Y-154550800D01*
X126888761Y-154598419D01*
X126793523Y-154741276D01*
X126745904Y-154931752D01*
X126745904Y-155312704D01*
X126793523Y-155407942D01*
X126841142Y-155455561D01*
X126936380Y-155503180D01*
X127126857Y-155503180D01*
X127222095Y-155455561D01*
X127269714Y-155407942D01*
X127317333Y-155312704D01*
X127317333Y-155074609D01*
X127269714Y-154979371D01*
X127222095Y-154931752D01*
X127126857Y-154884133D01*
X126936380Y-154884133D01*
X126841142Y-154931752D01*
X126793523Y-154979371D01*
X126745904Y-155074609D01*
X99357142Y-77022380D02*
X99023809Y-76546190D01*
X98785714Y-77022380D02*
X98785714Y-76022380D01*
X99166666Y-76022380D01*
X99261904Y-76070000D01*
X99309523Y-76117619D01*
X99357142Y-76212857D01*
X99357142Y-76355714D01*
X99309523Y-76450952D01*
X99261904Y-76498571D01*
X99166666Y-76546190D01*
X98785714Y-76546190D01*
X100309523Y-77022380D02*
X99738095Y-77022380D01*
X100023809Y-77022380D02*
X100023809Y-76022380D01*
X99928571Y-76165238D01*
X99833333Y-76260476D01*
X99738095Y-76308095D01*
X100642857Y-76022380D02*
X101261904Y-76022380D01*
X100928571Y-76403333D01*
X101071428Y-76403333D01*
X101166666Y-76450952D01*
X101214285Y-76498571D01*
X101261904Y-76593809D01*
X101261904Y-76831904D01*
X101214285Y-76927142D01*
X101166666Y-76974761D01*
X101071428Y-77022380D01*
X100785714Y-77022380D01*
X100690476Y-76974761D01*
X100642857Y-76927142D01*
X141844142Y-70937380D02*
X141510809Y-70461190D01*
X141272714Y-70937380D02*
X141272714Y-69937380D01*
X141653666Y-69937380D01*
X141748904Y-69985000D01*
X141796523Y-70032619D01*
X141844142Y-70127857D01*
X141844142Y-70270714D01*
X141796523Y-70365952D01*
X141748904Y-70413571D01*
X141653666Y-70461190D01*
X141272714Y-70461190D01*
X142225095Y-70032619D02*
X142272714Y-69985000D01*
X142367952Y-69937380D01*
X142606047Y-69937380D01*
X142701285Y-69985000D01*
X142748904Y-70032619D01*
X142796523Y-70127857D01*
X142796523Y-70223095D01*
X142748904Y-70365952D01*
X142177476Y-70937380D01*
X142796523Y-70937380D01*
X143367952Y-70365952D02*
X143272714Y-70318333D01*
X143225095Y-70270714D01*
X143177476Y-70175476D01*
X143177476Y-70127857D01*
X143225095Y-70032619D01*
X143272714Y-69985000D01*
X143367952Y-69937380D01*
X143558428Y-69937380D01*
X143653666Y-69985000D01*
X143701285Y-70032619D01*
X143748904Y-70127857D01*
X143748904Y-70175476D01*
X143701285Y-70270714D01*
X143653666Y-70318333D01*
X143558428Y-70365952D01*
X143367952Y-70365952D01*
X143272714Y-70413571D01*
X143225095Y-70461190D01*
X143177476Y-70556428D01*
X143177476Y-70746904D01*
X143225095Y-70842142D01*
X143272714Y-70889761D01*
X143367952Y-70937380D01*
X143558428Y-70937380D01*
X143653666Y-70889761D01*
X143701285Y-70842142D01*
X143748904Y-70746904D01*
X143748904Y-70556428D01*
X143701285Y-70461190D01*
X143653666Y-70413571D01*
X143558428Y-70365952D01*
X99357142Y-61022380D02*
X99023809Y-60546190D01*
X98785714Y-61022380D02*
X98785714Y-60022380D01*
X99166666Y-60022380D01*
X99261904Y-60070000D01*
X99309523Y-60117619D01*
X99357142Y-60212857D01*
X99357142Y-60355714D01*
X99309523Y-60450952D01*
X99261904Y-60498571D01*
X99166666Y-60546190D01*
X98785714Y-60546190D01*
X100309523Y-61022380D02*
X99738095Y-61022380D01*
X100023809Y-61022380D02*
X100023809Y-60022380D01*
X99928571Y-60165238D01*
X99833333Y-60260476D01*
X99738095Y-60308095D01*
X101166666Y-60355714D02*
X101166666Y-61022380D01*
X100928571Y-59974761D02*
X100690476Y-60689047D01*
X101309523Y-60689047D01*
X99357142Y-73022380D02*
X99023809Y-72546190D01*
X98785714Y-73022380D02*
X98785714Y-72022380D01*
X99166666Y-72022380D01*
X99261904Y-72070000D01*
X99309523Y-72117619D01*
X99357142Y-72212857D01*
X99357142Y-72355714D01*
X99309523Y-72450952D01*
X99261904Y-72498571D01*
X99166666Y-72546190D01*
X98785714Y-72546190D01*
X100309523Y-73022380D02*
X99738095Y-73022380D01*
X100023809Y-73022380D02*
X100023809Y-72022380D01*
X99928571Y-72165238D01*
X99833333Y-72260476D01*
X99738095Y-72308095D01*
X101166666Y-72022380D02*
X100976190Y-72022380D01*
X100880952Y-72070000D01*
X100833333Y-72117619D01*
X100738095Y-72260476D01*
X100690476Y-72450952D01*
X100690476Y-72831904D01*
X100738095Y-72927142D01*
X100785714Y-72974761D01*
X100880952Y-73022380D01*
X101071428Y-73022380D01*
X101166666Y-72974761D01*
X101214285Y-72927142D01*
X101261904Y-72831904D01*
X101261904Y-72593809D01*
X101214285Y-72498571D01*
X101166666Y-72450952D01*
X101071428Y-72403333D01*
X100880952Y-72403333D01*
X100785714Y-72450952D01*
X100738095Y-72498571D01*
X100690476Y-72593809D01*
X164833333Y-120022380D02*
X164500000Y-119546190D01*
X164261904Y-120022380D02*
X164261904Y-119022380D01*
X164642857Y-119022380D01*
X164738095Y-119070000D01*
X164785714Y-119117619D01*
X164833333Y-119212857D01*
X164833333Y-119355714D01*
X164785714Y-119450952D01*
X164738095Y-119498571D01*
X164642857Y-119546190D01*
X164261904Y-119546190D01*
X165690476Y-119355714D02*
X165690476Y-120022380D01*
X165452380Y-118974761D02*
X165214285Y-119689047D01*
X165833333Y-119689047D01*
X147522380Y-74642857D02*
X147046190Y-74976190D01*
X147522380Y-75214285D02*
X146522380Y-75214285D01*
X146522380Y-74833333D01*
X146570000Y-74738095D01*
X146617619Y-74690476D01*
X146712857Y-74642857D01*
X146855714Y-74642857D01*
X146950952Y-74690476D01*
X146998571Y-74738095D01*
X147046190Y-74833333D01*
X147046190Y-75214285D01*
X147522380Y-73690476D02*
X147522380Y-74261904D01*
X147522380Y-73976190D02*
X146522380Y-73976190D01*
X146665238Y-74071428D01*
X146760476Y-74166666D01*
X146808095Y-74261904D01*
X146950952Y-73119047D02*
X146903333Y-73214285D01*
X146855714Y-73261904D01*
X146760476Y-73309523D01*
X146712857Y-73309523D01*
X146617619Y-73261904D01*
X146570000Y-73214285D01*
X146522380Y-73119047D01*
X146522380Y-72928571D01*
X146570000Y-72833333D01*
X146617619Y-72785714D01*
X146712857Y-72738095D01*
X146760476Y-72738095D01*
X146855714Y-72785714D01*
X146903333Y-72833333D01*
X146950952Y-72928571D01*
X146950952Y-73119047D01*
X146998571Y-73214285D01*
X147046190Y-73261904D01*
X147141428Y-73309523D01*
X147331904Y-73309523D01*
X147427142Y-73261904D01*
X147474761Y-73214285D01*
X147522380Y-73119047D01*
X147522380Y-72928571D01*
X147474761Y-72833333D01*
X147427142Y-72785714D01*
X147331904Y-72738095D01*
X147141428Y-72738095D01*
X147046190Y-72785714D01*
X146998571Y-72833333D01*
X146950952Y-72928571D01*
X145558881Y-87353790D02*
X146063957Y-86848714D01*
X146198644Y-86781371D01*
X146333331Y-86781371D01*
X146468018Y-86848714D01*
X146535362Y-86916058D01*
X145558881Y-85939577D02*
X145962942Y-86343638D01*
X145760912Y-86141607D02*
X145053805Y-86848714D01*
X145222164Y-86815042D01*
X145356851Y-86815042D01*
X145457866Y-86848714D01*
X144245683Y-86040592D02*
X144380370Y-86175279D01*
X144481385Y-86208951D01*
X144548729Y-86208951D01*
X144717087Y-86175279D01*
X144885446Y-86074264D01*
X145154820Y-85804890D01*
X145188492Y-85703875D01*
X145188492Y-85636531D01*
X145154820Y-85535516D01*
X145020133Y-85400829D01*
X144919118Y-85367157D01*
X144851774Y-85367157D01*
X144750759Y-85400829D01*
X144582400Y-85569188D01*
X144548729Y-85670203D01*
X144548729Y-85737546D01*
X144582400Y-85838562D01*
X144717087Y-85973249D01*
X144818103Y-86006920D01*
X144885446Y-86006920D01*
X144986461Y-85973249D01*
D13*
X58244047Y-98110523D02*
X57820714Y-97505761D01*
X57518333Y-98110523D02*
X57518333Y-96840523D01*
X58002142Y-96840523D01*
X58123095Y-96901000D01*
X58183571Y-96961476D01*
X58244047Y-97082428D01*
X58244047Y-97263857D01*
X58183571Y-97384809D01*
X58123095Y-97445285D01*
X58002142Y-97505761D01*
X57518333Y-97505761D01*
X58606904Y-96840523D02*
X59030238Y-98110523D01*
X59453571Y-96840523D01*
X60481666Y-96840523D02*
X59876904Y-96840523D01*
X59816428Y-97445285D01*
X59876904Y-97384809D01*
X59997857Y-97324333D01*
X60300238Y-97324333D01*
X60421190Y-97384809D01*
X60481666Y-97445285D01*
X60542142Y-97566238D01*
X60542142Y-97868619D01*
X60481666Y-97989571D01*
X60421190Y-98050047D01*
X60300238Y-98110523D01*
X59997857Y-98110523D01*
X59876904Y-98050047D01*
X59816428Y-97989571D01*
X150725764Y-70947538D02*
X151367211Y-71588985D01*
X151452738Y-71760037D01*
X151452738Y-71931090D01*
X151367211Y-72102142D01*
X151281685Y-72187668D01*
X152521816Y-70947538D02*
X152008658Y-71460695D01*
X152265237Y-71204116D02*
X151367211Y-70306091D01*
X151409974Y-70519906D01*
X151409974Y-70690959D01*
X151367211Y-70819248D01*
X153377078Y-70092275D02*
X152863921Y-70605433D01*
X153120499Y-70348854D02*
X152222474Y-69450828D01*
X152265237Y-69664644D01*
X152265237Y-69835696D01*
X152222474Y-69963986D01*
D12*
X99357142Y-65022380D02*
X99023809Y-64546190D01*
X98785714Y-65022380D02*
X98785714Y-64022380D01*
X99166666Y-64022380D01*
X99261904Y-64070000D01*
X99309523Y-64117619D01*
X99357142Y-64212857D01*
X99357142Y-64355714D01*
X99309523Y-64450952D01*
X99261904Y-64498571D01*
X99166666Y-64546190D01*
X98785714Y-64546190D01*
X100309523Y-65022380D02*
X99738095Y-65022380D01*
X100023809Y-65022380D02*
X100023809Y-64022380D01*
X99928571Y-64165238D01*
X99833333Y-64260476D01*
X99738095Y-64308095D01*
X100642857Y-64022380D02*
X101309523Y-64022380D01*
X100880952Y-65022380D01*
X123833333Y-34927142D02*
X123785714Y-34974761D01*
X123642857Y-35022380D01*
X123547619Y-35022380D01*
X123404761Y-34974761D01*
X123309523Y-34879523D01*
X123261904Y-34784285D01*
X123214285Y-34593809D01*
X123214285Y-34450952D01*
X123261904Y-34260476D01*
X123309523Y-34165238D01*
X123404761Y-34070000D01*
X123547619Y-34022380D01*
X123642857Y-34022380D01*
X123785714Y-34070000D01*
X123833333Y-34117619D01*
X124166666Y-34022380D02*
X124785714Y-34022380D01*
X124452380Y-34403333D01*
X124595238Y-34403333D01*
X124690476Y-34450952D01*
X124738095Y-34498571D01*
X124785714Y-34593809D01*
X124785714Y-34831904D01*
X124738095Y-34927142D01*
X124690476Y-34974761D01*
X124595238Y-35022380D01*
X124309523Y-35022380D01*
X124214285Y-34974761D01*
X124166666Y-34927142D01*
D13*
X163304523Y-42423333D02*
X164211666Y-42423333D01*
X164393095Y-42483809D01*
X164514047Y-42604761D01*
X164574523Y-42786190D01*
X164574523Y-42907142D01*
X163727857Y-41274285D02*
X164574523Y-41274285D01*
X163244047Y-41576666D02*
X164151190Y-41879047D01*
X164151190Y-41092857D01*
X116813336Y-69039529D02*
X117454783Y-68398082D01*
X117625835Y-68312555D01*
X117796888Y-68312555D01*
X117967940Y-68398082D01*
X118053466Y-68483608D01*
X116513994Y-68569134D02*
X116428468Y-68569134D01*
X116300178Y-68526371D01*
X116086363Y-68312555D01*
X116043599Y-68184266D01*
X116043599Y-68098740D01*
X116086363Y-67970450D01*
X116171889Y-67884924D01*
X116342941Y-67799398D01*
X117369256Y-67799398D01*
X116813336Y-67243477D01*
X115958073Y-66388215D02*
X116471231Y-66901372D01*
X116214652Y-66644794D02*
X115316626Y-67542819D01*
X115530442Y-67500056D01*
X115701494Y-67500056D01*
X115829784Y-67542819D01*
D12*
X142833333Y-33882380D02*
X142500000Y-33406190D01*
X142261904Y-33882380D02*
X142261904Y-32882380D01*
X142642857Y-32882380D01*
X142738095Y-32930000D01*
X142785714Y-32977619D01*
X142833333Y-33072857D01*
X142833333Y-33215714D01*
X142785714Y-33310952D01*
X142738095Y-33358571D01*
X142642857Y-33406190D01*
X142261904Y-33406190D01*
X143166666Y-32882380D02*
X143785714Y-32882380D01*
X143452380Y-33263333D01*
X143595238Y-33263333D01*
X143690476Y-33310952D01*
X143738095Y-33358571D01*
X143785714Y-33453809D01*
X143785714Y-33691904D01*
X143738095Y-33787142D01*
X143690476Y-33834761D01*
X143595238Y-33882380D01*
X143309523Y-33882380D01*
X143214285Y-33834761D01*
X143166666Y-33787142D01*
X59357142Y-75757380D02*
X59023809Y-75281190D01*
X58785714Y-75757380D02*
X58785714Y-74757380D01*
X59166666Y-74757380D01*
X59261904Y-74805000D01*
X59309523Y-74852619D01*
X59357142Y-74947857D01*
X59357142Y-75090714D01*
X59309523Y-75185952D01*
X59261904Y-75233571D01*
X59166666Y-75281190D01*
X58785714Y-75281190D01*
X59738095Y-74852619D02*
X59785714Y-74805000D01*
X59880952Y-74757380D01*
X60119047Y-74757380D01*
X60214285Y-74805000D01*
X60261904Y-74852619D01*
X60309523Y-74947857D01*
X60309523Y-75043095D01*
X60261904Y-75185952D01*
X59690476Y-75757380D01*
X60309523Y-75757380D01*
X61261904Y-75757380D02*
X60690476Y-75757380D01*
X60976190Y-75757380D02*
X60976190Y-74757380D01*
X60880952Y-74900238D01*
X60785714Y-74995476D01*
X60690476Y-75043095D01*
X67357142Y-75757380D02*
X67023809Y-75281190D01*
X66785714Y-75757380D02*
X66785714Y-74757380D01*
X67166666Y-74757380D01*
X67261904Y-74805000D01*
X67309523Y-74852619D01*
X67357142Y-74947857D01*
X67357142Y-75090714D01*
X67309523Y-75185952D01*
X67261904Y-75233571D01*
X67166666Y-75281190D01*
X66785714Y-75281190D01*
X67738095Y-74852619D02*
X67785714Y-74805000D01*
X67880952Y-74757380D01*
X68119047Y-74757380D01*
X68214285Y-74805000D01*
X68261904Y-74852619D01*
X68309523Y-74947857D01*
X68309523Y-75043095D01*
X68261904Y-75185952D01*
X67690476Y-75757380D01*
X68309523Y-75757380D01*
X68642857Y-74757380D02*
X69261904Y-74757380D01*
X68928571Y-75138333D01*
X69071428Y-75138333D01*
X69166666Y-75185952D01*
X69214285Y-75233571D01*
X69261904Y-75328809D01*
X69261904Y-75566904D01*
X69214285Y-75662142D01*
X69166666Y-75709761D01*
X69071428Y-75757380D01*
X68785714Y-75757380D01*
X68690476Y-75709761D01*
X68642857Y-75662142D01*
D13*
X144304523Y-128423333D02*
X145211666Y-128423333D01*
X145393095Y-128483809D01*
X145514047Y-128604761D01*
X145574523Y-128786190D01*
X145574523Y-128907142D01*
X145574523Y-127153333D02*
X145574523Y-127879047D01*
X145574523Y-127516190D02*
X144304523Y-127516190D01*
X144485952Y-127637142D01*
X144606904Y-127758095D01*
X144667380Y-127879047D01*
D15*
X63745276Y-77257500D02*
X64254724Y-77257500D01*
X63745276Y-76212500D02*
X64254724Y-76212500D01*
X60800000Y-74000000D02*
X58340000Y-74000000D01*
X58340000Y-74000000D02*
X58340000Y-75470000D01*
X58340000Y-75470000D02*
X60800000Y-75470000D01*
X144500000Y-73060000D02*
X143850000Y-73060000D01*
X144500000Y-69940000D02*
X142825000Y-69940000D01*
X144500000Y-73060000D02*
X145150000Y-73060000D01*
X144500000Y-69940000D02*
X145150000Y-69940000D01*
X146080000Y-44380000D02*
X146080000Y-40540000D01*
X147920000Y-44380000D02*
X147920000Y-40540000D01*
X165600000Y-102350000D02*
X165600000Y-105650000D01*
X165600000Y-102350000D02*
X171000000Y-102350000D01*
X165600000Y-105650000D02*
X171000000Y-105650000D01*
D14*
X141750000Y-74000000D02*
X141750000Y-80000000D01*
X128250000Y-78600000D02*
X128250000Y-74000000D01*
X128250000Y-74000000D02*
X141750000Y-74000000D01*
D15*
X149140000Y-147330000D02*
X149140000Y-144670000D01*
X141460000Y-144670000D02*
X149140000Y-144670000D01*
X141460000Y-147330000D02*
X141460000Y-144670000D01*
X140190000Y-147330000D02*
X138860000Y-147330000D01*
X138860000Y-147330000D02*
X138860000Y-146000000D01*
X141460000Y-147330000D02*
X149140000Y-147330000D01*
X131400000Y-143400000D02*
X156600000Y-143400000D01*
X156600000Y-143400000D02*
X156600000Y-169400000D01*
X156600000Y-169400000D02*
X131400000Y-169400000D01*
X131400000Y-169400000D02*
X131400000Y-143400000D01*
X57660000Y-74000000D02*
X55200000Y-74000000D01*
X55200000Y-75470000D02*
X57660000Y-75470000D01*
X57660000Y-75470000D02*
X57660000Y-74000000D01*
X66365000Y-104220000D02*
X67635000Y-104220000D01*
X69025000Y-104220000D02*
X69025000Y-102866667D01*
X67445000Y-104220000D02*
X67445000Y-102866667D01*
X69505000Y-104220000D02*
X69505000Y-102866667D01*
X70175000Y-100160000D02*
X68905000Y-100160000D01*
X69265000Y-104220000D02*
X69265000Y-102866667D01*
X67325000Y-104220000D02*
X67325000Y-102866667D01*
X67565000Y-104220000D02*
X67565000Y-102866667D01*
X69745000Y-104220000D02*
X69745000Y-102866667D01*
X70175000Y-104220000D02*
X70175000Y-100160000D01*
X66605000Y-104220000D02*
X66605000Y-102866667D01*
X68905000Y-102866667D02*
X70175000Y-102866667D01*
X69145000Y-104220000D02*
X69145000Y-102866667D01*
X66365000Y-102866667D02*
X67635000Y-102866667D01*
X69865000Y-104220000D02*
X69865000Y-102866667D01*
X67205000Y-104220000D02*
X67205000Y-102866667D01*
X67635000Y-100160000D02*
X66365000Y-100160000D01*
X67635000Y-104220000D02*
X67635000Y-100160000D01*
X64580000Y-107140000D02*
X64580000Y-97240000D01*
X68905000Y-104220000D02*
X70175000Y-104220000D01*
X68905000Y-100160000D02*
X68905000Y-104220000D01*
X66725000Y-104220000D02*
X66725000Y-102866667D01*
X64580000Y-107140000D02*
X71960000Y-107140000D01*
X66485000Y-104220000D02*
X66485000Y-102866667D01*
X71960000Y-107140000D02*
X71960000Y-97240000D01*
X66845000Y-104220000D02*
X66845000Y-102866667D01*
X69385000Y-104220000D02*
X69385000Y-102866667D01*
X70105000Y-104220000D02*
X70105000Y-102866667D01*
X66965000Y-104220000D02*
X66965000Y-102866667D01*
X64580000Y-97240000D02*
X71960000Y-97240000D01*
X66365000Y-100160000D02*
X66365000Y-104220000D01*
X64340000Y-107380000D02*
X65723000Y-107380000D01*
X67085000Y-104220000D02*
X67085000Y-102866667D01*
X69985000Y-104220000D02*
X69985000Y-102866667D01*
X64340000Y-107380000D02*
X64340000Y-105996000D01*
X69625000Y-104220000D02*
X69625000Y-102866667D01*
X75745276Y-98477500D02*
X76254724Y-98477500D01*
X75745276Y-99522500D02*
X76254724Y-99522500D01*
X144500000Y-74440000D02*
X145150000Y-74440000D01*
X144500000Y-77560000D02*
X145150000Y-77560000D01*
X144500000Y-74440000D02*
X142825000Y-74440000D01*
X144500000Y-77560000D02*
X143850000Y-77560000D01*
X121832776Y-38477500D02*
X122342224Y-38477500D01*
X121832776Y-39522500D02*
X122342224Y-39522500D01*
X75745276Y-103522500D02*
X76254724Y-103522500D01*
X75745276Y-102477500D02*
X76254724Y-102477500D01*
X99657776Y-69477500D02*
X100167224Y-69477500D01*
X99657776Y-70522500D02*
X100167224Y-70522500D01*
D16*
X125800000Y-143300000D02*
X114200000Y-143300000D01*
X114200000Y-148700000D02*
X125800000Y-148700000D01*
X114200000Y-143300000D02*
X114200000Y-148700000D01*
X125800000Y-148700000D02*
X125800000Y-143300000D01*
X62400000Y-87400000D02*
X55600000Y-87400000D01*
X55600000Y-80600000D02*
X62400000Y-80600000D01*
X55600000Y-87400000D02*
X55600000Y-80600000D01*
X62400000Y-80600000D02*
X62400000Y-87400000D01*
D15*
X127254724Y-152522500D02*
X126745276Y-152522500D01*
X127254724Y-151477500D02*
X126745276Y-151477500D01*
X124500179Y-96328216D02*
X125772971Y-97601008D01*
X121813173Y-92156286D02*
X120929289Y-91272402D01*
X120929289Y-91696666D02*
X120398959Y-92226996D01*
X123439518Y-95267555D02*
X123969848Y-94737225D01*
X119868629Y-93817986D02*
X117782664Y-95903951D01*
X120929289Y-91272402D02*
X120045406Y-92156286D01*
X125030509Y-95797885D02*
X124500179Y-96328216D01*
X121671751Y-93499788D02*
X122202082Y-92969458D01*
X117782664Y-95903951D02*
X119939340Y-98060627D01*
X122096016Y-100217303D02*
X119939340Y-98060627D01*
X120929289Y-91682524D02*
X116707862Y-95903951D01*
X124181981Y-98131338D02*
X122096016Y-100217303D01*
X123262742Y-94030118D02*
X122732412Y-94560449D01*
X125772971Y-97601008D02*
X126303301Y-97070678D01*
X123969848Y-94737225D02*
X123262742Y-94030118D01*
X122096016Y-101292105D02*
X126317443Y-97070678D01*
X116707862Y-95903951D02*
X122096016Y-101292105D01*
X124712311Y-98661668D02*
X124181981Y-98131338D01*
X122732412Y-94560449D02*
X123439518Y-95267555D01*
X119338299Y-93287656D02*
X119868629Y-93817986D01*
X126317443Y-97070678D02*
X120929289Y-91682524D01*
X126303301Y-97070678D02*
X125030509Y-95797885D01*
X122202082Y-92969458D02*
X120929289Y-91696666D01*
X120398959Y-92226996D02*
X121671751Y-93499788D01*
X143853733Y-46510000D02*
X144146267Y-46510000D01*
X143853733Y-45490000D02*
X144146267Y-45490000D01*
X153059905Y-95903984D02*
X148838478Y-91682557D01*
X143994796Y-97601041D02*
X145267588Y-96328249D01*
X146328249Y-95267588D02*
X147035355Y-94560482D01*
X143464466Y-97070711D02*
X143994796Y-97601041D01*
X151985103Y-95903984D02*
X149828427Y-98060660D01*
X143040202Y-97070711D02*
X143924086Y-97954594D01*
X147565685Y-92969491D02*
X148096016Y-93499821D01*
X150429468Y-93287689D02*
X149899138Y-93818019D01*
X147671751Y-101292138D02*
X153059905Y-95903984D01*
X148838478Y-91696699D02*
X147565685Y-92969491D01*
X145797918Y-94737258D02*
X146328249Y-95267588D01*
X143924086Y-96186827D02*
X143040202Y-97070711D01*
X143450324Y-97070711D02*
X147671751Y-101292138D01*
X148838478Y-91682557D02*
X143450324Y-97070711D01*
X144737258Y-95797918D02*
X143464466Y-97070711D01*
X147671751Y-100217336D02*
X149828427Y-98060660D01*
X145585786Y-98131371D02*
X147671751Y-100217336D01*
X148096016Y-93499821D02*
X149368808Y-92227029D01*
X146505025Y-94030152D02*
X145797918Y-94737258D01*
X145267588Y-96328249D02*
X144737258Y-95797918D01*
X149368808Y-92227029D02*
X148838478Y-91696699D01*
X147035355Y-94560482D02*
X146505025Y-94030152D01*
X149899138Y-93818019D02*
X151985103Y-95903984D01*
X145055456Y-98661701D02*
X145585786Y-98131371D01*
X118014897Y-84096016D02*
X120171573Y-81939340D01*
X121161522Y-88317443D02*
X126549676Y-82929289D01*
X120631192Y-87772971D02*
X121161522Y-88303301D01*
X122328249Y-79782664D02*
X120171573Y-81939340D01*
X124414214Y-81868629D02*
X122328249Y-79782664D01*
X124202082Y-85262742D02*
X123671751Y-84732412D01*
X125262742Y-84202082D02*
X126535534Y-82929289D01*
X123671751Y-84732412D02*
X122964645Y-85439518D01*
X120100862Y-86181981D02*
X118014897Y-84096016D01*
X121161522Y-88303301D02*
X122434315Y-87030509D01*
X122964645Y-85439518D02*
X123494975Y-85969848D01*
X124944544Y-81338299D02*
X124414214Y-81868629D01*
X121903984Y-86500179D02*
X120631192Y-87772971D01*
X126535534Y-82929289D02*
X126005204Y-82398959D01*
X116940095Y-84096016D02*
X121161522Y-88317443D01*
X123494975Y-85969848D02*
X124202082Y-85262742D01*
X126959798Y-82929289D02*
X126075914Y-82045406D01*
X122434315Y-87030509D02*
X121903984Y-86500179D01*
X122328249Y-78707862D02*
X116940095Y-84096016D01*
X124732412Y-83671751D02*
X125262742Y-84202082D01*
X126075914Y-83813173D02*
X126959798Y-82929289D01*
X126549676Y-82929289D02*
X122328249Y-78707862D01*
X126005204Y-82398959D02*
X124732412Y-83671751D01*
X119570532Y-86712311D02*
X120100862Y-86181981D01*
D14*
X174000000Y-118300000D02*
X168000000Y-118300000D01*
X168000000Y-114800000D02*
X175500000Y-114800000D01*
X175500000Y-114800000D02*
X175500000Y-117000000D01*
X168000000Y-118300000D02*
X168000000Y-114800000D01*
D17*
X94234180Y-92784360D02*
X94348480Y-92784360D01*
X85651520Y-92784360D02*
X85765820Y-92784360D01*
X94348480Y-92825000D02*
X94348480Y-99215640D01*
X85651520Y-92825000D02*
X85651520Y-99175000D01*
X85651520Y-99215640D02*
X85765820Y-99215640D01*
X94234180Y-99215640D02*
X94348480Y-99215640D01*
D18*
X86414916Y-98032000D02*
G75*
G03*
X86414916Y-98032000I-224916J0D01*
G01*
D15*
X196500000Y-104000000D02*
X196500000Y-76000000D01*
X203500000Y-104000000D02*
X196500000Y-104000000D01*
X196500000Y-76000000D02*
X200000000Y-76000000D01*
X200000000Y-76000000D02*
X203500000Y-76000000D01*
X203500000Y-76000000D02*
X203500000Y-104000000D01*
X70264000Y-77149000D02*
X71066470Y-77149000D01*
X71937471Y-75944000D02*
X72484000Y-75944000D01*
X71681530Y-77149000D02*
X72484000Y-77149000D01*
X70264000Y-75184000D02*
X70264000Y-74424000D01*
X72484000Y-75944000D02*
X72484000Y-77149000D01*
X70264000Y-74424000D02*
X71374000Y-74424000D01*
X70264000Y-75944000D02*
X70264000Y-77149000D01*
X70264000Y-75944000D02*
X70810529Y-75944000D01*
X171500000Y-123800000D02*
X169550000Y-123800000D01*
X170700000Y-123190000D02*
X170700000Y-122990000D01*
X168940000Y-125800000D02*
X169550000Y-125800000D01*
X168940000Y-123190000D02*
X168940000Y-127910000D01*
X175060000Y-125800000D02*
X174450000Y-125800000D01*
X175060000Y-123190000D02*
X168940000Y-123190000D01*
X169890000Y-122890000D02*
X168640000Y-122890000D01*
X171500000Y-123190000D02*
X171500000Y-123800000D01*
X175060000Y-127910000D02*
X175060000Y-123190000D01*
X174450000Y-127300000D02*
X174450000Y-123800000D01*
X168940000Y-124500000D02*
X169550000Y-124500000D01*
X174450000Y-123800000D02*
X172500000Y-123800000D01*
X170700000Y-122990000D02*
X170400000Y-122990000D01*
X170400000Y-122990000D02*
X170400000Y-123190000D01*
X175060000Y-124500000D02*
X174450000Y-124500000D01*
X169550000Y-127300000D02*
X174450000Y-127300000D01*
X172100000Y-126800000D02*
X172100000Y-127300000D01*
X171900000Y-127300000D02*
X171900000Y-126800000D01*
X169550000Y-123800000D02*
X169550000Y-127300000D01*
X172500000Y-123800000D02*
X172500000Y-123190000D01*
X170700000Y-123090000D02*
X170400000Y-123090000D01*
X171900000Y-126800000D02*
X172100000Y-126800000D01*
X168940000Y-127910000D02*
X175060000Y-127910000D01*
X172000000Y-127300000D02*
X172000000Y-126800000D01*
X168640000Y-122890000D02*
X168640000Y-124140000D01*
X114522500Y-165254724D02*
X114522500Y-164745276D01*
X113477500Y-165254724D02*
X113477500Y-164745276D01*
X218000000Y-100000000D02*
X204000000Y-100000000D01*
X204000000Y-80000000D02*
X218000000Y-80000000D01*
X204000000Y-100000000D02*
X204000000Y-80000000D01*
X218000000Y-80000000D02*
X218000000Y-100000000D01*
D16*
X108400000Y-36250000D02*
X114400000Y-36250000D01*
X114400000Y-43750000D02*
X108400000Y-43750000D01*
X114400000Y-36250000D02*
X114400000Y-43750000D01*
X108400000Y-43750000D02*
X108400000Y-36250000D01*
X64600000Y-89600000D02*
X71400000Y-89600000D01*
X71400000Y-96400000D02*
X64600000Y-96400000D01*
X71400000Y-89600000D02*
X71400000Y-96400000D01*
X64600000Y-96400000D02*
X64600000Y-89600000D01*
G36*
X95698840Y-54764175D02*
G01*
X95727910Y-54543403D01*
X95771315Y-54321378D01*
X95799780Y-54203986D01*
X95812682Y-54155042D01*
X95825461Y-54109156D01*
X95838808Y-54064363D01*
X95853416Y-54018698D01*
X95869975Y-53970197D01*
X95889178Y-53916894D01*
X95911715Y-53856825D01*
X95938279Y-53788025D01*
X95969561Y-53708528D01*
X96006252Y-53616370D01*
X96009172Y-53609066D01*
X96037044Y-53538991D01*
X96064439Y-53469416D01*
X96090452Y-53402692D01*
X96114176Y-53341169D01*
X96134705Y-53287199D01*
X96151134Y-53243133D01*
X96162555Y-53211322D01*
X96163358Y-53208991D01*
X96202559Y-53088203D01*
X96235599Y-52971758D01*
X96263043Y-52856535D01*
X96285455Y-52739415D01*
X96303401Y-52617276D01*
X96317444Y-52487000D01*
X96328148Y-52345464D01*
X96332073Y-52276383D01*
X96337283Y-52179861D01*
X96342300Y-52097296D01*
X96347360Y-52026651D01*
X96352702Y-51965888D01*
X96358563Y-51912971D01*
X96365181Y-51865862D01*
X96372794Y-51822524D01*
X96381640Y-51780920D01*
X96391956Y-51739013D01*
X96397009Y-51720000D01*
X96437538Y-51589889D01*
X96485715Y-51469890D01*
X96540974Y-51360917D01*
X96602747Y-51263886D01*
X96670466Y-51179710D01*
X96743565Y-51109306D01*
X96803039Y-51065135D01*
X96893310Y-51015425D01*
X96994319Y-50976870D01*
X97105160Y-50949652D01*
X97224928Y-50933952D01*
X97352719Y-50929950D01*
X97455234Y-50934890D01*
X97534240Y-50942451D01*
X97625692Y-50953228D01*
X97726469Y-50966745D01*
X97833448Y-50982523D01*
X97943507Y-51000085D01*
X98053526Y-51018955D01*
X98160382Y-51038655D01*
X98248760Y-51056184D01*
X98313710Y-51069414D01*
X98378717Y-51082397D01*
X98440683Y-51094534D01*
X98496513Y-51105226D01*
X98543111Y-51113872D01*
X98577380Y-51119874D01*
X98579373Y-51120201D01*
X98658296Y-51130393D01*
X98749706Y-51137497D01*
X98850375Y-51141418D01*
X98957071Y-51142057D01*
X99066565Y-51139317D01*
X99122533Y-51136582D01*
X99213675Y-51130676D01*
X99291316Y-51123949D01*
X99357951Y-51115931D01*
X99416075Y-51106155D01*
X99468181Y-51094152D01*
X99516766Y-51079453D01*
X99564324Y-51061588D01*
X99597446Y-51047350D01*
X99620034Y-51036912D01*
X99642340Y-51025810D01*
X99666029Y-51013025D01*
X99692767Y-50997535D01*
X99724220Y-50978321D01*
X99762054Y-50954362D01*
X99807935Y-50924638D01*
X99863527Y-50888127D01*
X99930498Y-50843811D01*
X99940000Y-50837508D01*
X100046082Y-50769063D01*
X100141823Y-50711453D01*
X100228171Y-50664171D01*
X100306072Y-50626710D01*
X100376473Y-50598564D01*
X100404232Y-50589337D01*
X100505910Y-50562041D01*
X100597808Y-50546713D01*
X100680961Y-50543529D01*
X100756400Y-50552663D01*
X100825158Y-50574288D01*
X100888269Y-50608581D01*
X100946765Y-50655714D01*
X100976244Y-50685954D01*
X101036899Y-50764851D01*
X101086363Y-50855011D01*
X101124599Y-50956225D01*
X101151565Y-51068284D01*
X101167225Y-51190977D01*
X101171538Y-51324095D01*
X101164465Y-51467428D01*
X101147888Y-51608000D01*
X101138626Y-51673985D01*
X101132108Y-51729992D01*
X101127899Y-51781725D01*
X101125561Y-51834885D01*
X101124658Y-51895177D01*
X101124605Y-51912000D01*
X101124733Y-51966535D01*
X101125466Y-52008209D01*
X101127072Y-52040156D01*
X101129817Y-52065510D01*
X101133967Y-52087407D01*
X101139788Y-52108980D01*
X101141945Y-52116000D01*
X101156573Y-52157970D01*
X101174808Y-52201217D01*
X101197334Y-52246727D01*
X101224834Y-52295489D01*
X101257992Y-52348490D01*
X101297494Y-52406718D01*
X101344022Y-52471161D01*
X101398262Y-52542807D01*
X101460896Y-52622644D01*
X101532609Y-52711659D01*
X101614085Y-52810841D01*
X101668241Y-52876000D01*
X101717711Y-52935658D01*
X101758573Y-52985904D01*
X101792764Y-53029360D01*
X101822223Y-53068647D01*
X101848887Y-53106385D01*
X101874695Y-53145196D01*
X101901583Y-53187702D01*
X101916148Y-53211339D01*
X102005207Y-53369532D01*
X102086503Y-53539890D01*
X102159226Y-53720168D01*
X102222570Y-53908119D01*
X102275723Y-54101500D01*
X102317878Y-54298066D01*
X102327589Y-54353300D01*
X102339747Y-54428112D01*
X102349512Y-54494093D01*
X102357131Y-54554529D01*
X102362852Y-54612704D01*
X102366921Y-54671904D01*
X102369585Y-54735414D01*
X102371092Y-54806518D01*
X102371689Y-54888503D01*
X102371719Y-54940000D01*
X102371536Y-55013681D01*
X102371084Y-55073801D01*
X102370240Y-55122798D01*
X102368880Y-55163110D01*
X102366880Y-55197174D01*
X102364116Y-55227429D01*
X102360466Y-55256312D01*
X102355806Y-55286262D01*
X102353473Y-55300000D01*
X102313206Y-55491127D01*
X102259287Y-55679035D01*
X102192461Y-55861969D01*
X102113478Y-56038174D01*
X102023083Y-56205897D01*
X101922025Y-56363382D01*
X101870122Y-56434597D01*
X101777641Y-56544902D01*
X101675268Y-56646100D01*
X101564659Y-56737092D01*
X101447473Y-56816784D01*
X101325367Y-56884079D01*
X101199998Y-56937882D01*
X101073024Y-56977094D01*
X101037507Y-56985289D01*
X101000833Y-56992356D01*
X100965160Y-56997324D01*
X100926348Y-57000524D01*
X100880259Y-57002284D01*
X100822754Y-57002936D01*
X100816000Y-57002953D01*
X100747094Y-57002013D01*
X100683102Y-56998566D01*
X100620668Y-56992094D01*
X100556438Y-56982081D01*
X100487058Y-56968009D01*
X100409173Y-56949360D01*
X100325665Y-56927319D01*
X100234309Y-56902476D01*
X100156801Y-56881542D01*
X100091568Y-56864167D01*
X100037034Y-56849999D01*
X99991626Y-56838688D01*
X99953771Y-56829882D01*
X99921893Y-56823232D01*
X99894418Y-56818385D01*
X99869773Y-56814991D01*
X99846384Y-56812700D01*
X99822676Y-56811159D01*
X99800000Y-56810135D01*
X99726565Y-56809952D01*
X99655327Y-56815813D01*
X99584601Y-56828353D01*
X99512700Y-56848205D01*
X99437936Y-56876003D01*
X99358625Y-56912382D01*
X99273078Y-56957976D01*
X99179611Y-57013419D01*
X99076535Y-57079345D01*
X99066485Y-57085976D01*
X98937096Y-57166302D01*
X98798310Y-57242838D01*
X98653147Y-57314304D01*
X98504630Y-57379417D01*
X98355781Y-57436895D01*
X98209620Y-57485458D01*
X98069169Y-57523823D01*
X97996116Y-57539979D01*
X97904281Y-57555510D01*
X97807221Y-57566674D01*
X97708699Y-57573337D01*
X97612477Y-57575371D01*
X97522318Y-57572642D01*
X97441984Y-57565022D01*
X97412000Y-57560316D01*
X97266803Y-57528668D01*
X97130049Y-57487628D01*
X97003336Y-57437798D01*
X96888259Y-57379779D01*
X96818944Y-57336947D01*
X96750649Y-57286772D01*
X96676729Y-57224672D01*
X96599191Y-57152788D01*
X96520040Y-57073258D01*
X96441283Y-56988224D01*
X96364925Y-56899824D01*
X96292971Y-56810198D01*
X96227427Y-56721485D01*
X96188921Y-56664881D01*
X96142882Y-56591748D01*
X96093624Y-56508452D01*
X96042898Y-56418317D01*
X95992455Y-56324668D01*
X95944048Y-56230829D01*
X95899428Y-56140124D01*
X95860348Y-56055876D01*
X95828558Y-55981411D01*
X95827991Y-55980000D01*
X95787600Y-55872448D01*
X95754763Y-55768705D01*
X95728849Y-55665458D01*
X95709228Y-55559394D01*
X95695270Y-55447201D01*
X95686345Y-55325568D01*
X95682287Y-55214155D01*
X95682856Y-55125717D01*
X95876882Y-55125717D01*
X95879961Y-55281004D01*
X95891519Y-55427002D01*
X95903666Y-55515670D01*
X95918620Y-55598010D01*
X95936429Y-55677070D01*
X95957847Y-55754732D01*
X95983625Y-55832877D01*
X96014518Y-55913390D01*
X96051279Y-55998151D01*
X96094661Y-56089044D01*
X96145417Y-56187950D01*
X96204301Y-56296753D01*
X96246346Y-56372000D01*
X96308401Y-56478132D01*
X96369105Y-56573415D01*
X96431477Y-56661954D01*
X96498537Y-56747853D01*
X96573304Y-56835215D01*
X96643584Y-56912000D01*
X96723575Y-56994684D01*
X96797557Y-57065153D01*
X96867798Y-57124882D01*
X96936565Y-57175351D01*
X97006126Y-57218034D01*
X97078748Y-57254410D01*
X97156698Y-57285956D01*
X97242246Y-57314149D01*
X97276000Y-57323948D01*
X97353507Y-57344677D01*
X97422175Y-57360248D01*
X97485780Y-57370970D01*
X97548097Y-57377149D01*
X97612903Y-57379094D01*
X97683974Y-57377113D01*
X97765086Y-57371513D01*
X97810082Y-57367500D01*
X97925911Y-57351290D01*
X98051202Y-57323762D01*
X98184567Y-57285356D01*
X98324617Y-57236510D01*
X98469961Y-57177665D01*
X98604000Y-57116589D01*
X98684123Y-57077071D01*
X98758825Y-57037652D01*
X98832284Y-56995935D01*
X98908679Y-56949526D01*
X98992186Y-56896029D01*
X99016000Y-56880386D01*
X99092697Y-56832029D01*
X99172074Y-56786092D01*
X99250927Y-56744220D01*
X99326057Y-56708059D01*
X99394262Y-56679255D01*
X99436135Y-56664362D01*
X99505855Y-56643428D01*
X99567040Y-56628659D01*
X99625501Y-56619142D01*
X99687051Y-56613961D01*
X99757503Y-56612203D01*
X99768000Y-56612178D01*
X99816484Y-56612711D01*
X99860529Y-56614653D01*
X99902843Y-56618477D01*
X99946134Y-56624656D01*
X99993109Y-56633665D01*
X100046475Y-56645976D01*
X100108941Y-56662062D01*
X100183213Y-56682397D01*
X100205689Y-56688691D01*
X100310743Y-56717749D01*
X100402437Y-56742034D01*
X100482570Y-56761897D01*
X100552938Y-56777692D01*
X100615340Y-56789771D01*
X100671572Y-56798486D01*
X100723433Y-56804191D01*
X100772719Y-56807237D01*
X100813978Y-56808000D01*
X100931141Y-56800309D01*
X101047355Y-56777166D01*
X101162890Y-56738462D01*
X101278014Y-56684089D01*
X101392994Y-56613938D01*
X101508098Y-56527902D01*
X101509053Y-56527122D01*
X101593952Y-56449372D01*
X101676492Y-56357435D01*
X101755805Y-56253052D01*
X101831018Y-56137968D01*
X101901263Y-56013925D01*
X101965670Y-55882667D01*
X102023368Y-55745936D01*
X102073487Y-55605475D01*
X102115157Y-55463027D01*
X102147508Y-55320336D01*
X102165400Y-55212272D01*
X102170752Y-55160580D01*
X102174606Y-55096390D01*
X102176966Y-55023135D01*
X102177835Y-54944246D01*
X102177216Y-54863156D01*
X102175113Y-54783297D01*
X102171531Y-54708100D01*
X102166472Y-54640998D01*
X102164778Y-54624000D01*
X102135444Y-54408294D01*
X102094001Y-54198143D01*
X102040838Y-53994727D01*
X101976348Y-53799225D01*
X101900921Y-53612815D01*
X101814949Y-53436679D01*
X101718823Y-53271995D01*
X101713704Y-53264000D01*
X101698253Y-53240271D01*
X101683077Y-53217784D01*
X101666999Y-53195033D01*
X101648843Y-53170515D01*
X101627431Y-53142727D01*
X101601586Y-53110164D01*
X101570131Y-53071322D01*
X101531889Y-53024699D01*
X101485683Y-52968788D01*
X101431923Y-52904000D01*
X101353930Y-52809318D01*
X101285881Y-52724877D01*
X101226769Y-52649252D01*
X101175587Y-52581018D01*
X101131326Y-52518751D01*
X101092980Y-52461027D01*
X101059540Y-52406422D01*
X101029999Y-52353511D01*
X101003350Y-52300871D01*
X100999425Y-52292670D01*
X100974253Y-52236074D01*
X100955816Y-52184793D01*
X100942777Y-52133550D01*
X100933801Y-52077066D01*
X100927554Y-52010064D01*
X100927406Y-52008000D01*
X100924440Y-51936720D01*
X100925394Y-51858947D01*
X100930400Y-51772555D01*
X100939588Y-51675420D01*
X100953089Y-51565416D01*
X100955900Y-51544724D01*
X100963484Y-51483648D01*
X100969612Y-51422506D01*
X100973871Y-51366144D01*
X100975849Y-51319410D01*
X100975939Y-51309303D01*
X100971478Y-51209219D01*
X100958619Y-51115427D01*
X100937938Y-51029147D01*
X100910011Y-50951598D01*
X100875413Y-50884001D01*
X100834721Y-50827574D01*
X100788511Y-50783538D01*
X100737359Y-50753113D01*
X100708473Y-50742932D01*
X100671421Y-50738591D01*
X100623145Y-50741850D01*
X100566136Y-50752071D01*
X100502885Y-50768616D01*
X100435884Y-50790847D01*
X100367625Y-50818126D01*
X100310309Y-50844890D01*
X100280291Y-50861094D01*
X100239871Y-50884625D01*
X100191842Y-50913763D01*
X100139000Y-50946789D01*
X100084139Y-50981981D01*
X100034309Y-51014778D01*
X99950017Y-51070463D01*
X99876763Y-51117543D01*
X99812762Y-51156979D01*
X99756226Y-51189732D01*
X99705370Y-51216766D01*
X99658408Y-51239041D01*
X99613555Y-51257520D01*
X99569023Y-51273165D01*
X99535687Y-51283351D01*
X99470716Y-51299279D01*
X99396079Y-51312165D01*
X99310731Y-51322087D01*
X99213631Y-51329124D01*
X99103736Y-51333352D01*
X98980002Y-51334851D01*
X98860000Y-51333992D01*
X98794545Y-51332966D01*
X98738600Y-51331776D01*
X98689798Y-51330122D01*
X98645767Y-51327702D01*
X98604139Y-51324218D01*
X98562544Y-51319367D01*
X98518613Y-51312851D01*
X98469976Y-51304368D01*
X98414264Y-51293618D01*
X98349108Y-51280301D01*
X98272137Y-51264116D01*
X98217750Y-51252575D01*
X98077597Y-51224106D01*
X97941157Y-51199212D01*
X97803352Y-51177070D01*
X97659104Y-51156858D01*
X97522669Y-51139998D01*
X97405375Y-51130488D01*
X97293411Y-51129750D01*
X97189182Y-51137658D01*
X97095098Y-51154086D01*
X97056000Y-51164436D01*
X96975532Y-51195821D01*
X96901729Y-51240247D01*
X96834253Y-51298099D01*
X96772768Y-51369762D01*
X96716936Y-51455622D01*
X96666419Y-51556063D01*
X96626993Y-51654335D01*
X96608342Y-51707955D01*
X96592605Y-51758738D01*
X96579416Y-51808984D01*
X96568407Y-51860991D01*
X96559210Y-51917060D01*
X96551458Y-51979488D01*
X96544783Y-52050575D01*
X96538818Y-52132621D01*
X96533196Y-52227925D01*
X96532122Y-52248000D01*
X96524931Y-52371022D01*
X96516915Y-52480703D01*
X96507715Y-52579691D01*
X96496974Y-52670639D01*
X96484335Y-52756196D01*
X96469439Y-52839013D01*
X96451929Y-52921740D01*
X96431448Y-53007029D01*
X96427793Y-53021399D01*
X96414648Y-53071133D01*
X96400777Y-53120116D01*
X96385571Y-53170079D01*
X96368416Y-53222752D01*
X96348702Y-53279864D01*
X96325817Y-53343145D01*
X96299150Y-53414326D01*
X96268088Y-53495136D01*
X96232021Y-53587305D01*
X96192152Y-53688000D01*
X96162816Y-53762384D01*
X96134169Y-53836152D01*
X96107020Y-53907146D01*
X96082177Y-53973207D01*
X96060445Y-54032175D01*
X96042634Y-54081893D01*
X96029550Y-54120199D01*
X96024418Y-54136431D01*
X95981141Y-54295885D01*
X95945052Y-54460784D01*
X95916367Y-54628673D01*
X95895300Y-54797095D01*
X95882067Y-54963595D01*
X95876882Y-55125717D01*
X95682856Y-55125717D01*
X95683751Y-54986742D01*
X95698840Y-54764175D01*
G37*
G36*
X101779363Y-58068389D02*
G01*
X101822322Y-57998213D01*
X101872436Y-57933403D01*
X101927587Y-57876772D01*
X101985653Y-57831132D01*
X102031181Y-57805172D01*
X102060785Y-57792268D01*
X102085938Y-57784719D01*
X102113323Y-57781142D01*
X102149620Y-57780152D01*
X102152000Y-57780145D01*
X102187474Y-57780694D01*
X102212410Y-57783280D01*
X102232242Y-57789036D01*
X102252405Y-57799096D01*
X102257787Y-57802212D01*
X102297269Y-57834398D01*
X102317787Y-57862212D01*
X102335011Y-57905927D01*
X102341187Y-57956635D01*
X102336295Y-58009735D01*
X102320311Y-58060625D01*
X102318769Y-58064000D01*
X102278759Y-58131059D01*
X102224763Y-58191932D01*
X102157878Y-58245768D01*
X102079202Y-58291715D01*
X101989835Y-58328920D01*
X101968000Y-58336114D01*
X101930952Y-58348985D01*
X101907958Y-58360993D01*
X101897364Y-58374312D01*
X101897513Y-58391113D01*
X101906750Y-58413570D01*
X101907649Y-58415323D01*
X101927513Y-58441105D01*
X101956199Y-58456734D01*
X101995628Y-58462989D01*
X102024023Y-58462639D01*
X102083928Y-58451647D01*
X102145942Y-58425727D01*
X102208685Y-58385566D01*
X102253371Y-58348370D01*
X102290502Y-58316902D01*
X102320205Y-58297845D01*
X102344195Y-58290483D01*
X102364189Y-58294098D01*
X102371883Y-58298773D01*
X102383812Y-58316889D01*
X102386799Y-58344269D01*
X102380921Y-58376955D01*
X102369909Y-58404216D01*
X102350655Y-58433140D01*
X102321276Y-58466749D01*
X102285397Y-58501547D01*
X102246642Y-58534037D01*
X102208635Y-58560722D01*
X102205973Y-58562357D01*
X102139677Y-58594954D01*
X102067784Y-58616782D01*
X101994843Y-58626845D01*
X101925401Y-58624151D01*
X101924000Y-58623948D01*
X101863017Y-58608171D01*
X101812190Y-58580074D01*
X101771094Y-58539340D01*
X101739501Y-58486094D01*
X101723478Y-58437112D01*
X101714183Y-58378239D01*
X101711898Y-58314227D01*
X101716903Y-58249831D01*
X101723389Y-58213588D01*
X101728407Y-58197274D01*
X101913405Y-58197274D01*
X101917376Y-58204456D01*
X101930181Y-58203743D01*
X101953453Y-58195399D01*
X101988824Y-58179688D01*
X102006825Y-58171354D01*
X102045879Y-58149594D01*
X102084750Y-58121658D01*
X102120544Y-58090300D01*
X102150370Y-58058278D01*
X102171337Y-58028348D01*
X102180122Y-58006160D01*
X102181932Y-57970927D01*
X102172883Y-57946406D01*
X102153918Y-57933583D01*
X102125978Y-57933445D01*
X102113865Y-57936704D01*
X102082371Y-57953245D01*
X102047608Y-57981738D01*
X102012098Y-58019220D01*
X101978363Y-58062727D01*
X101948924Y-58109296D01*
X101926302Y-58155964D01*
X101925428Y-58158161D01*
X101916633Y-58181930D01*
X101913405Y-58197274D01*
X101728407Y-58197274D01*
X101745678Y-58141118D01*
X101779363Y-58068389D01*
G37*
G36*
X97270527Y-53904045D02*
G01*
X97291558Y-53746310D01*
X97326958Y-53590612D01*
X97376732Y-53437945D01*
X97440883Y-53289304D01*
X97519414Y-53145684D01*
X97611393Y-53009335D01*
X97717006Y-52880608D01*
X97833299Y-52763459D01*
X97959425Y-52658370D01*
X98094539Y-52565822D01*
X98237794Y-52486296D01*
X98388344Y-52420272D01*
X98545344Y-52368232D01*
X98707947Y-52330656D01*
X98838621Y-52311644D01*
X98891974Y-52307630D01*
X98956267Y-52305619D01*
X99027210Y-52305500D01*
X99100514Y-52307162D01*
X99171890Y-52310494D01*
X99237047Y-52315385D01*
X99291697Y-52321726D01*
X99304000Y-52323656D01*
X99467295Y-52359037D01*
X99625029Y-52408939D01*
X99776340Y-52472733D01*
X99920367Y-52549791D01*
X100056247Y-52639486D01*
X100183121Y-52741191D01*
X100300126Y-52854277D01*
X100406400Y-52978117D01*
X100501083Y-53112083D01*
X100583314Y-53255547D01*
X100583545Y-53256000D01*
X100648361Y-53395624D01*
X100698906Y-53534027D01*
X100735964Y-53674283D01*
X100760318Y-53819463D01*
X100772755Y-53972642D01*
X100773790Y-54001378D01*
X100772911Y-54157104D01*
X100760420Y-54304252D01*
X100735824Y-54445748D01*
X100698630Y-54584519D01*
X100655088Y-54706706D01*
X100587429Y-54856174D01*
X100506414Y-54997859D01*
X100412961Y-55130950D01*
X100307990Y-55254634D01*
X100192419Y-55368101D01*
X100067168Y-55470537D01*
X99933153Y-55561130D01*
X99791296Y-55639070D01*
X99642513Y-55703544D01*
X99487724Y-55753740D01*
X99462971Y-55760262D01*
X99321268Y-55789906D01*
X99173850Y-55808516D01*
X99025537Y-55815733D01*
X98881154Y-55811195D01*
X98836000Y-55807142D01*
X98673783Y-55782107D01*
X98514172Y-55741641D01*
X98358415Y-55686255D01*
X98207760Y-55616461D01*
X98063457Y-55532770D01*
X97926752Y-55435694D01*
X97924120Y-55433631D01*
X97883286Y-55399211D01*
X97835897Y-55355426D01*
X97785166Y-55305584D01*
X97734309Y-55252991D01*
X97686540Y-55200952D01*
X97645074Y-55152775D01*
X97619156Y-55119981D01*
X97525360Y-54981735D01*
X97445904Y-54837573D01*
X97380793Y-54688490D01*
X97330029Y-54535479D01*
X97293617Y-54379535D01*
X97271561Y-54221652D01*
X97264440Y-54074732D01*
X97698216Y-54074732D01*
X97698984Y-54096847D01*
X97700263Y-54103096D01*
X97705031Y-54102316D01*
X97713676Y-54086827D01*
X97725844Y-54057352D01*
X97735219Y-54031758D01*
X97751772Y-53987396D01*
X97772150Y-53936284D01*
X97793243Y-53886094D01*
X97805257Y-53858934D01*
X97882936Y-53706871D01*
X97975382Y-53560024D01*
X98081948Y-53419312D01*
X98201988Y-53285653D01*
X98223577Y-53263811D01*
X98348824Y-53147103D01*
X98476960Y-53044685D01*
X98610442Y-52955007D01*
X98751727Y-52876519D01*
X98903271Y-52807668D01*
X99012000Y-52766076D01*
X99100000Y-52734661D01*
X98988000Y-52739126D01*
X98891653Y-52745346D01*
X98804541Y-52756444D01*
X98720376Y-52773406D01*
X98649960Y-52792147D01*
X98515293Y-52839550D01*
X98387893Y-52900699D01*
X98268598Y-52974688D01*
X98158250Y-53060613D01*
X98057686Y-53157567D01*
X97967747Y-53264644D01*
X97889272Y-53380938D01*
X97823102Y-53505544D01*
X97770074Y-53637556D01*
X97731030Y-53776067D01*
X97728840Y-53785990D01*
X97722578Y-53819726D01*
X97716476Y-53861171D01*
X97710815Y-53907203D01*
X97705877Y-53954698D01*
X97701944Y-54000534D01*
X97699296Y-54041586D01*
X97698216Y-54074732D01*
X97264440Y-54074732D01*
X97263863Y-54062824D01*
X97270527Y-53904045D01*
G37*
G36*
X97096686Y-57789129D02*
G01*
X97136333Y-57815196D01*
X97170354Y-57856219D01*
X97184410Y-57880803D01*
X97202217Y-57925771D01*
X97211392Y-57971622D01*
X97212097Y-58015193D01*
X97204494Y-58053325D01*
X97188745Y-58082856D01*
X97173322Y-58096499D01*
X97139288Y-58110154D01*
X97107901Y-58108171D01*
X97086203Y-58096304D01*
X97072445Y-58080564D01*
X97060863Y-58055533D01*
X97050483Y-58018692D01*
X97043794Y-57986552D01*
X97035273Y-57960465D01*
X97021594Y-57949108D01*
X97001411Y-57951672D01*
X96992500Y-57955741D01*
X96968639Y-57973917D01*
X96941112Y-58004413D01*
X96911613Y-58044477D01*
X96881842Y-58091354D01*
X96853495Y-58142292D01*
X96828268Y-58194537D01*
X96807860Y-58245336D01*
X96800745Y-58266842D01*
X96791254Y-58306487D01*
X96785693Y-58347847D01*
X96784297Y-58386346D01*
X96787302Y-58417408D01*
X96792237Y-58432443D01*
X96812501Y-58454189D01*
X96843743Y-58467192D01*
X96883696Y-58471686D01*
X96930094Y-58467904D01*
X96980672Y-58456081D01*
X97033163Y-58436451D01*
X97085300Y-58409249D01*
X97098824Y-58400766D01*
X97142509Y-58374541D01*
X97177087Y-58359092D01*
X97204551Y-58353670D01*
X97220019Y-58355290D01*
X97237868Y-58366991D01*
X97245911Y-58388338D01*
X97243038Y-58415543D01*
X97240100Y-58423756D01*
X97222509Y-58451908D01*
X97192941Y-58483586D01*
X97154341Y-58516546D01*
X97109654Y-58548542D01*
X97061826Y-58577328D01*
X97013802Y-58600660D01*
X97001572Y-58605585D01*
X96957550Y-58618281D01*
X96906030Y-58626629D01*
X96852323Y-58630317D01*
X96801745Y-58629035D01*
X96759609Y-58622472D01*
X96751755Y-58620210D01*
X96712466Y-58601373D01*
X96674526Y-58572562D01*
X96643616Y-58538549D01*
X96631631Y-58519277D01*
X96613956Y-58468959D01*
X96606271Y-58409000D01*
X96608287Y-58342024D01*
X96619716Y-58270652D01*
X96640270Y-58197508D01*
X96669661Y-58125213D01*
X96676451Y-58111331D01*
X96708445Y-58054584D01*
X96746790Y-57997521D01*
X96789231Y-57942726D01*
X96833514Y-57892787D01*
X96877384Y-57850288D01*
X96918588Y-57817817D01*
X96946548Y-57801522D01*
X97001538Y-57782207D01*
X97051669Y-57778104D01*
X97096686Y-57789129D01*
G37*
G36*
X98010862Y-57821086D02*
G01*
X98054876Y-57836549D01*
X98090081Y-57861412D01*
X98093467Y-57864944D01*
X98115973Y-57899764D01*
X98126968Y-57939841D01*
X98125659Y-57980230D01*
X98116295Y-58007427D01*
X98096838Y-58030868D01*
X98070475Y-58040224D01*
X98037939Y-58035469D01*
X97999967Y-58016574D01*
X97993090Y-58012000D01*
X97969272Y-57997081D01*
X97948980Y-57986924D01*
X97938622Y-57984000D01*
X97915378Y-57991099D01*
X97885466Y-58012122D01*
X97849325Y-58046655D01*
X97807392Y-58094287D01*
X97765416Y-58147542D01*
X97708572Y-58235423D01*
X97663027Y-58332942D01*
X97629975Y-58437328D01*
X97619643Y-58485020D01*
X97612410Y-58520322D01*
X97604672Y-58552545D01*
X97597767Y-58576267D01*
X97595832Y-58581468D01*
X97577119Y-58607524D01*
X97549059Y-58624726D01*
X97516163Y-58632213D01*
X97482944Y-58629121D01*
X97453917Y-58614589D01*
X97448396Y-58609627D01*
X97428333Y-58579726D01*
X97417011Y-58545233D01*
X97412244Y-58512414D01*
X97409187Y-58468267D01*
X97407716Y-58415030D01*
X97407705Y-58354941D01*
X97409031Y-58290237D01*
X97411570Y-58223157D01*
X97415196Y-58155938D01*
X97419785Y-58090819D01*
X97425212Y-58030036D01*
X97431354Y-57975828D01*
X97438085Y-57930433D01*
X97445281Y-57896088D01*
X97452818Y-57875031D01*
X97454442Y-57872494D01*
X97484544Y-57841141D01*
X97518479Y-57824210D01*
X97551942Y-57820000D01*
X97580861Y-57822421D01*
X97601351Y-57831216D01*
X97611355Y-57839394D01*
X97623581Y-57855068D01*
X97630254Y-57875432D01*
X97631343Y-57902749D01*
X97626817Y-57939283D01*
X97616645Y-57987297D01*
X97608887Y-58018429D01*
X97598853Y-58059413D01*
X97589922Y-58099679D01*
X97583242Y-58133854D01*
X97580427Y-58152000D01*
X97575079Y-58196000D01*
X97608030Y-58136597D01*
X97651334Y-58064449D01*
X97697541Y-57998180D01*
X97744957Y-57939758D01*
X97791889Y-57891152D01*
X97836642Y-57854330D01*
X97866543Y-57836230D01*
X97912638Y-57820413D01*
X97962097Y-57815537D01*
X98010862Y-57821086D01*
G37*
G36*
X99162916Y-57808609D02*
G01*
X99192009Y-57826682D01*
X99211881Y-57852880D01*
X99220101Y-57877554D01*
X99223931Y-57908993D01*
X99223270Y-57948959D01*
X99218017Y-57999214D01*
X99208072Y-58061519D01*
X99196500Y-58122071D01*
X99187379Y-58167762D01*
X99179492Y-58208011D01*
X99173338Y-58240201D01*
X99169419Y-58261719D01*
X99168216Y-58269827D01*
X99171721Y-58265354D01*
X99181233Y-58248926D01*
X99195484Y-58222836D01*
X99213207Y-58189381D01*
X99222701Y-58171139D01*
X99269852Y-58085260D01*
X99315189Y-58013648D01*
X99359710Y-57954818D01*
X99392630Y-57918728D01*
X99435164Y-57881935D01*
X99476492Y-57859141D01*
X99519591Y-57848903D01*
X99538498Y-57848000D01*
X99579918Y-57853460D01*
X99614119Y-57870260D01*
X99641415Y-57899024D01*
X99662121Y-57940379D01*
X99676551Y-57994950D01*
X99685020Y-58063362D01*
X99687841Y-58144883D01*
X99688740Y-58193533D01*
X99691061Y-58235249D01*
X99694562Y-58267750D01*
X99698999Y-58288759D01*
X99703990Y-58296000D01*
X99709183Y-58289196D01*
X99720410Y-58270174D01*
X99736528Y-58241014D01*
X99756394Y-58203798D01*
X99778867Y-58160608D01*
X99786977Y-58144778D01*
X99823199Y-58075178D01*
X99854370Y-58018643D01*
X99881663Y-57973496D01*
X99906251Y-57938061D01*
X99929305Y-57910661D01*
X99951998Y-57889619D01*
X99975502Y-57873261D01*
X99977765Y-57871921D01*
X100003102Y-57858294D01*
X100024101Y-57851258D01*
X100048008Y-57849149D01*
X100073731Y-57849871D01*
X100104560Y-57852284D01*
X100125077Y-57857097D01*
X100140963Y-57866213D01*
X100152446Y-57876246D01*
X100171151Y-57896707D01*
X100186553Y-57920413D01*
X100199308Y-57949543D01*
X100210074Y-57986275D01*
X100219510Y-58032789D01*
X100228272Y-58091263D01*
X100235682Y-58152000D01*
X100241449Y-58198587D01*
X100248090Y-58245745D01*
X100254787Y-58287988D01*
X100260720Y-58319832D01*
X100260756Y-58320000D01*
X100268277Y-58351915D01*
X100276546Y-58374060D01*
X100288938Y-58392447D01*
X100308827Y-58413088D01*
X100317774Y-58421573D01*
X100343638Y-58448004D01*
X100357799Y-58468226D01*
X100362000Y-58484325D01*
X100354566Y-58513442D01*
X100334533Y-58540064D01*
X100305299Y-58561851D01*
X100270263Y-58576463D01*
X100232824Y-58581560D01*
X100221717Y-58580894D01*
X100179408Y-58570103D01*
X100145183Y-58547340D01*
X100118127Y-58511636D01*
X100097325Y-58462021D01*
X100091970Y-58443540D01*
X100087075Y-58420144D01*
X100081242Y-58384386D01*
X100074974Y-58339837D01*
X100068780Y-58290068D01*
X100063709Y-58244000D01*
X100056452Y-58178153D01*
X100049672Y-58127131D01*
X100043133Y-58089775D01*
X100036598Y-58064925D01*
X100029831Y-58051422D01*
X100023740Y-58048000D01*
X100014959Y-58052301D01*
X100002804Y-58065845D01*
X99986694Y-58089594D01*
X99966045Y-58124510D01*
X99940274Y-58171554D01*
X99908799Y-58231688D01*
X99889110Y-58270169D01*
X99862761Y-58321253D01*
X99837143Y-58369571D01*
X99813635Y-58412625D01*
X99793617Y-58447914D01*
X99778468Y-58472939D01*
X99772065Y-58482283D01*
X99745193Y-58510112D01*
X99712681Y-58532996D01*
X99679602Y-58547888D01*
X99656000Y-58552000D01*
X99629956Y-58546907D01*
X99600714Y-58533910D01*
X99574377Y-58516427D01*
X99557052Y-58497879D01*
X99555989Y-58495979D01*
X99547604Y-58473907D01*
X99540323Y-58441631D01*
X99533989Y-58397906D01*
X99528444Y-58341488D01*
X99523529Y-58271131D01*
X99520582Y-58217032D01*
X99517713Y-58167987D01*
X99514398Y-58125415D01*
X99510888Y-58091790D01*
X99507436Y-58069585D01*
X99504738Y-58061538D01*
X99496589Y-58058788D01*
X99484983Y-58064645D01*
X99469035Y-58080123D01*
X99447856Y-58106232D01*
X99420561Y-58143986D01*
X99386262Y-58194396D01*
X99379868Y-58204000D01*
X99342768Y-58261322D01*
X99307156Y-58319078D01*
X99274090Y-58375314D01*
X99244629Y-58428076D01*
X99219831Y-58475411D01*
X99200755Y-58515365D01*
X99188459Y-58545983D01*
X99184001Y-58565313D01*
X99184000Y-58565582D01*
X99178696Y-58578251D01*
X99165483Y-58595491D01*
X99160615Y-58600615D01*
X99131109Y-58619780D01*
X99097279Y-58625405D01*
X99063407Y-58617443D01*
X99039967Y-58602000D01*
X99025866Y-58586603D01*
X99015183Y-58567893D01*
X99007679Y-58543903D01*
X99003113Y-58512667D01*
X99001247Y-58472218D01*
X99001839Y-58420591D01*
X99004651Y-58355818D01*
X99006322Y-58326159D01*
X99009738Y-58272868D01*
X99013539Y-58221399D01*
X99017428Y-58175251D01*
X99021110Y-58137925D01*
X99024287Y-58112921D01*
X99024414Y-58112140D01*
X99028125Y-58084161D01*
X99032107Y-58045136D01*
X99035908Y-58000004D01*
X99039077Y-57953703D01*
X99039372Y-57948675D01*
X99042061Y-57904259D01*
X99044567Y-57872923D01*
X99047513Y-57851766D01*
X99051522Y-57837890D01*
X99057217Y-57828394D01*
X99065222Y-57820378D01*
X99067344Y-57818534D01*
X99096101Y-57803470D01*
X99129452Y-57800517D01*
X99162916Y-57808609D01*
G37*
G36*
X98118572Y-58268942D02*
G01*
X98143464Y-58202853D01*
X98156571Y-58175331D01*
X98182701Y-58128799D01*
X98216731Y-58076376D01*
X98254977Y-58023213D01*
X98293757Y-57974455D01*
X98325595Y-57939082D01*
X98382086Y-57885839D01*
X98435044Y-57846087D01*
X98486939Y-57818489D01*
X98540244Y-57801704D01*
X98592000Y-57794703D01*
X98625255Y-57793347D01*
X98647849Y-57794901D01*
X98664976Y-57800131D01*
X98678103Y-57807394D01*
X98699679Y-57826402D01*
X98716735Y-57850233D01*
X98717585Y-57851945D01*
X98730336Y-57871261D01*
X98743640Y-57879885D01*
X98745105Y-57880000D01*
X98773740Y-57886721D01*
X98797689Y-57904146D01*
X98808040Y-57920098D01*
X98811152Y-57931799D01*
X98811894Y-57948233D01*
X98810039Y-57971974D01*
X98805361Y-58005593D01*
X98797632Y-58051662D01*
X98795262Y-58065061D01*
X98783175Y-58143562D01*
X98775310Y-58218319D01*
X98771702Y-58287101D01*
X98772386Y-58347675D01*
X98777396Y-58397809D01*
X98786769Y-58435271D01*
X98789346Y-58441432D01*
X98808870Y-58472791D01*
X98831183Y-58491577D01*
X98853590Y-58510769D01*
X98862547Y-58536159D01*
X98856890Y-58564067D01*
X98855155Y-58567445D01*
X98834856Y-58590119D01*
X98804429Y-58607936D01*
X98769019Y-58619329D01*
X98733775Y-58622733D01*
X98703845Y-58616580D01*
X98700000Y-58614664D01*
X98671957Y-58594597D01*
X98650751Y-58568004D01*
X98635301Y-58532495D01*
X98624523Y-58485680D01*
X98618092Y-58433735D01*
X98612000Y-58367470D01*
X98580000Y-58408595D01*
X98544562Y-58448449D01*
X98500587Y-58489409D01*
X98453039Y-58527356D01*
X98406886Y-58558171D01*
X98385758Y-58569679D01*
X98345001Y-58586586D01*
X98304535Y-58595448D01*
X98277758Y-58597907D01*
X98225885Y-58596135D01*
X98184034Y-58583119D01*
X98149816Y-58557708D01*
X98124000Y-58523986D01*
X98112973Y-58505102D01*
X98105977Y-58488552D01*
X98102113Y-58469838D01*
X98100487Y-58444461D01*
X98100201Y-58407925D01*
X98100208Y-58404607D01*
X98101994Y-58376272D01*
X98281197Y-58376272D01*
X98281259Y-58406135D01*
X98286388Y-58425734D01*
X98287830Y-58427795D01*
X98303774Y-58435771D01*
X98329019Y-58431956D01*
X98364132Y-58416240D01*
X98372428Y-58411637D01*
X98398071Y-58393268D01*
X98429766Y-58364913D01*
X98464497Y-58329773D01*
X98499253Y-58291047D01*
X98531019Y-58251935D01*
X98556249Y-58216463D01*
X98588874Y-58159747D01*
X98611602Y-58106531D01*
X98624079Y-58058498D01*
X98625954Y-58017331D01*
X98616875Y-57984714D01*
X98607439Y-57971403D01*
X98591546Y-57957366D01*
X98576203Y-57953112D01*
X98556306Y-57958354D01*
X98537029Y-57967475D01*
X98508094Y-57987414D01*
X98474467Y-58018958D01*
X98438341Y-58059270D01*
X98401908Y-58105514D01*
X98367364Y-58154851D01*
X98336900Y-58204446D01*
X98312712Y-58251461D01*
X98306730Y-58265315D01*
X98294400Y-58301842D01*
X98285733Y-58340167D01*
X98281197Y-58376272D01*
X98101994Y-58376272D01*
X98104648Y-58334178D01*
X98118572Y-58268942D01*
G37*
G36*
X96281326Y-57529653D02*
G01*
X96321744Y-57531776D01*
X96351257Y-57534986D01*
X96374964Y-57540374D01*
X96397960Y-57549031D01*
X96419813Y-57559311D01*
X96466141Y-57587193D01*
X96497600Y-57618456D01*
X96515190Y-57654413D01*
X96519987Y-57691200D01*
X96513725Y-57737381D01*
X96495801Y-57774169D01*
X96467467Y-57800183D01*
X96429971Y-57814042D01*
X96407022Y-57815987D01*
X96387839Y-57814688D01*
X96378565Y-57807633D01*
X96373897Y-57790116D01*
X96373218Y-57786000D01*
X96362931Y-57750700D01*
X96344014Y-57725014D01*
X96314871Y-57707980D01*
X96273905Y-57698634D01*
X96223977Y-57696000D01*
X96150295Y-57703172D01*
X96076984Y-57723572D01*
X96009549Y-57755526D01*
X95992219Y-57766484D01*
X95950703Y-57799806D01*
X95924465Y-57833864D01*
X95912783Y-57869702D01*
X95912000Y-57882421D01*
X95914106Y-57904173D01*
X95922558Y-57921796D01*
X95940553Y-57941620D01*
X95943172Y-57944131D01*
X95956137Y-57955256D01*
X95971439Y-57965357D01*
X95991500Y-57975488D01*
X96018746Y-57986708D01*
X96055598Y-58000072D01*
X96104482Y-58016638D01*
X96125172Y-58023484D01*
X96211136Y-58053007D01*
X96282660Y-58080385D01*
X96341038Y-58106372D01*
X96387565Y-58131723D01*
X96423535Y-58157191D01*
X96450244Y-58183532D01*
X96468985Y-58211499D01*
X96476506Y-58228213D01*
X96485651Y-58270440D01*
X96484806Y-58317343D01*
X96474401Y-58361459D01*
X96467992Y-58376014D01*
X96437338Y-58420803D01*
X96392891Y-58465233D01*
X96336830Y-58508006D01*
X96271334Y-58547825D01*
X96198581Y-58583395D01*
X96120753Y-58613418D01*
X96040026Y-58636597D01*
X96024000Y-58640238D01*
X95967817Y-58650397D01*
X95910647Y-58657131D01*
X95856402Y-58660241D01*
X95808994Y-58659527D01*
X95772335Y-58654788D01*
X95766788Y-58653383D01*
X95720074Y-58635017D01*
X95687941Y-58610290D01*
X95670182Y-58578947D01*
X95666586Y-58540731D01*
X95667682Y-58531329D01*
X95676520Y-58502890D01*
X95692337Y-58476718D01*
X95711759Y-58457055D01*
X95731409Y-58448147D01*
X95733957Y-58448000D01*
X95749506Y-58450676D01*
X95774048Y-58457620D01*
X95796747Y-58465355D01*
X95854377Y-58479492D01*
X95919992Y-58483647D01*
X95989143Y-58477905D01*
X96057378Y-58462351D01*
X96064000Y-58460253D01*
X96127194Y-58437218D01*
X96182661Y-58412129D01*
X96228834Y-58386000D01*
X96264148Y-58359849D01*
X96287038Y-58334692D01*
X96295938Y-58311545D01*
X96296000Y-58309626D01*
X96293935Y-58295177D01*
X96286773Y-58281722D01*
X96273063Y-58268468D01*
X96251352Y-58254622D01*
X96220189Y-58239389D01*
X96178122Y-58221976D01*
X96123700Y-58201590D01*
X96055470Y-58177436D01*
X96052000Y-58176230D01*
X96003063Y-58158839D01*
X95955952Y-58141389D01*
X95914107Y-58125206D01*
X95880969Y-58111616D01*
X95861763Y-58102868D01*
X95807301Y-58068347D01*
X95767246Y-58026924D01*
X95741459Y-57978370D01*
X95729803Y-57922451D01*
X95729818Y-57880929D01*
X95740143Y-57824188D01*
X95763325Y-57771521D01*
X95800554Y-57720646D01*
X95828071Y-57692000D01*
X95902533Y-57631006D01*
X95984358Y-57584195D01*
X96073410Y-57551615D01*
X96169554Y-57533316D01*
X96272654Y-57529345D01*
X96281326Y-57529653D01*
G37*
G36*
X101613191Y-57370576D02*
G01*
X101641635Y-57385182D01*
X101645334Y-57388607D01*
X101655484Y-57399819D01*
X101661302Y-57411148D01*
X101663632Y-57426920D01*
X101663312Y-57451457D01*
X101662055Y-57474607D01*
X101656750Y-57519284D01*
X101645318Y-57578397D01*
X101627825Y-57651630D01*
X101617216Y-57692000D01*
X101578740Y-57849864D01*
X101551134Y-57998410D01*
X101534169Y-58139846D01*
X101527617Y-58276381D01*
X101531252Y-58410221D01*
X101536555Y-58474230D01*
X101540168Y-58513646D01*
X101541497Y-58541106D01*
X101540375Y-58560515D01*
X101536633Y-58575776D01*
X101531703Y-58587493D01*
X101510762Y-58616690D01*
X101482143Y-58636918D01*
X101449688Y-58647154D01*
X101417241Y-58646374D01*
X101388645Y-58633555D01*
X101381636Y-58627455D01*
X101368463Y-58610202D01*
X101358516Y-58586887D01*
X101351448Y-58555462D01*
X101346914Y-58513880D01*
X101344565Y-58460094D01*
X101344027Y-58405606D01*
X101346724Y-58291131D01*
X101354930Y-58171192D01*
X101368894Y-58043529D01*
X101388867Y-57905886D01*
X101415096Y-57756005D01*
X101416604Y-57748000D01*
X101433799Y-57660338D01*
X101449623Y-57587260D01*
X101464528Y-57527452D01*
X101478969Y-57479602D01*
X101493401Y-57442397D01*
X101508278Y-57414525D01*
X101524054Y-57394672D01*
X101541182Y-57381527D01*
X101543913Y-57380044D01*
X101579276Y-57368750D01*
X101613191Y-57370576D01*
G37*
G36*
X100469710Y-58310960D02*
G01*
X100476347Y-58260143D01*
X100485060Y-58199471D01*
X100495514Y-58130892D01*
X100507377Y-58056356D01*
X100520314Y-57977811D01*
X100533991Y-57897206D01*
X100548074Y-57816489D01*
X100562229Y-57737610D01*
X100576123Y-57662516D01*
X100589420Y-57593157D01*
X100601788Y-57531482D01*
X100612893Y-57479438D01*
X100622399Y-57438976D01*
X100627970Y-57418434D01*
X100645851Y-57378191D01*
X100671617Y-57346859D01*
X100702563Y-57327353D01*
X100716258Y-57323423D01*
X100751982Y-57321178D01*
X100777551Y-57330402D01*
X100794613Y-57351768D01*
X100796527Y-57356027D01*
X100803685Y-57379105D01*
X100807230Y-57406822D01*
X100806966Y-57440790D01*
X100802693Y-57482623D01*
X100794214Y-57533934D01*
X100781332Y-57596337D01*
X100763847Y-57671444D01*
X100751886Y-57720000D01*
X100739551Y-57770007D01*
X100727065Y-57821814D01*
X100715666Y-57870207D01*
X100706591Y-57909973D01*
X100704386Y-57920000D01*
X100696763Y-57955031D01*
X100690008Y-57985893D01*
X100685118Y-58008038D01*
X100683639Y-58014620D01*
X100685422Y-58019130D01*
X100695566Y-58013319D01*
X100714759Y-57996648D01*
X100743687Y-57968574D01*
X100749691Y-57962560D01*
X100818435Y-57898933D01*
X100883171Y-57850436D01*
X100944339Y-57816829D01*
X101002381Y-57797873D01*
X101057736Y-57793329D01*
X101061015Y-57793511D01*
X101092993Y-57797016D01*
X101115945Y-57804174D01*
X101136794Y-57817363D01*
X101141666Y-57821213D01*
X101177586Y-57860386D01*
X101201557Y-57909798D01*
X101213456Y-57968912D01*
X101213162Y-58037187D01*
X101204419Y-58096302D01*
X101177211Y-58190609D01*
X101134783Y-58281273D01*
X101077672Y-58367433D01*
X101006417Y-58448226D01*
X100956284Y-58494463D01*
X100920840Y-58520898D01*
X100878509Y-58546549D01*
X100833955Y-58569077D01*
X100791841Y-58586148D01*
X100756827Y-58595423D01*
X100754075Y-58595810D01*
X100726571Y-58599280D01*
X100702534Y-58602301D01*
X100696000Y-58603119D01*
X100675415Y-58603214D01*
X100648780Y-58600376D01*
X100641174Y-58599083D01*
X100599593Y-58586136D01*
X100562988Y-58565151D01*
X100534284Y-58538667D01*
X100516403Y-58509222D01*
X100511854Y-58486790D01*
X100507531Y-58474410D01*
X100496623Y-58454479D01*
X100487854Y-58440796D01*
X100468680Y-58403282D01*
X100464000Y-58375234D01*
X100464450Y-58367564D01*
X100632845Y-58367564D01*
X100633764Y-58397342D01*
X100645342Y-58421269D01*
X100651636Y-58428363D01*
X100674508Y-58443499D01*
X100702737Y-58447135D01*
X100738353Y-58439219D01*
X100772000Y-58425260D01*
X100821359Y-58395611D01*
X100869142Y-58355323D01*
X100913890Y-58306843D01*
X100954145Y-58252619D01*
X100988448Y-58195100D01*
X101015341Y-58136732D01*
X101033364Y-58079964D01*
X101041060Y-58027243D01*
X101036970Y-57981018D01*
X101036893Y-57980713D01*
X101027155Y-57964962D01*
X101008101Y-57960202D01*
X100978980Y-57966456D01*
X100939277Y-57983631D01*
X100890088Y-58014168D01*
X100838339Y-58056812D01*
X100786778Y-58108577D01*
X100738157Y-58166476D01*
X100695226Y-58227524D01*
X100663608Y-58282926D01*
X100642742Y-58330053D01*
X100632845Y-58367564D01*
X100464450Y-58367564D01*
X100465483Y-58349974D01*
X100469710Y-58310960D01*
G37*
D15*
X133340000Y-31265000D02*
X133340000Y-32735000D01*
X133340000Y-32735000D02*
X135800000Y-32735000D01*
X135800000Y-31265000D02*
X133340000Y-31265000D01*
X127254724Y-158522500D02*
X126745276Y-158522500D01*
X127254724Y-157477500D02*
X126745276Y-157477500D01*
X147920000Y-36920000D02*
X147920000Y-33080000D01*
X146080000Y-36920000D02*
X146080000Y-33080000D01*
X120750000Y-161500000D02*
X119250000Y-161500000D01*
X119250000Y-168500000D02*
X120750000Y-168500000D01*
X116750000Y-162750000D02*
X116750000Y-167250000D01*
X123250000Y-167250000D02*
X123250000Y-162750000D01*
X186850000Y-82050000D02*
X186850000Y-94900000D01*
X195150000Y-94900000D02*
X195150000Y-82050000D01*
X186850000Y-94900000D02*
X189400000Y-97750000D01*
X195150000Y-82050000D02*
X186850000Y-82050000D01*
X189400000Y-97750000D02*
X192550000Y-97750000D01*
X192550000Y-97750000D02*
X195150000Y-94900000D01*
D17*
X85651520Y-80784360D02*
X85765820Y-80784360D01*
X85651520Y-87215640D02*
X85765820Y-87215640D01*
X94234180Y-87215640D02*
X94348480Y-87215640D01*
X94348480Y-80825000D02*
X94348480Y-87215640D01*
X85651520Y-80825000D02*
X85651520Y-87175000D01*
X94234180Y-80784360D02*
X94348480Y-80784360D01*
D18*
X86414916Y-86032000D02*
G75*
G03*
X86414916Y-86032000I-224916J0D01*
G01*
D16*
X116600000Y-126250000D02*
X122600000Y-126250000D01*
X122600000Y-126250000D02*
X122600000Y-133750000D01*
X122600000Y-133750000D02*
X116600000Y-133750000D01*
X116600000Y-133750000D02*
X116600000Y-126250000D01*
D15*
X68800000Y-74000000D02*
X66340000Y-74000000D01*
X66340000Y-75470000D02*
X68800000Y-75470000D01*
X66340000Y-74000000D02*
X66340000Y-75470000D01*
X64800000Y-74000000D02*
X62340000Y-74000000D01*
X62340000Y-75470000D02*
X64800000Y-75470000D01*
X62340000Y-74000000D02*
X62340000Y-75470000D01*
X182330420Y-68136654D02*
X182690654Y-67776420D01*
X183069346Y-68875580D02*
X183429580Y-68515346D01*
X56254724Y-77257500D02*
X55745276Y-77257500D01*
X56254724Y-76212500D02*
X55745276Y-76212500D01*
D16*
X71400000Y-80600000D02*
X71400000Y-87400000D01*
X64600000Y-87400000D02*
X64600000Y-80600000D01*
X64600000Y-80600000D02*
X71400000Y-80600000D01*
X71400000Y-87400000D02*
X64600000Y-87400000D01*
X55600000Y-89600000D02*
X62400000Y-89600000D01*
X62400000Y-89600000D02*
X62400000Y-96400000D01*
X55600000Y-96400000D02*
X55600000Y-89600000D01*
X62400000Y-96400000D02*
X55600000Y-96400000D01*
D15*
X131195000Y-131330000D02*
X131195000Y-128670000D01*
X128595000Y-131330000D02*
X128595000Y-130000000D01*
X141415000Y-131330000D02*
X141415000Y-128670000D01*
X129925000Y-131330000D02*
X128595000Y-131330000D01*
X131195000Y-128670000D02*
X141415000Y-128670000D01*
X131195000Y-131330000D02*
X141415000Y-131330000D01*
X123745276Y-42522500D02*
X124254724Y-42522500D01*
X123745276Y-41477500D02*
X124254724Y-41477500D01*
X116223880Y-158860800D02*
X116223880Y-151139200D01*
X116223880Y-151139200D02*
X123788000Y-151139200D01*
X116223880Y-158860800D02*
X123788000Y-158860800D01*
X123788000Y-151190000D02*
X123788000Y-158911600D01*
X99745276Y-78522500D02*
X100254724Y-78522500D01*
X99745276Y-77477500D02*
X100254724Y-77477500D01*
X139318276Y-70978500D02*
X139827724Y-70978500D01*
X139318276Y-72023500D02*
X139827724Y-72023500D01*
X99745276Y-62522500D02*
X100254724Y-62522500D01*
X99745276Y-61477500D02*
X100254724Y-61477500D01*
X99745276Y-73477500D02*
X100254724Y-73477500D01*
X99745276Y-74522500D02*
X100254724Y-74522500D01*
X164745276Y-121522500D02*
X165254724Y-121522500D01*
X164745276Y-120477500D02*
X165254724Y-120477500D01*
X147977500Y-74254724D02*
X147977500Y-73745276D01*
X149022500Y-74254724D02*
X149022500Y-73745276D01*
X143464499Y-82929322D02*
X144737291Y-84202115D01*
X144737291Y-84202115D02*
X145267621Y-83671784D01*
X150429501Y-86712344D02*
X149899171Y-86182014D01*
X145585819Y-81868662D02*
X147671784Y-79782697D01*
X145267621Y-83671784D02*
X143994829Y-82398992D01*
X145797952Y-85262775D02*
X146505058Y-85969882D01*
X147035388Y-85439551D02*
X146328282Y-84732445D01*
X143450357Y-82929322D02*
X148838511Y-88317476D01*
X147954627Y-87843714D02*
X148838511Y-88727598D01*
X147565718Y-87030542D02*
X148838511Y-88303334D01*
X149368841Y-87773004D02*
X148096049Y-86500212D01*
X145055489Y-81338332D02*
X145585819Y-81868662D01*
X148838511Y-88317476D02*
X153059938Y-84096049D01*
X147671784Y-79782697D02*
X149828460Y-81939373D01*
X143994829Y-82398992D02*
X143464499Y-82929322D01*
X148838511Y-88727598D02*
X149722394Y-87843714D01*
X148096049Y-86500212D02*
X147565718Y-87030542D01*
X149899171Y-86182014D02*
X151985136Y-84096049D01*
X153059938Y-84096049D02*
X147671784Y-78707895D01*
X146505058Y-85969882D02*
X147035388Y-85439551D01*
X147671784Y-78707895D02*
X143450357Y-82929322D01*
X148838511Y-88303334D02*
X149368841Y-87773004D01*
X146328282Y-84732445D02*
X145797952Y-85262775D01*
X151985136Y-84096049D02*
X149828460Y-81939373D01*
D16*
X62400000Y-98600000D02*
X62400000Y-105400000D01*
X62400000Y-105400000D02*
X55600000Y-105400000D01*
X55600000Y-105400000D02*
X55600000Y-98600000D01*
X55600000Y-98600000D02*
X62400000Y-98600000D01*
X154313321Y-64949420D02*
X149010020Y-70252721D01*
X149010020Y-70252721D02*
X144767380Y-66010081D01*
X144767380Y-66010081D02*
X150070681Y-60706780D01*
X150070681Y-60706780D02*
X154313321Y-64949420D01*
D15*
X99745276Y-65477500D02*
X100254724Y-65477500D01*
X99745276Y-66522500D02*
X100254724Y-66522500D01*
X123853733Y-35490000D02*
X124146267Y-35490000D01*
X123853733Y-36510000D02*
X124146267Y-36510000D01*
D16*
X155600000Y-36250000D02*
X161600000Y-36250000D01*
X161600000Y-36250000D02*
X161600000Y-43750000D01*
X155600000Y-43750000D02*
X155600000Y-36250000D01*
X161600000Y-43750000D02*
X155600000Y-43750000D01*
X118010030Y-58504648D02*
X125434651Y-65929269D01*
X125434651Y-65929269D02*
X121192011Y-70171910D01*
X121192011Y-70171910D02*
X113767389Y-62747288D01*
D14*
X122570869Y-69570869D02*
X122570869Y-69570869D01*
D16*
X113767389Y-62747288D02*
X118010030Y-58504648D01*
D14*
X122712290Y-69429448D02*
X122712290Y-69429448D01*
X122712291Y-69429447D02*
G75*
G03*
X122570869Y-69570869I-70711J-70711D01*
G01*
X122570870Y-69570868D02*
G75*
G03*
X122712290Y-69429448I70710J70710D01*
G01*
D15*
X143254724Y-31477500D02*
X142745276Y-31477500D01*
X143254724Y-32522500D02*
X142745276Y-32522500D01*
X59745276Y-76212500D02*
X60254724Y-76212500D01*
X59745276Y-77257500D02*
X60254724Y-77257500D01*
X67745276Y-77257500D02*
X68254724Y-77257500D01*
X67745276Y-76212500D02*
X68254724Y-76212500D01*
D16*
X153400000Y-126250000D02*
X153400000Y-133750000D01*
X153400000Y-133750000D02*
X147400000Y-133750000D01*
X147400000Y-126250000D02*
X153400000Y-126250000D01*
X147400000Y-133750000D02*
X147400000Y-126250000D01*
M02*
