G04 #@! TF.GenerationSoftware,KiCad,Pcbnew,(6.0.1)*
G04 #@! TF.CreationDate,2022-02-25T12:40:39+09:00*
G04 #@! TF.ProjectId,main20220221,6d61696e-3230-4323-9230-3232312e6b69,rev?*
G04 #@! TF.SameCoordinates,Original*
G04 #@! TF.FileFunction,Profile,NP*
%FSLAX46Y46*%
G04 Gerber Fmt 4.6, Leading zero omitted, Abs format (unit mm)*
G04 Created by KiCad (PCBNEW (6.0.1)) date 2022-02-25 12:40:39*
%MOMM*%
%LPD*%
G01*
G04 APERTURE LIST*
G04 #@! TA.AperFunction,Profile*
%ADD10C,0.200000*%
G04 #@! TD*
G04 #@! TA.AperFunction,Profile*
%ADD11C,0.100000*%
G04 #@! TD*
G04 APERTURE END LIST*
D10*
X120000001Y-43999999D02*
X120000001Y-35999999D01*
X111000001Y-135000001D02*
X114000001Y-135000001D01*
X209117083Y-113912499D02*
G75*
G03*
X211425723Y-114287139I1414212J1414213D01*
G01*
X111949187Y-171814791D02*
X111445784Y-171671285D01*
X140585788Y-99414214D02*
X148585788Y-91414214D01*
X151000001Y-44999999D02*
X154000001Y-44999999D01*
X139171574Y-80000000D02*
X130828428Y-80000000D01*
X53547495Y-68226252D02*
X58574280Y-65712860D01*
X60882920Y-66087501D02*
X65057090Y-70261670D01*
X197639612Y-109298989D02*
G75*
G03*
X196578952Y-109738329I1J-1500002D01*
G01*
X114000001Y-125000001D02*
X111000001Y-125000001D01*
X196578952Y-109738329D02*
X188930719Y-117386561D01*
X114000001Y-135000001D02*
G75*
G03*
X115000001Y-134000001I-3J1000003D01*
G01*
X114011150Y-30499999D02*
G75*
G03*
X112596937Y-31085786I-1J-1999995D01*
G01*
X65057090Y-70261670D02*
G75*
G03*
X66117751Y-70701010I1060663J1060667D01*
G01*
X60882920Y-66087501D02*
G75*
G03*
X58574280Y-65712860I-1414214J-1414215D01*
G01*
X116414214Y-53585786D02*
G75*
G03*
X116414214Y-56414213I1414215J-1414214D01*
G01*
X66117751Y-70701010D02*
X72360391Y-70701010D01*
X110000001Y-126000001D02*
X110000001Y-134000001D01*
X154028428Y-90000000D02*
G75*
G03*
X154028428Y-90000000I-1200000J0D01*
G01*
X110358364Y-168874645D02*
G75*
G03*
X110358364Y-168874645I-1200000J0D01*
G01*
X107744150Y-167460432D02*
X115261672Y-159942911D01*
X158554218Y-171671285D02*
G75*
G03*
X158767064Y-171596664I-554257J1921809D01*
G01*
X72360391Y-109298989D02*
X66117751Y-109298989D01*
X216452507Y-111773748D02*
X211425723Y-114287139D01*
X153585788Y-53585786D02*
X150585788Y-50585786D01*
X154738331Y-159942911D02*
X162255852Y-167460432D01*
X111232935Y-171596663D02*
G75*
G03*
X111445784Y-171671285I767059J1847059D01*
G01*
X159000001Y-135000001D02*
G75*
G03*
X160000001Y-134000001I-3J1000003D01*
G01*
X148585788Y-91414214D02*
G75*
G03*
X148585788Y-88585786I-1414216J1414214D01*
G01*
X116000001Y-44999999D02*
X119000001Y-44999999D01*
X157188852Y-32499999D02*
G75*
G03*
X157188852Y-32499999I-1200000J0D01*
G01*
X58574280Y-114287140D02*
X53547495Y-111773748D01*
X197639612Y-70701010D02*
X203882252Y-70701011D01*
X158554218Y-171671285D02*
X158050815Y-171814791D01*
X81069284Y-62613438D02*
X107613439Y-36069283D01*
X139171574Y-70000000D02*
G75*
G03*
X140585788Y-69414213I0J2000000D01*
G01*
X148585788Y-88585786D02*
X140585788Y-80585786D01*
X115000001Y-35999999D02*
X115000001Y-43999999D01*
X157403066Y-31085786D02*
X162386563Y-36069283D01*
X114011150Y-30499999D02*
X155988852Y-30499999D01*
X107613440Y-143930717D02*
X81069284Y-117386562D01*
X161464329Y-170775238D02*
G75*
G03*
X162255852Y-167460432I-622690J1900593D01*
G01*
X115000001Y-126000001D02*
G75*
G03*
X114000001Y-125000001I-1000003J-3D01*
G01*
X154738331Y-151578950D02*
G75*
G03*
X154298991Y-152639610I1060662J-1060661D01*
G01*
X111949187Y-171814791D02*
G75*
G03*
X112491559Y-171889737I542370J1925043D01*
G01*
X111000001Y-125000001D02*
G75*
G03*
X110000001Y-126000001I-1J-999999D01*
G01*
X211425724Y-65712859D02*
X216452507Y-68226252D01*
X217499238Y-69533543D02*
G75*
G03*
X216452507Y-68226252I-1941162J-481566D01*
G01*
X216452507Y-111773748D02*
G75*
G03*
X217499238Y-110466457I-894431J1788857D01*
G01*
X155000001Y-43999999D02*
X155000001Y-35999999D01*
X157403066Y-31085786D02*
G75*
G03*
X155988852Y-30499999I-1414214J-1414213D01*
G01*
X209117083Y-113912499D02*
X204942913Y-109738330D01*
X121414214Y-91414214D02*
X129414214Y-99414214D01*
X130828428Y-100000000D02*
X139171574Y-100000000D01*
X160000001Y-126000001D02*
G75*
G03*
X159000001Y-125000001I-999999J1D01*
G01*
X120000001Y-35999999D02*
G75*
G03*
X119000001Y-34999999I-999999J1D01*
G01*
X203882252Y-109298989D02*
X197639612Y-109298989D01*
X115211150Y-32499999D02*
G75*
G03*
X115211150Y-32499999I-1200000J0D01*
G01*
X217499238Y-110466457D02*
G75*
G03*
X217499238Y-69533543I-82499231J20466457D01*
G01*
X196578952Y-70261670D02*
G75*
G03*
X197639612Y-70701010I1060661J1060662D01*
G01*
X153585788Y-56414213D02*
G75*
G03*
X153585788Y-53585786I-1414215J1414213D01*
G01*
X115701012Y-158882250D02*
X115701012Y-152639610D01*
X119000001Y-44999999D02*
G75*
G03*
X120000001Y-43999999I1J999999D01*
G01*
X115000001Y-134000001D02*
X115000001Y-126000001D01*
X58574280Y-114287140D02*
G75*
G03*
X60882921Y-113912499I894428J1788852D01*
G01*
X53547495Y-68226252D02*
G75*
G03*
X52500764Y-69533543I894431J-1788857D01*
G01*
X52500764Y-110466457D02*
G75*
G03*
X53547495Y-111773748I1941162J481566D01*
G01*
X115000001Y-43999999D02*
G75*
G03*
X116000001Y-44999999I999999J-1D01*
G01*
X161464329Y-170775238D02*
X158767064Y-171596664D01*
X149171574Y-49999999D02*
X120828428Y-49999999D01*
X120828428Y-49999999D02*
G75*
G03*
X119414214Y-50585786I0J-2000000D01*
G01*
X130828428Y-70000000D02*
X139171574Y-70000000D01*
X188930719Y-62613437D02*
X196578952Y-70261670D01*
X204942913Y-109738330D02*
G75*
G03*
X203882252Y-109298989I-1060660J-1060657D01*
G01*
X73421051Y-109738329D02*
G75*
G03*
X72360391Y-109298989I-1060661J-1060662D01*
G01*
X154298991Y-158882250D02*
G75*
G03*
X154738331Y-159942911I1500002J0D01*
G01*
X156000001Y-135000001D02*
X159000001Y-135000001D01*
X60668707Y-67501714D02*
G75*
G03*
X60668707Y-67501714I-1200000J0D01*
G01*
X107613439Y-36069283D02*
X112596937Y-31085786D01*
X211731296Y-67501714D02*
G75*
G03*
X211731296Y-67501714I-1200000J0D01*
G01*
X162386563Y-36069283D02*
X188930719Y-62613437D01*
X162041639Y-168874645D02*
G75*
G03*
X162041639Y-168874645I-1200000J0D01*
G01*
X115701012Y-152639610D02*
G75*
G03*
X115261672Y-151578950I-1500002J-1D01*
G01*
X155000001Y-35999999D02*
G75*
G03*
X154000001Y-34999999I-999999J1D01*
G01*
X129414214Y-69414213D02*
G75*
G03*
X130828428Y-70000000I1414214J1414213D01*
G01*
X130828428Y-80000000D02*
G75*
G03*
X129414214Y-80585786I1J-2000004D01*
G01*
X118371574Y-90000000D02*
G75*
G03*
X118371574Y-90000000I-1200000J0D01*
G01*
X81069284Y-117386562D02*
X73421051Y-109738329D01*
X150000001Y-43999999D02*
G75*
G03*
X151000001Y-44999999I999999J-1D01*
G01*
X150000001Y-35999999D02*
X150000001Y-43999999D01*
X140585788Y-80585786D02*
G75*
G03*
X139171574Y-80000000I-1414215J-1414218D01*
G01*
X107744150Y-167460432D02*
G75*
G03*
X108535674Y-170775239I1414214J-1414213D01*
G01*
X160000001Y-134000001D02*
X160000001Y-126000001D01*
X72360391Y-70701010D02*
G75*
G03*
X73421051Y-70261670I-1J1500002D01*
G01*
X155000001Y-134000001D02*
G75*
G03*
X156000001Y-135000001I1000003J3D01*
G01*
X65057090Y-109738329D02*
X60882921Y-113912499D01*
X111232935Y-171596663D02*
X108535674Y-170775239D01*
X155000001Y-126000001D02*
X155000001Y-134000001D01*
X116000001Y-34999999D02*
G75*
G03*
X115000001Y-35999999I-1J-999999D01*
G01*
X129414214Y-80585786D02*
X121414214Y-88585786D01*
X151000001Y-34999999D02*
G75*
G03*
X150000001Y-35999999I-1J-999999D01*
G01*
X116414214Y-56414213D02*
X129414214Y-69414213D01*
X73421051Y-70261670D02*
X81069284Y-62613438D01*
X157508443Y-171889737D02*
G75*
G03*
X158050815Y-171814791I2J1999989D01*
G01*
X159000001Y-125000001D02*
X156000001Y-125000001D01*
X156000001Y-125000001D02*
G75*
G03*
X155000001Y-126000001I3J-1000003D01*
G01*
X140585788Y-69414213D02*
X153585788Y-56414213D01*
X115261672Y-151578950D02*
X107613440Y-143930717D01*
X211425724Y-65712859D02*
G75*
G03*
X209117082Y-66087500I-894427J-1788859D01*
G01*
X188930719Y-117386561D02*
X162386564Y-143930717D01*
X129414214Y-99414214D02*
G75*
G03*
X130828428Y-100000000I1414215J1414218D01*
G01*
X203882252Y-70701011D02*
G75*
G03*
X204942913Y-70261670I1J1499998D01*
G01*
X121414214Y-88585786D02*
G75*
G03*
X121414214Y-91414214I1414216J-1414214D01*
G01*
X204942913Y-70261670D02*
X209117082Y-66087500D01*
X66117751Y-109298989D02*
G75*
G03*
X65057090Y-109738329I0J-1500002D01*
G01*
X154000001Y-44999999D02*
G75*
G03*
X155000001Y-43999999I1J999999D01*
G01*
X211731296Y-112498285D02*
G75*
G03*
X211731296Y-112498285I-1200000J0D01*
G01*
X110000001Y-134000001D02*
G75*
G03*
X111000001Y-135000001I1000003J3D01*
G01*
X154298991Y-152639610D02*
X154298991Y-158882250D01*
X157508443Y-171889737D02*
X112491559Y-171889737D01*
X154000001Y-34999999D02*
X151000001Y-34999999D01*
X150585788Y-50585786D02*
G75*
G03*
X149171574Y-49999999I-1414214J-1414213D01*
G01*
X60668707Y-112498285D02*
G75*
G03*
X60668707Y-112498285I-1200000J0D01*
G01*
X115261672Y-159942911D02*
G75*
G03*
X115701012Y-158882250I-1060662J1060661D01*
G01*
X119414214Y-50585786D02*
X116414214Y-53585786D01*
X52500764Y-69533543D02*
G75*
G03*
X52500764Y-110466457I82499231J-20466457D01*
G01*
X139171574Y-100000000D02*
G75*
G03*
X140585788Y-99414214I-1J2000004D01*
G01*
X119000001Y-34999999D02*
X116000001Y-34999999D01*
X162386564Y-143930717D02*
X154738331Y-151578950D01*
D11*
X51666666Y-175000000D02*
G75*
G03*
X51666666Y-175000000I-1666666J0D01*
G01*
X47500000Y-175000000D02*
X52500000Y-175000000D01*
X50000000Y-172500000D02*
X50000000Y-177500000D01*
M02*
