M48
; DRILL file {KiCad (6.0.1)} date Fri Feb 25 12:41:11 2022
; FORMAT={-:-/ absolute / metric / decimal}
; #@! TF.CreationDate,2022-02-25T12:41:11+09:00
; #@! TF.GenerationSoftware,Kicad,Pcbnew,(6.0.1)
; #@! TF.FileFunction,MixedPlating,1,2
FMAT,2
METRIC
; #@! TA.AperFunction,Plated,PTH,ViaDrill
T1C0.400
; #@! TA.AperFunction,Plated,PTH,ComponentDrill
T2C0.650
; #@! TA.AperFunction,Plated,PTH,ComponentDrill
T3C0.700
; #@! TA.AperFunction,Plated,PTH,ComponentDrill
T4C0.730
; #@! TA.AperFunction,Plated,PTH,ComponentDrill
T5C0.750
; #@! TA.AperFunction,Plated,PTH,ComponentDrill
T6C0.800
; #@! TA.AperFunction,Plated,PTH,ComponentDrill
T7C0.813
; #@! TA.AperFunction,Plated,PTH,ComponentDrill
T8C0.920
; #@! TA.AperFunction,Plated,PTH,ComponentDrill
T9C1.000
; #@! TA.AperFunction,Plated,PTH,ComponentDrill
T10C1.100
; #@! TA.AperFunction,Plated,PTH,ComponentDrill
T11C2.000
; #@! TA.AperFunction,Plated,PTH,ComponentDrill
T12C4.500
; #@! TA.AperFunction,NonPlated,NPTH,ComponentDrill
T13C0.750
%
G90
G05
T1
X51.794Y-93.918
X52.15Y-104.264
X63.0Y-70.862
X70.769Y-99.228
X70.929Y-78.331
X72.616Y-77.556
X76.301Y-85.611
X79.015Y-71.137
X87.341Y-114.419
X87.748Y-89.214
X87.846Y-101.219
X87.958Y-75.058
X89.52Y-93.801
X89.827Y-115.237
X90.296Y-101.235
X90.998Y-81.703
X91.073Y-98.252
X91.229Y-117.33
X91.811Y-89.226
X92.076Y-97.753
X92.286Y-94.403
X92.934Y-82.458
X94.12Y-115.304
X94.911Y-118.105
X95.62Y-66.413
X95.896Y-86.59
X96.669Y-99.317
X97.643Y-115.016
X98.867Y-71.734
X99.259Y-102.568
X100.921Y-103.35
X102.024Y-100.434
X102.816Y-104.373
X103.604Y-107.709
X103.63Y-117.975
X103.81Y-111.688
X104.605Y-104.845
X105.49Y-41.225
X105.831Y-71.501
X107.139Y-122.965
X107.268Y-87.652
X107.268Y-100.092
X108.992Y-70.487
X109.761Y-74.922
X111.512Y-63.415
X111.768Y-85.098
X112.656Y-62.0
X112.895Y-85.694
X112.953Y-66.0
X113.41Y-112.592
X115.022Y-112.794
X117.125Y-123.766
X118.109Y-31.162
X118.807Y-123.766
X123.087Y-43.139
X125.617Y-99.549
X126.907Y-149.617
X129.159Y-48.99
X130.744Y-32.913
X133.735Y-153.839
X137.262Y-72.82
X138.573Y-115.164
X138.815Y-138.559
X138.85Y-118.125
X142.116Y-76.842
X142.682Y-126.693
X143.504Y-43.298
X146.076Y-138.559
X146.46Y-74.681
X147.038Y-104.984
X150.445Y-108.082
X150.753Y-106.896
X155.284Y-110.864
X156.804Y-95.647
X157.491Y-91.319
X158.582Y-91.311
X158.824Y-48.195
X162.524Y-63.6
X167.132Y-78.359
X168.529Y-66.675
X168.572Y-78.316
X170.18Y-78.359
X172.466Y-105.918
X174.998Y-76.155
X176.276Y-73.533
T2
X71.374Y-75.184
X71.374Y-76.454
T3
X147.0Y-32.46
X147.0Y-37.54
X147.0Y-39.92
X147.0Y-45.0
X169.5Y-117.0
X171.0Y-117.0
X172.5Y-117.0
X174.0Y-117.0
T4
X110.0Y-37.75
X110.0Y-39.25
X110.0Y-40.75
X110.0Y-42.25
X115.818Y-62.818
X116.879Y-63.879
X117.939Y-64.939
X119.0Y-66.0
X120.061Y-67.061
X121.0Y-127.75
X121.0Y-129.25
X121.0Y-130.75
X121.0Y-132.25
X121.121Y-68.121
X129.75Y-75.425
X131.25Y-75.425
X132.75Y-75.425
X134.25Y-75.425
X135.75Y-75.425
X137.25Y-75.425
X138.75Y-75.425
X140.25Y-75.425
X148.939Y-68.061
X149.0Y-127.75
X149.0Y-129.25
X149.0Y-130.75
X149.0Y-132.25
X150.0Y-67.0
X151.061Y-65.939
X152.121Y-64.879
X160.0Y-37.75
X160.0Y-39.25
X160.0Y-40.75
X160.0Y-42.25
T5
X171.0Y-125.0
X173.0Y-125.0
T6
X67.0Y-98.38
X67.0Y-106.0
X69.54Y-98.38
X69.54Y-106.0
T7
X117.565Y-152.46
X117.565Y-155.0
X117.565Y-157.54
X122.645Y-152.46
X122.645Y-155.0
X122.645Y-157.54
T8
X56.5Y-84.0
X56.5Y-93.0
X56.5Y-102.0
X59.0Y-81.5
X59.0Y-90.5
X59.0Y-99.5
X61.5Y-84.0
X61.5Y-93.0
X61.5Y-102.0
X65.5Y-84.0
X65.5Y-93.0
X68.0Y-81.5
X68.0Y-90.5
X70.5Y-84.0
X70.5Y-93.0
T9
X79.295Y-112.331
X79.331Y-67.705
X81.091Y-114.127
X81.127Y-65.909
X82.887Y-115.923
X82.923Y-64.113
X84.683Y-117.719
X84.719Y-62.317
X121.0Y-95.232
X121.232Y-84.768
X122.768Y-97.0
X123.0Y-83.0
X129.925Y-130.0
X132.465Y-130.0
X135.005Y-130.0
X137.545Y-130.0
X140.085Y-130.0
X140.19Y-146.0
X142.73Y-146.0
X145.27Y-146.0
X147.0Y-97.0
X147.0Y-83.0
X147.81Y-146.0
X148.768Y-95.232
X148.768Y-84.768
X180.0Y-103.925
X180.0Y-106.465
X180.0Y-109.005
X180.0Y-111.545
X180.0Y-114.085
X185.204Y-62.204
X185.317Y-117.719
X187.0Y-64.0
X187.113Y-115.923
X188.796Y-65.796
X188.909Y-114.127
X190.592Y-67.592
X190.705Y-112.331
X192.388Y-69.388
T10
X105.79Y-101.38
X105.79Y-106.46
X105.79Y-109.0
X105.79Y-116.62
X108.33Y-101.38
X108.33Y-106.46
X108.33Y-109.0
X108.33Y-116.62
X110.87Y-101.38
X110.87Y-106.46
X110.87Y-109.0
X110.87Y-116.62
X113.41Y-101.38
X113.41Y-106.46
X113.41Y-109.0
X113.41Y-116.62
X115.95Y-101.38
X115.95Y-106.46
X115.95Y-109.0
X115.95Y-116.62
X117.75Y-161.75
X117.75Y-168.25
X118.49Y-101.38
X118.49Y-103.92
X118.49Y-106.46
X118.49Y-109.0
X118.49Y-111.54
X118.49Y-114.08
X118.49Y-116.62
X121.03Y-101.38
X121.03Y-106.46
X121.03Y-109.0
X121.03Y-116.62
X122.25Y-161.75
X122.25Y-168.25
X123.57Y-101.38
X123.57Y-106.46
X123.57Y-109.0
X123.57Y-116.62
X126.11Y-101.38
X126.11Y-106.46
X126.11Y-109.0
X126.11Y-116.62
X128.65Y-101.38
X128.65Y-116.62
X131.19Y-101.38
X131.19Y-116.62
X133.73Y-101.38
X133.73Y-116.62
X136.27Y-101.38
X136.27Y-116.62
X138.81Y-101.38
X138.81Y-116.62
X141.35Y-101.38
X141.35Y-106.46
X141.35Y-109.0
X141.35Y-116.62
X143.89Y-101.38
X143.89Y-106.46
X143.89Y-109.0
X143.89Y-116.62
X146.43Y-101.38
X146.43Y-106.46
X146.43Y-109.0
X146.43Y-116.62
X147.7Y-113.62
X148.97Y-101.38
X148.97Y-106.46
X148.97Y-109.0
X148.97Y-116.62
X150.24Y-113.62
X151.51Y-101.38
X151.51Y-103.92
X151.51Y-116.62
X152.78Y-113.62
X154.05Y-101.38
X154.05Y-103.92
X154.05Y-116.62
X155.32Y-113.62
X156.59Y-101.38
X156.59Y-103.92
X156.59Y-116.62
X157.86Y-113.62
X159.13Y-101.38
X159.13Y-116.62
X161.67Y-101.38
X161.67Y-103.92
X161.67Y-116.62
X164.21Y-101.38
X164.21Y-116.62
T11
X200.0Y-78.316
X200.0Y-84.754
X200.0Y-95.246
X200.0Y-101.684
T12
X191.0Y-86.3
X191.0Y-93.5
T13
X51.625Y-100.0
X52.2Y-80.0
X53.8Y-80.0
X54.375Y-100.0
T3
G00X116.5Y-146.0
M15
G01X117.5Y-146.0
M16
G05
G00X119.5Y-146.0
M15
G01X120.5Y-146.0
M16
G05
G00X122.5Y-146.0
M15
G01X123.5Y-146.0
M16
G05
T10
G00X209.85Y-83.0
M15
G01X212.15Y-83.0
M16
G05
G00X209.85Y-90.0
M15
G01X212.15Y-90.0
M16
G05
G00X209.85Y-97.0
M15
G01X212.15Y-97.0
M16
G05
T0
M30
