G04 #@! TF.GenerationSoftware,KiCad,Pcbnew,(6.0.1)*
G04 #@! TF.CreationDate,2022-02-25T12:40:39+09:00*
G04 #@! TF.ProjectId,main20220221,6d61696e-3230-4323-9230-3232312e6b69,rev?*
G04 #@! TF.SameCoordinates,Original*
G04 #@! TF.FileFunction,Soldermask,Bot*
G04 #@! TF.FilePolarity,Negative*
%FSLAX46Y46*%
G04 Gerber Fmt 4.6, Leading zero omitted, Abs format (unit mm)*
G04 Created by KiCad (PCBNEW (6.0.1)) date 2022-02-25 12:40:39*
%MOMM*%
%LPD*%
G01*
G04 APERTURE LIST*
G04 Aperture macros list*
%AMRoundRect*
0 Rectangle with rounded corners*
0 $1 Rounding radius*
0 $2 $3 $4 $5 $6 $7 $8 $9 X,Y pos of 4 corners*
0 Add a 4 corners polygon primitive as box body*
4,1,4,$2,$3,$4,$5,$6,$7,$8,$9,$2,$3,0*
0 Add four circle primitives for the rounded corners*
1,1,$1+$1,$2,$3*
1,1,$1+$1,$4,$5*
1,1,$1+$1,$6,$7*
1,1,$1+$1,$8,$9*
0 Add four rect primitives between the rounded corners*
20,1,$1+$1,$2,$3,$4,$5,0*
20,1,$1+$1,$4,$5,$6,$7,0*
20,1,$1+$1,$6,$7,$8,$9,0*
20,1,$1+$1,$8,$9,$2,$3,0*%
%AMHorizOval*
0 Thick line with rounded ends*
0 $1 width*
0 $2 $3 position (X,Y) of the first rounded end (center of the circle)*
0 $4 $5 position (X,Y) of the second rounded end (center of the circle)*
0 Add line between two ends*
20,1,$1,$2,$3,$4,$5,0*
0 Add two circle primitives to create the rounded ends*
1,1,$1,$2,$3*
1,1,$1,$4,$5*%
%AMRotRect*
0 Rectangle, with rotation*
0 The origin of the aperture is its center*
0 $1 length*
0 $2 width*
0 $3 Rotation angle, in degrees counterclockwise*
0 Add horizontal line*
21,1,$1,$2,0,0,$3*%
G04 Aperture macros list end*
%ADD10C,1.400000*%
%ADD11O,1.400000X1.400000*%
%ADD12R,1.250000X1.250000*%
%ADD13C,1.250000*%
%ADD14R,1.700000X1.700000*%
%ADD15O,1.700000X1.700000*%
%ADD16R,1.600000X1.600000*%
%ADD17O,1.600000X1.600000*%
%ADD18R,2.500000X1.700000*%
%ADD19O,2.500000X1.700000*%
%ADD20C,1.431000*%
%ADD21RoundRect,0.250000X-0.954594X-0.106066X-0.106066X-0.954594X0.954594X0.106066X0.106066X0.954594X0*%
%ADD22HorizOval,1.700000X-0.106066X-0.106066X0.106066X0.106066X0*%
%ADD23RoundRect,0.250000X0.106066X-0.954594X0.954594X-0.106066X-0.106066X0.954594X-0.954594X0.106066X0*%
%ADD24HorizOval,1.700000X-0.106066X0.106066X0.106066X-0.106066X0*%
%ADD25RoundRect,0.250000X-0.106066X0.954594X-0.954594X0.106066X0.106066X-0.954594X0.954594X-0.106066X0*%
%ADD26C,4.000000*%
%ADD27R,1.000000X1.000000*%
%ADD28O,1.000000X1.000000*%
%ADD29RoundRect,0.250000X-0.350000X-0.625000X0.350000X-0.625000X0.350000X0.625000X-0.350000X0.625000X0*%
%ADD30O,1.200000X1.750000*%
%ADD31RoundRect,0.631000X-1.631000X-0.631000X1.631000X-0.631000X1.631000X0.631000X-1.631000X0.631000X0*%
%ADD32R,4.524000X2.524000*%
%ADD33R,1.251000X1.251000*%
%ADD34C,1.251000*%
%ADD35C,2.000000*%
%ADD36RoundRect,1.500000X1.500000X-1.500000X1.500000X1.500000X-1.500000X1.500000X-1.500000X-1.500000X0*%
%ADD37C,6.000000*%
%ADD38R,1.524000X1.524000*%
%ADD39C,1.524000*%
%ADD40RoundRect,0.250000X0.954594X0.106066X0.106066X0.954594X-0.954594X-0.106066X-0.106066X-0.954594X0*%
%ADD41HorizOval,1.700000X0.106066X0.106066X-0.106066X-0.106066X0*%
%ADD42RotRect,1.251000X1.251000X225.000000*%
%ADD43RotRect,1.251000X1.251000X135.000000*%
%ADD44RotRect,1.700000X1.700000X225.000000*%
%ADD45HorizOval,1.700000X0.000000X0.000000X0.000000X0.000000X0*%
%ADD46RoundRect,0.237500X-0.300000X-0.237500X0.300000X-0.237500X0.300000X0.237500X-0.300000X0.237500X0*%
%ADD47RoundRect,0.237500X-0.237500X0.300000X-0.237500X-0.300000X0.237500X-0.300000X0.237500X0.300000X0*%
%ADD48RoundRect,0.237500X0.250000X0.237500X-0.250000X0.237500X-0.250000X-0.237500X0.250000X-0.237500X0*%
%ADD49C,0.750000*%
%ADD50R,1.000000X1.550000*%
%ADD51C,1.600000*%
%ADD52RoundRect,0.237500X-0.237500X0.250000X-0.237500X-0.250000X0.237500X-0.250000X0.237500X0.250000X0*%
%ADD53R,1.600000X1.050000*%
%ADD54RotRect,1.700000X1.700000X135.000000*%
%ADD55HorizOval,1.700000X0.000000X0.000000X0.000000X0.000000X0*%
%ADD56RotRect,1.700000X1.700000X45.000000*%
%ADD57HorizOval,1.700000X0.000000X0.000000X0.000000X0.000000X0*%
%ADD58RoundRect,0.237500X-0.237500X0.287500X-0.237500X-0.287500X0.237500X-0.287500X0.237500X0.287500X0*%
%ADD59RotRect,1.700000X1.700000X315.000000*%
%ADD60HorizOval,1.700000X0.000000X0.000000X0.000000X0.000000X0*%
%ADD61R,3.300000X1.270000*%
%ADD62R,5.890000X3.810000*%
%ADD63R,4.120000X3.830000*%
%ADD64R,3.300000X4.320000*%
%ADD65R,1.270000X3.300000*%
%ADD66C,0.800000*%
G04 APERTURE END LIST*
D10*
X147000000Y-45000000D03*
D11*
X147000000Y-39920000D03*
D12*
X129750000Y-75425000D03*
D13*
X131250000Y-75425000D03*
X132750000Y-75425000D03*
X134250000Y-75425000D03*
X135750000Y-75425000D03*
X137250000Y-75425000D03*
X138750000Y-75425000D03*
X140250000Y-75425000D03*
D14*
X140190000Y-146000000D03*
D15*
X142730000Y-146000000D03*
X145270000Y-146000000D03*
X147810000Y-146000000D03*
D16*
X67000000Y-106000000D03*
D17*
X69540000Y-106000000D03*
X69540000Y-98380000D03*
X67000000Y-98380000D03*
D18*
X117000000Y-146000000D03*
D19*
X120000000Y-146000000D03*
X123000000Y-146000000D03*
D20*
X56500000Y-84000000D03*
X59000000Y-81500000D03*
X61500000Y-84000000D03*
D21*
X121000000Y-95232200D03*
D22*
X122767767Y-96999967D03*
D23*
X147000000Y-97000000D03*
D24*
X148767767Y-95232233D03*
D25*
X123000000Y-83000000D03*
D24*
X121232233Y-84767767D03*
D12*
X174000000Y-117000000D03*
D13*
X172500000Y-117000000D03*
X171000000Y-117000000D03*
X169500000Y-117000000D03*
D26*
X200000000Y-84754000D03*
X200000000Y-95246000D03*
X200000000Y-78316000D03*
X200000000Y-101684000D03*
D27*
X71374000Y-75184000D03*
D28*
X71374000Y-76454000D03*
D29*
X171000000Y-125000000D03*
D30*
X173000000Y-125000000D03*
D31*
X211000000Y-97000000D03*
D32*
X211000000Y-83000000D03*
D31*
X211000000Y-90000000D03*
D33*
X110000000Y-42250000D03*
D34*
X110000000Y-40750000D03*
X110000000Y-39250000D03*
X110000000Y-37750000D03*
D20*
X65500000Y-93000000D03*
X68000000Y-90500000D03*
X70500000Y-93000000D03*
D10*
X147000000Y-37540000D03*
D11*
X147000000Y-32460000D03*
D35*
X117750000Y-161750000D03*
X117750000Y-168250000D03*
X122250000Y-168250000D03*
X122250000Y-161750000D03*
D36*
X191000000Y-93500000D03*
D37*
X191000000Y-86300000D03*
D33*
X121000000Y-127750000D03*
D34*
X121000000Y-129250000D03*
X121000000Y-130750000D03*
X121000000Y-132250000D03*
D20*
X65500000Y-84000000D03*
X68000000Y-81500000D03*
X70500000Y-84000000D03*
X56500000Y-93000000D03*
X59000000Y-90500000D03*
X61500000Y-93000000D03*
D14*
X129925000Y-130000000D03*
D15*
X132465000Y-130000000D03*
X135005000Y-130000000D03*
X137545000Y-130000000D03*
X140085000Y-130000000D03*
D38*
X122645000Y-152460000D03*
D39*
X122645000Y-155000000D03*
X122645000Y-157540000D03*
X117565000Y-152460000D03*
X117565000Y-155000000D03*
X117565000Y-157540000D03*
D40*
X148767800Y-84767800D03*
D41*
X147000033Y-83000033D03*
D20*
X56500000Y-102000000D03*
X59000000Y-99500000D03*
X61500000Y-102000000D03*
D42*
X152121290Y-64878710D03*
D34*
X151060630Y-65939370D03*
X149999970Y-67000030D03*
X148939310Y-68060690D03*
D33*
X160000000Y-37750000D03*
D34*
X160000000Y-39250000D03*
X160000000Y-40750000D03*
X160000000Y-42250000D03*
D43*
X121121300Y-68121300D03*
D34*
X120060640Y-67060640D03*
X118999980Y-65999980D03*
X117939319Y-64939319D03*
X116878659Y-63878659D03*
X115817999Y-62817999D03*
D33*
X149000000Y-132250000D03*
D34*
X149000000Y-130750000D03*
X149000000Y-129250000D03*
X149000000Y-127750000D03*
D44*
X79295300Y-112330700D03*
D45*
X81091351Y-114126751D03*
X82887402Y-115922802D03*
X84683454Y-117718854D03*
D46*
X64137500Y-72000000D03*
X65862500Y-72000000D03*
D47*
X53000000Y-92137500D03*
X53000000Y-93862500D03*
D14*
X180000000Y-103925000D03*
D15*
X180000000Y-106465000D03*
X180000000Y-109005000D03*
X180000000Y-111545000D03*
X180000000Y-114085000D03*
D48*
X55912500Y-109000000D03*
X54087500Y-109000000D03*
X135912500Y-125000000D03*
X134087500Y-125000000D03*
D49*
X51625000Y-100000000D03*
X54375000Y-100000000D03*
D50*
X52150000Y-97375000D03*
X52150000Y-102625000D03*
X53850000Y-97375000D03*
X53850000Y-102625000D03*
D46*
X132137500Y-49000000D03*
X133862500Y-49000000D03*
D48*
X141912500Y-125000000D03*
X140087500Y-125000000D03*
D16*
X164210000Y-116620000D03*
D51*
X161670000Y-116620000D03*
X159130000Y-116620000D03*
X156590000Y-116620000D03*
X154050000Y-116620000D03*
X151510000Y-116620000D03*
X148970000Y-116620000D03*
X146430000Y-116620000D03*
X143890000Y-116620000D03*
X141350000Y-116620000D03*
X138810000Y-116620000D03*
X136270000Y-116620000D03*
X133730000Y-116620000D03*
X131190000Y-116620000D03*
X128650000Y-116620000D03*
X126110000Y-116620000D03*
X123570000Y-116620000D03*
X121030000Y-116620000D03*
X118490000Y-116620000D03*
X115950000Y-116620000D03*
X113410000Y-116620000D03*
X110870000Y-116620000D03*
X108330000Y-116620000D03*
X105790000Y-116620000D03*
X118490000Y-114080000D03*
X118490000Y-111540000D03*
X118490000Y-109000000D03*
X118490000Y-106460000D03*
X118490000Y-103920000D03*
X105790000Y-101380000D03*
X108330000Y-101380000D03*
X110870000Y-101380000D03*
X113410000Y-101380000D03*
X115950000Y-101380000D03*
X118490000Y-101380000D03*
X121030000Y-101380000D03*
X123570000Y-101380000D03*
X126110000Y-101380000D03*
X128650000Y-101380000D03*
X131190000Y-101380000D03*
X133730000Y-101380000D03*
X136270000Y-101380000D03*
X138810000Y-101380000D03*
X141350000Y-101380000D03*
X143890000Y-101380000D03*
X146430000Y-101380000D03*
X148970000Y-101380000D03*
X151510000Y-101380000D03*
X154050000Y-101380000D03*
X156590000Y-101380000D03*
X159130000Y-101380000D03*
X161670000Y-101380000D03*
X164210000Y-101380000D03*
X161670000Y-103920000D03*
X156590000Y-103920000D03*
X154050000Y-103920000D03*
X151510000Y-103920000D03*
X157860000Y-113620000D03*
X155320000Y-113620000D03*
X152780000Y-113620000D03*
X150240000Y-113620000D03*
X147700000Y-113620000D03*
X148970000Y-109000000D03*
X146430000Y-109000000D03*
X143890000Y-109000000D03*
X141350000Y-109000000D03*
X126110000Y-109000000D03*
X123570000Y-109000000D03*
X121030000Y-109000000D03*
X115950000Y-109000000D03*
X113410000Y-109000000D03*
X110870000Y-109000000D03*
X108330000Y-109000000D03*
X105790000Y-109000000D03*
X105790000Y-106460000D03*
X108330000Y-106460000D03*
X110870000Y-106460000D03*
X113410000Y-106460000D03*
X115950000Y-106460000D03*
X121030000Y-106460000D03*
X123570000Y-106460000D03*
X126110000Y-106460000D03*
X141350000Y-106460000D03*
X143890000Y-106460000D03*
X146430000Y-106460000D03*
X148970000Y-106460000D03*
D52*
X211000000Y-104087500D03*
X211000000Y-105912500D03*
D49*
X52200000Y-80000000D03*
X53800000Y-80000000D03*
D53*
X53000000Y-78300000D03*
X53000000Y-81700000D03*
D54*
X190704700Y-112330700D03*
D55*
X188908649Y-114126751D03*
X187112598Y-115922802D03*
X185316546Y-117718854D03*
D56*
X192388200Y-69388200D03*
D57*
X190592149Y-67592149D03*
X188796098Y-65796098D03*
X187000046Y-64000046D03*
X185203995Y-62203995D03*
D58*
X215000000Y-104125000D03*
X215000000Y-105875000D03*
D48*
X55912500Y-71000000D03*
X54087500Y-71000000D03*
D59*
X79330700Y-67704700D03*
D60*
X81126751Y-65908649D03*
X82922802Y-64112598D03*
X84718854Y-62316546D03*
D61*
X129422000Y-39873000D03*
D62*
X130693000Y-45457000D03*
D63*
X136154000Y-45457000D03*
D64*
X140599000Y-43298000D03*
D61*
X140602000Y-39873000D03*
X140602000Y-35293000D03*
D65*
X135017000Y-34278000D03*
X132727000Y-34278000D03*
D61*
X129422000Y-35293000D03*
X129422000Y-37583000D03*
D65*
X137297000Y-34278000D03*
D66*
X130744000Y-32913500D03*
X94911100Y-118105500D03*
X99258700Y-102568400D03*
X52150000Y-104263600D03*
X143504000Y-43298000D03*
X146460500Y-74680900D03*
X142115800Y-76842000D03*
X172466000Y-105918000D03*
X176276000Y-73533000D03*
X170180000Y-78359000D03*
X129159000Y-48990500D03*
X168529000Y-66675000D03*
X167132000Y-78359000D03*
X168572000Y-78316000D03*
X118806900Y-123766300D03*
X117125300Y-123766300D03*
X107139500Y-122965100D03*
X105489900Y-41225300D03*
X104604800Y-104844900D03*
X174998400Y-76155000D03*
X103604200Y-107709200D03*
X118109300Y-31161800D03*
X158582300Y-91311300D03*
X156804100Y-95647100D03*
X138850400Y-118124900D03*
X138572600Y-115163600D03*
X108992400Y-70486800D03*
X158824300Y-48195200D03*
X162523900Y-63600400D03*
X157490600Y-91319300D03*
X138814900Y-138558600D03*
X70769500Y-99227600D03*
X146075600Y-138558600D03*
X51794100Y-93917700D03*
X112655900Y-62000000D03*
X112953100Y-66000000D03*
X102023700Y-100434000D03*
X62999600Y-70862100D03*
X79015200Y-71137200D03*
X142681700Y-126693100D03*
X111768000Y-85098100D03*
X112895400Y-85694300D03*
X111511800Y-63415100D03*
X109761400Y-74922000D03*
X150752800Y-106896500D03*
X95895600Y-86590200D03*
X107267800Y-87651800D03*
X95620500Y-66412600D03*
X155284100Y-110863900D03*
X107267800Y-100091900D03*
X137262300Y-72819700D03*
X102815800Y-104373400D03*
X98867500Y-71733700D03*
X150444800Y-108082300D03*
X87748400Y-89214100D03*
X91229000Y-117330100D03*
X90296500Y-101234900D03*
X125617100Y-99548900D03*
X103809800Y-111688100D03*
X91810800Y-89226000D03*
X92076300Y-97752700D03*
X103630300Y-117974800D03*
X92286000Y-94403400D03*
X92934200Y-82458100D03*
X94119500Y-115303900D03*
X91073000Y-98251800D03*
X90997700Y-81702600D03*
X115022000Y-112793900D03*
X113410000Y-112591800D03*
X123087500Y-43138600D03*
X126907100Y-149616700D03*
X133734800Y-153839200D03*
X96669400Y-99316600D03*
X72615600Y-77555700D03*
X70929400Y-78331000D03*
X87340800Y-114418900D03*
X76301300Y-85611500D03*
X89826800Y-115236700D03*
X147037700Y-104983800D03*
X100921300Y-103350100D03*
X87957700Y-75058100D03*
X87845600Y-101218900D03*
X89519700Y-93800700D03*
X105831200Y-71501000D03*
X97643200Y-115016300D03*
M02*
