G04 #@! TF.GenerationSoftware,KiCad,Pcbnew,(6.0.11)*
G04 #@! TF.CreationDate,2023-01-31T15:57:48+09:00*
G04 #@! TF.ProjectId,kick-drib-20230121,6b69636b-2d64-4726-9962-2d3230323330,V2.0*
G04 #@! TF.SameCoordinates,PX73bce80PY7ffbac0*
G04 #@! TF.FileFunction,Legend,Bot*
G04 #@! TF.FilePolarity,Positive*
%FSLAX46Y46*%
G04 Gerber Fmt 4.6, Leading zero omitted, Abs format (unit mm)*
G04 Created by KiCad (PCBNEW (6.0.11)) date 2023-01-31 15:57:48*
%MOMM*%
%LPD*%
G01*
G04 APERTURE LIST*
%ADD10C,0.150000*%
%ADD11C,0.120000*%
G04 APERTURE END LIST*
D10*
X52053142Y22204667D02*
X52100761Y22252286D01*
X52148380Y22395143D01*
X52148380Y22490381D01*
X52100761Y22633239D01*
X52005523Y22728477D01*
X51910285Y22776096D01*
X51719809Y22823715D01*
X51576952Y22823715D01*
X51386476Y22776096D01*
X51291238Y22728477D01*
X51196000Y22633239D01*
X51148380Y22490381D01*
X51148380Y22395143D01*
X51196000Y22252286D01*
X51243619Y22204667D01*
X51481714Y21347524D02*
X52148380Y21347524D01*
X51100761Y21585620D02*
X51815047Y21823715D01*
X51815047Y21204667D01*
X33781904Y39779820D02*
X33781904Y38970296D01*
X33734285Y38875058D01*
X33686666Y38827439D01*
X33591428Y38779820D01*
X33400952Y38779820D01*
X33305714Y38827439D01*
X33258095Y38875058D01*
X33210476Y38970296D01*
X33210476Y39779820D01*
X32829523Y39779820D02*
X32210476Y39779820D01*
X32543809Y39398867D01*
X32400952Y39398867D01*
X32305714Y39351248D01*
X32258095Y39303629D01*
X32210476Y39208391D01*
X32210476Y38970296D01*
X32258095Y38875058D01*
X32305714Y38827439D01*
X32400952Y38779820D01*
X32686666Y38779820D01*
X32781904Y38827439D01*
X32829523Y38875058D01*
X15639047Y32779820D02*
X15448571Y32779820D01*
X15353333Y32732200D01*
X15258095Y32636962D01*
X15210476Y32446486D01*
X15210476Y32113153D01*
X15258095Y31922677D01*
X15353333Y31827439D01*
X15448571Y31779820D01*
X15639047Y31779820D01*
X15734285Y31827439D01*
X15829523Y31922677D01*
X15877142Y32113153D01*
X15877142Y32446486D01*
X15829523Y32636962D01*
X15734285Y32732200D01*
X15639047Y32779820D01*
X14781904Y32779820D02*
X14781904Y31970296D01*
X14734285Y31875058D01*
X14686666Y31827439D01*
X14591428Y31779820D01*
X14400952Y31779820D01*
X14305714Y31827439D01*
X14258095Y31875058D01*
X14210476Y31970296D01*
X14210476Y32779820D01*
X13877142Y32779820D02*
X13305714Y32779820D01*
X13591428Y31779820D02*
X13591428Y32779820D01*
X12972380Y32160772D02*
X12210476Y32160772D01*
X53662857Y31779820D02*
X53662857Y32779820D01*
X53186666Y31779820D02*
X53186666Y32779820D01*
X52615238Y31779820D01*
X52615238Y32779820D01*
X52139047Y32160772D02*
X51377142Y32160772D01*
X53662857Y46279820D02*
X53662857Y47279820D01*
X53186666Y46279820D02*
X53186666Y47279820D01*
X52615238Y46279820D01*
X52615238Y47279820D01*
X52139047Y46660772D02*
X51377142Y46660772D01*
X51758095Y46279820D02*
X51758095Y47041724D01*
X16139047Y47279820D02*
X15948571Y47279820D01*
X15853333Y47232200D01*
X15758095Y47136962D01*
X15710476Y46946486D01*
X15710476Y46613153D01*
X15758095Y46422677D01*
X15853333Y46327439D01*
X15948571Y46279820D01*
X16139047Y46279820D01*
X16234285Y46327439D01*
X16329523Y46422677D01*
X16377142Y46613153D01*
X16377142Y46946486D01*
X16329523Y47136962D01*
X16234285Y47232200D01*
X16139047Y47279820D01*
X15281904Y47279820D02*
X15281904Y46470296D01*
X15234285Y46375058D01*
X15186666Y46327439D01*
X15091428Y46279820D01*
X14900952Y46279820D01*
X14805714Y46327439D01*
X14758095Y46375058D01*
X14710476Y46470296D01*
X14710476Y47279820D01*
X14377142Y47279820D02*
X13805714Y47279820D01*
X14091428Y46279820D02*
X14091428Y47279820D01*
X13472380Y46660772D02*
X12710476Y46660772D01*
X13091428Y46279820D02*
X13091428Y47041724D01*
X69331880Y40071096D02*
X68331880Y40071096D01*
X69331880Y39499667D02*
X68760452Y39928239D01*
X68331880Y39499667D02*
X68903309Y40071096D01*
X69331880Y38547286D02*
X69331880Y39118715D01*
X69331880Y38833000D02*
X68331880Y38833000D01*
X68474738Y38928239D01*
X68569976Y39023477D01*
X68617595Y39118715D01*
X52053142Y57510667D02*
X52100761Y57558286D01*
X52148380Y57701143D01*
X52148380Y57796381D01*
X52100761Y57939239D01*
X52005523Y58034477D01*
X51910285Y58082096D01*
X51719809Y58129715D01*
X51576952Y58129715D01*
X51386476Y58082096D01*
X51291238Y58034477D01*
X51196000Y57939239D01*
X51148380Y57796381D01*
X51148380Y57701143D01*
X51196000Y57558286D01*
X51243619Y57510667D01*
X51148380Y57177334D02*
X51148380Y56558286D01*
X51529333Y56891620D01*
X51529333Y56748762D01*
X51576952Y56653524D01*
X51624571Y56605905D01*
X51719809Y56558286D01*
X51957904Y56558286D01*
X52053142Y56605905D01*
X52100761Y56653524D01*
X52148380Y56748762D01*
X52148380Y57034477D01*
X52100761Y57129715D01*
X52053142Y57177334D01*
X34562380Y46565534D02*
X35276666Y46565534D01*
X35419523Y46613153D01*
X35514761Y46708391D01*
X35562380Y46851248D01*
X35562380Y46946486D01*
X34657619Y46136962D02*
X34610000Y46089343D01*
X34562380Y45994105D01*
X34562380Y45756010D01*
X34610000Y45660772D01*
X34657619Y45613153D01*
X34752857Y45565534D01*
X34848095Y45565534D01*
X34990952Y45613153D01*
X35562380Y46184581D01*
X35562380Y45565534D01*
D11*
X50163000Y24159000D02*
X38229000Y24159000D01*
X42756000Y26639000D02*
X39829000Y26639000D01*
X50441000Y23079000D02*
X37951000Y23079000D01*
X42756000Y26719000D02*
X39914000Y26719000D01*
X42756000Y26799000D02*
X40002000Y26799000D01*
X49818000Y24959000D02*
X45636000Y24959000D01*
X50041000Y24479000D02*
X45636000Y24479000D01*
X42756000Y24599000D02*
X38403000Y24599000D01*
X49935000Y24719000D02*
X45636000Y24719000D01*
X42756000Y24919000D02*
X38554000Y24919000D01*
X42756000Y26959000D02*
X40189000Y26959000D01*
X42756000Y25559000D02*
X38926000Y25559000D01*
X50434000Y23119000D02*
X37958000Y23119000D01*
X42756000Y24439000D02*
X38335000Y24439000D01*
X49776000Y25039000D02*
X45636000Y25039000D01*
X49797000Y24999000D02*
X45636000Y24999000D01*
X48724000Y26479000D02*
X45636000Y26479000D01*
X49664000Y25239000D02*
X45636000Y25239000D01*
X50454000Y22999000D02*
X37938000Y22999000D01*
X42756000Y26519000D02*
X39707000Y26519000D01*
X49439000Y25599000D02*
X45636000Y25599000D01*
X42756000Y24359000D02*
X38303000Y24359000D01*
X47265000Y27599000D02*
X41127000Y27599000D01*
X47771000Y15220918D02*
X47771000Y16470918D01*
X44953000Y28359000D02*
X43439000Y28359000D01*
X47117000Y27679000D02*
X41275000Y27679000D01*
X49838000Y24919000D02*
X45636000Y24919000D01*
X42756000Y26439000D02*
X39629000Y26439000D01*
X42756000Y24799000D02*
X38494000Y24799000D01*
X48103000Y27039000D02*
X45636000Y27039000D01*
X42756000Y27159000D02*
X40446000Y27159000D01*
X49518000Y25479000D02*
X45636000Y25479000D01*
X50427000Y23159000D02*
X37965000Y23159000D01*
X49298000Y25799000D02*
X45636000Y25799000D01*
X50177000Y24119000D02*
X38215000Y24119000D01*
X48153000Y26999000D02*
X45636000Y26999000D01*
X50476000Y22839000D02*
X37916000Y22839000D01*
X47040000Y27719000D02*
X41352000Y27719000D01*
X50523000Y22238000D02*
X37869000Y22238000D01*
X50255000Y23879000D02*
X38137000Y23879000D01*
X49048000Y26119000D02*
X45636000Y26119000D01*
X50460000Y22959000D02*
X37932000Y22959000D01*
X42756000Y25679000D02*
X39008000Y25679000D01*
X42756000Y25999000D02*
X39246000Y25999000D01*
X48801000Y26399000D02*
X45636000Y26399000D01*
X47836000Y27239000D02*
X40556000Y27239000D01*
X42756000Y24759000D02*
X38475000Y24759000D01*
X50290000Y23759000D02*
X38102000Y23759000D01*
X50481000Y22799000D02*
X37911000Y22799000D01*
X48203000Y26959000D02*
X45636000Y26959000D01*
X42756000Y24999000D02*
X38595000Y24999000D01*
X46296000Y28039000D02*
X42096000Y28039000D01*
X50024000Y24519000D02*
X45636000Y24519000D01*
X49568000Y25399000D02*
X45636000Y25399000D01*
X49710000Y25159000D02*
X45636000Y25159000D01*
X49989000Y24599000D02*
X45636000Y24599000D01*
X49327000Y25759000D02*
X45636000Y25759000D01*
X49356000Y25719000D02*
X45636000Y25719000D01*
X42756000Y24719000D02*
X38457000Y24719000D01*
X49114000Y26039000D02*
X45636000Y26039000D01*
X49384000Y25679000D02*
X45636000Y25679000D01*
X49641000Y25279000D02*
X45636000Y25279000D01*
X42756000Y26559000D02*
X39747000Y26559000D01*
X45924000Y28159000D02*
X42468000Y28159000D01*
X45779000Y28199000D02*
X42613000Y28199000D01*
X42756000Y25199000D02*
X38705000Y25199000D01*
X49081000Y26079000D02*
X45636000Y26079000D01*
X46877000Y27799000D02*
X41515000Y27799000D01*
X48910000Y26279000D02*
X45636000Y26279000D01*
X50388000Y23359000D02*
X38004000Y23359000D01*
X49858000Y24879000D02*
X45636000Y24879000D01*
X50230000Y23959000D02*
X38162000Y23959000D01*
X42756000Y27119000D02*
X40392000Y27119000D01*
X42756000Y26479000D02*
X39668000Y26479000D01*
X42756000Y25359000D02*
X38799000Y25359000D01*
X50312000Y23679000D02*
X38080000Y23679000D01*
X50135000Y24239000D02*
X38257000Y24239000D01*
X42756000Y25639000D02*
X38980000Y25639000D01*
X50516000Y22398000D02*
X37876000Y22398000D01*
X42756000Y24679000D02*
X38438000Y24679000D01*
X47720000Y27319000D02*
X40672000Y27319000D01*
X47660000Y27359000D02*
X40732000Y27359000D01*
X42756000Y25519000D02*
X38900000Y25519000D01*
X50502000Y22598000D02*
X37890000Y22598000D01*
X50362000Y23479000D02*
X38030000Y23479000D01*
X49466000Y25559000D02*
X45636000Y25559000D01*
X49898000Y24799000D02*
X45636000Y24799000D01*
X42756000Y24839000D02*
X38514000Y24839000D01*
X47946000Y27159000D02*
X45636000Y27159000D01*
X46180000Y28079000D02*
X42212000Y28079000D01*
X50352000Y23519000D02*
X38040000Y23519000D01*
X48344000Y26839000D02*
X45636000Y26839000D01*
X48874000Y26319000D02*
X45636000Y26319000D01*
X46405000Y27999000D02*
X41987000Y27999000D01*
X42756000Y26919000D02*
X40141000Y26919000D01*
X50524000Y22198000D02*
X37868000Y22198000D01*
X48390000Y26799000D02*
X45636000Y26799000D01*
X49754000Y25079000D02*
X45636000Y25079000D01*
X42756000Y25479000D02*
X38874000Y25479000D01*
X47892000Y27199000D02*
X45636000Y27199000D01*
X50104000Y24319000D02*
X38288000Y24319000D01*
X48396000Y15845918D02*
X47146000Y15845918D01*
X42756000Y24959000D02*
X38574000Y24959000D01*
X42756000Y25719000D02*
X39036000Y25719000D01*
X50420000Y23199000D02*
X37972000Y23199000D01*
X42756000Y26239000D02*
X39446000Y26239000D01*
X50191000Y24079000D02*
X38201000Y24079000D01*
X49917000Y24759000D02*
X45636000Y24759000D01*
X50508000Y22518000D02*
X37884000Y22518000D01*
X50486000Y22759000D02*
X37906000Y22759000D01*
X46057000Y28119000D02*
X42335000Y28119000D01*
X50498000Y22638000D02*
X37894000Y22638000D01*
X50412000Y23239000D02*
X37980000Y23239000D01*
X42756000Y25879000D02*
X39153000Y25879000D01*
X50149000Y24199000D02*
X38243000Y24199000D01*
X46700000Y27879000D02*
X41692000Y27879000D01*
X49269000Y25839000D02*
X45636000Y25839000D01*
X50526000Y22078000D02*
X37866000Y22078000D01*
X42756000Y27039000D02*
X40289000Y27039000D01*
X42756000Y25279000D02*
X38751000Y25279000D01*
X49412000Y25639000D02*
X45636000Y25639000D01*
X42756000Y25599000D02*
X38953000Y25599000D01*
X50505000Y22558000D02*
X37887000Y22558000D01*
X49208000Y25919000D02*
X45636000Y25919000D01*
X49617000Y25319000D02*
X45636000Y25319000D01*
X50267000Y23839000D02*
X38125000Y23839000D01*
X42756000Y26679000D02*
X39871000Y26679000D01*
X50380000Y23399000D02*
X38012000Y23399000D01*
X50342000Y23559000D02*
X38050000Y23559000D01*
X48298000Y26879000D02*
X45636000Y26879000D01*
X42756000Y26319000D02*
X39518000Y26319000D01*
X47535000Y27439000D02*
X40857000Y27439000D01*
X42756000Y26079000D02*
X39311000Y26079000D01*
X45618000Y28239000D02*
X42774000Y28239000D01*
X42756000Y25039000D02*
X38616000Y25039000D01*
X42756000Y25319000D02*
X38775000Y25319000D01*
X47598000Y27399000D02*
X40794000Y27399000D01*
X42756000Y26119000D02*
X39344000Y26119000D01*
X50448000Y23039000D02*
X37944000Y23039000D01*
X48521000Y26679000D02*
X45636000Y26679000D01*
X48838000Y26359000D02*
X45636000Y26359000D01*
X47192000Y27639000D02*
X41200000Y27639000D01*
X49687000Y25199000D02*
X45636000Y25199000D01*
X47471000Y27479000D02*
X40921000Y27479000D01*
X49146000Y25999000D02*
X45636000Y25999000D01*
X50514000Y22438000D02*
X37878000Y22438000D01*
X46508000Y27959000D02*
X41884000Y27959000D01*
X47404000Y27519000D02*
X40988000Y27519000D01*
X49492000Y25519000D02*
X45636000Y25519000D01*
X42756000Y25119000D02*
X38660000Y25119000D01*
X50243000Y23919000D02*
X38149000Y23919000D01*
X50007000Y24559000D02*
X45636000Y24559000D01*
X48478000Y26719000D02*
X45636000Y26719000D01*
X49015000Y26159000D02*
X45636000Y26159000D01*
X50204000Y24039000D02*
X38188000Y24039000D01*
X50511000Y22478000D02*
X37881000Y22478000D01*
X42756000Y25399000D02*
X38824000Y25399000D01*
X50120000Y24279000D02*
X38272000Y24279000D01*
X42756000Y26199000D02*
X39411000Y26199000D01*
X42756000Y26039000D02*
X39278000Y26039000D01*
X42756000Y26359000D02*
X39554000Y26359000D01*
X42756000Y25759000D02*
X39065000Y25759000D01*
X42756000Y26399000D02*
X39591000Y26399000D01*
X42756000Y25159000D02*
X38682000Y25159000D01*
X50371000Y23439000D02*
X38021000Y23439000D01*
X50279000Y23799000D02*
X38113000Y23799000D01*
X50520000Y22318000D02*
X37872000Y22318000D01*
X42756000Y25839000D02*
X39123000Y25839000D01*
X49593000Y25359000D02*
X45636000Y25359000D01*
X48563000Y26639000D02*
X45636000Y26639000D01*
X50522000Y22278000D02*
X37870000Y22278000D01*
X42756000Y24559000D02*
X38385000Y24559000D01*
X42756000Y25439000D02*
X38849000Y25439000D01*
X50518000Y22358000D02*
X37874000Y22358000D01*
X42756000Y26999000D02*
X40239000Y26999000D01*
X42756000Y26159000D02*
X39377000Y26159000D01*
X45224000Y28319000D02*
X43168000Y28319000D01*
X48434000Y26759000D02*
X45636000Y26759000D01*
X42756000Y26839000D02*
X40048000Y26839000D01*
X47779000Y27279000D02*
X40613000Y27279000D01*
X42756000Y26279000D02*
X39482000Y26279000D01*
X47336000Y27559000D02*
X41056000Y27559000D01*
X50301000Y23719000D02*
X38091000Y23719000D01*
X42756000Y25079000D02*
X38638000Y25079000D01*
X46960000Y27759000D02*
X41432000Y27759000D01*
X42756000Y24639000D02*
X38420000Y24639000D01*
X48946000Y26239000D02*
X45636000Y26239000D01*
X49178000Y25959000D02*
X45636000Y25959000D01*
X42756000Y26599000D02*
X39788000Y26599000D01*
X42756000Y24479000D02*
X38351000Y24479000D01*
X50471000Y22879000D02*
X37921000Y22879000D01*
X50073000Y24399000D02*
X45636000Y24399000D01*
X50333000Y23599000D02*
X38059000Y23599000D01*
X48052000Y27079000D02*
X45636000Y27079000D01*
X48000000Y27119000D02*
X45636000Y27119000D01*
X42756000Y26879000D02*
X40094000Y26879000D01*
X49543000Y25439000D02*
X45636000Y25439000D01*
X48685000Y26519000D02*
X45636000Y26519000D01*
X49954000Y24679000D02*
X45636000Y24679000D01*
X50494000Y22678000D02*
X37898000Y22678000D01*
X42756000Y25239000D02*
X38728000Y25239000D01*
X46606000Y27919000D02*
X41786000Y27919000D01*
X50525000Y22158000D02*
X37867000Y22158000D01*
X50526000Y22038000D02*
X37866000Y22038000D01*
X48645000Y26559000D02*
X45636000Y26559000D01*
X42756000Y24399000D02*
X38319000Y24399000D01*
X50465000Y22919000D02*
X37927000Y22919000D01*
X50217000Y23999000D02*
X38175000Y23999000D01*
X48251000Y26919000D02*
X45636000Y26919000D01*
X42756000Y24519000D02*
X38368000Y24519000D01*
X42756000Y25959000D02*
X39214000Y25959000D01*
X50089000Y24359000D02*
X45636000Y24359000D01*
X45437000Y28279000D02*
X42955000Y28279000D01*
X42756000Y25799000D02*
X39094000Y25799000D01*
X42756000Y24879000D02*
X38534000Y24879000D01*
X48763000Y26439000D02*
X45636000Y26439000D01*
X48981000Y26199000D02*
X45636000Y26199000D01*
X42756000Y25919000D02*
X39184000Y25919000D01*
X49239000Y25879000D02*
X45636000Y25879000D01*
X50490000Y22718000D02*
X37902000Y22718000D01*
X49732000Y25119000D02*
X45636000Y25119000D01*
X50397000Y23319000D02*
X37995000Y23319000D01*
X49972000Y24639000D02*
X45636000Y24639000D01*
X50057000Y24439000D02*
X45636000Y24439000D01*
X42756000Y27199000D02*
X40500000Y27199000D01*
X46790000Y27839000D02*
X41602000Y27839000D01*
X50526000Y22118000D02*
X37866000Y22118000D01*
X42756000Y26759000D02*
X39958000Y26759000D01*
X48604000Y26599000D02*
X45636000Y26599000D01*
X42756000Y27079000D02*
X40340000Y27079000D01*
X49878000Y24839000D02*
X45636000Y24839000D01*
X44513000Y28399000D02*
X43879000Y28399000D01*
X50322000Y23639000D02*
X38070000Y23639000D01*
X50405000Y23279000D02*
X37987000Y23279000D01*
X50566000Y22038000D02*
G75*
G03*
X50566000Y22038000I-6370000J0D01*
G01*
X54520000Y29232200D02*
X54520000Y50232200D01*
X54520000Y50232200D02*
X11520000Y50232200D01*
X11520000Y29232200D02*
X54520000Y29232200D01*
X11520000Y50232200D02*
X11520000Y29232200D01*
X49520000Y47732200D02*
G75*
G03*
X49520000Y47732200I-1500000J0D01*
G01*
X19520000Y31732200D02*
G75*
G03*
X19520000Y31732200I-1500000J0D01*
G01*
X62869500Y40160000D02*
X62869500Y38255000D01*
X68179500Y35233000D02*
X68179500Y37433000D01*
X67979500Y43233000D02*
X55279500Y43233000D01*
X62361500Y37595000D02*
X62361500Y38255000D01*
X66079500Y35233000D02*
X68179500Y35233000D01*
X55279500Y35433000D02*
X67979500Y35433000D01*
X55279500Y43233000D02*
X55279500Y35433000D01*
X62869500Y40160000D02*
X61853500Y40160000D01*
X61853500Y38255000D02*
X61853500Y40160000D01*
X62869500Y38255000D02*
X61853500Y38255000D01*
X62361500Y40795000D02*
X62361500Y40160000D01*
X62996500Y37595000D02*
X62361500Y37595000D01*
X62996500Y40795000D02*
X62361500Y40795000D01*
X67979500Y35433000D02*
X67979500Y43233000D01*
X62869500Y39779000D02*
X61853500Y39144000D01*
X50191000Y59385000D02*
X38201000Y59385000D01*
X42756000Y59665000D02*
X38303000Y59665000D01*
X49015000Y61465000D02*
X45636000Y61465000D01*
X49146000Y61305000D02*
X45636000Y61305000D01*
X50024000Y59825000D02*
X45636000Y59825000D01*
X42756000Y59985000D02*
X38438000Y59985000D01*
X50508000Y57824000D02*
X37884000Y57824000D01*
X42756000Y61145000D02*
X39123000Y61145000D01*
X46790000Y63145000D02*
X41602000Y63145000D01*
X50301000Y59025000D02*
X38091000Y59025000D01*
X50230000Y59265000D02*
X38162000Y59265000D01*
X42756000Y61065000D02*
X39065000Y61065000D01*
X46700000Y63185000D02*
X41692000Y63185000D01*
X50412000Y58545000D02*
X37980000Y58545000D01*
X49641000Y60585000D02*
X45636000Y60585000D01*
X50516000Y57704000D02*
X37876000Y57704000D01*
X50322000Y58945000D02*
X38070000Y58945000D01*
X49710000Y60465000D02*
X45636000Y60465000D01*
X45224000Y63625000D02*
X43168000Y63625000D01*
X49114000Y61345000D02*
X45636000Y61345000D01*
X48838000Y61665000D02*
X45636000Y61665000D01*
X46405000Y63305000D02*
X41987000Y63305000D01*
X42756000Y62425000D02*
X40392000Y62425000D01*
X50434000Y58425000D02*
X37958000Y58425000D01*
X42756000Y61545000D02*
X39446000Y61545000D01*
X48874000Y61625000D02*
X45636000Y61625000D01*
X44953000Y63665000D02*
X43439000Y63665000D01*
X49917000Y60065000D02*
X45636000Y60065000D01*
X50522000Y57584000D02*
X37870000Y57584000D01*
X49687000Y60505000D02*
X45636000Y60505000D01*
X50007000Y59865000D02*
X45636000Y59865000D01*
X49269000Y61145000D02*
X45636000Y61145000D01*
X49298000Y61105000D02*
X45636000Y61105000D01*
X49593000Y60665000D02*
X45636000Y60665000D01*
X48910000Y61585000D02*
X45636000Y61585000D01*
X42756000Y62105000D02*
X40002000Y62105000D01*
X50120000Y59585000D02*
X38272000Y59585000D01*
X42756000Y62065000D02*
X39958000Y62065000D01*
X50518000Y57664000D02*
X37874000Y57664000D01*
X50481000Y58105000D02*
X37911000Y58105000D01*
X42756000Y59945000D02*
X38420000Y59945000D01*
X50397000Y58625000D02*
X37995000Y58625000D01*
X45618000Y63545000D02*
X42774000Y63545000D01*
X50217000Y59305000D02*
X38175000Y59305000D01*
X48203000Y62265000D02*
X45636000Y62265000D01*
X50388000Y58665000D02*
X38004000Y58665000D01*
X49617000Y60625000D02*
X45636000Y60625000D01*
X46296000Y63345000D02*
X42096000Y63345000D01*
X42756000Y60225000D02*
X38554000Y60225000D01*
X42756000Y61265000D02*
X39214000Y61265000D01*
X42756000Y61105000D02*
X39094000Y61105000D01*
X49989000Y59905000D02*
X45636000Y59905000D01*
X47336000Y62865000D02*
X41056000Y62865000D01*
X46180000Y63385000D02*
X42212000Y63385000D01*
X50362000Y58785000D02*
X38030000Y58785000D01*
X48251000Y62225000D02*
X45636000Y62225000D01*
X50525000Y57464000D02*
X37867000Y57464000D01*
X42756000Y60905000D02*
X38953000Y60905000D01*
X50471000Y58185000D02*
X37921000Y58185000D01*
X42756000Y60345000D02*
X38616000Y60345000D01*
X48344000Y62145000D02*
X45636000Y62145000D01*
X50526000Y57424000D02*
X37866000Y57424000D01*
X42756000Y61505000D02*
X39411000Y61505000D01*
X50135000Y59545000D02*
X38257000Y59545000D01*
X50267000Y59145000D02*
X38125000Y59145000D01*
X50460000Y58265000D02*
X37932000Y58265000D01*
X42756000Y62185000D02*
X40094000Y62185000D01*
X49664000Y60545000D02*
X45636000Y60545000D01*
X49878000Y60145000D02*
X45636000Y60145000D01*
X50420000Y58505000D02*
X37972000Y58505000D01*
X42756000Y62265000D02*
X40189000Y62265000D01*
X48052000Y62385000D02*
X45636000Y62385000D01*
X50041000Y59785000D02*
X45636000Y59785000D01*
X50352000Y58825000D02*
X38040000Y58825000D01*
X47404000Y62825000D02*
X40988000Y62825000D01*
X42756000Y61745000D02*
X39629000Y61745000D01*
X50514000Y57744000D02*
X37878000Y57744000D01*
X42756000Y60785000D02*
X38874000Y60785000D01*
X49732000Y60425000D02*
X45636000Y60425000D01*
X50342000Y58865000D02*
X38050000Y58865000D01*
X50204000Y59345000D02*
X38188000Y59345000D01*
X48604000Y61905000D02*
X45636000Y61905000D01*
X42756000Y62465000D02*
X40446000Y62465000D01*
X42756000Y60545000D02*
X38728000Y60545000D01*
X50243000Y59225000D02*
X38149000Y59225000D01*
X48521000Y61985000D02*
X45636000Y61985000D01*
X50073000Y59705000D02*
X45636000Y59705000D01*
X49838000Y60225000D02*
X45636000Y60225000D01*
X42756000Y59825000D02*
X38368000Y59825000D01*
X42756000Y60145000D02*
X38514000Y60145000D01*
X42756000Y60305000D02*
X38595000Y60305000D01*
X49776000Y60345000D02*
X45636000Y60345000D01*
X42756000Y61625000D02*
X39518000Y61625000D01*
X42756000Y61985000D02*
X39871000Y61985000D01*
X50505000Y57864000D02*
X37887000Y57864000D01*
X42756000Y60265000D02*
X38574000Y60265000D01*
X48981000Y61505000D02*
X45636000Y61505000D01*
X50290000Y59065000D02*
X38102000Y59065000D01*
X42756000Y61185000D02*
X39153000Y61185000D01*
X50312000Y58985000D02*
X38080000Y58985000D01*
X42756000Y60705000D02*
X38824000Y60705000D01*
X49818000Y60265000D02*
X45636000Y60265000D01*
X42756000Y59745000D02*
X38335000Y59745000D01*
X42756000Y60025000D02*
X38457000Y60025000D01*
X49239000Y61185000D02*
X45636000Y61185000D01*
X47535000Y62745000D02*
X40857000Y62745000D01*
X50498000Y57944000D02*
X37894000Y57944000D01*
X49954000Y59985000D02*
X45636000Y59985000D01*
X42756000Y61345000D02*
X39278000Y61345000D01*
X48153000Y62305000D02*
X45636000Y62305000D01*
X49384000Y60985000D02*
X45636000Y60985000D01*
X42756000Y61905000D02*
X39788000Y61905000D01*
X42756000Y60625000D02*
X38775000Y60625000D01*
X42756000Y60065000D02*
X38475000Y60065000D01*
X50405000Y58585000D02*
X37987000Y58585000D01*
X42756000Y60945000D02*
X38980000Y60945000D01*
X47946000Y62465000D02*
X45636000Y62465000D01*
X49492000Y60825000D02*
X45636000Y60825000D01*
X42756000Y60825000D02*
X38900000Y60825000D01*
X48645000Y61865000D02*
X45636000Y61865000D01*
X42756000Y61585000D02*
X39482000Y61585000D01*
X42756000Y60185000D02*
X38534000Y60185000D01*
X42756000Y60745000D02*
X38849000Y60745000D01*
X50454000Y58305000D02*
X37938000Y58305000D01*
X42756000Y61865000D02*
X39747000Y61865000D01*
X48298000Y62185000D02*
X45636000Y62185000D01*
X49439000Y60905000D02*
X45636000Y60905000D01*
X50371000Y58745000D02*
X38021000Y58745000D01*
X50486000Y58065000D02*
X37906000Y58065000D01*
X48563000Y61945000D02*
X45636000Y61945000D01*
X47720000Y62625000D02*
X40672000Y62625000D01*
X49797000Y60305000D02*
X45636000Y60305000D01*
X50526000Y57344000D02*
X37866000Y57344000D01*
X48763000Y61745000D02*
X45636000Y61745000D01*
X42756000Y61025000D02*
X39036000Y61025000D01*
X49972000Y59945000D02*
X45636000Y59945000D01*
X49178000Y61265000D02*
X45636000Y61265000D01*
X50380000Y58705000D02*
X38012000Y58705000D01*
X49466000Y60865000D02*
X45636000Y60865000D01*
X50520000Y57624000D02*
X37872000Y57624000D01*
X50427000Y58465000D02*
X37965000Y58465000D01*
X48000000Y62425000D02*
X45636000Y62425000D01*
X47892000Y62505000D02*
X45636000Y62505000D01*
X50163000Y59465000D02*
X38229000Y59465000D01*
X49327000Y61065000D02*
X45636000Y61065000D01*
X42756000Y59785000D02*
X38351000Y59785000D01*
X42756000Y60665000D02*
X38799000Y60665000D01*
X44513000Y63705000D02*
X43879000Y63705000D01*
X50333000Y58905000D02*
X38059000Y58905000D01*
X47040000Y63025000D02*
X41352000Y63025000D01*
X47117000Y62985000D02*
X41275000Y62985000D01*
X49754000Y60385000D02*
X45636000Y60385000D01*
X42756000Y62345000D02*
X40289000Y62345000D01*
X50524000Y57504000D02*
X37868000Y57504000D01*
X47771000Y50526918D02*
X47771000Y51776918D01*
X47192000Y62945000D02*
X41200000Y62945000D01*
X42756000Y59865000D02*
X38385000Y59865000D01*
X50502000Y57904000D02*
X37890000Y57904000D01*
X42756000Y61665000D02*
X39554000Y61665000D01*
X42756000Y62505000D02*
X40500000Y62505000D01*
X48103000Y62345000D02*
X45636000Y62345000D01*
X49568000Y60705000D02*
X45636000Y60705000D01*
X49518000Y60785000D02*
X45636000Y60785000D01*
X42756000Y61465000D02*
X39377000Y61465000D01*
X50149000Y59505000D02*
X38243000Y59505000D01*
X49412000Y60945000D02*
X45636000Y60945000D01*
X42756000Y61945000D02*
X39829000Y61945000D01*
X47598000Y62705000D02*
X40794000Y62705000D01*
X50441000Y58385000D02*
X37951000Y58385000D01*
X42756000Y59705000D02*
X38319000Y59705000D01*
X48396000Y51151918D02*
X47146000Y51151918D01*
X42756000Y61305000D02*
X39246000Y61305000D01*
X42756000Y62025000D02*
X39914000Y62025000D01*
X49543000Y60745000D02*
X45636000Y60745000D01*
X50448000Y58345000D02*
X37944000Y58345000D01*
X42756000Y62305000D02*
X40239000Y62305000D01*
X45924000Y63465000D02*
X42468000Y63465000D01*
X50490000Y58024000D02*
X37902000Y58024000D01*
X42756000Y60865000D02*
X38926000Y60865000D01*
X46508000Y63265000D02*
X41884000Y63265000D01*
X50523000Y57544000D02*
X37869000Y57544000D01*
X50494000Y57984000D02*
X37898000Y57984000D01*
X50476000Y58145000D02*
X37916000Y58145000D01*
X42756000Y62225000D02*
X40141000Y62225000D01*
X46606000Y63225000D02*
X41786000Y63225000D01*
X47779000Y62585000D02*
X40613000Y62585000D01*
X49935000Y60025000D02*
X45636000Y60025000D01*
X42756000Y61785000D02*
X39668000Y61785000D01*
X50511000Y57784000D02*
X37881000Y57784000D01*
X49048000Y61425000D02*
X45636000Y61425000D01*
X48478000Y62025000D02*
X45636000Y62025000D01*
X47836000Y62545000D02*
X40556000Y62545000D01*
X50089000Y59665000D02*
X45636000Y59665000D01*
X42756000Y61425000D02*
X39344000Y61425000D01*
X50177000Y59425000D02*
X38215000Y59425000D01*
X42756000Y61705000D02*
X39591000Y61705000D01*
X49898000Y60105000D02*
X45636000Y60105000D01*
X46960000Y63065000D02*
X41432000Y63065000D01*
X46877000Y63105000D02*
X41515000Y63105000D01*
X49208000Y61225000D02*
X45636000Y61225000D01*
X42756000Y62385000D02*
X40340000Y62385000D01*
X50255000Y59185000D02*
X38137000Y59185000D01*
X42756000Y60465000D02*
X38682000Y60465000D01*
X47660000Y62665000D02*
X40732000Y62665000D01*
X49356000Y61025000D02*
X45636000Y61025000D01*
X42756000Y60105000D02*
X38494000Y60105000D01*
X49858000Y60185000D02*
X45636000Y60185000D01*
X48724000Y61785000D02*
X45636000Y61785000D01*
X45437000Y63585000D02*
X42955000Y63585000D01*
X48390000Y62105000D02*
X45636000Y62105000D01*
X42756000Y60385000D02*
X38638000Y60385000D01*
X42756000Y60425000D02*
X38660000Y60425000D01*
X47471000Y62785000D02*
X40921000Y62785000D01*
X42756000Y61825000D02*
X39707000Y61825000D01*
X48946000Y61545000D02*
X45636000Y61545000D01*
X46057000Y63425000D02*
X42335000Y63425000D01*
X48685000Y61825000D02*
X45636000Y61825000D01*
X42756000Y60505000D02*
X38705000Y60505000D01*
X42756000Y61385000D02*
X39311000Y61385000D01*
X47265000Y62905000D02*
X41127000Y62905000D01*
X42756000Y59905000D02*
X38403000Y59905000D01*
X42756000Y62145000D02*
X40048000Y62145000D01*
X50465000Y58225000D02*
X37927000Y58225000D01*
X48801000Y61705000D02*
X45636000Y61705000D01*
X50104000Y59625000D02*
X38288000Y59625000D01*
X42756000Y60585000D02*
X38751000Y60585000D01*
X50057000Y59745000D02*
X45636000Y59745000D01*
X45779000Y63505000D02*
X42613000Y63505000D01*
X50279000Y59105000D02*
X38113000Y59105000D01*
X42756000Y60985000D02*
X39008000Y60985000D01*
X42756000Y61225000D02*
X39184000Y61225000D01*
X49081000Y61385000D02*
X45636000Y61385000D01*
X50526000Y57384000D02*
X37866000Y57384000D01*
X48434000Y62065000D02*
X45636000Y62065000D01*
X50566000Y57344000D02*
G75*
G03*
X50566000Y57344000I-6370000J0D01*
G01*
X43850000Y47562200D02*
X43850000Y44902200D01*
X38710000Y44902200D02*
X43850000Y44902200D01*
X37440000Y47562200D02*
X36110000Y47562200D01*
X38710000Y47562200D02*
X43850000Y47562200D01*
X36110000Y47562200D02*
X36110000Y46232200D01*
X38710000Y47562200D02*
X38710000Y44902200D01*
M02*
