G04 #@! TF.GenerationSoftware,KiCad,Pcbnew,(6.0.11)*
G04 #@! TF.CreationDate,2023-01-31T15:57:48+09:00*
G04 #@! TF.ProjectId,kick-drib-20230121,6b69636b-2d64-4726-9962-2d3230323330,V2.0*
G04 #@! TF.SameCoordinates,PX73bce80PY7ffbac0*
G04 #@! TF.FileFunction,Profile,NP*
%FSLAX46Y46*%
G04 Gerber Fmt 4.6, Leading zero omitted, Abs format (unit mm)*
G04 Created by KiCad (PCBNEW (6.0.11)) date 2023-01-31 15:57:48*
%MOMM*%
%LPD*%
G01*
G04 APERTURE LIST*
G04 #@! TA.AperFunction,Profile*
%ADD10C,0.200000*%
G04 #@! TD*
G04 #@! TA.AperFunction,Profile*
%ADD11C,0.100000*%
G04 #@! TD*
G04 APERTURE END LIST*
D10*
X53826363Y61546646D02*
G75*
G03*
X52412150Y61546646I-707107J-707103D01*
G01*
X52296926Y17972007D02*
G75*
G03*
X50882713Y17972007I-707106J-707103D01*
G01*
X28031685Y59000714D02*
G75*
G03*
X29092345Y59440045I15J1499986D01*
G01*
X52296926Y17972007D02*
X52412150Y17856784D01*
X52412150Y61546646D02*
X52296926Y61431423D01*
X21789044Y20402725D02*
X28031685Y20402725D01*
X29092337Y19963377D02*
G75*
G03*
X28031685Y20402725I-1060637J-1060577D01*
G01*
X42397431Y69916704D02*
G75*
G03*
X39569004Y69916704I-1414213J-1414211D01*
G01*
X8172060Y60168171D02*
G75*
G03*
X8172058Y19235258I82499160J-20466461D01*
G01*
X39569004Y9486726D02*
G75*
G03*
X42397431Y9486726I1414214J1414211D01*
G01*
X8172037Y19235253D02*
G75*
G03*
X9218789Y17927967I1940863J481347D01*
G01*
X29092345Y19963385D02*
X39569004Y9486726D01*
X52412150Y17856784D02*
G75*
G03*
X53826363Y17856784I707106J707103D01*
G01*
X20728384Y59440045D02*
X16554214Y63614214D01*
X14245571Y15414570D02*
G75*
G03*
X16554214Y15789216I894429J1788830D01*
G01*
X74042868Y39701715D02*
G75*
G03*
X74042868Y39701715I-1200000J0D01*
G01*
X9218789Y17927967D02*
X14245574Y15414575D01*
X16554214Y15789216D02*
X20728384Y19963385D01*
X9218772Y61475497D02*
G75*
G03*
X8172058Y60168172I894528J-1788897D01*
G01*
X14245574Y63988855D02*
X9218789Y61475463D01*
X20728380Y59440041D02*
G75*
G03*
X21789044Y59000705I1060820J1061059D01*
G01*
X42397431Y9486726D02*
X50882713Y17972007D01*
X16554226Y63614226D02*
G75*
G03*
X14245574Y63988855I-1414226J-1414326D01*
G01*
X21789044Y20402733D02*
G75*
G03*
X20728384Y19963385I-144J-1499633D01*
G01*
X28031685Y59000705D02*
X21789044Y59000705D01*
X50882713Y61431423D02*
X42397431Y69916704D01*
X16340000Y17203429D02*
G75*
G03*
X16340000Y17203429I-1200000J0D01*
G01*
X16340000Y62200000D02*
G75*
G03*
X16340000Y62200000I-1200000J0D01*
G01*
X74257096Y38287486D02*
G75*
G03*
X74257081Y41115929I-1414296J1414214D01*
G01*
X39569004Y69916704D02*
X29092345Y59440045D01*
X50882713Y61431423D02*
G75*
G03*
X52296926Y61431423I707107J707103D01*
G01*
X74257081Y41115929D02*
X53826363Y61546646D01*
X53826363Y17856784D02*
X74257081Y38287501D01*
D11*
X1666666Y0D02*
G75*
G03*
X1666666Y0I-1666666J0D01*
G01*
X-2500000Y0D02*
X2500000Y0D01*
X0Y2500000D02*
X0Y-2500000D01*
M02*
