0
SECTION
2
HEADER
9
$INSUNITS
70
4
9
$ACADVER
1
AC1014
9
$HANDSEED
5
FFFF
0
ENDSEC
0
SECTION
2
TABLES
0
TABLE
2
VPORT
5
8
100
AcDbSymbolTable
0
ENDTAB
0
TABLE
2
LTYPE
5
5
100
AcDbSymbolTable
0
LTYPE
5
14
100
AcDbSymbolTableRecord
100
AcDbLinetypeTableRecord
2
BYBLOCK
70
0
0
LTYPE
5
15
100
AcDbSymbolTableRecord
100
AcDbLinetypeTableRecord
2
BYLAYER
70
0
0
ENDTAB
0
TABLE
2
LAYER
5
2
100
AcDbSymbolTable
70
2
0
LAYER
5
50
100
AcDbSymbolTableRecord
100
AcDbLayerTableRecord
2
0
70
0
6
CONTINUOUS
0
ENDTAB
0
TABLE
2
STYLE
5
3
100
AcDbSymbolTable
70
1
0
STYLE
5
11
100
AcDbSymbolTableRecord
100
AcDbTextStyleTableRecord
2
STANDARD
70
0
0
ENDTAB
0
TABLE
2
VIEW
5
6
100
AcDbSymbolTable
70
0
0
ENDTAB
0
TABLE
2
UCS
5
7
100
AcDbSymbolTable
70
0
0
ENDTAB
0
TABLE
2
APPID
5
9
100
AcDbSymbolTable
70
2
0
APPID
5
12
100
AcDbSymbolTableRecord
100
AcDbRegAppTableRecord
2
ACAD
70
0
0
ENDTAB
0
TABLE
2
DIMSTYLE
5
A
100
AcDbSymbolTable
70
1
0
ENDTAB
0
TABLE
2
BLOCK_RECORD
5
1
100
AcDbSymbolTable
70
1
0
BLOCK_RECORD
5
1F
100
AcDbSymbolTableRecord
100
AcDbBlockTableRecord
2
*MODEL_SPACE
0
BLOCK_RECORD
5
1B
100
AcDbSymbolTableRecord
100
AcDbBlockTableRecord
2
*PAPER_SPACE
0
ENDTAB
0
ENDSEC
0
SECTION
2
BLOCKS
0
BLOCK
5
20
100
AcDbEntity
100
AcDbBlockBegin
2
*MODEL_SPACE
0
ENDBLK
5
21
100
AcDbEntity
100
AcDbBlockEnd
0
BLOCK
5
1C
100
AcDbEntity
100
AcDbBlockBegin
2
*PAPER_SPACE
0
ENDBLK
5
1D
100
AcDbEntity
100
AcDbBlockEnd
0
ENDSEC
0
SECTION
2
ENTITIES
0
CIRCLE
5
100
100
AcDbEntity
8
0
100
AcDbCircle
10
80.558078622700918
20
-19.984893510317875
30
0
40
1.2
210
0
220
-0
230
1
0
CIRCLE
5
101
100
AcDbEntity
8
0
100
AcDbCircle
10
-80.558078622700862
20
-19.984893510317839
30
0
40
1.2
210
0
220
-0
230
1
0
CIRCLE
5
102
100
AcDbEntity
8
0
100
AcDbCircle
10
25.841637383757515
20
-78.874645972748382
30
0
40
1.2
210
0
220
-0
230
1
0
CIRCLE
5
103
100
AcDbEntity
8
0
100
AcDbCircle
10
-25.841637383757519
20
-78.874645972748368
30
0
40
1.2
210
0
220
-0
230
1
0
CIRCLE
5
104
100
AcDbEntity
8
0
100
AcDbCircle
10
-80.558078622700862
20
19.984893510317846
30
0
40
1.2
210
0
220
-0
230
1
0
CIRCLE
5
105
100
AcDbEntity
8
0
100
AcDbCircle
10
80.558078622700876
20
19.984893510317853
30
0
40
1.2
210
0
220
-0
230
1
0
CIRCLE
5
106
100
AcDbEntity
8
0
100
AcDbCircle
10
-12.500000727292679
20
12.500000843514414
30
0
40
1.2
210
0
220
-0
230
1
0
CIRCLE
5
107
100
AcDbEntity
8
0
100
AcDbCircle
10
12.50000027270735
20
12.500000843514414
30
0
40
1.2
210
0
220
-0
230
1
0
LWPOLYLINE
5
108
100
AcDbEntity
8
0
100
AcDbPolyline
90
116
70
1
43
0.0
10
74.117080586558174
20
23.912499122313427
42
-0.32282279782806972
10
76.425721286619194
20
24.287139968596172
10
81.452505760388789
20
21.773747918973719
42
-0.21941721524736024
10
82.499237143729829
20
20.466457209361629
42
-0.12218836072548514
10
82.499237143729815
20
-20.466457209361653
42
-0.21941721524735933
10
81.452505760388775
20
-21.77374791897368
10
76.425721286619165
20
-24.287139968596186
42
-0.32282279782807283
10
74.11708058655816
20
-23.912499122313427
10
69.942911165688528
20
-19.738329701443746
42
0.19891236737966106
10
68.882250993908713
20
-19.29898987322354
10
62.639610306789393
20
-19.298989873223448
42
0.19891236737966395
10
61.578950135009585
20
-19.738329701443661
10
53.9307178717699
20
-27.386561964683317
42
-0.41421356237309365
10
51.10229074702373
20
-27.38656196468331
10
42.585787063475692
20
-18.870058281135272
42
0.19891236737965781
10
41.1715735011026
20
-18.28427184350836
10
40.828427720792661
20
-18.28427184350836
42
-0.19891236737965753
10
39.414214158419561
20
-17.69848540588146
10
30.585786437626915
20
-8.8700576850888098
42
0.1989123673796582
10
29.171572875253815
20
-8.2842712474619056
10
20.828427124746188
20
-8.2842712474619056
42
0.19891236737965803
10
19.414213562373092
20
-8.8700576850888098
10
9.5857865717373549
20
-18.698484675724544
42
0.19891236737965787
10
9.0000001341104507
20
-20.112698238097639
10
9.0000001341104507
20
-29.887301761902357
42
0.19891236737965801
10
9.5857865717373532
20
-31.301515324275453
10
17.698485405881449
20
-39.414214158419554
42
-0.19891236737965859
10
18.284271843508357
20
-40.828427720792646
10
18.284271843508353
20
-41.171573501102579
42
0.19891236737965742
10
18.870058281135254
20
-42.585787063475671
10
27.386561964683306
20
-51.10229074702373
42
-0.41421356237309459
10
27.386561964683306
20
-53.930717871769914
10
19.73832970144365
20
-61.578950135009563
42
0.19891236737966503
10
19.298989873223483
20
-62.639610306789379
10
19.29898987322354
20
-68.882250993908698
42
0.19891236737965451
10
19.738329701443732
20
-69.9429111656885
10
27.255850946130579
20
-77.46043241037529
42
-0.55922297410185573
10
26.464327441197032
20
-80.775239851609868
42
-0.010496146210132425
10
23.050813911480628
20
-81.814790704482604
42
-0.068764338140163569
10
22.508441819445753
20
-81.889736805553611
10
-22.508441819445878
20
-81.889736805553568
42
-0.068764338140162556
10
-23.05081391148105
20
-81.814790704482462
42
-0.010496146210132425
10
-26.464327441197455
20
-80.77523985160974
42
-0.55922297410184918
10
-27.255850946130586
20
-77.460432410375262
10
-19.738329701443732
20
-69.942911165688514
42
0.19891236737965981
10
-19.298989873223537
20
-68.882250993908698
10
-19.298989873223437
20
-62.639610306789379
42
0.19891236737966422
10
-19.738329701443615
20
-61.578950135009542
10
-27.386561964683303
20
-53.930717871769914
42
-0.41421356237309642
10
-27.386561964683303
20
-51.10229074702373
10
-18.870058281135261
20
-42.585787063475678
42
0.19891236737965759
10
-18.284271843508353
20
-41.171573501102586
10
-18.284271843508357
20
-40.828427720792646
42
-0.1989123673796602
10
-17.698485405881453
20
-39.414214158419554
10
-9.5857865717373532
20
-31.301515324275453
42
0.19891236737965762
10
-9.0000001341104507
20
-29.887301761902361
10
-9.0000001341104507
20
-20.112698238097643
42
0.19891236737965762
10
-9.5857865717373532
20
-18.698484675724551
10
-19.414213562373099
20
-8.8700576850888009
42
0.1989123673796582
10
-20.828427124746195
20
-8.2842712474618985
10
-29.171572875253815
20
-8.2842712474618967
42
0.19891236737965812
10
-30.585786437626915
20
-8.8700576850888009
10
-39.414214158419568
20
-17.698485405881446
42
-0.19891236737965859
10
-40.828427720792661
20
-18.28427184350835
10
-41.171573501102586
20
-18.28427184350835
42
0.19891236737965742
10
-42.585787063475678
20
-18.87005828113525
10
-51.102290747023744
20
-27.386561964683299
42
-0.41421356237309459
10
-53.930717871769929
20
-27.386561964683299
10
-61.578950135009592
20
-19.738329701443639
42
0.19891236737966286
10
-62.639610306789407
20
-19.298989873223473
10
-68.882250993908727
20
-19.29898987322353
42
0.19891236737965484
10
-69.942911165688528
20
-19.738329701443725
10
-74.11708058655816
20
-23.912499122313413
42
-0.32282279782807888
10
-76.425721286619179
20
-24.287139968596172
10
-81.452505760388789
20
-21.773747918973726
42
-0.21941721524736746
10
-82.499237143729843
20
-20.466457209361572
42
-0.12218836072548492
10
-82.499237143729815
20
20.466457209361643
42
-0.21941721524735419
10
-81.452505760388775
20
21.773747918973683
10
-76.425721286619165
20
24.28713996859619
42
-0.32282279782807405
10
-74.11708058655816
20
23.912499122313434
10
-69.942911165688514
20
19.73832970144375
42
0.19891236737965723
10
-68.882250993908713
20
19.298989873223555
10
-62.639610306789386
20
19.298989873223455
42
0.19891236737966456
10
-61.578950135009549
20
19.738329701443636
10
-53.930717871769929
20
27.386561964683324
42
-0.41421356237309648
10
-51.10229074702373
20
27.386561964683324
10
-42.585787063475692
20
18.870058281135275
42
0.19891236737965781
10
-41.1715735011026
20
18.284271843508368
10
-40.828427720792661
20
18.284271843508368
42
-0.19891236737965753
10
-39.414214158419561
20
17.698485405881463
10
-30.585786437626908
20
8.8700576850888115
42
0.19891236737965812
10
-29.171572875253812
20
8.2842712474619091
10
-20.828427124746188
20
8.2842712474619074
42
0.1989123673796582
10
-19.414213562373092
20
8.8700576850888133
10
-13.056349148851147
20
15.22792209861076
42
-0.4142135623730962
10
-10.227922024104952
20
15.227922098610758
10
-5.5857865121327084
20
10.585786586638514
42
0.19891236737965765
10
-4.1715729497596152
20
10.000000149011612
10
4.1715729497596135
20
10.00000014901161
42
0.19891236737965812
10
5.5857865121327084
20
10.585786586638514
10
10.227922024104947
20
15.227922098610758
42
-0.41421356237309548
10
13.056349148851144
20
15.22792209861076
10
19.414213562373096
20
8.8700576850888062
42
0.1989123673796582
10
20.828427124746192
20
8.2842712474619002
10
29.171572875253815
20
8.2842712474619002
42
0.19891236737965803
10
30.585786437626915
20
8.8700576850888027
10
39.414214158419568
20
17.698485405881449
42
-0.19891236737965859
10
40.828427720792661
20
18.284271843508357
10
41.171573501102586
20
18.284271843508353
42
0.19891236737965742
10
42.585787063475678
20
18.870058281135254
10
51.102290747023744
20
27.386561964683303
42
-0.41421356237309642
10
53.930717871769929
20
27.386561964683303
10
61.578950135009585
20
19.73832970144365
42
0.19891236737966203
10
62.639610306789386
20
19.298989873223476
10
68.882250993908713
20
19.298989873223537
42
0.19891236737965701
10
69.942911165688528
20
19.738329701443728
0
ENDSEC
0
SECTION
2
OBJECTS
0
DICTIONARY
5
C
100
AcDbDictionary
3
ACAD_GROUP
350
D
3
ACAD_MLINESTYLE
350
17
0
DICTIONARY
5
D
100
AcDbDictionary
0
DICTIONARY
5
1A
330
C
100
AcDbDictionary
0
DICTIONARY
5
17
100
AcDbDictionary
0
ENDSEC
0
EOF
