%TF.GenerationSoftware,KiCad,Pcbnew,(6.0.1)*%
%TF.CreationDate,2022-12-02T01:02:59+09:00*%
%TF.ProjectId,VL6180ToF,564c3631-3830-4546-9f46-2e6b69636164,rev?*%
%TF.SameCoordinates,Original*%
%TF.FileFunction,Paste,Top*%
%TF.FilePolarity,Positive*%
%FSLAX46Y46*%
G04 Gerber Fmt 4.6, Leading zero omitted, Abs format (unit mm)*
G04 Created by KiCad (PCBNEW (6.0.1)) date 2022-12-02 01:02:59*
%MOMM*%
%LPD*%
G01*
G04 APERTURE LIST*
%ADD10R,0.508800X1.011199*%
G04 APERTURE END LIST*
D10*
%TO.C,U2*%
X128125000Y-108742200D03*
X128875001Y-108742200D03*
X129624999Y-108742200D03*
X130375001Y-108742200D03*
X131124999Y-108742200D03*
X131875000Y-108742200D03*
X131875000Y-106257800D03*
X131124999Y-106257800D03*
X130375001Y-106257800D03*
X129624999Y-106257800D03*
X128875001Y-106257800D03*
X128125000Y-106257800D03*
%TD*%
%TO.C,U2*%
X128125000Y-118742200D03*
X128875001Y-118742200D03*
X129624999Y-118742200D03*
X130375001Y-118742200D03*
X131124999Y-118742200D03*
X131875000Y-118742200D03*
X131875000Y-116257800D03*
X131124999Y-116257800D03*
X130375001Y-116257800D03*
X129624999Y-116257800D03*
X128875001Y-116257800D03*
X128125000Y-116257800D03*
%TD*%
%TO.C,U2*%
X158125000Y-108742200D03*
X158875001Y-108742200D03*
X159624999Y-108742200D03*
X160375001Y-108742200D03*
X161124999Y-108742200D03*
X161875000Y-108742200D03*
X161875000Y-106257800D03*
X161124999Y-106257800D03*
X160375001Y-106257800D03*
X159624999Y-106257800D03*
X158875001Y-106257800D03*
X158125000Y-106257800D03*
%TD*%
%TO.C,U2*%
X158125000Y-118742200D03*
X158875001Y-118742200D03*
X159624999Y-118742200D03*
X160375001Y-118742200D03*
X161124999Y-118742200D03*
X161875000Y-118742200D03*
X161875000Y-116257800D03*
X161124999Y-116257800D03*
X160375001Y-116257800D03*
X159624999Y-116257800D03*
X158875001Y-116257800D03*
X158125000Y-116257800D03*
%TD*%
M02*
