G04 #@! TF.GenerationSoftware,KiCad,Pcbnew,(5.1.9)-1*
G04 #@! TF.CreationDate,2021-08-03T23:26:31+09:00*
G04 #@! TF.ProjectId,IMU_BNO055_20210802,494d555f-424e-44f3-9035-355f32303231,rev?*
G04 #@! TF.SameCoordinates,PX6dac2c0PY6dac2c0*
G04 #@! TF.FileFunction,Legend,Bot*
G04 #@! TF.FilePolarity,Positive*
%FSLAX46Y46*%
G04 Gerber Fmt 4.6, Leading zero omitted, Abs format (unit mm)*
G04 Created by KiCad (PCBNEW (5.1.9)-1) date 2021-08-03 23:26:31*
%MOMM*%
%LPD*%
G01*
G04 APERTURE LIST*
%ADD10C,0.200000*%
%ADD11C,0.010000*%
%ADD12C,0.120000*%
%ADD13C,0.150000*%
%ADD14C,2.200000*%
%ADD15C,1.250000*%
%ADD16R,1.250000X1.250000*%
%ADD17C,0.750000*%
%ADD18O,1.700000X1.700000*%
%ADD19R,1.700000X1.700000*%
%ADD20O,1.200000X1.750000*%
%ADD21C,0.800000*%
G04 APERTURE END LIST*
D10*
X20785714Y8833334D02*
X20309523Y8833334D01*
X20880952Y8547620D02*
X20547619Y9547620D01*
X20214285Y8547620D01*
X19452380Y9214286D02*
X19452380Y8547620D01*
X19880952Y9214286D02*
X19880952Y8690477D01*
X19833333Y8595239D01*
X19738095Y8547620D01*
X19595238Y8547620D01*
X19500000Y8595239D01*
X19452380Y8642858D01*
X18547619Y9214286D02*
X18547619Y8404762D01*
X18595238Y8309524D01*
X18642857Y8261905D01*
X18738095Y8214286D01*
X18880952Y8214286D01*
X18976190Y8261905D01*
X18547619Y8595239D02*
X18642857Y8547620D01*
X18833333Y8547620D01*
X18928571Y8595239D01*
X18976190Y8642858D01*
X19023809Y8738096D01*
X19023809Y9023810D01*
X18976190Y9119048D01*
X18928571Y9166667D01*
X18833333Y9214286D01*
X18642857Y9214286D01*
X18547619Y9166667D01*
X18071428Y8642858D02*
X18023809Y8595239D01*
X18071428Y8547620D01*
X18119047Y8595239D01*
X18071428Y8642858D01*
X18071428Y8547620D01*
X17642857Y9452381D02*
X17595238Y9500000D01*
X17500000Y9547620D01*
X17261904Y9547620D01*
X17166666Y9500000D01*
X17119047Y9452381D01*
X17071428Y9357143D01*
X17071428Y9261905D01*
X17119047Y9119048D01*
X17690476Y8547620D01*
X17071428Y8547620D01*
X16452380Y9547620D02*
X16357142Y9547620D01*
X16261904Y9500000D01*
X16214285Y9452381D01*
X16166666Y9357143D01*
X16119047Y9166667D01*
X16119047Y8928572D01*
X16166666Y8738096D01*
X16214285Y8642858D01*
X16261904Y8595239D01*
X16357142Y8547620D01*
X16452380Y8547620D01*
X16547619Y8595239D01*
X16595238Y8642858D01*
X16642857Y8738096D01*
X16690476Y8928572D01*
X16690476Y9166667D01*
X16642857Y9357143D01*
X16595238Y9452381D01*
X16547619Y9500000D01*
X16452380Y9547620D01*
X15738095Y9452381D02*
X15690476Y9500000D01*
X15595238Y9547620D01*
X15357142Y9547620D01*
X15261904Y9500000D01*
X15214285Y9452381D01*
X15166666Y9357143D01*
X15166666Y9261905D01*
X15214285Y9119048D01*
X15785714Y8547620D01*
X15166666Y8547620D01*
X14214285Y8547620D02*
X14785714Y8547620D01*
X14500000Y8547620D02*
X14500000Y9547620D01*
X14595238Y9404762D01*
X14690476Y9309524D01*
X14785714Y9261905D01*
D11*
G36*
X13780654Y14598236D02*
G01*
X13759932Y14567311D01*
X13757500Y14525417D01*
X13764056Y14469196D01*
X13794981Y14448474D01*
X13836875Y14446042D01*
X13893096Y14452598D01*
X13913818Y14483523D01*
X13916250Y14525417D01*
X13909694Y14581638D01*
X13878769Y14602360D01*
X13836875Y14604792D01*
X13780654Y14598236D01*
G37*
X13780654Y14598236D02*
X13759932Y14567311D01*
X13757500Y14525417D01*
X13764056Y14469196D01*
X13794981Y14448474D01*
X13836875Y14446042D01*
X13893096Y14452598D01*
X13913818Y14483523D01*
X13916250Y14525417D01*
X13909694Y14581638D01*
X13878769Y14602360D01*
X13836875Y14604792D01*
X13780654Y14598236D01*
G36*
X14071696Y14598236D02*
G01*
X14050974Y14567311D01*
X14048542Y14525417D01*
X14055098Y14469196D01*
X14086023Y14448474D01*
X14127917Y14446042D01*
X14184138Y14452598D01*
X14204860Y14483523D01*
X14207292Y14525417D01*
X14200736Y14581638D01*
X14169811Y14602360D01*
X14127917Y14604792D01*
X14071696Y14598236D01*
G37*
X14071696Y14598236D02*
X14050974Y14567311D01*
X14048542Y14525417D01*
X14055098Y14469196D01*
X14086023Y14448474D01*
X14127917Y14446042D01*
X14184138Y14452598D01*
X14204860Y14483523D01*
X14207292Y14525417D01*
X14200736Y14581638D01*
X14169811Y14602360D01*
X14127917Y14604792D01*
X14071696Y14598236D01*
G36*
X14343512Y14600367D02*
G01*
X14317993Y14577924D01*
X14313125Y14525417D01*
X14318287Y14472088D01*
X14344472Y14450215D01*
X14405729Y14446042D01*
X14467947Y14450467D01*
X14493465Y14472911D01*
X14498333Y14525417D01*
X14493171Y14578746D01*
X14466987Y14600620D01*
X14405729Y14604792D01*
X14343512Y14600367D01*
G37*
X14343512Y14600367D02*
X14317993Y14577924D01*
X14313125Y14525417D01*
X14318287Y14472088D01*
X14344472Y14450215D01*
X14405729Y14446042D01*
X14467947Y14450467D01*
X14493465Y14472911D01*
X14498333Y14525417D01*
X14493171Y14578746D01*
X14466987Y14600620D01*
X14405729Y14604792D01*
X14343512Y14600367D01*
G36*
X14634554Y14600367D02*
G01*
X14609035Y14577924D01*
X14604167Y14525417D01*
X14609329Y14472088D01*
X14635514Y14450215D01*
X14696771Y14446042D01*
X14758988Y14450467D01*
X14784507Y14472911D01*
X14789375Y14525417D01*
X14784213Y14578746D01*
X14758028Y14600620D01*
X14696771Y14604792D01*
X14634554Y14600367D01*
G37*
X14634554Y14600367D02*
X14609035Y14577924D01*
X14604167Y14525417D01*
X14609329Y14472088D01*
X14635514Y14450215D01*
X14696771Y14446042D01*
X14758988Y14450467D01*
X14784507Y14472911D01*
X14789375Y14525417D01*
X14784213Y14578746D01*
X14758028Y14600620D01*
X14696771Y14604792D01*
X14634554Y14600367D01*
G36*
X14918362Y14598236D02*
G01*
X14897640Y14567311D01*
X14895208Y14525417D01*
X14901765Y14469196D01*
X14932690Y14448474D01*
X14974583Y14446042D01*
X15030805Y14452598D01*
X15051527Y14483523D01*
X15053958Y14525417D01*
X15047402Y14581638D01*
X15016477Y14602360D01*
X14974583Y14604792D01*
X14918362Y14598236D01*
G37*
X14918362Y14598236D02*
X14897640Y14567311D01*
X14895208Y14525417D01*
X14901765Y14469196D01*
X14932690Y14448474D01*
X14974583Y14446042D01*
X15030805Y14452598D01*
X15051527Y14483523D01*
X15053958Y14525417D01*
X15047402Y14581638D01*
X15016477Y14602360D01*
X14974583Y14604792D01*
X14918362Y14598236D01*
G36*
X15209404Y14598236D02*
G01*
X15188682Y14567311D01*
X15186250Y14525417D01*
X15192806Y14469196D01*
X15223731Y14448474D01*
X15265625Y14446042D01*
X15321846Y14452598D01*
X15342568Y14483523D01*
X15345000Y14525417D01*
X15338444Y14581638D01*
X15307519Y14602360D01*
X15265625Y14604792D01*
X15209404Y14598236D01*
G37*
X15209404Y14598236D02*
X15188682Y14567311D01*
X15186250Y14525417D01*
X15192806Y14469196D01*
X15223731Y14448474D01*
X15265625Y14446042D01*
X15321846Y14452598D01*
X15342568Y14483523D01*
X15345000Y14525417D01*
X15338444Y14581638D01*
X15307519Y14602360D01*
X15265625Y14604792D01*
X15209404Y14598236D01*
G36*
X15481220Y14600367D02*
G01*
X15455702Y14577924D01*
X15450833Y14525417D01*
X15455996Y14472088D01*
X15482180Y14450215D01*
X15543438Y14446042D01*
X15605655Y14450467D01*
X15631174Y14472911D01*
X15636042Y14525417D01*
X15630880Y14578746D01*
X15604695Y14600620D01*
X15543438Y14604792D01*
X15481220Y14600367D01*
G37*
X15481220Y14600367D02*
X15455702Y14577924D01*
X15450833Y14525417D01*
X15455996Y14472088D01*
X15482180Y14450215D01*
X15543438Y14446042D01*
X15605655Y14450467D01*
X15631174Y14472911D01*
X15636042Y14525417D01*
X15630880Y14578746D01*
X15604695Y14600620D01*
X15543438Y14604792D01*
X15481220Y14600367D01*
G36*
X15772262Y14600367D02*
G01*
X15746743Y14577924D01*
X15741875Y14525417D01*
X15747037Y14472088D01*
X15773222Y14450215D01*
X15834479Y14446042D01*
X15896697Y14450467D01*
X15922215Y14472911D01*
X15927083Y14525417D01*
X15921921Y14578746D01*
X15895737Y14600620D01*
X15834479Y14604792D01*
X15772262Y14600367D01*
G37*
X15772262Y14600367D02*
X15746743Y14577924D01*
X15741875Y14525417D01*
X15747037Y14472088D01*
X15773222Y14450215D01*
X15834479Y14446042D01*
X15896697Y14450467D01*
X15922215Y14472911D01*
X15927083Y14525417D01*
X15921921Y14578746D01*
X15895737Y14600620D01*
X15834479Y14604792D01*
X15772262Y14600367D01*
G36*
X16056071Y14598236D02*
G01*
X16035349Y14567311D01*
X16032917Y14525417D01*
X16039473Y14469196D01*
X16070398Y14448474D01*
X16112292Y14446042D01*
X16168513Y14452598D01*
X16189235Y14483523D01*
X16191667Y14525417D01*
X16185111Y14581638D01*
X16154186Y14602360D01*
X16112292Y14604792D01*
X16056071Y14598236D01*
G37*
X16056071Y14598236D02*
X16035349Y14567311D01*
X16032917Y14525417D01*
X16039473Y14469196D01*
X16070398Y14448474D01*
X16112292Y14446042D01*
X16168513Y14452598D01*
X16189235Y14483523D01*
X16191667Y14525417D01*
X16185111Y14581638D01*
X16154186Y14602360D01*
X16112292Y14604792D01*
X16056071Y14598236D01*
G36*
X16347112Y14598236D02*
G01*
X16326390Y14567311D01*
X16323958Y14525417D01*
X16330515Y14469196D01*
X16361440Y14448474D01*
X16403333Y14446042D01*
X16459555Y14452598D01*
X16480277Y14483523D01*
X16482708Y14525417D01*
X16476152Y14581638D01*
X16445227Y14602360D01*
X16403333Y14604792D01*
X16347112Y14598236D01*
G37*
X16347112Y14598236D02*
X16326390Y14567311D01*
X16323958Y14525417D01*
X16330515Y14469196D01*
X16361440Y14448474D01*
X16403333Y14446042D01*
X16459555Y14452598D01*
X16480277Y14483523D01*
X16482708Y14525417D01*
X16476152Y14581638D01*
X16445227Y14602360D01*
X16403333Y14604792D01*
X16347112Y14598236D01*
G36*
X16618929Y14600367D02*
G01*
X16593410Y14577924D01*
X16588542Y14525417D01*
X16593704Y14472088D01*
X16619889Y14450215D01*
X16681146Y14446042D01*
X16743363Y14450467D01*
X16768882Y14472911D01*
X16773750Y14525417D01*
X16768588Y14578746D01*
X16742403Y14600620D01*
X16681146Y14604792D01*
X16618929Y14600367D01*
G37*
X16618929Y14600367D02*
X16593410Y14577924D01*
X16588542Y14525417D01*
X16593704Y14472088D01*
X16619889Y14450215D01*
X16681146Y14446042D01*
X16743363Y14450467D01*
X16768882Y14472911D01*
X16773750Y14525417D01*
X16768588Y14578746D01*
X16742403Y14600620D01*
X16681146Y14604792D01*
X16618929Y14600367D01*
G36*
X16902737Y14598236D02*
G01*
X16882015Y14567311D01*
X16879583Y14525417D01*
X16886140Y14469196D01*
X16917065Y14448474D01*
X16958958Y14446042D01*
X17015180Y14452598D01*
X17035902Y14483523D01*
X17038333Y14525417D01*
X17031777Y14581638D01*
X17000852Y14602360D01*
X16958958Y14604792D01*
X16902737Y14598236D01*
G37*
X16902737Y14598236D02*
X16882015Y14567311D01*
X16879583Y14525417D01*
X16886140Y14469196D01*
X16917065Y14448474D01*
X16958958Y14446042D01*
X17015180Y14452598D01*
X17035902Y14483523D01*
X17038333Y14525417D01*
X17031777Y14581638D01*
X17000852Y14602360D01*
X16958958Y14604792D01*
X16902737Y14598236D01*
G36*
X17458362Y14598236D02*
G01*
X17437640Y14567311D01*
X17435208Y14525417D01*
X17441765Y14469196D01*
X17472690Y14448474D01*
X17514583Y14446042D01*
X17570805Y14452598D01*
X17591527Y14483523D01*
X17593958Y14525417D01*
X17587402Y14581638D01*
X17556477Y14602360D01*
X17514583Y14604792D01*
X17458362Y14598236D01*
G37*
X17458362Y14598236D02*
X17437640Y14567311D01*
X17435208Y14525417D01*
X17441765Y14469196D01*
X17472690Y14448474D01*
X17514583Y14446042D01*
X17570805Y14452598D01*
X17591527Y14483523D01*
X17593958Y14525417D01*
X17587402Y14581638D01*
X17556477Y14602360D01*
X17514583Y14604792D01*
X17458362Y14598236D01*
G36*
X17730179Y14600367D02*
G01*
X17704660Y14577924D01*
X17699792Y14525417D01*
X17704954Y14472088D01*
X17731139Y14450215D01*
X17792396Y14446042D01*
X17854613Y14450467D01*
X17880132Y14472911D01*
X17885000Y14525417D01*
X17879838Y14578746D01*
X17853653Y14600620D01*
X17792396Y14604792D01*
X17730179Y14600367D01*
G37*
X17730179Y14600367D02*
X17704660Y14577924D01*
X17699792Y14525417D01*
X17704954Y14472088D01*
X17731139Y14450215D01*
X17792396Y14446042D01*
X17854613Y14450467D01*
X17880132Y14472911D01*
X17885000Y14525417D01*
X17879838Y14578746D01*
X17853653Y14600620D01*
X17792396Y14604792D01*
X17730179Y14600367D01*
G36*
X18021220Y14600367D02*
G01*
X17995702Y14577924D01*
X17990833Y14525417D01*
X17995996Y14472088D01*
X18022180Y14450215D01*
X18083438Y14446042D01*
X18145655Y14450467D01*
X18171174Y14472911D01*
X18176042Y14525417D01*
X18170880Y14578746D01*
X18144695Y14600620D01*
X18083438Y14604792D01*
X18021220Y14600367D01*
G37*
X18021220Y14600367D02*
X17995702Y14577924D01*
X17990833Y14525417D01*
X17995996Y14472088D01*
X18022180Y14450215D01*
X18083438Y14446042D01*
X18145655Y14450467D01*
X18171174Y14472911D01*
X18176042Y14525417D01*
X18170880Y14578746D01*
X18144695Y14600620D01*
X18083438Y14604792D01*
X18021220Y14600367D01*
G36*
X18305029Y14598236D02*
G01*
X18284307Y14567311D01*
X18281875Y14525417D01*
X18288431Y14469196D01*
X18319356Y14448474D01*
X18361250Y14446042D01*
X18417471Y14452598D01*
X18438193Y14483523D01*
X18440625Y14525417D01*
X18434069Y14581638D01*
X18403144Y14602360D01*
X18361250Y14604792D01*
X18305029Y14598236D01*
G37*
X18305029Y14598236D02*
X18284307Y14567311D01*
X18281875Y14525417D01*
X18288431Y14469196D01*
X18319356Y14448474D01*
X18361250Y14446042D01*
X18417471Y14452598D01*
X18438193Y14483523D01*
X18440625Y14525417D01*
X18434069Y14581638D01*
X18403144Y14602360D01*
X18361250Y14604792D01*
X18305029Y14598236D01*
G36*
X19733779Y14598236D02*
G01*
X19713057Y14567311D01*
X19710625Y14525417D01*
X19717181Y14469196D01*
X19748106Y14448474D01*
X19790000Y14446042D01*
X19846221Y14452598D01*
X19866943Y14483523D01*
X19869375Y14525417D01*
X19862819Y14581638D01*
X19831894Y14602360D01*
X19790000Y14604792D01*
X19733779Y14598236D01*
G37*
X19733779Y14598236D02*
X19713057Y14567311D01*
X19710625Y14525417D01*
X19717181Y14469196D01*
X19748106Y14448474D01*
X19790000Y14446042D01*
X19846221Y14452598D01*
X19866943Y14483523D01*
X19869375Y14525417D01*
X19862819Y14581638D01*
X19831894Y14602360D01*
X19790000Y14604792D01*
X19733779Y14598236D01*
G36*
X20005595Y14600367D02*
G01*
X19980077Y14577924D01*
X19975208Y14525417D01*
X19980371Y14472088D01*
X20006555Y14450215D01*
X20067813Y14446042D01*
X20130030Y14450467D01*
X20155549Y14472911D01*
X20160417Y14525417D01*
X20155255Y14578746D01*
X20129070Y14600620D01*
X20067813Y14604792D01*
X20005595Y14600367D01*
G37*
X20005595Y14600367D02*
X19980077Y14577924D01*
X19975208Y14525417D01*
X19980371Y14472088D01*
X20006555Y14450215D01*
X20067813Y14446042D01*
X20130030Y14450467D01*
X20155549Y14472911D01*
X20160417Y14525417D01*
X20155255Y14578746D01*
X20129070Y14600620D01*
X20067813Y14604792D01*
X20005595Y14600367D01*
G36*
X20289404Y14598236D02*
G01*
X20268682Y14567311D01*
X20266250Y14525417D01*
X20272806Y14469196D01*
X20303731Y14448474D01*
X20345625Y14446042D01*
X20401846Y14452598D01*
X20422568Y14483523D01*
X20425000Y14525417D01*
X20418444Y14581638D01*
X20387519Y14602360D01*
X20345625Y14604792D01*
X20289404Y14598236D01*
G37*
X20289404Y14598236D02*
X20268682Y14567311D01*
X20266250Y14525417D01*
X20272806Y14469196D01*
X20303731Y14448474D01*
X20345625Y14446042D01*
X20401846Y14452598D01*
X20422568Y14483523D01*
X20425000Y14525417D01*
X20418444Y14581638D01*
X20387519Y14602360D01*
X20345625Y14604792D01*
X20289404Y14598236D01*
G36*
X20580446Y14598236D02*
G01*
X20559724Y14567311D01*
X20557292Y14525417D01*
X20563848Y14469196D01*
X20594773Y14448474D01*
X20636667Y14446042D01*
X20692888Y14452598D01*
X20713610Y14483523D01*
X20716042Y14525417D01*
X20709486Y14581638D01*
X20678561Y14602360D01*
X20636667Y14604792D01*
X20580446Y14598236D01*
G37*
X20580446Y14598236D02*
X20559724Y14567311D01*
X20557292Y14525417D01*
X20563848Y14469196D01*
X20594773Y14448474D01*
X20636667Y14446042D01*
X20692888Y14452598D01*
X20713610Y14483523D01*
X20716042Y14525417D01*
X20709486Y14581638D01*
X20678561Y14602360D01*
X20636667Y14604792D01*
X20580446Y14598236D01*
G36*
X13780654Y14307194D02*
G01*
X13759932Y14276269D01*
X13757500Y14234375D01*
X13764056Y14178154D01*
X13794981Y14157432D01*
X13836875Y14155000D01*
X13893096Y14161557D01*
X13913818Y14192482D01*
X13916250Y14234375D01*
X13909694Y14290597D01*
X13878769Y14311319D01*
X13836875Y14313750D01*
X13780654Y14307194D01*
G37*
X13780654Y14307194D02*
X13759932Y14276269D01*
X13757500Y14234375D01*
X13764056Y14178154D01*
X13794981Y14157432D01*
X13836875Y14155000D01*
X13893096Y14161557D01*
X13913818Y14192482D01*
X13916250Y14234375D01*
X13909694Y14290597D01*
X13878769Y14311319D01*
X13836875Y14313750D01*
X13780654Y14307194D01*
G36*
X14071696Y14307194D02*
G01*
X14050974Y14276269D01*
X14048542Y14234375D01*
X14055098Y14178154D01*
X14086023Y14157432D01*
X14127917Y14155000D01*
X14184138Y14161557D01*
X14204860Y14192482D01*
X14207292Y14234375D01*
X14200736Y14290597D01*
X14169811Y14311319D01*
X14127917Y14313750D01*
X14071696Y14307194D01*
G37*
X14071696Y14307194D02*
X14050974Y14276269D01*
X14048542Y14234375D01*
X14055098Y14178154D01*
X14086023Y14157432D01*
X14127917Y14155000D01*
X14184138Y14161557D01*
X14204860Y14192482D01*
X14207292Y14234375D01*
X14200736Y14290597D01*
X14169811Y14311319D01*
X14127917Y14313750D01*
X14071696Y14307194D01*
G36*
X14343512Y14309326D02*
G01*
X14317993Y14286882D01*
X14313125Y14234375D01*
X14318287Y14181046D01*
X14344472Y14159173D01*
X14405729Y14155000D01*
X14467947Y14159425D01*
X14493465Y14181869D01*
X14498333Y14234375D01*
X14493171Y14287705D01*
X14466987Y14309578D01*
X14405729Y14313750D01*
X14343512Y14309326D01*
G37*
X14343512Y14309326D02*
X14317993Y14286882D01*
X14313125Y14234375D01*
X14318287Y14181046D01*
X14344472Y14159173D01*
X14405729Y14155000D01*
X14467947Y14159425D01*
X14493465Y14181869D01*
X14498333Y14234375D01*
X14493171Y14287705D01*
X14466987Y14309578D01*
X14405729Y14313750D01*
X14343512Y14309326D01*
G36*
X14634554Y14309326D02*
G01*
X14609035Y14286882D01*
X14604167Y14234375D01*
X14609329Y14181046D01*
X14635514Y14159173D01*
X14696771Y14155000D01*
X14758988Y14159425D01*
X14784507Y14181869D01*
X14789375Y14234375D01*
X14784213Y14287705D01*
X14758028Y14309578D01*
X14696771Y14313750D01*
X14634554Y14309326D01*
G37*
X14634554Y14309326D02*
X14609035Y14286882D01*
X14604167Y14234375D01*
X14609329Y14181046D01*
X14635514Y14159173D01*
X14696771Y14155000D01*
X14758988Y14159425D01*
X14784507Y14181869D01*
X14789375Y14234375D01*
X14784213Y14287705D01*
X14758028Y14309578D01*
X14696771Y14313750D01*
X14634554Y14309326D01*
G36*
X14918362Y14307194D02*
G01*
X14897640Y14276269D01*
X14895208Y14234375D01*
X14901765Y14178154D01*
X14932690Y14157432D01*
X14974583Y14155000D01*
X15030805Y14161557D01*
X15051527Y14192482D01*
X15053958Y14234375D01*
X15047402Y14290597D01*
X15016477Y14311319D01*
X14974583Y14313750D01*
X14918362Y14307194D01*
G37*
X14918362Y14307194D02*
X14897640Y14276269D01*
X14895208Y14234375D01*
X14901765Y14178154D01*
X14932690Y14157432D01*
X14974583Y14155000D01*
X15030805Y14161557D01*
X15051527Y14192482D01*
X15053958Y14234375D01*
X15047402Y14290597D01*
X15016477Y14311319D01*
X14974583Y14313750D01*
X14918362Y14307194D01*
G36*
X15209404Y14307194D02*
G01*
X15188682Y14276269D01*
X15186250Y14234375D01*
X15192806Y14178154D01*
X15223731Y14157432D01*
X15265625Y14155000D01*
X15321846Y14161557D01*
X15342568Y14192482D01*
X15345000Y14234375D01*
X15338444Y14290597D01*
X15307519Y14311319D01*
X15265625Y14313750D01*
X15209404Y14307194D01*
G37*
X15209404Y14307194D02*
X15188682Y14276269D01*
X15186250Y14234375D01*
X15192806Y14178154D01*
X15223731Y14157432D01*
X15265625Y14155000D01*
X15321846Y14161557D01*
X15342568Y14192482D01*
X15345000Y14234375D01*
X15338444Y14290597D01*
X15307519Y14311319D01*
X15265625Y14313750D01*
X15209404Y14307194D01*
G36*
X15481220Y14309326D02*
G01*
X15455702Y14286882D01*
X15450833Y14234375D01*
X15455996Y14181046D01*
X15482180Y14159173D01*
X15543438Y14155000D01*
X15605655Y14159425D01*
X15631174Y14181869D01*
X15636042Y14234375D01*
X15630880Y14287705D01*
X15604695Y14309578D01*
X15543438Y14313750D01*
X15481220Y14309326D01*
G37*
X15481220Y14309326D02*
X15455702Y14286882D01*
X15450833Y14234375D01*
X15455996Y14181046D01*
X15482180Y14159173D01*
X15543438Y14155000D01*
X15605655Y14159425D01*
X15631174Y14181869D01*
X15636042Y14234375D01*
X15630880Y14287705D01*
X15604695Y14309578D01*
X15543438Y14313750D01*
X15481220Y14309326D01*
G36*
X15772262Y14309326D02*
G01*
X15746743Y14286882D01*
X15741875Y14234375D01*
X15747037Y14181046D01*
X15773222Y14159173D01*
X15834479Y14155000D01*
X15896697Y14159425D01*
X15922215Y14181869D01*
X15927083Y14234375D01*
X15921921Y14287705D01*
X15895737Y14309578D01*
X15834479Y14313750D01*
X15772262Y14309326D01*
G37*
X15772262Y14309326D02*
X15746743Y14286882D01*
X15741875Y14234375D01*
X15747037Y14181046D01*
X15773222Y14159173D01*
X15834479Y14155000D01*
X15896697Y14159425D01*
X15922215Y14181869D01*
X15927083Y14234375D01*
X15921921Y14287705D01*
X15895737Y14309578D01*
X15834479Y14313750D01*
X15772262Y14309326D01*
G36*
X16056071Y14307194D02*
G01*
X16035349Y14276269D01*
X16032917Y14234375D01*
X16039473Y14178154D01*
X16070398Y14157432D01*
X16112292Y14155000D01*
X16168513Y14161557D01*
X16189235Y14192482D01*
X16191667Y14234375D01*
X16185111Y14290597D01*
X16154186Y14311319D01*
X16112292Y14313750D01*
X16056071Y14307194D01*
G37*
X16056071Y14307194D02*
X16035349Y14276269D01*
X16032917Y14234375D01*
X16039473Y14178154D01*
X16070398Y14157432D01*
X16112292Y14155000D01*
X16168513Y14161557D01*
X16189235Y14192482D01*
X16191667Y14234375D01*
X16185111Y14290597D01*
X16154186Y14311319D01*
X16112292Y14313750D01*
X16056071Y14307194D01*
G36*
X16347112Y14307194D02*
G01*
X16326390Y14276269D01*
X16323958Y14234375D01*
X16330515Y14178154D01*
X16361440Y14157432D01*
X16403333Y14155000D01*
X16459555Y14161557D01*
X16480277Y14192482D01*
X16482708Y14234375D01*
X16476152Y14290597D01*
X16445227Y14311319D01*
X16403333Y14313750D01*
X16347112Y14307194D01*
G37*
X16347112Y14307194D02*
X16326390Y14276269D01*
X16323958Y14234375D01*
X16330515Y14178154D01*
X16361440Y14157432D01*
X16403333Y14155000D01*
X16459555Y14161557D01*
X16480277Y14192482D01*
X16482708Y14234375D01*
X16476152Y14290597D01*
X16445227Y14311319D01*
X16403333Y14313750D01*
X16347112Y14307194D01*
G36*
X16618929Y14309326D02*
G01*
X16593410Y14286882D01*
X16588542Y14234375D01*
X16593704Y14181046D01*
X16619889Y14159173D01*
X16681146Y14155000D01*
X16743363Y14159425D01*
X16768882Y14181869D01*
X16773750Y14234375D01*
X16768588Y14287705D01*
X16742403Y14309578D01*
X16681146Y14313750D01*
X16618929Y14309326D01*
G37*
X16618929Y14309326D02*
X16593410Y14286882D01*
X16588542Y14234375D01*
X16593704Y14181046D01*
X16619889Y14159173D01*
X16681146Y14155000D01*
X16743363Y14159425D01*
X16768882Y14181869D01*
X16773750Y14234375D01*
X16768588Y14287705D01*
X16742403Y14309578D01*
X16681146Y14313750D01*
X16618929Y14309326D01*
G36*
X16902737Y14307194D02*
G01*
X16882015Y14276269D01*
X16879583Y14234375D01*
X16886140Y14178154D01*
X16917065Y14157432D01*
X16958958Y14155000D01*
X17015180Y14161557D01*
X17035902Y14192482D01*
X17038333Y14234375D01*
X17031777Y14290597D01*
X17000852Y14311319D01*
X16958958Y14313750D01*
X16902737Y14307194D01*
G37*
X16902737Y14307194D02*
X16882015Y14276269D01*
X16879583Y14234375D01*
X16886140Y14178154D01*
X16917065Y14157432D01*
X16958958Y14155000D01*
X17015180Y14161557D01*
X17035902Y14192482D01*
X17038333Y14234375D01*
X17031777Y14290597D01*
X17000852Y14311319D01*
X16958958Y14313750D01*
X16902737Y14307194D01*
G36*
X17458362Y14307194D02*
G01*
X17437640Y14276269D01*
X17435208Y14234375D01*
X17441765Y14178154D01*
X17472690Y14157432D01*
X17514583Y14155000D01*
X17570805Y14161557D01*
X17591527Y14192482D01*
X17593958Y14234375D01*
X17587402Y14290597D01*
X17556477Y14311319D01*
X17514583Y14313750D01*
X17458362Y14307194D01*
G37*
X17458362Y14307194D02*
X17437640Y14276269D01*
X17435208Y14234375D01*
X17441765Y14178154D01*
X17472690Y14157432D01*
X17514583Y14155000D01*
X17570805Y14161557D01*
X17591527Y14192482D01*
X17593958Y14234375D01*
X17587402Y14290597D01*
X17556477Y14311319D01*
X17514583Y14313750D01*
X17458362Y14307194D01*
G36*
X17730179Y14309326D02*
G01*
X17704660Y14286882D01*
X17699792Y14234375D01*
X17704954Y14181046D01*
X17731139Y14159173D01*
X17792396Y14155000D01*
X17854613Y14159425D01*
X17880132Y14181869D01*
X17885000Y14234375D01*
X17879838Y14287705D01*
X17853653Y14309578D01*
X17792396Y14313750D01*
X17730179Y14309326D01*
G37*
X17730179Y14309326D02*
X17704660Y14286882D01*
X17699792Y14234375D01*
X17704954Y14181046D01*
X17731139Y14159173D01*
X17792396Y14155000D01*
X17854613Y14159425D01*
X17880132Y14181869D01*
X17885000Y14234375D01*
X17879838Y14287705D01*
X17853653Y14309578D01*
X17792396Y14313750D01*
X17730179Y14309326D01*
G36*
X18021220Y14309326D02*
G01*
X17995702Y14286882D01*
X17990833Y14234375D01*
X17995996Y14181046D01*
X18022180Y14159173D01*
X18083438Y14155000D01*
X18145655Y14159425D01*
X18171174Y14181869D01*
X18176042Y14234375D01*
X18170880Y14287705D01*
X18144695Y14309578D01*
X18083438Y14313750D01*
X18021220Y14309326D01*
G37*
X18021220Y14309326D02*
X17995702Y14286882D01*
X17990833Y14234375D01*
X17995996Y14181046D01*
X18022180Y14159173D01*
X18083438Y14155000D01*
X18145655Y14159425D01*
X18171174Y14181869D01*
X18176042Y14234375D01*
X18170880Y14287705D01*
X18144695Y14309578D01*
X18083438Y14313750D01*
X18021220Y14309326D01*
G36*
X18305029Y14307194D02*
G01*
X18284307Y14276269D01*
X18281875Y14234375D01*
X18288431Y14178154D01*
X18319356Y14157432D01*
X18361250Y14155000D01*
X18417471Y14161557D01*
X18438193Y14192482D01*
X18440625Y14234375D01*
X18434069Y14290597D01*
X18403144Y14311319D01*
X18361250Y14313750D01*
X18305029Y14307194D01*
G37*
X18305029Y14307194D02*
X18284307Y14276269D01*
X18281875Y14234375D01*
X18288431Y14178154D01*
X18319356Y14157432D01*
X18361250Y14155000D01*
X18417471Y14161557D01*
X18438193Y14192482D01*
X18440625Y14234375D01*
X18434069Y14290597D01*
X18403144Y14311319D01*
X18361250Y14313750D01*
X18305029Y14307194D01*
G36*
X19442737Y14307194D02*
G01*
X19422015Y14276269D01*
X19419583Y14234375D01*
X19426140Y14178154D01*
X19457065Y14157432D01*
X19498958Y14155000D01*
X19555180Y14161557D01*
X19575902Y14192482D01*
X19578333Y14234375D01*
X19571777Y14290597D01*
X19540852Y14311319D01*
X19498958Y14313750D01*
X19442737Y14307194D01*
G37*
X19442737Y14307194D02*
X19422015Y14276269D01*
X19419583Y14234375D01*
X19426140Y14178154D01*
X19457065Y14157432D01*
X19498958Y14155000D01*
X19555180Y14161557D01*
X19575902Y14192482D01*
X19578333Y14234375D01*
X19571777Y14290597D01*
X19540852Y14311319D01*
X19498958Y14313750D01*
X19442737Y14307194D01*
G36*
X19733779Y14307194D02*
G01*
X19713057Y14276269D01*
X19710625Y14234375D01*
X19717181Y14178154D01*
X19748106Y14157432D01*
X19790000Y14155000D01*
X19846221Y14161557D01*
X19866943Y14192482D01*
X19869375Y14234375D01*
X19862819Y14290597D01*
X19831894Y14311319D01*
X19790000Y14313750D01*
X19733779Y14307194D01*
G37*
X19733779Y14307194D02*
X19713057Y14276269D01*
X19710625Y14234375D01*
X19717181Y14178154D01*
X19748106Y14157432D01*
X19790000Y14155000D01*
X19846221Y14161557D01*
X19866943Y14192482D01*
X19869375Y14234375D01*
X19862819Y14290597D01*
X19831894Y14311319D01*
X19790000Y14313750D01*
X19733779Y14307194D01*
G36*
X20005595Y14309326D02*
G01*
X19980077Y14286882D01*
X19975208Y14234375D01*
X19980371Y14181046D01*
X20006555Y14159173D01*
X20067813Y14155000D01*
X20130030Y14159425D01*
X20155549Y14181869D01*
X20160417Y14234375D01*
X20155255Y14287705D01*
X20129070Y14309578D01*
X20067813Y14313750D01*
X20005595Y14309326D01*
G37*
X20005595Y14309326D02*
X19980077Y14286882D01*
X19975208Y14234375D01*
X19980371Y14181046D01*
X20006555Y14159173D01*
X20067813Y14155000D01*
X20130030Y14159425D01*
X20155549Y14181869D01*
X20160417Y14234375D01*
X20155255Y14287705D01*
X20129070Y14309578D01*
X20067813Y14313750D01*
X20005595Y14309326D01*
G36*
X20289404Y14307194D02*
G01*
X20268682Y14276269D01*
X20266250Y14234375D01*
X20272806Y14178154D01*
X20303731Y14157432D01*
X20345625Y14155000D01*
X20401846Y14161557D01*
X20422568Y14192482D01*
X20425000Y14234375D01*
X20418444Y14290597D01*
X20387519Y14311319D01*
X20345625Y14313750D01*
X20289404Y14307194D01*
G37*
X20289404Y14307194D02*
X20268682Y14276269D01*
X20266250Y14234375D01*
X20272806Y14178154D01*
X20303731Y14157432D01*
X20345625Y14155000D01*
X20401846Y14161557D01*
X20422568Y14192482D01*
X20425000Y14234375D01*
X20418444Y14290597D01*
X20387519Y14311319D01*
X20345625Y14313750D01*
X20289404Y14307194D01*
G36*
X20580446Y14307194D02*
G01*
X20559724Y14276269D01*
X20557292Y14234375D01*
X20563848Y14178154D01*
X20594773Y14157432D01*
X20636667Y14155000D01*
X20692888Y14161557D01*
X20713610Y14192482D01*
X20716042Y14234375D01*
X20709486Y14290597D01*
X20678561Y14311319D01*
X20636667Y14313750D01*
X20580446Y14307194D01*
G37*
X20580446Y14307194D02*
X20559724Y14276269D01*
X20557292Y14234375D01*
X20563848Y14178154D01*
X20594773Y14157432D01*
X20636667Y14155000D01*
X20692888Y14161557D01*
X20713610Y14192482D01*
X20716042Y14234375D01*
X20709486Y14290597D01*
X20678561Y14311319D01*
X20636667Y14313750D01*
X20580446Y14307194D01*
G36*
X13783546Y14044005D02*
G01*
X13761673Y14017820D01*
X13757500Y13956563D01*
X13761925Y13894346D01*
X13784369Y13868827D01*
X13836875Y13863959D01*
X13890204Y13869121D01*
X13912078Y13895306D01*
X13916250Y13956563D01*
X13911825Y14018780D01*
X13889382Y14044299D01*
X13836875Y14049167D01*
X13783546Y14044005D01*
G37*
X13783546Y14044005D02*
X13761673Y14017820D01*
X13757500Y13956563D01*
X13761925Y13894346D01*
X13784369Y13868827D01*
X13836875Y13863959D01*
X13890204Y13869121D01*
X13912078Y13895306D01*
X13916250Y13956563D01*
X13911825Y14018780D01*
X13889382Y14044299D01*
X13836875Y14049167D01*
X13783546Y14044005D01*
G36*
X14074588Y14044005D02*
G01*
X14052714Y14017820D01*
X14048542Y13956563D01*
X14052967Y13894346D01*
X14075410Y13868827D01*
X14127917Y13863959D01*
X14181246Y13869121D01*
X14203119Y13895306D01*
X14207292Y13956563D01*
X14202867Y14018780D01*
X14180423Y14044299D01*
X14127917Y14049167D01*
X14074588Y14044005D01*
G37*
X14074588Y14044005D02*
X14052714Y14017820D01*
X14048542Y13956563D01*
X14052967Y13894346D01*
X14075410Y13868827D01*
X14127917Y13863959D01*
X14181246Y13869121D01*
X14203119Y13895306D01*
X14207292Y13956563D01*
X14202867Y14018780D01*
X14180423Y14044299D01*
X14127917Y14049167D01*
X14074588Y14044005D01*
G36*
X14343663Y14045071D02*
G01*
X14318209Y14021963D01*
X14313137Y13963612D01*
X14313125Y13956563D01*
X14317221Y13894497D01*
X14340329Y13869043D01*
X14398681Y13863970D01*
X14405729Y13863959D01*
X14467796Y13868055D01*
X14493249Y13891163D01*
X14498322Y13949514D01*
X14498333Y13956563D01*
X14494238Y14018629D01*
X14471130Y14044083D01*
X14412778Y14049156D01*
X14405729Y14049167D01*
X14343663Y14045071D01*
G37*
X14343663Y14045071D02*
X14318209Y14021963D01*
X14313137Y13963612D01*
X14313125Y13956563D01*
X14317221Y13894497D01*
X14340329Y13869043D01*
X14398681Y13863970D01*
X14405729Y13863959D01*
X14467796Y13868055D01*
X14493249Y13891163D01*
X14498322Y13949514D01*
X14498333Y13956563D01*
X14494238Y14018629D01*
X14471130Y14044083D01*
X14412778Y14049156D01*
X14405729Y14049167D01*
X14343663Y14045071D01*
G36*
X14609171Y14025987D02*
G01*
X14604195Y13969867D01*
X14604167Y13958239D01*
X14608028Y13895443D01*
X14630355Y13869397D01*
X14687261Y13863987D01*
X14698447Y13863959D01*
X14760828Y13867463D01*
X14784950Y13887719D01*
X14785429Y13939341D01*
X14784437Y13949948D01*
X14771609Y14010562D01*
X14737115Y14036670D01*
X14690156Y14044229D01*
X14632953Y14045902D01*
X14609171Y14025987D01*
G37*
X14609171Y14025987D02*
X14604195Y13969867D01*
X14604167Y13958239D01*
X14608028Y13895443D01*
X14630355Y13869397D01*
X14687261Y13863987D01*
X14698447Y13863959D01*
X14760828Y13867463D01*
X14784950Y13887719D01*
X14785429Y13939341D01*
X14784437Y13949948D01*
X14771609Y14010562D01*
X14737115Y14036670D01*
X14690156Y14044229D01*
X14632953Y14045902D01*
X14609171Y14025987D01*
G36*
X14921254Y14044005D02*
G01*
X14899381Y14017820D01*
X14895208Y13956563D01*
X14899633Y13894346D01*
X14922077Y13868827D01*
X14974583Y13863959D01*
X15027913Y13869121D01*
X15049786Y13895306D01*
X15053958Y13956563D01*
X15049534Y14018780D01*
X15027090Y14044299D01*
X14974583Y14049167D01*
X14921254Y14044005D01*
G37*
X14921254Y14044005D02*
X14899381Y14017820D01*
X14895208Y13956563D01*
X14899633Y13894346D01*
X14922077Y13868827D01*
X14974583Y13863959D01*
X15027913Y13869121D01*
X15049786Y13895306D01*
X15053958Y13956563D01*
X15049534Y14018780D01*
X15027090Y14044299D01*
X14974583Y14049167D01*
X14921254Y14044005D01*
G36*
X15212296Y14044005D02*
G01*
X15190423Y14017820D01*
X15186250Y13956563D01*
X15190675Y13894346D01*
X15213119Y13868827D01*
X15265625Y13863959D01*
X15318954Y13869121D01*
X15340828Y13895306D01*
X15345000Y13956563D01*
X15340575Y14018780D01*
X15318132Y14044299D01*
X15265625Y14049167D01*
X15212296Y14044005D01*
G37*
X15212296Y14044005D02*
X15190423Y14017820D01*
X15186250Y13956563D01*
X15190675Y13894346D01*
X15213119Y13868827D01*
X15265625Y13863959D01*
X15318954Y13869121D01*
X15340828Y13895306D01*
X15345000Y13956563D01*
X15340575Y14018780D01*
X15318132Y14044299D01*
X15265625Y14049167D01*
X15212296Y14044005D01*
G36*
X15481371Y14045071D02*
G01*
X15455918Y14021963D01*
X15450845Y13963612D01*
X15450833Y13956563D01*
X15454929Y13894497D01*
X15478037Y13869043D01*
X15536389Y13863970D01*
X15543438Y13863959D01*
X15605504Y13868055D01*
X15630958Y13891163D01*
X15636030Y13949514D01*
X15636042Y13956563D01*
X15631946Y14018629D01*
X15608838Y14044083D01*
X15550486Y14049156D01*
X15543438Y14049167D01*
X15481371Y14045071D01*
G37*
X15481371Y14045071D02*
X15455918Y14021963D01*
X15450845Y13963612D01*
X15450833Y13956563D01*
X15454929Y13894497D01*
X15478037Y13869043D01*
X15536389Y13863970D01*
X15543438Y13863959D01*
X15605504Y13868055D01*
X15630958Y13891163D01*
X15636030Y13949514D01*
X15636042Y13956563D01*
X15631946Y14018629D01*
X15608838Y14044083D01*
X15550486Y14049156D01*
X15543438Y14049167D01*
X15481371Y14045071D01*
G36*
X15746879Y14025987D02*
G01*
X15741903Y13969867D01*
X15741875Y13958239D01*
X15745737Y13895443D01*
X15768063Y13869397D01*
X15824969Y13863987D01*
X15836156Y13863959D01*
X15898537Y13867463D01*
X15922659Y13887719D01*
X15923137Y13939341D01*
X15922145Y13949948D01*
X15909317Y14010562D01*
X15874823Y14036670D01*
X15827865Y14044229D01*
X15770661Y14045902D01*
X15746879Y14025987D01*
G37*
X15746879Y14025987D02*
X15741903Y13969867D01*
X15741875Y13958239D01*
X15745737Y13895443D01*
X15768063Y13869397D01*
X15824969Y13863987D01*
X15836156Y13863959D01*
X15898537Y13867463D01*
X15922659Y13887719D01*
X15923137Y13939341D01*
X15922145Y13949948D01*
X15909317Y14010562D01*
X15874823Y14036670D01*
X15827865Y14044229D01*
X15770661Y14045902D01*
X15746879Y14025987D01*
G36*
X16058963Y14044005D02*
G01*
X16037089Y14017820D01*
X16032917Y13956563D01*
X16037342Y13894346D01*
X16059785Y13868827D01*
X16112292Y13863959D01*
X16165621Y13869121D01*
X16187494Y13895306D01*
X16191667Y13956563D01*
X16187242Y14018780D01*
X16164798Y14044299D01*
X16112292Y14049167D01*
X16058963Y14044005D01*
G37*
X16058963Y14044005D02*
X16037089Y14017820D01*
X16032917Y13956563D01*
X16037342Y13894346D01*
X16059785Y13868827D01*
X16112292Y13863959D01*
X16165621Y13869121D01*
X16187494Y13895306D01*
X16191667Y13956563D01*
X16187242Y14018780D01*
X16164798Y14044299D01*
X16112292Y14049167D01*
X16058963Y14044005D01*
G36*
X16350004Y14044005D02*
G01*
X16328131Y14017820D01*
X16323958Y13956563D01*
X16328383Y13894346D01*
X16350827Y13868827D01*
X16403333Y13863959D01*
X16456663Y13869121D01*
X16478536Y13895306D01*
X16482708Y13956563D01*
X16478284Y14018780D01*
X16455840Y14044299D01*
X16403333Y14049167D01*
X16350004Y14044005D01*
G37*
X16350004Y14044005D02*
X16328131Y14017820D01*
X16323958Y13956563D01*
X16328383Y13894346D01*
X16350827Y13868827D01*
X16403333Y13863959D01*
X16456663Y13869121D01*
X16478536Y13895306D01*
X16482708Y13956563D01*
X16478284Y14018780D01*
X16455840Y14044299D01*
X16403333Y14049167D01*
X16350004Y14044005D01*
G36*
X16619080Y14045071D02*
G01*
X16593626Y14021963D01*
X16588553Y13963612D01*
X16588542Y13956563D01*
X16592638Y13894497D01*
X16615746Y13869043D01*
X16674097Y13863970D01*
X16681146Y13863959D01*
X16743212Y13868055D01*
X16768666Y13891163D01*
X16773739Y13949514D01*
X16773750Y13956563D01*
X16769654Y14018629D01*
X16746546Y14044083D01*
X16688195Y14049156D01*
X16681146Y14049167D01*
X16619080Y14045071D01*
G37*
X16619080Y14045071D02*
X16593626Y14021963D01*
X16588553Y13963612D01*
X16588542Y13956563D01*
X16592638Y13894497D01*
X16615746Y13869043D01*
X16674097Y13863970D01*
X16681146Y13863959D01*
X16743212Y13868055D01*
X16768666Y13891163D01*
X16773739Y13949514D01*
X16773750Y13956563D01*
X16769654Y14018629D01*
X16746546Y14044083D01*
X16688195Y14049156D01*
X16681146Y14049167D01*
X16619080Y14045071D01*
G36*
X16905629Y14044005D02*
G01*
X16883756Y14017820D01*
X16879583Y13956563D01*
X16884008Y13894346D01*
X16906452Y13868827D01*
X16958958Y13863959D01*
X17012288Y13869121D01*
X17034161Y13895306D01*
X17038333Y13956563D01*
X17033909Y14018780D01*
X17011465Y14044299D01*
X16958958Y14049167D01*
X16905629Y14044005D01*
G37*
X16905629Y14044005D02*
X16883756Y14017820D01*
X16879583Y13956563D01*
X16884008Y13894346D01*
X16906452Y13868827D01*
X16958958Y13863959D01*
X17012288Y13869121D01*
X17034161Y13895306D01*
X17038333Y13956563D01*
X17033909Y14018780D01*
X17011465Y14044299D01*
X16958958Y14049167D01*
X16905629Y14044005D01*
G36*
X17461254Y14044005D02*
G01*
X17439381Y14017820D01*
X17435208Y13956563D01*
X17439633Y13894346D01*
X17462077Y13868827D01*
X17514583Y13863959D01*
X17567913Y13869121D01*
X17589786Y13895306D01*
X17593958Y13956563D01*
X17589534Y14018780D01*
X17567090Y14044299D01*
X17514583Y14049167D01*
X17461254Y14044005D01*
G37*
X17461254Y14044005D02*
X17439381Y14017820D01*
X17435208Y13956563D01*
X17439633Y13894346D01*
X17462077Y13868827D01*
X17514583Y13863959D01*
X17567913Y13869121D01*
X17589786Y13895306D01*
X17593958Y13956563D01*
X17589534Y14018780D01*
X17567090Y14044299D01*
X17514583Y14049167D01*
X17461254Y14044005D01*
G36*
X17730330Y14045071D02*
G01*
X17704876Y14021963D01*
X17699803Y13963612D01*
X17699792Y13956563D01*
X17703888Y13894497D01*
X17726996Y13869043D01*
X17785347Y13863970D01*
X17792396Y13863959D01*
X17854462Y13868055D01*
X17879916Y13891163D01*
X17884989Y13949514D01*
X17885000Y13956563D01*
X17880904Y14018629D01*
X17857796Y14044083D01*
X17799445Y14049156D01*
X17792396Y14049167D01*
X17730330Y14045071D01*
G37*
X17730330Y14045071D02*
X17704876Y14021963D01*
X17699803Y13963612D01*
X17699792Y13956563D01*
X17703888Y13894497D01*
X17726996Y13869043D01*
X17785347Y13863970D01*
X17792396Y13863959D01*
X17854462Y13868055D01*
X17879916Y13891163D01*
X17884989Y13949514D01*
X17885000Y13956563D01*
X17880904Y14018629D01*
X17857796Y14044083D01*
X17799445Y14049156D01*
X17792396Y14049167D01*
X17730330Y14045071D01*
G36*
X17995838Y14025987D02*
G01*
X17990861Y13969867D01*
X17990833Y13958239D01*
X17994695Y13895443D01*
X18017022Y13869397D01*
X18073928Y13863987D01*
X18085114Y13863959D01*
X18147495Y13867463D01*
X18171617Y13887719D01*
X18172096Y13939341D01*
X18171104Y13949948D01*
X18158276Y14010562D01*
X18123781Y14036670D01*
X18076823Y14044229D01*
X18019620Y14045902D01*
X17995838Y14025987D01*
G37*
X17995838Y14025987D02*
X17990861Y13969867D01*
X17990833Y13958239D01*
X17994695Y13895443D01*
X18017022Y13869397D01*
X18073928Y13863987D01*
X18085114Y13863959D01*
X18147495Y13867463D01*
X18171617Y13887719D01*
X18172096Y13939341D01*
X18171104Y13949948D01*
X18158276Y14010562D01*
X18123781Y14036670D01*
X18076823Y14044229D01*
X18019620Y14045902D01*
X17995838Y14025987D01*
G36*
X18307921Y14044005D02*
G01*
X18286048Y14017820D01*
X18281875Y13956563D01*
X18286300Y13894346D01*
X18308744Y13868827D01*
X18361250Y13863959D01*
X18414579Y13869121D01*
X18436453Y13895306D01*
X18440625Y13956563D01*
X18436200Y14018780D01*
X18413757Y14044299D01*
X18361250Y14049167D01*
X18307921Y14044005D01*
G37*
X18307921Y14044005D02*
X18286048Y14017820D01*
X18281875Y13956563D01*
X18286300Y13894346D01*
X18308744Y13868827D01*
X18361250Y13863959D01*
X18414579Y13869121D01*
X18436453Y13895306D01*
X18440625Y13956563D01*
X18436200Y14018780D01*
X18413757Y14044299D01*
X18361250Y14049167D01*
X18307921Y14044005D01*
G36*
X19133546Y14025987D02*
G01*
X19128570Y13969867D01*
X19128542Y13958239D01*
X19132403Y13895443D01*
X19154730Y13869397D01*
X19211636Y13863987D01*
X19222822Y13863959D01*
X19285203Y13867463D01*
X19309325Y13887719D01*
X19309804Y13939341D01*
X19308812Y13949948D01*
X19295984Y14010562D01*
X19261490Y14036670D01*
X19214531Y14044229D01*
X19157328Y14045902D01*
X19133546Y14025987D01*
G37*
X19133546Y14025987D02*
X19128570Y13969867D01*
X19128542Y13958239D01*
X19132403Y13895443D01*
X19154730Y13869397D01*
X19211636Y13863987D01*
X19222822Y13863959D01*
X19285203Y13867463D01*
X19309325Y13887719D01*
X19309804Y13939341D01*
X19308812Y13949948D01*
X19295984Y14010562D01*
X19261490Y14036670D01*
X19214531Y14044229D01*
X19157328Y14045902D01*
X19133546Y14025987D01*
G36*
X19445629Y14044005D02*
G01*
X19423756Y14017820D01*
X19419583Y13956563D01*
X19424008Y13894346D01*
X19446452Y13868827D01*
X19498958Y13863959D01*
X19552288Y13869121D01*
X19574161Y13895306D01*
X19578333Y13956563D01*
X19573909Y14018780D01*
X19551465Y14044299D01*
X19498958Y14049167D01*
X19445629Y14044005D01*
G37*
X19445629Y14044005D02*
X19423756Y14017820D01*
X19419583Y13956563D01*
X19424008Y13894346D01*
X19446452Y13868827D01*
X19498958Y13863959D01*
X19552288Y13869121D01*
X19574161Y13895306D01*
X19578333Y13956563D01*
X19573909Y14018780D01*
X19551465Y14044299D01*
X19498958Y14049167D01*
X19445629Y14044005D01*
G36*
X19736671Y14044005D02*
G01*
X19714798Y14017820D01*
X19710625Y13956563D01*
X19715050Y13894346D01*
X19737494Y13868827D01*
X19790000Y13863959D01*
X19843329Y13869121D01*
X19865203Y13895306D01*
X19869375Y13956563D01*
X19864950Y14018780D01*
X19842507Y14044299D01*
X19790000Y14049167D01*
X19736671Y14044005D01*
G37*
X19736671Y14044005D02*
X19714798Y14017820D01*
X19710625Y13956563D01*
X19715050Y13894346D01*
X19737494Y13868827D01*
X19790000Y13863959D01*
X19843329Y13869121D01*
X19865203Y13895306D01*
X19869375Y13956563D01*
X19864950Y14018780D01*
X19842507Y14044299D01*
X19790000Y14049167D01*
X19736671Y14044005D01*
G36*
X20005746Y14045071D02*
G01*
X19980293Y14021963D01*
X19975220Y13963612D01*
X19975208Y13956563D01*
X19979304Y13894497D01*
X20002412Y13869043D01*
X20060764Y13863970D01*
X20067813Y13863959D01*
X20129879Y13868055D01*
X20155333Y13891163D01*
X20160405Y13949514D01*
X20160417Y13956563D01*
X20156321Y14018629D01*
X20133213Y14044083D01*
X20074861Y14049156D01*
X20067813Y14049167D01*
X20005746Y14045071D01*
G37*
X20005746Y14045071D02*
X19980293Y14021963D01*
X19975220Y13963612D01*
X19975208Y13956563D01*
X19979304Y13894497D01*
X20002412Y13869043D01*
X20060764Y13863970D01*
X20067813Y13863959D01*
X20129879Y13868055D01*
X20155333Y13891163D01*
X20160405Y13949514D01*
X20160417Y13956563D01*
X20156321Y14018629D01*
X20133213Y14044083D01*
X20074861Y14049156D01*
X20067813Y14049167D01*
X20005746Y14045071D01*
G36*
X20292296Y14044005D02*
G01*
X20270423Y14017820D01*
X20266250Y13956563D01*
X20270675Y13894346D01*
X20293119Y13868827D01*
X20345625Y13863959D01*
X20398954Y13869121D01*
X20420828Y13895306D01*
X20425000Y13956563D01*
X20420575Y14018780D01*
X20398132Y14044299D01*
X20345625Y14049167D01*
X20292296Y14044005D01*
G37*
X20292296Y14044005D02*
X20270423Y14017820D01*
X20266250Y13956563D01*
X20270675Y13894346D01*
X20293119Y13868827D01*
X20345625Y13863959D01*
X20398954Y13869121D01*
X20420828Y13895306D01*
X20425000Y13956563D01*
X20420575Y14018780D01*
X20398132Y14044299D01*
X20345625Y14049167D01*
X20292296Y14044005D01*
G36*
X20583338Y14044005D02*
G01*
X20561464Y14017820D01*
X20557292Y13956563D01*
X20561717Y13894346D01*
X20584160Y13868827D01*
X20636667Y13863959D01*
X20689996Y13869121D01*
X20711869Y13895306D01*
X20716042Y13956563D01*
X20711617Y14018780D01*
X20689173Y14044299D01*
X20636667Y14049167D01*
X20583338Y14044005D01*
G37*
X20583338Y14044005D02*
X20561464Y14017820D01*
X20557292Y13956563D01*
X20561717Y13894346D01*
X20584160Y13868827D01*
X20636667Y13863959D01*
X20689996Y13869121D01*
X20711869Y13895306D01*
X20716042Y13956563D01*
X20711617Y14018780D01*
X20689173Y14044299D01*
X20636667Y14049167D01*
X20583338Y14044005D01*
G36*
X13783546Y13752963D02*
G01*
X13761673Y13726779D01*
X13757500Y13665521D01*
X13761925Y13603304D01*
X13784369Y13577785D01*
X13836875Y13572917D01*
X13890204Y13578079D01*
X13912078Y13604264D01*
X13916250Y13665521D01*
X13911825Y13727739D01*
X13889382Y13753257D01*
X13836875Y13758125D01*
X13783546Y13752963D01*
G37*
X13783546Y13752963D02*
X13761673Y13726779D01*
X13757500Y13665521D01*
X13761925Y13603304D01*
X13784369Y13577785D01*
X13836875Y13572917D01*
X13890204Y13578079D01*
X13912078Y13604264D01*
X13916250Y13665521D01*
X13911825Y13727739D01*
X13889382Y13753257D01*
X13836875Y13758125D01*
X13783546Y13752963D01*
G36*
X14074588Y13752963D02*
G01*
X14052714Y13726779D01*
X14048542Y13665521D01*
X14052967Y13603304D01*
X14075410Y13577785D01*
X14127917Y13572917D01*
X14181246Y13578079D01*
X14203119Y13604264D01*
X14207292Y13665521D01*
X14202867Y13727739D01*
X14180423Y13753257D01*
X14127917Y13758125D01*
X14074588Y13752963D01*
G37*
X14074588Y13752963D02*
X14052714Y13726779D01*
X14048542Y13665521D01*
X14052967Y13603304D01*
X14075410Y13577785D01*
X14127917Y13572917D01*
X14181246Y13578079D01*
X14203119Y13604264D01*
X14207292Y13665521D01*
X14202867Y13727739D01*
X14180423Y13753257D01*
X14127917Y13758125D01*
X14074588Y13752963D01*
G36*
X14343663Y13754030D02*
G01*
X14318209Y13730922D01*
X14313137Y13672570D01*
X14313125Y13665521D01*
X14317221Y13603455D01*
X14340329Y13578001D01*
X14398681Y13572929D01*
X14405729Y13572917D01*
X14467796Y13577013D01*
X14493249Y13600121D01*
X14498322Y13658473D01*
X14498333Y13665521D01*
X14494238Y13727588D01*
X14471130Y13753041D01*
X14412778Y13758114D01*
X14405729Y13758125D01*
X14343663Y13754030D01*
G37*
X14343663Y13754030D02*
X14318209Y13730922D01*
X14313137Y13672570D01*
X14313125Y13665521D01*
X14317221Y13603455D01*
X14340329Y13578001D01*
X14398681Y13572929D01*
X14405729Y13572917D01*
X14467796Y13577013D01*
X14493249Y13600121D01*
X14498322Y13658473D01*
X14498333Y13665521D01*
X14494238Y13727588D01*
X14471130Y13753041D01*
X14412778Y13758114D01*
X14405729Y13758125D01*
X14343663Y13754030D01*
G36*
X14634705Y13754030D02*
G01*
X14609251Y13730922D01*
X14604178Y13672570D01*
X14604167Y13665521D01*
X14608736Y13603211D01*
X14631043Y13577659D01*
X14679132Y13572917D01*
X14739728Y13578584D01*
X14771736Y13590556D01*
X14784661Y13627563D01*
X14789375Y13683160D01*
X14783731Y13733602D01*
X14756176Y13754287D01*
X14696771Y13758125D01*
X14634705Y13754030D01*
G37*
X14634705Y13754030D02*
X14609251Y13730922D01*
X14604178Y13672570D01*
X14604167Y13665521D01*
X14608736Y13603211D01*
X14631043Y13577659D01*
X14679132Y13572917D01*
X14739728Y13578584D01*
X14771736Y13590556D01*
X14784661Y13627563D01*
X14789375Y13683160D01*
X14783731Y13733602D01*
X14756176Y13754287D01*
X14696771Y13758125D01*
X14634705Y13754030D01*
G36*
X14921254Y13752963D02*
G01*
X14899381Y13726779D01*
X14895208Y13665521D01*
X14899633Y13603304D01*
X14922077Y13577785D01*
X14974583Y13572917D01*
X15027913Y13578079D01*
X15049786Y13604264D01*
X15053958Y13665521D01*
X15049534Y13727739D01*
X15027090Y13753257D01*
X14974583Y13758125D01*
X14921254Y13752963D01*
G37*
X14921254Y13752963D02*
X14899381Y13726779D01*
X14895208Y13665521D01*
X14899633Y13603304D01*
X14922077Y13577785D01*
X14974583Y13572917D01*
X15027913Y13578079D01*
X15049786Y13604264D01*
X15053958Y13665521D01*
X15049534Y13727739D01*
X15027090Y13753257D01*
X14974583Y13758125D01*
X14921254Y13752963D01*
G36*
X15212296Y13752963D02*
G01*
X15190423Y13726779D01*
X15186250Y13665521D01*
X15190675Y13603304D01*
X15213119Y13577785D01*
X15265625Y13572917D01*
X15318954Y13578079D01*
X15340828Y13604264D01*
X15345000Y13665521D01*
X15340575Y13727739D01*
X15318132Y13753257D01*
X15265625Y13758125D01*
X15212296Y13752963D01*
G37*
X15212296Y13752963D02*
X15190423Y13726779D01*
X15186250Y13665521D01*
X15190675Y13603304D01*
X15213119Y13577785D01*
X15265625Y13572917D01*
X15318954Y13578079D01*
X15340828Y13604264D01*
X15345000Y13665521D01*
X15340575Y13727739D01*
X15318132Y13753257D01*
X15265625Y13758125D01*
X15212296Y13752963D01*
G36*
X15481371Y13754030D02*
G01*
X15455918Y13730922D01*
X15450845Y13672570D01*
X15450833Y13665521D01*
X15454929Y13603455D01*
X15478037Y13578001D01*
X15536389Y13572929D01*
X15543438Y13572917D01*
X15605504Y13577013D01*
X15630958Y13600121D01*
X15636030Y13658473D01*
X15636042Y13665521D01*
X15631946Y13727588D01*
X15608838Y13753041D01*
X15550486Y13758114D01*
X15543438Y13758125D01*
X15481371Y13754030D01*
G37*
X15481371Y13754030D02*
X15455918Y13730922D01*
X15450845Y13672570D01*
X15450833Y13665521D01*
X15454929Y13603455D01*
X15478037Y13578001D01*
X15536389Y13572929D01*
X15543438Y13572917D01*
X15605504Y13577013D01*
X15630958Y13600121D01*
X15636030Y13658473D01*
X15636042Y13665521D01*
X15631946Y13727588D01*
X15608838Y13753041D01*
X15550486Y13758114D01*
X15543438Y13758125D01*
X15481371Y13754030D01*
G36*
X15772413Y13754030D02*
G01*
X15746959Y13730922D01*
X15741887Y13672570D01*
X15741875Y13665521D01*
X15746444Y13603211D01*
X15768751Y13577659D01*
X15816840Y13572917D01*
X15877437Y13578584D01*
X15909445Y13590556D01*
X15922369Y13627563D01*
X15927083Y13683160D01*
X15921440Y13733602D01*
X15893884Y13754287D01*
X15834479Y13758125D01*
X15772413Y13754030D01*
G37*
X15772413Y13754030D02*
X15746959Y13730922D01*
X15741887Y13672570D01*
X15741875Y13665521D01*
X15746444Y13603211D01*
X15768751Y13577659D01*
X15816840Y13572917D01*
X15877437Y13578584D01*
X15909445Y13590556D01*
X15922369Y13627563D01*
X15927083Y13683160D01*
X15921440Y13733602D01*
X15893884Y13754287D01*
X15834479Y13758125D01*
X15772413Y13754030D01*
G36*
X16058963Y13752963D02*
G01*
X16037089Y13726779D01*
X16032917Y13665521D01*
X16037342Y13603304D01*
X16059785Y13577785D01*
X16112292Y13572917D01*
X16165621Y13578079D01*
X16187494Y13604264D01*
X16191667Y13665521D01*
X16187242Y13727739D01*
X16164798Y13753257D01*
X16112292Y13758125D01*
X16058963Y13752963D01*
G37*
X16058963Y13752963D02*
X16037089Y13726779D01*
X16032917Y13665521D01*
X16037342Y13603304D01*
X16059785Y13577785D01*
X16112292Y13572917D01*
X16165621Y13578079D01*
X16187494Y13604264D01*
X16191667Y13665521D01*
X16187242Y13727739D01*
X16164798Y13753257D01*
X16112292Y13758125D01*
X16058963Y13752963D01*
G36*
X16350004Y13752963D02*
G01*
X16328131Y13726779D01*
X16323958Y13665521D01*
X16328383Y13603304D01*
X16350827Y13577785D01*
X16403333Y13572917D01*
X16456663Y13578079D01*
X16478536Y13604264D01*
X16482708Y13665521D01*
X16478284Y13727739D01*
X16455840Y13753257D01*
X16403333Y13758125D01*
X16350004Y13752963D01*
G37*
X16350004Y13752963D02*
X16328131Y13726779D01*
X16323958Y13665521D01*
X16328383Y13603304D01*
X16350827Y13577785D01*
X16403333Y13572917D01*
X16456663Y13578079D01*
X16478536Y13604264D01*
X16482708Y13665521D01*
X16478284Y13727739D01*
X16455840Y13753257D01*
X16403333Y13758125D01*
X16350004Y13752963D01*
G36*
X16619080Y13754030D02*
G01*
X16593626Y13730922D01*
X16588553Y13672570D01*
X16588542Y13665521D01*
X16592638Y13603455D01*
X16615746Y13578001D01*
X16674097Y13572929D01*
X16681146Y13572917D01*
X16743212Y13577013D01*
X16768666Y13600121D01*
X16773739Y13658473D01*
X16773750Y13665521D01*
X16769654Y13727588D01*
X16746546Y13753041D01*
X16688195Y13758114D01*
X16681146Y13758125D01*
X16619080Y13754030D01*
G37*
X16619080Y13754030D02*
X16593626Y13730922D01*
X16588553Y13672570D01*
X16588542Y13665521D01*
X16592638Y13603455D01*
X16615746Y13578001D01*
X16674097Y13572929D01*
X16681146Y13572917D01*
X16743212Y13577013D01*
X16768666Y13600121D01*
X16773739Y13658473D01*
X16773750Y13665521D01*
X16769654Y13727588D01*
X16746546Y13753041D01*
X16688195Y13758114D01*
X16681146Y13758125D01*
X16619080Y13754030D01*
G36*
X16905629Y13752963D02*
G01*
X16883756Y13726779D01*
X16879583Y13665521D01*
X16884008Y13603304D01*
X16906452Y13577785D01*
X16958958Y13572917D01*
X17012288Y13578079D01*
X17034161Y13604264D01*
X17038333Y13665521D01*
X17033909Y13727739D01*
X17011465Y13753257D01*
X16958958Y13758125D01*
X16905629Y13752963D01*
G37*
X16905629Y13752963D02*
X16883756Y13726779D01*
X16879583Y13665521D01*
X16884008Y13603304D01*
X16906452Y13577785D01*
X16958958Y13572917D01*
X17012288Y13578079D01*
X17034161Y13604264D01*
X17038333Y13665521D01*
X17033909Y13727739D01*
X17011465Y13753257D01*
X16958958Y13758125D01*
X16905629Y13752963D01*
G36*
X17461254Y13752963D02*
G01*
X17439381Y13726779D01*
X17435208Y13665521D01*
X17439633Y13603304D01*
X17462077Y13577785D01*
X17514583Y13572917D01*
X17567913Y13578079D01*
X17589786Y13604264D01*
X17593958Y13665521D01*
X17589534Y13727739D01*
X17567090Y13753257D01*
X17514583Y13758125D01*
X17461254Y13752963D01*
G37*
X17461254Y13752963D02*
X17439381Y13726779D01*
X17435208Y13665521D01*
X17439633Y13603304D01*
X17462077Y13577785D01*
X17514583Y13572917D01*
X17567913Y13578079D01*
X17589786Y13604264D01*
X17593958Y13665521D01*
X17589534Y13727739D01*
X17567090Y13753257D01*
X17514583Y13758125D01*
X17461254Y13752963D01*
G36*
X17730330Y13754030D02*
G01*
X17704876Y13730922D01*
X17699803Y13672570D01*
X17699792Y13665521D01*
X17703888Y13603455D01*
X17726996Y13578001D01*
X17785347Y13572929D01*
X17792396Y13572917D01*
X17854462Y13577013D01*
X17879916Y13600121D01*
X17884989Y13658473D01*
X17885000Y13665521D01*
X17880904Y13727588D01*
X17857796Y13753041D01*
X17799445Y13758114D01*
X17792396Y13758125D01*
X17730330Y13754030D01*
G37*
X17730330Y13754030D02*
X17704876Y13730922D01*
X17699803Y13672570D01*
X17699792Y13665521D01*
X17703888Y13603455D01*
X17726996Y13578001D01*
X17785347Y13572929D01*
X17792396Y13572917D01*
X17854462Y13577013D01*
X17879916Y13600121D01*
X17884989Y13658473D01*
X17885000Y13665521D01*
X17880904Y13727588D01*
X17857796Y13753041D01*
X17799445Y13758114D01*
X17792396Y13758125D01*
X17730330Y13754030D01*
G36*
X18021371Y13754030D02*
G01*
X17995918Y13730922D01*
X17990845Y13672570D01*
X17990833Y13665521D01*
X17994929Y13603455D01*
X18018037Y13578001D01*
X18076389Y13572929D01*
X18083438Y13572917D01*
X18145504Y13577013D01*
X18170958Y13600121D01*
X18176030Y13658473D01*
X18176042Y13665521D01*
X18171946Y13727588D01*
X18148838Y13753041D01*
X18090486Y13758114D01*
X18083438Y13758125D01*
X18021371Y13754030D01*
G37*
X18021371Y13754030D02*
X17995918Y13730922D01*
X17990845Y13672570D01*
X17990833Y13665521D01*
X17994929Y13603455D01*
X18018037Y13578001D01*
X18076389Y13572929D01*
X18083438Y13572917D01*
X18145504Y13577013D01*
X18170958Y13600121D01*
X18176030Y13658473D01*
X18176042Y13665521D01*
X18171946Y13727588D01*
X18148838Y13753041D01*
X18090486Y13758114D01*
X18083438Y13758125D01*
X18021371Y13754030D01*
G36*
X18307921Y13752963D02*
G01*
X18286048Y13726779D01*
X18281875Y13665521D01*
X18286300Y13603304D01*
X18308744Y13577785D01*
X18361250Y13572917D01*
X18414579Y13578079D01*
X18436453Y13604264D01*
X18440625Y13665521D01*
X18436200Y13727739D01*
X18413757Y13753257D01*
X18361250Y13758125D01*
X18307921Y13752963D01*
G37*
X18307921Y13752963D02*
X18286048Y13726779D01*
X18281875Y13665521D01*
X18286300Y13603304D01*
X18308744Y13577785D01*
X18361250Y13572917D01*
X18414579Y13578079D01*
X18436453Y13604264D01*
X18440625Y13665521D01*
X18436200Y13727739D01*
X18413757Y13753257D01*
X18361250Y13758125D01*
X18307921Y13752963D01*
G36*
X18868038Y13754030D02*
G01*
X18842584Y13730922D01*
X18837512Y13672570D01*
X18837500Y13665521D01*
X18841596Y13603455D01*
X18864704Y13578001D01*
X18923056Y13572929D01*
X18930104Y13572917D01*
X18992171Y13577013D01*
X19017624Y13600121D01*
X19022697Y13658473D01*
X19022708Y13665521D01*
X19018613Y13727588D01*
X18995505Y13753041D01*
X18937153Y13758114D01*
X18930104Y13758125D01*
X18868038Y13754030D01*
G37*
X18868038Y13754030D02*
X18842584Y13730922D01*
X18837512Y13672570D01*
X18837500Y13665521D01*
X18841596Y13603455D01*
X18864704Y13578001D01*
X18923056Y13572929D01*
X18930104Y13572917D01*
X18992171Y13577013D01*
X19017624Y13600121D01*
X19022697Y13658473D01*
X19022708Y13665521D01*
X19018613Y13727588D01*
X18995505Y13753041D01*
X18937153Y13758114D01*
X18930104Y13758125D01*
X18868038Y13754030D01*
G36*
X19159080Y13754030D02*
G01*
X19133626Y13730922D01*
X19128553Y13672570D01*
X19128542Y13665521D01*
X19133111Y13603211D01*
X19155418Y13577659D01*
X19203507Y13572917D01*
X19264103Y13578584D01*
X19296111Y13590556D01*
X19309036Y13627563D01*
X19313750Y13683160D01*
X19308106Y13733602D01*
X19280551Y13754287D01*
X19221146Y13758125D01*
X19159080Y13754030D01*
G37*
X19159080Y13754030D02*
X19133626Y13730922D01*
X19128553Y13672570D01*
X19128542Y13665521D01*
X19133111Y13603211D01*
X19155418Y13577659D01*
X19203507Y13572917D01*
X19264103Y13578584D01*
X19296111Y13590556D01*
X19309036Y13627563D01*
X19313750Y13683160D01*
X19308106Y13733602D01*
X19280551Y13754287D01*
X19221146Y13758125D01*
X19159080Y13754030D01*
G36*
X19445629Y13752963D02*
G01*
X19423756Y13726779D01*
X19419583Y13665521D01*
X19424008Y13603304D01*
X19446452Y13577785D01*
X19498958Y13572917D01*
X19552288Y13578079D01*
X19574161Y13604264D01*
X19578333Y13665521D01*
X19573909Y13727739D01*
X19551465Y13753257D01*
X19498958Y13758125D01*
X19445629Y13752963D01*
G37*
X19445629Y13752963D02*
X19423756Y13726779D01*
X19419583Y13665521D01*
X19424008Y13603304D01*
X19446452Y13577785D01*
X19498958Y13572917D01*
X19552288Y13578079D01*
X19574161Y13604264D01*
X19578333Y13665521D01*
X19573909Y13727739D01*
X19551465Y13753257D01*
X19498958Y13758125D01*
X19445629Y13752963D01*
G36*
X19736671Y13752963D02*
G01*
X19714798Y13726779D01*
X19710625Y13665521D01*
X19715050Y13603304D01*
X19737494Y13577785D01*
X19790000Y13572917D01*
X19843329Y13578079D01*
X19865203Y13604264D01*
X19869375Y13665521D01*
X19864950Y13727739D01*
X19842507Y13753257D01*
X19790000Y13758125D01*
X19736671Y13752963D01*
G37*
X19736671Y13752963D02*
X19714798Y13726779D01*
X19710625Y13665521D01*
X19715050Y13603304D01*
X19737494Y13577785D01*
X19790000Y13572917D01*
X19843329Y13578079D01*
X19865203Y13604264D01*
X19869375Y13665521D01*
X19864950Y13727739D01*
X19842507Y13753257D01*
X19790000Y13758125D01*
X19736671Y13752963D01*
G36*
X20005746Y13754030D02*
G01*
X19980293Y13730922D01*
X19975220Y13672570D01*
X19975208Y13665521D01*
X19979304Y13603455D01*
X20002412Y13578001D01*
X20060764Y13572929D01*
X20067813Y13572917D01*
X20129879Y13577013D01*
X20155333Y13600121D01*
X20160405Y13658473D01*
X20160417Y13665521D01*
X20156321Y13727588D01*
X20133213Y13753041D01*
X20074861Y13758114D01*
X20067813Y13758125D01*
X20005746Y13754030D01*
G37*
X20005746Y13754030D02*
X19980293Y13730922D01*
X19975220Y13672570D01*
X19975208Y13665521D01*
X19979304Y13603455D01*
X20002412Y13578001D01*
X20060764Y13572929D01*
X20067813Y13572917D01*
X20129879Y13577013D01*
X20155333Y13600121D01*
X20160405Y13658473D01*
X20160417Y13665521D01*
X20156321Y13727588D01*
X20133213Y13753041D01*
X20074861Y13758114D01*
X20067813Y13758125D01*
X20005746Y13754030D01*
G36*
X20292296Y13752963D02*
G01*
X20270423Y13726779D01*
X20266250Y13665521D01*
X20270675Y13603304D01*
X20293119Y13577785D01*
X20345625Y13572917D01*
X20398954Y13578079D01*
X20420828Y13604264D01*
X20425000Y13665521D01*
X20420575Y13727739D01*
X20398132Y13753257D01*
X20345625Y13758125D01*
X20292296Y13752963D01*
G37*
X20292296Y13752963D02*
X20270423Y13726779D01*
X20266250Y13665521D01*
X20270675Y13603304D01*
X20293119Y13577785D01*
X20345625Y13572917D01*
X20398954Y13578079D01*
X20420828Y13604264D01*
X20425000Y13665521D01*
X20420575Y13727739D01*
X20398132Y13753257D01*
X20345625Y13758125D01*
X20292296Y13752963D01*
G36*
X20583338Y13752963D02*
G01*
X20561464Y13726779D01*
X20557292Y13665521D01*
X20561717Y13603304D01*
X20584160Y13577785D01*
X20636667Y13572917D01*
X20689996Y13578079D01*
X20711869Y13604264D01*
X20716042Y13665521D01*
X20711617Y13727739D01*
X20689173Y13753257D01*
X20636667Y13758125D01*
X20583338Y13752963D01*
G37*
X20583338Y13752963D02*
X20561464Y13726779D01*
X20557292Y13665521D01*
X20561717Y13603304D01*
X20584160Y13577785D01*
X20636667Y13572917D01*
X20689996Y13578079D01*
X20711869Y13604264D01*
X20716042Y13665521D01*
X20711617Y13727739D01*
X20689173Y13753257D01*
X20636667Y13758125D01*
X20583338Y13752963D01*
G36*
X14918362Y13460528D02*
G01*
X14897640Y13429603D01*
X14895208Y13387709D01*
X14901765Y13331488D01*
X14932690Y13310766D01*
X14974583Y13308334D01*
X15030805Y13314890D01*
X15051527Y13345815D01*
X15053958Y13387709D01*
X15047402Y13443930D01*
X15016477Y13464652D01*
X14974583Y13467084D01*
X14918362Y13460528D01*
G37*
X14918362Y13460528D02*
X14897640Y13429603D01*
X14895208Y13387709D01*
X14901765Y13331488D01*
X14932690Y13310766D01*
X14974583Y13308334D01*
X15030805Y13314890D01*
X15051527Y13345815D01*
X15053958Y13387709D01*
X15047402Y13443930D01*
X15016477Y13464652D01*
X14974583Y13467084D01*
X14918362Y13460528D01*
G36*
X15209404Y13460528D02*
G01*
X15188682Y13429603D01*
X15186250Y13387709D01*
X15192806Y13331488D01*
X15223731Y13310766D01*
X15265625Y13308334D01*
X15321846Y13314890D01*
X15342568Y13345815D01*
X15345000Y13387709D01*
X15338444Y13443930D01*
X15307519Y13464652D01*
X15265625Y13467084D01*
X15209404Y13460528D01*
G37*
X15209404Y13460528D02*
X15188682Y13429603D01*
X15186250Y13387709D01*
X15192806Y13331488D01*
X15223731Y13310766D01*
X15265625Y13308334D01*
X15321846Y13314890D01*
X15342568Y13345815D01*
X15345000Y13387709D01*
X15338444Y13443930D01*
X15307519Y13464652D01*
X15265625Y13467084D01*
X15209404Y13460528D01*
G36*
X15481220Y13462659D02*
G01*
X15455702Y13440215D01*
X15450833Y13387709D01*
X15455996Y13334380D01*
X15482180Y13312506D01*
X15543438Y13308334D01*
X15605655Y13312759D01*
X15631174Y13335202D01*
X15636042Y13387709D01*
X15630880Y13441038D01*
X15604695Y13462911D01*
X15543438Y13467084D01*
X15481220Y13462659D01*
G37*
X15481220Y13462659D02*
X15455702Y13440215D01*
X15450833Y13387709D01*
X15455996Y13334380D01*
X15482180Y13312506D01*
X15543438Y13308334D01*
X15605655Y13312759D01*
X15631174Y13335202D01*
X15636042Y13387709D01*
X15630880Y13441038D01*
X15604695Y13462911D01*
X15543438Y13467084D01*
X15481220Y13462659D01*
G36*
X15772262Y13462659D02*
G01*
X15746743Y13440215D01*
X15741875Y13387709D01*
X15747037Y13334380D01*
X15773222Y13312506D01*
X15834479Y13308334D01*
X15896697Y13312759D01*
X15922215Y13335202D01*
X15927083Y13387709D01*
X15921921Y13441038D01*
X15895737Y13462911D01*
X15834479Y13467084D01*
X15772262Y13462659D01*
G37*
X15772262Y13462659D02*
X15746743Y13440215D01*
X15741875Y13387709D01*
X15747037Y13334380D01*
X15773222Y13312506D01*
X15834479Y13308334D01*
X15896697Y13312759D01*
X15922215Y13335202D01*
X15927083Y13387709D01*
X15921921Y13441038D01*
X15895737Y13462911D01*
X15834479Y13467084D01*
X15772262Y13462659D01*
G36*
X17458362Y13460528D02*
G01*
X17437640Y13429603D01*
X17435208Y13387709D01*
X17441765Y13331488D01*
X17472690Y13310766D01*
X17514583Y13308334D01*
X17570805Y13314890D01*
X17591527Y13345815D01*
X17593958Y13387709D01*
X17587402Y13443930D01*
X17556477Y13464652D01*
X17514583Y13467084D01*
X17458362Y13460528D01*
G37*
X17458362Y13460528D02*
X17437640Y13429603D01*
X17435208Y13387709D01*
X17441765Y13331488D01*
X17472690Y13310766D01*
X17514583Y13308334D01*
X17570805Y13314890D01*
X17591527Y13345815D01*
X17593958Y13387709D01*
X17587402Y13443930D01*
X17556477Y13464652D01*
X17514583Y13467084D01*
X17458362Y13460528D01*
G36*
X17730179Y13462659D02*
G01*
X17704660Y13440215D01*
X17699792Y13387709D01*
X17704954Y13334380D01*
X17731139Y13312506D01*
X17792396Y13308334D01*
X17854613Y13312759D01*
X17880132Y13335202D01*
X17885000Y13387709D01*
X17879838Y13441038D01*
X17853653Y13462911D01*
X17792396Y13467084D01*
X17730179Y13462659D01*
G37*
X17730179Y13462659D02*
X17704660Y13440215D01*
X17699792Y13387709D01*
X17704954Y13334380D01*
X17731139Y13312506D01*
X17792396Y13308334D01*
X17854613Y13312759D01*
X17880132Y13335202D01*
X17885000Y13387709D01*
X17879838Y13441038D01*
X17853653Y13462911D01*
X17792396Y13467084D01*
X17730179Y13462659D01*
G36*
X18021220Y13462659D02*
G01*
X17995702Y13440215D01*
X17990833Y13387709D01*
X17995996Y13334380D01*
X18022180Y13312506D01*
X18083438Y13308334D01*
X18145655Y13312759D01*
X18171174Y13335202D01*
X18176042Y13387709D01*
X18170880Y13441038D01*
X18144695Y13462911D01*
X18083438Y13467084D01*
X18021220Y13462659D01*
G37*
X18021220Y13462659D02*
X17995702Y13440215D01*
X17990833Y13387709D01*
X17995996Y13334380D01*
X18022180Y13312506D01*
X18083438Y13308334D01*
X18145655Y13312759D01*
X18171174Y13335202D01*
X18176042Y13387709D01*
X18170880Y13441038D01*
X18144695Y13462911D01*
X18083438Y13467084D01*
X18021220Y13462659D01*
G36*
X18305029Y13460528D02*
G01*
X18284307Y13429603D01*
X18281875Y13387709D01*
X18288431Y13331488D01*
X18319356Y13310766D01*
X18361250Y13308334D01*
X18417471Y13314890D01*
X18438193Y13345815D01*
X18440625Y13387709D01*
X18434069Y13443930D01*
X18403144Y13464652D01*
X18361250Y13467084D01*
X18305029Y13460528D01*
G37*
X18305029Y13460528D02*
X18284307Y13429603D01*
X18281875Y13387709D01*
X18288431Y13331488D01*
X18319356Y13310766D01*
X18361250Y13308334D01*
X18417471Y13314890D01*
X18438193Y13345815D01*
X18440625Y13387709D01*
X18434069Y13443930D01*
X18403144Y13464652D01*
X18361250Y13467084D01*
X18305029Y13460528D01*
G36*
X18596071Y13460528D02*
G01*
X18575349Y13429603D01*
X18572917Y13387709D01*
X18579473Y13331488D01*
X18610398Y13310766D01*
X18652292Y13308334D01*
X18708513Y13314890D01*
X18729235Y13345815D01*
X18731667Y13387709D01*
X18725111Y13443930D01*
X18694186Y13464652D01*
X18652292Y13467084D01*
X18596071Y13460528D01*
G37*
X18596071Y13460528D02*
X18575349Y13429603D01*
X18572917Y13387709D01*
X18579473Y13331488D01*
X18610398Y13310766D01*
X18652292Y13308334D01*
X18708513Y13314890D01*
X18729235Y13345815D01*
X18731667Y13387709D01*
X18725111Y13443930D01*
X18694186Y13464652D01*
X18652292Y13467084D01*
X18596071Y13460528D01*
G36*
X18867887Y13462659D02*
G01*
X18842368Y13440215D01*
X18837500Y13387709D01*
X18842662Y13334380D01*
X18868847Y13312506D01*
X18930104Y13308334D01*
X18992322Y13312759D01*
X19017840Y13335202D01*
X19022708Y13387709D01*
X19017546Y13441038D01*
X18991362Y13462911D01*
X18930104Y13467084D01*
X18867887Y13462659D01*
G37*
X18867887Y13462659D02*
X18842368Y13440215D01*
X18837500Y13387709D01*
X18842662Y13334380D01*
X18868847Y13312506D01*
X18930104Y13308334D01*
X18992322Y13312759D01*
X19017840Y13335202D01*
X19022708Y13387709D01*
X19017546Y13441038D01*
X18991362Y13462911D01*
X18930104Y13467084D01*
X18867887Y13462659D01*
G36*
X19158929Y13462659D02*
G01*
X19133410Y13440215D01*
X19128542Y13387709D01*
X19133704Y13334380D01*
X19159889Y13312506D01*
X19221146Y13308334D01*
X19283363Y13312759D01*
X19308882Y13335202D01*
X19313750Y13387709D01*
X19308588Y13441038D01*
X19282403Y13462911D01*
X19221146Y13467084D01*
X19158929Y13462659D01*
G37*
X19158929Y13462659D02*
X19133410Y13440215D01*
X19128542Y13387709D01*
X19133704Y13334380D01*
X19159889Y13312506D01*
X19221146Y13308334D01*
X19283363Y13312759D01*
X19308882Y13335202D01*
X19313750Y13387709D01*
X19308588Y13441038D01*
X19282403Y13462911D01*
X19221146Y13467084D01*
X19158929Y13462659D01*
G36*
X19442737Y13460528D02*
G01*
X19422015Y13429603D01*
X19419583Y13387709D01*
X19426140Y13331488D01*
X19457065Y13310766D01*
X19498958Y13308334D01*
X19555180Y13314890D01*
X19575902Y13345815D01*
X19578333Y13387709D01*
X19571777Y13443930D01*
X19540852Y13464652D01*
X19498958Y13467084D01*
X19442737Y13460528D01*
G37*
X19442737Y13460528D02*
X19422015Y13429603D01*
X19419583Y13387709D01*
X19426140Y13331488D01*
X19457065Y13310766D01*
X19498958Y13308334D01*
X19555180Y13314890D01*
X19575902Y13345815D01*
X19578333Y13387709D01*
X19571777Y13443930D01*
X19540852Y13464652D01*
X19498958Y13467084D01*
X19442737Y13460528D01*
G36*
X19733779Y13460528D02*
G01*
X19713057Y13429603D01*
X19710625Y13387709D01*
X19717181Y13331488D01*
X19748106Y13310766D01*
X19790000Y13308334D01*
X19846221Y13314890D01*
X19866943Y13345815D01*
X19869375Y13387709D01*
X19862819Y13443930D01*
X19831894Y13464652D01*
X19790000Y13467084D01*
X19733779Y13460528D01*
G37*
X19733779Y13460528D02*
X19713057Y13429603D01*
X19710625Y13387709D01*
X19717181Y13331488D01*
X19748106Y13310766D01*
X19790000Y13308334D01*
X19846221Y13314890D01*
X19866943Y13345815D01*
X19869375Y13387709D01*
X19862819Y13443930D01*
X19831894Y13464652D01*
X19790000Y13467084D01*
X19733779Y13460528D01*
G36*
X20005595Y13462659D02*
G01*
X19980077Y13440215D01*
X19975208Y13387709D01*
X19980371Y13334380D01*
X20006555Y13312506D01*
X20067813Y13308334D01*
X20130030Y13312759D01*
X20155549Y13335202D01*
X20160417Y13387709D01*
X20155255Y13441038D01*
X20129070Y13462911D01*
X20067813Y13467084D01*
X20005595Y13462659D01*
G37*
X20005595Y13462659D02*
X19980077Y13440215D01*
X19975208Y13387709D01*
X19980371Y13334380D01*
X20006555Y13312506D01*
X20067813Y13308334D01*
X20130030Y13312759D01*
X20155549Y13335202D01*
X20160417Y13387709D01*
X20155255Y13441038D01*
X20129070Y13462911D01*
X20067813Y13467084D01*
X20005595Y13462659D01*
G36*
X20289404Y13460528D02*
G01*
X20268682Y13429603D01*
X20266250Y13387709D01*
X20272806Y13331488D01*
X20303731Y13310766D01*
X20345625Y13308334D01*
X20401846Y13314890D01*
X20422568Y13345815D01*
X20425000Y13387709D01*
X20418444Y13443930D01*
X20387519Y13464652D01*
X20345625Y13467084D01*
X20289404Y13460528D01*
G37*
X20289404Y13460528D02*
X20268682Y13429603D01*
X20266250Y13387709D01*
X20272806Y13331488D01*
X20303731Y13310766D01*
X20345625Y13308334D01*
X20401846Y13314890D01*
X20422568Y13345815D01*
X20425000Y13387709D01*
X20418444Y13443930D01*
X20387519Y13464652D01*
X20345625Y13467084D01*
X20289404Y13460528D01*
G36*
X20580446Y13460528D02*
G01*
X20559724Y13429603D01*
X20557292Y13387709D01*
X20563848Y13331488D01*
X20594773Y13310766D01*
X20636667Y13308334D01*
X20692888Y13314890D01*
X20713610Y13345815D01*
X20716042Y13387709D01*
X20709486Y13443930D01*
X20678561Y13464652D01*
X20636667Y13467084D01*
X20580446Y13460528D01*
G37*
X20580446Y13460528D02*
X20559724Y13429603D01*
X20557292Y13387709D01*
X20563848Y13331488D01*
X20594773Y13310766D01*
X20636667Y13308334D01*
X20692888Y13314890D01*
X20713610Y13345815D01*
X20716042Y13387709D01*
X20709486Y13443930D01*
X20678561Y13464652D01*
X20636667Y13467084D01*
X20580446Y13460528D01*
G36*
X14918362Y13169486D02*
G01*
X14897640Y13138561D01*
X14895208Y13096667D01*
X14901765Y13040446D01*
X14932690Y13019724D01*
X14974583Y13017292D01*
X15030805Y13023848D01*
X15051527Y13054773D01*
X15053958Y13096667D01*
X15047402Y13152888D01*
X15016477Y13173610D01*
X14974583Y13176042D01*
X14918362Y13169486D01*
G37*
X14918362Y13169486D02*
X14897640Y13138561D01*
X14895208Y13096667D01*
X14901765Y13040446D01*
X14932690Y13019724D01*
X14974583Y13017292D01*
X15030805Y13023848D01*
X15051527Y13054773D01*
X15053958Y13096667D01*
X15047402Y13152888D01*
X15016477Y13173610D01*
X14974583Y13176042D01*
X14918362Y13169486D01*
G36*
X15209404Y13169486D02*
G01*
X15188682Y13138561D01*
X15186250Y13096667D01*
X15192806Y13040446D01*
X15223731Y13019724D01*
X15265625Y13017292D01*
X15321846Y13023848D01*
X15342568Y13054773D01*
X15345000Y13096667D01*
X15338444Y13152888D01*
X15307519Y13173610D01*
X15265625Y13176042D01*
X15209404Y13169486D01*
G37*
X15209404Y13169486D02*
X15188682Y13138561D01*
X15186250Y13096667D01*
X15192806Y13040446D01*
X15223731Y13019724D01*
X15265625Y13017292D01*
X15321846Y13023848D01*
X15342568Y13054773D01*
X15345000Y13096667D01*
X15338444Y13152888D01*
X15307519Y13173610D01*
X15265625Y13176042D01*
X15209404Y13169486D01*
G36*
X15481220Y13171617D02*
G01*
X15455702Y13149174D01*
X15450833Y13096667D01*
X15455996Y13043338D01*
X15482180Y13021465D01*
X15543438Y13017292D01*
X15605655Y13021717D01*
X15631174Y13044161D01*
X15636042Y13096667D01*
X15630880Y13149996D01*
X15604695Y13171870D01*
X15543438Y13176042D01*
X15481220Y13171617D01*
G37*
X15481220Y13171617D02*
X15455702Y13149174D01*
X15450833Y13096667D01*
X15455996Y13043338D01*
X15482180Y13021465D01*
X15543438Y13017292D01*
X15605655Y13021717D01*
X15631174Y13044161D01*
X15636042Y13096667D01*
X15630880Y13149996D01*
X15604695Y13171870D01*
X15543438Y13176042D01*
X15481220Y13171617D01*
G36*
X15772262Y13171617D02*
G01*
X15746743Y13149174D01*
X15741875Y13096667D01*
X15747037Y13043338D01*
X15773222Y13021465D01*
X15834479Y13017292D01*
X15896697Y13021717D01*
X15922215Y13044161D01*
X15927083Y13096667D01*
X15921921Y13149996D01*
X15895737Y13171870D01*
X15834479Y13176042D01*
X15772262Y13171617D01*
G37*
X15772262Y13171617D02*
X15746743Y13149174D01*
X15741875Y13096667D01*
X15747037Y13043338D01*
X15773222Y13021465D01*
X15834479Y13017292D01*
X15896697Y13021717D01*
X15922215Y13044161D01*
X15927083Y13096667D01*
X15921921Y13149996D01*
X15895737Y13171870D01*
X15834479Y13176042D01*
X15772262Y13171617D01*
G36*
X17458362Y13169486D02*
G01*
X17437640Y13138561D01*
X17435208Y13096667D01*
X17441765Y13040446D01*
X17472690Y13019724D01*
X17514583Y13017292D01*
X17570805Y13023848D01*
X17591527Y13054773D01*
X17593958Y13096667D01*
X17587402Y13152888D01*
X17556477Y13173610D01*
X17514583Y13176042D01*
X17458362Y13169486D01*
G37*
X17458362Y13169486D02*
X17437640Y13138561D01*
X17435208Y13096667D01*
X17441765Y13040446D01*
X17472690Y13019724D01*
X17514583Y13017292D01*
X17570805Y13023848D01*
X17591527Y13054773D01*
X17593958Y13096667D01*
X17587402Y13152888D01*
X17556477Y13173610D01*
X17514583Y13176042D01*
X17458362Y13169486D01*
G36*
X17730179Y13171617D02*
G01*
X17704660Y13149174D01*
X17699792Y13096667D01*
X17704954Y13043338D01*
X17731139Y13021465D01*
X17792396Y13017292D01*
X17854613Y13021717D01*
X17880132Y13044161D01*
X17885000Y13096667D01*
X17879838Y13149996D01*
X17853653Y13171870D01*
X17792396Y13176042D01*
X17730179Y13171617D01*
G37*
X17730179Y13171617D02*
X17704660Y13149174D01*
X17699792Y13096667D01*
X17704954Y13043338D01*
X17731139Y13021465D01*
X17792396Y13017292D01*
X17854613Y13021717D01*
X17880132Y13044161D01*
X17885000Y13096667D01*
X17879838Y13149996D01*
X17853653Y13171870D01*
X17792396Y13176042D01*
X17730179Y13171617D01*
G36*
X18021220Y13171617D02*
G01*
X17995702Y13149174D01*
X17990833Y13096667D01*
X17995996Y13043338D01*
X18022180Y13021465D01*
X18083438Y13017292D01*
X18145655Y13021717D01*
X18171174Y13044161D01*
X18176042Y13096667D01*
X18170880Y13149996D01*
X18144695Y13171870D01*
X18083438Y13176042D01*
X18021220Y13171617D01*
G37*
X18021220Y13171617D02*
X17995702Y13149174D01*
X17990833Y13096667D01*
X17995996Y13043338D01*
X18022180Y13021465D01*
X18083438Y13017292D01*
X18145655Y13021717D01*
X18171174Y13044161D01*
X18176042Y13096667D01*
X18170880Y13149996D01*
X18144695Y13171870D01*
X18083438Y13176042D01*
X18021220Y13171617D01*
G36*
X18305029Y13169486D02*
G01*
X18284307Y13138561D01*
X18281875Y13096667D01*
X18288431Y13040446D01*
X18319356Y13019724D01*
X18361250Y13017292D01*
X18417471Y13023848D01*
X18438193Y13054773D01*
X18440625Y13096667D01*
X18434069Y13152888D01*
X18403144Y13173610D01*
X18361250Y13176042D01*
X18305029Y13169486D01*
G37*
X18305029Y13169486D02*
X18284307Y13138561D01*
X18281875Y13096667D01*
X18288431Y13040446D01*
X18319356Y13019724D01*
X18361250Y13017292D01*
X18417471Y13023848D01*
X18438193Y13054773D01*
X18440625Y13096667D01*
X18434069Y13152888D01*
X18403144Y13173610D01*
X18361250Y13176042D01*
X18305029Y13169486D01*
G36*
X18596071Y13169486D02*
G01*
X18575349Y13138561D01*
X18572917Y13096667D01*
X18579473Y13040446D01*
X18610398Y13019724D01*
X18652292Y13017292D01*
X18708513Y13023848D01*
X18729235Y13054773D01*
X18731667Y13096667D01*
X18725111Y13152888D01*
X18694186Y13173610D01*
X18652292Y13176042D01*
X18596071Y13169486D01*
G37*
X18596071Y13169486D02*
X18575349Y13138561D01*
X18572917Y13096667D01*
X18579473Y13040446D01*
X18610398Y13019724D01*
X18652292Y13017292D01*
X18708513Y13023848D01*
X18729235Y13054773D01*
X18731667Y13096667D01*
X18725111Y13152888D01*
X18694186Y13173610D01*
X18652292Y13176042D01*
X18596071Y13169486D01*
G36*
X18867887Y13171617D02*
G01*
X18842368Y13149174D01*
X18837500Y13096667D01*
X18842662Y13043338D01*
X18868847Y13021465D01*
X18930104Y13017292D01*
X18992322Y13021717D01*
X19017840Y13044161D01*
X19022708Y13096667D01*
X19017546Y13149996D01*
X18991362Y13171870D01*
X18930104Y13176042D01*
X18867887Y13171617D01*
G37*
X18867887Y13171617D02*
X18842368Y13149174D01*
X18837500Y13096667D01*
X18842662Y13043338D01*
X18868847Y13021465D01*
X18930104Y13017292D01*
X18992322Y13021717D01*
X19017840Y13044161D01*
X19022708Y13096667D01*
X19017546Y13149996D01*
X18991362Y13171870D01*
X18930104Y13176042D01*
X18867887Y13171617D01*
G36*
X19158929Y13171617D02*
G01*
X19133410Y13149174D01*
X19128542Y13096667D01*
X19133704Y13043338D01*
X19159889Y13021465D01*
X19221146Y13017292D01*
X19283363Y13021717D01*
X19308882Y13044161D01*
X19313750Y13096667D01*
X19308588Y13149996D01*
X19282403Y13171870D01*
X19221146Y13176042D01*
X19158929Y13171617D01*
G37*
X19158929Y13171617D02*
X19133410Y13149174D01*
X19128542Y13096667D01*
X19133704Y13043338D01*
X19159889Y13021465D01*
X19221146Y13017292D01*
X19283363Y13021717D01*
X19308882Y13044161D01*
X19313750Y13096667D01*
X19308588Y13149996D01*
X19282403Y13171870D01*
X19221146Y13176042D01*
X19158929Y13171617D01*
G36*
X19733779Y13169486D02*
G01*
X19713057Y13138561D01*
X19710625Y13096667D01*
X19717181Y13040446D01*
X19748106Y13019724D01*
X19790000Y13017292D01*
X19846221Y13023848D01*
X19866943Y13054773D01*
X19869375Y13096667D01*
X19862819Y13152888D01*
X19831894Y13173610D01*
X19790000Y13176042D01*
X19733779Y13169486D01*
G37*
X19733779Y13169486D02*
X19713057Y13138561D01*
X19710625Y13096667D01*
X19717181Y13040446D01*
X19748106Y13019724D01*
X19790000Y13017292D01*
X19846221Y13023848D01*
X19866943Y13054773D01*
X19869375Y13096667D01*
X19862819Y13152888D01*
X19831894Y13173610D01*
X19790000Y13176042D01*
X19733779Y13169486D01*
G36*
X20005595Y13171617D02*
G01*
X19980077Y13149174D01*
X19975208Y13096667D01*
X19980371Y13043338D01*
X20006555Y13021465D01*
X20067813Y13017292D01*
X20130030Y13021717D01*
X20155549Y13044161D01*
X20160417Y13096667D01*
X20155255Y13149996D01*
X20129070Y13171870D01*
X20067813Y13176042D01*
X20005595Y13171617D01*
G37*
X20005595Y13171617D02*
X19980077Y13149174D01*
X19975208Y13096667D01*
X19980371Y13043338D01*
X20006555Y13021465D01*
X20067813Y13017292D01*
X20130030Y13021717D01*
X20155549Y13044161D01*
X20160417Y13096667D01*
X20155255Y13149996D01*
X20129070Y13171870D01*
X20067813Y13176042D01*
X20005595Y13171617D01*
G36*
X20289404Y13169486D02*
G01*
X20268682Y13138561D01*
X20266250Y13096667D01*
X20272806Y13040446D01*
X20303731Y13019724D01*
X20345625Y13017292D01*
X20401846Y13023848D01*
X20422568Y13054773D01*
X20425000Y13096667D01*
X20418444Y13152888D01*
X20387519Y13173610D01*
X20345625Y13176042D01*
X20289404Y13169486D01*
G37*
X20289404Y13169486D02*
X20268682Y13138561D01*
X20266250Y13096667D01*
X20272806Y13040446D01*
X20303731Y13019724D01*
X20345625Y13017292D01*
X20401846Y13023848D01*
X20422568Y13054773D01*
X20425000Y13096667D01*
X20418444Y13152888D01*
X20387519Y13173610D01*
X20345625Y13176042D01*
X20289404Y13169486D01*
G36*
X20580446Y13169486D02*
G01*
X20559724Y13138561D01*
X20557292Y13096667D01*
X20563848Y13040446D01*
X20594773Y13019724D01*
X20636667Y13017292D01*
X20692888Y13023848D01*
X20713610Y13054773D01*
X20716042Y13096667D01*
X20709486Y13152888D01*
X20678561Y13173610D01*
X20636667Y13176042D01*
X20580446Y13169486D01*
G37*
X20580446Y13169486D02*
X20559724Y13138561D01*
X20557292Y13096667D01*
X20563848Y13040446D01*
X20594773Y13019724D01*
X20636667Y13017292D01*
X20692888Y13023848D01*
X20713610Y13054773D01*
X20716042Y13096667D01*
X20709486Y13152888D01*
X20678561Y13173610D01*
X20636667Y13176042D01*
X20580446Y13169486D01*
G36*
X14921254Y12906297D02*
G01*
X14899381Y12880112D01*
X14895208Y12818855D01*
X14899633Y12756637D01*
X14922077Y12731119D01*
X14974583Y12726250D01*
X15027913Y12731413D01*
X15049786Y12757597D01*
X15053958Y12818855D01*
X15049534Y12881072D01*
X15027090Y12906591D01*
X14974583Y12911459D01*
X14921254Y12906297D01*
G37*
X14921254Y12906297D02*
X14899381Y12880112D01*
X14895208Y12818855D01*
X14899633Y12756637D01*
X14922077Y12731119D01*
X14974583Y12726250D01*
X15027913Y12731413D01*
X15049786Y12757597D01*
X15053958Y12818855D01*
X15049534Y12881072D01*
X15027090Y12906591D01*
X14974583Y12911459D01*
X14921254Y12906297D01*
G36*
X15212296Y12906297D02*
G01*
X15190423Y12880112D01*
X15186250Y12818855D01*
X15190675Y12756637D01*
X15213119Y12731119D01*
X15265625Y12726250D01*
X15318954Y12731413D01*
X15340828Y12757597D01*
X15345000Y12818855D01*
X15340575Y12881072D01*
X15318132Y12906591D01*
X15265625Y12911459D01*
X15212296Y12906297D01*
G37*
X15212296Y12906297D02*
X15190423Y12880112D01*
X15186250Y12818855D01*
X15190675Y12756637D01*
X15213119Y12731119D01*
X15265625Y12726250D01*
X15318954Y12731413D01*
X15340828Y12757597D01*
X15345000Y12818855D01*
X15340575Y12881072D01*
X15318132Y12906591D01*
X15265625Y12911459D01*
X15212296Y12906297D01*
G36*
X15481371Y12907363D02*
G01*
X15455918Y12884255D01*
X15450845Y12825903D01*
X15450833Y12818855D01*
X15454929Y12756788D01*
X15478037Y12731335D01*
X15536389Y12726262D01*
X15543438Y12726250D01*
X15605504Y12730346D01*
X15630958Y12753454D01*
X15636030Y12811806D01*
X15636042Y12818855D01*
X15631946Y12880921D01*
X15608838Y12906375D01*
X15550486Y12911447D01*
X15543438Y12911459D01*
X15481371Y12907363D01*
G37*
X15481371Y12907363D02*
X15455918Y12884255D01*
X15450845Y12825903D01*
X15450833Y12818855D01*
X15454929Y12756788D01*
X15478037Y12731335D01*
X15536389Y12726262D01*
X15543438Y12726250D01*
X15605504Y12730346D01*
X15630958Y12753454D01*
X15636030Y12811806D01*
X15636042Y12818855D01*
X15631946Y12880921D01*
X15608838Y12906375D01*
X15550486Y12911447D01*
X15543438Y12911459D01*
X15481371Y12907363D01*
G36*
X15746879Y12888278D02*
G01*
X15741903Y12832159D01*
X15741875Y12820531D01*
X15745737Y12757734D01*
X15768063Y12731688D01*
X15824969Y12726278D01*
X15836156Y12726250D01*
X15898537Y12729755D01*
X15922659Y12750010D01*
X15923137Y12801632D01*
X15922145Y12812240D01*
X15909317Y12872854D01*
X15874823Y12898962D01*
X15827865Y12906521D01*
X15770661Y12908194D01*
X15746879Y12888278D01*
G37*
X15746879Y12888278D02*
X15741903Y12832159D01*
X15741875Y12820531D01*
X15745737Y12757734D01*
X15768063Y12731688D01*
X15824969Y12726278D01*
X15836156Y12726250D01*
X15898537Y12729755D01*
X15922659Y12750010D01*
X15923137Y12801632D01*
X15922145Y12812240D01*
X15909317Y12872854D01*
X15874823Y12898962D01*
X15827865Y12906521D01*
X15770661Y12908194D01*
X15746879Y12888278D01*
G36*
X17461254Y12906297D02*
G01*
X17439381Y12880112D01*
X17435208Y12818855D01*
X17439633Y12756637D01*
X17462077Y12731119D01*
X17514583Y12726250D01*
X17567913Y12731413D01*
X17589786Y12757597D01*
X17593958Y12818855D01*
X17589534Y12881072D01*
X17567090Y12906591D01*
X17514583Y12911459D01*
X17461254Y12906297D01*
G37*
X17461254Y12906297D02*
X17439381Y12880112D01*
X17435208Y12818855D01*
X17439633Y12756637D01*
X17462077Y12731119D01*
X17514583Y12726250D01*
X17567913Y12731413D01*
X17589786Y12757597D01*
X17593958Y12818855D01*
X17589534Y12881072D01*
X17567090Y12906591D01*
X17514583Y12911459D01*
X17461254Y12906297D01*
G36*
X17730330Y12907363D02*
G01*
X17704876Y12884255D01*
X17699803Y12825903D01*
X17699792Y12818855D01*
X17703888Y12756788D01*
X17726996Y12731335D01*
X17785347Y12726262D01*
X17792396Y12726250D01*
X17854462Y12730346D01*
X17879916Y12753454D01*
X17884989Y12811806D01*
X17885000Y12818855D01*
X17880904Y12880921D01*
X17857796Y12906375D01*
X17799445Y12911447D01*
X17792396Y12911459D01*
X17730330Y12907363D01*
G37*
X17730330Y12907363D02*
X17704876Y12884255D01*
X17699803Y12825903D01*
X17699792Y12818855D01*
X17703888Y12756788D01*
X17726996Y12731335D01*
X17785347Y12726262D01*
X17792396Y12726250D01*
X17854462Y12730346D01*
X17879916Y12753454D01*
X17884989Y12811806D01*
X17885000Y12818855D01*
X17880904Y12880921D01*
X17857796Y12906375D01*
X17799445Y12911447D01*
X17792396Y12911459D01*
X17730330Y12907363D01*
G36*
X18021371Y12907363D02*
G01*
X17995918Y12884255D01*
X17990845Y12825903D01*
X17990833Y12818855D01*
X17994929Y12756788D01*
X18018037Y12731335D01*
X18076389Y12726262D01*
X18083438Y12726250D01*
X18145504Y12730346D01*
X18170958Y12753454D01*
X18176030Y12811806D01*
X18176042Y12818855D01*
X18171946Y12880921D01*
X18148838Y12906375D01*
X18090486Y12911447D01*
X18083438Y12911459D01*
X18021371Y12907363D01*
G37*
X18021371Y12907363D02*
X17995918Y12884255D01*
X17990845Y12825903D01*
X17990833Y12818855D01*
X17994929Y12756788D01*
X18018037Y12731335D01*
X18076389Y12726262D01*
X18083438Y12726250D01*
X18145504Y12730346D01*
X18170958Y12753454D01*
X18176030Y12811806D01*
X18176042Y12818855D01*
X18171946Y12880921D01*
X18148838Y12906375D01*
X18090486Y12911447D01*
X18083438Y12911459D01*
X18021371Y12907363D01*
G36*
X18307921Y12906297D02*
G01*
X18286048Y12880112D01*
X18281875Y12818855D01*
X18286300Y12756637D01*
X18308744Y12731119D01*
X18361250Y12726250D01*
X18414579Y12731413D01*
X18436453Y12757597D01*
X18440625Y12818855D01*
X18436200Y12881072D01*
X18413757Y12906591D01*
X18361250Y12911459D01*
X18307921Y12906297D01*
G37*
X18307921Y12906297D02*
X18286048Y12880112D01*
X18281875Y12818855D01*
X18286300Y12756637D01*
X18308744Y12731119D01*
X18361250Y12726250D01*
X18414579Y12731413D01*
X18436453Y12757597D01*
X18440625Y12818855D01*
X18436200Y12881072D01*
X18413757Y12906591D01*
X18361250Y12911459D01*
X18307921Y12906297D01*
G36*
X18598963Y12906297D02*
G01*
X18577089Y12880112D01*
X18572917Y12818855D01*
X18577342Y12756637D01*
X18599785Y12731119D01*
X18652292Y12726250D01*
X18705621Y12731413D01*
X18727494Y12757597D01*
X18731667Y12818855D01*
X18727242Y12881072D01*
X18704798Y12906591D01*
X18652292Y12911459D01*
X18598963Y12906297D01*
G37*
X18598963Y12906297D02*
X18577089Y12880112D01*
X18572917Y12818855D01*
X18577342Y12756637D01*
X18599785Y12731119D01*
X18652292Y12726250D01*
X18705621Y12731413D01*
X18727494Y12757597D01*
X18731667Y12818855D01*
X18727242Y12881072D01*
X18704798Y12906591D01*
X18652292Y12911459D01*
X18598963Y12906297D01*
G36*
X18868038Y12907363D02*
G01*
X18842584Y12884255D01*
X18837512Y12825903D01*
X18837500Y12818855D01*
X18841596Y12756788D01*
X18864704Y12731335D01*
X18923056Y12726262D01*
X18930104Y12726250D01*
X18992171Y12730346D01*
X19017624Y12753454D01*
X19022697Y12811806D01*
X19022708Y12818855D01*
X19018613Y12880921D01*
X18995505Y12906375D01*
X18937153Y12911447D01*
X18930104Y12911459D01*
X18868038Y12907363D01*
G37*
X18868038Y12907363D02*
X18842584Y12884255D01*
X18837512Y12825903D01*
X18837500Y12818855D01*
X18841596Y12756788D01*
X18864704Y12731335D01*
X18923056Y12726262D01*
X18930104Y12726250D01*
X18992171Y12730346D01*
X19017624Y12753454D01*
X19022697Y12811806D01*
X19022708Y12818855D01*
X19018613Y12880921D01*
X18995505Y12906375D01*
X18937153Y12911447D01*
X18930104Y12911459D01*
X18868038Y12907363D01*
G36*
X19736671Y12906297D02*
G01*
X19714798Y12880112D01*
X19710625Y12818855D01*
X19715050Y12756637D01*
X19737494Y12731119D01*
X19790000Y12726250D01*
X19843329Y12731413D01*
X19865203Y12757597D01*
X19869375Y12818855D01*
X19864950Y12881072D01*
X19842507Y12906591D01*
X19790000Y12911459D01*
X19736671Y12906297D01*
G37*
X19736671Y12906297D02*
X19714798Y12880112D01*
X19710625Y12818855D01*
X19715050Y12756637D01*
X19737494Y12731119D01*
X19790000Y12726250D01*
X19843329Y12731413D01*
X19865203Y12757597D01*
X19869375Y12818855D01*
X19864950Y12881072D01*
X19842507Y12906591D01*
X19790000Y12911459D01*
X19736671Y12906297D01*
G36*
X20005746Y12907363D02*
G01*
X19980293Y12884255D01*
X19975220Y12825903D01*
X19975208Y12818855D01*
X19979304Y12756788D01*
X20002412Y12731335D01*
X20060764Y12726262D01*
X20067813Y12726250D01*
X20129879Y12730346D01*
X20155333Y12753454D01*
X20160405Y12811806D01*
X20160417Y12818855D01*
X20156321Y12880921D01*
X20133213Y12906375D01*
X20074861Y12911447D01*
X20067813Y12911459D01*
X20005746Y12907363D01*
G37*
X20005746Y12907363D02*
X19980293Y12884255D01*
X19975220Y12825903D01*
X19975208Y12818855D01*
X19979304Y12756788D01*
X20002412Y12731335D01*
X20060764Y12726262D01*
X20067813Y12726250D01*
X20129879Y12730346D01*
X20155333Y12753454D01*
X20160405Y12811806D01*
X20160417Y12818855D01*
X20156321Y12880921D01*
X20133213Y12906375D01*
X20074861Y12911447D01*
X20067813Y12911459D01*
X20005746Y12907363D01*
G36*
X20292296Y12906297D02*
G01*
X20270423Y12880112D01*
X20266250Y12818855D01*
X20270675Y12756637D01*
X20293119Y12731119D01*
X20345625Y12726250D01*
X20398954Y12731413D01*
X20420828Y12757597D01*
X20425000Y12818855D01*
X20420575Y12881072D01*
X20398132Y12906591D01*
X20345625Y12911459D01*
X20292296Y12906297D01*
G37*
X20292296Y12906297D02*
X20270423Y12880112D01*
X20266250Y12818855D01*
X20270675Y12756637D01*
X20293119Y12731119D01*
X20345625Y12726250D01*
X20398954Y12731413D01*
X20420828Y12757597D01*
X20425000Y12818855D01*
X20420575Y12881072D01*
X20398132Y12906591D01*
X20345625Y12911459D01*
X20292296Y12906297D01*
G36*
X20583338Y12906297D02*
G01*
X20561464Y12880112D01*
X20557292Y12818855D01*
X20561717Y12756637D01*
X20584160Y12731119D01*
X20636667Y12726250D01*
X20689996Y12731413D01*
X20711869Y12757597D01*
X20716042Y12818855D01*
X20711617Y12881072D01*
X20689173Y12906591D01*
X20636667Y12911459D01*
X20583338Y12906297D01*
G37*
X20583338Y12906297D02*
X20561464Y12880112D01*
X20557292Y12818855D01*
X20561717Y12756637D01*
X20584160Y12731119D01*
X20636667Y12726250D01*
X20689996Y12731413D01*
X20711869Y12757597D01*
X20716042Y12818855D01*
X20711617Y12881072D01*
X20689173Y12906591D01*
X20636667Y12911459D01*
X20583338Y12906297D01*
G36*
X14921254Y12615255D02*
G01*
X14899381Y12589070D01*
X14895208Y12527813D01*
X14899633Y12465596D01*
X14922077Y12440077D01*
X14974583Y12435209D01*
X15027913Y12440371D01*
X15049786Y12466556D01*
X15053958Y12527813D01*
X15049534Y12590030D01*
X15027090Y12615549D01*
X14974583Y12620417D01*
X14921254Y12615255D01*
G37*
X14921254Y12615255D02*
X14899381Y12589070D01*
X14895208Y12527813D01*
X14899633Y12465596D01*
X14922077Y12440077D01*
X14974583Y12435209D01*
X15027913Y12440371D01*
X15049786Y12466556D01*
X15053958Y12527813D01*
X15049534Y12590030D01*
X15027090Y12615549D01*
X14974583Y12620417D01*
X14921254Y12615255D01*
G36*
X15212296Y12615255D02*
G01*
X15190423Y12589070D01*
X15186250Y12527813D01*
X15190675Y12465596D01*
X15213119Y12440077D01*
X15265625Y12435209D01*
X15318954Y12440371D01*
X15340828Y12466556D01*
X15345000Y12527813D01*
X15340575Y12590030D01*
X15318132Y12615549D01*
X15265625Y12620417D01*
X15212296Y12615255D01*
G37*
X15212296Y12615255D02*
X15190423Y12589070D01*
X15186250Y12527813D01*
X15190675Y12465596D01*
X15213119Y12440077D01*
X15265625Y12435209D01*
X15318954Y12440371D01*
X15340828Y12466556D01*
X15345000Y12527813D01*
X15340575Y12590030D01*
X15318132Y12615549D01*
X15265625Y12620417D01*
X15212296Y12615255D01*
G36*
X15481371Y12616321D02*
G01*
X15455918Y12593213D01*
X15450845Y12534862D01*
X15450833Y12527813D01*
X15454929Y12465747D01*
X15478037Y12440293D01*
X15536389Y12435220D01*
X15543438Y12435209D01*
X15605504Y12439305D01*
X15630958Y12462413D01*
X15636030Y12520764D01*
X15636042Y12527813D01*
X15631946Y12589879D01*
X15608838Y12615333D01*
X15550486Y12620406D01*
X15543438Y12620417D01*
X15481371Y12616321D01*
G37*
X15481371Y12616321D02*
X15455918Y12593213D01*
X15450845Y12534862D01*
X15450833Y12527813D01*
X15454929Y12465747D01*
X15478037Y12440293D01*
X15536389Y12435220D01*
X15543438Y12435209D01*
X15605504Y12439305D01*
X15630958Y12462413D01*
X15636030Y12520764D01*
X15636042Y12527813D01*
X15631946Y12589879D01*
X15608838Y12615333D01*
X15550486Y12620406D01*
X15543438Y12620417D01*
X15481371Y12616321D01*
G36*
X15772413Y12616321D02*
G01*
X15746959Y12593213D01*
X15741887Y12534862D01*
X15741875Y12527813D01*
X15746444Y12465502D01*
X15768751Y12439950D01*
X15816840Y12435209D01*
X15877437Y12440875D01*
X15909445Y12452848D01*
X15922369Y12489855D01*
X15927083Y12545452D01*
X15921440Y12595894D01*
X15893884Y12616579D01*
X15834479Y12620417D01*
X15772413Y12616321D01*
G37*
X15772413Y12616321D02*
X15746959Y12593213D01*
X15741887Y12534862D01*
X15741875Y12527813D01*
X15746444Y12465502D01*
X15768751Y12439950D01*
X15816840Y12435209D01*
X15877437Y12440875D01*
X15909445Y12452848D01*
X15922369Y12489855D01*
X15927083Y12545452D01*
X15921440Y12595894D01*
X15893884Y12616579D01*
X15834479Y12620417D01*
X15772413Y12616321D01*
G36*
X17461254Y12615255D02*
G01*
X17439381Y12589070D01*
X17435208Y12527813D01*
X17439633Y12465596D01*
X17462077Y12440077D01*
X17514583Y12435209D01*
X17567913Y12440371D01*
X17589786Y12466556D01*
X17593958Y12527813D01*
X17589534Y12590030D01*
X17567090Y12615549D01*
X17514583Y12620417D01*
X17461254Y12615255D01*
G37*
X17461254Y12615255D02*
X17439381Y12589070D01*
X17435208Y12527813D01*
X17439633Y12465596D01*
X17462077Y12440077D01*
X17514583Y12435209D01*
X17567913Y12440371D01*
X17589786Y12466556D01*
X17593958Y12527813D01*
X17589534Y12590030D01*
X17567090Y12615549D01*
X17514583Y12620417D01*
X17461254Y12615255D01*
G36*
X17728339Y12616913D02*
G01*
X17704217Y12596657D01*
X17703738Y12545035D01*
X17704730Y12534428D01*
X17717558Y12473814D01*
X17752052Y12447706D01*
X17799011Y12440147D01*
X17856214Y12438474D01*
X17879996Y12458389D01*
X17884972Y12514509D01*
X17885000Y12526137D01*
X17881139Y12588933D01*
X17858812Y12614979D01*
X17801906Y12620389D01*
X17790720Y12620417D01*
X17728339Y12616913D01*
G37*
X17728339Y12616913D02*
X17704217Y12596657D01*
X17703738Y12545035D01*
X17704730Y12534428D01*
X17717558Y12473814D01*
X17752052Y12447706D01*
X17799011Y12440147D01*
X17856214Y12438474D01*
X17879996Y12458389D01*
X17884972Y12514509D01*
X17885000Y12526137D01*
X17881139Y12588933D01*
X17858812Y12614979D01*
X17801906Y12620389D01*
X17790720Y12620417D01*
X17728339Y12616913D01*
G36*
X18021371Y12616321D02*
G01*
X17995918Y12593213D01*
X17990845Y12534862D01*
X17990833Y12527813D01*
X17995402Y12465502D01*
X18017709Y12439950D01*
X18065799Y12435209D01*
X18126395Y12440875D01*
X18158403Y12452848D01*
X18171328Y12489855D01*
X18176042Y12545452D01*
X18170398Y12595894D01*
X18142842Y12616579D01*
X18083438Y12620417D01*
X18021371Y12616321D01*
G37*
X18021371Y12616321D02*
X17995918Y12593213D01*
X17990845Y12534862D01*
X17990833Y12527813D01*
X17995402Y12465502D01*
X18017709Y12439950D01*
X18065799Y12435209D01*
X18126395Y12440875D01*
X18158403Y12452848D01*
X18171328Y12489855D01*
X18176042Y12545452D01*
X18170398Y12595894D01*
X18142842Y12616579D01*
X18083438Y12620417D01*
X18021371Y12616321D01*
G36*
X18307921Y12615255D02*
G01*
X18286048Y12589070D01*
X18281875Y12527813D01*
X18286300Y12465596D01*
X18308744Y12440077D01*
X18361250Y12435209D01*
X18414579Y12440371D01*
X18436453Y12466556D01*
X18440625Y12527813D01*
X18436200Y12590030D01*
X18413757Y12615549D01*
X18361250Y12620417D01*
X18307921Y12615255D01*
G37*
X18307921Y12615255D02*
X18286048Y12589070D01*
X18281875Y12527813D01*
X18286300Y12465596D01*
X18308744Y12440077D01*
X18361250Y12435209D01*
X18414579Y12440371D01*
X18436453Y12466556D01*
X18440625Y12527813D01*
X18436200Y12590030D01*
X18413757Y12615549D01*
X18361250Y12620417D01*
X18307921Y12615255D01*
G36*
X18598963Y12615255D02*
G01*
X18577089Y12589070D01*
X18572917Y12527813D01*
X18577342Y12465596D01*
X18599785Y12440077D01*
X18652292Y12435209D01*
X18705621Y12440371D01*
X18727494Y12466556D01*
X18731667Y12527813D01*
X18727242Y12590030D01*
X18704798Y12615549D01*
X18652292Y12620417D01*
X18598963Y12615255D01*
G37*
X18598963Y12615255D02*
X18577089Y12589070D01*
X18572917Y12527813D01*
X18577342Y12465596D01*
X18599785Y12440077D01*
X18652292Y12435209D01*
X18705621Y12440371D01*
X18727494Y12466556D01*
X18731667Y12527813D01*
X18727242Y12590030D01*
X18704798Y12615549D01*
X18652292Y12620417D01*
X18598963Y12615255D01*
G36*
X19736671Y12615255D02*
G01*
X19714798Y12589070D01*
X19710625Y12527813D01*
X19715050Y12465596D01*
X19737494Y12440077D01*
X19790000Y12435209D01*
X19843329Y12440371D01*
X19865203Y12466556D01*
X19869375Y12527813D01*
X19864950Y12590030D01*
X19842507Y12615549D01*
X19790000Y12620417D01*
X19736671Y12615255D01*
G37*
X19736671Y12615255D02*
X19714798Y12589070D01*
X19710625Y12527813D01*
X19715050Y12465596D01*
X19737494Y12440077D01*
X19790000Y12435209D01*
X19843329Y12440371D01*
X19865203Y12466556D01*
X19869375Y12527813D01*
X19864950Y12590030D01*
X19842507Y12615549D01*
X19790000Y12620417D01*
X19736671Y12615255D01*
G36*
X20005746Y12616321D02*
G01*
X19980293Y12593213D01*
X19975220Y12534862D01*
X19975208Y12527813D01*
X19979304Y12465747D01*
X20002412Y12440293D01*
X20060764Y12435220D01*
X20067813Y12435209D01*
X20129879Y12439305D01*
X20155333Y12462413D01*
X20160405Y12520764D01*
X20160417Y12527813D01*
X20156321Y12589879D01*
X20133213Y12615333D01*
X20074861Y12620406D01*
X20067813Y12620417D01*
X20005746Y12616321D01*
G37*
X20005746Y12616321D02*
X19980293Y12593213D01*
X19975220Y12534862D01*
X19975208Y12527813D01*
X19979304Y12465747D01*
X20002412Y12440293D01*
X20060764Y12435220D01*
X20067813Y12435209D01*
X20129879Y12439305D01*
X20155333Y12462413D01*
X20160405Y12520764D01*
X20160417Y12527813D01*
X20156321Y12589879D01*
X20133213Y12615333D01*
X20074861Y12620406D01*
X20067813Y12620417D01*
X20005746Y12616321D01*
G36*
X20292296Y12615255D02*
G01*
X20270423Y12589070D01*
X20266250Y12527813D01*
X20270675Y12465596D01*
X20293119Y12440077D01*
X20345625Y12435209D01*
X20398954Y12440371D01*
X20420828Y12466556D01*
X20425000Y12527813D01*
X20420575Y12590030D01*
X20398132Y12615549D01*
X20345625Y12620417D01*
X20292296Y12615255D01*
G37*
X20292296Y12615255D02*
X20270423Y12589070D01*
X20266250Y12527813D01*
X20270675Y12465596D01*
X20293119Y12440077D01*
X20345625Y12435209D01*
X20398954Y12440371D01*
X20420828Y12466556D01*
X20425000Y12527813D01*
X20420575Y12590030D01*
X20398132Y12615549D01*
X20345625Y12620417D01*
X20292296Y12615255D01*
G36*
X20583338Y12615255D02*
G01*
X20561464Y12589070D01*
X20557292Y12527813D01*
X20561717Y12465596D01*
X20584160Y12440077D01*
X20636667Y12435209D01*
X20689996Y12440371D01*
X20711869Y12466556D01*
X20716042Y12527813D01*
X20711617Y12590030D01*
X20689173Y12615549D01*
X20636667Y12620417D01*
X20583338Y12615255D01*
G37*
X20583338Y12615255D02*
X20561464Y12589070D01*
X20557292Y12527813D01*
X20561717Y12465596D01*
X20584160Y12440077D01*
X20636667Y12435209D01*
X20689996Y12440371D01*
X20711869Y12466556D01*
X20716042Y12527813D01*
X20711617Y12590030D01*
X20689173Y12615549D01*
X20636667Y12620417D01*
X20583338Y12615255D01*
G36*
X14918362Y12322819D02*
G01*
X14897640Y12291894D01*
X14895208Y12250000D01*
X14901765Y12193779D01*
X14932690Y12173057D01*
X14974583Y12170625D01*
X15030805Y12177182D01*
X15051527Y12208107D01*
X15053958Y12250000D01*
X15047402Y12306222D01*
X15016477Y12326944D01*
X14974583Y12329375D01*
X14918362Y12322819D01*
G37*
X14918362Y12322819D02*
X14897640Y12291894D01*
X14895208Y12250000D01*
X14901765Y12193779D01*
X14932690Y12173057D01*
X14974583Y12170625D01*
X15030805Y12177182D01*
X15051527Y12208107D01*
X15053958Y12250000D01*
X15047402Y12306222D01*
X15016477Y12326944D01*
X14974583Y12329375D01*
X14918362Y12322819D01*
G36*
X15209404Y12322819D02*
G01*
X15188682Y12291894D01*
X15186250Y12250000D01*
X15192806Y12193779D01*
X15223731Y12173057D01*
X15265625Y12170625D01*
X15321846Y12177182D01*
X15342568Y12208107D01*
X15345000Y12250000D01*
X15338444Y12306222D01*
X15307519Y12326944D01*
X15265625Y12329375D01*
X15209404Y12322819D01*
G37*
X15209404Y12322819D02*
X15188682Y12291894D01*
X15186250Y12250000D01*
X15192806Y12193779D01*
X15223731Y12173057D01*
X15265625Y12170625D01*
X15321846Y12177182D01*
X15342568Y12208107D01*
X15345000Y12250000D01*
X15338444Y12306222D01*
X15307519Y12326944D01*
X15265625Y12329375D01*
X15209404Y12322819D01*
G36*
X15481220Y12324951D02*
G01*
X15455702Y12302507D01*
X15450833Y12250000D01*
X15455996Y12196671D01*
X15482180Y12174798D01*
X15543438Y12170625D01*
X15605655Y12175050D01*
X15631174Y12197494D01*
X15636042Y12250000D01*
X15630880Y12303330D01*
X15604695Y12325203D01*
X15543438Y12329375D01*
X15481220Y12324951D01*
G37*
X15481220Y12324951D02*
X15455702Y12302507D01*
X15450833Y12250000D01*
X15455996Y12196671D01*
X15482180Y12174798D01*
X15543438Y12170625D01*
X15605655Y12175050D01*
X15631174Y12197494D01*
X15636042Y12250000D01*
X15630880Y12303330D01*
X15604695Y12325203D01*
X15543438Y12329375D01*
X15481220Y12324951D01*
G36*
X15772262Y12324951D02*
G01*
X15746743Y12302507D01*
X15741875Y12250000D01*
X15747037Y12196671D01*
X15773222Y12174798D01*
X15834479Y12170625D01*
X15896697Y12175050D01*
X15922215Y12197494D01*
X15927083Y12250000D01*
X15921921Y12303330D01*
X15895737Y12325203D01*
X15834479Y12329375D01*
X15772262Y12324951D01*
G37*
X15772262Y12324951D02*
X15746743Y12302507D01*
X15741875Y12250000D01*
X15747037Y12196671D01*
X15773222Y12174798D01*
X15834479Y12170625D01*
X15896697Y12175050D01*
X15922215Y12197494D01*
X15927083Y12250000D01*
X15921921Y12303330D01*
X15895737Y12325203D01*
X15834479Y12329375D01*
X15772262Y12324951D01*
G36*
X17458362Y12322819D02*
G01*
X17437640Y12291894D01*
X17435208Y12250000D01*
X17441765Y12193779D01*
X17472690Y12173057D01*
X17514583Y12170625D01*
X17570805Y12177182D01*
X17591527Y12208107D01*
X17593958Y12250000D01*
X17587402Y12306222D01*
X17556477Y12326944D01*
X17514583Y12329375D01*
X17458362Y12322819D01*
G37*
X17458362Y12322819D02*
X17437640Y12291894D01*
X17435208Y12250000D01*
X17441765Y12193779D01*
X17472690Y12173057D01*
X17514583Y12170625D01*
X17570805Y12177182D01*
X17591527Y12208107D01*
X17593958Y12250000D01*
X17587402Y12306222D01*
X17556477Y12326944D01*
X17514583Y12329375D01*
X17458362Y12322819D01*
G36*
X18021220Y12324951D02*
G01*
X17995702Y12302507D01*
X17990833Y12250000D01*
X17995996Y12196671D01*
X18022180Y12174798D01*
X18083438Y12170625D01*
X18145655Y12175050D01*
X18171174Y12197494D01*
X18176042Y12250000D01*
X18170880Y12303330D01*
X18144695Y12325203D01*
X18083438Y12329375D01*
X18021220Y12324951D01*
G37*
X18021220Y12324951D02*
X17995702Y12302507D01*
X17990833Y12250000D01*
X17995996Y12196671D01*
X18022180Y12174798D01*
X18083438Y12170625D01*
X18145655Y12175050D01*
X18171174Y12197494D01*
X18176042Y12250000D01*
X18170880Y12303330D01*
X18144695Y12325203D01*
X18083438Y12329375D01*
X18021220Y12324951D01*
G36*
X18305029Y12322819D02*
G01*
X18284307Y12291894D01*
X18281875Y12250000D01*
X18288431Y12193779D01*
X18319356Y12173057D01*
X18361250Y12170625D01*
X18417471Y12177182D01*
X18438193Y12208107D01*
X18440625Y12250000D01*
X18434069Y12306222D01*
X18403144Y12326944D01*
X18361250Y12329375D01*
X18305029Y12322819D01*
G37*
X18305029Y12322819D02*
X18284307Y12291894D01*
X18281875Y12250000D01*
X18288431Y12193779D01*
X18319356Y12173057D01*
X18361250Y12170625D01*
X18417471Y12177182D01*
X18438193Y12208107D01*
X18440625Y12250000D01*
X18434069Y12306222D01*
X18403144Y12326944D01*
X18361250Y12329375D01*
X18305029Y12322819D01*
G36*
X19733779Y12322819D02*
G01*
X19713057Y12291894D01*
X19710625Y12250000D01*
X19717181Y12193779D01*
X19748106Y12173057D01*
X19790000Y12170625D01*
X19846221Y12177182D01*
X19866943Y12208107D01*
X19869375Y12250000D01*
X19862819Y12306222D01*
X19831894Y12326944D01*
X19790000Y12329375D01*
X19733779Y12322819D01*
G37*
X19733779Y12322819D02*
X19713057Y12291894D01*
X19710625Y12250000D01*
X19717181Y12193779D01*
X19748106Y12173057D01*
X19790000Y12170625D01*
X19846221Y12177182D01*
X19866943Y12208107D01*
X19869375Y12250000D01*
X19862819Y12306222D01*
X19831894Y12326944D01*
X19790000Y12329375D01*
X19733779Y12322819D01*
G36*
X20005595Y12324951D02*
G01*
X19980077Y12302507D01*
X19975208Y12250000D01*
X19980371Y12196671D01*
X20006555Y12174798D01*
X20067813Y12170625D01*
X20130030Y12175050D01*
X20155549Y12197494D01*
X20160417Y12250000D01*
X20155255Y12303330D01*
X20129070Y12325203D01*
X20067813Y12329375D01*
X20005595Y12324951D01*
G37*
X20005595Y12324951D02*
X19980077Y12302507D01*
X19975208Y12250000D01*
X19980371Y12196671D01*
X20006555Y12174798D01*
X20067813Y12170625D01*
X20130030Y12175050D01*
X20155549Y12197494D01*
X20160417Y12250000D01*
X20155255Y12303330D01*
X20129070Y12325203D01*
X20067813Y12329375D01*
X20005595Y12324951D01*
G36*
X20289404Y12322819D02*
G01*
X20268682Y12291894D01*
X20266250Y12250000D01*
X20272806Y12193779D01*
X20303731Y12173057D01*
X20345625Y12170625D01*
X20401846Y12177182D01*
X20422568Y12208107D01*
X20425000Y12250000D01*
X20418444Y12306222D01*
X20387519Y12326944D01*
X20345625Y12329375D01*
X20289404Y12322819D01*
G37*
X20289404Y12322819D02*
X20268682Y12291894D01*
X20266250Y12250000D01*
X20272806Y12193779D01*
X20303731Y12173057D01*
X20345625Y12170625D01*
X20401846Y12177182D01*
X20422568Y12208107D01*
X20425000Y12250000D01*
X20418444Y12306222D01*
X20387519Y12326944D01*
X20345625Y12329375D01*
X20289404Y12322819D01*
G36*
X20580446Y12322819D02*
G01*
X20559724Y12291894D01*
X20557292Y12250000D01*
X20563848Y12193779D01*
X20594773Y12173057D01*
X20636667Y12170625D01*
X20692888Y12177182D01*
X20713610Y12208107D01*
X20716042Y12250000D01*
X20709486Y12306222D01*
X20678561Y12326944D01*
X20636667Y12329375D01*
X20580446Y12322819D01*
G37*
X20580446Y12322819D02*
X20559724Y12291894D01*
X20557292Y12250000D01*
X20563848Y12193779D01*
X20594773Y12173057D01*
X20636667Y12170625D01*
X20692888Y12177182D01*
X20713610Y12208107D01*
X20716042Y12250000D01*
X20709486Y12306222D01*
X20678561Y12326944D01*
X20636667Y12329375D01*
X20580446Y12322819D01*
G36*
X17730118Y12324855D02*
G01*
X17704578Y12302511D01*
X17699792Y12253004D01*
X17708369Y12196970D01*
X17745053Y12171743D01*
X17779317Y12164960D01*
X17839453Y12160560D01*
X17871922Y12166366D01*
X17881456Y12199687D01*
X17885000Y12254410D01*
X17879356Y12304852D01*
X17851801Y12325537D01*
X17792396Y12329375D01*
X17730118Y12324855D01*
G37*
X17730118Y12324855D02*
X17704578Y12302511D01*
X17699792Y12253004D01*
X17708369Y12196970D01*
X17745053Y12171743D01*
X17779317Y12164960D01*
X17839453Y12160560D01*
X17871922Y12166366D01*
X17881456Y12199687D01*
X17885000Y12254410D01*
X17879356Y12304852D01*
X17851801Y12325537D01*
X17792396Y12329375D01*
X17730118Y12324855D01*
G36*
X14918362Y12031778D02*
G01*
X14897640Y12000853D01*
X14895208Y11958959D01*
X14901765Y11902738D01*
X14932690Y11882016D01*
X14974583Y11879584D01*
X15030805Y11886140D01*
X15051527Y11917065D01*
X15053958Y11958959D01*
X15047402Y12015180D01*
X15016477Y12035902D01*
X14974583Y12038334D01*
X14918362Y12031778D01*
G37*
X14918362Y12031778D02*
X14897640Y12000853D01*
X14895208Y11958959D01*
X14901765Y11902738D01*
X14932690Y11882016D01*
X14974583Y11879584D01*
X15030805Y11886140D01*
X15051527Y11917065D01*
X15053958Y11958959D01*
X15047402Y12015180D01*
X15016477Y12035902D01*
X14974583Y12038334D01*
X14918362Y12031778D01*
G36*
X15209404Y12031778D02*
G01*
X15188682Y12000853D01*
X15186250Y11958959D01*
X15192806Y11902738D01*
X15223731Y11882016D01*
X15265625Y11879584D01*
X15321846Y11886140D01*
X15342568Y11917065D01*
X15345000Y11958959D01*
X15338444Y12015180D01*
X15307519Y12035902D01*
X15265625Y12038334D01*
X15209404Y12031778D01*
G37*
X15209404Y12031778D02*
X15188682Y12000853D01*
X15186250Y11958959D01*
X15192806Y11902738D01*
X15223731Y11882016D01*
X15265625Y11879584D01*
X15321846Y11886140D01*
X15342568Y11917065D01*
X15345000Y11958959D01*
X15338444Y12015180D01*
X15307519Y12035902D01*
X15265625Y12038334D01*
X15209404Y12031778D01*
G36*
X15481220Y12033909D02*
G01*
X15455702Y12011465D01*
X15450833Y11958959D01*
X15455996Y11905630D01*
X15482180Y11883756D01*
X15543438Y11879584D01*
X15605655Y11884009D01*
X15631174Y11906452D01*
X15636042Y11958959D01*
X15630880Y12012288D01*
X15604695Y12034161D01*
X15543438Y12038334D01*
X15481220Y12033909D01*
G37*
X15481220Y12033909D02*
X15455702Y12011465D01*
X15450833Y11958959D01*
X15455996Y11905630D01*
X15482180Y11883756D01*
X15543438Y11879584D01*
X15605655Y11884009D01*
X15631174Y11906452D01*
X15636042Y11958959D01*
X15630880Y12012288D01*
X15604695Y12034161D01*
X15543438Y12038334D01*
X15481220Y12033909D01*
G36*
X15772262Y12033909D02*
G01*
X15746743Y12011465D01*
X15741875Y11958959D01*
X15747037Y11905630D01*
X15773222Y11883756D01*
X15834479Y11879584D01*
X15896697Y11884009D01*
X15922215Y11906452D01*
X15927083Y11958959D01*
X15921921Y12012288D01*
X15895737Y12034161D01*
X15834479Y12038334D01*
X15772262Y12033909D01*
G37*
X15772262Y12033909D02*
X15746743Y12011465D01*
X15741875Y11958959D01*
X15747037Y11905630D01*
X15773222Y11883756D01*
X15834479Y11879584D01*
X15896697Y11884009D01*
X15922215Y11906452D01*
X15927083Y11958959D01*
X15921921Y12012288D01*
X15895737Y12034161D01*
X15834479Y12038334D01*
X15772262Y12033909D01*
G36*
X17458362Y12031778D02*
G01*
X17437640Y12000853D01*
X17435208Y11958959D01*
X17441765Y11902738D01*
X17472690Y11882016D01*
X17514583Y11879584D01*
X17570805Y11886140D01*
X17591527Y11917065D01*
X17593958Y11958959D01*
X17587402Y12015180D01*
X17556477Y12035902D01*
X17514583Y12038334D01*
X17458362Y12031778D01*
G37*
X17458362Y12031778D02*
X17437640Y12000853D01*
X17435208Y11958959D01*
X17441765Y11902738D01*
X17472690Y11882016D01*
X17514583Y11879584D01*
X17570805Y11886140D01*
X17591527Y11917065D01*
X17593958Y11958959D01*
X17587402Y12015180D01*
X17556477Y12035902D01*
X17514583Y12038334D01*
X17458362Y12031778D01*
G36*
X17730179Y12033909D02*
G01*
X17704660Y12011465D01*
X17699792Y11958959D01*
X17704954Y11905630D01*
X17731139Y11883756D01*
X17792396Y11879584D01*
X17854613Y11884009D01*
X17880132Y11906452D01*
X17885000Y11958959D01*
X17879838Y12012288D01*
X17853653Y12034161D01*
X17792396Y12038334D01*
X17730179Y12033909D01*
G37*
X17730179Y12033909D02*
X17704660Y12011465D01*
X17699792Y11958959D01*
X17704954Y11905630D01*
X17731139Y11883756D01*
X17792396Y11879584D01*
X17854613Y11884009D01*
X17880132Y11906452D01*
X17885000Y11958959D01*
X17879838Y12012288D01*
X17853653Y12034161D01*
X17792396Y12038334D01*
X17730179Y12033909D01*
G36*
X18021220Y12033909D02*
G01*
X17995702Y12011465D01*
X17990833Y11958959D01*
X17995996Y11905630D01*
X18022180Y11883756D01*
X18083438Y11879584D01*
X18145655Y11884009D01*
X18171174Y11906452D01*
X18176042Y11958959D01*
X18170880Y12012288D01*
X18144695Y12034161D01*
X18083438Y12038334D01*
X18021220Y12033909D01*
G37*
X18021220Y12033909D02*
X17995702Y12011465D01*
X17990833Y11958959D01*
X17995996Y11905630D01*
X18022180Y11883756D01*
X18083438Y11879584D01*
X18145655Y11884009D01*
X18171174Y11906452D01*
X18176042Y11958959D01*
X18170880Y12012288D01*
X18144695Y12034161D01*
X18083438Y12038334D01*
X18021220Y12033909D01*
G36*
X18305029Y12031778D02*
G01*
X18284307Y12000853D01*
X18281875Y11958959D01*
X18288431Y11902738D01*
X18319356Y11882016D01*
X18361250Y11879584D01*
X18417471Y11886140D01*
X18438193Y11917065D01*
X18440625Y11958959D01*
X18434069Y12015180D01*
X18403144Y12035902D01*
X18361250Y12038334D01*
X18305029Y12031778D01*
G37*
X18305029Y12031778D02*
X18284307Y12000853D01*
X18281875Y11958959D01*
X18288431Y11902738D01*
X18319356Y11882016D01*
X18361250Y11879584D01*
X18417471Y11886140D01*
X18438193Y11917065D01*
X18440625Y11958959D01*
X18434069Y12015180D01*
X18403144Y12035902D01*
X18361250Y12038334D01*
X18305029Y12031778D01*
G36*
X19733779Y12031778D02*
G01*
X19713057Y12000853D01*
X19710625Y11958959D01*
X19717181Y11902738D01*
X19748106Y11882016D01*
X19790000Y11879584D01*
X19846221Y11886140D01*
X19866943Y11917065D01*
X19869375Y11958959D01*
X19862819Y12015180D01*
X19831894Y12035902D01*
X19790000Y12038334D01*
X19733779Y12031778D01*
G37*
X19733779Y12031778D02*
X19713057Y12000853D01*
X19710625Y11958959D01*
X19717181Y11902738D01*
X19748106Y11882016D01*
X19790000Y11879584D01*
X19846221Y11886140D01*
X19866943Y11917065D01*
X19869375Y11958959D01*
X19862819Y12015180D01*
X19831894Y12035902D01*
X19790000Y12038334D01*
X19733779Y12031778D01*
G36*
X20005595Y12033909D02*
G01*
X19980077Y12011465D01*
X19975208Y11958959D01*
X19980371Y11905630D01*
X20006555Y11883756D01*
X20067813Y11879584D01*
X20130030Y11884009D01*
X20155549Y11906452D01*
X20160417Y11958959D01*
X20155255Y12012288D01*
X20129070Y12034161D01*
X20067813Y12038334D01*
X20005595Y12033909D01*
G37*
X20005595Y12033909D02*
X19980077Y12011465D01*
X19975208Y11958959D01*
X19980371Y11905630D01*
X20006555Y11883756D01*
X20067813Y11879584D01*
X20130030Y11884009D01*
X20155549Y11906452D01*
X20160417Y11958959D01*
X20155255Y12012288D01*
X20129070Y12034161D01*
X20067813Y12038334D01*
X20005595Y12033909D01*
G36*
X20289404Y12031778D02*
G01*
X20268682Y12000853D01*
X20266250Y11958959D01*
X20272806Y11902738D01*
X20303731Y11882016D01*
X20345625Y11879584D01*
X20401846Y11886140D01*
X20422568Y11917065D01*
X20425000Y11958959D01*
X20418444Y12015180D01*
X20387519Y12035902D01*
X20345625Y12038334D01*
X20289404Y12031778D01*
G37*
X20289404Y12031778D02*
X20268682Y12000853D01*
X20266250Y11958959D01*
X20272806Y11902738D01*
X20303731Y11882016D01*
X20345625Y11879584D01*
X20401846Y11886140D01*
X20422568Y11917065D01*
X20425000Y11958959D01*
X20418444Y12015180D01*
X20387519Y12035902D01*
X20345625Y12038334D01*
X20289404Y12031778D01*
G36*
X20580446Y12031778D02*
G01*
X20559724Y12000853D01*
X20557292Y11958959D01*
X20563848Y11902738D01*
X20594773Y11882016D01*
X20636667Y11879584D01*
X20692888Y11886140D01*
X20713610Y11917065D01*
X20716042Y11958959D01*
X20709486Y12015180D01*
X20678561Y12035902D01*
X20636667Y12038334D01*
X20580446Y12031778D01*
G37*
X20580446Y12031778D02*
X20559724Y12000853D01*
X20557292Y11958959D01*
X20563848Y11902738D01*
X20594773Y11882016D01*
X20636667Y11879584D01*
X20692888Y11886140D01*
X20713610Y11917065D01*
X20716042Y11958959D01*
X20709486Y12015180D01*
X20678561Y12035902D01*
X20636667Y12038334D01*
X20580446Y12031778D01*
G36*
X14921254Y11768588D02*
G01*
X14899381Y11742404D01*
X14895208Y11681146D01*
X14899633Y11618929D01*
X14922077Y11593410D01*
X14974583Y11588542D01*
X15027913Y11593704D01*
X15049786Y11619889D01*
X15053958Y11681146D01*
X15049534Y11743364D01*
X15027090Y11768882D01*
X14974583Y11773750D01*
X14921254Y11768588D01*
G37*
X14921254Y11768588D02*
X14899381Y11742404D01*
X14895208Y11681146D01*
X14899633Y11618929D01*
X14922077Y11593410D01*
X14974583Y11588542D01*
X15027913Y11593704D01*
X15049786Y11619889D01*
X15053958Y11681146D01*
X15049534Y11743364D01*
X15027090Y11768882D01*
X14974583Y11773750D01*
X14921254Y11768588D01*
G36*
X17461254Y11768588D02*
G01*
X17439381Y11742404D01*
X17435208Y11681146D01*
X17439633Y11618929D01*
X17462077Y11593410D01*
X17514583Y11588542D01*
X17567913Y11593704D01*
X17589786Y11619889D01*
X17593958Y11681146D01*
X17589534Y11743364D01*
X17567090Y11768882D01*
X17514583Y11773750D01*
X17461254Y11768588D01*
G37*
X17461254Y11768588D02*
X17439381Y11742404D01*
X17435208Y11681146D01*
X17439633Y11618929D01*
X17462077Y11593410D01*
X17514583Y11588542D01*
X17567913Y11593704D01*
X17589786Y11619889D01*
X17593958Y11681146D01*
X17589534Y11743364D01*
X17567090Y11768882D01*
X17514583Y11773750D01*
X17461254Y11768588D01*
G36*
X13120347Y11794794D02*
G01*
X13104867Y11771049D01*
X13097807Y11717725D01*
X13096047Y11623573D01*
X13096042Y11615000D01*
X13096931Y11523703D01*
X13099271Y11457553D01*
X13102570Y11429937D01*
X13102840Y11429792D01*
X13125044Y11445107D01*
X13180202Y11486695D01*
X13259748Y11548020D01*
X13345516Y11615000D01*
X13446625Y11695978D01*
X13508923Y11750458D01*
X13536532Y11782880D01*
X13533573Y11797679D01*
X13517312Y11799952D01*
X13461628Y11783764D01*
X13386558Y11742392D01*
X13334167Y11704815D01*
X13215104Y11609934D01*
X13206893Y11705071D01*
X13194226Y11771381D01*
X13166560Y11797893D01*
X13147361Y11800209D01*
X13120347Y11794794D01*
G37*
X13120347Y11794794D02*
X13104867Y11771049D01*
X13097807Y11717725D01*
X13096047Y11623573D01*
X13096042Y11615000D01*
X13096931Y11523703D01*
X13099271Y11457553D01*
X13102570Y11429937D01*
X13102840Y11429792D01*
X13125044Y11445107D01*
X13180202Y11486695D01*
X13259748Y11548020D01*
X13345516Y11615000D01*
X13446625Y11695978D01*
X13508923Y11750458D01*
X13536532Y11782880D01*
X13533573Y11797679D01*
X13517312Y11799952D01*
X13461628Y11783764D01*
X13386558Y11742392D01*
X13334167Y11704815D01*
X13215104Y11609934D01*
X13206893Y11705071D01*
X13194226Y11771381D01*
X13166560Y11797893D01*
X13147361Y11800209D01*
X13120347Y11794794D01*
G36*
X14918362Y11476153D02*
G01*
X14897640Y11445228D01*
X14895208Y11403334D01*
X14901765Y11347113D01*
X14932690Y11326391D01*
X14974583Y11323959D01*
X15030805Y11330515D01*
X15051527Y11361440D01*
X15053958Y11403334D01*
X15047402Y11459555D01*
X15016477Y11480277D01*
X14974583Y11482709D01*
X14918362Y11476153D01*
G37*
X14918362Y11476153D02*
X14897640Y11445228D01*
X14895208Y11403334D01*
X14901765Y11347113D01*
X14932690Y11326391D01*
X14974583Y11323959D01*
X15030805Y11330515D01*
X15051527Y11361440D01*
X15053958Y11403334D01*
X15047402Y11459555D01*
X15016477Y11480277D01*
X14974583Y11482709D01*
X14918362Y11476153D01*
G36*
X17458362Y11476153D02*
G01*
X17437640Y11445228D01*
X17435208Y11403334D01*
X17441765Y11347113D01*
X17472690Y11326391D01*
X17514583Y11323959D01*
X17570805Y11330515D01*
X17591527Y11361440D01*
X17593958Y11403334D01*
X17587402Y11459555D01*
X17556477Y11480277D01*
X17514583Y11482709D01*
X17458362Y11476153D01*
G37*
X17458362Y11476153D02*
X17437640Y11445228D01*
X17435208Y11403334D01*
X17441765Y11347113D01*
X17472690Y11326391D01*
X17514583Y11323959D01*
X17570805Y11330515D01*
X17591527Y11361440D01*
X17593958Y11403334D01*
X17587402Y11459555D01*
X17556477Y11480277D01*
X17514583Y11482709D01*
X17458362Y11476153D01*
G36*
X14918362Y11185111D02*
G01*
X14897640Y11154186D01*
X14895208Y11112292D01*
X14901765Y11056071D01*
X14932690Y11035349D01*
X14974583Y11032917D01*
X15030805Y11039473D01*
X15051527Y11070398D01*
X15053958Y11112292D01*
X15047402Y11168513D01*
X15016477Y11189235D01*
X14974583Y11191667D01*
X14918362Y11185111D01*
G37*
X14918362Y11185111D02*
X14897640Y11154186D01*
X14895208Y11112292D01*
X14901765Y11056071D01*
X14932690Y11035349D01*
X14974583Y11032917D01*
X15030805Y11039473D01*
X15051527Y11070398D01*
X15053958Y11112292D01*
X15047402Y11168513D01*
X15016477Y11189235D01*
X14974583Y11191667D01*
X14918362Y11185111D01*
G36*
X17458362Y11185111D02*
G01*
X17437640Y11154186D01*
X17435208Y11112292D01*
X17441765Y11056071D01*
X17472690Y11035349D01*
X17514583Y11032917D01*
X17570805Y11039473D01*
X17591527Y11070398D01*
X17593958Y11112292D01*
X17587402Y11168513D01*
X17556477Y11189235D01*
X17514583Y11191667D01*
X17458362Y11185111D01*
G37*
X17458362Y11185111D02*
X17437640Y11154186D01*
X17435208Y11112292D01*
X17441765Y11056071D01*
X17472690Y11035349D01*
X17514583Y11032917D01*
X17570805Y11039473D01*
X17591527Y11070398D01*
X17593958Y11112292D01*
X17587402Y11168513D01*
X17556477Y11189235D01*
X17514583Y11191667D01*
X17458362Y11185111D01*
G36*
X17730179Y11187242D02*
G01*
X17704660Y11164799D01*
X17699792Y11112292D01*
X17704954Y11058963D01*
X17731139Y11037090D01*
X17792396Y11032917D01*
X17854613Y11037342D01*
X17880132Y11059786D01*
X17885000Y11112292D01*
X17879838Y11165621D01*
X17853653Y11187495D01*
X17792396Y11191667D01*
X17730179Y11187242D01*
G37*
X17730179Y11187242D02*
X17704660Y11164799D01*
X17699792Y11112292D01*
X17704954Y11058963D01*
X17731139Y11037090D01*
X17792396Y11032917D01*
X17854613Y11037342D01*
X17880132Y11059786D01*
X17885000Y11112292D01*
X17879838Y11165621D01*
X17853653Y11187495D01*
X17792396Y11191667D01*
X17730179Y11187242D01*
G36*
X19733779Y11185111D02*
G01*
X19713057Y11154186D01*
X19710625Y11112292D01*
X19717181Y11056071D01*
X19748106Y11035349D01*
X19790000Y11032917D01*
X19846221Y11039473D01*
X19866943Y11070398D01*
X19869375Y11112292D01*
X19862819Y11168513D01*
X19831894Y11189235D01*
X19790000Y11191667D01*
X19733779Y11185111D01*
G37*
X19733779Y11185111D02*
X19713057Y11154186D01*
X19710625Y11112292D01*
X19717181Y11056071D01*
X19748106Y11035349D01*
X19790000Y11032917D01*
X19846221Y11039473D01*
X19866943Y11070398D01*
X19869375Y11112292D01*
X19862819Y11168513D01*
X19831894Y11189235D01*
X19790000Y11191667D01*
X19733779Y11185111D01*
G36*
X20289404Y11185111D02*
G01*
X20268682Y11154186D01*
X20266250Y11112292D01*
X20272806Y11056071D01*
X20303731Y11035349D01*
X20345625Y11032917D01*
X20401846Y11039473D01*
X20422568Y11070398D01*
X20425000Y11112292D01*
X20418444Y11168513D01*
X20387519Y11189235D01*
X20345625Y11191667D01*
X20289404Y11185111D01*
G37*
X20289404Y11185111D02*
X20268682Y11154186D01*
X20266250Y11112292D01*
X20272806Y11056071D01*
X20303731Y11035349D01*
X20345625Y11032917D01*
X20401846Y11039473D01*
X20422568Y11070398D01*
X20425000Y11112292D01*
X20418444Y11168513D01*
X20387519Y11189235D01*
X20345625Y11191667D01*
X20289404Y11185111D01*
G36*
X19402882Y11764459D02*
G01*
X19397203Y11722025D01*
X19394311Y11646476D01*
X19393265Y11531068D01*
X19393125Y11380976D01*
X19393707Y11237306D01*
X19395315Y11114208D01*
X19397745Y11020495D01*
X19400790Y10964980D01*
X19403074Y10953542D01*
X19420201Y10974586D01*
X19457974Y11031080D01*
X19509864Y11113072D01*
X19541921Y11165209D01*
X19614962Y11280563D01*
X19666216Y11350347D01*
X19697371Y11376416D01*
X19710117Y11360624D01*
X19710625Y11350417D01*
X19733777Y11332483D01*
X19790245Y11324051D01*
X19797525Y11323959D01*
X19869586Y11311363D01*
X19919225Y11264008D01*
X19929816Y11247116D01*
X19962051Y11174260D01*
X19975415Y11108210D01*
X19995089Y11053822D01*
X20041247Y11013978D01*
X20095168Y10999801D01*
X20132055Y11015138D01*
X20157115Y11072585D01*
X20154254Y11150321D01*
X20128006Y11217824D01*
X20108828Y11266167D01*
X20128006Y11302132D01*
X20150231Y11345432D01*
X20159525Y11404173D01*
X20155184Y11456982D01*
X20136505Y11482483D01*
X20133958Y11482709D01*
X20112462Y11504869D01*
X20107500Y11535625D01*
X20118580Y11578619D01*
X20133958Y11588542D01*
X20151447Y11611801D01*
X20160188Y11668993D01*
X20160417Y11681146D01*
X20156321Y11743213D01*
X20133213Y11768666D01*
X20074861Y11773739D01*
X20067813Y11773750D01*
X20005746Y11769655D01*
X19980293Y11746547D01*
X19975220Y11688195D01*
X19975208Y11681146D01*
X19981854Y11619938D01*
X19998195Y11589342D01*
X20001667Y11588542D01*
X20023164Y11566382D01*
X20028125Y11535625D01*
X20017045Y11492632D01*
X20001667Y11482709D01*
X19982363Y11459872D01*
X19974890Y11409948D01*
X19973003Y11368881D01*
X19963284Y11364369D01*
X19938882Y11400138D01*
X19914030Y11443031D01*
X19891693Y11495938D01*
X19790000Y11495938D01*
X19776771Y11482709D01*
X19763542Y11495938D01*
X19776771Y11509167D01*
X19790000Y11495938D01*
X19891693Y11495938D01*
X19870253Y11546718D01*
X19863455Y11652659D01*
X19864211Y11661313D01*
X19868778Y11731665D01*
X19858292Y11764095D01*
X19823425Y11773283D01*
X19792779Y11773750D01*
X19735466Y11767892D01*
X19713676Y11739132D01*
X19710625Y11690982D01*
X19697951Y11629488D01*
X19665539Y11544257D01*
X19621807Y11452467D01*
X19575173Y11371293D01*
X19534055Y11317914D01*
X19523795Y11309727D01*
X19511421Y11326173D01*
X19502815Y11387147D01*
X19499042Y11484333D01*
X19498958Y11503505D01*
X19496826Y11614177D01*
X19488586Y11685450D01*
X19471479Y11730737D01*
X19446042Y11760521D01*
X19426361Y11776962D01*
X19412287Y11780523D01*
X19402882Y11764459D01*
G37*
X19402882Y11764459D02*
X19397203Y11722025D01*
X19394311Y11646476D01*
X19393265Y11531068D01*
X19393125Y11380976D01*
X19393707Y11237306D01*
X19395315Y11114208D01*
X19397745Y11020495D01*
X19400790Y10964980D01*
X19403074Y10953542D01*
X19420201Y10974586D01*
X19457974Y11031080D01*
X19509864Y11113072D01*
X19541921Y11165209D01*
X19614962Y11280563D01*
X19666216Y11350347D01*
X19697371Y11376416D01*
X19710117Y11360624D01*
X19710625Y11350417D01*
X19733777Y11332483D01*
X19790245Y11324051D01*
X19797525Y11323959D01*
X19869586Y11311363D01*
X19919225Y11264008D01*
X19929816Y11247116D01*
X19962051Y11174260D01*
X19975415Y11108210D01*
X19995089Y11053822D01*
X20041247Y11013978D01*
X20095168Y10999801D01*
X20132055Y11015138D01*
X20157115Y11072585D01*
X20154254Y11150321D01*
X20128006Y11217824D01*
X20108828Y11266167D01*
X20128006Y11302132D01*
X20150231Y11345432D01*
X20159525Y11404173D01*
X20155184Y11456982D01*
X20136505Y11482483D01*
X20133958Y11482709D01*
X20112462Y11504869D01*
X20107500Y11535625D01*
X20118580Y11578619D01*
X20133958Y11588542D01*
X20151447Y11611801D01*
X20160188Y11668993D01*
X20160417Y11681146D01*
X20156321Y11743213D01*
X20133213Y11768666D01*
X20074861Y11773739D01*
X20067813Y11773750D01*
X20005746Y11769655D01*
X19980293Y11746547D01*
X19975220Y11688195D01*
X19975208Y11681146D01*
X19981854Y11619938D01*
X19998195Y11589342D01*
X20001667Y11588542D01*
X20023164Y11566382D01*
X20028125Y11535625D01*
X20017045Y11492632D01*
X20001667Y11482709D01*
X19982363Y11459872D01*
X19974890Y11409948D01*
X19973003Y11368881D01*
X19963284Y11364369D01*
X19938882Y11400138D01*
X19914030Y11443031D01*
X19891693Y11495938D01*
X19790000Y11495938D01*
X19776771Y11482709D01*
X19763542Y11495938D01*
X19776771Y11509167D01*
X19790000Y11495938D01*
X19891693Y11495938D01*
X19870253Y11546718D01*
X19863455Y11652659D01*
X19864211Y11661313D01*
X19868778Y11731665D01*
X19858292Y11764095D01*
X19823425Y11773283D01*
X19792779Y11773750D01*
X19735466Y11767892D01*
X19713676Y11739132D01*
X19710625Y11690982D01*
X19697951Y11629488D01*
X19665539Y11544257D01*
X19621807Y11452467D01*
X19575173Y11371293D01*
X19534055Y11317914D01*
X19523795Y11309727D01*
X19511421Y11326173D01*
X19502815Y11387147D01*
X19499042Y11484333D01*
X19498958Y11503505D01*
X19496826Y11614177D01*
X19488586Y11685450D01*
X19471479Y11730737D01*
X19446042Y11760521D01*
X19426361Y11776962D01*
X19412287Y11780523D01*
X19402882Y11764459D01*
G36*
X13138882Y11358362D02*
G01*
X13111886Y11299851D01*
X13098321Y11196882D01*
X13096042Y11107001D01*
X13097201Y11003126D01*
X13102520Y10941380D01*
X13114761Y10910992D01*
X13136684Y10901193D01*
X13148958Y10900625D01*
X13174100Y10904604D01*
X13189722Y10923255D01*
X13198064Y10966650D01*
X13201363Y11044861D01*
X13201875Y11138750D01*
X13199699Y11243614D01*
X13193869Y11324916D01*
X13185434Y11370853D01*
X13180709Y11376875D01*
X13138882Y11358362D01*
G37*
X13138882Y11358362D02*
X13111886Y11299851D01*
X13098321Y11196882D01*
X13096042Y11107001D01*
X13097201Y11003126D01*
X13102520Y10941380D01*
X13114761Y10910992D01*
X13136684Y10901193D01*
X13148958Y10900625D01*
X13174100Y10904604D01*
X13189722Y10923255D01*
X13198064Y10966650D01*
X13201363Y11044861D01*
X13201875Y11138750D01*
X13199699Y11243614D01*
X13193869Y11324916D01*
X13185434Y11370853D01*
X13180709Y11376875D01*
X13138882Y11358362D01*
G36*
X13857770Y11796561D02*
G01*
X13788238Y11782753D01*
X13762792Y11768459D01*
X13735344Y11709216D01*
X13732009Y11627448D01*
X13750955Y11546751D01*
X13783958Y11495938D01*
X13814749Y11470615D01*
X13830438Y11472899D01*
X13836116Y11511467D01*
X13836875Y11586118D01*
X13836875Y11724187D01*
X13922865Y11715896D01*
X14008854Y11707605D01*
X14016237Y11357032D01*
X14023619Y11006459D01*
X13930247Y11006459D01*
X13867831Y11010494D01*
X13842097Y11033104D01*
X13836889Y11090043D01*
X13836875Y11097502D01*
X13844321Y11163727D01*
X13862490Y11204035D01*
X13864917Y11205875D01*
X13871006Y11232518D01*
X13845073Y11259512D01*
X13788995Y11293420D01*
X13754177Y11288795D01*
X13736302Y11241121D01*
X13731051Y11145879D01*
X13731042Y11140251D01*
X13734242Y11046863D01*
X13747014Y10990120D01*
X13774114Y10953972D01*
X13789846Y10941813D01*
X13874767Y10908504D01*
X13974257Y10904650D01*
X14055156Y10929203D01*
X14073326Y10945271D01*
X14086077Y10974362D01*
X14094337Y11024829D01*
X14099032Y11105024D01*
X14101089Y11223302D01*
X14101458Y11346440D01*
X14099505Y11524904D01*
X14093515Y11653169D01*
X14083295Y11733816D01*
X14069709Y11768459D01*
X14020872Y11789413D01*
X13942770Y11798781D01*
X13857770Y11796561D01*
G37*
X13857770Y11796561D02*
X13788238Y11782753D01*
X13762792Y11768459D01*
X13735344Y11709216D01*
X13732009Y11627448D01*
X13750955Y11546751D01*
X13783958Y11495938D01*
X13814749Y11470615D01*
X13830438Y11472899D01*
X13836116Y11511467D01*
X13836875Y11586118D01*
X13836875Y11724187D01*
X13922865Y11715896D01*
X14008854Y11707605D01*
X14016237Y11357032D01*
X14023619Y11006459D01*
X13930247Y11006459D01*
X13867831Y11010494D01*
X13842097Y11033104D01*
X13836889Y11090043D01*
X13836875Y11097502D01*
X13844321Y11163727D01*
X13862490Y11204035D01*
X13864917Y11205875D01*
X13871006Y11232518D01*
X13845073Y11259512D01*
X13788995Y11293420D01*
X13754177Y11288795D01*
X13736302Y11241121D01*
X13731051Y11145879D01*
X13731042Y11140251D01*
X13734242Y11046863D01*
X13747014Y10990120D01*
X13774114Y10953972D01*
X13789846Y10941813D01*
X13874767Y10908504D01*
X13974257Y10904650D01*
X14055156Y10929203D01*
X14073326Y10945271D01*
X14086077Y10974362D01*
X14094337Y11024829D01*
X14099032Y11105024D01*
X14101089Y11223302D01*
X14101458Y11346440D01*
X14099505Y11524904D01*
X14093515Y11653169D01*
X14083295Y11733816D01*
X14069709Y11768459D01*
X14020872Y11789413D01*
X13942770Y11798781D01*
X13857770Y11796561D01*
G36*
X14386361Y11797208D02*
G01*
X14333906Y11783290D01*
X14298396Y11751078D01*
X14276553Y11693198D01*
X14265101Y11602274D01*
X14260765Y11470931D01*
X14260208Y11352628D01*
X14261791Y11187916D01*
X14268755Y11068774D01*
X14284425Y10987895D01*
X14312124Y10937974D01*
X14355177Y10911703D01*
X14416907Y10901776D01*
X14465844Y10900625D01*
X14549510Y10909678D01*
X14601818Y10941852D01*
X14615896Y10959429D01*
X14634334Y10998571D01*
X14646669Y11059765D01*
X14653855Y11152072D01*
X14656051Y11249350D01*
X14547337Y11249350D01*
X14546913Y11138195D01*
X14544401Y11056363D01*
X14539984Y11015340D01*
X14539707Y11014541D01*
X14504953Y10987137D01*
X14446407Y10981742D01*
X14388583Y10998762D01*
X14371333Y11011750D01*
X14358725Y11050037D01*
X14349132Y11128002D01*
X14342721Y11232483D01*
X14339661Y11350320D01*
X14340119Y11468349D01*
X14344261Y11573411D01*
X14352257Y11652342D01*
X14362703Y11689880D01*
X14403961Y11713324D01*
X14461517Y11716338D01*
X14538021Y11707605D01*
X14545491Y11378343D01*
X14547337Y11249350D01*
X14656051Y11249350D01*
X14656847Y11284554D01*
X14657083Y11350417D01*
X14655011Y11515304D01*
X14646678Y11634574D01*
X14628910Y11715440D01*
X14598530Y11765112D01*
X14552364Y11790800D01*
X14487238Y11799716D01*
X14459036Y11800209D01*
X14386361Y11797208D01*
G37*
X14386361Y11797208D02*
X14333906Y11783290D01*
X14298396Y11751078D01*
X14276553Y11693198D01*
X14265101Y11602274D01*
X14260765Y11470931D01*
X14260208Y11352628D01*
X14261791Y11187916D01*
X14268755Y11068774D01*
X14284425Y10987895D01*
X14312124Y10937974D01*
X14355177Y10911703D01*
X14416907Y10901776D01*
X14465844Y10900625D01*
X14549510Y10909678D01*
X14601818Y10941852D01*
X14615896Y10959429D01*
X14634334Y10998571D01*
X14646669Y11059765D01*
X14653855Y11152072D01*
X14656051Y11249350D01*
X14547337Y11249350D01*
X14546913Y11138195D01*
X14544401Y11056363D01*
X14539984Y11015340D01*
X14539707Y11014541D01*
X14504953Y10987137D01*
X14446407Y10981742D01*
X14388583Y10998762D01*
X14371333Y11011750D01*
X14358725Y11050037D01*
X14349132Y11128002D01*
X14342721Y11232483D01*
X14339661Y11350320D01*
X14340119Y11468349D01*
X14344261Y11573411D01*
X14352257Y11652342D01*
X14362703Y11689880D01*
X14403961Y11713324D01*
X14461517Y11716338D01*
X14538021Y11707605D01*
X14545491Y11378343D01*
X14547337Y11249350D01*
X14656051Y11249350D01*
X14656847Y11284554D01*
X14657083Y11350417D01*
X14655011Y11515304D01*
X14646678Y11634574D01*
X14628910Y11715440D01*
X14598530Y11765112D01*
X14552364Y11790800D01*
X14487238Y11799716D01*
X14459036Y11800209D01*
X14386361Y11797208D01*
G36*
X16454204Y11792843D02*
G01*
X16443744Y11766167D01*
X16436667Y11713311D01*
X16432379Y11627403D01*
X16430287Y11501576D01*
X16429792Y11350417D01*
X16430463Y11182725D01*
X16432856Y11061168D01*
X16437545Y10978974D01*
X16445101Y10929375D01*
X16456096Y10905601D01*
X16467803Y10900625D01*
X16498569Y10924996D01*
X16514105Y10986615D01*
X16525012Y11043809D01*
X16554137Y11070143D01*
X16618531Y11080558D01*
X16621615Y11080816D01*
X16686435Y11083285D01*
X16714250Y11066991D01*
X16720716Y11018364D01*
X16720833Y10994827D01*
X16726536Y10930334D01*
X16748905Y10903977D01*
X16773750Y10900625D01*
X16793030Y10902983D01*
X16806954Y10914982D01*
X16816392Y10944014D01*
X16822212Y10997467D01*
X16825285Y11082733D01*
X16826479Y11207200D01*
X16826667Y11350417D01*
X16826374Y11514345D01*
X16824927Y11632740D01*
X16821470Y11712988D01*
X16815148Y11762471D01*
X16805107Y11788574D01*
X16790492Y11798679D01*
X16774590Y11800209D01*
X16752299Y11796576D01*
X16737079Y11779792D01*
X16727237Y11741030D01*
X16721085Y11671462D01*
X16716931Y11562262D01*
X16715059Y11489323D01*
X16707604Y11178438D01*
X16522396Y11178438D01*
X16514942Y11489323D01*
X16510510Y11625668D01*
X16504175Y11716979D01*
X16494765Y11771131D01*
X16481107Y11796002D01*
X16468640Y11800209D01*
X16454204Y11792843D01*
G37*
X16454204Y11792843D02*
X16443744Y11766167D01*
X16436667Y11713311D01*
X16432379Y11627403D01*
X16430287Y11501576D01*
X16429792Y11350417D01*
X16430463Y11182725D01*
X16432856Y11061168D01*
X16437545Y10978974D01*
X16445101Y10929375D01*
X16456096Y10905601D01*
X16467803Y10900625D01*
X16498569Y10924996D01*
X16514105Y10986615D01*
X16525012Y11043809D01*
X16554137Y11070143D01*
X16618531Y11080558D01*
X16621615Y11080816D01*
X16686435Y11083285D01*
X16714250Y11066991D01*
X16720716Y11018364D01*
X16720833Y10994827D01*
X16726536Y10930334D01*
X16748905Y10903977D01*
X16773750Y10900625D01*
X16793030Y10902983D01*
X16806954Y10914982D01*
X16816392Y10944014D01*
X16822212Y10997467D01*
X16825285Y11082733D01*
X16826479Y11207200D01*
X16826667Y11350417D01*
X16826374Y11514345D01*
X16824927Y11632740D01*
X16821470Y11712988D01*
X16815148Y11762471D01*
X16805107Y11788574D01*
X16790492Y11798679D01*
X16774590Y11800209D01*
X16752299Y11796576D01*
X16737079Y11779792D01*
X16727237Y11741030D01*
X16721085Y11671462D01*
X16716931Y11562262D01*
X16715059Y11489323D01*
X16707604Y11178438D01*
X16522396Y11178438D01*
X16514942Y11489323D01*
X16510510Y11625668D01*
X16504175Y11716979D01*
X16494765Y11771131D01*
X16481107Y11796002D01*
X16468640Y11800209D01*
X16454204Y11792843D01*
G36*
X17067701Y11796155D02*
G01*
X17015849Y11781069D01*
X16987184Y11750568D01*
X16986348Y11749032D01*
X16962690Y11671215D01*
X16963099Y11588051D01*
X16986390Y11522683D01*
X16998646Y11509167D01*
X17026196Y11493828D01*
X17036960Y11517111D01*
X17038333Y11556680D01*
X17045739Y11648712D01*
X17073022Y11699507D01*
X17127785Y11719302D01*
X17160227Y11720834D01*
X17250000Y11720834D01*
X17250000Y11003265D01*
X17150781Y11011476D01*
X17087808Y11020101D01*
X17057857Y11042748D01*
X17046339Y11095521D01*
X17043539Y11129846D01*
X17029090Y11208168D01*
X17002708Y11251753D01*
X16997237Y11254693D01*
X16974657Y11252866D01*
X16962861Y11218865D01*
X16959023Y11143200D01*
X16958958Y11126191D01*
X16963048Y11036355D01*
X16978953Y10981953D01*
X17012126Y10945886D01*
X17017762Y10941813D01*
X17107344Y10907410D01*
X17211848Y10908633D01*
X17250000Y10918987D01*
X17291405Y10940342D01*
X17320600Y10975545D01*
X17339604Y11032962D01*
X17350440Y11120960D01*
X17355127Y11247906D01*
X17355833Y11357214D01*
X17353772Y11490367D01*
X17348145Y11607635D01*
X17339787Y11697071D01*
X17329533Y11746730D01*
X17328444Y11749032D01*
X17300377Y11780212D01*
X17249684Y11795808D01*
X17161711Y11800204D01*
X17157396Y11800209D01*
X17067701Y11796155D01*
G37*
X17067701Y11796155D02*
X17015849Y11781069D01*
X16987184Y11750568D01*
X16986348Y11749032D01*
X16962690Y11671215D01*
X16963099Y11588051D01*
X16986390Y11522683D01*
X16998646Y11509167D01*
X17026196Y11493828D01*
X17036960Y11517111D01*
X17038333Y11556680D01*
X17045739Y11648712D01*
X17073022Y11699507D01*
X17127785Y11719302D01*
X17160227Y11720834D01*
X17250000Y11720834D01*
X17250000Y11003265D01*
X17150781Y11011476D01*
X17087808Y11020101D01*
X17057857Y11042748D01*
X17046339Y11095521D01*
X17043539Y11129846D01*
X17029090Y11208168D01*
X17002708Y11251753D01*
X16997237Y11254693D01*
X16974657Y11252866D01*
X16962861Y11218865D01*
X16959023Y11143200D01*
X16958958Y11126191D01*
X16963048Y11036355D01*
X16978953Y10981953D01*
X17012126Y10945886D01*
X17017762Y10941813D01*
X17107344Y10907410D01*
X17211848Y10908633D01*
X17250000Y10918987D01*
X17291405Y10940342D01*
X17320600Y10975545D01*
X17339604Y11032962D01*
X17350440Y11120960D01*
X17355127Y11247906D01*
X17355833Y11357214D01*
X17353772Y11490367D01*
X17348145Y11607635D01*
X17339787Y11697071D01*
X17329533Y11746730D01*
X17328444Y11749032D01*
X17300377Y11780212D01*
X17249684Y11795808D01*
X17161711Y11800204D01*
X17157396Y11800209D01*
X17067701Y11796155D01*
G36*
X21206460Y11795215D02*
G01*
X21182088Y11774117D01*
X21158292Y11727740D01*
X21130114Y11646908D01*
X21100112Y11547969D01*
X21066380Y11439659D01*
X21035679Y11351629D01*
X21012259Y11295536D01*
X21003124Y11281824D01*
X20993755Y11300355D01*
X20986296Y11361392D01*
X20981675Y11454536D01*
X20980625Y11534064D01*
X20979326Y11657860D01*
X20974563Y11737468D01*
X20965044Y11781572D01*
X20949471Y11798857D01*
X20940938Y11800209D01*
X20926934Y11793641D01*
X20916585Y11769533D01*
X20909370Y11721274D01*
X20904766Y11642255D01*
X20902253Y11525867D01*
X20901307Y11365500D01*
X20901250Y11297500D01*
X20901749Y11140957D01*
X20903138Y11004299D01*
X20905255Y10895653D01*
X20907940Y10823145D01*
X20911030Y10794902D01*
X20911240Y10794792D01*
X20934110Y10812294D01*
X20953366Y10833515D01*
X20974632Y10873942D01*
X21006573Y10952389D01*
X21044308Y11056295D01*
X21071860Y11138387D01*
X21109000Y11249676D01*
X21141596Y11341552D01*
X21165518Y11402705D01*
X21175254Y11421574D01*
X21182731Y11404943D01*
X21188539Y11346141D01*
X21191841Y11255908D01*
X21192292Y11202441D01*
X21193644Y11087175D01*
X21199222Y11013163D01*
X21211313Y10968780D01*
X21232201Y10942400D01*
X21245208Y10933224D01*
X21264460Y10922834D01*
X21278365Y10923978D01*
X21287793Y10943505D01*
X21293614Y10988266D01*
X21296697Y11065111D01*
X21297911Y11180889D01*
X21298125Y11342452D01*
X21298125Y11800209D01*
X21236363Y11800209D01*
X21206460Y11795215D01*
G37*
X21206460Y11795215D02*
X21182088Y11774117D01*
X21158292Y11727740D01*
X21130114Y11646908D01*
X21100112Y11547969D01*
X21066380Y11439659D01*
X21035679Y11351629D01*
X21012259Y11295536D01*
X21003124Y11281824D01*
X20993755Y11300355D01*
X20986296Y11361392D01*
X20981675Y11454536D01*
X20980625Y11534064D01*
X20979326Y11657860D01*
X20974563Y11737468D01*
X20965044Y11781572D01*
X20949471Y11798857D01*
X20940938Y11800209D01*
X20926934Y11793641D01*
X20916585Y11769533D01*
X20909370Y11721274D01*
X20904766Y11642255D01*
X20902253Y11525867D01*
X20901307Y11365500D01*
X20901250Y11297500D01*
X20901749Y11140957D01*
X20903138Y11004299D01*
X20905255Y10895653D01*
X20907940Y10823145D01*
X20911030Y10794902D01*
X20911240Y10794792D01*
X20934110Y10812294D01*
X20953366Y10833515D01*
X20974632Y10873942D01*
X21006573Y10952389D01*
X21044308Y11056295D01*
X21071860Y11138387D01*
X21109000Y11249676D01*
X21141596Y11341552D01*
X21165518Y11402705D01*
X21175254Y11421574D01*
X21182731Y11404943D01*
X21188539Y11346141D01*
X21191841Y11255908D01*
X21192292Y11202441D01*
X21193644Y11087175D01*
X21199222Y11013163D01*
X21211313Y10968780D01*
X21232201Y10942400D01*
X21245208Y10933224D01*
X21264460Y10922834D01*
X21278365Y10923978D01*
X21287793Y10943505D01*
X21293614Y10988266D01*
X21296697Y11065111D01*
X21297911Y11180889D01*
X21298125Y11342452D01*
X21298125Y11800209D01*
X21236363Y11800209D01*
X21206460Y11795215D01*
G36*
X15100967Y11399885D02*
G01*
X15093646Y10993230D01*
X14950340Y10980000D01*
X14870335Y10970939D01*
X14835021Y10960437D01*
X14836238Y10944421D01*
X14851121Y10930459D01*
X14883839Y10878272D01*
X14895208Y10818011D01*
X14902390Y10763589D01*
X14935145Y10743890D01*
X14972826Y10741875D01*
X15030113Y10750423D01*
X15054117Y10786371D01*
X15058816Y10814636D01*
X15078085Y10871384D01*
X15120104Y10887396D01*
X15163391Y10869878D01*
X15181393Y10814636D01*
X15196584Y10761855D01*
X15237075Y10743232D01*
X15267383Y10741875D01*
X15319559Y10747220D01*
X15340958Y10773924D01*
X15345000Y10834480D01*
X15340058Y10897104D01*
X15317819Y10922741D01*
X15278854Y10927084D01*
X15226985Y10939486D01*
X15212708Y10980000D01*
X15228211Y11021496D01*
X15278854Y11032917D01*
X15326521Y11041739D01*
X15343626Y11078900D01*
X15345000Y11110452D01*
X15335055Y11169596D01*
X15297930Y11194169D01*
X15285469Y11196442D01*
X15235693Y11222726D01*
X15225938Y11257813D01*
X15247555Y11305129D01*
X15285469Y11319184D01*
X15329795Y11338433D01*
X15344614Y11388889D01*
X15345000Y11405174D01*
X15337474Y11461048D01*
X15305771Y11481098D01*
X15278854Y11482709D01*
X15226985Y11495111D01*
X15212708Y11535625D01*
X15228211Y11577121D01*
X15278854Y11588542D01*
X15323586Y11595461D01*
X15341898Y11626596D01*
X15345000Y11681146D01*
X15335356Y11751371D01*
X15308620Y11773750D01*
X15257703Y11778726D01*
X15190264Y11790146D01*
X15108288Y11806541D01*
X15100967Y11399885D01*
G37*
X15100967Y11399885D02*
X15093646Y10993230D01*
X14950340Y10980000D01*
X14870335Y10970939D01*
X14835021Y10960437D01*
X14836238Y10944421D01*
X14851121Y10930459D01*
X14883839Y10878272D01*
X14895208Y10818011D01*
X14902390Y10763589D01*
X14935145Y10743890D01*
X14972826Y10741875D01*
X15030113Y10750423D01*
X15054117Y10786371D01*
X15058816Y10814636D01*
X15078085Y10871384D01*
X15120104Y10887396D01*
X15163391Y10869878D01*
X15181393Y10814636D01*
X15196584Y10761855D01*
X15237075Y10743232D01*
X15267383Y10741875D01*
X15319559Y10747220D01*
X15340958Y10773924D01*
X15345000Y10834480D01*
X15340058Y10897104D01*
X15317819Y10922741D01*
X15278854Y10927084D01*
X15226985Y10939486D01*
X15212708Y10980000D01*
X15228211Y11021496D01*
X15278854Y11032917D01*
X15326521Y11041739D01*
X15343626Y11078900D01*
X15345000Y11110452D01*
X15335055Y11169596D01*
X15297930Y11194169D01*
X15285469Y11196442D01*
X15235693Y11222726D01*
X15225938Y11257813D01*
X15247555Y11305129D01*
X15285469Y11319184D01*
X15329795Y11338433D01*
X15344614Y11388889D01*
X15345000Y11405174D01*
X15337474Y11461048D01*
X15305771Y11481098D01*
X15278854Y11482709D01*
X15226985Y11495111D01*
X15212708Y11535625D01*
X15228211Y11577121D01*
X15278854Y11588542D01*
X15323586Y11595461D01*
X15341898Y11626596D01*
X15345000Y11681146D01*
X15335356Y11751371D01*
X15308620Y11773750D01*
X15257703Y11778726D01*
X15190264Y11790146D01*
X15108288Y11806541D01*
X15100967Y11399885D01*
G36*
X15515292Y11794410D02*
G01*
X15446450Y11777667D01*
X15413036Y11758631D01*
X15394518Y11713852D01*
X15380764Y11629417D01*
X15371803Y11517504D01*
X15367664Y11390295D01*
X15368375Y11259968D01*
X15373965Y11138703D01*
X15384462Y11038680D01*
X15399895Y10972080D01*
X15411146Y10953542D01*
X15438624Y10905704D01*
X15450799Y10834981D01*
X15450833Y10831240D01*
X15455150Y10771322D01*
X15478899Y10746747D01*
X15538280Y10741882D01*
X15543438Y10741875D01*
X15606216Y10746970D01*
X15631885Y10769268D01*
X15636042Y10805223D01*
X15653592Y10864210D01*
X15697272Y10932806D01*
X15712803Y10950744D01*
X15780293Y11007290D01*
X15841106Y11031701D01*
X15884715Y11022336D01*
X15900625Y10980000D01*
X15888152Y10941267D01*
X15841740Y10927630D01*
X15821250Y10927084D01*
X15767921Y10921922D01*
X15746048Y10895737D01*
X15741875Y10834480D01*
X15745971Y10772413D01*
X15769079Y10746960D01*
X15827431Y10741887D01*
X15834479Y10741875D01*
X15900517Y10749151D01*
X15925839Y10774358D01*
X15927083Y10786094D01*
X15943626Y10842341D01*
X15963198Y10872084D01*
X15988122Y10917020D01*
X16020338Y10996762D01*
X16053348Y11095029D01*
X16056988Y11107073D01*
X16098937Y11244551D01*
X15895309Y11244551D01*
X15863561Y11203317D01*
X15822081Y11191667D01*
X15780054Y11206757D01*
X15774466Y11231102D01*
X15658962Y11231102D01*
X15656580Y11120393D01*
X15652155Y11039780D01*
X15646091Y10999729D01*
X15644861Y10997639D01*
X15601727Y10981798D01*
X15542273Y10983121D01*
X15496439Y10999896D01*
X15490521Y11006459D01*
X15500860Y11025197D01*
X15552336Y11032904D01*
X15555105Y11032917D01*
X15612096Y11039210D01*
X15633401Y11068798D01*
X15636042Y11110616D01*
X15629114Y11165185D01*
X15597443Y11189138D01*
X15550052Y11196605D01*
X15487772Y11211128D01*
X15465043Y11244005D01*
X15464063Y11257813D01*
X15477903Y11297474D01*
X15527769Y11316269D01*
X15550052Y11319021D01*
X15609774Y11331117D01*
X15632909Y11361944D01*
X15636042Y11403334D01*
X15628844Y11456878D01*
X15596404Y11480448D01*
X15550269Y11487647D01*
X15479312Y11508464D01*
X15455725Y11542240D01*
X15460452Y11573996D01*
X15498931Y11587008D01*
X15539657Y11588542D01*
X15605546Y11595421D01*
X15636193Y11622382D01*
X15643828Y11648073D01*
X15648256Y11645831D01*
X15652437Y11598337D01*
X15655967Y11513258D01*
X15658444Y11398258D01*
X15658897Y11361441D01*
X15658962Y11231102D01*
X15774466Y11231102D01*
X15768333Y11257813D01*
X15781026Y11309988D01*
X15819689Y11323959D01*
X15870758Y11311195D01*
X15888179Y11296233D01*
X15895309Y11244551D01*
X16098937Y11244551D01*
X16100549Y11249832D01*
X16132419Y11343001D01*
X16154855Y11388038D01*
X16170112Y11386398D01*
X16180448Y11339537D01*
X16188118Y11248912D01*
X16191326Y11193774D01*
X16202473Y11054879D01*
X16217926Y10968087D01*
X16237629Y10933720D01*
X16237969Y10933601D01*
X16250705Y10941241D01*
X16259936Y10977629D01*
X16266101Y11048457D01*
X16269640Y11159419D01*
X16270993Y11316208D01*
X16271042Y11361441D01*
X16270683Y11523281D01*
X16269049Y11639650D01*
X16265302Y11717991D01*
X16258604Y11765750D01*
X16248117Y11790368D01*
X16233004Y11799292D01*
X16221665Y11800209D01*
X16195486Y11789909D01*
X16168735Y11753901D01*
X16137489Y11684521D01*
X16097822Y11574109D01*
X16082759Y11529011D01*
X15993229Y11257813D01*
X15985689Y11529011D01*
X15985404Y11535625D01*
X15900625Y11535625D01*
X15885122Y11494130D01*
X15834479Y11482709D01*
X15782610Y11495111D01*
X15768333Y11535625D01*
X15783836Y11577121D01*
X15834479Y11588542D01*
X15886348Y11576140D01*
X15900625Y11535625D01*
X15985404Y11535625D01*
X15980845Y11641424D01*
X15973719Y11730864D01*
X15965386Y11786332D01*
X15959231Y11799057D01*
X15923588Y11793703D01*
X15856614Y11781635D01*
X15827295Y11776047D01*
X15754749Y11767420D01*
X15707519Y11771966D01*
X15700056Y11777199D01*
X15662376Y11795487D01*
X15594027Y11800787D01*
X15515292Y11794410D01*
G37*
X15515292Y11794410D02*
X15446450Y11777667D01*
X15413036Y11758631D01*
X15394518Y11713852D01*
X15380764Y11629417D01*
X15371803Y11517504D01*
X15367664Y11390295D01*
X15368375Y11259968D01*
X15373965Y11138703D01*
X15384462Y11038680D01*
X15399895Y10972080D01*
X15411146Y10953542D01*
X15438624Y10905704D01*
X15450799Y10834981D01*
X15450833Y10831240D01*
X15455150Y10771322D01*
X15478899Y10746747D01*
X15538280Y10741882D01*
X15543438Y10741875D01*
X15606216Y10746970D01*
X15631885Y10769268D01*
X15636042Y10805223D01*
X15653592Y10864210D01*
X15697272Y10932806D01*
X15712803Y10950744D01*
X15780293Y11007290D01*
X15841106Y11031701D01*
X15884715Y11022336D01*
X15900625Y10980000D01*
X15888152Y10941267D01*
X15841740Y10927630D01*
X15821250Y10927084D01*
X15767921Y10921922D01*
X15746048Y10895737D01*
X15741875Y10834480D01*
X15745971Y10772413D01*
X15769079Y10746960D01*
X15827431Y10741887D01*
X15834479Y10741875D01*
X15900517Y10749151D01*
X15925839Y10774358D01*
X15927083Y10786094D01*
X15943626Y10842341D01*
X15963198Y10872084D01*
X15988122Y10917020D01*
X16020338Y10996762D01*
X16053348Y11095029D01*
X16056988Y11107073D01*
X16098937Y11244551D01*
X15895309Y11244551D01*
X15863561Y11203317D01*
X15822081Y11191667D01*
X15780054Y11206757D01*
X15774466Y11231102D01*
X15658962Y11231102D01*
X15656580Y11120393D01*
X15652155Y11039780D01*
X15646091Y10999729D01*
X15644861Y10997639D01*
X15601727Y10981798D01*
X15542273Y10983121D01*
X15496439Y10999896D01*
X15490521Y11006459D01*
X15500860Y11025197D01*
X15552336Y11032904D01*
X15555105Y11032917D01*
X15612096Y11039210D01*
X15633401Y11068798D01*
X15636042Y11110616D01*
X15629114Y11165185D01*
X15597443Y11189138D01*
X15550052Y11196605D01*
X15487772Y11211128D01*
X15465043Y11244005D01*
X15464063Y11257813D01*
X15477903Y11297474D01*
X15527769Y11316269D01*
X15550052Y11319021D01*
X15609774Y11331117D01*
X15632909Y11361944D01*
X15636042Y11403334D01*
X15628844Y11456878D01*
X15596404Y11480448D01*
X15550269Y11487647D01*
X15479312Y11508464D01*
X15455725Y11542240D01*
X15460452Y11573996D01*
X15498931Y11587008D01*
X15539657Y11588542D01*
X15605546Y11595421D01*
X15636193Y11622382D01*
X15643828Y11648073D01*
X15648256Y11645831D01*
X15652437Y11598337D01*
X15655967Y11513258D01*
X15658444Y11398258D01*
X15658897Y11361441D01*
X15658962Y11231102D01*
X15774466Y11231102D01*
X15768333Y11257813D01*
X15781026Y11309988D01*
X15819689Y11323959D01*
X15870758Y11311195D01*
X15888179Y11296233D01*
X15895309Y11244551D01*
X16098937Y11244551D01*
X16100549Y11249832D01*
X16132419Y11343001D01*
X16154855Y11388038D01*
X16170112Y11386398D01*
X16180448Y11339537D01*
X16188118Y11248912D01*
X16191326Y11193774D01*
X16202473Y11054879D01*
X16217926Y10968087D01*
X16237629Y10933720D01*
X16237969Y10933601D01*
X16250705Y10941241D01*
X16259936Y10977629D01*
X16266101Y11048457D01*
X16269640Y11159419D01*
X16270993Y11316208D01*
X16271042Y11361441D01*
X16270683Y11523281D01*
X16269049Y11639650D01*
X16265302Y11717991D01*
X16258604Y11765750D01*
X16248117Y11790368D01*
X16233004Y11799292D01*
X16221665Y11800209D01*
X16195486Y11789909D01*
X16168735Y11753901D01*
X16137489Y11684521D01*
X16097822Y11574109D01*
X16082759Y11529011D01*
X15993229Y11257813D01*
X15985689Y11529011D01*
X15985404Y11535625D01*
X15900625Y11535625D01*
X15885122Y11494130D01*
X15834479Y11482709D01*
X15782610Y11495111D01*
X15768333Y11535625D01*
X15783836Y11577121D01*
X15834479Y11588542D01*
X15886348Y11576140D01*
X15900625Y11535625D01*
X15985404Y11535625D01*
X15980845Y11641424D01*
X15973719Y11730864D01*
X15965386Y11786332D01*
X15959231Y11799057D01*
X15923588Y11793703D01*
X15856614Y11781635D01*
X15827295Y11776047D01*
X15754749Y11767420D01*
X15707519Y11771966D01*
X15700056Y11777199D01*
X15662376Y11795487D01*
X15594027Y11800787D01*
X15515292Y11794410D01*
G36*
X17684556Y11799230D02*
G01*
X17641817Y11793821D01*
X17634320Y11780280D01*
X17653232Y11754899D01*
X17656004Y11751823D01*
X17690880Y11690471D01*
X17699792Y11645990D01*
X17708653Y11606752D01*
X17745105Y11590789D01*
X17792396Y11588542D01*
X17854948Y11593408D01*
X17880569Y11615633D01*
X17885000Y11656249D01*
X17893399Y11701265D01*
X17911458Y11707605D01*
X17926176Y11674015D01*
X17935782Y11605105D01*
X17937917Y11547293D01*
X17933523Y11468089D01*
X17922199Y11415801D01*
X17911458Y11403334D01*
X17887985Y11424764D01*
X17885000Y11443021D01*
X17864225Y11472811D01*
X17798639Y11482697D01*
X17795291Y11482709D01*
X17734087Y11477512D01*
X17706413Y11451106D01*
X17694913Y11391332D01*
X17684246Y11299954D01*
X17804467Y11292113D01*
X17924688Y11284271D01*
X17940682Y11006459D01*
X17740862Y11006459D01*
X17635775Y11004404D01*
X17573939Y10996974D01*
X17545802Y10982271D01*
X17541042Y10966771D01*
X17518984Y10934450D01*
X17488125Y10927084D01*
X17451654Y10916725D01*
X17436938Y10876285D01*
X17435208Y10834480D01*
X17439633Y10772262D01*
X17462077Y10746744D01*
X17514583Y10741875D01*
X17570805Y10748432D01*
X17591527Y10779357D01*
X17593958Y10821250D01*
X17602274Y10879351D01*
X17633215Y10899807D01*
X17646875Y10900625D01*
X17685609Y10888152D01*
X17699246Y10841740D01*
X17699792Y10821250D01*
X17704954Y10767921D01*
X17731139Y10746048D01*
X17792396Y10741875D01*
X17854613Y10746300D01*
X17880132Y10768744D01*
X17885000Y10821250D01*
X17893316Y10879351D01*
X17924257Y10899807D01*
X17937917Y10900625D01*
X17976650Y10888152D01*
X17990288Y10841740D01*
X17990833Y10821250D01*
X17995853Y10768253D01*
X18021532Y10746266D01*
X18083803Y10741876D01*
X18085114Y10741875D01*
X18147495Y10745380D01*
X18171617Y10765635D01*
X18172096Y10817257D01*
X18171104Y10827865D01*
X18157286Y10889585D01*
X18122193Y10916295D01*
X18090052Y10922227D01*
X18032785Y10942035D01*
X18017292Y10981758D01*
X18030595Y11019418D01*
X18079043Y11032513D01*
X18096667Y11032917D01*
X18152932Y11039529D01*
X18173661Y11070323D01*
X18176042Y11110535D01*
X18167494Y11167822D01*
X18131546Y11191825D01*
X18103281Y11196524D01*
X18046534Y11215794D01*
X18030521Y11257813D01*
X18048039Y11301100D01*
X18103281Y11319102D01*
X18156062Y11334293D01*
X18174686Y11374783D01*
X18176042Y11405091D01*
X18169280Y11460111D01*
X18137789Y11480381D01*
X18096667Y11482709D01*
X18038567Y11491025D01*
X18018111Y11521966D01*
X18017292Y11535625D01*
X18029765Y11574359D01*
X18076177Y11587996D01*
X18096667Y11588542D01*
X18150731Y11594034D01*
X18172339Y11621369D01*
X18176042Y11677550D01*
X18172693Y11732043D01*
X18153294Y11760766D01*
X18103818Y11775811D01*
X18053287Y11783383D01*
X17954422Y11792997D01*
X17836558Y11799087D01*
X17771373Y11800209D01*
X17684556Y11799230D01*
G37*
X17684556Y11799230D02*
X17641817Y11793821D01*
X17634320Y11780280D01*
X17653232Y11754899D01*
X17656004Y11751823D01*
X17690880Y11690471D01*
X17699792Y11645990D01*
X17708653Y11606752D01*
X17745105Y11590789D01*
X17792396Y11588542D01*
X17854948Y11593408D01*
X17880569Y11615633D01*
X17885000Y11656249D01*
X17893399Y11701265D01*
X17911458Y11707605D01*
X17926176Y11674015D01*
X17935782Y11605105D01*
X17937917Y11547293D01*
X17933523Y11468089D01*
X17922199Y11415801D01*
X17911458Y11403334D01*
X17887985Y11424764D01*
X17885000Y11443021D01*
X17864225Y11472811D01*
X17798639Y11482697D01*
X17795291Y11482709D01*
X17734087Y11477512D01*
X17706413Y11451106D01*
X17694913Y11391332D01*
X17684246Y11299954D01*
X17804467Y11292113D01*
X17924688Y11284271D01*
X17940682Y11006459D01*
X17740862Y11006459D01*
X17635775Y11004404D01*
X17573939Y10996974D01*
X17545802Y10982271D01*
X17541042Y10966771D01*
X17518984Y10934450D01*
X17488125Y10927084D01*
X17451654Y10916725D01*
X17436938Y10876285D01*
X17435208Y10834480D01*
X17439633Y10772262D01*
X17462077Y10746744D01*
X17514583Y10741875D01*
X17570805Y10748432D01*
X17591527Y10779357D01*
X17593958Y10821250D01*
X17602274Y10879351D01*
X17633215Y10899807D01*
X17646875Y10900625D01*
X17685609Y10888152D01*
X17699246Y10841740D01*
X17699792Y10821250D01*
X17704954Y10767921D01*
X17731139Y10746048D01*
X17792396Y10741875D01*
X17854613Y10746300D01*
X17880132Y10768744D01*
X17885000Y10821250D01*
X17893316Y10879351D01*
X17924257Y10899807D01*
X17937917Y10900625D01*
X17976650Y10888152D01*
X17990288Y10841740D01*
X17990833Y10821250D01*
X17995853Y10768253D01*
X18021532Y10746266D01*
X18083803Y10741876D01*
X18085114Y10741875D01*
X18147495Y10745380D01*
X18171617Y10765635D01*
X18172096Y10817257D01*
X18171104Y10827865D01*
X18157286Y10889585D01*
X18122193Y10916295D01*
X18090052Y10922227D01*
X18032785Y10942035D01*
X18017292Y10981758D01*
X18030595Y11019418D01*
X18079043Y11032513D01*
X18096667Y11032917D01*
X18152932Y11039529D01*
X18173661Y11070323D01*
X18176042Y11110535D01*
X18167494Y11167822D01*
X18131546Y11191825D01*
X18103281Y11196524D01*
X18046534Y11215794D01*
X18030521Y11257813D01*
X18048039Y11301100D01*
X18103281Y11319102D01*
X18156062Y11334293D01*
X18174686Y11374783D01*
X18176042Y11405091D01*
X18169280Y11460111D01*
X18137789Y11480381D01*
X18096667Y11482709D01*
X18038567Y11491025D01*
X18018111Y11521966D01*
X18017292Y11535625D01*
X18029765Y11574359D01*
X18076177Y11587996D01*
X18096667Y11588542D01*
X18150731Y11594034D01*
X18172339Y11621369D01*
X18176042Y11677550D01*
X18172693Y11732043D01*
X18153294Y11760766D01*
X18103818Y11775811D01*
X18053287Y11783383D01*
X17954422Y11792997D01*
X17836558Y11799087D01*
X17771373Y11800209D01*
X17684556Y11799230D01*
G36*
X18316887Y11799242D02*
G01*
X18263812Y11794273D01*
X18244380Y11782194D01*
X18248954Y11759900D01*
X18254486Y11749032D01*
X18277556Y11680638D01*
X18281875Y11643198D01*
X18299705Y11597810D01*
X18334792Y11588542D01*
X18379012Y11569833D01*
X18387708Y11535625D01*
X18369000Y11491405D01*
X18334792Y11482709D01*
X18295459Y11469618D01*
X18282199Y11421598D01*
X18281875Y11406420D01*
X18295704Y11342457D01*
X18334792Y11316293D01*
X18377835Y11286284D01*
X18387708Y11257813D01*
X18365480Y11215688D01*
X18334792Y11199333D01*
X18292934Y11168451D01*
X18281875Y11109206D01*
X18290956Y11052500D01*
X18324263Y11033384D01*
X18334792Y11032917D01*
X18379012Y11014208D01*
X18387708Y10980000D01*
X18369000Y10935780D01*
X18334792Y10927084D01*
X18298321Y10916725D01*
X18283605Y10876285D01*
X18281875Y10834480D01*
X18286300Y10772262D01*
X18308744Y10746744D01*
X18361250Y10741875D01*
X18418204Y10743813D01*
X18443918Y10748472D01*
X18443927Y10748490D01*
X18445856Y10775734D01*
X18449197Y10847369D01*
X18453600Y10954895D01*
X18458716Y11089817D01*
X18463771Y11231355D01*
X18469857Y11400569D01*
X18475372Y11524217D01*
X18481467Y11609623D01*
X18489291Y11664109D01*
X18499993Y11694999D01*
X18514722Y11709616D01*
X18534628Y11715283D01*
X18539844Y11716059D01*
X18586388Y11736989D01*
X18599375Y11762362D01*
X18586865Y11783123D01*
X18543306Y11795001D01*
X18459658Y11799836D01*
X18413236Y11800209D01*
X18316887Y11799242D01*
G37*
X18316887Y11799242D02*
X18263812Y11794273D01*
X18244380Y11782194D01*
X18248954Y11759900D01*
X18254486Y11749032D01*
X18277556Y11680638D01*
X18281875Y11643198D01*
X18299705Y11597810D01*
X18334792Y11588542D01*
X18379012Y11569833D01*
X18387708Y11535625D01*
X18369000Y11491405D01*
X18334792Y11482709D01*
X18295459Y11469618D01*
X18282199Y11421598D01*
X18281875Y11406420D01*
X18295704Y11342457D01*
X18334792Y11316293D01*
X18377835Y11286284D01*
X18387708Y11257813D01*
X18365480Y11215688D01*
X18334792Y11199333D01*
X18292934Y11168451D01*
X18281875Y11109206D01*
X18290956Y11052500D01*
X18324263Y11033384D01*
X18334792Y11032917D01*
X18379012Y11014208D01*
X18387708Y10980000D01*
X18369000Y10935780D01*
X18334792Y10927084D01*
X18298321Y10916725D01*
X18283605Y10876285D01*
X18281875Y10834480D01*
X18286300Y10772262D01*
X18308744Y10746744D01*
X18361250Y10741875D01*
X18418204Y10743813D01*
X18443918Y10748472D01*
X18443927Y10748490D01*
X18445856Y10775734D01*
X18449197Y10847369D01*
X18453600Y10954895D01*
X18458716Y11089817D01*
X18463771Y11231355D01*
X18469857Y11400569D01*
X18475372Y11524217D01*
X18481467Y11609623D01*
X18489291Y11664109D01*
X18499993Y11694999D01*
X18514722Y11709616D01*
X18534628Y11715283D01*
X18539844Y11716059D01*
X18586388Y11736989D01*
X18599375Y11762362D01*
X18586865Y11783123D01*
X18543306Y11795001D01*
X18459658Y11799836D01*
X18413236Y11800209D01*
X18316887Y11799242D01*
G36*
X19736671Y10921922D02*
G01*
X19714798Y10895737D01*
X19710625Y10834480D01*
X19715050Y10772262D01*
X19737494Y10746744D01*
X19790000Y10741875D01*
X19843329Y10747038D01*
X19865203Y10773222D01*
X19869375Y10834480D01*
X19864950Y10896697D01*
X19842507Y10922216D01*
X19790000Y10927084D01*
X19736671Y10921922D01*
G37*
X19736671Y10921922D02*
X19714798Y10895737D01*
X19710625Y10834480D01*
X19715050Y10772262D01*
X19737494Y10746744D01*
X19790000Y10741875D01*
X19843329Y10747038D01*
X19865203Y10773222D01*
X19869375Y10834480D01*
X19864950Y10896697D01*
X19842507Y10922216D01*
X19790000Y10927084D01*
X19736671Y10921922D01*
G36*
X20012160Y10907153D02*
G01*
X19987823Y10876114D01*
X19980147Y10827865D01*
X19978394Y10770996D01*
X19997884Y10747098D01*
X20053144Y10741919D01*
X20067813Y10741875D01*
X20130951Y10745219D01*
X20155736Y10764749D01*
X20156697Y10814716D01*
X20155479Y10827865D01*
X20143547Y10887456D01*
X20112666Y10910578D01*
X20067813Y10913855D01*
X20012160Y10907153D01*
G37*
X20012160Y10907153D02*
X19987823Y10876114D01*
X19980147Y10827865D01*
X19978394Y10770996D01*
X19997884Y10747098D01*
X20053144Y10741919D01*
X20067813Y10741875D01*
X20130951Y10745219D01*
X20155736Y10764749D01*
X20156697Y10814716D01*
X20155479Y10827865D01*
X20143547Y10887456D01*
X20112666Y10910578D01*
X20067813Y10913855D01*
X20012160Y10907153D01*
G36*
X20411560Y11797995D02*
G01*
X20333562Y11788492D01*
X20289609Y11767406D01*
X20270308Y11730448D01*
X20266250Y11678316D01*
X20271099Y11617311D01*
X20294968Y11592794D01*
X20343785Y11588542D01*
X20402929Y11598488D01*
X20427502Y11635612D01*
X20429775Y11648073D01*
X20459904Y11701563D01*
X20497761Y11716059D01*
X20542227Y11712511D01*
X20556758Y11674754D01*
X20557292Y11656528D01*
X20570776Y11601953D01*
X20596979Y11588542D01*
X20629301Y11566484D01*
X20636667Y11535625D01*
X20621416Y11492712D01*
X20600065Y11482709D01*
X20564527Y11460541D01*
X20549626Y11429792D01*
X20519617Y11386749D01*
X20491146Y11376875D01*
X20449021Y11399104D01*
X20432666Y11429792D01*
X20401784Y11471650D01*
X20342539Y11482709D01*
X20287754Y11475397D01*
X20268138Y11442219D01*
X20266250Y11406165D01*
X20273775Y11352813D01*
X20302783Y11320023D01*
X20362924Y11303176D01*
X20463846Y11297654D01*
X20493310Y11297500D01*
X20579859Y11293973D01*
X20624193Y11281439D01*
X20636667Y11256983D01*
X20615261Y11212835D01*
X20596979Y11201235D01*
X20565384Y11165496D01*
X20557214Y11107884D01*
X20571562Y11052608D01*
X20603594Y11024697D01*
X20601531Y11018816D01*
X20555684Y11013698D01*
X20475187Y11010198D01*
X20441537Y11009528D01*
X20233177Y11006459D01*
X20249714Y10923777D01*
X20261681Y10848481D01*
X20266250Y10791485D01*
X20280765Y10754421D01*
X20332157Y10742063D01*
X20343868Y10741875D01*
X20401155Y10750423D01*
X20425158Y10786371D01*
X20429857Y10814636D01*
X20451781Y10874464D01*
X20497761Y10895851D01*
X20539698Y10893762D01*
X20555549Y10861487D01*
X20557292Y10823091D01*
X20563478Y10766011D01*
X20592970Y10744612D01*
X20636667Y10741875D01*
X20716042Y10741875D01*
X20716042Y11800209D01*
X20532997Y11800209D01*
X20411560Y11797995D01*
G37*
X20411560Y11797995D02*
X20333562Y11788492D01*
X20289609Y11767406D01*
X20270308Y11730448D01*
X20266250Y11678316D01*
X20271099Y11617311D01*
X20294968Y11592794D01*
X20343785Y11588542D01*
X20402929Y11598488D01*
X20427502Y11635612D01*
X20429775Y11648073D01*
X20459904Y11701563D01*
X20497761Y11716059D01*
X20542227Y11712511D01*
X20556758Y11674754D01*
X20557292Y11656528D01*
X20570776Y11601953D01*
X20596979Y11588542D01*
X20629301Y11566484D01*
X20636667Y11535625D01*
X20621416Y11492712D01*
X20600065Y11482709D01*
X20564527Y11460541D01*
X20549626Y11429792D01*
X20519617Y11386749D01*
X20491146Y11376875D01*
X20449021Y11399104D01*
X20432666Y11429792D01*
X20401784Y11471650D01*
X20342539Y11482709D01*
X20287754Y11475397D01*
X20268138Y11442219D01*
X20266250Y11406165D01*
X20273775Y11352813D01*
X20302783Y11320023D01*
X20362924Y11303176D01*
X20463846Y11297654D01*
X20493310Y11297500D01*
X20579859Y11293973D01*
X20624193Y11281439D01*
X20636667Y11256983D01*
X20615261Y11212835D01*
X20596979Y11201235D01*
X20565384Y11165496D01*
X20557214Y11107884D01*
X20571562Y11052608D01*
X20603594Y11024697D01*
X20601531Y11018816D01*
X20555684Y11013698D01*
X20475187Y11010198D01*
X20441537Y11009528D01*
X20233177Y11006459D01*
X20249714Y10923777D01*
X20261681Y10848481D01*
X20266250Y10791485D01*
X20280765Y10754421D01*
X20332157Y10742063D01*
X20343868Y10741875D01*
X20401155Y10750423D01*
X20425158Y10786371D01*
X20429857Y10814636D01*
X20451781Y10874464D01*
X20497761Y10895851D01*
X20539698Y10893762D01*
X20555549Y10861487D01*
X20557292Y10823091D01*
X20563478Y10766011D01*
X20592970Y10744612D01*
X20636667Y10741875D01*
X20716042Y10741875D01*
X20716042Y11800209D01*
X20532997Y11800209D01*
X20411560Y11797995D01*
G36*
X14921254Y10630880D02*
G01*
X14899381Y10604695D01*
X14895208Y10543438D01*
X14899633Y10481221D01*
X14922077Y10455702D01*
X14974583Y10450834D01*
X15027913Y10455996D01*
X15049786Y10482181D01*
X15053958Y10543438D01*
X15049534Y10605655D01*
X15027090Y10631174D01*
X14974583Y10636042D01*
X14921254Y10630880D01*
G37*
X14921254Y10630880D02*
X14899381Y10604695D01*
X14895208Y10543438D01*
X14899633Y10481221D01*
X14922077Y10455702D01*
X14974583Y10450834D01*
X15027913Y10455996D01*
X15049786Y10482181D01*
X15053958Y10543438D01*
X15049534Y10605655D01*
X15027090Y10631174D01*
X14974583Y10636042D01*
X14921254Y10630880D01*
G36*
X15212296Y10630880D02*
G01*
X15190423Y10604695D01*
X15186250Y10543438D01*
X15190675Y10481221D01*
X15213119Y10455702D01*
X15265625Y10450834D01*
X15318954Y10455996D01*
X15340828Y10482181D01*
X15345000Y10543438D01*
X15340575Y10605655D01*
X15318132Y10631174D01*
X15265625Y10636042D01*
X15212296Y10630880D01*
G37*
X15212296Y10630880D02*
X15190423Y10604695D01*
X15186250Y10543438D01*
X15190675Y10481221D01*
X15213119Y10455702D01*
X15265625Y10450834D01*
X15318954Y10455996D01*
X15340828Y10482181D01*
X15345000Y10543438D01*
X15340575Y10605655D01*
X15318132Y10631174D01*
X15265625Y10636042D01*
X15212296Y10630880D01*
G36*
X15481371Y10631946D02*
G01*
X15455918Y10608838D01*
X15450845Y10550487D01*
X15450833Y10543438D01*
X15454929Y10481372D01*
X15478037Y10455918D01*
X15536389Y10450845D01*
X15543438Y10450834D01*
X15605504Y10454930D01*
X15630958Y10478038D01*
X15636030Y10536389D01*
X15636042Y10543438D01*
X15631946Y10605504D01*
X15608838Y10630958D01*
X15550486Y10636031D01*
X15543438Y10636042D01*
X15481371Y10631946D01*
G37*
X15481371Y10631946D02*
X15455918Y10608838D01*
X15450845Y10550487D01*
X15450833Y10543438D01*
X15454929Y10481372D01*
X15478037Y10455918D01*
X15536389Y10450845D01*
X15543438Y10450834D01*
X15605504Y10454930D01*
X15630958Y10478038D01*
X15636030Y10536389D01*
X15636042Y10543438D01*
X15631946Y10605504D01*
X15608838Y10630958D01*
X15550486Y10636031D01*
X15543438Y10636042D01*
X15481371Y10631946D01*
G36*
X15772413Y10631946D02*
G01*
X15746959Y10608838D01*
X15741887Y10550487D01*
X15741875Y10543438D01*
X15745971Y10481372D01*
X15769079Y10455918D01*
X15827431Y10450845D01*
X15834479Y10450834D01*
X15896546Y10454930D01*
X15921999Y10478038D01*
X15927072Y10536389D01*
X15927083Y10543438D01*
X15922988Y10605504D01*
X15899880Y10630958D01*
X15841528Y10636031D01*
X15834479Y10636042D01*
X15772413Y10631946D01*
G37*
X15772413Y10631946D02*
X15746959Y10608838D01*
X15741887Y10550487D01*
X15741875Y10543438D01*
X15745971Y10481372D01*
X15769079Y10455918D01*
X15827431Y10450845D01*
X15834479Y10450834D01*
X15896546Y10454930D01*
X15921999Y10478038D01*
X15927072Y10536389D01*
X15927083Y10543438D01*
X15922988Y10605504D01*
X15899880Y10630958D01*
X15841528Y10636031D01*
X15834479Y10636042D01*
X15772413Y10631946D01*
G36*
X17461254Y10630880D02*
G01*
X17439381Y10604695D01*
X17435208Y10543438D01*
X17439633Y10481221D01*
X17462077Y10455702D01*
X17514583Y10450834D01*
X17567913Y10455996D01*
X17589786Y10482181D01*
X17593958Y10543438D01*
X17589534Y10605655D01*
X17567090Y10631174D01*
X17514583Y10636042D01*
X17461254Y10630880D01*
G37*
X17461254Y10630880D02*
X17439381Y10604695D01*
X17435208Y10543438D01*
X17439633Y10481221D01*
X17462077Y10455702D01*
X17514583Y10450834D01*
X17567913Y10455996D01*
X17589786Y10482181D01*
X17593958Y10543438D01*
X17589534Y10605655D01*
X17567090Y10631174D01*
X17514583Y10636042D01*
X17461254Y10630880D01*
G36*
X17730330Y10631946D02*
G01*
X17704876Y10608838D01*
X17699803Y10550487D01*
X17699792Y10543438D01*
X17703888Y10481372D01*
X17726996Y10455918D01*
X17785347Y10450845D01*
X17792396Y10450834D01*
X17854462Y10454930D01*
X17879916Y10478038D01*
X17884989Y10536389D01*
X17885000Y10543438D01*
X17880904Y10605504D01*
X17857796Y10630958D01*
X17799445Y10636031D01*
X17792396Y10636042D01*
X17730330Y10631946D01*
G37*
X17730330Y10631946D02*
X17704876Y10608838D01*
X17699803Y10550487D01*
X17699792Y10543438D01*
X17703888Y10481372D01*
X17726996Y10455918D01*
X17785347Y10450845D01*
X17792396Y10450834D01*
X17854462Y10454930D01*
X17879916Y10478038D01*
X17884989Y10536389D01*
X17885000Y10543438D01*
X17880904Y10605504D01*
X17857796Y10630958D01*
X17799445Y10636031D01*
X17792396Y10636042D01*
X17730330Y10631946D01*
G36*
X18021371Y10631946D02*
G01*
X17995918Y10608838D01*
X17990845Y10550487D01*
X17990833Y10543438D01*
X17994929Y10481372D01*
X18018037Y10455918D01*
X18076389Y10450845D01*
X18083438Y10450834D01*
X18145504Y10454930D01*
X18170958Y10478038D01*
X18176030Y10536389D01*
X18176042Y10543438D01*
X18171946Y10605504D01*
X18148838Y10630958D01*
X18090486Y10636031D01*
X18083438Y10636042D01*
X18021371Y10631946D01*
G37*
X18021371Y10631946D02*
X17995918Y10608838D01*
X17990845Y10550487D01*
X17990833Y10543438D01*
X17994929Y10481372D01*
X18018037Y10455918D01*
X18076389Y10450845D01*
X18083438Y10450834D01*
X18145504Y10454930D01*
X18170958Y10478038D01*
X18176030Y10536389D01*
X18176042Y10543438D01*
X18171946Y10605504D01*
X18148838Y10630958D01*
X18090486Y10636031D01*
X18083438Y10636042D01*
X18021371Y10631946D01*
G36*
X18307921Y10630880D02*
G01*
X18286048Y10604695D01*
X18281875Y10543438D01*
X18286300Y10481221D01*
X18308744Y10455702D01*
X18361250Y10450834D01*
X18414579Y10455996D01*
X18436453Y10482181D01*
X18440625Y10543438D01*
X18436200Y10605655D01*
X18413757Y10631174D01*
X18361250Y10636042D01*
X18307921Y10630880D01*
G37*
X18307921Y10630880D02*
X18286048Y10604695D01*
X18281875Y10543438D01*
X18286300Y10481221D01*
X18308744Y10455702D01*
X18361250Y10450834D01*
X18414579Y10455996D01*
X18436453Y10482181D01*
X18440625Y10543438D01*
X18436200Y10605655D01*
X18413757Y10631174D01*
X18361250Y10636042D01*
X18307921Y10630880D01*
G36*
X19736671Y10630880D02*
G01*
X19714798Y10604695D01*
X19710625Y10543438D01*
X19715050Y10481221D01*
X19737494Y10455702D01*
X19790000Y10450834D01*
X19843329Y10455996D01*
X19865203Y10482181D01*
X19869375Y10543438D01*
X19864950Y10605655D01*
X19842507Y10631174D01*
X19790000Y10636042D01*
X19736671Y10630880D01*
G37*
X19736671Y10630880D02*
X19714798Y10604695D01*
X19710625Y10543438D01*
X19715050Y10481221D01*
X19737494Y10455702D01*
X19790000Y10450834D01*
X19843329Y10455996D01*
X19865203Y10482181D01*
X19869375Y10543438D01*
X19864950Y10605655D01*
X19842507Y10631174D01*
X19790000Y10636042D01*
X19736671Y10630880D01*
G36*
X20005746Y10631946D02*
G01*
X19980293Y10608838D01*
X19975220Y10550487D01*
X19975208Y10543438D01*
X19979304Y10481372D01*
X20002412Y10455918D01*
X20060764Y10450845D01*
X20067813Y10450834D01*
X20129879Y10454930D01*
X20155333Y10478038D01*
X20160405Y10536389D01*
X20160417Y10543438D01*
X20156321Y10605504D01*
X20133213Y10630958D01*
X20074861Y10636031D01*
X20067813Y10636042D01*
X20005746Y10631946D01*
G37*
X20005746Y10631946D02*
X19980293Y10608838D01*
X19975220Y10550487D01*
X19975208Y10543438D01*
X19979304Y10481372D01*
X20002412Y10455918D01*
X20060764Y10450845D01*
X20067813Y10450834D01*
X20129879Y10454930D01*
X20155333Y10478038D01*
X20160405Y10536389D01*
X20160417Y10543438D01*
X20156321Y10605504D01*
X20133213Y10630958D01*
X20074861Y10636031D01*
X20067813Y10636042D01*
X20005746Y10631946D01*
G36*
X20292296Y10630880D02*
G01*
X20270423Y10604695D01*
X20266250Y10543438D01*
X20270675Y10481221D01*
X20293119Y10455702D01*
X20345625Y10450834D01*
X20398954Y10455996D01*
X20420828Y10482181D01*
X20425000Y10543438D01*
X20420575Y10605655D01*
X20398132Y10631174D01*
X20345625Y10636042D01*
X20292296Y10630880D01*
G37*
X20292296Y10630880D02*
X20270423Y10604695D01*
X20266250Y10543438D01*
X20270675Y10481221D01*
X20293119Y10455702D01*
X20345625Y10450834D01*
X20398954Y10455996D01*
X20420828Y10482181D01*
X20425000Y10543438D01*
X20420575Y10605655D01*
X20398132Y10631174D01*
X20345625Y10636042D01*
X20292296Y10630880D01*
G36*
X20583338Y10630880D02*
G01*
X20561464Y10604695D01*
X20557292Y10543438D01*
X20561717Y10481221D01*
X20584160Y10455702D01*
X20636667Y10450834D01*
X20689996Y10455996D01*
X20711869Y10482181D01*
X20716042Y10543438D01*
X20711617Y10605655D01*
X20689173Y10631174D01*
X20636667Y10636042D01*
X20583338Y10630880D01*
G37*
X20583338Y10630880D02*
X20561464Y10604695D01*
X20557292Y10543438D01*
X20561717Y10481221D01*
X20584160Y10455702D01*
X20636667Y10450834D01*
X20689996Y10455996D01*
X20711869Y10482181D01*
X20716042Y10543438D01*
X20711617Y10605655D01*
X20689173Y10631174D01*
X20636667Y10636042D01*
X20583338Y10630880D01*
G36*
X14918362Y10338444D02*
G01*
X14897640Y10307519D01*
X14895208Y10265625D01*
X14901765Y10209404D01*
X14932690Y10188682D01*
X14974583Y10186250D01*
X15030805Y10192807D01*
X15051527Y10223732D01*
X15053958Y10265625D01*
X15047402Y10321847D01*
X15016477Y10342569D01*
X14974583Y10345000D01*
X14918362Y10338444D01*
G37*
X14918362Y10338444D02*
X14897640Y10307519D01*
X14895208Y10265625D01*
X14901765Y10209404D01*
X14932690Y10188682D01*
X14974583Y10186250D01*
X15030805Y10192807D01*
X15051527Y10223732D01*
X15053958Y10265625D01*
X15047402Y10321847D01*
X15016477Y10342569D01*
X14974583Y10345000D01*
X14918362Y10338444D01*
G36*
X15209404Y10338444D02*
G01*
X15188682Y10307519D01*
X15186250Y10265625D01*
X15192806Y10209404D01*
X15223731Y10188682D01*
X15265625Y10186250D01*
X15321846Y10192807D01*
X15342568Y10223732D01*
X15345000Y10265625D01*
X15338444Y10321847D01*
X15307519Y10342569D01*
X15265625Y10345000D01*
X15209404Y10338444D01*
G37*
X15209404Y10338444D02*
X15188682Y10307519D01*
X15186250Y10265625D01*
X15192806Y10209404D01*
X15223731Y10188682D01*
X15265625Y10186250D01*
X15321846Y10192807D01*
X15342568Y10223732D01*
X15345000Y10265625D01*
X15338444Y10321847D01*
X15307519Y10342569D01*
X15265625Y10345000D01*
X15209404Y10338444D01*
G36*
X15481220Y10340576D02*
G01*
X15455702Y10318132D01*
X15450833Y10265625D01*
X15455996Y10212296D01*
X15482180Y10190423D01*
X15543438Y10186250D01*
X15605655Y10190675D01*
X15631174Y10213119D01*
X15636042Y10265625D01*
X15630880Y10318955D01*
X15604695Y10340828D01*
X15543438Y10345000D01*
X15481220Y10340576D01*
G37*
X15481220Y10340576D02*
X15455702Y10318132D01*
X15450833Y10265625D01*
X15455996Y10212296D01*
X15482180Y10190423D01*
X15543438Y10186250D01*
X15605655Y10190675D01*
X15631174Y10213119D01*
X15636042Y10265625D01*
X15630880Y10318955D01*
X15604695Y10340828D01*
X15543438Y10345000D01*
X15481220Y10340576D01*
G36*
X15772262Y10340576D02*
G01*
X15746743Y10318132D01*
X15741875Y10265625D01*
X15747037Y10212296D01*
X15773222Y10190423D01*
X15834479Y10186250D01*
X15896697Y10190675D01*
X15922215Y10213119D01*
X15927083Y10265625D01*
X15921921Y10318955D01*
X15895737Y10340828D01*
X15834479Y10345000D01*
X15772262Y10340576D01*
G37*
X15772262Y10340576D02*
X15746743Y10318132D01*
X15741875Y10265625D01*
X15747037Y10212296D01*
X15773222Y10190423D01*
X15834479Y10186250D01*
X15896697Y10190675D01*
X15922215Y10213119D01*
X15927083Y10265625D01*
X15921921Y10318955D01*
X15895737Y10340828D01*
X15834479Y10345000D01*
X15772262Y10340576D01*
G36*
X17458362Y10338444D02*
G01*
X17437640Y10307519D01*
X17435208Y10265625D01*
X17441765Y10209404D01*
X17472690Y10188682D01*
X17514583Y10186250D01*
X17570805Y10192807D01*
X17591527Y10223732D01*
X17593958Y10265625D01*
X17587402Y10321847D01*
X17556477Y10342569D01*
X17514583Y10345000D01*
X17458362Y10338444D01*
G37*
X17458362Y10338444D02*
X17437640Y10307519D01*
X17435208Y10265625D01*
X17441765Y10209404D01*
X17472690Y10188682D01*
X17514583Y10186250D01*
X17570805Y10192807D01*
X17591527Y10223732D01*
X17593958Y10265625D01*
X17587402Y10321847D01*
X17556477Y10342569D01*
X17514583Y10345000D01*
X17458362Y10338444D01*
G36*
X17730179Y10340576D02*
G01*
X17704660Y10318132D01*
X17699792Y10265625D01*
X17704954Y10212296D01*
X17731139Y10190423D01*
X17792396Y10186250D01*
X17854613Y10190675D01*
X17880132Y10213119D01*
X17885000Y10265625D01*
X17879838Y10318955D01*
X17853653Y10340828D01*
X17792396Y10345000D01*
X17730179Y10340576D01*
G37*
X17730179Y10340576D02*
X17704660Y10318132D01*
X17699792Y10265625D01*
X17704954Y10212296D01*
X17731139Y10190423D01*
X17792396Y10186250D01*
X17854613Y10190675D01*
X17880132Y10213119D01*
X17885000Y10265625D01*
X17879838Y10318955D01*
X17853653Y10340828D01*
X17792396Y10345000D01*
X17730179Y10340576D01*
G36*
X18021220Y10340576D02*
G01*
X17995702Y10318132D01*
X17990833Y10265625D01*
X17995996Y10212296D01*
X18022180Y10190423D01*
X18083438Y10186250D01*
X18145655Y10190675D01*
X18171174Y10213119D01*
X18176042Y10265625D01*
X18170880Y10318955D01*
X18144695Y10340828D01*
X18083438Y10345000D01*
X18021220Y10340576D01*
G37*
X18021220Y10340576D02*
X17995702Y10318132D01*
X17990833Y10265625D01*
X17995996Y10212296D01*
X18022180Y10190423D01*
X18083438Y10186250D01*
X18145655Y10190675D01*
X18171174Y10213119D01*
X18176042Y10265625D01*
X18170880Y10318955D01*
X18144695Y10340828D01*
X18083438Y10345000D01*
X18021220Y10340576D01*
G36*
X18305029Y10338444D02*
G01*
X18284307Y10307519D01*
X18281875Y10265625D01*
X18288431Y10209404D01*
X18319356Y10188682D01*
X18361250Y10186250D01*
X18417471Y10192807D01*
X18438193Y10223732D01*
X18440625Y10265625D01*
X18434069Y10321847D01*
X18403144Y10342569D01*
X18361250Y10345000D01*
X18305029Y10338444D01*
G37*
X18305029Y10338444D02*
X18284307Y10307519D01*
X18281875Y10265625D01*
X18288431Y10209404D01*
X18319356Y10188682D01*
X18361250Y10186250D01*
X18417471Y10192807D01*
X18438193Y10223732D01*
X18440625Y10265625D01*
X18434069Y10321847D01*
X18403144Y10342569D01*
X18361250Y10345000D01*
X18305029Y10338444D01*
G36*
X19733779Y10338444D02*
G01*
X19713057Y10307519D01*
X19710625Y10265625D01*
X19717181Y10209404D01*
X19748106Y10188682D01*
X19790000Y10186250D01*
X19846221Y10192807D01*
X19866943Y10223732D01*
X19869375Y10265625D01*
X19862819Y10321847D01*
X19831894Y10342569D01*
X19790000Y10345000D01*
X19733779Y10338444D01*
G37*
X19733779Y10338444D02*
X19713057Y10307519D01*
X19710625Y10265625D01*
X19717181Y10209404D01*
X19748106Y10188682D01*
X19790000Y10186250D01*
X19846221Y10192807D01*
X19866943Y10223732D01*
X19869375Y10265625D01*
X19862819Y10321847D01*
X19831894Y10342569D01*
X19790000Y10345000D01*
X19733779Y10338444D01*
G36*
X20005595Y10340576D02*
G01*
X19980077Y10318132D01*
X19975208Y10265625D01*
X19980371Y10212296D01*
X20006555Y10190423D01*
X20067813Y10186250D01*
X20130030Y10190675D01*
X20155549Y10213119D01*
X20160417Y10265625D01*
X20155255Y10318955D01*
X20129070Y10340828D01*
X20067813Y10345000D01*
X20005595Y10340576D01*
G37*
X20005595Y10340576D02*
X19980077Y10318132D01*
X19975208Y10265625D01*
X19980371Y10212296D01*
X20006555Y10190423D01*
X20067813Y10186250D01*
X20130030Y10190675D01*
X20155549Y10213119D01*
X20160417Y10265625D01*
X20155255Y10318955D01*
X20129070Y10340828D01*
X20067813Y10345000D01*
X20005595Y10340576D01*
G36*
X20289404Y10338444D02*
G01*
X20268682Y10307519D01*
X20266250Y10265625D01*
X20272806Y10209404D01*
X20303731Y10188682D01*
X20345625Y10186250D01*
X20401846Y10192807D01*
X20422568Y10223732D01*
X20425000Y10265625D01*
X20418444Y10321847D01*
X20387519Y10342569D01*
X20345625Y10345000D01*
X20289404Y10338444D01*
G37*
X20289404Y10338444D02*
X20268682Y10307519D01*
X20266250Y10265625D01*
X20272806Y10209404D01*
X20303731Y10188682D01*
X20345625Y10186250D01*
X20401846Y10192807D01*
X20422568Y10223732D01*
X20425000Y10265625D01*
X20418444Y10321847D01*
X20387519Y10342569D01*
X20345625Y10345000D01*
X20289404Y10338444D01*
G36*
X20580446Y10338444D02*
G01*
X20559724Y10307519D01*
X20557292Y10265625D01*
X20563848Y10209404D01*
X20594773Y10188682D01*
X20636667Y10186250D01*
X20692888Y10192807D01*
X20713610Y10223732D01*
X20716042Y10265625D01*
X20709486Y10321847D01*
X20678561Y10342569D01*
X20636667Y10345000D01*
X20580446Y10338444D01*
G37*
X20580446Y10338444D02*
X20559724Y10307519D01*
X20557292Y10265625D01*
X20563848Y10209404D01*
X20594773Y10188682D01*
X20636667Y10186250D01*
X20692888Y10192807D01*
X20713610Y10223732D01*
X20716042Y10265625D01*
X20709486Y10321847D01*
X20678561Y10342569D01*
X20636667Y10345000D01*
X20580446Y10338444D01*
D12*
X21860000Y30360000D02*
X22140000Y30360000D01*
X22140000Y30360000D02*
X22140000Y31960000D01*
X22140000Y31960000D02*
X23060000Y31960000D01*
X23060000Y31960000D02*
X23060000Y24140000D01*
X23060000Y24140000D02*
X10940000Y24140000D01*
X10940000Y24140000D02*
X10940000Y31960000D01*
X10940000Y31960000D02*
X11860000Y31960000D01*
X11860000Y31960000D02*
X11860000Y30360000D01*
X11860000Y30360000D02*
X12140000Y30360000D01*
X20500000Y24140000D02*
X20500000Y28500000D01*
X20500000Y28500000D02*
X13500000Y28500000D01*
X13500000Y28500000D02*
X13500000Y24140000D01*
X23060000Y30360000D02*
X22140000Y30360000D01*
X10940000Y30360000D02*
X11860000Y30360000D01*
X22300000Y28000000D02*
X22300000Y26400000D01*
X22300000Y26400000D02*
X21300000Y26400000D01*
X21300000Y26400000D02*
X21300000Y28000000D01*
X21300000Y28000000D02*
X22300000Y28000000D01*
X11700000Y28000000D02*
X11700000Y26400000D01*
X11700000Y26400000D02*
X12700000Y26400000D01*
X12700000Y26400000D02*
X12700000Y28000000D01*
X12700000Y28000000D02*
X11700000Y28000000D01*
X21300000Y26400000D02*
X21300000Y24140000D01*
X21800000Y26400000D02*
X21800000Y24140000D01*
X21860000Y30360000D02*
X21860000Y31575000D01*
D13*
X17333333Y33597620D02*
X17333333Y32883334D01*
X17380952Y32740477D01*
X17476190Y32645239D01*
X17619047Y32597620D01*
X17714285Y32597620D01*
X16904761Y33502381D02*
X16857142Y33550000D01*
X16761904Y33597620D01*
X16523809Y33597620D01*
X16428571Y33550000D01*
X16380952Y33502381D01*
X16333333Y33407143D01*
X16333333Y33311905D01*
X16380952Y33169048D01*
X16952380Y32597620D01*
X16333333Y32597620D01*
X20404761Y22645239D02*
X20261904Y22597620D01*
X20023809Y22597620D01*
X19928571Y22645239D01*
X19880952Y22692858D01*
X19833333Y22788096D01*
X19833333Y22883334D01*
X19880952Y22978572D01*
X19928571Y23026191D01*
X20023809Y23073810D01*
X20214285Y23121429D01*
X20309523Y23169048D01*
X20357142Y23216667D01*
X20404761Y23311905D01*
X20404761Y23407143D01*
X20357142Y23502381D01*
X20309523Y23550000D01*
X20214285Y23597620D01*
X19976190Y23597620D01*
X19833333Y23550000D01*
X19023809Y22645239D02*
X19119047Y22597620D01*
X19309523Y22597620D01*
X19404761Y22645239D01*
X19452380Y22740477D01*
X19452380Y23121429D01*
X19404761Y23216667D01*
X19309523Y23264286D01*
X19119047Y23264286D01*
X19023809Y23216667D01*
X18976190Y23121429D01*
X18976190Y23026191D01*
X19452380Y22930953D01*
X18547619Y22597620D02*
X18547619Y23264286D01*
X18547619Y23073810D02*
X18500000Y23169048D01*
X18452380Y23216667D01*
X18357142Y23264286D01*
X18261904Y23264286D01*
X17928571Y22597620D02*
X17928571Y23264286D01*
X17928571Y23597620D02*
X17976190Y23550000D01*
X17928571Y23502381D01*
X17880952Y23550000D01*
X17928571Y23597620D01*
X17928571Y23502381D01*
X17023809Y22597620D02*
X17023809Y23121429D01*
X17071428Y23216667D01*
X17166666Y23264286D01*
X17357142Y23264286D01*
X17452380Y23216667D01*
X17023809Y22645239D02*
X17119047Y22597620D01*
X17357142Y22597620D01*
X17452380Y22645239D01*
X17500000Y22740477D01*
X17500000Y22835715D01*
X17452380Y22930953D01*
X17357142Y22978572D01*
X17119047Y22978572D01*
X17023809Y23026191D01*
X16404761Y22597620D02*
X16500000Y22645239D01*
X16547619Y22740477D01*
X16547619Y23597620D01*
X15833333Y23597620D02*
X15642857Y23597620D01*
X15547619Y23550000D01*
X15452380Y23454762D01*
X15404761Y23264286D01*
X15404761Y22930953D01*
X15452380Y22740477D01*
X15547619Y22645239D01*
X15642857Y22597620D01*
X15833333Y22597620D01*
X15928571Y22645239D01*
X16023809Y22740477D01*
X16071428Y22930953D01*
X16071428Y23264286D01*
X16023809Y23454762D01*
X15928571Y23550000D01*
X15833333Y23597620D01*
X14976190Y23597620D02*
X14976190Y22788096D01*
X14928571Y22692858D01*
X14880952Y22645239D01*
X14785714Y22597620D01*
X14595238Y22597620D01*
X14500000Y22645239D01*
X14452380Y22692858D01*
X14404761Y22788096D01*
X14404761Y23597620D01*
X14071428Y23597620D02*
X13500000Y23597620D01*
X13785714Y22597620D02*
X13785714Y23597620D01*
%LPC*%
D14*
X6500000Y30500000D03*
X28000000Y30500000D03*
D15*
X6500000Y13000000D03*
X6500000Y14500000D03*
X6500000Y16000000D03*
X6500000Y17500000D03*
X6500000Y19000000D03*
D16*
X6500000Y20500000D03*
D17*
X4700000Y25500000D03*
X6300000Y25500000D03*
X28200000Y25500000D03*
X29800000Y25500000D03*
D18*
X25500000Y26000000D03*
X25500000Y23460000D03*
X25500000Y20920000D03*
X25500000Y18380000D03*
X25500000Y15840000D03*
X25500000Y13300000D03*
X25500000Y10760000D03*
D19*
X25500000Y8220000D03*
D20*
X13000000Y30500000D03*
X15000000Y30500000D03*
X17000000Y30500000D03*
X19000000Y30500000D03*
G36*
G01*
X21600000Y31125001D02*
X21600000Y29874999D01*
G75*
G02*
X21350001Y29625000I-249999J0D01*
G01*
X20649999Y29625000D01*
G75*
G02*
X20400000Y29874999I0J249999D01*
G01*
X20400000Y31125001D01*
G75*
G02*
X20649999Y31375000I249999J0D01*
G01*
X21350001Y31375000D01*
G75*
G02*
X21600000Y31125001I0J-249999D01*
G01*
G37*
D21*
X13581100Y12568100D03*
X22422750Y12077250D03*
X21270000Y25909300D03*
X14185900Y18032700D03*
X16009300Y20007800D03*
X22924100Y19080000D03*
X22872300Y7752400D03*
X16646600Y20874400D03*
X25394000Y28974900D03*
X15053600Y22055100D03*
X14328200Y21017400D03*
X14203700Y19909500D03*
X19839900Y20012700D03*
X28782700Y19744700D03*
M02*
