G04 #@! TF.GenerationSoftware,KiCad,Pcbnew,(5.1.9)-1*
G04 #@! TF.CreationDate,2021-08-03T23:26:31+09:00*
G04 #@! TF.ProjectId,IMU_BNO055_20210802,494d555f-424e-44f3-9035-355f32303231,rev?*
G04 #@! TF.SameCoordinates,PX6dac2c0PY6dac2c0*
G04 #@! TF.FileFunction,Soldermask,Top*
G04 #@! TF.FilePolarity,Negative*
%FSLAX46Y46*%
G04 Gerber Fmt 4.6, Leading zero omitted, Abs format (unit mm)*
G04 Created by KiCad (PCBNEW (5.1.9)-1) date 2021-08-03 23:26:31*
%MOMM*%
%LPD*%
G01*
G04 APERTURE LIST*
%ADD10C,2.200000*%
%ADD11C,1.250000*%
%ADD12R,1.250000X1.250000*%
%ADD13R,0.400000X3.200000*%
%ADD14R,1.600000X0.550000*%
%ADD15R,0.550000X1.600000*%
%ADD16C,0.750000*%
%ADD17R,1.600000X1.050000*%
%ADD18O,1.700000X1.700000*%
%ADD19R,1.700000X1.700000*%
%ADD20O,1.200000X1.750000*%
%ADD21C,0.800000*%
G04 APERTURE END LIST*
D10*
X6500000Y30500000D03*
X28000000Y30500000D03*
D11*
X6500000Y13000000D03*
X6500000Y14500000D03*
X6500000Y16000000D03*
X6500000Y17500000D03*
X6500000Y19000000D03*
D12*
X6500000Y20500000D03*
D13*
X18300000Y12000000D03*
X19500000Y12000000D03*
X20700000Y12000000D03*
D14*
X12750000Y17200000D03*
X12750000Y18000000D03*
X12750000Y18800000D03*
X12750000Y19600000D03*
X12750000Y20400000D03*
X12750000Y21200000D03*
X12750000Y22000000D03*
X12750000Y22800000D03*
D15*
X14200000Y24250000D03*
X15000000Y24250000D03*
X15800000Y24250000D03*
X16600000Y24250000D03*
X17400000Y24250000D03*
X18200000Y24250000D03*
X19000000Y24250000D03*
X19800000Y24250000D03*
D14*
X21250000Y22800000D03*
X21250000Y22000000D03*
X21250000Y21200000D03*
X21250000Y20400000D03*
X21250000Y19600000D03*
X21250000Y18800000D03*
X21250000Y18000000D03*
X21250000Y17200000D03*
D15*
X19800000Y15750000D03*
X19000000Y15750000D03*
X18200000Y15750000D03*
X17400000Y15750000D03*
X16600000Y15750000D03*
X15800000Y15750000D03*
X15000000Y15750000D03*
X14200000Y15750000D03*
D16*
X4700000Y25500000D03*
X6300000Y25500000D03*
D17*
X5500000Y23800000D03*
X5500000Y27200000D03*
D16*
X28200000Y25500000D03*
X29800000Y25500000D03*
D17*
X29000000Y23800000D03*
X29000000Y27200000D03*
G36*
G01*
X25262500Y34650000D02*
X25737500Y34650000D01*
G75*
G02*
X25975000Y34412500I0J-237500D01*
G01*
X25975000Y33837500D01*
G75*
G02*
X25737500Y33600000I-237500J0D01*
G01*
X25262500Y33600000D01*
G75*
G02*
X25025000Y33837500I0J237500D01*
G01*
X25025000Y34412500D01*
G75*
G02*
X25262500Y34650000I237500J0D01*
G01*
G37*
G36*
G01*
X25262500Y36400000D02*
X25737500Y36400000D01*
G75*
G02*
X25975000Y36162500I0J-237500D01*
G01*
X25975000Y35587500D01*
G75*
G02*
X25737500Y35350000I-237500J0D01*
G01*
X25262500Y35350000D01*
G75*
G02*
X25025000Y35587500I0J237500D01*
G01*
X25025000Y36162500D01*
G75*
G02*
X25262500Y36400000I237500J0D01*
G01*
G37*
G36*
G01*
X19262500Y34650000D02*
X19737500Y34650000D01*
G75*
G02*
X19975000Y34412500I0J-237500D01*
G01*
X19975000Y33837500D01*
G75*
G02*
X19737500Y33600000I-237500J0D01*
G01*
X19262500Y33600000D01*
G75*
G02*
X19025000Y33837500I0J237500D01*
G01*
X19025000Y34412500D01*
G75*
G02*
X19262500Y34650000I237500J0D01*
G01*
G37*
G36*
G01*
X19262500Y36400000D02*
X19737500Y36400000D01*
G75*
G02*
X19975000Y36162500I0J-237500D01*
G01*
X19975000Y35587500D01*
G75*
G02*
X19737500Y35350000I-237500J0D01*
G01*
X19262500Y35350000D01*
G75*
G02*
X19025000Y35587500I0J237500D01*
G01*
X19025000Y36162500D01*
G75*
G02*
X19262500Y36400000I237500J0D01*
G01*
G37*
G36*
G01*
X13762500Y34650000D02*
X14237500Y34650000D01*
G75*
G02*
X14475000Y34412500I0J-237500D01*
G01*
X14475000Y33837500D01*
G75*
G02*
X14237500Y33600000I-237500J0D01*
G01*
X13762500Y33600000D01*
G75*
G02*
X13525000Y33837500I0J237500D01*
G01*
X13525000Y34412500D01*
G75*
G02*
X13762500Y34650000I237500J0D01*
G01*
G37*
G36*
G01*
X13762500Y36400000D02*
X14237500Y36400000D01*
G75*
G02*
X14475000Y36162500I0J-237500D01*
G01*
X14475000Y35587500D01*
G75*
G02*
X14237500Y35350000I-237500J0D01*
G01*
X13762500Y35350000D01*
G75*
G02*
X13525000Y35587500I0J237500D01*
G01*
X13525000Y36162500D01*
G75*
G02*
X13762500Y36400000I237500J0D01*
G01*
G37*
G36*
G01*
X21850000Y6262500D02*
X21850000Y6737500D01*
G75*
G02*
X22087500Y6975000I237500J0D01*
G01*
X22662500Y6975000D01*
G75*
G02*
X22900000Y6737500I0J-237500D01*
G01*
X22900000Y6262500D01*
G75*
G02*
X22662500Y6025000I-237500J0D01*
G01*
X22087500Y6025000D01*
G75*
G02*
X21850000Y6262500I0J237500D01*
G01*
G37*
G36*
G01*
X20100000Y6262500D02*
X20100000Y6737500D01*
G75*
G02*
X20337500Y6975000I237500J0D01*
G01*
X20912500Y6975000D01*
G75*
G02*
X21150000Y6737500I0J-237500D01*
G01*
X21150000Y6262500D01*
G75*
G02*
X20912500Y6025000I-237500J0D01*
G01*
X20337500Y6025000D01*
G75*
G02*
X20100000Y6262500I0J237500D01*
G01*
G37*
D18*
X25500000Y26000000D03*
X25500000Y23460000D03*
X25500000Y20920000D03*
X25500000Y18380000D03*
X25500000Y15840000D03*
X25500000Y13300000D03*
X25500000Y10760000D03*
D19*
X25500000Y8220000D03*
D20*
X13000000Y30500000D03*
X15000000Y30500000D03*
X17000000Y30500000D03*
X19000000Y30500000D03*
G36*
G01*
X21600000Y31125001D02*
X21600000Y29874999D01*
G75*
G02*
X21350001Y29625000I-249999J0D01*
G01*
X20649999Y29625000D01*
G75*
G02*
X20400000Y29874999I0J249999D01*
G01*
X20400000Y31125001D01*
G75*
G02*
X20649999Y31375000I249999J0D01*
G01*
X21350001Y31375000D01*
G75*
G02*
X21600000Y31125001I0J-249999D01*
G01*
G37*
G36*
G01*
X22737500Y35350000D02*
X22262500Y35350000D01*
G75*
G02*
X22025000Y35587500I0J237500D01*
G01*
X22025000Y36162500D01*
G75*
G02*
X22262500Y36400000I237500J0D01*
G01*
X22737500Y36400000D01*
G75*
G02*
X22975000Y36162500I0J-237500D01*
G01*
X22975000Y35587500D01*
G75*
G02*
X22737500Y35350000I-237500J0D01*
G01*
G37*
G36*
G01*
X22737500Y33600000D02*
X22262500Y33600000D01*
G75*
G02*
X22025000Y33837500I0J237500D01*
G01*
X22025000Y34412500D01*
G75*
G02*
X22262500Y34650000I237500J0D01*
G01*
X22737500Y34650000D01*
G75*
G02*
X22975000Y34412500I0J-237500D01*
G01*
X22975000Y33837500D01*
G75*
G02*
X22737500Y33600000I-237500J0D01*
G01*
G37*
G36*
G01*
X17237500Y35350000D02*
X16762500Y35350000D01*
G75*
G02*
X16525000Y35587500I0J237500D01*
G01*
X16525000Y36162500D01*
G75*
G02*
X16762500Y36400000I237500J0D01*
G01*
X17237500Y36400000D01*
G75*
G02*
X17475000Y36162500I0J-237500D01*
G01*
X17475000Y35587500D01*
G75*
G02*
X17237500Y35350000I-237500J0D01*
G01*
G37*
G36*
G01*
X17237500Y33600000D02*
X16762500Y33600000D01*
G75*
G02*
X16525000Y33837500I0J237500D01*
G01*
X16525000Y34412500D01*
G75*
G02*
X16762500Y34650000I237500J0D01*
G01*
X17237500Y34650000D01*
G75*
G02*
X17475000Y34412500I0J-237500D01*
G01*
X17475000Y33837500D01*
G75*
G02*
X17237500Y33600000I-237500J0D01*
G01*
G37*
G36*
G01*
X11737500Y35350000D02*
X11262500Y35350000D01*
G75*
G02*
X11025000Y35587500I0J237500D01*
G01*
X11025000Y36162500D01*
G75*
G02*
X11262500Y36400000I237500J0D01*
G01*
X11737500Y36400000D01*
G75*
G02*
X11975000Y36162500I0J-237500D01*
G01*
X11975000Y35587500D01*
G75*
G02*
X11737500Y35350000I-237500J0D01*
G01*
G37*
G36*
G01*
X11737500Y33600000D02*
X11262500Y33600000D01*
G75*
G02*
X11025000Y33837500I0J237500D01*
G01*
X11025000Y34412500D01*
G75*
G02*
X11262500Y34650000I237500J0D01*
G01*
X11737500Y34650000D01*
G75*
G02*
X11975000Y34412500I0J-237500D01*
G01*
X11975000Y33837500D01*
G75*
G02*
X11737500Y33600000I-237500J0D01*
G01*
G37*
G36*
G01*
X17725000Y6320500D02*
X17725000Y6795500D01*
G75*
G02*
X17962500Y7033000I237500J0D01*
G01*
X18537500Y7033000D01*
G75*
G02*
X18775000Y6795500I0J-237500D01*
G01*
X18775000Y6320500D01*
G75*
G02*
X18537500Y6083000I-237500J0D01*
G01*
X17962500Y6083000D01*
G75*
G02*
X17725000Y6320500I0J237500D01*
G01*
G37*
G36*
G01*
X15975000Y6320500D02*
X15975000Y6795500D01*
G75*
G02*
X16212500Y7033000I237500J0D01*
G01*
X16787500Y7033000D01*
G75*
G02*
X17025000Y6795500I0J-237500D01*
G01*
X17025000Y6320500D01*
G75*
G02*
X16787500Y6083000I-237500J0D01*
G01*
X16212500Y6083000D01*
G75*
G02*
X15975000Y6320500I0J237500D01*
G01*
G37*
G36*
G01*
X15150000Y13487500D02*
X15150000Y13012500D01*
G75*
G02*
X14912500Y12775000I-237500J0D01*
G01*
X14337500Y12775000D01*
G75*
G02*
X14100000Y13012500I0J237500D01*
G01*
X14100000Y13487500D01*
G75*
G02*
X14337500Y13725000I237500J0D01*
G01*
X14912500Y13725000D01*
G75*
G02*
X15150000Y13487500I0J-237500D01*
G01*
G37*
G36*
G01*
X16900000Y13487500D02*
X16900000Y13012500D01*
G75*
G02*
X16662500Y12775000I-237500J0D01*
G01*
X16087500Y12775000D01*
G75*
G02*
X15850000Y13012500I0J237500D01*
G01*
X15850000Y13487500D01*
G75*
G02*
X16087500Y13725000I237500J0D01*
G01*
X16662500Y13725000D01*
G75*
G02*
X16900000Y13487500I0J-237500D01*
G01*
G37*
G36*
G01*
X10237500Y17850000D02*
X9762500Y17850000D01*
G75*
G02*
X9525000Y18087500I0J237500D01*
G01*
X9525000Y18662500D01*
G75*
G02*
X9762500Y18900000I237500J0D01*
G01*
X10237500Y18900000D01*
G75*
G02*
X10475000Y18662500I0J-237500D01*
G01*
X10475000Y18087500D01*
G75*
G02*
X10237500Y17850000I-237500J0D01*
G01*
G37*
G36*
G01*
X10237500Y16100000D02*
X9762500Y16100000D01*
G75*
G02*
X9525000Y16337500I0J237500D01*
G01*
X9525000Y16912500D01*
G75*
G02*
X9762500Y17150000I237500J0D01*
G01*
X10237500Y17150000D01*
G75*
G02*
X10475000Y16912500I0J-237500D01*
G01*
X10475000Y16337500D01*
G75*
G02*
X10237500Y16100000I-237500J0D01*
G01*
G37*
G36*
G01*
X14350000Y10762500D02*
X14350000Y11237500D01*
G75*
G02*
X14587500Y11475000I237500J0D01*
G01*
X15162500Y11475000D01*
G75*
G02*
X15400000Y11237500I0J-237500D01*
G01*
X15400000Y10762500D01*
G75*
G02*
X15162500Y10525000I-237500J0D01*
G01*
X14587500Y10525000D01*
G75*
G02*
X14350000Y10762500I0J237500D01*
G01*
G37*
G36*
G01*
X12600000Y10762500D02*
X12600000Y11237500D01*
G75*
G02*
X12837500Y11475000I237500J0D01*
G01*
X13412500Y11475000D01*
G75*
G02*
X13650000Y11237500I0J-237500D01*
G01*
X13650000Y10762500D01*
G75*
G02*
X13412500Y10525000I-237500J0D01*
G01*
X12837500Y10525000D01*
G75*
G02*
X12600000Y10762500I0J237500D01*
G01*
G37*
G36*
G01*
X9737500Y23350000D02*
X9262500Y23350000D01*
G75*
G02*
X9025000Y23587500I0J237500D01*
G01*
X9025000Y24162500D01*
G75*
G02*
X9262500Y24400000I237500J0D01*
G01*
X9737500Y24400000D01*
G75*
G02*
X9975000Y24162500I0J-237500D01*
G01*
X9975000Y23587500D01*
G75*
G02*
X9737500Y23350000I-237500J0D01*
G01*
G37*
G36*
G01*
X9737500Y21600000D02*
X9262500Y21600000D01*
G75*
G02*
X9025000Y21837500I0J237500D01*
G01*
X9025000Y22412500D01*
G75*
G02*
X9262500Y22650000I237500J0D01*
G01*
X9737500Y22650000D01*
G75*
G02*
X9975000Y22412500I0J-237500D01*
G01*
X9975000Y21837500D01*
G75*
G02*
X9737500Y21600000I-237500J0D01*
G01*
G37*
G36*
G01*
X28762500Y16525000D02*
X29237500Y16525000D01*
G75*
G02*
X29475000Y16287500I0J-237500D01*
G01*
X29475000Y15712500D01*
G75*
G02*
X29237500Y15475000I-237500J0D01*
G01*
X28762500Y15475000D01*
G75*
G02*
X28525000Y15712500I0J237500D01*
G01*
X28525000Y16287500D01*
G75*
G02*
X28762500Y16525000I237500J0D01*
G01*
G37*
G36*
G01*
X28762500Y18275000D02*
X29237500Y18275000D01*
G75*
G02*
X29475000Y18037500I0J-237500D01*
G01*
X29475000Y17462500D01*
G75*
G02*
X29237500Y17225000I-237500J0D01*
G01*
X28762500Y17225000D01*
G75*
G02*
X28525000Y17462500I0J237500D01*
G01*
X28525000Y18037500D01*
G75*
G02*
X28762500Y18275000I237500J0D01*
G01*
G37*
D21*
X13581100Y12568100D03*
X22422750Y12077250D03*
X21270000Y25909300D03*
X14185900Y18032700D03*
X16009300Y20007800D03*
X22924100Y19080000D03*
X22872300Y7752400D03*
X16646600Y20874400D03*
X25394000Y28974900D03*
X15053600Y22055100D03*
X14328200Y21017400D03*
X14203700Y19909500D03*
X19839900Y20012700D03*
X28782700Y19744700D03*
M02*
