G04 #@! TF.GenerationSoftware,KiCad,Pcbnew,(5.1.9)-1*
G04 #@! TF.CreationDate,2021-08-03T23:26:31+09:00*
G04 #@! TF.ProjectId,IMU_BNO055_20210802,494d555f-424e-44f3-9035-355f32303231,rev?*
G04 #@! TF.SameCoordinates,PX6dac2c0PY6dac2c0*
G04 #@! TF.FileFunction,Legend,Top*
G04 #@! TF.FilePolarity,Positive*
%FSLAX46Y46*%
G04 Gerber Fmt 4.6, Leading zero omitted, Abs format (unit mm)*
G04 Created by KiCad (PCBNEW (5.1.9)-1) date 2021-08-03 23:26:31*
%MOMM*%
%LPD*%
G01*
G04 APERTURE LIST*
%ADD10C,0.300000*%
%ADD11C,0.200000*%
%ADD12C,0.120000*%
%ADD13C,0.150000*%
%ADD14C,0.254000*%
%ADD15C,2.200000*%
%ADD16C,1.250000*%
%ADD17R,1.250000X1.250000*%
%ADD18R,0.400000X3.200000*%
%ADD19R,1.600000X0.550000*%
%ADD20R,0.550000X1.600000*%
%ADD21C,0.750000*%
%ADD22R,1.600000X1.050000*%
%ADD23O,1.700000X1.700000*%
%ADD24R,1.700000X1.700000*%
%ADD25O,1.200000X1.750000*%
%ADD26C,0.800000*%
G04 APERTURE END LIST*
D10*
X5357142Y33821429D02*
X5357142Y35321429D01*
X6071428Y33821429D02*
X6071428Y35321429D01*
X6571428Y34250000D01*
X7071428Y35321429D01*
X7071428Y33821429D01*
X7785714Y35321429D02*
X7785714Y34107143D01*
X7857142Y33964286D01*
X7928571Y33892858D01*
X8071428Y33821429D01*
X8357142Y33821429D01*
X8500000Y33892858D01*
X8571428Y33964286D01*
X8642857Y34107143D01*
X8642857Y35321429D01*
D11*
X4300000Y22000000D02*
X6500000Y22000000D01*
X4300000Y11500000D02*
X4300000Y22000000D01*
X7800000Y11500000D02*
X4300000Y11500000D01*
X7800000Y20500000D02*
X7800000Y11500000D01*
D12*
X17700000Y10800000D02*
X17700000Y12800000D01*
X21300000Y12800000D02*
X21300000Y10800000D01*
X20250000Y13200000D02*
X20250000Y13600000D01*
X21500000Y10800000D02*
X21500000Y12800000D01*
X17700000Y12800000D02*
X17700000Y13200000D01*
X21300000Y12800000D02*
X21300000Y13200000D01*
X21500000Y12800000D02*
X21500000Y13200000D01*
X21300000Y10800000D02*
X21150000Y10800000D01*
X21300000Y13200000D02*
X21150000Y13200000D01*
X20250000Y13200000D02*
X20300000Y13200000D01*
X17700000Y13200000D02*
X17850000Y13200000D01*
X17700000Y10800000D02*
X17850000Y10800000D01*
D13*
X13375000Y16375000D02*
X13600000Y16375000D01*
X13375000Y23625000D02*
X13700000Y23625000D01*
X20625000Y23625000D02*
X20300000Y23625000D01*
X20625000Y16375000D02*
X20300000Y16375000D01*
X13375000Y16375000D02*
X13375000Y16700000D01*
X20625000Y16375000D02*
X20625000Y16700000D01*
X20625000Y23625000D02*
X20625000Y23300000D01*
X13375000Y23625000D02*
X13375000Y23300000D01*
X13600000Y16375000D02*
X13600000Y14950000D01*
D12*
X7000000Y27000000D02*
X7000000Y24000000D01*
X4000000Y27000000D02*
X4000000Y24000000D01*
X4000000Y27000000D02*
X4500000Y27000000D01*
X6500000Y27000000D02*
X7000000Y27000000D01*
X4000000Y24000000D02*
X4500000Y24000000D01*
X6500000Y24000000D02*
X7000000Y24000000D01*
X30500000Y27000000D02*
X30500000Y24000000D01*
X27500000Y27000000D02*
X27500000Y24000000D01*
X27500000Y27000000D02*
X28000000Y27000000D01*
X30000000Y27000000D02*
X30500000Y27000000D01*
X27500000Y24000000D02*
X28000000Y24000000D01*
X30000000Y24000000D02*
X30500000Y24000000D01*
X26010000Y35171267D02*
X26010000Y34828733D01*
X24990000Y35171267D02*
X24990000Y34828733D01*
X20010000Y35171267D02*
X20010000Y34828733D01*
X18990000Y35171267D02*
X18990000Y34828733D01*
X14510000Y35171267D02*
X14510000Y34828733D01*
X13490000Y35171267D02*
X13490000Y34828733D01*
X21328733Y7010000D02*
X21671267Y7010000D01*
X21328733Y5990000D02*
X21671267Y5990000D01*
X26830000Y27330000D02*
X24170000Y27330000D01*
X26830000Y9490000D02*
X26830000Y27330000D01*
X24170000Y9490000D02*
X24170000Y27330000D01*
X26830000Y9490000D02*
X24170000Y9490000D01*
X26830000Y8220000D02*
X26830000Y6890000D01*
X26830000Y6890000D02*
X25500000Y6890000D01*
X21765000Y35800000D02*
X21765000Y33340000D01*
X21765000Y33340000D02*
X23235000Y33340000D01*
X23235000Y33340000D02*
X23235000Y35800000D01*
X16265000Y35800000D02*
X16265000Y33340000D01*
X16265000Y33340000D02*
X17735000Y33340000D01*
X17735000Y33340000D02*
X17735000Y35800000D01*
X10765000Y35800000D02*
X10765000Y33340000D01*
X10765000Y33340000D02*
X12235000Y33340000D01*
X12235000Y33340000D02*
X12235000Y35800000D01*
X18175000Y7293000D02*
X15715000Y7293000D01*
X15715000Y7293000D02*
X15715000Y5823000D01*
X15715000Y5823000D02*
X18175000Y5823000D01*
X15671267Y12740000D02*
X15328733Y12740000D01*
X15671267Y13760000D02*
X15328733Y13760000D01*
X9490000Y17328733D02*
X9490000Y17671267D01*
X10510000Y17328733D02*
X10510000Y17671267D01*
X13828733Y11510000D02*
X14171267Y11510000D01*
X13828733Y10490000D02*
X14171267Y10490000D01*
X8990000Y22828733D02*
X8990000Y23171267D01*
X10010000Y22828733D02*
X10010000Y23171267D01*
X29510000Y17046267D02*
X29510000Y16703733D01*
X28490000Y17046267D02*
X28490000Y16703733D01*
D14*
X10074523Y11625239D02*
X8804523Y11625239D01*
X9953571Y12955715D02*
X10014047Y12895239D01*
X10074523Y12713810D01*
X10074523Y12592858D01*
X10014047Y12411429D01*
X9893095Y12290477D01*
X9772142Y12230000D01*
X9530238Y12169524D01*
X9348809Y12169524D01*
X9106904Y12230000D01*
X8985952Y12290477D01*
X8865000Y12411429D01*
X8804523Y12592858D01*
X8804523Y12713810D01*
X8865000Y12895239D01*
X8925476Y12955715D01*
X10014047Y13439524D02*
X10074523Y13620953D01*
X10074523Y13923334D01*
X10014047Y14044286D01*
X9953571Y14104762D01*
X9832619Y14165239D01*
X9711666Y14165239D01*
X9590714Y14104762D01*
X9530238Y14044286D01*
X9469761Y13923334D01*
X9409285Y13681429D01*
X9348809Y13560477D01*
X9288333Y13500000D01*
X9167380Y13439524D01*
X9046428Y13439524D01*
X8925476Y13500000D01*
X8865000Y13560477D01*
X8804523Y13681429D01*
X8804523Y13983810D01*
X8865000Y14165239D01*
X10074523Y14709524D02*
X8804523Y14709524D01*
X8804523Y15193334D01*
X8865000Y15314286D01*
X8925476Y15374762D01*
X9046428Y15435239D01*
X9227857Y15435239D01*
X9348809Y15374762D01*
X9409285Y15314286D01*
X9469761Y15193334D01*
X9469761Y14709524D01*
D13*
X20273809Y9273810D02*
X20273809Y8797620D01*
X19940476Y9797620D02*
X20273809Y9273810D01*
X20607142Y9797620D01*
X21464285Y8797620D02*
X20892857Y8797620D01*
X21178571Y8797620D02*
X21178571Y9797620D01*
X21083333Y9654762D01*
X20988095Y9559524D01*
X20892857Y9511905D01*
X16488095Y27047620D02*
X16488095Y26238096D01*
X16535714Y26142858D01*
X16583333Y26095239D01*
X16678571Y26047620D01*
X16869047Y26047620D01*
X16964285Y26095239D01*
X17011904Y26142858D01*
X17059523Y26238096D01*
X17059523Y27047620D01*
X18059523Y26047620D02*
X17488095Y26047620D01*
X17773809Y26047620D02*
X17773809Y27047620D01*
X17678571Y26904762D01*
X17583333Y26809524D01*
X17488095Y26761905D01*
X8404761Y24380953D02*
X8452380Y24523810D01*
X8452380Y24761905D01*
X8404761Y24857143D01*
X8357142Y24904762D01*
X8261904Y24952381D01*
X8166666Y24952381D01*
X8071428Y24904762D01*
X8023809Y24857143D01*
X7976190Y24761905D01*
X7928571Y24571429D01*
X7880952Y24476191D01*
X7833333Y24428572D01*
X7738095Y24380953D01*
X7642857Y24380953D01*
X7547619Y24428572D01*
X7500000Y24476191D01*
X7452380Y24571429D01*
X7452380Y24809524D01*
X7500000Y24952381D01*
X7928571Y25380953D02*
X7928571Y25714286D01*
X8452380Y25857143D02*
X8452380Y25380953D01*
X7452380Y25380953D01*
X7452380Y25857143D01*
X7452380Y26142858D02*
X7452380Y26714286D01*
X8452380Y26428572D02*
X7452380Y26428572D01*
X29357142Y20976191D02*
X29404761Y20928572D01*
X29452380Y20785715D01*
X29452380Y20690477D01*
X29404761Y20547620D01*
X29309523Y20452381D01*
X29214285Y20404762D01*
X29023809Y20357143D01*
X28880952Y20357143D01*
X28690476Y20404762D01*
X28595238Y20452381D01*
X28500000Y20547620D01*
X28452380Y20690477D01*
X28452380Y20785715D01*
X28500000Y20928572D01*
X28547619Y20976191D01*
X29166666Y21357143D02*
X29166666Y21833334D01*
X29452380Y21261905D02*
X28452380Y21595239D01*
X29452380Y21928572D01*
X29452380Y22738096D02*
X29452380Y22261905D01*
X28452380Y22261905D01*
X24833333Y32047620D02*
X24500000Y32523810D01*
X24261904Y32047620D02*
X24261904Y33047620D01*
X24642857Y33047620D01*
X24738095Y33000000D01*
X24785714Y32952381D01*
X24833333Y32857143D01*
X24833333Y32714286D01*
X24785714Y32619048D01*
X24738095Y32571429D01*
X24642857Y32523810D01*
X24261904Y32523810D01*
X25690476Y32714286D02*
X25690476Y32047620D01*
X25452380Y33095239D02*
X25214285Y32380953D01*
X25833333Y32380953D01*
X18833333Y32047620D02*
X18500000Y32523810D01*
X18261904Y32047620D02*
X18261904Y33047620D01*
X18642857Y33047620D01*
X18738095Y33000000D01*
X18785714Y32952381D01*
X18833333Y32857143D01*
X18833333Y32714286D01*
X18785714Y32619048D01*
X18738095Y32571429D01*
X18642857Y32523810D01*
X18261904Y32523810D01*
X19166666Y33047620D02*
X19785714Y33047620D01*
X19452380Y32666667D01*
X19595238Y32666667D01*
X19690476Y32619048D01*
X19738095Y32571429D01*
X19785714Y32476191D01*
X19785714Y32238096D01*
X19738095Y32142858D01*
X19690476Y32095239D01*
X19595238Y32047620D01*
X19309523Y32047620D01*
X19214285Y32095239D01*
X19166666Y32142858D01*
X13333333Y32047620D02*
X13000000Y32523810D01*
X12761904Y32047620D02*
X12761904Y33047620D01*
X13142857Y33047620D01*
X13238095Y33000000D01*
X13285714Y32952381D01*
X13333333Y32857143D01*
X13333333Y32714286D01*
X13285714Y32619048D01*
X13238095Y32571429D01*
X13142857Y32523810D01*
X12761904Y32523810D01*
X13714285Y32952381D02*
X13761904Y33000000D01*
X13857142Y33047620D01*
X14095238Y33047620D01*
X14190476Y33000000D01*
X14238095Y32952381D01*
X14285714Y32857143D01*
X14285714Y32761905D01*
X14238095Y32619048D01*
X13666666Y32047620D01*
X14285714Y32047620D01*
X21333333Y7477620D02*
X21000000Y7953810D01*
X20761904Y7477620D02*
X20761904Y8477620D01*
X21142857Y8477620D01*
X21238095Y8430000D01*
X21285714Y8382381D01*
X21333333Y8287143D01*
X21333333Y8144286D01*
X21285714Y8049048D01*
X21238095Y8001429D01*
X21142857Y7953810D01*
X20761904Y7953810D01*
X22285714Y7477620D02*
X21714285Y7477620D01*
X22000000Y7477620D02*
X22000000Y8477620D01*
X21904761Y8334762D01*
X21809523Y8239524D01*
X21714285Y8191905D01*
X25166666Y6437620D02*
X25166666Y5723334D01*
X25119047Y5580477D01*
X25023809Y5485239D01*
X24880952Y5437620D01*
X24785714Y5437620D01*
X25547619Y6437620D02*
X26166666Y6437620D01*
X25833333Y6056667D01*
X25976190Y6056667D01*
X26071428Y6009048D01*
X26119047Y5961429D01*
X26166666Y5866191D01*
X26166666Y5628096D01*
X26119047Y5532858D01*
X26071428Y5485239D01*
X25976190Y5437620D01*
X25690476Y5437620D01*
X25595238Y5485239D01*
X25547619Y5532858D01*
X22500000Y8738096D02*
X22452380Y8642858D01*
X22452380Y8500000D01*
X22500000Y8357143D01*
X22595238Y8261905D01*
X22690476Y8214286D01*
X22880952Y8166667D01*
X23023809Y8166667D01*
X23214285Y8214286D01*
X23309523Y8261905D01*
X23404761Y8357143D01*
X23452380Y8500000D01*
X23452380Y8595239D01*
X23404761Y8738096D01*
X23357142Y8785715D01*
X23023809Y8785715D01*
X23023809Y8595239D01*
X22976190Y9404762D02*
X23452380Y9404762D01*
X22452380Y9071429D02*
X22976190Y9404762D01*
X22452380Y9738096D01*
X23071428Y10071429D02*
X23071428Y10833334D01*
X22928571Y11642858D02*
X22976190Y11785715D01*
X23023809Y11833334D01*
X23119047Y11880953D01*
X23261904Y11880953D01*
X23357142Y11833334D01*
X23404761Y11785715D01*
X23452380Y11690477D01*
X23452380Y11309524D01*
X22452380Y11309524D01*
X22452380Y11642858D01*
X22500000Y11738096D01*
X22547619Y11785715D01*
X22642857Y11833334D01*
X22738095Y11833334D01*
X22833333Y11785715D01*
X22880952Y11738096D01*
X22928571Y11642858D01*
X22928571Y11309524D01*
X23452380Y12309524D02*
X22452380Y12309524D01*
X23452380Y12880953D01*
X22452380Y12880953D01*
X22452380Y13547620D02*
X22452380Y13738096D01*
X22500000Y13833334D01*
X22595238Y13928572D01*
X22785714Y13976191D01*
X23119047Y13976191D01*
X23309523Y13928572D01*
X23404761Y13833334D01*
X23452380Y13738096D01*
X23452380Y13547620D01*
X23404761Y13452381D01*
X23309523Y13357143D01*
X23119047Y13309524D01*
X22785714Y13309524D01*
X22595238Y13357143D01*
X22500000Y13452381D01*
X22452380Y13547620D01*
X22452380Y14595239D02*
X22452380Y14690477D01*
X22500000Y14785715D01*
X22547619Y14833334D01*
X22642857Y14880953D01*
X22833333Y14928572D01*
X23071428Y14928572D01*
X23261904Y14880953D01*
X23357142Y14833334D01*
X23404761Y14785715D01*
X23452380Y14690477D01*
X23452380Y14595239D01*
X23404761Y14500000D01*
X23357142Y14452381D01*
X23261904Y14404762D01*
X23071428Y14357143D01*
X22833333Y14357143D01*
X22642857Y14404762D01*
X22547619Y14452381D01*
X22500000Y14500000D01*
X22452380Y14595239D01*
X22452380Y15833334D02*
X22452380Y15357143D01*
X22928571Y15309524D01*
X22880952Y15357143D01*
X22833333Y15452381D01*
X22833333Y15690477D01*
X22880952Y15785715D01*
X22928571Y15833334D01*
X23023809Y15880953D01*
X23261904Y15880953D01*
X23357142Y15833334D01*
X23404761Y15785715D01*
X23452380Y15690477D01*
X23452380Y15452381D01*
X23404761Y15357143D01*
X23357142Y15309524D01*
X22452380Y16785715D02*
X22452380Y16309524D01*
X22928571Y16261905D01*
X22880952Y16309524D01*
X22833333Y16404762D01*
X22833333Y16642858D01*
X22880952Y16738096D01*
X22928571Y16785715D01*
X23023809Y16833334D01*
X23261904Y16833334D01*
X23357142Y16785715D01*
X23404761Y16738096D01*
X23452380Y16642858D01*
X23452380Y16404762D01*
X23404761Y16309524D01*
X23357142Y16261905D01*
X21452380Y33880953D02*
X20976190Y33547620D01*
X21452380Y33309524D02*
X20452380Y33309524D01*
X20452380Y33690477D01*
X20500000Y33785715D01*
X20547619Y33833334D01*
X20642857Y33880953D01*
X20785714Y33880953D01*
X20880952Y33833334D01*
X20928571Y33785715D01*
X20976190Y33690477D01*
X20976190Y33309524D01*
X21452380Y34309524D02*
X20785714Y34309524D01*
X20452380Y34309524D02*
X20500000Y34261905D01*
X20547619Y34309524D01*
X20500000Y34357143D01*
X20452380Y34309524D01*
X20547619Y34309524D01*
X20785714Y35214286D02*
X21595238Y35214286D01*
X21690476Y35166667D01*
X21738095Y35119048D01*
X21785714Y35023810D01*
X21785714Y34880953D01*
X21738095Y34785715D01*
X21404761Y35214286D02*
X21452380Y35119048D01*
X21452380Y34928572D01*
X21404761Y34833334D01*
X21357142Y34785715D01*
X21261904Y34738096D01*
X20976190Y34738096D01*
X20880952Y34785715D01*
X20833333Y34833334D01*
X20785714Y34928572D01*
X20785714Y35119048D01*
X20833333Y35214286D01*
X21452380Y35690477D02*
X20452380Y35690477D01*
X21452380Y36119048D02*
X20928571Y36119048D01*
X20833333Y36071429D01*
X20785714Y35976191D01*
X20785714Y35833334D01*
X20833333Y35738096D01*
X20880952Y35690477D01*
X20785714Y36452381D02*
X20785714Y36833334D01*
X20452380Y36595239D02*
X21309523Y36595239D01*
X21404761Y36642858D01*
X21452380Y36738096D01*
X21452380Y36833334D01*
X15857142Y32904762D02*
X15904761Y32857143D01*
X15952380Y32714286D01*
X15952380Y32619048D01*
X15904761Y32476191D01*
X15809523Y32380953D01*
X15714285Y32333334D01*
X15523809Y32285715D01*
X15380952Y32285715D01*
X15190476Y32333334D01*
X15095238Y32380953D01*
X15000000Y32476191D01*
X14952380Y32619048D01*
X14952380Y32714286D01*
X15000000Y32857143D01*
X15047619Y32904762D01*
X15904761Y33714286D02*
X15952380Y33619048D01*
X15952380Y33428572D01*
X15904761Y33333334D01*
X15809523Y33285715D01*
X15428571Y33285715D01*
X15333333Y33333334D01*
X15285714Y33428572D01*
X15285714Y33619048D01*
X15333333Y33714286D01*
X15428571Y33761905D01*
X15523809Y33761905D01*
X15619047Y33285715D01*
X15285714Y34190477D02*
X15952380Y34190477D01*
X15380952Y34190477D02*
X15333333Y34238096D01*
X15285714Y34333334D01*
X15285714Y34476191D01*
X15333333Y34571429D01*
X15428571Y34619048D01*
X15952380Y34619048D01*
X15285714Y34952381D02*
X15285714Y35333334D01*
X14952380Y35095239D02*
X15809523Y35095239D01*
X15904761Y35142858D01*
X15952380Y35238096D01*
X15952380Y35333334D01*
X15904761Y36047620D02*
X15952380Y35952381D01*
X15952380Y35761905D01*
X15904761Y35666667D01*
X15809523Y35619048D01*
X15428571Y35619048D01*
X15333333Y35666667D01*
X15285714Y35761905D01*
X15285714Y35952381D01*
X15333333Y36047620D01*
X15428571Y36095239D01*
X15523809Y36095239D01*
X15619047Y35619048D01*
X15952380Y36523810D02*
X15285714Y36523810D01*
X15476190Y36523810D02*
X15380952Y36571429D01*
X15333333Y36619048D01*
X15285714Y36714286D01*
X15285714Y36809524D01*
X10452380Y34309524D02*
X10452380Y33833334D01*
X9452380Y33833334D01*
X10404761Y35023810D02*
X10452380Y34928572D01*
X10452380Y34738096D01*
X10404761Y34642858D01*
X10309523Y34595239D01*
X9928571Y34595239D01*
X9833333Y34642858D01*
X9785714Y34738096D01*
X9785714Y34928572D01*
X9833333Y35023810D01*
X9928571Y35071429D01*
X10023809Y35071429D01*
X10119047Y34595239D01*
X9785714Y35357143D02*
X9785714Y35738096D01*
X10452380Y35500000D02*
X9595238Y35500000D01*
X9500000Y35547620D01*
X9452380Y35642858D01*
X9452380Y35738096D01*
X9785714Y35928572D02*
X9785714Y36309524D01*
X9452380Y36071429D02*
X10309523Y36071429D01*
X10404761Y36119048D01*
X10452380Y36214286D01*
X10452380Y36309524D01*
X15375000Y7833334D02*
X15851190Y7833334D01*
X15279761Y7547620D02*
X15613095Y8547620D01*
X15946428Y7547620D01*
X16708333Y7595239D02*
X16613095Y7547620D01*
X16422619Y7547620D01*
X16327380Y7595239D01*
X16279761Y7642858D01*
X16232142Y7738096D01*
X16232142Y8023810D01*
X16279761Y8119048D01*
X16327380Y8166667D01*
X16422619Y8214286D01*
X16613095Y8214286D01*
X16708333Y8166667D01*
X16994047Y8214286D02*
X17375000Y8214286D01*
X17136904Y8547620D02*
X17136904Y7690477D01*
X17184523Y7595239D01*
X17279761Y7547620D01*
X17375000Y7547620D01*
X17708333Y7547620D02*
X17708333Y8214286D01*
X17708333Y8547620D02*
X17660714Y8500000D01*
X17708333Y8452381D01*
X17755952Y8500000D01*
X17708333Y8547620D01*
X17708333Y8452381D01*
X18089285Y8214286D02*
X18327380Y7547620D01*
X18565476Y8214286D01*
X19327380Y7595239D02*
X19232142Y7547620D01*
X19041666Y7547620D01*
X18946428Y7595239D01*
X18898809Y7690477D01*
X18898809Y8071429D01*
X18946428Y8166667D01*
X19041666Y8214286D01*
X19232142Y8214286D01*
X19327380Y8166667D01*
X19375000Y8071429D01*
X19375000Y7976191D01*
X18898809Y7880953D01*
X12583333Y12892858D02*
X12535714Y12845239D01*
X12392857Y12797620D01*
X12297619Y12797620D01*
X12154761Y12845239D01*
X12059523Y12940477D01*
X12011904Y13035715D01*
X11964285Y13226191D01*
X11964285Y13369048D01*
X12011904Y13559524D01*
X12059523Y13654762D01*
X12154761Y13750000D01*
X12297619Y13797620D01*
X12392857Y13797620D01*
X12535714Y13750000D01*
X12583333Y13702381D01*
X13535714Y12797620D02*
X12964285Y12797620D01*
X13250000Y12797620D02*
X13250000Y13797620D01*
X13154761Y13654762D01*
X13059523Y13559524D01*
X12964285Y13511905D01*
X10452380Y19833334D02*
X9976190Y19500000D01*
X10452380Y19261905D02*
X9452380Y19261905D01*
X9452380Y19642858D01*
X9500000Y19738096D01*
X9547619Y19785715D01*
X9642857Y19833334D01*
X9785714Y19833334D01*
X9880952Y19785715D01*
X9928571Y19738096D01*
X9976190Y19642858D01*
X9976190Y19261905D01*
X9452380Y20690477D02*
X9452380Y20500000D01*
X9500000Y20404762D01*
X9547619Y20357143D01*
X9690476Y20261905D01*
X9880952Y20214286D01*
X10261904Y20214286D01*
X10357142Y20261905D01*
X10404761Y20309524D01*
X10452380Y20404762D01*
X10452380Y20595239D01*
X10404761Y20690477D01*
X10357142Y20738096D01*
X10261904Y20785715D01*
X10023809Y20785715D01*
X9928571Y20738096D01*
X9880952Y20690477D01*
X9833333Y20595239D01*
X9833333Y20404762D01*
X9880952Y20309524D01*
X9928571Y20261905D01*
X10023809Y20214286D01*
X15797619Y10916667D02*
X16273809Y11250000D01*
X15797619Y11488096D02*
X16797619Y11488096D01*
X16797619Y11107143D01*
X16750000Y11011905D01*
X16702380Y10964286D01*
X16607142Y10916667D01*
X16464285Y10916667D01*
X16369047Y10964286D01*
X16321428Y11011905D01*
X16273809Y11107143D01*
X16273809Y11488096D01*
X16797619Y10011905D02*
X16797619Y10488096D01*
X16321428Y10535715D01*
X16369047Y10488096D01*
X16416666Y10392858D01*
X16416666Y10154762D01*
X16369047Y10059524D01*
X16321428Y10011905D01*
X16226190Y9964286D01*
X15988095Y9964286D01*
X15892857Y10011905D01*
X15845238Y10059524D01*
X15797619Y10154762D01*
X15797619Y10392858D01*
X15845238Y10488096D01*
X15892857Y10535715D01*
X11452380Y25333334D02*
X10976190Y25000000D01*
X11452380Y24761905D02*
X10452380Y24761905D01*
X10452380Y25142858D01*
X10500000Y25238096D01*
X10547619Y25285715D01*
X10642857Y25333334D01*
X10785714Y25333334D01*
X10880952Y25285715D01*
X10928571Y25238096D01*
X10976190Y25142858D01*
X10976190Y24761905D01*
X10880952Y25904762D02*
X10833333Y25809524D01*
X10785714Y25761905D01*
X10690476Y25714286D01*
X10642857Y25714286D01*
X10547619Y25761905D01*
X10500000Y25809524D01*
X10452380Y25904762D01*
X10452380Y26095239D01*
X10500000Y26190477D01*
X10547619Y26238096D01*
X10642857Y26285715D01*
X10690476Y26285715D01*
X10785714Y26238096D01*
X10833333Y26190477D01*
X10880952Y26095239D01*
X10880952Y25904762D01*
X10928571Y25809524D01*
X10976190Y25761905D01*
X11071428Y25714286D01*
X11261904Y25714286D01*
X11357142Y25761905D01*
X11404761Y25809524D01*
X11452380Y25904762D01*
X11452380Y26095239D01*
X11404761Y26190477D01*
X11357142Y26238096D01*
X11261904Y26285715D01*
X11071428Y26285715D01*
X10976190Y26238096D01*
X10928571Y26190477D01*
X10880952Y26095239D01*
X29702380Y13833334D02*
X29226190Y13500000D01*
X29702380Y13261905D02*
X28702380Y13261905D01*
X28702380Y13642858D01*
X28750000Y13738096D01*
X28797619Y13785715D01*
X28892857Y13833334D01*
X29035714Y13833334D01*
X29130952Y13785715D01*
X29178571Y13738096D01*
X29226190Y13642858D01*
X29226190Y13261905D01*
X28702380Y14166667D02*
X28702380Y14833334D01*
X29702380Y14404762D01*
%LPC*%
D15*
X6500000Y30500000D03*
X28000000Y30500000D03*
D16*
X6500000Y13000000D03*
X6500000Y14500000D03*
X6500000Y16000000D03*
X6500000Y17500000D03*
X6500000Y19000000D03*
D17*
X6500000Y20500000D03*
D18*
X18300000Y12000000D03*
X19500000Y12000000D03*
X20700000Y12000000D03*
D19*
X12750000Y17200000D03*
X12750000Y18000000D03*
X12750000Y18800000D03*
X12750000Y19600000D03*
X12750000Y20400000D03*
X12750000Y21200000D03*
X12750000Y22000000D03*
X12750000Y22800000D03*
D20*
X14200000Y24250000D03*
X15000000Y24250000D03*
X15800000Y24250000D03*
X16600000Y24250000D03*
X17400000Y24250000D03*
X18200000Y24250000D03*
X19000000Y24250000D03*
X19800000Y24250000D03*
D19*
X21250000Y22800000D03*
X21250000Y22000000D03*
X21250000Y21200000D03*
X21250000Y20400000D03*
X21250000Y19600000D03*
X21250000Y18800000D03*
X21250000Y18000000D03*
X21250000Y17200000D03*
D20*
X19800000Y15750000D03*
X19000000Y15750000D03*
X18200000Y15750000D03*
X17400000Y15750000D03*
X16600000Y15750000D03*
X15800000Y15750000D03*
X15000000Y15750000D03*
X14200000Y15750000D03*
D21*
X4700000Y25500000D03*
X6300000Y25500000D03*
D22*
X5500000Y23800000D03*
X5500000Y27200000D03*
D21*
X28200000Y25500000D03*
X29800000Y25500000D03*
D22*
X29000000Y23800000D03*
X29000000Y27200000D03*
G36*
G01*
X25262500Y34650000D02*
X25737500Y34650000D01*
G75*
G02*
X25975000Y34412500I0J-237500D01*
G01*
X25975000Y33837500D01*
G75*
G02*
X25737500Y33600000I-237500J0D01*
G01*
X25262500Y33600000D01*
G75*
G02*
X25025000Y33837500I0J237500D01*
G01*
X25025000Y34412500D01*
G75*
G02*
X25262500Y34650000I237500J0D01*
G01*
G37*
G36*
G01*
X25262500Y36400000D02*
X25737500Y36400000D01*
G75*
G02*
X25975000Y36162500I0J-237500D01*
G01*
X25975000Y35587500D01*
G75*
G02*
X25737500Y35350000I-237500J0D01*
G01*
X25262500Y35350000D01*
G75*
G02*
X25025000Y35587500I0J237500D01*
G01*
X25025000Y36162500D01*
G75*
G02*
X25262500Y36400000I237500J0D01*
G01*
G37*
G36*
G01*
X19262500Y34650000D02*
X19737500Y34650000D01*
G75*
G02*
X19975000Y34412500I0J-237500D01*
G01*
X19975000Y33837500D01*
G75*
G02*
X19737500Y33600000I-237500J0D01*
G01*
X19262500Y33600000D01*
G75*
G02*
X19025000Y33837500I0J237500D01*
G01*
X19025000Y34412500D01*
G75*
G02*
X19262500Y34650000I237500J0D01*
G01*
G37*
G36*
G01*
X19262500Y36400000D02*
X19737500Y36400000D01*
G75*
G02*
X19975000Y36162500I0J-237500D01*
G01*
X19975000Y35587500D01*
G75*
G02*
X19737500Y35350000I-237500J0D01*
G01*
X19262500Y35350000D01*
G75*
G02*
X19025000Y35587500I0J237500D01*
G01*
X19025000Y36162500D01*
G75*
G02*
X19262500Y36400000I237500J0D01*
G01*
G37*
G36*
G01*
X13762500Y34650000D02*
X14237500Y34650000D01*
G75*
G02*
X14475000Y34412500I0J-237500D01*
G01*
X14475000Y33837500D01*
G75*
G02*
X14237500Y33600000I-237500J0D01*
G01*
X13762500Y33600000D01*
G75*
G02*
X13525000Y33837500I0J237500D01*
G01*
X13525000Y34412500D01*
G75*
G02*
X13762500Y34650000I237500J0D01*
G01*
G37*
G36*
G01*
X13762500Y36400000D02*
X14237500Y36400000D01*
G75*
G02*
X14475000Y36162500I0J-237500D01*
G01*
X14475000Y35587500D01*
G75*
G02*
X14237500Y35350000I-237500J0D01*
G01*
X13762500Y35350000D01*
G75*
G02*
X13525000Y35587500I0J237500D01*
G01*
X13525000Y36162500D01*
G75*
G02*
X13762500Y36400000I237500J0D01*
G01*
G37*
G36*
G01*
X21850000Y6262500D02*
X21850000Y6737500D01*
G75*
G02*
X22087500Y6975000I237500J0D01*
G01*
X22662500Y6975000D01*
G75*
G02*
X22900000Y6737500I0J-237500D01*
G01*
X22900000Y6262500D01*
G75*
G02*
X22662500Y6025000I-237500J0D01*
G01*
X22087500Y6025000D01*
G75*
G02*
X21850000Y6262500I0J237500D01*
G01*
G37*
G36*
G01*
X20100000Y6262500D02*
X20100000Y6737500D01*
G75*
G02*
X20337500Y6975000I237500J0D01*
G01*
X20912500Y6975000D01*
G75*
G02*
X21150000Y6737500I0J-237500D01*
G01*
X21150000Y6262500D01*
G75*
G02*
X20912500Y6025000I-237500J0D01*
G01*
X20337500Y6025000D01*
G75*
G02*
X20100000Y6262500I0J237500D01*
G01*
G37*
D23*
X25500000Y26000000D03*
X25500000Y23460000D03*
X25500000Y20920000D03*
X25500000Y18380000D03*
X25500000Y15840000D03*
X25500000Y13300000D03*
X25500000Y10760000D03*
D24*
X25500000Y8220000D03*
D25*
X13000000Y30500000D03*
X15000000Y30500000D03*
X17000000Y30500000D03*
X19000000Y30500000D03*
G36*
G01*
X21600000Y31125001D02*
X21600000Y29874999D01*
G75*
G02*
X21350001Y29625000I-249999J0D01*
G01*
X20649999Y29625000D01*
G75*
G02*
X20400000Y29874999I0J249999D01*
G01*
X20400000Y31125001D01*
G75*
G02*
X20649999Y31375000I249999J0D01*
G01*
X21350001Y31375000D01*
G75*
G02*
X21600000Y31125001I0J-249999D01*
G01*
G37*
G36*
G01*
X22737500Y35350000D02*
X22262500Y35350000D01*
G75*
G02*
X22025000Y35587500I0J237500D01*
G01*
X22025000Y36162500D01*
G75*
G02*
X22262500Y36400000I237500J0D01*
G01*
X22737500Y36400000D01*
G75*
G02*
X22975000Y36162500I0J-237500D01*
G01*
X22975000Y35587500D01*
G75*
G02*
X22737500Y35350000I-237500J0D01*
G01*
G37*
G36*
G01*
X22737500Y33600000D02*
X22262500Y33600000D01*
G75*
G02*
X22025000Y33837500I0J237500D01*
G01*
X22025000Y34412500D01*
G75*
G02*
X22262500Y34650000I237500J0D01*
G01*
X22737500Y34650000D01*
G75*
G02*
X22975000Y34412500I0J-237500D01*
G01*
X22975000Y33837500D01*
G75*
G02*
X22737500Y33600000I-237500J0D01*
G01*
G37*
G36*
G01*
X17237500Y35350000D02*
X16762500Y35350000D01*
G75*
G02*
X16525000Y35587500I0J237500D01*
G01*
X16525000Y36162500D01*
G75*
G02*
X16762500Y36400000I237500J0D01*
G01*
X17237500Y36400000D01*
G75*
G02*
X17475000Y36162500I0J-237500D01*
G01*
X17475000Y35587500D01*
G75*
G02*
X17237500Y35350000I-237500J0D01*
G01*
G37*
G36*
G01*
X17237500Y33600000D02*
X16762500Y33600000D01*
G75*
G02*
X16525000Y33837500I0J237500D01*
G01*
X16525000Y34412500D01*
G75*
G02*
X16762500Y34650000I237500J0D01*
G01*
X17237500Y34650000D01*
G75*
G02*
X17475000Y34412500I0J-237500D01*
G01*
X17475000Y33837500D01*
G75*
G02*
X17237500Y33600000I-237500J0D01*
G01*
G37*
G36*
G01*
X11737500Y35350000D02*
X11262500Y35350000D01*
G75*
G02*
X11025000Y35587500I0J237500D01*
G01*
X11025000Y36162500D01*
G75*
G02*
X11262500Y36400000I237500J0D01*
G01*
X11737500Y36400000D01*
G75*
G02*
X11975000Y36162500I0J-237500D01*
G01*
X11975000Y35587500D01*
G75*
G02*
X11737500Y35350000I-237500J0D01*
G01*
G37*
G36*
G01*
X11737500Y33600000D02*
X11262500Y33600000D01*
G75*
G02*
X11025000Y33837500I0J237500D01*
G01*
X11025000Y34412500D01*
G75*
G02*
X11262500Y34650000I237500J0D01*
G01*
X11737500Y34650000D01*
G75*
G02*
X11975000Y34412500I0J-237500D01*
G01*
X11975000Y33837500D01*
G75*
G02*
X11737500Y33600000I-237500J0D01*
G01*
G37*
G36*
G01*
X17725000Y6320500D02*
X17725000Y6795500D01*
G75*
G02*
X17962500Y7033000I237500J0D01*
G01*
X18537500Y7033000D01*
G75*
G02*
X18775000Y6795500I0J-237500D01*
G01*
X18775000Y6320500D01*
G75*
G02*
X18537500Y6083000I-237500J0D01*
G01*
X17962500Y6083000D01*
G75*
G02*
X17725000Y6320500I0J237500D01*
G01*
G37*
G36*
G01*
X15975000Y6320500D02*
X15975000Y6795500D01*
G75*
G02*
X16212500Y7033000I237500J0D01*
G01*
X16787500Y7033000D01*
G75*
G02*
X17025000Y6795500I0J-237500D01*
G01*
X17025000Y6320500D01*
G75*
G02*
X16787500Y6083000I-237500J0D01*
G01*
X16212500Y6083000D01*
G75*
G02*
X15975000Y6320500I0J237500D01*
G01*
G37*
G36*
G01*
X15150000Y13487500D02*
X15150000Y13012500D01*
G75*
G02*
X14912500Y12775000I-237500J0D01*
G01*
X14337500Y12775000D01*
G75*
G02*
X14100000Y13012500I0J237500D01*
G01*
X14100000Y13487500D01*
G75*
G02*
X14337500Y13725000I237500J0D01*
G01*
X14912500Y13725000D01*
G75*
G02*
X15150000Y13487500I0J-237500D01*
G01*
G37*
G36*
G01*
X16900000Y13487500D02*
X16900000Y13012500D01*
G75*
G02*
X16662500Y12775000I-237500J0D01*
G01*
X16087500Y12775000D01*
G75*
G02*
X15850000Y13012500I0J237500D01*
G01*
X15850000Y13487500D01*
G75*
G02*
X16087500Y13725000I237500J0D01*
G01*
X16662500Y13725000D01*
G75*
G02*
X16900000Y13487500I0J-237500D01*
G01*
G37*
G36*
G01*
X10237500Y17850000D02*
X9762500Y17850000D01*
G75*
G02*
X9525000Y18087500I0J237500D01*
G01*
X9525000Y18662500D01*
G75*
G02*
X9762500Y18900000I237500J0D01*
G01*
X10237500Y18900000D01*
G75*
G02*
X10475000Y18662500I0J-237500D01*
G01*
X10475000Y18087500D01*
G75*
G02*
X10237500Y17850000I-237500J0D01*
G01*
G37*
G36*
G01*
X10237500Y16100000D02*
X9762500Y16100000D01*
G75*
G02*
X9525000Y16337500I0J237500D01*
G01*
X9525000Y16912500D01*
G75*
G02*
X9762500Y17150000I237500J0D01*
G01*
X10237500Y17150000D01*
G75*
G02*
X10475000Y16912500I0J-237500D01*
G01*
X10475000Y16337500D01*
G75*
G02*
X10237500Y16100000I-237500J0D01*
G01*
G37*
G36*
G01*
X14350000Y10762500D02*
X14350000Y11237500D01*
G75*
G02*
X14587500Y11475000I237500J0D01*
G01*
X15162500Y11475000D01*
G75*
G02*
X15400000Y11237500I0J-237500D01*
G01*
X15400000Y10762500D01*
G75*
G02*
X15162500Y10525000I-237500J0D01*
G01*
X14587500Y10525000D01*
G75*
G02*
X14350000Y10762500I0J237500D01*
G01*
G37*
G36*
G01*
X12600000Y10762500D02*
X12600000Y11237500D01*
G75*
G02*
X12837500Y11475000I237500J0D01*
G01*
X13412500Y11475000D01*
G75*
G02*
X13650000Y11237500I0J-237500D01*
G01*
X13650000Y10762500D01*
G75*
G02*
X13412500Y10525000I-237500J0D01*
G01*
X12837500Y10525000D01*
G75*
G02*
X12600000Y10762500I0J237500D01*
G01*
G37*
G36*
G01*
X9737500Y23350000D02*
X9262500Y23350000D01*
G75*
G02*
X9025000Y23587500I0J237500D01*
G01*
X9025000Y24162500D01*
G75*
G02*
X9262500Y24400000I237500J0D01*
G01*
X9737500Y24400000D01*
G75*
G02*
X9975000Y24162500I0J-237500D01*
G01*
X9975000Y23587500D01*
G75*
G02*
X9737500Y23350000I-237500J0D01*
G01*
G37*
G36*
G01*
X9737500Y21600000D02*
X9262500Y21600000D01*
G75*
G02*
X9025000Y21837500I0J237500D01*
G01*
X9025000Y22412500D01*
G75*
G02*
X9262500Y22650000I237500J0D01*
G01*
X9737500Y22650000D01*
G75*
G02*
X9975000Y22412500I0J-237500D01*
G01*
X9975000Y21837500D01*
G75*
G02*
X9737500Y21600000I-237500J0D01*
G01*
G37*
G36*
G01*
X28762500Y16525000D02*
X29237500Y16525000D01*
G75*
G02*
X29475000Y16287500I0J-237500D01*
G01*
X29475000Y15712500D01*
G75*
G02*
X29237500Y15475000I-237500J0D01*
G01*
X28762500Y15475000D01*
G75*
G02*
X28525000Y15712500I0J237500D01*
G01*
X28525000Y16287500D01*
G75*
G02*
X28762500Y16525000I237500J0D01*
G01*
G37*
G36*
G01*
X28762500Y18275000D02*
X29237500Y18275000D01*
G75*
G02*
X29475000Y18037500I0J-237500D01*
G01*
X29475000Y17462500D01*
G75*
G02*
X29237500Y17225000I-237500J0D01*
G01*
X28762500Y17225000D01*
G75*
G02*
X28525000Y17462500I0J237500D01*
G01*
X28525000Y18037500D01*
G75*
G02*
X28762500Y18275000I237500J0D01*
G01*
G37*
D26*
X13581100Y12568100D03*
X22422750Y12077250D03*
X21270000Y25909300D03*
X14185900Y18032700D03*
X16009300Y20007800D03*
X22924100Y19080000D03*
X22872300Y7752400D03*
X16646600Y20874400D03*
X25394000Y28974900D03*
X15053600Y22055100D03*
X14328200Y21017400D03*
X14203700Y19909500D03*
X19839900Y20012700D03*
X28782700Y19744700D03*
M02*
