G04 #@! TF.GenerationSoftware,KiCad,Pcbnew,(5.1.9)-1*
G04 #@! TF.CreationDate,2021-08-03T23:26:31+09:00*
G04 #@! TF.ProjectId,IMU_BNO055_20210802,494d555f-424e-44f3-9035-355f32303231,rev?*
G04 #@! TF.SameCoordinates,PX6dac2c0PY6dac2c0*
G04 #@! TF.FileFunction,Copper,L2,Bot*
G04 #@! TF.FilePolarity,Positive*
%FSLAX46Y46*%
G04 Gerber Fmt 4.6, Leading zero omitted, Abs format (unit mm)*
G04 Created by KiCad (PCBNEW (5.1.9)-1) date 2021-08-03 23:26:31*
%MOMM*%
%LPD*%
G01*
G04 APERTURE LIST*
G04 #@! TA.AperFunction,ComponentPad*
%ADD10C,1.250000*%
G04 #@! TD*
G04 #@! TA.AperFunction,ComponentPad*
%ADD11R,1.250000X1.250000*%
G04 #@! TD*
G04 #@! TA.AperFunction,ComponentPad*
%ADD12O,1.700000X1.700000*%
G04 #@! TD*
G04 #@! TA.AperFunction,ComponentPad*
%ADD13R,1.700000X1.700000*%
G04 #@! TD*
G04 #@! TA.AperFunction,ComponentPad*
%ADD14O,1.200000X1.750000*%
G04 #@! TD*
G04 #@! TA.AperFunction,ViaPad*
%ADD15C,0.800000*%
G04 #@! TD*
G04 #@! TA.AperFunction,Conductor*
%ADD16C,0.250000*%
G04 #@! TD*
G04 #@! TA.AperFunction,Conductor*
%ADD17C,0.254000*%
G04 #@! TD*
G04 #@! TA.AperFunction,Conductor*
%ADD18C,0.100000*%
G04 #@! TD*
G04 APERTURE END LIST*
D10*
X6500000Y13000000D03*
X6500000Y14500000D03*
X6500000Y16000000D03*
X6500000Y17500000D03*
X6500000Y19000000D03*
D11*
X6500000Y20500000D03*
D12*
X25500000Y26000000D03*
X25500000Y23460000D03*
X25500000Y20920000D03*
X25500000Y18380000D03*
X25500000Y15840000D03*
X25500000Y13300000D03*
X25500000Y10760000D03*
D13*
X25500000Y8220000D03*
D14*
X13000000Y30500000D03*
X15000000Y30500000D03*
X17000000Y30500000D03*
X19000000Y30500000D03*
G04 #@! TA.AperFunction,ComponentPad*
G36*
G01*
X21600000Y31125001D02*
X21600000Y29874999D01*
G75*
G02*
X21350001Y29625000I-249999J0D01*
G01*
X20649999Y29625000D01*
G75*
G02*
X20400000Y29874999I0J249999D01*
G01*
X20400000Y31125001D01*
G75*
G02*
X20649999Y31375000I249999J0D01*
G01*
X21350001Y31375000D01*
G75*
G02*
X21600000Y31125001I0J-249999D01*
G01*
G37*
G04 #@! TD.AperFunction*
D15*
X13581100Y12568100D03*
X22422750Y12077250D03*
X21270000Y25909300D03*
X14185900Y18032700D03*
X16009300Y20007800D03*
X22924100Y19080000D03*
X22872300Y7752400D03*
X16646600Y20874400D03*
X25394000Y28974900D03*
X15053600Y22055100D03*
X14328200Y21017400D03*
X14203700Y19909500D03*
X19839900Y20012700D03*
X28782700Y19744700D03*
D16*
X13581100Y12568100D02*
X6931900Y12568100D01*
X6931900Y12568100D02*
X6500000Y13000000D01*
X24324700Y10760000D02*
X24130600Y10565900D01*
X24130600Y10565900D02*
X15583300Y10565900D01*
X15583300Y10565900D02*
X13581100Y12568100D01*
X25500000Y10760000D02*
X24324700Y10760000D01*
X6500000Y16000000D02*
X9129500Y18629500D01*
X9129500Y18629500D02*
X9129500Y28236900D01*
X9129500Y28236900D02*
X12599400Y31706800D01*
X12599400Y31706800D02*
X19384200Y31706800D01*
X19384200Y31706800D02*
X19999500Y31091500D01*
X19999500Y31091500D02*
X19999500Y27179800D01*
X19999500Y27179800D02*
X21270000Y25909300D01*
X16074700Y30500000D02*
X16074700Y25658000D01*
X16074700Y25658000D02*
X13478400Y23061700D01*
X13478400Y23061700D02*
X13478400Y18740200D01*
X13478400Y18740200D02*
X14185900Y18032700D01*
X17000000Y30500000D02*
X16074700Y30500000D01*
X24324700Y26000000D02*
X18332500Y20007800D01*
X18332500Y20007800D02*
X16009300Y20007800D01*
X25500000Y26000000D02*
X24324700Y26000000D01*
X22872300Y7752400D02*
X24515300Y9395400D01*
X24515300Y9395400D02*
X25865400Y9395400D01*
X25865400Y9395400D02*
X26675400Y10205400D01*
X26675400Y10205400D02*
X26675400Y16355400D01*
X26675400Y16355400D02*
X26015400Y17015400D01*
X26015400Y17015400D02*
X24988700Y17015400D01*
X24988700Y17015400D02*
X22924100Y19080000D01*
X25394000Y28974900D02*
X17293500Y20874400D01*
X17293500Y20874400D02*
X16646600Y20874400D01*
X18074700Y30500000D02*
X18074700Y25076200D01*
X18074700Y25076200D02*
X15053600Y22055100D01*
X19000000Y30500000D02*
X18074700Y30500000D01*
X24324700Y15840000D02*
X19151400Y15840000D01*
X19151400Y15840000D02*
X15170300Y19821100D01*
X15170300Y19821100D02*
X15170300Y20175300D01*
X15170300Y20175300D02*
X14328200Y21017400D01*
X25500000Y15840000D02*
X24324700Y15840000D01*
X25500000Y13300000D02*
X20813200Y13300000D01*
X20813200Y13300000D02*
X14203700Y19909500D01*
X19839900Y20012700D02*
X23017300Y20012700D01*
X23017300Y20012700D02*
X23285300Y19744700D01*
X23285300Y19744700D02*
X28782700Y19744700D01*
D17*
X29815000Y26510000D02*
X29700524Y26510000D01*
X29505394Y26471186D01*
X29321586Y26395050D01*
X29156163Y26284518D01*
X29015482Y26143837D01*
X29000000Y26120667D01*
X28984518Y26143837D01*
X28843837Y26284518D01*
X28678414Y26395050D01*
X28494606Y26471186D01*
X28299476Y26510000D01*
X28100524Y26510000D01*
X27905394Y26471186D01*
X27721586Y26395050D01*
X27556163Y26284518D01*
X27415482Y26143837D01*
X27304950Y25978414D01*
X27228814Y25794606D01*
X27190000Y25599476D01*
X27190000Y25400524D01*
X27228814Y25205394D01*
X27304950Y25021586D01*
X27415482Y24856163D01*
X27556163Y24715482D01*
X27721586Y24604950D01*
X27905394Y24528814D01*
X28100524Y24490000D01*
X28299476Y24490000D01*
X28494606Y24528814D01*
X28678414Y24604950D01*
X28843837Y24715482D01*
X28984518Y24856163D01*
X29000000Y24879333D01*
X29015482Y24856163D01*
X29156163Y24715482D01*
X29321586Y24604950D01*
X29505394Y24528814D01*
X29700524Y24490000D01*
X29815000Y24490000D01*
X29815001Y19860210D01*
X29777926Y20046598D01*
X29699905Y20234956D01*
X29586637Y20404474D01*
X29442474Y20548637D01*
X29272956Y20661905D01*
X29084598Y20739926D01*
X28884639Y20779700D01*
X28680761Y20779700D01*
X28480802Y20739926D01*
X28292444Y20661905D01*
X28122926Y20548637D01*
X28078989Y20504700D01*
X26931484Y20504700D01*
X26985000Y20773740D01*
X26985000Y21066260D01*
X26927932Y21353158D01*
X26815990Y21623411D01*
X26653475Y21866632D01*
X26446632Y22073475D01*
X26272240Y22190000D01*
X26446632Y22306525D01*
X26653475Y22513368D01*
X26815990Y22756589D01*
X26927932Y23026842D01*
X26985000Y23313740D01*
X26985000Y23606260D01*
X26927932Y23893158D01*
X26815990Y24163411D01*
X26653475Y24406632D01*
X26446632Y24613475D01*
X26272240Y24730000D01*
X26446632Y24846525D01*
X26653475Y25053368D01*
X26815990Y25296589D01*
X26927932Y25566842D01*
X26985000Y25853740D01*
X26985000Y26146260D01*
X26927932Y26433158D01*
X26815990Y26703411D01*
X26653475Y26946632D01*
X26446632Y27153475D01*
X26203411Y27315990D01*
X25933158Y27427932D01*
X25646260Y27485000D01*
X25353740Y27485000D01*
X25066842Y27427932D01*
X24819298Y27325396D01*
X25433802Y27939900D01*
X25495939Y27939900D01*
X25695898Y27979674D01*
X25884256Y28057695D01*
X26053774Y28170963D01*
X26197937Y28315126D01*
X26311205Y28484644D01*
X26389226Y28673002D01*
X26429000Y28872961D01*
X26429000Y29076839D01*
X26389226Y29276798D01*
X26311205Y29465156D01*
X26197937Y29634674D01*
X26053774Y29778837D01*
X25884256Y29892105D01*
X25695898Y29970126D01*
X25495939Y30009900D01*
X25292061Y30009900D01*
X25092102Y29970126D01*
X24903744Y29892105D01*
X24734226Y29778837D01*
X24590063Y29634674D01*
X24476795Y29465156D01*
X24398774Y29276798D01*
X24359000Y29076839D01*
X24359000Y29014702D01*
X21993655Y26649356D01*
X21929774Y26713237D01*
X21760256Y26826505D01*
X21571898Y26904526D01*
X21371939Y26944300D01*
X21309802Y26944300D01*
X20759500Y27494601D01*
X20759500Y28986928D01*
X21350001Y28986928D01*
X21523255Y29003992D01*
X21689851Y29054528D01*
X21843387Y29136595D01*
X21977962Y29247038D01*
X22088405Y29381613D01*
X22170472Y29535149D01*
X22221008Y29701745D01*
X22238072Y29874999D01*
X22238072Y30670883D01*
X26265000Y30670883D01*
X26265000Y30329117D01*
X26331675Y29993919D01*
X26462463Y29678169D01*
X26652337Y29394002D01*
X26894002Y29152337D01*
X27178169Y28962463D01*
X27493919Y28831675D01*
X27829117Y28765000D01*
X28170883Y28765000D01*
X28506081Y28831675D01*
X28821831Y28962463D01*
X29105998Y29152337D01*
X29347663Y29394002D01*
X29537537Y29678169D01*
X29668325Y29993919D01*
X29735000Y30329117D01*
X29735000Y30670883D01*
X29668325Y31006081D01*
X29537537Y31321831D01*
X29347663Y31605998D01*
X29105998Y31847663D01*
X28821831Y32037537D01*
X28506081Y32168325D01*
X28170883Y32235000D01*
X27829117Y32235000D01*
X27493919Y32168325D01*
X27178169Y32037537D01*
X26894002Y31847663D01*
X26652337Y31605998D01*
X26462463Y31321831D01*
X26331675Y31006081D01*
X26265000Y30670883D01*
X22238072Y30670883D01*
X22238072Y31125001D01*
X22221008Y31298255D01*
X22170472Y31464851D01*
X22088405Y31618387D01*
X21977962Y31752962D01*
X21843387Y31863405D01*
X21689851Y31945472D01*
X21523255Y31996008D01*
X21350001Y32013072D01*
X20649999Y32013072D01*
X20476745Y31996008D01*
X20310149Y31945472D01*
X20251616Y31914185D01*
X19948003Y32217798D01*
X19924201Y32246801D01*
X19808476Y32341774D01*
X19676447Y32412346D01*
X19533186Y32455803D01*
X19421533Y32466800D01*
X19421522Y32466800D01*
X19384200Y32470476D01*
X19346878Y32466800D01*
X12636725Y32466800D01*
X12599400Y32470476D01*
X12562075Y32466800D01*
X12562067Y32466800D01*
X12450414Y32455803D01*
X12307153Y32412346D01*
X12175124Y32341774D01*
X12059399Y32246801D01*
X12035601Y32217803D01*
X8618498Y28800699D01*
X8589500Y28776901D01*
X8565702Y28747903D01*
X8565701Y28747902D01*
X8494526Y28661176D01*
X8423954Y28529146D01*
X8380498Y28385885D01*
X8365824Y28236900D01*
X8369501Y28199568D01*
X8369500Y18944302D01*
X7578720Y18153522D01*
X7514255Y18250000D01*
X7616598Y18403166D01*
X7711579Y18632471D01*
X7760000Y18875901D01*
X7760000Y19124099D01*
X7711579Y19367529D01*
X7650670Y19514576D01*
X7655537Y19520506D01*
X7714502Y19630820D01*
X7750812Y19750518D01*
X7763072Y19875000D01*
X7763072Y21125000D01*
X7750812Y21249482D01*
X7714502Y21369180D01*
X7655537Y21479494D01*
X7576185Y21576185D01*
X7479494Y21655537D01*
X7369180Y21714502D01*
X7249482Y21750812D01*
X7125000Y21763072D01*
X5875000Y21763072D01*
X5750518Y21750812D01*
X5630820Y21714502D01*
X5520506Y21655537D01*
X5423815Y21576185D01*
X5344463Y21479494D01*
X5285498Y21369180D01*
X5249188Y21249482D01*
X5236928Y21125000D01*
X5236928Y19875000D01*
X5249188Y19750518D01*
X5285498Y19630820D01*
X5344463Y19520506D01*
X5349330Y19514576D01*
X5288421Y19367529D01*
X5240000Y19124099D01*
X5240000Y18875901D01*
X5288421Y18632471D01*
X5383402Y18403166D01*
X5485745Y18250000D01*
X5383402Y18096834D01*
X5288421Y17867529D01*
X5240000Y17624099D01*
X5240000Y17375901D01*
X5288421Y17132471D01*
X5383402Y16903166D01*
X5485745Y16750000D01*
X5383402Y16596834D01*
X5288421Y16367529D01*
X5240000Y16124099D01*
X5240000Y15875901D01*
X5288421Y15632471D01*
X5383402Y15403166D01*
X5485745Y15250000D01*
X5383402Y15096834D01*
X5288421Y14867529D01*
X5240000Y14624099D01*
X5240000Y14375901D01*
X5288421Y14132471D01*
X5383402Y13903166D01*
X5521294Y13696797D01*
X5548678Y13669413D01*
X5406223Y13637694D01*
X5302832Y13412056D01*
X5245447Y13170582D01*
X5236274Y12922553D01*
X5275665Y12677501D01*
X5362107Y12444842D01*
X5406223Y12362306D01*
X5632352Y12311957D01*
X6320395Y13000000D01*
X6306253Y13014142D01*
X6485858Y13193747D01*
X6500000Y13179605D01*
X6514143Y13193747D01*
X6693748Y13014142D01*
X6679605Y13000000D01*
X7367648Y12311957D01*
X7593777Y12362306D01*
X7697168Y12587944D01*
X7754553Y12829418D01*
X7763726Y13077447D01*
X7724335Y13322499D01*
X7637893Y13555158D01*
X7593777Y13637694D01*
X7451322Y13669413D01*
X7478706Y13696797D01*
X7616598Y13903166D01*
X7711579Y14132471D01*
X7760000Y14375901D01*
X7760000Y14624099D01*
X7711579Y14867529D01*
X7616598Y15096834D01*
X7514255Y15250000D01*
X7616598Y15403166D01*
X7711579Y15632471D01*
X7760000Y15875901D01*
X7760000Y16124099D01*
X7749863Y16175062D01*
X9640504Y18065702D01*
X9669501Y18089499D01*
X9764474Y18205224D01*
X9835046Y18337253D01*
X9878503Y18480514D01*
X9889500Y18592167D01*
X9889500Y18592168D01*
X9893177Y18629500D01*
X9889500Y18666833D01*
X9889500Y27922099D01*
X11817465Y29850063D01*
X11907610Y29635054D01*
X12043693Y29433275D01*
X12216526Y29261922D01*
X12419467Y29127579D01*
X12644718Y29035409D01*
X12682391Y29031538D01*
X12873000Y29156269D01*
X12873000Y30373000D01*
X12853000Y30373000D01*
X12853000Y30627000D01*
X12873000Y30627000D01*
X12873000Y30647000D01*
X13127000Y30647000D01*
X13127000Y30627000D01*
X13147000Y30627000D01*
X13147000Y30373000D01*
X13127000Y30373000D01*
X13127000Y29156269D01*
X13317609Y29031538D01*
X13355282Y29035409D01*
X13580533Y29127579D01*
X13783474Y29261922D01*
X13956307Y29433275D01*
X13999519Y29497349D01*
X14122498Y29347498D01*
X14310551Y29193167D01*
X14525099Y29078489D01*
X14757898Y29007870D01*
X15000000Y28984025D01*
X15242101Y29007870D01*
X15314700Y29029893D01*
X15314701Y25972803D01*
X12967403Y23625504D01*
X12938399Y23601701D01*
X12883271Y23534526D01*
X12843426Y23485976D01*
X12772855Y23353947D01*
X12772854Y23353946D01*
X12729397Y23210685D01*
X12718400Y23099032D01*
X12718400Y23099022D01*
X12714724Y23061700D01*
X12718400Y23024377D01*
X12718401Y18777532D01*
X12714724Y18740200D01*
X12718401Y18702867D01*
X12725335Y18632471D01*
X12729398Y18591215D01*
X12772854Y18447954D01*
X12843426Y18315924D01*
X12895067Y18253000D01*
X12938400Y18200199D01*
X12967398Y18176401D01*
X13150900Y17992899D01*
X13150900Y17930761D01*
X13190674Y17730802D01*
X13268695Y17542444D01*
X13381963Y17372926D01*
X13526126Y17228763D01*
X13695644Y17115495D01*
X13884002Y17037474D01*
X14083961Y16997700D01*
X14287839Y16997700D01*
X14487798Y17037474D01*
X14676156Y17115495D01*
X14845674Y17228763D01*
X14989837Y17372926D01*
X15103105Y17542444D01*
X15181126Y17730802D01*
X15202109Y17836290D01*
X20249401Y12788997D01*
X20273199Y12759999D01*
X20302197Y12736201D01*
X20388924Y12665026D01*
X20520953Y12594454D01*
X20664214Y12550997D01*
X20813200Y12536323D01*
X20850533Y12540000D01*
X24221822Y12540000D01*
X24346525Y12353368D01*
X24553368Y12146525D01*
X24735534Y12024805D01*
X24618645Y11955178D01*
X24402412Y11760269D01*
X24228359Y11526920D01*
X24103175Y11264099D01*
X24058524Y11116890D01*
X24179845Y10887000D01*
X25373000Y10887000D01*
X25373000Y10907000D01*
X25627000Y10907000D01*
X25627000Y10887000D01*
X25647000Y10887000D01*
X25647000Y10633000D01*
X25627000Y10633000D01*
X25627000Y10613000D01*
X25373000Y10613000D01*
X25373000Y10633000D01*
X24179845Y10633000D01*
X24058524Y10403110D01*
X24103175Y10255901D01*
X24186331Y10081317D01*
X24091023Y10030374D01*
X24045581Y9993080D01*
X23975299Y9935401D01*
X23951501Y9906403D01*
X22832499Y8787400D01*
X22770361Y8787400D01*
X22570402Y8747626D01*
X22382044Y8669605D01*
X22212526Y8556337D01*
X22068363Y8412174D01*
X21955095Y8242656D01*
X21877074Y8054298D01*
X21837300Y7854339D01*
X21837300Y7650461D01*
X21877074Y7450502D01*
X21955095Y7262144D01*
X22068363Y7092626D01*
X22212526Y6948463D01*
X22382044Y6835195D01*
X22570402Y6757174D01*
X22770361Y6717400D01*
X22974239Y6717400D01*
X23174198Y6757174D01*
X23362556Y6835195D01*
X23532074Y6948463D01*
X23676237Y7092626D01*
X23789505Y7262144D01*
X23867526Y7450502D01*
X23907300Y7650461D01*
X23907300Y7712599D01*
X24011928Y7817227D01*
X24011928Y7370000D01*
X24024188Y7245518D01*
X24060498Y7125820D01*
X24119463Y7015506D01*
X24198815Y6918815D01*
X24295506Y6839463D01*
X24405820Y6780498D01*
X24525518Y6744188D01*
X24650000Y6731928D01*
X26350000Y6731928D01*
X26474482Y6744188D01*
X26594180Y6780498D01*
X26704494Y6839463D01*
X26801185Y6918815D01*
X26880537Y7015506D01*
X26939502Y7125820D01*
X26975812Y7245518D01*
X26988072Y7370000D01*
X26988072Y9070000D01*
X26975812Y9194482D01*
X26939502Y9314180D01*
X26911454Y9366653D01*
X27186404Y9641602D01*
X27215401Y9665399D01*
X27250422Y9708072D01*
X27310374Y9781123D01*
X27380946Y9913153D01*
X27387695Y9935401D01*
X27424403Y10056414D01*
X27435400Y10168067D01*
X27435400Y10168077D01*
X27439076Y10205400D01*
X27435400Y10242722D01*
X27435400Y16318077D01*
X27439076Y16355400D01*
X27435400Y16392723D01*
X27435400Y16392733D01*
X27424403Y16504386D01*
X27380946Y16647647D01*
X27310374Y16779677D01*
X27239199Y16866403D01*
X27215401Y16895401D01*
X27186402Y16919200D01*
X26652394Y17453208D01*
X26771641Y17613080D01*
X26896825Y17875901D01*
X26941476Y18023110D01*
X26820155Y18253000D01*
X25627000Y18253000D01*
X25627000Y18233000D01*
X25373000Y18233000D01*
X25373000Y18253000D01*
X25353000Y18253000D01*
X25353000Y18507000D01*
X25373000Y18507000D01*
X25373000Y18527000D01*
X25627000Y18527000D01*
X25627000Y18507000D01*
X26820155Y18507000D01*
X26941476Y18736890D01*
X26896825Y18884099D01*
X26848908Y18984700D01*
X28078989Y18984700D01*
X28122926Y18940763D01*
X28292444Y18827495D01*
X28480802Y18749474D01*
X28680761Y18709700D01*
X28884639Y18709700D01*
X29084598Y18749474D01*
X29272956Y18827495D01*
X29442474Y18940763D01*
X29586637Y19084926D01*
X29699905Y19254444D01*
X29777926Y19442802D01*
X29815001Y19629190D01*
X29815001Y11207404D01*
X26133400Y5685000D01*
X8366601Y5685000D01*
X4685000Y11207400D01*
X4685000Y12132352D01*
X5811957Y12132352D01*
X5862306Y11906223D01*
X6087944Y11802832D01*
X6329418Y11745447D01*
X6577447Y11736274D01*
X6822499Y11775665D01*
X7055158Y11862107D01*
X7137694Y11906223D01*
X7188043Y12132352D01*
X6500000Y12820395D01*
X5811957Y12132352D01*
X4685000Y12132352D01*
X4685000Y24490000D01*
X4799476Y24490000D01*
X4994606Y24528814D01*
X5178414Y24604950D01*
X5343837Y24715482D01*
X5484518Y24856163D01*
X5500000Y24879333D01*
X5515482Y24856163D01*
X5656163Y24715482D01*
X5821586Y24604950D01*
X6005394Y24528814D01*
X6200524Y24490000D01*
X6399476Y24490000D01*
X6594606Y24528814D01*
X6778414Y24604950D01*
X6943837Y24715482D01*
X7084518Y24856163D01*
X7195050Y25021586D01*
X7271186Y25205394D01*
X7310000Y25400524D01*
X7310000Y25599476D01*
X7271186Y25794606D01*
X7195050Y25978414D01*
X7084518Y26143837D01*
X6943837Y26284518D01*
X6778414Y26395050D01*
X6594606Y26471186D01*
X6399476Y26510000D01*
X6200524Y26510000D01*
X6005394Y26471186D01*
X5821586Y26395050D01*
X5656163Y26284518D01*
X5515482Y26143837D01*
X5500000Y26120667D01*
X5484518Y26143837D01*
X5343837Y26284518D01*
X5178414Y26395050D01*
X4994606Y26471186D01*
X4799476Y26510000D01*
X4685000Y26510000D01*
X4685000Y30670883D01*
X4765000Y30670883D01*
X4765000Y30329117D01*
X4831675Y29993919D01*
X4962463Y29678169D01*
X5152337Y29394002D01*
X5394002Y29152337D01*
X5678169Y28962463D01*
X5993919Y28831675D01*
X6329117Y28765000D01*
X6670883Y28765000D01*
X7006081Y28831675D01*
X7321831Y28962463D01*
X7605998Y29152337D01*
X7847663Y29394002D01*
X8037537Y29678169D01*
X8168325Y29993919D01*
X8235000Y30329117D01*
X8235000Y30670883D01*
X8168325Y31006081D01*
X8037537Y31321831D01*
X7847663Y31605998D01*
X7605998Y31847663D01*
X7321831Y32037537D01*
X7006081Y32168325D01*
X6670883Y32235000D01*
X6329117Y32235000D01*
X5993919Y32168325D01*
X5678169Y32037537D01*
X5394002Y31847663D01*
X5152337Y31605998D01*
X4962463Y31321831D01*
X4831675Y31006081D01*
X4765000Y30670883D01*
X4685000Y30670883D01*
X4685000Y36315000D01*
X29815000Y36315000D01*
X29815000Y26510000D01*
G04 #@! TA.AperFunction,Conductor*
D18*
G36*
X29815000Y26510000D02*
G01*
X29700524Y26510000D01*
X29505394Y26471186D01*
X29321586Y26395050D01*
X29156163Y26284518D01*
X29015482Y26143837D01*
X29000000Y26120667D01*
X28984518Y26143837D01*
X28843837Y26284518D01*
X28678414Y26395050D01*
X28494606Y26471186D01*
X28299476Y26510000D01*
X28100524Y26510000D01*
X27905394Y26471186D01*
X27721586Y26395050D01*
X27556163Y26284518D01*
X27415482Y26143837D01*
X27304950Y25978414D01*
X27228814Y25794606D01*
X27190000Y25599476D01*
X27190000Y25400524D01*
X27228814Y25205394D01*
X27304950Y25021586D01*
X27415482Y24856163D01*
X27556163Y24715482D01*
X27721586Y24604950D01*
X27905394Y24528814D01*
X28100524Y24490000D01*
X28299476Y24490000D01*
X28494606Y24528814D01*
X28678414Y24604950D01*
X28843837Y24715482D01*
X28984518Y24856163D01*
X29000000Y24879333D01*
X29015482Y24856163D01*
X29156163Y24715482D01*
X29321586Y24604950D01*
X29505394Y24528814D01*
X29700524Y24490000D01*
X29815000Y24490000D01*
X29815001Y19860210D01*
X29777926Y20046598D01*
X29699905Y20234956D01*
X29586637Y20404474D01*
X29442474Y20548637D01*
X29272956Y20661905D01*
X29084598Y20739926D01*
X28884639Y20779700D01*
X28680761Y20779700D01*
X28480802Y20739926D01*
X28292444Y20661905D01*
X28122926Y20548637D01*
X28078989Y20504700D01*
X26931484Y20504700D01*
X26985000Y20773740D01*
X26985000Y21066260D01*
X26927932Y21353158D01*
X26815990Y21623411D01*
X26653475Y21866632D01*
X26446632Y22073475D01*
X26272240Y22190000D01*
X26446632Y22306525D01*
X26653475Y22513368D01*
X26815990Y22756589D01*
X26927932Y23026842D01*
X26985000Y23313740D01*
X26985000Y23606260D01*
X26927932Y23893158D01*
X26815990Y24163411D01*
X26653475Y24406632D01*
X26446632Y24613475D01*
X26272240Y24730000D01*
X26446632Y24846525D01*
X26653475Y25053368D01*
X26815990Y25296589D01*
X26927932Y25566842D01*
X26985000Y25853740D01*
X26985000Y26146260D01*
X26927932Y26433158D01*
X26815990Y26703411D01*
X26653475Y26946632D01*
X26446632Y27153475D01*
X26203411Y27315990D01*
X25933158Y27427932D01*
X25646260Y27485000D01*
X25353740Y27485000D01*
X25066842Y27427932D01*
X24819298Y27325396D01*
X25433802Y27939900D01*
X25495939Y27939900D01*
X25695898Y27979674D01*
X25884256Y28057695D01*
X26053774Y28170963D01*
X26197937Y28315126D01*
X26311205Y28484644D01*
X26389226Y28673002D01*
X26429000Y28872961D01*
X26429000Y29076839D01*
X26389226Y29276798D01*
X26311205Y29465156D01*
X26197937Y29634674D01*
X26053774Y29778837D01*
X25884256Y29892105D01*
X25695898Y29970126D01*
X25495939Y30009900D01*
X25292061Y30009900D01*
X25092102Y29970126D01*
X24903744Y29892105D01*
X24734226Y29778837D01*
X24590063Y29634674D01*
X24476795Y29465156D01*
X24398774Y29276798D01*
X24359000Y29076839D01*
X24359000Y29014702D01*
X21993655Y26649356D01*
X21929774Y26713237D01*
X21760256Y26826505D01*
X21571898Y26904526D01*
X21371939Y26944300D01*
X21309802Y26944300D01*
X20759500Y27494601D01*
X20759500Y28986928D01*
X21350001Y28986928D01*
X21523255Y29003992D01*
X21689851Y29054528D01*
X21843387Y29136595D01*
X21977962Y29247038D01*
X22088405Y29381613D01*
X22170472Y29535149D01*
X22221008Y29701745D01*
X22238072Y29874999D01*
X22238072Y30670883D01*
X26265000Y30670883D01*
X26265000Y30329117D01*
X26331675Y29993919D01*
X26462463Y29678169D01*
X26652337Y29394002D01*
X26894002Y29152337D01*
X27178169Y28962463D01*
X27493919Y28831675D01*
X27829117Y28765000D01*
X28170883Y28765000D01*
X28506081Y28831675D01*
X28821831Y28962463D01*
X29105998Y29152337D01*
X29347663Y29394002D01*
X29537537Y29678169D01*
X29668325Y29993919D01*
X29735000Y30329117D01*
X29735000Y30670883D01*
X29668325Y31006081D01*
X29537537Y31321831D01*
X29347663Y31605998D01*
X29105998Y31847663D01*
X28821831Y32037537D01*
X28506081Y32168325D01*
X28170883Y32235000D01*
X27829117Y32235000D01*
X27493919Y32168325D01*
X27178169Y32037537D01*
X26894002Y31847663D01*
X26652337Y31605998D01*
X26462463Y31321831D01*
X26331675Y31006081D01*
X26265000Y30670883D01*
X22238072Y30670883D01*
X22238072Y31125001D01*
X22221008Y31298255D01*
X22170472Y31464851D01*
X22088405Y31618387D01*
X21977962Y31752962D01*
X21843387Y31863405D01*
X21689851Y31945472D01*
X21523255Y31996008D01*
X21350001Y32013072D01*
X20649999Y32013072D01*
X20476745Y31996008D01*
X20310149Y31945472D01*
X20251616Y31914185D01*
X19948003Y32217798D01*
X19924201Y32246801D01*
X19808476Y32341774D01*
X19676447Y32412346D01*
X19533186Y32455803D01*
X19421533Y32466800D01*
X19421522Y32466800D01*
X19384200Y32470476D01*
X19346878Y32466800D01*
X12636725Y32466800D01*
X12599400Y32470476D01*
X12562075Y32466800D01*
X12562067Y32466800D01*
X12450414Y32455803D01*
X12307153Y32412346D01*
X12175124Y32341774D01*
X12059399Y32246801D01*
X12035601Y32217803D01*
X8618498Y28800699D01*
X8589500Y28776901D01*
X8565702Y28747903D01*
X8565701Y28747902D01*
X8494526Y28661176D01*
X8423954Y28529146D01*
X8380498Y28385885D01*
X8365824Y28236900D01*
X8369501Y28199568D01*
X8369500Y18944302D01*
X7578720Y18153522D01*
X7514255Y18250000D01*
X7616598Y18403166D01*
X7711579Y18632471D01*
X7760000Y18875901D01*
X7760000Y19124099D01*
X7711579Y19367529D01*
X7650670Y19514576D01*
X7655537Y19520506D01*
X7714502Y19630820D01*
X7750812Y19750518D01*
X7763072Y19875000D01*
X7763072Y21125000D01*
X7750812Y21249482D01*
X7714502Y21369180D01*
X7655537Y21479494D01*
X7576185Y21576185D01*
X7479494Y21655537D01*
X7369180Y21714502D01*
X7249482Y21750812D01*
X7125000Y21763072D01*
X5875000Y21763072D01*
X5750518Y21750812D01*
X5630820Y21714502D01*
X5520506Y21655537D01*
X5423815Y21576185D01*
X5344463Y21479494D01*
X5285498Y21369180D01*
X5249188Y21249482D01*
X5236928Y21125000D01*
X5236928Y19875000D01*
X5249188Y19750518D01*
X5285498Y19630820D01*
X5344463Y19520506D01*
X5349330Y19514576D01*
X5288421Y19367529D01*
X5240000Y19124099D01*
X5240000Y18875901D01*
X5288421Y18632471D01*
X5383402Y18403166D01*
X5485745Y18250000D01*
X5383402Y18096834D01*
X5288421Y17867529D01*
X5240000Y17624099D01*
X5240000Y17375901D01*
X5288421Y17132471D01*
X5383402Y16903166D01*
X5485745Y16750000D01*
X5383402Y16596834D01*
X5288421Y16367529D01*
X5240000Y16124099D01*
X5240000Y15875901D01*
X5288421Y15632471D01*
X5383402Y15403166D01*
X5485745Y15250000D01*
X5383402Y15096834D01*
X5288421Y14867529D01*
X5240000Y14624099D01*
X5240000Y14375901D01*
X5288421Y14132471D01*
X5383402Y13903166D01*
X5521294Y13696797D01*
X5548678Y13669413D01*
X5406223Y13637694D01*
X5302832Y13412056D01*
X5245447Y13170582D01*
X5236274Y12922553D01*
X5275665Y12677501D01*
X5362107Y12444842D01*
X5406223Y12362306D01*
X5632352Y12311957D01*
X6320395Y13000000D01*
X6306253Y13014142D01*
X6485858Y13193747D01*
X6500000Y13179605D01*
X6514143Y13193747D01*
X6693748Y13014142D01*
X6679605Y13000000D01*
X7367648Y12311957D01*
X7593777Y12362306D01*
X7697168Y12587944D01*
X7754553Y12829418D01*
X7763726Y13077447D01*
X7724335Y13322499D01*
X7637893Y13555158D01*
X7593777Y13637694D01*
X7451322Y13669413D01*
X7478706Y13696797D01*
X7616598Y13903166D01*
X7711579Y14132471D01*
X7760000Y14375901D01*
X7760000Y14624099D01*
X7711579Y14867529D01*
X7616598Y15096834D01*
X7514255Y15250000D01*
X7616598Y15403166D01*
X7711579Y15632471D01*
X7760000Y15875901D01*
X7760000Y16124099D01*
X7749863Y16175062D01*
X9640504Y18065702D01*
X9669501Y18089499D01*
X9764474Y18205224D01*
X9835046Y18337253D01*
X9878503Y18480514D01*
X9889500Y18592167D01*
X9889500Y18592168D01*
X9893177Y18629500D01*
X9889500Y18666833D01*
X9889500Y27922099D01*
X11817465Y29850063D01*
X11907610Y29635054D01*
X12043693Y29433275D01*
X12216526Y29261922D01*
X12419467Y29127579D01*
X12644718Y29035409D01*
X12682391Y29031538D01*
X12873000Y29156269D01*
X12873000Y30373000D01*
X12853000Y30373000D01*
X12853000Y30627000D01*
X12873000Y30627000D01*
X12873000Y30647000D01*
X13127000Y30647000D01*
X13127000Y30627000D01*
X13147000Y30627000D01*
X13147000Y30373000D01*
X13127000Y30373000D01*
X13127000Y29156269D01*
X13317609Y29031538D01*
X13355282Y29035409D01*
X13580533Y29127579D01*
X13783474Y29261922D01*
X13956307Y29433275D01*
X13999519Y29497349D01*
X14122498Y29347498D01*
X14310551Y29193167D01*
X14525099Y29078489D01*
X14757898Y29007870D01*
X15000000Y28984025D01*
X15242101Y29007870D01*
X15314700Y29029893D01*
X15314701Y25972803D01*
X12967403Y23625504D01*
X12938399Y23601701D01*
X12883271Y23534526D01*
X12843426Y23485976D01*
X12772855Y23353947D01*
X12772854Y23353946D01*
X12729397Y23210685D01*
X12718400Y23099032D01*
X12718400Y23099022D01*
X12714724Y23061700D01*
X12718400Y23024377D01*
X12718401Y18777532D01*
X12714724Y18740200D01*
X12718401Y18702867D01*
X12725335Y18632471D01*
X12729398Y18591215D01*
X12772854Y18447954D01*
X12843426Y18315924D01*
X12895067Y18253000D01*
X12938400Y18200199D01*
X12967398Y18176401D01*
X13150900Y17992899D01*
X13150900Y17930761D01*
X13190674Y17730802D01*
X13268695Y17542444D01*
X13381963Y17372926D01*
X13526126Y17228763D01*
X13695644Y17115495D01*
X13884002Y17037474D01*
X14083961Y16997700D01*
X14287839Y16997700D01*
X14487798Y17037474D01*
X14676156Y17115495D01*
X14845674Y17228763D01*
X14989837Y17372926D01*
X15103105Y17542444D01*
X15181126Y17730802D01*
X15202109Y17836290D01*
X20249401Y12788997D01*
X20273199Y12759999D01*
X20302197Y12736201D01*
X20388924Y12665026D01*
X20520953Y12594454D01*
X20664214Y12550997D01*
X20813200Y12536323D01*
X20850533Y12540000D01*
X24221822Y12540000D01*
X24346525Y12353368D01*
X24553368Y12146525D01*
X24735534Y12024805D01*
X24618645Y11955178D01*
X24402412Y11760269D01*
X24228359Y11526920D01*
X24103175Y11264099D01*
X24058524Y11116890D01*
X24179845Y10887000D01*
X25373000Y10887000D01*
X25373000Y10907000D01*
X25627000Y10907000D01*
X25627000Y10887000D01*
X25647000Y10887000D01*
X25647000Y10633000D01*
X25627000Y10633000D01*
X25627000Y10613000D01*
X25373000Y10613000D01*
X25373000Y10633000D01*
X24179845Y10633000D01*
X24058524Y10403110D01*
X24103175Y10255901D01*
X24186331Y10081317D01*
X24091023Y10030374D01*
X24045581Y9993080D01*
X23975299Y9935401D01*
X23951501Y9906403D01*
X22832499Y8787400D01*
X22770361Y8787400D01*
X22570402Y8747626D01*
X22382044Y8669605D01*
X22212526Y8556337D01*
X22068363Y8412174D01*
X21955095Y8242656D01*
X21877074Y8054298D01*
X21837300Y7854339D01*
X21837300Y7650461D01*
X21877074Y7450502D01*
X21955095Y7262144D01*
X22068363Y7092626D01*
X22212526Y6948463D01*
X22382044Y6835195D01*
X22570402Y6757174D01*
X22770361Y6717400D01*
X22974239Y6717400D01*
X23174198Y6757174D01*
X23362556Y6835195D01*
X23532074Y6948463D01*
X23676237Y7092626D01*
X23789505Y7262144D01*
X23867526Y7450502D01*
X23907300Y7650461D01*
X23907300Y7712599D01*
X24011928Y7817227D01*
X24011928Y7370000D01*
X24024188Y7245518D01*
X24060498Y7125820D01*
X24119463Y7015506D01*
X24198815Y6918815D01*
X24295506Y6839463D01*
X24405820Y6780498D01*
X24525518Y6744188D01*
X24650000Y6731928D01*
X26350000Y6731928D01*
X26474482Y6744188D01*
X26594180Y6780498D01*
X26704494Y6839463D01*
X26801185Y6918815D01*
X26880537Y7015506D01*
X26939502Y7125820D01*
X26975812Y7245518D01*
X26988072Y7370000D01*
X26988072Y9070000D01*
X26975812Y9194482D01*
X26939502Y9314180D01*
X26911454Y9366653D01*
X27186404Y9641602D01*
X27215401Y9665399D01*
X27250422Y9708072D01*
X27310374Y9781123D01*
X27380946Y9913153D01*
X27387695Y9935401D01*
X27424403Y10056414D01*
X27435400Y10168067D01*
X27435400Y10168077D01*
X27439076Y10205400D01*
X27435400Y10242722D01*
X27435400Y16318077D01*
X27439076Y16355400D01*
X27435400Y16392723D01*
X27435400Y16392733D01*
X27424403Y16504386D01*
X27380946Y16647647D01*
X27310374Y16779677D01*
X27239199Y16866403D01*
X27215401Y16895401D01*
X27186402Y16919200D01*
X26652394Y17453208D01*
X26771641Y17613080D01*
X26896825Y17875901D01*
X26941476Y18023110D01*
X26820155Y18253000D01*
X25627000Y18253000D01*
X25627000Y18233000D01*
X25373000Y18233000D01*
X25373000Y18253000D01*
X25353000Y18253000D01*
X25353000Y18507000D01*
X25373000Y18507000D01*
X25373000Y18527000D01*
X25627000Y18527000D01*
X25627000Y18507000D01*
X26820155Y18507000D01*
X26941476Y18736890D01*
X26896825Y18884099D01*
X26848908Y18984700D01*
X28078989Y18984700D01*
X28122926Y18940763D01*
X28292444Y18827495D01*
X28480802Y18749474D01*
X28680761Y18709700D01*
X28884639Y18709700D01*
X29084598Y18749474D01*
X29272956Y18827495D01*
X29442474Y18940763D01*
X29586637Y19084926D01*
X29699905Y19254444D01*
X29777926Y19442802D01*
X29815001Y19629190D01*
X29815001Y11207404D01*
X26133400Y5685000D01*
X8366601Y5685000D01*
X4685000Y11207400D01*
X4685000Y12132352D01*
X5811957Y12132352D01*
X5862306Y11906223D01*
X6087944Y11802832D01*
X6329418Y11745447D01*
X6577447Y11736274D01*
X6822499Y11775665D01*
X7055158Y11862107D01*
X7137694Y11906223D01*
X7188043Y12132352D01*
X6500000Y12820395D01*
X5811957Y12132352D01*
X4685000Y12132352D01*
X4685000Y24490000D01*
X4799476Y24490000D01*
X4994606Y24528814D01*
X5178414Y24604950D01*
X5343837Y24715482D01*
X5484518Y24856163D01*
X5500000Y24879333D01*
X5515482Y24856163D01*
X5656163Y24715482D01*
X5821586Y24604950D01*
X6005394Y24528814D01*
X6200524Y24490000D01*
X6399476Y24490000D01*
X6594606Y24528814D01*
X6778414Y24604950D01*
X6943837Y24715482D01*
X7084518Y24856163D01*
X7195050Y25021586D01*
X7271186Y25205394D01*
X7310000Y25400524D01*
X7310000Y25599476D01*
X7271186Y25794606D01*
X7195050Y25978414D01*
X7084518Y26143837D01*
X6943837Y26284518D01*
X6778414Y26395050D01*
X6594606Y26471186D01*
X6399476Y26510000D01*
X6200524Y26510000D01*
X6005394Y26471186D01*
X5821586Y26395050D01*
X5656163Y26284518D01*
X5515482Y26143837D01*
X5500000Y26120667D01*
X5484518Y26143837D01*
X5343837Y26284518D01*
X5178414Y26395050D01*
X4994606Y26471186D01*
X4799476Y26510000D01*
X4685000Y26510000D01*
X4685000Y30670883D01*
X4765000Y30670883D01*
X4765000Y30329117D01*
X4831675Y29993919D01*
X4962463Y29678169D01*
X5152337Y29394002D01*
X5394002Y29152337D01*
X5678169Y28962463D01*
X5993919Y28831675D01*
X6329117Y28765000D01*
X6670883Y28765000D01*
X7006081Y28831675D01*
X7321831Y28962463D01*
X7605998Y29152337D01*
X7847663Y29394002D01*
X8037537Y29678169D01*
X8168325Y29993919D01*
X8235000Y30329117D01*
X8235000Y30670883D01*
X8168325Y31006081D01*
X8037537Y31321831D01*
X7847663Y31605998D01*
X7605998Y31847663D01*
X7321831Y32037537D01*
X7006081Y32168325D01*
X6670883Y32235000D01*
X6329117Y32235000D01*
X5993919Y32168325D01*
X5678169Y32037537D01*
X5394002Y31847663D01*
X5152337Y31605998D01*
X4962463Y31321831D01*
X4831675Y31006081D01*
X4765000Y30670883D01*
X4685000Y30670883D01*
X4685000Y36315000D01*
X29815000Y36315000D01*
X29815000Y26510000D01*
G37*
G04 #@! TD.AperFunction*
M02*
