M48
; DRILL file {KiCad (6.0.4)} date Thu Nov 10 18:02:14 2022
; FORMAT={-:-/ absolute / metric / decimal}
; #@! TF.CreationDate,2022-11-10T18:02:14+09:00
; #@! TF.GenerationSoftware,Kicad,Pcbnew,(6.0.4)
; #@! TF.FileFunction,MixedPlating,1,2
FMAT,2
METRIC
; #@! TA.AperFunction,Plated,PTH,ViaDrill
T1C0.350
; #@! TA.AperFunction,Plated,PTH,ViaDrill
T2C0.400
; #@! TA.AperFunction,Plated,PTH,ComponentDrill
T3C0.600
; #@! TA.AperFunction,Plated,PTH,ComponentDrill
T4C1.000
; #@! TA.AperFunction,Plated,PTH,ComponentDrill
T5C2.800
%
G90
G05
T1
X110.363Y-82.55
X110.942Y-64.084
X111.164Y-65.05
X111.887Y-72.517
X112.11Y-54.48
X112.776Y-44.704
X112.82Y-54.85
X112.832Y-69.54
X113.145Y-64.364
X113.538Y-39.116
X113.676Y-63.765
X113.693Y-54.734
X113.792Y-44.704
X113.792Y-48.387
X113.919Y-74.422
X114.31Y-64.26
X114.65Y-65.5
X115.05Y-52.65
X115.27Y-61.3
X115.75Y-54.2
X115.812Y-40.977
X116.21Y-75.53
X116.332Y-52.705
X116.55Y-43.7
X116.56Y-50.2
X118.32Y-63.53
X118.35Y-74.35
X118.638Y-62.846
X118.87Y-70.85
X119.25Y-74.3
X119.363Y-62.655
X119.507Y-66.75
X120.015Y-40.767
X120.142Y-77.089
X120.242Y-62.987
X120.944Y-63.425
X121.412Y-52.451
X121.6Y-64.45
X121.666Y-63.627
X122.1Y-56.79
X122.15Y-65.5
X122.174Y-79.375
X122.301Y-39.116
X122.682Y-43.434
X122.936Y-42.418
X122.936Y-47.498
X122.936Y-50.8
X123.772Y-69.416
X123.825Y-82.55
X123.952Y-50.927
X124.3Y-74.4
X124.374Y-54.864
X124.764Y-55.88
X125.222Y-69.469
X125.224Y-57.15
X125.296Y-45.011
X125.55Y-59.129
T2
X116.59Y-41.5
X118.25Y-40.75
X119.507Y-41.656
T4
X109.22Y-33.02
X109.22Y-35.56
X109.22Y-38.1
X109.22Y-40.64
X109.22Y-43.18
X109.22Y-45.72
X109.22Y-48.26
X109.22Y-50.8
X109.22Y-53.34
X109.22Y-55.88
X109.22Y-58.42
X109.22Y-60.96
X109.22Y-63.5
X109.22Y-66.04
X109.22Y-68.58
X109.22Y-71.12
X109.22Y-73.66
X109.22Y-76.2
X109.22Y-78.74
X109.22Y-81.28
X124.46Y-76.2
X124.46Y-78.74
X124.46Y-81.28
X127.0Y-33.02
X127.0Y-35.56
X127.0Y-38.1
X127.0Y-40.64
X127.0Y-43.18
X127.0Y-45.72
X127.0Y-48.26
X127.0Y-50.8
X127.0Y-53.34
X127.0Y-55.88
X127.0Y-58.42
X127.0Y-60.96
X127.0Y-63.5
X127.0Y-66.04
X127.0Y-68.58
X127.0Y-71.12
X127.0Y-73.66
X127.0Y-76.2
X127.0Y-78.74
X127.0Y-81.28
T5
X118.3Y-68.8
T3
G00X112.35Y-33.14
M15
G01X112.35Y-34.34
M16
G05
G00X112.35Y-37.34
M15
G01X112.35Y-38.14
M16
G05
G00X123.85Y-33.14
M15
G01X123.85Y-34.34
M16
G05
G00X123.85Y-37.34
M15
G01X123.85Y-38.14
M16
G05
T0
M30
