G04 #@! TF.GenerationSoftware,KiCad,Pcbnew,(6.0.1)*
G04 #@! TF.CreationDate,2022-02-25T16:24:57+09:00*
G04 #@! TF.ProjectId,kick-drib-2,6b69636b-2d64-4726-9962-2d322e6b6963,V1.1*
G04 #@! TF.SameCoordinates,Original*
G04 #@! TF.FileFunction,Legend,Top*
G04 #@! TF.FilePolarity,Positive*
%FSLAX46Y46*%
G04 Gerber Fmt 4.6, Leading zero omitted, Abs format (unit mm)*
G04 Created by KiCad (PCBNEW (6.0.1)) date 2022-02-25 16:24:57*
%MOMM*%
%LPD*%
G01*
G04 APERTURE LIST*
%ADD10C,0.250000*%
%ADD11C,0.150000*%
%ADD12C,0.100000*%
%ADD13C,0.254000*%
%ADD14C,0.120000*%
G04 APERTURE END LIST*
D10*
X64400595Y-114842380D02*
X64400595Y-113842380D01*
X64972023Y-114842380D02*
X64543452Y-114270952D01*
X64972023Y-113842380D02*
X64400595Y-114413809D01*
X65400595Y-114842380D02*
X65400595Y-114175714D01*
X65400595Y-113842380D02*
X65352976Y-113890000D01*
X65400595Y-113937619D01*
X65448214Y-113890000D01*
X65400595Y-113842380D01*
X65400595Y-113937619D01*
X66305357Y-114794761D02*
X66210119Y-114842380D01*
X66019642Y-114842380D01*
X65924404Y-114794761D01*
X65876785Y-114747142D01*
X65829166Y-114651904D01*
X65829166Y-114366190D01*
X65876785Y-114270952D01*
X65924404Y-114223333D01*
X66019642Y-114175714D01*
X66210119Y-114175714D01*
X66305357Y-114223333D01*
X66733928Y-114842380D02*
X66733928Y-113842380D01*
X66829166Y-114461428D02*
X67114880Y-114842380D01*
X67114880Y-114175714D02*
X66733928Y-114556666D01*
X67543452Y-114461428D02*
X68305357Y-114461428D01*
X68781547Y-114842380D02*
X68781547Y-113842380D01*
X69019642Y-113842380D01*
X69162500Y-113890000D01*
X69257738Y-113985238D01*
X69305357Y-114080476D01*
X69352976Y-114270952D01*
X69352976Y-114413809D01*
X69305357Y-114604285D01*
X69257738Y-114699523D01*
X69162500Y-114794761D01*
X69019642Y-114842380D01*
X68781547Y-114842380D01*
X69781547Y-114842380D02*
X69781547Y-114175714D01*
X69781547Y-114366190D02*
X69829166Y-114270952D01*
X69876785Y-114223333D01*
X69972023Y-114175714D01*
X70067261Y-114175714D01*
X70400595Y-114842380D02*
X70400595Y-114175714D01*
X70400595Y-113842380D02*
X70352976Y-113890000D01*
X70400595Y-113937619D01*
X70448214Y-113890000D01*
X70400595Y-113842380D01*
X70400595Y-113937619D01*
X70876785Y-114842380D02*
X70876785Y-113842380D01*
X70876785Y-114223333D02*
X70972023Y-114175714D01*
X71162500Y-114175714D01*
X71257738Y-114223333D01*
X71305357Y-114270952D01*
X71352976Y-114366190D01*
X71352976Y-114651904D01*
X71305357Y-114747142D01*
X71257738Y-114794761D01*
X71162500Y-114842380D01*
X70972023Y-114842380D01*
X70876785Y-114794761D01*
X64733928Y-115928571D02*
X64400595Y-115928571D01*
X64400595Y-116452380D02*
X64400595Y-115452380D01*
X64876785Y-115452380D01*
X65638690Y-116404761D02*
X65543452Y-116452380D01*
X65352976Y-116452380D01*
X65257738Y-116404761D01*
X65210119Y-116309523D01*
X65210119Y-115928571D01*
X65257738Y-115833333D01*
X65352976Y-115785714D01*
X65543452Y-115785714D01*
X65638690Y-115833333D01*
X65686309Y-115928571D01*
X65686309Y-116023809D01*
X65210119Y-116119047D01*
X66114880Y-116452380D02*
X66114880Y-115452380D01*
X66114880Y-115833333D02*
X66210119Y-115785714D01*
X66400595Y-115785714D01*
X66495833Y-115833333D01*
X66543452Y-115880952D01*
X66591071Y-115976190D01*
X66591071Y-116261904D01*
X66543452Y-116357142D01*
X66495833Y-116404761D01*
X66400595Y-116452380D01*
X66210119Y-116452380D01*
X66114880Y-116404761D01*
X67019642Y-116357142D02*
X67067261Y-116404761D01*
X67019642Y-116452380D01*
X66972023Y-116404761D01*
X67019642Y-116357142D01*
X67019642Y-116452380D01*
X67448214Y-115547619D02*
X67495833Y-115500000D01*
X67591071Y-115452380D01*
X67829166Y-115452380D01*
X67924404Y-115500000D01*
X67972023Y-115547619D01*
X68019642Y-115642857D01*
X68019642Y-115738095D01*
X67972023Y-115880952D01*
X67400595Y-116452380D01*
X68019642Y-116452380D01*
X68638690Y-115452380D02*
X68733928Y-115452380D01*
X68829166Y-115500000D01*
X68876785Y-115547619D01*
X68924404Y-115642857D01*
X68972023Y-115833333D01*
X68972023Y-116071428D01*
X68924404Y-116261904D01*
X68876785Y-116357142D01*
X68829166Y-116404761D01*
X68733928Y-116452380D01*
X68638690Y-116452380D01*
X68543452Y-116404761D01*
X68495833Y-116357142D01*
X68448214Y-116261904D01*
X68400595Y-116071428D01*
X68400595Y-115833333D01*
X68448214Y-115642857D01*
X68495833Y-115547619D01*
X68543452Y-115500000D01*
X68638690Y-115452380D01*
X69352976Y-115547619D02*
X69400595Y-115500000D01*
X69495833Y-115452380D01*
X69733928Y-115452380D01*
X69829166Y-115500000D01*
X69876785Y-115547619D01*
X69924404Y-115642857D01*
X69924404Y-115738095D01*
X69876785Y-115880952D01*
X69305357Y-116452380D01*
X69924404Y-116452380D01*
X70305357Y-115547619D02*
X70352976Y-115500000D01*
X70448214Y-115452380D01*
X70686309Y-115452380D01*
X70781547Y-115500000D01*
X70829166Y-115547619D01*
X70876785Y-115642857D01*
X70876785Y-115738095D01*
X70829166Y-115880952D01*
X70257738Y-116452380D01*
X70876785Y-116452380D01*
X64400595Y-118062380D02*
X64400595Y-117062380D01*
X64400595Y-117443333D02*
X64495833Y-117395714D01*
X64686309Y-117395714D01*
X64781547Y-117443333D01*
X64829166Y-117490952D01*
X64876785Y-117586190D01*
X64876785Y-117871904D01*
X64829166Y-117967142D01*
X64781547Y-118014761D01*
X64686309Y-118062380D01*
X64495833Y-118062380D01*
X64400595Y-118014761D01*
X65210119Y-117395714D02*
X65448214Y-118062380D01*
X65686309Y-117395714D02*
X65448214Y-118062380D01*
X65352976Y-118300476D01*
X65305357Y-118348095D01*
X65210119Y-118395714D01*
X66781547Y-117776666D02*
X67257738Y-117776666D01*
X66686309Y-118062380D02*
X67019642Y-117062380D01*
X67352976Y-118062380D01*
X67686309Y-117967142D02*
X67733928Y-118014761D01*
X67686309Y-118062380D01*
X67638690Y-118014761D01*
X67686309Y-117967142D01*
X67686309Y-118062380D01*
X68114880Y-118014761D02*
X68257738Y-118062380D01*
X68495833Y-118062380D01*
X68591071Y-118014761D01*
X68638690Y-117967142D01*
X68686309Y-117871904D01*
X68686309Y-117776666D01*
X68638690Y-117681428D01*
X68591071Y-117633809D01*
X68495833Y-117586190D01*
X68305357Y-117538571D01*
X68210119Y-117490952D01*
X68162500Y-117443333D01*
X68114880Y-117348095D01*
X68114880Y-117252857D01*
X68162500Y-117157619D01*
X68210119Y-117110000D01*
X68305357Y-117062380D01*
X68543452Y-117062380D01*
X68686309Y-117110000D01*
X69543452Y-118062380D02*
X69543452Y-117538571D01*
X69495833Y-117443333D01*
X69400595Y-117395714D01*
X69210119Y-117395714D01*
X69114880Y-117443333D01*
X69543452Y-118014761D02*
X69448214Y-118062380D01*
X69210119Y-118062380D01*
X69114880Y-118014761D01*
X69067261Y-117919523D01*
X69067261Y-117824285D01*
X69114880Y-117729047D01*
X69210119Y-117681428D01*
X69448214Y-117681428D01*
X69543452Y-117633809D01*
X70400595Y-118014761D02*
X70305357Y-118062380D01*
X70114880Y-118062380D01*
X70019642Y-118014761D01*
X69972023Y-117919523D01*
X69972023Y-117538571D01*
X70019642Y-117443333D01*
X70114880Y-117395714D01*
X70305357Y-117395714D01*
X70400595Y-117443333D01*
X70448214Y-117538571D01*
X70448214Y-117633809D01*
X69972023Y-117729047D01*
X70876785Y-118062380D02*
X70876785Y-117062380D01*
X70972023Y-117681428D02*
X71257738Y-118062380D01*
X71257738Y-117395714D02*
X70876785Y-117776666D01*
X71686309Y-118062380D02*
X71686309Y-117395714D01*
X71686309Y-117062380D02*
X71638690Y-117110000D01*
X71686309Y-117157619D01*
X71733928Y-117110000D01*
X71686309Y-117062380D01*
X71686309Y-117157619D01*
D11*
X106738095Y-117452380D02*
X106738095Y-116452380D01*
X106976190Y-116452380D01*
X107119047Y-116500000D01*
X107214285Y-116595238D01*
X107261904Y-116690476D01*
X107309523Y-116880952D01*
X107309523Y-117023809D01*
X107261904Y-117214285D01*
X107214285Y-117309523D01*
X107119047Y-117404761D01*
X106976190Y-117452380D01*
X106738095Y-117452380D01*
X107738095Y-117452380D02*
X107738095Y-116785714D01*
X107738095Y-116976190D02*
X107785714Y-116880952D01*
X107833333Y-116833333D01*
X107928571Y-116785714D01*
X108023809Y-116785714D01*
X108357142Y-117452380D02*
X108357142Y-116785714D01*
X108357142Y-116452380D02*
X108309523Y-116500000D01*
X108357142Y-116547619D01*
X108404761Y-116500000D01*
X108357142Y-116452380D01*
X108357142Y-116547619D01*
X108833333Y-117452380D02*
X108833333Y-116452380D01*
X108833333Y-116833333D02*
X108928571Y-116785714D01*
X109119047Y-116785714D01*
X109214285Y-116833333D01*
X109261904Y-116880952D01*
X109309523Y-116976190D01*
X109309523Y-117261904D01*
X109261904Y-117357142D01*
X109214285Y-117404761D01*
X109119047Y-117452380D01*
X108928571Y-117452380D01*
X108833333Y-117404761D01*
X109333333Y-112547619D02*
X109333333Y-113547619D01*
X108761904Y-112547619D02*
X109190476Y-113119047D01*
X108761904Y-113547619D02*
X109333333Y-112976190D01*
X108333333Y-112547619D02*
X108333333Y-113214285D01*
X108333333Y-113547619D02*
X108380952Y-113500000D01*
X108333333Y-113452380D01*
X108285714Y-113500000D01*
X108333333Y-113547619D01*
X108333333Y-113452380D01*
X107428571Y-112595238D02*
X107523809Y-112547619D01*
X107714285Y-112547619D01*
X107809523Y-112595238D01*
X107857142Y-112642857D01*
X107904761Y-112738095D01*
X107904761Y-113023809D01*
X107857142Y-113119047D01*
X107809523Y-113166666D01*
X107714285Y-113214285D01*
X107523809Y-113214285D01*
X107428571Y-113166666D01*
X107000000Y-112547619D02*
X107000000Y-113547619D01*
X106904761Y-112928571D02*
X106619047Y-112547619D01*
X106619047Y-113214285D02*
X107000000Y-112833333D01*
D12*
X65226190Y-122380952D02*
X65630952Y-122380952D01*
X65678571Y-122357142D01*
X65702380Y-122333333D01*
X65726190Y-122285714D01*
X65726190Y-122190476D01*
X65702380Y-122142857D01*
X65678571Y-122119047D01*
X65630952Y-122095238D01*
X65226190Y-122095238D01*
X65273809Y-121880952D02*
X65250000Y-121857142D01*
X65226190Y-121809523D01*
X65226190Y-121690476D01*
X65250000Y-121642857D01*
X65273809Y-121619047D01*
X65321428Y-121595238D01*
X65369047Y-121595238D01*
X65440476Y-121619047D01*
X65726190Y-121904761D01*
X65726190Y-121595238D01*
D11*
X73787142Y-130166666D02*
X73834761Y-130214285D01*
X73882380Y-130357142D01*
X73882380Y-130452380D01*
X73834761Y-130595238D01*
X73739523Y-130690476D01*
X73644285Y-130738095D01*
X73453809Y-130785714D01*
X73310952Y-130785714D01*
X73120476Y-130738095D01*
X73025238Y-130690476D01*
X72930000Y-130595238D01*
X72882380Y-130452380D01*
X72882380Y-130357142D01*
X72930000Y-130214285D01*
X72977619Y-130166666D01*
X73882380Y-129214285D02*
X73882380Y-129785714D01*
X73882380Y-129500000D02*
X72882380Y-129500000D01*
X73025238Y-129595238D01*
X73120476Y-129690476D01*
X73168095Y-129785714D01*
X100454364Y-113249273D02*
X100959440Y-112744197D01*
X101094127Y-112676853D01*
X101228814Y-112676853D01*
X101363501Y-112744197D01*
X101430844Y-112811540D01*
X99780929Y-112575838D02*
X100117646Y-112912555D01*
X100488035Y-112609510D01*
X100420692Y-112609510D01*
X100319677Y-112575838D01*
X100151318Y-112407479D01*
X100117646Y-112306464D01*
X100117646Y-112239120D01*
X100151318Y-112138105D01*
X100319677Y-111969746D01*
X100420692Y-111936075D01*
X100488035Y-111936075D01*
X100589051Y-111969746D01*
X100757409Y-112138105D01*
X100791081Y-112239120D01*
X100791081Y-112306464D01*
X72513918Y-94957486D02*
X73018994Y-94452410D01*
X73153681Y-94385066D01*
X73288368Y-94385066D01*
X73423055Y-94452410D01*
X73490398Y-94519753D01*
X72244544Y-94688112D02*
X71806811Y-94250379D01*
X72311887Y-94216707D01*
X72210872Y-94115692D01*
X72177200Y-94014677D01*
X72177200Y-93947333D01*
X72210872Y-93846318D01*
X72379231Y-93677959D01*
X72480246Y-93644288D01*
X72547589Y-93644288D01*
X72648605Y-93677959D01*
X72850635Y-93879990D01*
X72884307Y-93981005D01*
X72884307Y-94048349D01*
X47438095Y-122952380D02*
X48009523Y-122952380D01*
X47723809Y-123952380D02*
X47723809Y-122952380D01*
X48342857Y-123952380D02*
X48342857Y-122952380D01*
X48723809Y-122952380D01*
X48819047Y-123000000D01*
X48866666Y-123047619D01*
X48914285Y-123142857D01*
X48914285Y-123285714D01*
X48866666Y-123380952D01*
X48819047Y-123428571D01*
X48723809Y-123476190D01*
X48342857Y-123476190D01*
X49295238Y-123047619D02*
X49342857Y-123000000D01*
X49438095Y-122952380D01*
X49676190Y-122952380D01*
X49771428Y-123000000D01*
X49819047Y-123047619D01*
X49866666Y-123142857D01*
X49866666Y-123238095D01*
X49819047Y-123380952D01*
X49247619Y-123952380D01*
X49866666Y-123952380D01*
X47438095Y-110952380D02*
X48009523Y-110952380D01*
X47723809Y-111952380D02*
X47723809Y-110952380D01*
X48342857Y-111952380D02*
X48342857Y-110952380D01*
X48723809Y-110952380D01*
X48819047Y-111000000D01*
X48866666Y-111047619D01*
X48914285Y-111142857D01*
X48914285Y-111285714D01*
X48866666Y-111380952D01*
X48819047Y-111428571D01*
X48723809Y-111476190D01*
X48342857Y-111476190D01*
X49866666Y-111952380D02*
X49295238Y-111952380D01*
X49580952Y-111952380D02*
X49580952Y-110952380D01*
X49485714Y-111095238D01*
X49390476Y-111190476D01*
X49295238Y-111238095D01*
D13*
X55654523Y-128755952D02*
X55049761Y-129179285D01*
X55654523Y-129481666D02*
X54384523Y-129481666D01*
X54384523Y-128997857D01*
X54445000Y-128876904D01*
X54505476Y-128816428D01*
X54626428Y-128755952D01*
X54807857Y-128755952D01*
X54928809Y-128816428D01*
X54989285Y-128876904D01*
X55049761Y-128997857D01*
X55049761Y-129481666D01*
X54384523Y-128393095D02*
X55654523Y-127969761D01*
X54384523Y-127546428D01*
X55654523Y-126457857D02*
X55654523Y-127183571D01*
X55654523Y-126820714D02*
X54384523Y-126820714D01*
X54565952Y-126941666D01*
X54686904Y-127062619D01*
X54747380Y-127183571D01*
D11*
X61882380Y-122166666D02*
X61406190Y-122500000D01*
X61882380Y-122738095D02*
X60882380Y-122738095D01*
X60882380Y-122357142D01*
X60930000Y-122261904D01*
X60977619Y-122214285D01*
X61072857Y-122166666D01*
X61215714Y-122166666D01*
X61310952Y-122214285D01*
X61358571Y-122261904D01*
X61406190Y-122357142D01*
X61406190Y-122738095D01*
X60977619Y-121785714D02*
X60930000Y-121738095D01*
X60882380Y-121642857D01*
X60882380Y-121404761D01*
X60930000Y-121309523D01*
X60977619Y-121261904D01*
X61072857Y-121214285D01*
X61168095Y-121214285D01*
X61310952Y-121261904D01*
X61882380Y-121833333D01*
X61882380Y-121214285D01*
X61882380Y-130166666D02*
X61406190Y-130500000D01*
X61882380Y-130738095D02*
X60882380Y-130738095D01*
X60882380Y-130357142D01*
X60930000Y-130261904D01*
X60977619Y-130214285D01*
X61072857Y-130166666D01*
X61215714Y-130166666D01*
X61310952Y-130214285D01*
X61358571Y-130261904D01*
X61406190Y-130357142D01*
X61406190Y-130738095D01*
X61882380Y-129214285D02*
X61882380Y-129785714D01*
X61882380Y-129500000D02*
X60882380Y-129500000D01*
X61025238Y-129595238D01*
X61120476Y-129690476D01*
X61168095Y-129785714D01*
X72787142Y-122166666D02*
X72834761Y-122214285D01*
X72882380Y-122357142D01*
X72882380Y-122452380D01*
X72834761Y-122595238D01*
X72739523Y-122690476D01*
X72644285Y-122738095D01*
X72453809Y-122785714D01*
X72310952Y-122785714D01*
X72120476Y-122738095D01*
X72025238Y-122690476D01*
X71930000Y-122595238D01*
X71882380Y-122452380D01*
X71882380Y-122357142D01*
X71930000Y-122214285D01*
X71977619Y-122166666D01*
X71977619Y-121785714D02*
X71930000Y-121738095D01*
X71882380Y-121642857D01*
X71882380Y-121404761D01*
X71930000Y-121309523D01*
X71977619Y-121261904D01*
X72072857Y-121214285D01*
X72168095Y-121214285D01*
X72310952Y-121261904D01*
X72882380Y-121833333D01*
X72882380Y-121214285D01*
D12*
X65226190Y-130380952D02*
X65630952Y-130380952D01*
X65678571Y-130357142D01*
X65702380Y-130333333D01*
X65726190Y-130285714D01*
X65726190Y-130190476D01*
X65702380Y-130142857D01*
X65678571Y-130119047D01*
X65630952Y-130095238D01*
X65226190Y-130095238D01*
X65726190Y-129595238D02*
X65726190Y-129880952D01*
X65726190Y-129738095D02*
X65226190Y-129738095D01*
X65297619Y-129785714D01*
X65345238Y-129833333D01*
X65369047Y-129880952D01*
D11*
X99982926Y-117454364D02*
X100488002Y-117959440D01*
X100555346Y-118094127D01*
X100555346Y-118228814D01*
X100488002Y-118363501D01*
X100420659Y-118430844D01*
X100858392Y-117050303D02*
X101329796Y-117521707D01*
X100420659Y-116949287D02*
X100757376Y-117622722D01*
X101195109Y-117184990D01*
X64833333Y-112372380D02*
X64500000Y-111896190D01*
X64261904Y-112372380D02*
X64261904Y-111372380D01*
X64642857Y-111372380D01*
X64738095Y-111420000D01*
X64785714Y-111467619D01*
X64833333Y-111562857D01*
X64833333Y-111705714D01*
X64785714Y-111800952D01*
X64738095Y-111848571D01*
X64642857Y-111896190D01*
X64261904Y-111896190D01*
X65166666Y-111372380D02*
X65785714Y-111372380D01*
X65452380Y-111753333D01*
X65595238Y-111753333D01*
X65690476Y-111800952D01*
X65738095Y-111848571D01*
X65785714Y-111943809D01*
X65785714Y-112181904D01*
X65738095Y-112277142D01*
X65690476Y-112324761D01*
X65595238Y-112372380D01*
X65309523Y-112372380D01*
X65214285Y-112324761D01*
X65166666Y-112277142D01*
X72137413Y-135608818D02*
X72642489Y-136113894D01*
X72709833Y-136248581D01*
X72709833Y-136383268D01*
X72642489Y-136517955D01*
X72575146Y-136585298D01*
X73551627Y-135608818D02*
X73147566Y-136012879D01*
X73349596Y-135810848D02*
X72642489Y-135103741D01*
X72676161Y-135272100D01*
X72676161Y-135406787D01*
X72642489Y-135507802D01*
X53372380Y-115166666D02*
X52896190Y-115500000D01*
X53372380Y-115738095D02*
X52372380Y-115738095D01*
X52372380Y-115357142D01*
X52420000Y-115261904D01*
X52467619Y-115214285D01*
X52562857Y-115166666D01*
X52705714Y-115166666D01*
X52800952Y-115214285D01*
X52848571Y-115261904D01*
X52896190Y-115357142D01*
X52896190Y-115738095D01*
X52705714Y-114309523D02*
X53372380Y-114309523D01*
X52324761Y-114547619D02*
X53039047Y-114785714D01*
X53039047Y-114166666D01*
X91261904Y-120952380D02*
X91261904Y-119952380D01*
X91500000Y-119952380D01*
X91642857Y-120000000D01*
X91738095Y-120095238D01*
X91785714Y-120190476D01*
X91833333Y-120380952D01*
X91833333Y-120523809D01*
X91785714Y-120714285D01*
X91738095Y-120809523D01*
X91642857Y-120904761D01*
X91500000Y-120952380D01*
X91261904Y-120952380D01*
X92785714Y-120952380D02*
X92214285Y-120952380D01*
X92500000Y-120952380D02*
X92500000Y-119952380D01*
X92404761Y-120095238D01*
X92309523Y-120190476D01*
X92214285Y-120238095D01*
X80904761Y-116047619D02*
X80809523Y-116000000D01*
X80714285Y-115904761D01*
X80571428Y-115761904D01*
X80476190Y-115714285D01*
X80380952Y-115714285D01*
X80428571Y-115952380D02*
X80333333Y-115904761D01*
X80238095Y-115809523D01*
X80190476Y-115619047D01*
X80190476Y-115285714D01*
X80238095Y-115095238D01*
X80333333Y-115000000D01*
X80428571Y-114952380D01*
X80619047Y-114952380D01*
X80714285Y-115000000D01*
X80809523Y-115095238D01*
X80857142Y-115285714D01*
X80857142Y-115619047D01*
X80809523Y-115809523D01*
X80714285Y-115904761D01*
X80619047Y-115952380D01*
X80428571Y-115952380D01*
X81809523Y-115952380D02*
X81238095Y-115952380D01*
X81523809Y-115952380D02*
X81523809Y-114952380D01*
X81428571Y-115095238D01*
X81333333Y-115190476D01*
X81238095Y-115238095D01*
X49882380Y-115738095D02*
X48882380Y-115738095D01*
X48882380Y-115500000D01*
X48930000Y-115357142D01*
X49025238Y-115261904D01*
X49120476Y-115214285D01*
X49310952Y-115166666D01*
X49453809Y-115166666D01*
X49644285Y-115214285D01*
X49739523Y-115261904D01*
X49834761Y-115357142D01*
X49882380Y-115500000D01*
X49882380Y-115738095D01*
X48977619Y-114785714D02*
X48930000Y-114738095D01*
X48882380Y-114642857D01*
X48882380Y-114404761D01*
X48930000Y-114309523D01*
X48977619Y-114261904D01*
X49072857Y-114214285D01*
X49168095Y-114214285D01*
X49310952Y-114261904D01*
X49882380Y-114833333D01*
X49882380Y-114214285D01*
X64341421Y-120700000D02*
G75*
G03*
X64341421Y-120700000I-141421J0D01*
G01*
D14*
X71490000Y-129853733D02*
X71490000Y-130146267D01*
X72510000Y-129853733D02*
X72510000Y-130146267D01*
X102267588Y-111671751D02*
X101560482Y-110964645D01*
X105661701Y-112944544D02*
X105131371Y-112414214D01*
X104070711Y-114535534D02*
X104601041Y-114005204D01*
X107217336Y-110328249D02*
X105060660Y-108171573D01*
X98696699Y-109161522D02*
X99969491Y-110434315D01*
X104070711Y-114549676D02*
X108292138Y-110328249D01*
X104601041Y-114005204D02*
X103328249Y-112732412D01*
X100287689Y-107570532D02*
X100818019Y-108100862D01*
X98682557Y-109161522D02*
X104070711Y-114549676D01*
X101737258Y-112202082D02*
X102267588Y-111671751D01*
X108292138Y-110328249D02*
X102903984Y-104940095D01*
X99227029Y-108631192D02*
X98696699Y-109161522D01*
X102797918Y-113262742D02*
X104070711Y-114535534D01*
X104070711Y-114959798D02*
X104954594Y-114075914D01*
X103186827Y-114075914D02*
X104070711Y-114959798D01*
X102903984Y-106014897D02*
X105060660Y-108171573D01*
X102903984Y-104940095D02*
X98682557Y-109161522D01*
X103328249Y-112732412D02*
X102797918Y-113262742D01*
X101560482Y-110964645D02*
X101030152Y-111494975D01*
X105131371Y-112414214D02*
X107217336Y-110328249D01*
X99969491Y-110434315D02*
X100499821Y-109903984D01*
X100818019Y-108100862D02*
X102903984Y-106014897D01*
X101030152Y-111494975D02*
X101737258Y-112202082D01*
X100499821Y-109903984D02*
X99227029Y-108631192D01*
X74270574Y-90848522D02*
X79701154Y-85417942D01*
X75253452Y-93627452D02*
X74313000Y-94567904D01*
X76151478Y-92729426D02*
X74270574Y-90848522D01*
X81582058Y-87298846D02*
X79701154Y-85417942D01*
X76151478Y-92729426D02*
X81582058Y-87298846D01*
X74313000Y-94567904D02*
X73372548Y-93627452D01*
X49700000Y-121000000D02*
G75*
G03*
X49700000Y-121000000I-1700000J0D01*
G01*
X49700000Y-109000000D02*
G75*
G03*
X49700000Y-109000000I-1700000J0D01*
G01*
D12*
X53400000Y-131400000D02*
X46600000Y-131400000D01*
X46600000Y-131400000D02*
X46600000Y-124600000D01*
X53400000Y-124600000D02*
X53400000Y-131400000D01*
X46600000Y-124600000D02*
X53400000Y-124600000D01*
G36*
X55698840Y-115764175D02*
G01*
X55727910Y-115543403D01*
X55771315Y-115321378D01*
X55799780Y-115203986D01*
X55812682Y-115155042D01*
X55825461Y-115109156D01*
X55838808Y-115064363D01*
X55853416Y-115018698D01*
X55869975Y-114970197D01*
X55889178Y-114916894D01*
X55911715Y-114856825D01*
X55938279Y-114788025D01*
X55969561Y-114708528D01*
X56006252Y-114616370D01*
X56009172Y-114609066D01*
X56037044Y-114538991D01*
X56064439Y-114469416D01*
X56090452Y-114402692D01*
X56114176Y-114341169D01*
X56134705Y-114287199D01*
X56151134Y-114243133D01*
X56162555Y-114211322D01*
X56163358Y-114208991D01*
X56202559Y-114088203D01*
X56235599Y-113971758D01*
X56263043Y-113856535D01*
X56285455Y-113739415D01*
X56303401Y-113617276D01*
X56317444Y-113487000D01*
X56328148Y-113345464D01*
X56332073Y-113276383D01*
X56337283Y-113179861D01*
X56342300Y-113097296D01*
X56347360Y-113026651D01*
X56352702Y-112965888D01*
X56358563Y-112912971D01*
X56365181Y-112865862D01*
X56372794Y-112822524D01*
X56381640Y-112780920D01*
X56391956Y-112739013D01*
X56397009Y-112720000D01*
X56437538Y-112589889D01*
X56485715Y-112469890D01*
X56540974Y-112360917D01*
X56602747Y-112263886D01*
X56670466Y-112179710D01*
X56743565Y-112109306D01*
X56803039Y-112065135D01*
X56893310Y-112015425D01*
X56994319Y-111976870D01*
X57105160Y-111949652D01*
X57224928Y-111933952D01*
X57352719Y-111929950D01*
X57455234Y-111934890D01*
X57534240Y-111942451D01*
X57625692Y-111953228D01*
X57726469Y-111966745D01*
X57833448Y-111982523D01*
X57943507Y-112000085D01*
X58053526Y-112018955D01*
X58160382Y-112038655D01*
X58248760Y-112056184D01*
X58313710Y-112069414D01*
X58378717Y-112082397D01*
X58440683Y-112094534D01*
X58496513Y-112105226D01*
X58543111Y-112113872D01*
X58577380Y-112119874D01*
X58579373Y-112120201D01*
X58658296Y-112130393D01*
X58749706Y-112137497D01*
X58850375Y-112141418D01*
X58957071Y-112142057D01*
X59066565Y-112139317D01*
X59122533Y-112136582D01*
X59213675Y-112130676D01*
X59291316Y-112123949D01*
X59357951Y-112115931D01*
X59416075Y-112106155D01*
X59468181Y-112094152D01*
X59516766Y-112079453D01*
X59564324Y-112061588D01*
X59597446Y-112047350D01*
X59620034Y-112036912D01*
X59642340Y-112025810D01*
X59666029Y-112013025D01*
X59692767Y-111997535D01*
X59724220Y-111978321D01*
X59762054Y-111954362D01*
X59807935Y-111924638D01*
X59863527Y-111888127D01*
X59930498Y-111843811D01*
X59940000Y-111837508D01*
X60046082Y-111769063D01*
X60141823Y-111711453D01*
X60228171Y-111664171D01*
X60306072Y-111626710D01*
X60376473Y-111598564D01*
X60404232Y-111589337D01*
X60505910Y-111562041D01*
X60597808Y-111546713D01*
X60680961Y-111543529D01*
X60756400Y-111552663D01*
X60825158Y-111574288D01*
X60888269Y-111608581D01*
X60946765Y-111655714D01*
X60976244Y-111685954D01*
X61036899Y-111764851D01*
X61086363Y-111855011D01*
X61124599Y-111956225D01*
X61151565Y-112068284D01*
X61167225Y-112190977D01*
X61171538Y-112324095D01*
X61164465Y-112467428D01*
X61147888Y-112608000D01*
X61138626Y-112673985D01*
X61132108Y-112729992D01*
X61127899Y-112781725D01*
X61125561Y-112834885D01*
X61124658Y-112895177D01*
X61124605Y-112912000D01*
X61124733Y-112966535D01*
X61125466Y-113008209D01*
X61127072Y-113040156D01*
X61129817Y-113065510D01*
X61133967Y-113087407D01*
X61139788Y-113108980D01*
X61141945Y-113116000D01*
X61156573Y-113157970D01*
X61174808Y-113201217D01*
X61197334Y-113246727D01*
X61224834Y-113295489D01*
X61257992Y-113348490D01*
X61297494Y-113406718D01*
X61344022Y-113471161D01*
X61398262Y-113542807D01*
X61460896Y-113622644D01*
X61532609Y-113711659D01*
X61614085Y-113810841D01*
X61668241Y-113876000D01*
X61717711Y-113935658D01*
X61758573Y-113985904D01*
X61792764Y-114029360D01*
X61822223Y-114068647D01*
X61848887Y-114106385D01*
X61874695Y-114145196D01*
X61901583Y-114187702D01*
X61916148Y-114211339D01*
X62005207Y-114369532D01*
X62086503Y-114539890D01*
X62159226Y-114720168D01*
X62222570Y-114908119D01*
X62275723Y-115101500D01*
X62317878Y-115298066D01*
X62327589Y-115353300D01*
X62339747Y-115428112D01*
X62349512Y-115494093D01*
X62357131Y-115554529D01*
X62362852Y-115612704D01*
X62366921Y-115671904D01*
X62369585Y-115735414D01*
X62371092Y-115806518D01*
X62371689Y-115888503D01*
X62371719Y-115940000D01*
X62371536Y-116013681D01*
X62371084Y-116073801D01*
X62370240Y-116122798D01*
X62368880Y-116163110D01*
X62366880Y-116197174D01*
X62364116Y-116227429D01*
X62360466Y-116256312D01*
X62355806Y-116286262D01*
X62353473Y-116300000D01*
X62313206Y-116491127D01*
X62259287Y-116679035D01*
X62192461Y-116861969D01*
X62113478Y-117038174D01*
X62023083Y-117205897D01*
X61922025Y-117363382D01*
X61870122Y-117434597D01*
X61777641Y-117544902D01*
X61675268Y-117646100D01*
X61564659Y-117737092D01*
X61447473Y-117816784D01*
X61325367Y-117884079D01*
X61199998Y-117937882D01*
X61073024Y-117977094D01*
X61037507Y-117985289D01*
X61000833Y-117992356D01*
X60965160Y-117997324D01*
X60926348Y-118000524D01*
X60880259Y-118002284D01*
X60822754Y-118002936D01*
X60816000Y-118002953D01*
X60747094Y-118002013D01*
X60683102Y-117998566D01*
X60620668Y-117992094D01*
X60556438Y-117982081D01*
X60487058Y-117968009D01*
X60409173Y-117949360D01*
X60325665Y-117927319D01*
X60234309Y-117902476D01*
X60156801Y-117881542D01*
X60091568Y-117864167D01*
X60037034Y-117849999D01*
X59991626Y-117838688D01*
X59953771Y-117829882D01*
X59921893Y-117823232D01*
X59894418Y-117818385D01*
X59869773Y-117814991D01*
X59846384Y-117812700D01*
X59822676Y-117811159D01*
X59800000Y-117810135D01*
X59726565Y-117809952D01*
X59655327Y-117815813D01*
X59584601Y-117828353D01*
X59512700Y-117848205D01*
X59437936Y-117876003D01*
X59358625Y-117912382D01*
X59273078Y-117957976D01*
X59179611Y-118013419D01*
X59076535Y-118079345D01*
X59066485Y-118085976D01*
X58937096Y-118166302D01*
X58798310Y-118242838D01*
X58653147Y-118314304D01*
X58504630Y-118379417D01*
X58355781Y-118436895D01*
X58209620Y-118485458D01*
X58069169Y-118523823D01*
X57996116Y-118539979D01*
X57904281Y-118555510D01*
X57807221Y-118566674D01*
X57708699Y-118573337D01*
X57612477Y-118575371D01*
X57522318Y-118572642D01*
X57441984Y-118565022D01*
X57412000Y-118560316D01*
X57266803Y-118528668D01*
X57130049Y-118487628D01*
X57003336Y-118437798D01*
X56888259Y-118379779D01*
X56818944Y-118336947D01*
X56750649Y-118286772D01*
X56676729Y-118224672D01*
X56599191Y-118152788D01*
X56520040Y-118073258D01*
X56441283Y-117988224D01*
X56364925Y-117899824D01*
X56292971Y-117810198D01*
X56227427Y-117721485D01*
X56188921Y-117664881D01*
X56142882Y-117591748D01*
X56093624Y-117508452D01*
X56042898Y-117418317D01*
X55992455Y-117324668D01*
X55944048Y-117230829D01*
X55899428Y-117140124D01*
X55860348Y-117055876D01*
X55828558Y-116981411D01*
X55827991Y-116980000D01*
X55787600Y-116872448D01*
X55754763Y-116768705D01*
X55728849Y-116665458D01*
X55709228Y-116559394D01*
X55695270Y-116447201D01*
X55686345Y-116325568D01*
X55682287Y-116214155D01*
X55682856Y-116125717D01*
X55876882Y-116125717D01*
X55879961Y-116281004D01*
X55891519Y-116427002D01*
X55903666Y-116515670D01*
X55918620Y-116598010D01*
X55936429Y-116677070D01*
X55957847Y-116754732D01*
X55983625Y-116832877D01*
X56014518Y-116913390D01*
X56051279Y-116998151D01*
X56094661Y-117089044D01*
X56145417Y-117187950D01*
X56204301Y-117296753D01*
X56246346Y-117372000D01*
X56308401Y-117478132D01*
X56369105Y-117573415D01*
X56431477Y-117661954D01*
X56498537Y-117747853D01*
X56573304Y-117835215D01*
X56643584Y-117912000D01*
X56723575Y-117994684D01*
X56797557Y-118065153D01*
X56867798Y-118124882D01*
X56936565Y-118175351D01*
X57006126Y-118218034D01*
X57078748Y-118254410D01*
X57156698Y-118285956D01*
X57242246Y-118314149D01*
X57276000Y-118323948D01*
X57353507Y-118344677D01*
X57422175Y-118360248D01*
X57485780Y-118370970D01*
X57548097Y-118377149D01*
X57612903Y-118379094D01*
X57683974Y-118377113D01*
X57765086Y-118371513D01*
X57810082Y-118367500D01*
X57925911Y-118351290D01*
X58051202Y-118323762D01*
X58184567Y-118285356D01*
X58324617Y-118236510D01*
X58469961Y-118177665D01*
X58604000Y-118116589D01*
X58684123Y-118077071D01*
X58758825Y-118037652D01*
X58832284Y-117995935D01*
X58908679Y-117949526D01*
X58992186Y-117896029D01*
X59016000Y-117880386D01*
X59092697Y-117832029D01*
X59172074Y-117786092D01*
X59250927Y-117744220D01*
X59326057Y-117708059D01*
X59394262Y-117679255D01*
X59436135Y-117664362D01*
X59505855Y-117643428D01*
X59567040Y-117628659D01*
X59625501Y-117619142D01*
X59687051Y-117613961D01*
X59757503Y-117612203D01*
X59768000Y-117612178D01*
X59816484Y-117612711D01*
X59860529Y-117614653D01*
X59902843Y-117618477D01*
X59946134Y-117624656D01*
X59993109Y-117633665D01*
X60046475Y-117645976D01*
X60108941Y-117662062D01*
X60183213Y-117682397D01*
X60205689Y-117688691D01*
X60310743Y-117717749D01*
X60402437Y-117742034D01*
X60482570Y-117761897D01*
X60552938Y-117777692D01*
X60615340Y-117789771D01*
X60671572Y-117798486D01*
X60723433Y-117804191D01*
X60772719Y-117807237D01*
X60813978Y-117808000D01*
X60931141Y-117800309D01*
X61047355Y-117777166D01*
X61162890Y-117738462D01*
X61278014Y-117684089D01*
X61392994Y-117613938D01*
X61508098Y-117527902D01*
X61509053Y-117527122D01*
X61593952Y-117449372D01*
X61676492Y-117357435D01*
X61755805Y-117253052D01*
X61831018Y-117137968D01*
X61901263Y-117013925D01*
X61965670Y-116882667D01*
X62023368Y-116745936D01*
X62073487Y-116605475D01*
X62115157Y-116463027D01*
X62147508Y-116320336D01*
X62165400Y-116212272D01*
X62170752Y-116160580D01*
X62174606Y-116096390D01*
X62176966Y-116023135D01*
X62177835Y-115944246D01*
X62177216Y-115863156D01*
X62175113Y-115783297D01*
X62171531Y-115708100D01*
X62166472Y-115640998D01*
X62164778Y-115624000D01*
X62135444Y-115408294D01*
X62094001Y-115198143D01*
X62040838Y-114994727D01*
X61976348Y-114799225D01*
X61900921Y-114612815D01*
X61814949Y-114436679D01*
X61718823Y-114271995D01*
X61713704Y-114264000D01*
X61698253Y-114240271D01*
X61683077Y-114217784D01*
X61666999Y-114195033D01*
X61648843Y-114170515D01*
X61627431Y-114142727D01*
X61601586Y-114110164D01*
X61570131Y-114071322D01*
X61531889Y-114024699D01*
X61485683Y-113968788D01*
X61431923Y-113904000D01*
X61353930Y-113809318D01*
X61285881Y-113724877D01*
X61226769Y-113649252D01*
X61175587Y-113581018D01*
X61131326Y-113518751D01*
X61092980Y-113461027D01*
X61059540Y-113406422D01*
X61029999Y-113353511D01*
X61003350Y-113300871D01*
X60999425Y-113292670D01*
X60974253Y-113236074D01*
X60955816Y-113184793D01*
X60942777Y-113133550D01*
X60933801Y-113077066D01*
X60927554Y-113010064D01*
X60927406Y-113008000D01*
X60924440Y-112936720D01*
X60925394Y-112858947D01*
X60930400Y-112772555D01*
X60939588Y-112675420D01*
X60953089Y-112565416D01*
X60955900Y-112544724D01*
X60963484Y-112483648D01*
X60969612Y-112422506D01*
X60973871Y-112366144D01*
X60975849Y-112319410D01*
X60975939Y-112309303D01*
X60971478Y-112209219D01*
X60958619Y-112115427D01*
X60937938Y-112029147D01*
X60910011Y-111951598D01*
X60875413Y-111884001D01*
X60834721Y-111827574D01*
X60788511Y-111783538D01*
X60737359Y-111753113D01*
X60708473Y-111742932D01*
X60671421Y-111738591D01*
X60623145Y-111741850D01*
X60566136Y-111752071D01*
X60502885Y-111768616D01*
X60435884Y-111790847D01*
X60367625Y-111818126D01*
X60310309Y-111844890D01*
X60280291Y-111861094D01*
X60239871Y-111884625D01*
X60191842Y-111913763D01*
X60139000Y-111946789D01*
X60084139Y-111981981D01*
X60034309Y-112014778D01*
X59950017Y-112070463D01*
X59876763Y-112117543D01*
X59812762Y-112156979D01*
X59756226Y-112189732D01*
X59705370Y-112216766D01*
X59658408Y-112239041D01*
X59613555Y-112257520D01*
X59569023Y-112273165D01*
X59535687Y-112283351D01*
X59470716Y-112299279D01*
X59396079Y-112312165D01*
X59310731Y-112322087D01*
X59213631Y-112329124D01*
X59103736Y-112333352D01*
X58980002Y-112334851D01*
X58860000Y-112333992D01*
X58794545Y-112332966D01*
X58738600Y-112331776D01*
X58689798Y-112330122D01*
X58645767Y-112327702D01*
X58604139Y-112324218D01*
X58562544Y-112319367D01*
X58518613Y-112312851D01*
X58469976Y-112304368D01*
X58414264Y-112293618D01*
X58349108Y-112280301D01*
X58272137Y-112264116D01*
X58217750Y-112252575D01*
X58077597Y-112224106D01*
X57941157Y-112199212D01*
X57803352Y-112177070D01*
X57659104Y-112156858D01*
X57522669Y-112139998D01*
X57405375Y-112130488D01*
X57293411Y-112129750D01*
X57189182Y-112137658D01*
X57095098Y-112154086D01*
X57056000Y-112164436D01*
X56975532Y-112195821D01*
X56901729Y-112240247D01*
X56834253Y-112298099D01*
X56772768Y-112369762D01*
X56716936Y-112455622D01*
X56666419Y-112556063D01*
X56626993Y-112654335D01*
X56608342Y-112707955D01*
X56592605Y-112758738D01*
X56579416Y-112808984D01*
X56568407Y-112860991D01*
X56559210Y-112917060D01*
X56551458Y-112979488D01*
X56544783Y-113050575D01*
X56538818Y-113132621D01*
X56533196Y-113227925D01*
X56532122Y-113248000D01*
X56524931Y-113371022D01*
X56516915Y-113480703D01*
X56507715Y-113579691D01*
X56496974Y-113670639D01*
X56484335Y-113756196D01*
X56469439Y-113839013D01*
X56451929Y-113921740D01*
X56431448Y-114007029D01*
X56427793Y-114021399D01*
X56414648Y-114071133D01*
X56400777Y-114120116D01*
X56385571Y-114170079D01*
X56368416Y-114222752D01*
X56348702Y-114279864D01*
X56325817Y-114343145D01*
X56299150Y-114414326D01*
X56268088Y-114495136D01*
X56232021Y-114587305D01*
X56192152Y-114688000D01*
X56162816Y-114762384D01*
X56134169Y-114836152D01*
X56107020Y-114907146D01*
X56082177Y-114973207D01*
X56060445Y-115032175D01*
X56042634Y-115081893D01*
X56029550Y-115120199D01*
X56024418Y-115136431D01*
X55981141Y-115295885D01*
X55945052Y-115460784D01*
X55916367Y-115628673D01*
X55895300Y-115797095D01*
X55882067Y-115963595D01*
X55876882Y-116125717D01*
X55682856Y-116125717D01*
X55683751Y-115986742D01*
X55698840Y-115764175D01*
G37*
G36*
X61779363Y-119068389D02*
G01*
X61822322Y-118998213D01*
X61872436Y-118933403D01*
X61927587Y-118876772D01*
X61985653Y-118831132D01*
X62031181Y-118805172D01*
X62060785Y-118792268D01*
X62085938Y-118784719D01*
X62113323Y-118781142D01*
X62149620Y-118780152D01*
X62152000Y-118780145D01*
X62187474Y-118780694D01*
X62212410Y-118783280D01*
X62232242Y-118789036D01*
X62252405Y-118799096D01*
X62257787Y-118802212D01*
X62297269Y-118834398D01*
X62317787Y-118862212D01*
X62335011Y-118905927D01*
X62341187Y-118956635D01*
X62336295Y-119009735D01*
X62320311Y-119060625D01*
X62318769Y-119064000D01*
X62278759Y-119131059D01*
X62224763Y-119191932D01*
X62157878Y-119245768D01*
X62079202Y-119291715D01*
X61989835Y-119328920D01*
X61968000Y-119336114D01*
X61930952Y-119348985D01*
X61907958Y-119360993D01*
X61897364Y-119374312D01*
X61897513Y-119391113D01*
X61906750Y-119413570D01*
X61907649Y-119415323D01*
X61927513Y-119441105D01*
X61956199Y-119456734D01*
X61995628Y-119462989D01*
X62024023Y-119462639D01*
X62083928Y-119451647D01*
X62145942Y-119425727D01*
X62208685Y-119385566D01*
X62253371Y-119348370D01*
X62290502Y-119316902D01*
X62320205Y-119297845D01*
X62344195Y-119290483D01*
X62364189Y-119294098D01*
X62371883Y-119298773D01*
X62383812Y-119316889D01*
X62386799Y-119344269D01*
X62380921Y-119376955D01*
X62369909Y-119404216D01*
X62350655Y-119433140D01*
X62321276Y-119466749D01*
X62285397Y-119501547D01*
X62246642Y-119534037D01*
X62208635Y-119560722D01*
X62205973Y-119562357D01*
X62139677Y-119594954D01*
X62067784Y-119616782D01*
X61994843Y-119626845D01*
X61925401Y-119624151D01*
X61924000Y-119623948D01*
X61863017Y-119608171D01*
X61812190Y-119580074D01*
X61771094Y-119539340D01*
X61739501Y-119486094D01*
X61723478Y-119437112D01*
X61714183Y-119378239D01*
X61711898Y-119314227D01*
X61716903Y-119249831D01*
X61723389Y-119213588D01*
X61728407Y-119197274D01*
X61913405Y-119197274D01*
X61917376Y-119204456D01*
X61930181Y-119203743D01*
X61953453Y-119195399D01*
X61988824Y-119179688D01*
X62006825Y-119171354D01*
X62045879Y-119149594D01*
X62084750Y-119121658D01*
X62120544Y-119090300D01*
X62150370Y-119058278D01*
X62171337Y-119028348D01*
X62180122Y-119006160D01*
X62181932Y-118970927D01*
X62172883Y-118946406D01*
X62153918Y-118933583D01*
X62125978Y-118933445D01*
X62113865Y-118936704D01*
X62082371Y-118953245D01*
X62047608Y-118981738D01*
X62012098Y-119019220D01*
X61978363Y-119062727D01*
X61948924Y-119109296D01*
X61926302Y-119155964D01*
X61925428Y-119158161D01*
X61916633Y-119181930D01*
X61913405Y-119197274D01*
X61728407Y-119197274D01*
X61745678Y-119141118D01*
X61779363Y-119068389D01*
G37*
G36*
X57270527Y-114904045D02*
G01*
X57291558Y-114746310D01*
X57326958Y-114590612D01*
X57376732Y-114437945D01*
X57440883Y-114289304D01*
X57519414Y-114145684D01*
X57611393Y-114009335D01*
X57717006Y-113880608D01*
X57833299Y-113763459D01*
X57959425Y-113658370D01*
X58094539Y-113565822D01*
X58237794Y-113486296D01*
X58388344Y-113420272D01*
X58545344Y-113368232D01*
X58707947Y-113330656D01*
X58838621Y-113311644D01*
X58891974Y-113307630D01*
X58956267Y-113305619D01*
X59027210Y-113305500D01*
X59100514Y-113307162D01*
X59171890Y-113310494D01*
X59237047Y-113315385D01*
X59291697Y-113321726D01*
X59304000Y-113323656D01*
X59467295Y-113359037D01*
X59625029Y-113408939D01*
X59776340Y-113472733D01*
X59920367Y-113549791D01*
X60056247Y-113639486D01*
X60183121Y-113741191D01*
X60300126Y-113854277D01*
X60406400Y-113978117D01*
X60501083Y-114112083D01*
X60583314Y-114255547D01*
X60583545Y-114256000D01*
X60648361Y-114395624D01*
X60698906Y-114534027D01*
X60735964Y-114674283D01*
X60760318Y-114819463D01*
X60772755Y-114972642D01*
X60773790Y-115001378D01*
X60772911Y-115157104D01*
X60760420Y-115304252D01*
X60735824Y-115445748D01*
X60698630Y-115584519D01*
X60655088Y-115706706D01*
X60587429Y-115856174D01*
X60506414Y-115997859D01*
X60412961Y-116130950D01*
X60307990Y-116254634D01*
X60192419Y-116368101D01*
X60067168Y-116470537D01*
X59933153Y-116561130D01*
X59791296Y-116639070D01*
X59642513Y-116703544D01*
X59487724Y-116753740D01*
X59462971Y-116760262D01*
X59321268Y-116789906D01*
X59173850Y-116808516D01*
X59025537Y-116815733D01*
X58881154Y-116811195D01*
X58836000Y-116807142D01*
X58673783Y-116782107D01*
X58514172Y-116741641D01*
X58358415Y-116686255D01*
X58207760Y-116616461D01*
X58063457Y-116532770D01*
X57926752Y-116435694D01*
X57924120Y-116433631D01*
X57883286Y-116399211D01*
X57835897Y-116355426D01*
X57785166Y-116305584D01*
X57734309Y-116252991D01*
X57686540Y-116200952D01*
X57645074Y-116152775D01*
X57619156Y-116119981D01*
X57525360Y-115981735D01*
X57445904Y-115837573D01*
X57380793Y-115688490D01*
X57330029Y-115535479D01*
X57293617Y-115379535D01*
X57271561Y-115221652D01*
X57264440Y-115074732D01*
X57698216Y-115074732D01*
X57698984Y-115096847D01*
X57700263Y-115103096D01*
X57705031Y-115102316D01*
X57713676Y-115086827D01*
X57725844Y-115057352D01*
X57735219Y-115031758D01*
X57751772Y-114987396D01*
X57772150Y-114936284D01*
X57793243Y-114886094D01*
X57805257Y-114858934D01*
X57882936Y-114706871D01*
X57975382Y-114560024D01*
X58081948Y-114419312D01*
X58201988Y-114285653D01*
X58223577Y-114263811D01*
X58348824Y-114147103D01*
X58476960Y-114044685D01*
X58610442Y-113955007D01*
X58751727Y-113876519D01*
X58903271Y-113807668D01*
X59012000Y-113766076D01*
X59100000Y-113734661D01*
X58988000Y-113739126D01*
X58891653Y-113745346D01*
X58804541Y-113756444D01*
X58720376Y-113773406D01*
X58649960Y-113792147D01*
X58515293Y-113839550D01*
X58387893Y-113900699D01*
X58268598Y-113974688D01*
X58158250Y-114060613D01*
X58057686Y-114157567D01*
X57967747Y-114264644D01*
X57889272Y-114380938D01*
X57823102Y-114505544D01*
X57770074Y-114637556D01*
X57731030Y-114776067D01*
X57728840Y-114785990D01*
X57722578Y-114819726D01*
X57716476Y-114861171D01*
X57710815Y-114907203D01*
X57705877Y-114954698D01*
X57701944Y-115000534D01*
X57699296Y-115041586D01*
X57698216Y-115074732D01*
X57264440Y-115074732D01*
X57263863Y-115062824D01*
X57270527Y-114904045D01*
G37*
G36*
X57096686Y-118789129D02*
G01*
X57136333Y-118815196D01*
X57170354Y-118856219D01*
X57184410Y-118880803D01*
X57202217Y-118925771D01*
X57211392Y-118971622D01*
X57212097Y-119015193D01*
X57204494Y-119053325D01*
X57188745Y-119082856D01*
X57173322Y-119096499D01*
X57139288Y-119110154D01*
X57107901Y-119108171D01*
X57086203Y-119096304D01*
X57072445Y-119080564D01*
X57060863Y-119055533D01*
X57050483Y-119018692D01*
X57043794Y-118986552D01*
X57035273Y-118960465D01*
X57021594Y-118949108D01*
X57001411Y-118951672D01*
X56992500Y-118955741D01*
X56968639Y-118973917D01*
X56941112Y-119004413D01*
X56911613Y-119044477D01*
X56881842Y-119091354D01*
X56853495Y-119142292D01*
X56828268Y-119194537D01*
X56807860Y-119245336D01*
X56800745Y-119266842D01*
X56791254Y-119306487D01*
X56785693Y-119347847D01*
X56784297Y-119386346D01*
X56787302Y-119417408D01*
X56792237Y-119432443D01*
X56812501Y-119454189D01*
X56843743Y-119467192D01*
X56883696Y-119471686D01*
X56930094Y-119467904D01*
X56980672Y-119456081D01*
X57033163Y-119436451D01*
X57085300Y-119409249D01*
X57098824Y-119400766D01*
X57142509Y-119374541D01*
X57177087Y-119359092D01*
X57204551Y-119353670D01*
X57220019Y-119355290D01*
X57237868Y-119366991D01*
X57245911Y-119388338D01*
X57243038Y-119415543D01*
X57240100Y-119423756D01*
X57222509Y-119451908D01*
X57192941Y-119483586D01*
X57154341Y-119516546D01*
X57109654Y-119548542D01*
X57061826Y-119577328D01*
X57013802Y-119600660D01*
X57001572Y-119605585D01*
X56957550Y-119618281D01*
X56906030Y-119626629D01*
X56852323Y-119630317D01*
X56801745Y-119629035D01*
X56759609Y-119622472D01*
X56751755Y-119620210D01*
X56712466Y-119601373D01*
X56674526Y-119572562D01*
X56643616Y-119538549D01*
X56631631Y-119519277D01*
X56613956Y-119468959D01*
X56606271Y-119409000D01*
X56608287Y-119342024D01*
X56619716Y-119270652D01*
X56640270Y-119197508D01*
X56669661Y-119125213D01*
X56676451Y-119111331D01*
X56708445Y-119054584D01*
X56746790Y-118997521D01*
X56789231Y-118942726D01*
X56833514Y-118892787D01*
X56877384Y-118850288D01*
X56918588Y-118817817D01*
X56946548Y-118801522D01*
X57001538Y-118782207D01*
X57051669Y-118778104D01*
X57096686Y-118789129D01*
G37*
G36*
X58010862Y-118821086D02*
G01*
X58054876Y-118836549D01*
X58090081Y-118861412D01*
X58093467Y-118864944D01*
X58115973Y-118899764D01*
X58126968Y-118939841D01*
X58125659Y-118980230D01*
X58116295Y-119007427D01*
X58096838Y-119030868D01*
X58070475Y-119040224D01*
X58037939Y-119035469D01*
X57999967Y-119016574D01*
X57993090Y-119012000D01*
X57969272Y-118997081D01*
X57948980Y-118986924D01*
X57938622Y-118984000D01*
X57915378Y-118991099D01*
X57885466Y-119012122D01*
X57849325Y-119046655D01*
X57807392Y-119094287D01*
X57765416Y-119147542D01*
X57708572Y-119235423D01*
X57663027Y-119332942D01*
X57629975Y-119437328D01*
X57619643Y-119485020D01*
X57612410Y-119520322D01*
X57604672Y-119552545D01*
X57597767Y-119576267D01*
X57595832Y-119581468D01*
X57577119Y-119607524D01*
X57549059Y-119624726D01*
X57516163Y-119632213D01*
X57482944Y-119629121D01*
X57453917Y-119614589D01*
X57448396Y-119609627D01*
X57428333Y-119579726D01*
X57417011Y-119545233D01*
X57412244Y-119512414D01*
X57409187Y-119468267D01*
X57407716Y-119415030D01*
X57407705Y-119354941D01*
X57409031Y-119290237D01*
X57411570Y-119223157D01*
X57415196Y-119155938D01*
X57419785Y-119090819D01*
X57425212Y-119030036D01*
X57431354Y-118975828D01*
X57438085Y-118930433D01*
X57445281Y-118896088D01*
X57452818Y-118875031D01*
X57454442Y-118872494D01*
X57484544Y-118841141D01*
X57518479Y-118824210D01*
X57551942Y-118820000D01*
X57580861Y-118822421D01*
X57601351Y-118831216D01*
X57611355Y-118839394D01*
X57623581Y-118855068D01*
X57630254Y-118875432D01*
X57631343Y-118902749D01*
X57626817Y-118939283D01*
X57616645Y-118987297D01*
X57608887Y-119018429D01*
X57598853Y-119059413D01*
X57589922Y-119099679D01*
X57583242Y-119133854D01*
X57580427Y-119152000D01*
X57575079Y-119196000D01*
X57608030Y-119136597D01*
X57651334Y-119064449D01*
X57697541Y-118998180D01*
X57744957Y-118939758D01*
X57791889Y-118891152D01*
X57836642Y-118854330D01*
X57866543Y-118836230D01*
X57912638Y-118820413D01*
X57962097Y-118815537D01*
X58010862Y-118821086D01*
G37*
G36*
X59162916Y-118808609D02*
G01*
X59192009Y-118826682D01*
X59211881Y-118852880D01*
X59220101Y-118877554D01*
X59223931Y-118908993D01*
X59223270Y-118948959D01*
X59218017Y-118999214D01*
X59208072Y-119061519D01*
X59196500Y-119122071D01*
X59187379Y-119167762D01*
X59179492Y-119208011D01*
X59173338Y-119240201D01*
X59169419Y-119261719D01*
X59168216Y-119269827D01*
X59171721Y-119265354D01*
X59181233Y-119248926D01*
X59195484Y-119222836D01*
X59213207Y-119189381D01*
X59222701Y-119171139D01*
X59269852Y-119085260D01*
X59315189Y-119013648D01*
X59359710Y-118954818D01*
X59392630Y-118918728D01*
X59435164Y-118881935D01*
X59476492Y-118859141D01*
X59519591Y-118848903D01*
X59538498Y-118848000D01*
X59579918Y-118853460D01*
X59614119Y-118870260D01*
X59641415Y-118899024D01*
X59662121Y-118940379D01*
X59676551Y-118994950D01*
X59685020Y-119063362D01*
X59687841Y-119144883D01*
X59688740Y-119193533D01*
X59691061Y-119235249D01*
X59694562Y-119267750D01*
X59698999Y-119288759D01*
X59703990Y-119296000D01*
X59709183Y-119289196D01*
X59720410Y-119270174D01*
X59736528Y-119241014D01*
X59756394Y-119203798D01*
X59778867Y-119160608D01*
X59786977Y-119144778D01*
X59823199Y-119075178D01*
X59854370Y-119018643D01*
X59881663Y-118973496D01*
X59906251Y-118938061D01*
X59929305Y-118910661D01*
X59951998Y-118889619D01*
X59975502Y-118873261D01*
X59977765Y-118871921D01*
X60003102Y-118858294D01*
X60024101Y-118851258D01*
X60048008Y-118849149D01*
X60073731Y-118849871D01*
X60104560Y-118852284D01*
X60125077Y-118857097D01*
X60140963Y-118866213D01*
X60152446Y-118876246D01*
X60171151Y-118896707D01*
X60186553Y-118920413D01*
X60199308Y-118949543D01*
X60210074Y-118986275D01*
X60219510Y-119032789D01*
X60228272Y-119091263D01*
X60235682Y-119152000D01*
X60241449Y-119198587D01*
X60248090Y-119245745D01*
X60254787Y-119287988D01*
X60260720Y-119319832D01*
X60260756Y-119320000D01*
X60268277Y-119351915D01*
X60276546Y-119374060D01*
X60288938Y-119392447D01*
X60308827Y-119413088D01*
X60317774Y-119421573D01*
X60343638Y-119448004D01*
X60357799Y-119468226D01*
X60362000Y-119484325D01*
X60354566Y-119513442D01*
X60334533Y-119540064D01*
X60305299Y-119561851D01*
X60270263Y-119576463D01*
X60232824Y-119581560D01*
X60221717Y-119580894D01*
X60179408Y-119570103D01*
X60145183Y-119547340D01*
X60118127Y-119511636D01*
X60097325Y-119462021D01*
X60091970Y-119443540D01*
X60087075Y-119420144D01*
X60081242Y-119384386D01*
X60074974Y-119339837D01*
X60068780Y-119290068D01*
X60063709Y-119244000D01*
X60056452Y-119178153D01*
X60049672Y-119127131D01*
X60043133Y-119089775D01*
X60036598Y-119064925D01*
X60029831Y-119051422D01*
X60023740Y-119048000D01*
X60014959Y-119052301D01*
X60002804Y-119065845D01*
X59986694Y-119089594D01*
X59966045Y-119124510D01*
X59940274Y-119171554D01*
X59908799Y-119231688D01*
X59889110Y-119270169D01*
X59862761Y-119321253D01*
X59837143Y-119369571D01*
X59813635Y-119412625D01*
X59793617Y-119447914D01*
X59778468Y-119472939D01*
X59772065Y-119482283D01*
X59745193Y-119510112D01*
X59712681Y-119532996D01*
X59679602Y-119547888D01*
X59656000Y-119552000D01*
X59629956Y-119546907D01*
X59600714Y-119533910D01*
X59574377Y-119516427D01*
X59557052Y-119497879D01*
X59555989Y-119495979D01*
X59547604Y-119473907D01*
X59540323Y-119441631D01*
X59533989Y-119397906D01*
X59528444Y-119341488D01*
X59523529Y-119271131D01*
X59520582Y-119217032D01*
X59517713Y-119167987D01*
X59514398Y-119125415D01*
X59510888Y-119091790D01*
X59507436Y-119069585D01*
X59504738Y-119061538D01*
X59496589Y-119058788D01*
X59484983Y-119064645D01*
X59469035Y-119080123D01*
X59447856Y-119106232D01*
X59420561Y-119143986D01*
X59386262Y-119194396D01*
X59379868Y-119204000D01*
X59342768Y-119261322D01*
X59307156Y-119319078D01*
X59274090Y-119375314D01*
X59244629Y-119428076D01*
X59219831Y-119475411D01*
X59200755Y-119515365D01*
X59188459Y-119545983D01*
X59184001Y-119565313D01*
X59184000Y-119565582D01*
X59178696Y-119578251D01*
X59165483Y-119595491D01*
X59160615Y-119600615D01*
X59131109Y-119619780D01*
X59097279Y-119625405D01*
X59063407Y-119617443D01*
X59039967Y-119602000D01*
X59025866Y-119586603D01*
X59015183Y-119567893D01*
X59007679Y-119543903D01*
X59003113Y-119512667D01*
X59001247Y-119472218D01*
X59001839Y-119420591D01*
X59004651Y-119355818D01*
X59006322Y-119326159D01*
X59009738Y-119272868D01*
X59013539Y-119221399D01*
X59017428Y-119175251D01*
X59021110Y-119137925D01*
X59024287Y-119112921D01*
X59024414Y-119112140D01*
X59028125Y-119084161D01*
X59032107Y-119045136D01*
X59035908Y-119000004D01*
X59039077Y-118953703D01*
X59039372Y-118948675D01*
X59042061Y-118904259D01*
X59044567Y-118872923D01*
X59047513Y-118851766D01*
X59051522Y-118837890D01*
X59057217Y-118828394D01*
X59065222Y-118820378D01*
X59067344Y-118818534D01*
X59096101Y-118803470D01*
X59129452Y-118800517D01*
X59162916Y-118808609D01*
G37*
G36*
X58118572Y-119268942D02*
G01*
X58143464Y-119202853D01*
X58156571Y-119175331D01*
X58182701Y-119128799D01*
X58216731Y-119076376D01*
X58254977Y-119023213D01*
X58293757Y-118974455D01*
X58325595Y-118939082D01*
X58382086Y-118885839D01*
X58435044Y-118846087D01*
X58486939Y-118818489D01*
X58540244Y-118801704D01*
X58592000Y-118794703D01*
X58625255Y-118793347D01*
X58647849Y-118794901D01*
X58664976Y-118800131D01*
X58678103Y-118807394D01*
X58699679Y-118826402D01*
X58716735Y-118850233D01*
X58717585Y-118851945D01*
X58730336Y-118871261D01*
X58743640Y-118879885D01*
X58745105Y-118880000D01*
X58773740Y-118886721D01*
X58797689Y-118904146D01*
X58808040Y-118920098D01*
X58811152Y-118931799D01*
X58811894Y-118948233D01*
X58810039Y-118971974D01*
X58805361Y-119005593D01*
X58797632Y-119051662D01*
X58795262Y-119065061D01*
X58783175Y-119143562D01*
X58775310Y-119218319D01*
X58771702Y-119287101D01*
X58772386Y-119347675D01*
X58777396Y-119397809D01*
X58786769Y-119435271D01*
X58789346Y-119441432D01*
X58808870Y-119472791D01*
X58831183Y-119491577D01*
X58853590Y-119510769D01*
X58862547Y-119536159D01*
X58856890Y-119564067D01*
X58855155Y-119567445D01*
X58834856Y-119590119D01*
X58804429Y-119607936D01*
X58769019Y-119619329D01*
X58733775Y-119622733D01*
X58703845Y-119616580D01*
X58700000Y-119614664D01*
X58671957Y-119594597D01*
X58650751Y-119568004D01*
X58635301Y-119532495D01*
X58624523Y-119485680D01*
X58618092Y-119433735D01*
X58612000Y-119367470D01*
X58580000Y-119408595D01*
X58544562Y-119448449D01*
X58500587Y-119489409D01*
X58453039Y-119527356D01*
X58406886Y-119558171D01*
X58385758Y-119569679D01*
X58345001Y-119586586D01*
X58304535Y-119595448D01*
X58277758Y-119597907D01*
X58225885Y-119596135D01*
X58184034Y-119583119D01*
X58149816Y-119557708D01*
X58124000Y-119523986D01*
X58112973Y-119505102D01*
X58105977Y-119488552D01*
X58102113Y-119469838D01*
X58100487Y-119444461D01*
X58100201Y-119407925D01*
X58100208Y-119404607D01*
X58101994Y-119376272D01*
X58281197Y-119376272D01*
X58281259Y-119406135D01*
X58286388Y-119425734D01*
X58287830Y-119427795D01*
X58303774Y-119435771D01*
X58329019Y-119431956D01*
X58364132Y-119416240D01*
X58372428Y-119411637D01*
X58398071Y-119393268D01*
X58429766Y-119364913D01*
X58464497Y-119329773D01*
X58499253Y-119291047D01*
X58531019Y-119251935D01*
X58556249Y-119216463D01*
X58588874Y-119159747D01*
X58611602Y-119106531D01*
X58624079Y-119058498D01*
X58625954Y-119017331D01*
X58616875Y-118984714D01*
X58607439Y-118971403D01*
X58591546Y-118957366D01*
X58576203Y-118953112D01*
X58556306Y-118958354D01*
X58537029Y-118967475D01*
X58508094Y-118987414D01*
X58474467Y-119018958D01*
X58438341Y-119059270D01*
X58401908Y-119105514D01*
X58367364Y-119154851D01*
X58336900Y-119204446D01*
X58312712Y-119251461D01*
X58306730Y-119265315D01*
X58294400Y-119301842D01*
X58285733Y-119340167D01*
X58281197Y-119376272D01*
X58101994Y-119376272D01*
X58104648Y-119334178D01*
X58118572Y-119268942D01*
G37*
G36*
X56281326Y-118529653D02*
G01*
X56321744Y-118531776D01*
X56351257Y-118534986D01*
X56374964Y-118540374D01*
X56397960Y-118549031D01*
X56419813Y-118559311D01*
X56466141Y-118587193D01*
X56497600Y-118618456D01*
X56515190Y-118654413D01*
X56519987Y-118691200D01*
X56513725Y-118737381D01*
X56495801Y-118774169D01*
X56467467Y-118800183D01*
X56429971Y-118814042D01*
X56407022Y-118815987D01*
X56387839Y-118814688D01*
X56378565Y-118807633D01*
X56373897Y-118790116D01*
X56373218Y-118786000D01*
X56362931Y-118750700D01*
X56344014Y-118725014D01*
X56314871Y-118707980D01*
X56273905Y-118698634D01*
X56223977Y-118696000D01*
X56150295Y-118703172D01*
X56076984Y-118723572D01*
X56009549Y-118755526D01*
X55992219Y-118766484D01*
X55950703Y-118799806D01*
X55924465Y-118833864D01*
X55912783Y-118869702D01*
X55912000Y-118882421D01*
X55914106Y-118904173D01*
X55922558Y-118921796D01*
X55940553Y-118941620D01*
X55943172Y-118944131D01*
X55956137Y-118955256D01*
X55971439Y-118965357D01*
X55991500Y-118975488D01*
X56018746Y-118986708D01*
X56055598Y-119000072D01*
X56104482Y-119016638D01*
X56125172Y-119023484D01*
X56211136Y-119053007D01*
X56282660Y-119080385D01*
X56341038Y-119106372D01*
X56387565Y-119131723D01*
X56423535Y-119157191D01*
X56450244Y-119183532D01*
X56468985Y-119211499D01*
X56476506Y-119228213D01*
X56485651Y-119270440D01*
X56484806Y-119317343D01*
X56474401Y-119361459D01*
X56467992Y-119376014D01*
X56437338Y-119420803D01*
X56392891Y-119465233D01*
X56336830Y-119508006D01*
X56271334Y-119547825D01*
X56198581Y-119583395D01*
X56120753Y-119613418D01*
X56040026Y-119636597D01*
X56024000Y-119640238D01*
X55967817Y-119650397D01*
X55910647Y-119657131D01*
X55856402Y-119660241D01*
X55808994Y-119659527D01*
X55772335Y-119654788D01*
X55766788Y-119653383D01*
X55720074Y-119635017D01*
X55687941Y-119610290D01*
X55670182Y-119578947D01*
X55666586Y-119540731D01*
X55667682Y-119531329D01*
X55676520Y-119502890D01*
X55692337Y-119476718D01*
X55711759Y-119457055D01*
X55731409Y-119448147D01*
X55733957Y-119448000D01*
X55749506Y-119450676D01*
X55774048Y-119457620D01*
X55796747Y-119465355D01*
X55854377Y-119479492D01*
X55919992Y-119483647D01*
X55989143Y-119477905D01*
X56057378Y-119462351D01*
X56064000Y-119460253D01*
X56127194Y-119437218D01*
X56182661Y-119412129D01*
X56228834Y-119386000D01*
X56264148Y-119359849D01*
X56287038Y-119334692D01*
X56295938Y-119311545D01*
X56296000Y-119309626D01*
X56293935Y-119295177D01*
X56286773Y-119281722D01*
X56273063Y-119268468D01*
X56251352Y-119254622D01*
X56220189Y-119239389D01*
X56178122Y-119221976D01*
X56123700Y-119201590D01*
X56055470Y-119177436D01*
X56052000Y-119176230D01*
X56003063Y-119158839D01*
X55955952Y-119141389D01*
X55914107Y-119125206D01*
X55880969Y-119111616D01*
X55861763Y-119102868D01*
X55807301Y-119068347D01*
X55767246Y-119026924D01*
X55741459Y-118978370D01*
X55729803Y-118922451D01*
X55729818Y-118880929D01*
X55740143Y-118824188D01*
X55763325Y-118771521D01*
X55800554Y-118720646D01*
X55828071Y-118692000D01*
X55902533Y-118631006D01*
X55984358Y-118584195D01*
X56073410Y-118551615D01*
X56169554Y-118533316D01*
X56272654Y-118529345D01*
X56281326Y-118529653D01*
G37*
G36*
X61613191Y-118370576D02*
G01*
X61641635Y-118385182D01*
X61645334Y-118388607D01*
X61655484Y-118399819D01*
X61661302Y-118411148D01*
X61663632Y-118426920D01*
X61663312Y-118451457D01*
X61662055Y-118474607D01*
X61656750Y-118519284D01*
X61645318Y-118578397D01*
X61627825Y-118651630D01*
X61617216Y-118692000D01*
X61578740Y-118849864D01*
X61551134Y-118998410D01*
X61534169Y-119139846D01*
X61527617Y-119276381D01*
X61531252Y-119410221D01*
X61536555Y-119474230D01*
X61540168Y-119513646D01*
X61541497Y-119541106D01*
X61540375Y-119560515D01*
X61536633Y-119575776D01*
X61531703Y-119587493D01*
X61510762Y-119616690D01*
X61482143Y-119636918D01*
X61449688Y-119647154D01*
X61417241Y-119646374D01*
X61388645Y-119633555D01*
X61381636Y-119627455D01*
X61368463Y-119610202D01*
X61358516Y-119586887D01*
X61351448Y-119555462D01*
X61346914Y-119513880D01*
X61344565Y-119460094D01*
X61344027Y-119405606D01*
X61346724Y-119291131D01*
X61354930Y-119171192D01*
X61368894Y-119043529D01*
X61388867Y-118905886D01*
X61415096Y-118756005D01*
X61416604Y-118748000D01*
X61433799Y-118660338D01*
X61449623Y-118587260D01*
X61464528Y-118527452D01*
X61478969Y-118479602D01*
X61493401Y-118442397D01*
X61508278Y-118414525D01*
X61524054Y-118394672D01*
X61541182Y-118381527D01*
X61543913Y-118380044D01*
X61579276Y-118368750D01*
X61613191Y-118370576D01*
G37*
G36*
X60469710Y-119310960D02*
G01*
X60476347Y-119260143D01*
X60485060Y-119199471D01*
X60495514Y-119130892D01*
X60507377Y-119056356D01*
X60520314Y-118977811D01*
X60533991Y-118897206D01*
X60548074Y-118816489D01*
X60562229Y-118737610D01*
X60576123Y-118662516D01*
X60589420Y-118593157D01*
X60601788Y-118531482D01*
X60612893Y-118479438D01*
X60622399Y-118438976D01*
X60627970Y-118418434D01*
X60645851Y-118378191D01*
X60671617Y-118346859D01*
X60702563Y-118327353D01*
X60716258Y-118323423D01*
X60751982Y-118321178D01*
X60777551Y-118330402D01*
X60794613Y-118351768D01*
X60796527Y-118356027D01*
X60803685Y-118379105D01*
X60807230Y-118406822D01*
X60806966Y-118440790D01*
X60802693Y-118482623D01*
X60794214Y-118533934D01*
X60781332Y-118596337D01*
X60763847Y-118671444D01*
X60751886Y-118720000D01*
X60739551Y-118770007D01*
X60727065Y-118821814D01*
X60715666Y-118870207D01*
X60706591Y-118909973D01*
X60704386Y-118920000D01*
X60696763Y-118955031D01*
X60690008Y-118985893D01*
X60685118Y-119008038D01*
X60683639Y-119014620D01*
X60685422Y-119019130D01*
X60695566Y-119013319D01*
X60714759Y-118996648D01*
X60743687Y-118968574D01*
X60749691Y-118962560D01*
X60818435Y-118898933D01*
X60883171Y-118850436D01*
X60944339Y-118816829D01*
X61002381Y-118797873D01*
X61057736Y-118793329D01*
X61061015Y-118793511D01*
X61092993Y-118797016D01*
X61115945Y-118804174D01*
X61136794Y-118817363D01*
X61141666Y-118821213D01*
X61177586Y-118860386D01*
X61201557Y-118909798D01*
X61213456Y-118968912D01*
X61213162Y-119037187D01*
X61204419Y-119096302D01*
X61177211Y-119190609D01*
X61134783Y-119281273D01*
X61077672Y-119367433D01*
X61006417Y-119448226D01*
X60956284Y-119494463D01*
X60920840Y-119520898D01*
X60878509Y-119546549D01*
X60833955Y-119569077D01*
X60791841Y-119586148D01*
X60756827Y-119595423D01*
X60754075Y-119595810D01*
X60726571Y-119599280D01*
X60702534Y-119602301D01*
X60696000Y-119603119D01*
X60675415Y-119603214D01*
X60648780Y-119600376D01*
X60641174Y-119599083D01*
X60599593Y-119586136D01*
X60562988Y-119565151D01*
X60534284Y-119538667D01*
X60516403Y-119509222D01*
X60511854Y-119486790D01*
X60507531Y-119474410D01*
X60496623Y-119454479D01*
X60487854Y-119440796D01*
X60468680Y-119403282D01*
X60464000Y-119375234D01*
X60464450Y-119367564D01*
X60632845Y-119367564D01*
X60633764Y-119397342D01*
X60645342Y-119421269D01*
X60651636Y-119428363D01*
X60674508Y-119443499D01*
X60702737Y-119447135D01*
X60738353Y-119439219D01*
X60772000Y-119425260D01*
X60821359Y-119395611D01*
X60869142Y-119355323D01*
X60913890Y-119306843D01*
X60954145Y-119252619D01*
X60988448Y-119195100D01*
X61015341Y-119136732D01*
X61033364Y-119079964D01*
X61041060Y-119027243D01*
X61036970Y-118981018D01*
X61036893Y-118980713D01*
X61027155Y-118964962D01*
X61008101Y-118960202D01*
X60978980Y-118966456D01*
X60939277Y-118983631D01*
X60890088Y-119014168D01*
X60838339Y-119056812D01*
X60786778Y-119108577D01*
X60738157Y-119166476D01*
X60695226Y-119227524D01*
X60663608Y-119282926D01*
X60642742Y-119330053D01*
X60632845Y-119367564D01*
X60464450Y-119367564D01*
X60465483Y-119349974D01*
X60469710Y-119310960D01*
G37*
D14*
X60522500Y-121745276D02*
X60522500Y-122254724D01*
X59477500Y-121745276D02*
X59477500Y-122254724D01*
X60522500Y-129745276D02*
X60522500Y-130254724D01*
X59477500Y-129745276D02*
X59477500Y-130254724D01*
X71510000Y-121853733D02*
X71510000Y-122146267D01*
X70490000Y-121853733D02*
X70490000Y-122146267D01*
D11*
X64341421Y-128700000D02*
G75*
G03*
X64341421Y-128700000I-141421J0D01*
G01*
D14*
X105661668Y-117287689D02*
X105131338Y-117818019D01*
X101560449Y-119267588D02*
X102267555Y-118560482D01*
X108292105Y-119903984D02*
X104070678Y-115682557D01*
X102267555Y-118560482D02*
X101737225Y-118030152D01*
X99969458Y-119797918D02*
X98696666Y-121070711D01*
X101030118Y-118737258D02*
X101560449Y-119267588D01*
X100499788Y-120328249D02*
X99969458Y-119797918D01*
X98682524Y-121070711D02*
X102903951Y-125292138D01*
X107217303Y-119903984D02*
X105060627Y-122060660D01*
X102903951Y-125292138D02*
X108292105Y-119903984D01*
X99156286Y-120186827D02*
X98272402Y-121070711D01*
X103328216Y-117499821D02*
X104601008Y-116227029D01*
X100287656Y-122661701D02*
X100817986Y-122131371D01*
X105131338Y-117818019D02*
X107217303Y-119903984D01*
X104070678Y-115696699D02*
X102797885Y-116969491D01*
X98272402Y-121070711D02*
X99156286Y-121954594D01*
X102903951Y-124217336D02*
X105060627Y-122060660D01*
X98696666Y-121070711D02*
X99226996Y-121601041D01*
X100817986Y-122131371D02*
X102903951Y-124217336D01*
X99226996Y-121601041D02*
X100499788Y-120328249D01*
X104070678Y-115682557D02*
X98682524Y-121070711D01*
X104601008Y-116227029D02*
X104070678Y-115696699D01*
X101737225Y-118030152D02*
X101030118Y-118737258D01*
X102797885Y-116969491D02*
X103328216Y-117499821D01*
X70070000Y-107080000D02*
X59930000Y-107080000D01*
X59930000Y-107080000D02*
X59930000Y-110920000D01*
X73720000Y-109000000D02*
X70070000Y-109000000D01*
X59930000Y-110920000D02*
X70070000Y-110920000D01*
X56280000Y-109000000D02*
X59930000Y-109000000D01*
X70070000Y-110920000D02*
X70070000Y-107080000D01*
X74365474Y-139246378D02*
X76246378Y-137365474D01*
X72526996Y-137407900D02*
X73467448Y-136467448D01*
X74365474Y-139246378D02*
X79796054Y-144676958D01*
X76246378Y-137365474D02*
X81676958Y-142796054D01*
X79796054Y-144676958D02*
X81676958Y-142796054D01*
X73467448Y-138348352D02*
X72526996Y-137407900D01*
X51920000Y-113080000D02*
X51920000Y-116920000D01*
X50080000Y-113080000D02*
X50080000Y-116920000D01*
X95400000Y-119650000D02*
X90000000Y-119650000D01*
X95400000Y-116350000D02*
X90000000Y-116350000D01*
X95400000Y-119650000D02*
X95400000Y-116350000D01*
X78530000Y-116550000D02*
X78530000Y-116820000D01*
X78530000Y-123450000D02*
X78530000Y-123180000D01*
X78530000Y-116820000D02*
X75700000Y-116820000D01*
X78530000Y-123180000D02*
X77430000Y-123180000D01*
X80030000Y-123450000D02*
X78530000Y-123450000D01*
X80030000Y-116550000D02*
X78530000Y-116550000D01*
X48735000Y-113340000D02*
X47265000Y-113340000D01*
X47265000Y-113340000D02*
X47265000Y-115800000D01*
X48735000Y-115800000D02*
X48735000Y-113340000D01*
M02*
