G04 #@! TF.GenerationSoftware,KiCad,Pcbnew,(6.0.1)*
G04 #@! TF.CreationDate,2022-02-25T16:24:57+09:00*
G04 #@! TF.ProjectId,kick-drib-2,6b69636b-2d64-4726-9962-2d322e6b6963,V1.1*
G04 #@! TF.SameCoordinates,Original*
G04 #@! TF.FileFunction,Copper,L1,Top*
G04 #@! TF.FilePolarity,Positive*
%FSLAX46Y46*%
G04 Gerber Fmt 4.6, Leading zero omitted, Abs format (unit mm)*
G04 Created by KiCad (PCBNEW (6.0.1)) date 2022-02-25 16:24:57*
%MOMM*%
%LPD*%
G01*
G04 APERTURE LIST*
G04 Aperture macros list*
%AMRoundRect*
0 Rectangle with rounded corners*
0 $1 Rounding radius*
0 $2 $3 $4 $5 $6 $7 $8 $9 X,Y pos of 4 corners*
0 Add a 4 corners polygon primitive as box body*
4,1,4,$2,$3,$4,$5,$6,$7,$8,$9,$2,$3,0*
0 Add four circle primitives for the rounded corners*
1,1,$1+$1,$2,$3*
1,1,$1+$1,$4,$5*
1,1,$1+$1,$6,$7*
1,1,$1+$1,$8,$9*
0 Add four rect primitives between the rounded corners*
20,1,$1+$1,$2,$3,$4,$5,0*
20,1,$1+$1,$4,$5,$6,$7,0*
20,1,$1+$1,$6,$7,$8,$9,0*
20,1,$1+$1,$8,$9,$2,$3,0*%
%AMHorizOval*
0 Thick line with rounded ends*
0 $1 width*
0 $2 $3 position (X,Y) of the first rounded end (center of the circle)*
0 $4 $5 position (X,Y) of the second rounded end (center of the circle)*
0 Add line between two ends*
20,1,$1,$2,$3,$4,$5,0*
0 Add two circle primitives to create the rounded ends*
1,1,$1,$2,$3*
1,1,$1,$4,$5*%
%AMRotRect*
0 Rectangle, with rotation*
0 The origin of the aperture is its center*
0 $1 length*
0 $2 width*
0 $3 Rotation angle, in degrees counterclockwise*
0 Add horizontal line*
21,1,$1,$2,0,0,$3*%
G04 Aperture macros list end*
G04 #@! TA.AperFunction,SMDPad,CuDef*
%ADD10R,1.400000X0.800000*%
G04 #@! TD*
G04 #@! TA.AperFunction,SMDPad,CuDef*
%ADD11RoundRect,0.237500X-0.237500X0.300000X-0.237500X-0.300000X0.237500X-0.300000X0.237500X0.300000X0*%
G04 #@! TD*
G04 #@! TA.AperFunction,ComponentPad*
%ADD12RoundRect,0.250000X0.954594X0.106066X0.106066X0.954594X-0.954594X-0.106066X-0.106066X-0.954594X0*%
G04 #@! TD*
G04 #@! TA.AperFunction,ComponentPad*
%ADD13HorizOval,1.700000X0.106066X0.106066X-0.106066X-0.106066X0*%
G04 #@! TD*
G04 #@! TA.AperFunction,ComponentPad*
%ADD14RotRect,1.700000X1.700000X135.000000*%
G04 #@! TD*
G04 #@! TA.AperFunction,ComponentPad*
%ADD15HorizOval,1.700000X0.000000X0.000000X0.000000X0.000000X0*%
G04 #@! TD*
G04 #@! TA.AperFunction,ComponentPad*
%ADD16C,1.800000*%
G04 #@! TD*
G04 #@! TA.AperFunction,ComponentPad*
%ADD17C,1.431000*%
G04 #@! TD*
G04 #@! TA.AperFunction,SMDPad,CuDef*
%ADD18RoundRect,0.237500X-0.237500X0.250000X-0.237500X-0.250000X0.237500X-0.250000X0.237500X0.250000X0*%
G04 #@! TD*
G04 #@! TA.AperFunction,ComponentPad*
%ADD19RoundRect,0.250000X0.106066X-0.954594X0.954594X-0.106066X-0.106066X0.954594X-0.954594X0.106066X0*%
G04 #@! TD*
G04 #@! TA.AperFunction,ComponentPad*
%ADD20HorizOval,1.700000X-0.106066X0.106066X0.106066X-0.106066X0*%
G04 #@! TD*
G04 #@! TA.AperFunction,ComponentPad*
%ADD21C,2.400000*%
G04 #@! TD*
G04 #@! TA.AperFunction,ComponentPad*
%ADD22O,2.400000X2.400000*%
G04 #@! TD*
G04 #@! TA.AperFunction,ComponentPad*
%ADD23RotRect,1.700000X1.700000X45.000000*%
G04 #@! TD*
G04 #@! TA.AperFunction,ComponentPad*
%ADD24HorizOval,1.700000X0.000000X0.000000X0.000000X0.000000X0*%
G04 #@! TD*
G04 #@! TA.AperFunction,ComponentPad*
%ADD25C,1.400000*%
G04 #@! TD*
G04 #@! TA.AperFunction,ComponentPad*
%ADD26O,1.400000X1.400000*%
G04 #@! TD*
G04 #@! TA.AperFunction,SMDPad,CuDef*
%ADD27R,2.500000X1.800000*%
G04 #@! TD*
G04 #@! TA.AperFunction,SMDPad,CuDef*
%ADD28R,2.200000X1.200000*%
G04 #@! TD*
G04 #@! TA.AperFunction,SMDPad,CuDef*
%ADD29R,6.400000X5.800000*%
G04 #@! TD*
G04 #@! TA.AperFunction,SMDPad,CuDef*
%ADD30RoundRect,0.237500X-0.237500X0.287500X-0.237500X-0.287500X0.237500X-0.287500X0.237500X0.287500X0*%
G04 #@! TD*
G04 #@! TA.AperFunction,ComponentPad*
%ADD31R,2.400000X2.400000*%
G04 #@! TD*
G04 #@! TA.AperFunction,ComponentPad*
%ADD32R,1.727200X1.727200*%
G04 #@! TD*
G04 #@! TA.AperFunction,ComponentPad*
%ADD33O,1.727200X1.727200*%
G04 #@! TD*
G04 #@! TA.AperFunction,ComponentPad*
%ADD34R,2.000000X2.000000*%
G04 #@! TD*
G04 #@! TA.AperFunction,ComponentPad*
%ADD35C,2.000000*%
G04 #@! TD*
G04 #@! TA.AperFunction,ComponentPad*
%ADD36R,1.700000X1.700000*%
G04 #@! TD*
G04 #@! TA.AperFunction,ComponentPad*
%ADD37O,1.700000X1.700000*%
G04 #@! TD*
G04 #@! TA.AperFunction,ViaPad*
%ADD38C,0.800000*%
G04 #@! TD*
G04 #@! TA.AperFunction,Conductor*
%ADD39C,0.250000*%
G04 #@! TD*
G04 #@! TA.AperFunction,Conductor*
%ADD40C,0.500000*%
G04 #@! TD*
G04 #@! TA.AperFunction,Conductor*
%ADD41C,1.000000*%
G04 #@! TD*
G04 APERTURE END LIST*
D10*
X62750000Y-120730000D03*
X62750000Y-123270000D03*
X69250000Y-123270000D03*
X69250000Y-122000000D03*
X69250000Y-120730000D03*
D11*
X72000000Y-129137500D03*
X72000000Y-130862500D03*
D12*
X104000000Y-111000000D03*
D13*
X102232233Y-109232233D03*
D14*
X74313000Y-92687000D03*
D15*
X76109051Y-90890949D03*
X77905102Y-89094898D03*
X79701154Y-87298846D03*
D16*
X48000000Y-121000000D03*
X48000000Y-109000000D03*
D17*
X52540000Y-125500000D03*
X50000000Y-128000000D03*
X52540000Y-130500000D03*
D18*
X60000000Y-121087500D03*
X60000000Y-122912500D03*
X60000000Y-129087500D03*
X60000000Y-130912500D03*
D11*
X71000000Y-121137500D03*
X71000000Y-122862500D03*
D10*
X62750000Y-128730000D03*
X62750000Y-131270000D03*
X69250000Y-131270000D03*
X69250000Y-130000000D03*
X69250000Y-128730000D03*
D19*
X102232200Y-121000000D03*
D20*
X103999967Y-119232233D03*
D21*
X75160000Y-109000000D03*
D22*
X54840000Y-109000000D03*
D23*
X74407900Y-137407900D03*
D24*
X76203951Y-139203951D03*
X78000002Y-141000002D03*
X79796054Y-142796054D03*
D25*
X51000000Y-112460000D03*
D26*
X51000000Y-117540000D03*
D27*
X94000000Y-118000000D03*
X90000000Y-118000000D03*
D28*
X76800000Y-117720000D03*
D29*
X83100000Y-120000000D03*
D28*
X76800000Y-122280000D03*
D30*
X48000000Y-114125000D03*
X48000000Y-115875000D03*
D31*
X79426000Y-133000000D03*
D21*
X86926000Y-133000000D03*
D32*
X95000000Y-124000000D03*
D33*
X94960000Y-106000000D03*
X55000000Y-124000000D03*
X55000000Y-106000000D03*
D34*
X68957500Y-102407500D03*
D35*
X66417500Y-102407500D03*
X58797500Y-102407500D03*
X58797500Y-97327500D03*
X66417500Y-97327500D03*
X68957500Y-97327500D03*
D31*
X86574000Y-97000000D03*
D21*
X79074000Y-97000000D03*
D36*
X79420000Y-108500000D03*
D37*
X81960000Y-108500000D03*
X84500000Y-108500000D03*
D38*
X86411900Y-111126800D03*
X68455000Y-133846900D03*
X65585400Y-132187500D03*
X74847200Y-118069700D03*
X70578100Y-130000000D03*
X85011300Y-101329600D03*
X85000000Y-99930089D03*
D39*
X53960249Y-112460000D02*
X51000000Y-112460000D01*
X58797500Y-102407500D02*
X58797500Y-107622749D01*
X58797500Y-107622749D02*
X53960249Y-112460000D01*
D40*
X80501300Y-111126800D02*
X86411900Y-111126800D01*
X70745300Y-120882800D02*
X71000000Y-121137500D01*
X70592500Y-120730000D02*
X70745300Y-120882800D01*
X70745300Y-120882800D02*
X80501300Y-111126800D01*
X69250000Y-120730000D02*
X70592500Y-120730000D01*
D41*
X84438000Y-116100000D02*
X78900500Y-116100000D01*
D40*
X69250000Y-123270000D02*
X69250000Y-123400000D01*
X69250000Y-131270000D02*
X71592500Y-131270000D01*
D41*
X70949500Y-123400000D02*
X69250000Y-123400000D01*
D40*
X67898500Y-98808500D02*
X77265500Y-98808500D01*
X102232200Y-109232200D02*
X102232000Y-109232000D01*
D41*
X79754600Y-93175300D02*
X79754600Y-87352300D01*
D40*
X55000000Y-124000000D02*
X56313900Y-124000000D01*
D41*
X79074000Y-93855900D02*
X79074000Y-97000000D01*
D40*
X71592500Y-131270000D02*
X72000000Y-130862500D01*
D41*
X76080000Y-123000000D02*
X71137500Y-123000000D01*
X76800000Y-122280000D02*
X76080000Y-123000000D01*
X79074000Y-97000000D02*
X91306200Y-109232000D01*
D40*
X77265500Y-98808500D02*
X79074000Y-97000000D01*
X72000000Y-130862500D02*
X84788500Y-130862500D01*
D41*
X71000000Y-123349000D02*
X70949500Y-123400000D01*
D40*
X68529600Y-124120400D02*
X69250000Y-123400000D01*
D41*
X78900500Y-120180000D02*
X76800000Y-122280000D01*
X79754600Y-87352300D02*
X79701200Y-87298800D01*
X71000000Y-122862500D02*
X71000000Y-123349000D01*
D40*
X56313900Y-124000000D02*
X56434300Y-124120400D01*
D41*
X78900500Y-116100000D02*
X78900500Y-120180000D01*
X91306200Y-109232000D02*
X84438000Y-116100000D01*
D40*
X48000000Y-114125000D02*
X48000000Y-109000000D01*
X56434300Y-124120400D02*
X68529600Y-124120400D01*
X84788500Y-130862500D02*
X86926000Y-133000000D01*
D41*
X91306200Y-109232000D02*
X102232000Y-109232000D01*
X76109100Y-90890900D02*
X79074000Y-93855900D01*
X79074000Y-93855900D02*
X79754600Y-93175300D01*
D40*
X66417500Y-97327500D02*
X67898500Y-98808500D01*
D41*
X71000000Y-122862000D02*
X71000000Y-122862500D01*
X71137500Y-123000000D02*
X71000000Y-122862000D01*
D40*
X90000000Y-118000000D02*
X90000000Y-116649700D01*
X101417500Y-116649700D02*
X90000000Y-116649700D01*
D41*
X85100000Y-118000000D02*
X83100000Y-120000000D01*
D40*
X104000000Y-119232200D02*
X101417500Y-116649700D01*
D41*
X90000000Y-118000000D02*
X85100000Y-118000000D01*
D39*
X60000000Y-130912500D02*
X62934400Y-133846900D01*
X62934400Y-133846900D02*
X68455000Y-133846900D01*
X54492100Y-122783800D02*
X59871300Y-122783800D01*
X73214000Y-134525400D02*
X70796200Y-134525400D01*
X59871300Y-122783800D02*
X60000000Y-122912500D01*
X77169000Y-140168900D02*
X77427100Y-139910800D01*
X70796200Y-134525400D02*
X68942100Y-132671300D01*
X62013000Y-126038100D02*
X55334800Y-126038100D01*
X68942100Y-132671300D02*
X68646200Y-132671300D01*
X77427100Y-138738500D02*
X73214000Y-134525400D01*
X53779500Y-124482800D02*
X53779500Y-123496400D01*
X53779500Y-123496400D02*
X54492100Y-122783800D01*
X78000000Y-141000000D02*
X77169000Y-140168900D01*
X68646200Y-132671300D02*
X62013000Y-126038100D01*
X77427100Y-139910800D02*
X77427100Y-138738500D01*
X55334800Y-126038100D02*
X53779500Y-124482800D01*
X55864800Y-126647700D02*
X55307500Y-126647700D01*
X78022000Y-142796100D02*
X69180300Y-133954400D01*
X54547000Y-122092000D02*
X60546700Y-122092000D01*
X79796100Y-142796100D02*
X78965100Y-143627100D01*
X78965100Y-143627100D02*
X78134000Y-142796100D01*
X66962400Y-132485700D02*
X64396900Y-129920200D01*
X60546700Y-122092000D02*
X61724700Y-123270000D01*
X53329200Y-123309800D02*
X54547000Y-122092000D01*
X69180300Y-133546400D02*
X68755500Y-133121600D01*
X78134000Y-142796100D02*
X78022000Y-142796100D01*
X55307500Y-126647700D02*
X53329200Y-124669400D01*
X59137300Y-129920200D02*
X55864800Y-126647700D01*
X68755500Y-133121600D02*
X68235300Y-133121600D01*
X67599400Y-132485700D02*
X66962400Y-132485700D01*
X68235300Y-133121600D02*
X67599400Y-132485700D01*
X53329200Y-124669400D02*
X53329200Y-123309800D01*
X69180300Y-133954400D02*
X69180300Y-133546400D01*
X64396900Y-129920200D02*
X59137300Y-129920200D01*
X62750000Y-123270000D02*
X61724700Y-123270000D01*
X64692800Y-132187500D02*
X65585400Y-132187500D01*
X63775300Y-131270000D02*
X64692800Y-132187500D01*
X62750000Y-131270000D02*
X63775300Y-131270000D01*
X68224700Y-104214700D02*
X66417500Y-102407500D01*
X69250000Y-122000000D02*
X68224700Y-122000000D01*
X68224700Y-122000000D02*
X68224700Y-104214700D01*
X75025000Y-118069700D02*
X75374700Y-117720000D01*
X69250000Y-130000000D02*
X70275300Y-130000000D01*
X76800000Y-117720000D02*
X75374700Y-117720000D01*
X70275300Y-130000000D02*
X70578100Y-130000000D01*
X74847200Y-118069700D02*
X75025000Y-118069700D01*
X55000000Y-108840000D02*
X54840000Y-109000000D01*
X55000000Y-106000000D02*
X55000000Y-108840000D01*
X60000000Y-129087500D02*
X61367200Y-129087500D01*
X61367200Y-129087500D02*
X61724700Y-128730000D01*
X62750000Y-128730000D02*
X61724700Y-128730000D01*
X60357500Y-120730000D02*
X60000000Y-121087500D01*
X62750000Y-120730000D02*
X60357500Y-120730000D01*
X49665000Y-117540000D02*
X48000000Y-115875000D01*
X51000000Y-117540000D02*
X49665000Y-117540000D01*
D40*
X96415400Y-101329600D02*
X85011300Y-101329600D01*
X104000000Y-108914200D02*
X96415400Y-101329600D01*
X104000000Y-111000000D02*
X104000000Y-108914200D01*
D41*
X104529618Y-121000000D02*
X108000000Y-117529618D01*
X108000000Y-117529618D02*
X108000000Y-111147112D01*
X102232200Y-121000000D02*
X104529618Y-121000000D01*
D39*
X84187800Y-129137500D02*
X94000000Y-119325300D01*
X69250000Y-128730000D02*
X71592500Y-128730000D01*
D41*
X108000000Y-111147112D02*
X106204114Y-109351226D01*
X85000000Y-99930089D02*
X96782977Y-99930089D01*
D39*
X102232200Y-121000000D02*
X102232000Y-121000000D01*
X71592500Y-128730000D02*
X72000000Y-129137500D01*
D41*
X96782977Y-99930089D02*
X106204114Y-109351226D01*
D39*
X72000000Y-129137500D02*
X84187800Y-129137500D01*
X94000000Y-118000000D02*
X94000000Y-119325300D01*
D41*
X94000000Y-118000000D02*
X99232200Y-118000000D01*
X99232200Y-118000000D02*
X102232000Y-121000000D01*
G04 #@! TA.AperFunction,Conductor*
G36*
X80366399Y-84742752D02*
G01*
X80559267Y-84770483D01*
X80576824Y-84774302D01*
X80763787Y-84829199D01*
X80780631Y-84835481D01*
X80957878Y-84916427D01*
X80973657Y-84925043D01*
X81137578Y-85030389D01*
X81151969Y-85041162D01*
X81274696Y-85147505D01*
X81286816Y-85160677D01*
X81292642Y-85166648D01*
X81297939Y-85173898D01*
X81305056Y-85179369D01*
X81305057Y-85179370D01*
X81323150Y-85193278D01*
X81335454Y-85204079D01*
X89753696Y-93622320D01*
X89767244Y-93638337D01*
X89778869Y-93654665D01*
X89787627Y-93663639D01*
X89791519Y-93666556D01*
X89799523Y-93672555D01*
X89806471Y-93678157D01*
X89948222Y-93800986D01*
X89948226Y-93800989D01*
X89951619Y-93803929D01*
X90133084Y-93920550D01*
X90137174Y-93922418D01*
X90137178Y-93922420D01*
X90197198Y-93949830D01*
X90329300Y-94010159D01*
X90536271Y-94070931D01*
X90540730Y-94071572D01*
X90540734Y-94071573D01*
X90643027Y-94086280D01*
X90749784Y-94101630D01*
X90965493Y-94101630D01*
X91072250Y-94086280D01*
X91174543Y-94071573D01*
X91174547Y-94071572D01*
X91179006Y-94070931D01*
X91385977Y-94010159D01*
X91518079Y-93949830D01*
X91578099Y-93922420D01*
X91578103Y-93922418D01*
X91582193Y-93920550D01*
X91591115Y-93914816D01*
X91759876Y-93806359D01*
X91759880Y-93806356D01*
X91763658Y-93803928D01*
X91854607Y-93725121D01*
X91896064Y-93689198D01*
X91905496Y-93681781D01*
X91914712Y-93675219D01*
X91918676Y-93672397D01*
X91927650Y-93663639D01*
X91930560Y-93659756D01*
X91930569Y-93659746D01*
X91944369Y-93641332D01*
X91956100Y-93627802D01*
X92004296Y-93579606D01*
X92019064Y-93566959D01*
X92031163Y-93558120D01*
X92038414Y-93552823D01*
X92043884Y-93545707D01*
X92043888Y-93545703D01*
X92043947Y-93545626D01*
X92065278Y-93523911D01*
X92114222Y-93484879D01*
X92138106Y-93469872D01*
X92211790Y-93434388D01*
X92238421Y-93425069D01*
X92278284Y-93415971D01*
X92318149Y-93406872D01*
X92346185Y-93403713D01*
X92427966Y-93403713D01*
X92456003Y-93406872D01*
X92535730Y-93425069D01*
X92562362Y-93434388D01*
X92636043Y-93469871D01*
X92659933Y-93484882D01*
X92703699Y-93519784D01*
X92715319Y-93530297D01*
X92721576Y-93536709D01*
X92726870Y-93543956D01*
X92733983Y-93549424D01*
X92733988Y-93549429D01*
X92752086Y-93563341D01*
X92764390Y-93574141D01*
X112298657Y-113108408D01*
X112332683Y-113170720D01*
X112327618Y-113241535D01*
X112285071Y-113298371D01*
X112218551Y-113323182D01*
X112207922Y-113323492D01*
X112078708Y-113321800D01*
X112010801Y-113320911D01*
X112010798Y-113320911D01*
X112006124Y-113320850D01*
X111754578Y-113355084D01*
X111750092Y-113356392D01*
X111750090Y-113356392D01*
X111716749Y-113366110D01*
X111510856Y-113426122D01*
X111280310Y-113532405D01*
X111276401Y-113534968D01*
X111071920Y-113669031D01*
X111071915Y-113669035D01*
X111068007Y-113671597D01*
X110878610Y-113840641D01*
X110716279Y-114035822D01*
X110584581Y-114252854D01*
X110582772Y-114257168D01*
X110582771Y-114257170D01*
X110495503Y-114465282D01*
X110486409Y-114486968D01*
X110423919Y-114733021D01*
X110398485Y-114985608D01*
X110398709Y-114990273D01*
X110398709Y-114990279D01*
X110399123Y-114998884D01*
X110400291Y-115023198D01*
X110410665Y-115239180D01*
X110460191Y-115488167D01*
X110545976Y-115727098D01*
X110666135Y-115950725D01*
X110668930Y-115954468D01*
X110668932Y-115954471D01*
X110815237Y-116150397D01*
X110815242Y-116150403D01*
X110818029Y-116154135D01*
X110821338Y-116157415D01*
X110821343Y-116157421D01*
X110992776Y-116327363D01*
X110998320Y-116332859D01*
X111002082Y-116335617D01*
X111002085Y-116335620D01*
X111157363Y-116449474D01*
X111203047Y-116482971D01*
X111207190Y-116485151D01*
X111207192Y-116485152D01*
X111423564Y-116598991D01*
X111423569Y-116598993D01*
X111427714Y-116601174D01*
X111667385Y-116684871D01*
X111671978Y-116685743D01*
X111912205Y-116731352D01*
X111912208Y-116731352D01*
X111916794Y-116732223D01*
X112043628Y-116737207D01*
X112165794Y-116742007D01*
X112165800Y-116742007D01*
X112170462Y-116742190D01*
X112194412Y-116739567D01*
X112264305Y-116752034D01*
X112316363Y-116800309D01*
X112334057Y-116869065D01*
X112311770Y-116936473D01*
X112297224Y-116953913D01*
X92769855Y-136481282D01*
X92755088Y-136493928D01*
X92735737Y-136508065D01*
X92730267Y-136515181D01*
X92730263Y-136515185D01*
X92730204Y-136515262D01*
X92708873Y-136536977D01*
X92659930Y-136576008D01*
X92636044Y-136591016D01*
X92562362Y-136626500D01*
X92535734Y-136635817D01*
X92456003Y-136654015D01*
X92427966Y-136657174D01*
X92346186Y-136657174D01*
X92318149Y-136654015D01*
X92238422Y-136635818D01*
X92211789Y-136626499D01*
X92138106Y-136591015D01*
X92114218Y-136576005D01*
X92070446Y-136541098D01*
X92058832Y-136530591D01*
X92052577Y-136524182D01*
X92047281Y-136516932D01*
X92022071Y-136497553D01*
X92009766Y-136486752D01*
X91961581Y-136438567D01*
X91948034Y-136422552D01*
X91939230Y-136410187D01*
X91936408Y-136406223D01*
X91927650Y-136397249D01*
X91915745Y-136388327D01*
X91908795Y-136382724D01*
X91767055Y-136259903D01*
X91767050Y-136259899D01*
X91763658Y-136256960D01*
X91582192Y-136140339D01*
X91385977Y-136050730D01*
X91179006Y-135989958D01*
X91174547Y-135989317D01*
X91174543Y-135989316D01*
X91072250Y-135974609D01*
X90965493Y-135959259D01*
X90749784Y-135959259D01*
X90643027Y-135974609D01*
X90540734Y-135989316D01*
X90540730Y-135989317D01*
X90536271Y-135989958D01*
X90329300Y-136050730D01*
X90133085Y-136140339D01*
X89951619Y-136256960D01*
X89948227Y-136259900D01*
X89948222Y-136259903D01*
X89880959Y-136318188D01*
X89819209Y-136371695D01*
X89809790Y-136379100D01*
X89796602Y-136388490D01*
X89787627Y-136397249D01*
X89784708Y-136401144D01*
X89784707Y-136401145D01*
X89770908Y-136419557D01*
X89759177Y-136433087D01*
X81340924Y-144851339D01*
X81326157Y-144863985D01*
X81306806Y-144878122D01*
X81297449Y-144890295D01*
X81280066Y-144908728D01*
X81151970Y-145019724D01*
X81137578Y-145030498D01*
X80973657Y-145135844D01*
X80957878Y-145144460D01*
X80780631Y-145225406D01*
X80763789Y-145231687D01*
X80576824Y-145286585D01*
X80559267Y-145290404D01*
X80387407Y-145315114D01*
X80366398Y-145318135D01*
X80348466Y-145319418D01*
X80153608Y-145319418D01*
X80135676Y-145318135D01*
X80114667Y-145315114D01*
X79942807Y-145290404D01*
X79925250Y-145286585D01*
X79738285Y-145231687D01*
X79721443Y-145225406D01*
X79544196Y-145144460D01*
X79528417Y-145135844D01*
X79364489Y-145030494D01*
X79350109Y-145019728D01*
X79227373Y-144913377D01*
X79215267Y-144900220D01*
X79209428Y-144894237D01*
X79204134Y-144886990D01*
X79178923Y-144867610D01*
X79166619Y-144856809D01*
X78783592Y-144473782D01*
X78749566Y-144411470D01*
X78754631Y-144340655D01*
X78797178Y-144283819D01*
X78863698Y-144259008D01*
X78889322Y-144260915D01*
X78889378Y-144260327D01*
X78897274Y-144261073D01*
X78905009Y-144262802D01*
X78913264Y-144262542D01*
X78936933Y-144264031D01*
X78945081Y-144265321D01*
X78952970Y-144264575D01*
X78952974Y-144264575D01*
X79000962Y-144260036D01*
X79008865Y-144259538D01*
X79057071Y-144258022D01*
X79064989Y-144257773D01*
X79072597Y-144255563D01*
X79072601Y-144255562D01*
X79072928Y-144255467D01*
X79096201Y-144251026D01*
X79096413Y-144251006D01*
X79096534Y-144250995D01*
X79096535Y-144250995D01*
X79104430Y-144250248D01*
X79157259Y-144231225D01*
X79164777Y-144228782D01*
X79218693Y-144213118D01*
X79225519Y-144209081D01*
X79225522Y-144209080D01*
X79225807Y-144208912D01*
X79247248Y-144198821D01*
X79247330Y-144198791D01*
X79255023Y-144196021D01*
X79261579Y-144191565D01*
X79261581Y-144191564D01*
X79301447Y-144164467D01*
X79308139Y-144160220D01*
X79356463Y-144131642D01*
X79357243Y-144132962D01*
X79415019Y-144110278D01*
X79451276Y-144112313D01*
X79634651Y-144149621D01*
X79639826Y-144149811D01*
X79639828Y-144149811D01*
X79852727Y-144157618D01*
X79852731Y-144157618D01*
X79857891Y-144157807D01*
X79863011Y-144157151D01*
X79863013Y-144157151D01*
X80074342Y-144130079D01*
X80074343Y-144130079D01*
X80079470Y-144129422D01*
X80084420Y-144127937D01*
X80288483Y-144066715D01*
X80288488Y-144066713D01*
X80293438Y-144065228D01*
X80494048Y-143966950D01*
X80675914Y-143837227D01*
X80834150Y-143679543D01*
X80964507Y-143498131D01*
X81048976Y-143327221D01*
X81061190Y-143302507D01*
X81061191Y-143302505D01*
X81063484Y-143297865D01*
X81128424Y-143084123D01*
X81157583Y-142862644D01*
X81159210Y-142796054D01*
X81140906Y-142573415D01*
X81086485Y-142356756D01*
X80997408Y-142151894D01*
X80876068Y-141964331D01*
X80725724Y-141799105D01*
X80721673Y-141795906D01*
X80721669Y-141795902D01*
X80554468Y-141663854D01*
X80554464Y-141663852D01*
X80550413Y-141660652D01*
X80354843Y-141552692D01*
X80349974Y-141550968D01*
X80349970Y-141550966D01*
X80149141Y-141479849D01*
X80149137Y-141479848D01*
X80144266Y-141478123D01*
X80139173Y-141477216D01*
X80139170Y-141477215D01*
X79929427Y-141439854D01*
X79929421Y-141439853D01*
X79924338Y-141438948D01*
X79850506Y-141438046D01*
X79706135Y-141436282D01*
X79706133Y-141436282D01*
X79700965Y-141436219D01*
X79590555Y-141453114D01*
X79485259Y-141469226D01*
X79485254Y-141469227D01*
X79480145Y-141470009D01*
X79475231Y-141471615D01*
X79474690Y-141471744D01*
X79403789Y-141468071D01*
X79346128Y-141426649D01*
X79320016Y-141360628D01*
X79324935Y-141312548D01*
X79332372Y-141288071D01*
X79361531Y-141066592D01*
X79363158Y-141000002D01*
X79344854Y-140777363D01*
X79290433Y-140560704D01*
X79201356Y-140355842D01*
X79080016Y-140168279D01*
X78929672Y-140003053D01*
X78925621Y-139999854D01*
X78925617Y-139999850D01*
X78758416Y-139867802D01*
X78758412Y-139867800D01*
X78754361Y-139864600D01*
X78558791Y-139756640D01*
X78553922Y-139754916D01*
X78553918Y-139754914D01*
X78353089Y-139683797D01*
X78353085Y-139683796D01*
X78348214Y-139682071D01*
X78343121Y-139681164D01*
X78343118Y-139681163D01*
X78164504Y-139649347D01*
X78100946Y-139617709D01*
X78064583Y-139556732D01*
X78060600Y-139525300D01*
X78060600Y-138817267D01*
X78061127Y-138806084D01*
X78062802Y-138798591D01*
X78060662Y-138730514D01*
X78060600Y-138726555D01*
X78060600Y-138698644D01*
X78060095Y-138694644D01*
X78059162Y-138682801D01*
X78058022Y-138646529D01*
X78057773Y-138638610D01*
X78052122Y-138619158D01*
X78048114Y-138599806D01*
X78046567Y-138587563D01*
X78045574Y-138579703D01*
X78042656Y-138572332D01*
X78029300Y-138538597D01*
X78025455Y-138527370D01*
X78024821Y-138525187D01*
X78013118Y-138484907D01*
X78009084Y-138478085D01*
X78009081Y-138478079D01*
X78002806Y-138467468D01*
X77994110Y-138449718D01*
X77989572Y-138438256D01*
X77989569Y-138438251D01*
X77986652Y-138430883D01*
X77960673Y-138395125D01*
X77954157Y-138385207D01*
X77935675Y-138353957D01*
X77931642Y-138347137D01*
X77917318Y-138332813D01*
X77904476Y-138317778D01*
X77902656Y-138315273D01*
X77892572Y-138301393D01*
X77858506Y-138273211D01*
X77849727Y-138265222D01*
X73832639Y-134248134D01*
X77717500Y-134248134D01*
X77724255Y-134310316D01*
X77775385Y-134446705D01*
X77862739Y-134563261D01*
X77979295Y-134650615D01*
X78115684Y-134701745D01*
X78177866Y-134708500D01*
X80674134Y-134708500D01*
X80736316Y-134701745D01*
X80872705Y-134650615D01*
X80989261Y-134563261D01*
X81076615Y-134446705D01*
X81104111Y-134373359D01*
X85917386Y-134373359D01*
X85926099Y-134384879D01*
X86014586Y-134449760D01*
X86022505Y-134454708D01*
X86238877Y-134568547D01*
X86247451Y-134572275D01*
X86478282Y-134652885D01*
X86487291Y-134655299D01*
X86727518Y-134700908D01*
X86736775Y-134701962D01*
X86981107Y-134711563D01*
X86990420Y-134711237D01*
X87233478Y-134684618D01*
X87242655Y-134682917D01*
X87479107Y-134620665D01*
X87487926Y-134617628D01*
X87712584Y-134521107D01*
X87720856Y-134516800D01*
X87928777Y-134388135D01*
X87930620Y-134386796D01*
X87938038Y-134375541D01*
X87931974Y-134365184D01*
X86938812Y-133372022D01*
X86924868Y-133364408D01*
X86923035Y-133364539D01*
X86916420Y-133368790D01*
X85924044Y-134361166D01*
X85917386Y-134373359D01*
X81104111Y-134373359D01*
X81127745Y-134310316D01*
X81134500Y-134248134D01*
X81134500Y-132959835D01*
X85214022Y-132959835D01*
X85225754Y-133204064D01*
X85226891Y-133213324D01*
X85274593Y-133453143D01*
X85277082Y-133462118D01*
X85359708Y-133692250D01*
X85363505Y-133700778D01*
X85479234Y-133916160D01*
X85484245Y-133924027D01*
X85541173Y-134000263D01*
X85552431Y-134008712D01*
X85564850Y-134001940D01*
X86553978Y-133012812D01*
X86560356Y-133001132D01*
X87290408Y-133001132D01*
X87290539Y-133002965D01*
X87294790Y-133009580D01*
X88289732Y-134004522D01*
X88302112Y-134011282D01*
X88310453Y-134005038D01*
X88428700Y-133821202D01*
X88433147Y-133813011D01*
X88533572Y-133590076D01*
X88536767Y-133581298D01*
X88603135Y-133345973D01*
X88604993Y-133336844D01*
X88636044Y-133092770D01*
X88636525Y-133086483D01*
X88638706Y-133003160D01*
X88638555Y-132996851D01*
X88620321Y-132751486D01*
X88618944Y-132742280D01*
X88564979Y-132503786D01*
X88562255Y-132494875D01*
X88473633Y-132266983D01*
X88469619Y-132258567D01*
X88348284Y-132046276D01*
X88343074Y-132038553D01*
X88311787Y-131998865D01*
X88299863Y-131990395D01*
X88288328Y-131996882D01*
X87298022Y-132987188D01*
X87290408Y-133001132D01*
X86560356Y-133001132D01*
X86561592Y-132998868D01*
X86561461Y-132997035D01*
X86557210Y-132990420D01*
X85562828Y-131996038D01*
X85549520Y-131988771D01*
X85539481Y-131995893D01*
X85534581Y-132001784D01*
X85529168Y-132009373D01*
X85402322Y-132218409D01*
X85398084Y-132226726D01*
X85303529Y-132452214D01*
X85300572Y-132461052D01*
X85240384Y-132698042D01*
X85238763Y-132707232D01*
X85214267Y-132950510D01*
X85214022Y-132959835D01*
X81134500Y-132959835D01*
X81134500Y-131751866D01*
X81127745Y-131689684D01*
X81103465Y-131624917D01*
X85915330Y-131624917D01*
X85919903Y-131634693D01*
X86913188Y-132627978D01*
X86927132Y-132635592D01*
X86928965Y-132635461D01*
X86935580Y-132631210D01*
X87928488Y-131638302D01*
X87934872Y-131626612D01*
X87925460Y-131614502D01*
X87799144Y-131526873D01*
X87791116Y-131522145D01*
X87571810Y-131413995D01*
X87563177Y-131410507D01*
X87330288Y-131335958D01*
X87321238Y-131333785D01*
X87079891Y-131294480D01*
X87070602Y-131293668D01*
X86826114Y-131290467D01*
X86816803Y-131291037D01*
X86574522Y-131324010D01*
X86565403Y-131325948D01*
X86330668Y-131394367D01*
X86321915Y-131397639D01*
X86099869Y-131500004D01*
X86091714Y-131504524D01*
X85924468Y-131614175D01*
X85915330Y-131624917D01*
X81103465Y-131624917D01*
X81076615Y-131553295D01*
X80989261Y-131436739D01*
X80872705Y-131349385D01*
X80736316Y-131298255D01*
X80674134Y-131291500D01*
X78177866Y-131291500D01*
X78115684Y-131298255D01*
X77979295Y-131349385D01*
X77862739Y-131436739D01*
X77775385Y-131553295D01*
X77724255Y-131689684D01*
X77717500Y-131751866D01*
X77717500Y-134248134D01*
X73832639Y-134248134D01*
X73717652Y-134133147D01*
X73710112Y-134124861D01*
X73706000Y-134118382D01*
X73656348Y-134071756D01*
X73653507Y-134069002D01*
X73633770Y-134049265D01*
X73630573Y-134046785D01*
X73621551Y-134039080D01*
X73595100Y-134014241D01*
X73589321Y-134008814D01*
X73582375Y-134004995D01*
X73582372Y-134004993D01*
X73571566Y-133999052D01*
X73555047Y-133988201D01*
X73554583Y-133987841D01*
X73539041Y-133975786D01*
X73531772Y-133972641D01*
X73531768Y-133972638D01*
X73498463Y-133958226D01*
X73487813Y-133953009D01*
X73449060Y-133931705D01*
X73429437Y-133926667D01*
X73410734Y-133920263D01*
X73399420Y-133915367D01*
X73399419Y-133915367D01*
X73392145Y-133912219D01*
X73384322Y-133910980D01*
X73384312Y-133910977D01*
X73348476Y-133905301D01*
X73336856Y-133902895D01*
X73301711Y-133893872D01*
X73301710Y-133893872D01*
X73294030Y-133891900D01*
X73273776Y-133891900D01*
X73254065Y-133890349D01*
X73241886Y-133888420D01*
X73234057Y-133887180D01*
X73226165Y-133887926D01*
X73190039Y-133891341D01*
X73178181Y-133891900D01*
X71110795Y-133891900D01*
X71042674Y-133871898D01*
X71021700Y-133854995D01*
X69559799Y-132393094D01*
X69525773Y-132330782D01*
X69530838Y-132259967D01*
X69573385Y-132203131D01*
X69639905Y-132178320D01*
X69648894Y-132177999D01*
X69994669Y-132177999D01*
X70001490Y-132177629D01*
X70052352Y-132172105D01*
X70067604Y-132168479D01*
X70188054Y-132123324D01*
X70203649Y-132114786D01*
X70305724Y-132038285D01*
X70318285Y-132025724D01*
X70394786Y-131923649D01*
X70403324Y-131908054D01*
X70448478Y-131787606D01*
X70452105Y-131772351D01*
X70457631Y-131721486D01*
X70458000Y-131714672D01*
X70458000Y-131542115D01*
X70453525Y-131526876D01*
X70452135Y-131525671D01*
X70444452Y-131524000D01*
X69122000Y-131524000D01*
X69053879Y-131503998D01*
X69007386Y-131450342D01*
X68996000Y-131398000D01*
X68996000Y-131142000D01*
X69016002Y-131073879D01*
X69069658Y-131027386D01*
X69122000Y-131016000D01*
X70439884Y-131016000D01*
X70455123Y-131011525D01*
X70456329Y-131010133D01*
X70456855Y-131007716D01*
X70490880Y-130945404D01*
X70553192Y-130911379D01*
X70579975Y-130908500D01*
X70673587Y-130908500D01*
X70680039Y-130907128D01*
X70680044Y-130907128D01*
X70860388Y-130868794D01*
X70860756Y-130870527D01*
X70923020Y-130868742D01*
X70983821Y-130905399D01*
X71015152Y-130969108D01*
X71017000Y-130990606D01*
X71017000Y-131208766D01*
X71017337Y-131215282D01*
X71027075Y-131309132D01*
X71029968Y-131322528D01*
X71080488Y-131473953D01*
X71086653Y-131487115D01*
X71170426Y-131622492D01*
X71179460Y-131633890D01*
X71292129Y-131746363D01*
X71303540Y-131755375D01*
X71439063Y-131838912D01*
X71452241Y-131845056D01*
X71603766Y-131895315D01*
X71617132Y-131898181D01*
X71709770Y-131907672D01*
X71716185Y-131908000D01*
X71727885Y-131908000D01*
X71743124Y-131903525D01*
X71744329Y-131902135D01*
X71746000Y-131894452D01*
X71746000Y-131889885D01*
X72254000Y-131889885D01*
X72258475Y-131905124D01*
X72259865Y-131906329D01*
X72267548Y-131908000D01*
X72283766Y-131908000D01*
X72290282Y-131907663D01*
X72384132Y-131897925D01*
X72397528Y-131895032D01*
X72548953Y-131844512D01*
X72562115Y-131838347D01*
X72697492Y-131754574D01*
X72708890Y-131745540D01*
X72821363Y-131632871D01*
X72830375Y-131621460D01*
X72913912Y-131485937D01*
X72920056Y-131472759D01*
X72970315Y-131321234D01*
X72973181Y-131307868D01*
X72982672Y-131215230D01*
X72983000Y-131208815D01*
X72983000Y-131134615D01*
X72978525Y-131119376D01*
X72977135Y-131118171D01*
X72969452Y-131116500D01*
X72272115Y-131116500D01*
X72256876Y-131120975D01*
X72255671Y-131122365D01*
X72254000Y-131130048D01*
X72254000Y-131889885D01*
X71746000Y-131889885D01*
X71746000Y-130734500D01*
X71766002Y-130666379D01*
X71819658Y-130619886D01*
X71872000Y-130608500D01*
X72964885Y-130608500D01*
X72980124Y-130604025D01*
X72981329Y-130602635D01*
X72983000Y-130594952D01*
X72983000Y-130516234D01*
X72982663Y-130509718D01*
X72972925Y-130415868D01*
X72970032Y-130402472D01*
X72919512Y-130251047D01*
X72913347Y-130237885D01*
X72829574Y-130102508D01*
X72820536Y-130091106D01*
X72818861Y-130089433D01*
X72818081Y-130088007D01*
X72815993Y-130085373D01*
X72816444Y-130085016D01*
X72784781Y-130027151D01*
X72789784Y-129956331D01*
X72818701Y-129911246D01*
X72821756Y-129908185D01*
X72826929Y-129903003D01*
X72840395Y-129881158D01*
X72871384Y-129830884D01*
X72924156Y-129783391D01*
X72978644Y-129771000D01*
X84109033Y-129771000D01*
X84120216Y-129771527D01*
X84127709Y-129773202D01*
X84135635Y-129772953D01*
X84135636Y-129772953D01*
X84195786Y-129771062D01*
X84199745Y-129771000D01*
X84227656Y-129771000D01*
X84231591Y-129770503D01*
X84231656Y-129770495D01*
X84243493Y-129769562D01*
X84275751Y-129768548D01*
X84279770Y-129768422D01*
X84287689Y-129768173D01*
X84307143Y-129762521D01*
X84326500Y-129758513D01*
X84338730Y-129756968D01*
X84338731Y-129756968D01*
X84346597Y-129755974D01*
X84353968Y-129753055D01*
X84353970Y-129753055D01*
X84387712Y-129739696D01*
X84398942Y-129735851D01*
X84433783Y-129725729D01*
X84433784Y-129725729D01*
X84441393Y-129723518D01*
X84448212Y-129719485D01*
X84448217Y-129719483D01*
X84458828Y-129713207D01*
X84476576Y-129704512D01*
X84495417Y-129697052D01*
X84531187Y-129671064D01*
X84541107Y-129664548D01*
X84572335Y-129646080D01*
X84572338Y-129646078D01*
X84579162Y-129642042D01*
X84593483Y-129627721D01*
X84608517Y-129614880D01*
X84618494Y-129607631D01*
X84624907Y-129602972D01*
X84653098Y-129568895D01*
X84661088Y-129560116D01*
X89312935Y-124908269D01*
X93628401Y-124908269D01*
X93628771Y-124915090D01*
X93634295Y-124965952D01*
X93637921Y-124981204D01*
X93683076Y-125101654D01*
X93691614Y-125117249D01*
X93768115Y-125219324D01*
X93780676Y-125231885D01*
X93882751Y-125308386D01*
X93898346Y-125316924D01*
X94018794Y-125362078D01*
X94034049Y-125365705D01*
X94084914Y-125371231D01*
X94091728Y-125371600D01*
X94727885Y-125371600D01*
X94743124Y-125367125D01*
X94744329Y-125365735D01*
X94746000Y-125358052D01*
X94746000Y-125353484D01*
X95254000Y-125353484D01*
X95258475Y-125368723D01*
X95259865Y-125369928D01*
X95267548Y-125371599D01*
X95908269Y-125371599D01*
X95915090Y-125371229D01*
X95965952Y-125365705D01*
X95981204Y-125362079D01*
X96101654Y-125316924D01*
X96117249Y-125308386D01*
X96219324Y-125231885D01*
X96231885Y-125219324D01*
X96308386Y-125117249D01*
X96316924Y-125101654D01*
X96362078Y-124981206D01*
X96365705Y-124965951D01*
X96371231Y-124915086D01*
X96371600Y-124908272D01*
X96371600Y-124272115D01*
X96367125Y-124256876D01*
X96365735Y-124255671D01*
X96358052Y-124254000D01*
X95272115Y-124254000D01*
X95256876Y-124258475D01*
X95255671Y-124259865D01*
X95254000Y-124267548D01*
X95254000Y-125353484D01*
X94746000Y-125353484D01*
X94746000Y-124272115D01*
X94741525Y-124256876D01*
X94740135Y-124255671D01*
X94732452Y-124254000D01*
X93646516Y-124254000D01*
X93631277Y-124258475D01*
X93630072Y-124259865D01*
X93628401Y-124267548D01*
X93628401Y-124908269D01*
X89312935Y-124908269D01*
X90493319Y-123727885D01*
X93628400Y-123727885D01*
X93632875Y-123743124D01*
X93634265Y-123744329D01*
X93641948Y-123746000D01*
X94727885Y-123746000D01*
X94743124Y-123741525D01*
X94744329Y-123740135D01*
X94746000Y-123732452D01*
X94746000Y-123727885D01*
X95254000Y-123727885D01*
X95258475Y-123743124D01*
X95259865Y-123744329D01*
X95267548Y-123746000D01*
X96353484Y-123746000D01*
X96368723Y-123741525D01*
X96369928Y-123740135D01*
X96371599Y-123732452D01*
X96371599Y-123091731D01*
X96371229Y-123084910D01*
X96365705Y-123034048D01*
X96362079Y-123018796D01*
X96316924Y-122898346D01*
X96308386Y-122882751D01*
X96231885Y-122780676D01*
X96219324Y-122768115D01*
X96117249Y-122691614D01*
X96101654Y-122683076D01*
X95981206Y-122637922D01*
X95965951Y-122634295D01*
X95915086Y-122628769D01*
X95908272Y-122628400D01*
X95272115Y-122628400D01*
X95256876Y-122632875D01*
X95255671Y-122634265D01*
X95254000Y-122641948D01*
X95254000Y-123727885D01*
X94746000Y-123727885D01*
X94746000Y-122646516D01*
X94741525Y-122631277D01*
X94740135Y-122630072D01*
X94732452Y-122628401D01*
X94091731Y-122628401D01*
X94084910Y-122628771D01*
X94034048Y-122634295D01*
X94018796Y-122637921D01*
X93898346Y-122683076D01*
X93882751Y-122691614D01*
X93780676Y-122768115D01*
X93768115Y-122780676D01*
X93691614Y-122882751D01*
X93683076Y-122898346D01*
X93637922Y-123018794D01*
X93634295Y-123034049D01*
X93628769Y-123084914D01*
X93628400Y-123091728D01*
X93628400Y-123727885D01*
X90493319Y-123727885D01*
X94392247Y-119828957D01*
X94400537Y-119821413D01*
X94407018Y-119817300D01*
X94453659Y-119767632D01*
X94456413Y-119764791D01*
X94476134Y-119745070D01*
X94478612Y-119741875D01*
X94486318Y-119732853D01*
X94511158Y-119706401D01*
X94516586Y-119700621D01*
X94526346Y-119682868D01*
X94537199Y-119666345D01*
X94544753Y-119656606D01*
X94549613Y-119650341D01*
X94567176Y-119609757D01*
X94572383Y-119599127D01*
X94593695Y-119560360D01*
X94595666Y-119552683D01*
X94595668Y-119552678D01*
X94598732Y-119540742D01*
X94605138Y-119522030D01*
X94610034Y-119510716D01*
X94613181Y-119503445D01*
X94613993Y-119498322D01*
X94651549Y-119439513D01*
X94716045Y-119409834D01*
X94734334Y-119408500D01*
X95298134Y-119408500D01*
X95360316Y-119401745D01*
X95496705Y-119350615D01*
X95613261Y-119263261D01*
X95700615Y-119146705D01*
X95721772Y-119090270D01*
X95764414Y-119033505D01*
X95830976Y-119008806D01*
X95839754Y-119008500D01*
X98762254Y-119008500D01*
X98830375Y-119028502D01*
X98851350Y-119045406D01*
X99740479Y-119934595D01*
X100487088Y-120681254D01*
X100521111Y-120743567D01*
X100520701Y-120791667D01*
X100521522Y-120791762D01*
X100520680Y-120799039D01*
X100519003Y-120806161D01*
X100519157Y-120983031D01*
X100559996Y-121155123D01*
X100563278Y-121161662D01*
X100563278Y-121161663D01*
X100598808Y-121232460D01*
X100639330Y-121313203D01*
X100643672Y-121318536D01*
X100643673Y-121318538D01*
X100703596Y-121392142D01*
X100703602Y-121392148D01*
X100705627Y-121394636D01*
X101837564Y-122526573D01*
X101840094Y-122528627D01*
X101840098Y-122528631D01*
X101914758Y-122589255D01*
X101914762Y-122589257D01*
X101920111Y-122593601D01*
X101926272Y-122596679D01*
X101926276Y-122596682D01*
X102071788Y-122669389D01*
X102071790Y-122669390D01*
X102078331Y-122672658D01*
X102158834Y-122691614D01*
X102243370Y-122711520D01*
X102243372Y-122711520D01*
X102250493Y-122713197D01*
X102257809Y-122713191D01*
X102257812Y-122713191D01*
X102339119Y-122713120D01*
X102427363Y-122713043D01*
X102517663Y-122691614D01*
X102592334Y-122673894D01*
X102592335Y-122673894D01*
X102599455Y-122672204D01*
X102678097Y-122632737D01*
X102751386Y-122595956D01*
X102757535Y-122592870D01*
X102762870Y-122588527D01*
X102836474Y-122528604D01*
X102836480Y-122528598D01*
X102838968Y-122526573D01*
X103320136Y-122045405D01*
X103382448Y-122011379D01*
X103409231Y-122008500D01*
X104467775Y-122008500D01*
X104481382Y-122009237D01*
X104512880Y-122012659D01*
X104512885Y-122012659D01*
X104519006Y-122013324D01*
X104545256Y-122011027D01*
X104569006Y-122008950D01*
X104573832Y-122008621D01*
X104576304Y-122008500D01*
X104579387Y-122008500D01*
X104591356Y-122007326D01*
X104622124Y-122004310D01*
X104623437Y-122004188D01*
X104667702Y-122000315D01*
X104716031Y-121996087D01*
X104721150Y-121994600D01*
X104726451Y-121994080D01*
X104815452Y-121967209D01*
X104816585Y-121966874D01*
X104900032Y-121942630D01*
X104900036Y-121942628D01*
X104905954Y-121940909D01*
X104910686Y-121938456D01*
X104915787Y-121936916D01*
X104955116Y-121916005D01*
X104997878Y-121893269D01*
X104999044Y-121892657D01*
X105076071Y-121852729D01*
X105081544Y-121849892D01*
X105085707Y-121846569D01*
X105090414Y-121844066D01*
X105162536Y-121785245D01*
X105163392Y-121784554D01*
X105202591Y-121753262D01*
X105205095Y-121750758D01*
X105205813Y-121750116D01*
X105210146Y-121746415D01*
X105243680Y-121719065D01*
X105259666Y-121699742D01*
X105272905Y-121683738D01*
X105280895Y-121674958D01*
X108669379Y-118286473D01*
X108679522Y-118277371D01*
X108704218Y-118257515D01*
X108709025Y-118253650D01*
X108741320Y-118215162D01*
X108744478Y-118211543D01*
X108746124Y-118209728D01*
X108748309Y-118207543D01*
X108750264Y-118205163D01*
X108750273Y-118205153D01*
X108775549Y-118174382D01*
X108776391Y-118173367D01*
X108808025Y-118135667D01*
X108836154Y-118102144D01*
X108838723Y-118097470D01*
X108842102Y-118093357D01*
X108885975Y-118011533D01*
X108886584Y-118010411D01*
X108928464Y-117934232D01*
X108928465Y-117934230D01*
X108931433Y-117928831D01*
X108933045Y-117923749D01*
X108935562Y-117919055D01*
X108962762Y-117830087D01*
X108963108Y-117828976D01*
X108967893Y-117813894D01*
X108991235Y-117740312D01*
X108991829Y-117735016D01*
X108993387Y-117729920D01*
X109002790Y-117637361D01*
X109002911Y-117636225D01*
X109008500Y-117586391D01*
X109008500Y-117582864D01*
X109008555Y-117581879D01*
X109009002Y-117576199D01*
X109013374Y-117533156D01*
X109009059Y-117487509D01*
X109008500Y-117475651D01*
X109008500Y-111208954D01*
X109009237Y-111195347D01*
X109012659Y-111163849D01*
X109012659Y-111163844D01*
X109013324Y-111157723D01*
X109010619Y-111126800D01*
X109008950Y-111107721D01*
X109008621Y-111102896D01*
X109008500Y-111100425D01*
X109008500Y-111097343D01*
X109004309Y-111054601D01*
X109004187Y-111053286D01*
X108997925Y-110981707D01*
X108996087Y-110960699D01*
X108994600Y-110955580D01*
X108994080Y-110950279D01*
X108967218Y-110861306D01*
X108966862Y-110860106D01*
X108940909Y-110770775D01*
X108938455Y-110766041D01*
X108936916Y-110760943D01*
X108930843Y-110749521D01*
X108893316Y-110678943D01*
X108892702Y-110677775D01*
X108852726Y-110600653D01*
X108852725Y-110600652D01*
X108849892Y-110595186D01*
X108846569Y-110591023D01*
X108844066Y-110586316D01*
X108785284Y-110514243D01*
X108784465Y-110513227D01*
X108755465Y-110476898D01*
X108755460Y-110476892D01*
X108753262Y-110474139D01*
X108750759Y-110471636D01*
X108750116Y-110470917D01*
X108746415Y-110466584D01*
X108719065Y-110433050D01*
X108683737Y-110403824D01*
X108674958Y-110395835D01*
X106882039Y-108602917D01*
X97539832Y-99260710D01*
X97530730Y-99250567D01*
X97510874Y-99225871D01*
X97507009Y-99221064D01*
X97468555Y-99188797D01*
X97464908Y-99185617D01*
X97463096Y-99183974D01*
X97460902Y-99181780D01*
X97427628Y-99154447D01*
X97426830Y-99153785D01*
X97355503Y-99093935D01*
X97350833Y-99091367D01*
X97346716Y-99087986D01*
X97264891Y-99044112D01*
X97263732Y-99043483D01*
X97187596Y-99001627D01*
X97187588Y-99001624D01*
X97182190Y-98998656D01*
X97177108Y-98997044D01*
X97172414Y-98994527D01*
X97083446Y-98967327D01*
X97082418Y-98967007D01*
X96993671Y-98938854D01*
X96988375Y-98938260D01*
X96983279Y-98936702D01*
X96890720Y-98927299D01*
X96889584Y-98927178D01*
X96855969Y-98923408D01*
X96843247Y-98921981D01*
X96843243Y-98921981D01*
X96839750Y-98921589D01*
X96836223Y-98921589D01*
X96835238Y-98921534D01*
X96829558Y-98921087D01*
X96800152Y-98918100D01*
X96792640Y-98917337D01*
X96792638Y-98917337D01*
X96786515Y-98916715D01*
X96744236Y-98920712D01*
X96740868Y-98921030D01*
X96729010Y-98921589D01*
X87992934Y-98921589D01*
X87924813Y-98901587D01*
X87878320Y-98847931D01*
X87868216Y-98777657D01*
X87897710Y-98713077D01*
X87948704Y-98677607D01*
X88012297Y-98653767D01*
X88020705Y-98650615D01*
X88137261Y-98563261D01*
X88224615Y-98446705D01*
X88275745Y-98310316D01*
X88282500Y-98248134D01*
X88282500Y-95751866D01*
X88275745Y-95689684D01*
X88224615Y-95553295D01*
X88137261Y-95436739D01*
X88020705Y-95349385D01*
X87884316Y-95298255D01*
X87822134Y-95291500D01*
X85325866Y-95291500D01*
X85263684Y-95298255D01*
X85127295Y-95349385D01*
X85010739Y-95436739D01*
X84923385Y-95553295D01*
X84872255Y-95689684D01*
X84865500Y-95751866D01*
X84865500Y-98248134D01*
X84872255Y-98310316D01*
X84923385Y-98446705D01*
X85010739Y-98563261D01*
X85127295Y-98650615D01*
X85135703Y-98653767D01*
X85199296Y-98677607D01*
X85256060Y-98720249D01*
X85280760Y-98786810D01*
X85265553Y-98856159D01*
X85215267Y-98906277D01*
X85155066Y-98921589D01*
X84950231Y-98921589D01*
X84947175Y-98921889D01*
X84947168Y-98921889D01*
X84891915Y-98927307D01*
X84803167Y-98936009D01*
X84797266Y-98937791D01*
X84797264Y-98937791D01*
X84723947Y-98959927D01*
X84613831Y-98993173D01*
X84439204Y-99086023D01*
X84356174Y-99153741D01*
X84290713Y-99207129D01*
X84290710Y-99207132D01*
X84285938Y-99211024D01*
X84282011Y-99215771D01*
X84282009Y-99215773D01*
X84163799Y-99358664D01*
X84163797Y-99358668D01*
X84159870Y-99363414D01*
X84065802Y-99537388D01*
X84007318Y-99726321D01*
X83986645Y-99923014D01*
X84004570Y-100119977D01*
X84060410Y-100309708D01*
X84152040Y-100484979D01*
X84272707Y-100635058D01*
X84299802Y-100700678D01*
X84287119Y-100770533D01*
X84276561Y-100787879D01*
X84272260Y-100792656D01*
X84176773Y-100958044D01*
X84117758Y-101139672D01*
X84117068Y-101146233D01*
X84117068Y-101146235D01*
X84101981Y-101289785D01*
X84097796Y-101329600D01*
X84117758Y-101519528D01*
X84176773Y-101701156D01*
X84272260Y-101866544D01*
X84400047Y-102008466D01*
X84499143Y-102080464D01*
X84549204Y-102116835D01*
X84554548Y-102120718D01*
X84560576Y-102123402D01*
X84560578Y-102123403D01*
X84722981Y-102195709D01*
X84729012Y-102198394D01*
X84822413Y-102218247D01*
X84909356Y-102236728D01*
X84909361Y-102236728D01*
X84915813Y-102238100D01*
X85106787Y-102238100D01*
X85113239Y-102236728D01*
X85113244Y-102236728D01*
X85200187Y-102218247D01*
X85293588Y-102198394D01*
X85299619Y-102195709D01*
X85462022Y-102123403D01*
X85462024Y-102123402D01*
X85468052Y-102120718D01*
X85473391Y-102116839D01*
X85473398Y-102116835D01*
X85479828Y-102112163D01*
X85553887Y-102088100D01*
X96049029Y-102088100D01*
X96117150Y-102108102D01*
X96138124Y-102125005D01*
X101735465Y-107722346D01*
X101769491Y-107784658D01*
X101764426Y-107855473D01*
X101721879Y-107912309D01*
X101699720Y-107925589D01*
X101663739Y-107942406D01*
X101654520Y-107947707D01*
X101472960Y-108073660D01*
X101466477Y-108078822D01*
X101463154Y-108081845D01*
X101456785Y-108093509D01*
X101456916Y-108095342D01*
X101461167Y-108101957D01*
X102502348Y-109143138D01*
X102536374Y-109205450D01*
X102531309Y-109276265D01*
X102502348Y-109321328D01*
X101375086Y-110448590D01*
X101368326Y-110460970D01*
X101374749Y-110469550D01*
X101475562Y-110535394D01*
X101484925Y-110540435D01*
X101686554Y-110627898D01*
X101696642Y-110631292D01*
X101910127Y-110683531D01*
X101920635Y-110685176D01*
X102139869Y-110700699D01*
X102150512Y-110700550D01*
X102191194Y-110696526D01*
X102260953Y-110709725D01*
X102312502Y-110758543D01*
X102329475Y-110827481D01*
X102326244Y-110850793D01*
X102293741Y-110988830D01*
X102286803Y-111018293D01*
X102286809Y-111025609D01*
X102286809Y-111025612D01*
X102286869Y-111094277D01*
X102286957Y-111195163D01*
X102327796Y-111367255D01*
X102331078Y-111373794D01*
X102331078Y-111373795D01*
X102348952Y-111409411D01*
X102407130Y-111525335D01*
X102411472Y-111530668D01*
X102411473Y-111530670D01*
X102471396Y-111604274D01*
X102471402Y-111604280D01*
X102473427Y-111606768D01*
X103393232Y-112526573D01*
X103395762Y-112528627D01*
X103395766Y-112528631D01*
X103470426Y-112589255D01*
X103470430Y-112589257D01*
X103475779Y-112593601D01*
X103481940Y-112596679D01*
X103481944Y-112596682D01*
X103627456Y-112669389D01*
X103627458Y-112669390D01*
X103633999Y-112672658D01*
X103728202Y-112694840D01*
X103799038Y-112711520D01*
X103799040Y-112711520D01*
X103806161Y-112713197D01*
X103813477Y-112713191D01*
X103813480Y-112713191D01*
X103894787Y-112713120D01*
X103983031Y-112713043D01*
X104069077Y-112692623D01*
X104148002Y-112673894D01*
X104148003Y-112673894D01*
X104155123Y-112672204D01*
X104313203Y-112592870D01*
X104318538Y-112588527D01*
X104392142Y-112528604D01*
X104392148Y-112528598D01*
X104394636Y-112526573D01*
X105526573Y-111394636D01*
X105543496Y-111373795D01*
X105589255Y-111317442D01*
X105589257Y-111317438D01*
X105593601Y-111312089D01*
X105596679Y-111305928D01*
X105596682Y-111305924D01*
X105669389Y-111160412D01*
X105669390Y-111160410D01*
X105672658Y-111153869D01*
X105704582Y-111018293D01*
X105711520Y-110988830D01*
X105711520Y-110988828D01*
X105713197Y-110981707D01*
X105713175Y-110955580D01*
X105713079Y-110846131D01*
X105713043Y-110804837D01*
X105677671Y-110655784D01*
X105673894Y-110639866D01*
X105673894Y-110639865D01*
X105672204Y-110632745D01*
X105632032Y-110552698D01*
X105619354Y-110482844D01*
X105646455Y-110417224D01*
X105704731Y-110376672D01*
X105775680Y-110374065D01*
X105833741Y-110407088D01*
X106954595Y-111527941D01*
X106988620Y-111590253D01*
X106991500Y-111617036D01*
X106991500Y-117059693D01*
X106971498Y-117127814D01*
X106954595Y-117148788D01*
X106164889Y-117938495D01*
X105458828Y-118644556D01*
X105396516Y-118678581D01*
X105325701Y-118673517D01*
X105266207Y-118627283D01*
X105156560Y-118469227D01*
X105153770Y-118466161D01*
X105153766Y-118466156D01*
X105141273Y-118452428D01*
X105140287Y-118451344D01*
X104813571Y-118124628D01*
X104681759Y-118013435D01*
X104483012Y-117896598D01*
X104267421Y-117814917D01*
X104041149Y-117770730D01*
X104035816Y-117770604D01*
X104035813Y-117770604D01*
X103920262Y-117767881D01*
X103810667Y-117765298D01*
X103720290Y-117778563D01*
X103694634Y-117782329D01*
X103624331Y-117772432D01*
X103587241Y-117746760D01*
X102001270Y-116160789D01*
X101988884Y-116146377D01*
X101980351Y-116134782D01*
X101980346Y-116134777D01*
X101976008Y-116128882D01*
X101970430Y-116124143D01*
X101970427Y-116124140D01*
X101935732Y-116094665D01*
X101928216Y-116087735D01*
X101922521Y-116082040D01*
X101908237Y-116070739D01*
X101900249Y-116064419D01*
X101896845Y-116061628D01*
X101846797Y-116019109D01*
X101846795Y-116019108D01*
X101841215Y-116014367D01*
X101834699Y-116011039D01*
X101829650Y-116007672D01*
X101824521Y-116004505D01*
X101818784Y-115999966D01*
X101752625Y-115969045D01*
X101748725Y-115967139D01*
X101683692Y-115933931D01*
X101676584Y-115932192D01*
X101670941Y-115930093D01*
X101665178Y-115928176D01*
X101658550Y-115925078D01*
X101645642Y-115922393D01*
X101603338Y-115913594D01*
X101587083Y-115910213D01*
X101582799Y-115909243D01*
X101568197Y-115905670D01*
X101511890Y-115891892D01*
X101506288Y-115891544D01*
X101506285Y-115891544D01*
X101500736Y-115891200D01*
X101500738Y-115891164D01*
X101496745Y-115890925D01*
X101492553Y-115890551D01*
X101485385Y-115889060D01*
X101419175Y-115890851D01*
X101407979Y-115891154D01*
X101404572Y-115891200D01*
X90027835Y-115891200D01*
X90020033Y-115890958D01*
X90019501Y-115890925D01*
X89958702Y-115887153D01*
X89951486Y-115888393D01*
X89951485Y-115888393D01*
X89946451Y-115889258D01*
X89895111Y-115898080D01*
X89888390Y-115899048D01*
X89867465Y-115901488D01*
X89831589Y-115905670D01*
X89831586Y-115905671D01*
X89824319Y-115906518D01*
X89815393Y-115909758D01*
X89793742Y-115915499D01*
X89784386Y-115917106D01*
X89725004Y-115942373D01*
X89718711Y-115944852D01*
X89658063Y-115966867D01*
X89651941Y-115970881D01*
X89650122Y-115972073D01*
X89630385Y-115982633D01*
X89628377Y-115983487D01*
X89628365Y-115983494D01*
X89621636Y-115986357D01*
X89615744Y-115990693D01*
X89615739Y-115990696D01*
X89569668Y-116024600D01*
X89564072Y-116028490D01*
X89510148Y-116063844D01*
X89505111Y-116069161D01*
X89503616Y-116070739D01*
X89486834Y-116085561D01*
X89479182Y-116091192D01*
X89474447Y-116096765D01*
X89474440Y-116096772D01*
X89437419Y-116140349D01*
X89432867Y-116145423D01*
X89418311Y-116160789D01*
X89388510Y-116192247D01*
X89384835Y-116198574D01*
X89384828Y-116198583D01*
X89383733Y-116200468D01*
X89370815Y-116218747D01*
X89369406Y-116220406D01*
X89364667Y-116225985D01*
X89361341Y-116232499D01*
X89361338Y-116232503D01*
X89335330Y-116283436D01*
X89332068Y-116289419D01*
X89305233Y-116335620D01*
X89299674Y-116345190D01*
X89297553Y-116352194D01*
X89297551Y-116352198D01*
X89296922Y-116354275D01*
X89288549Y-116375051D01*
X89284231Y-116383508D01*
X89268892Y-116446195D01*
X89267107Y-116452721D01*
X89252174Y-116502024D01*
X89213284Y-116561422D01*
X89148455Y-116590365D01*
X89131584Y-116591500D01*
X88701866Y-116591500D01*
X88639684Y-116598255D01*
X88503295Y-116649385D01*
X88386739Y-116736739D01*
X88299385Y-116853295D01*
X88296233Y-116861703D01*
X88278228Y-116909730D01*
X88235586Y-116966495D01*
X88169024Y-116991194D01*
X88160246Y-116991500D01*
X86889754Y-116991500D01*
X86821633Y-116971498D01*
X86775140Y-116917842D01*
X86771772Y-116909730D01*
X86753767Y-116861703D01*
X86750615Y-116853295D01*
X86663261Y-116736739D01*
X86546705Y-116649385D01*
X86410316Y-116598255D01*
X86348134Y-116591500D01*
X79851866Y-116591500D01*
X79789684Y-116598255D01*
X79653295Y-116649385D01*
X79536739Y-116736739D01*
X79449385Y-116853295D01*
X79398255Y-116989684D01*
X79391500Y-117051866D01*
X79391500Y-122948134D01*
X79398255Y-123010316D01*
X79449385Y-123146705D01*
X79536739Y-123263261D01*
X79653295Y-123350615D01*
X79789684Y-123401745D01*
X79851866Y-123408500D01*
X86348134Y-123408500D01*
X86410316Y-123401745D01*
X86546705Y-123350615D01*
X86663261Y-123263261D01*
X86750615Y-123146705D01*
X86801745Y-123010316D01*
X86808500Y-122948134D01*
X86808500Y-119134500D01*
X86828502Y-119066379D01*
X86882158Y-119019886D01*
X86934500Y-119008500D01*
X88160246Y-119008500D01*
X88228367Y-119028502D01*
X88274860Y-119082158D01*
X88278228Y-119090270D01*
X88299385Y-119146705D01*
X88386739Y-119263261D01*
X88503295Y-119350615D01*
X88639684Y-119401745D01*
X88701866Y-119408500D01*
X91298134Y-119408500D01*
X91360316Y-119401745D01*
X91496705Y-119350615D01*
X91613261Y-119263261D01*
X91700615Y-119146705D01*
X91751745Y-119010316D01*
X91758500Y-118948134D01*
X91758500Y-117534200D01*
X91778502Y-117466079D01*
X91832158Y-117419586D01*
X91884500Y-117408200D01*
X92115500Y-117408200D01*
X92183621Y-117428202D01*
X92230114Y-117481858D01*
X92241500Y-117534200D01*
X92241500Y-118948134D01*
X92248255Y-119010316D01*
X92299385Y-119146705D01*
X92386739Y-119263261D01*
X92503295Y-119350615D01*
X92639684Y-119401745D01*
X92701866Y-119408500D01*
X92716705Y-119408500D01*
X92784826Y-119428502D01*
X92831319Y-119482158D01*
X92841423Y-119552432D01*
X92811929Y-119617012D01*
X92805800Y-119623595D01*
X83962300Y-128467095D01*
X83899988Y-128501121D01*
X83873205Y-128504000D01*
X72978640Y-128504000D01*
X72910519Y-128483998D01*
X72871497Y-128444304D01*
X72826116Y-128370969D01*
X72762409Y-128307373D01*
X72708184Y-128253242D01*
X72708179Y-128253238D01*
X72703003Y-128248071D01*
X72666318Y-128225458D01*
X72561150Y-128160631D01*
X72561148Y-128160630D01*
X72554920Y-128156791D01*
X72389809Y-128102026D01*
X72382973Y-128101326D01*
X72382970Y-128101325D01*
X72331474Y-128096049D01*
X72287072Y-128091500D01*
X71712928Y-128091500D01*
X71709682Y-128091837D01*
X71709678Y-128091837D01*
X71671225Y-128095827D01*
X71658221Y-128096500D01*
X71652276Y-128096500D01*
X71632565Y-128094949D01*
X71620386Y-128093020D01*
X71612557Y-128091780D01*
X71604665Y-128092526D01*
X71568539Y-128095941D01*
X71556681Y-128096500D01*
X70473539Y-128096500D01*
X70405418Y-128076498D01*
X70372713Y-128046065D01*
X70318643Y-127973920D01*
X70318642Y-127973919D01*
X70313261Y-127966739D01*
X70196705Y-127879385D01*
X70060316Y-127828255D01*
X69998134Y-127821500D01*
X68501866Y-127821500D01*
X68439684Y-127828255D01*
X68303295Y-127879385D01*
X68186739Y-127966739D01*
X68099385Y-128083295D01*
X68048255Y-128219684D01*
X68041500Y-128281866D01*
X68041500Y-129178134D01*
X68048255Y-129240316D01*
X68067411Y-129291415D01*
X68078416Y-129320770D01*
X68083599Y-129391577D01*
X68078416Y-129409229D01*
X68048255Y-129489684D01*
X68041500Y-129551866D01*
X68041500Y-130448134D01*
X68048255Y-130510316D01*
X68078683Y-130591482D01*
X68083866Y-130662289D01*
X68078683Y-130679942D01*
X68051522Y-130752394D01*
X68047895Y-130767649D01*
X68042369Y-130818514D01*
X68042000Y-130825328D01*
X68042000Y-130867005D01*
X68021998Y-130935126D01*
X67968342Y-130981619D01*
X67898068Y-130991723D01*
X67833488Y-130962229D01*
X67826905Y-130956100D01*
X62516652Y-125645847D01*
X62509112Y-125637561D01*
X62505000Y-125631082D01*
X62455348Y-125584456D01*
X62452507Y-125581702D01*
X62432770Y-125561965D01*
X62429573Y-125559485D01*
X62420551Y-125551780D01*
X62394100Y-125526941D01*
X62388321Y-125521514D01*
X62381375Y-125517695D01*
X62381372Y-125517693D01*
X62370566Y-125511752D01*
X62354047Y-125500901D01*
X62352885Y-125500000D01*
X62338041Y-125488486D01*
X62330772Y-125485341D01*
X62330768Y-125485338D01*
X62297463Y-125470926D01*
X62286813Y-125465709D01*
X62248060Y-125444405D01*
X62228437Y-125439367D01*
X62209734Y-125432963D01*
X62198420Y-125428067D01*
X62198419Y-125428067D01*
X62191145Y-125424919D01*
X62183322Y-125423680D01*
X62183312Y-125423677D01*
X62147476Y-125418001D01*
X62135856Y-125415595D01*
X62100711Y-125406572D01*
X62100710Y-125406572D01*
X62093030Y-125404600D01*
X62072776Y-125404600D01*
X62053065Y-125403049D01*
X62040886Y-125401120D01*
X62033057Y-125399880D01*
X62025165Y-125400626D01*
X61989039Y-125404041D01*
X61977181Y-125404600D01*
X55786538Y-125404600D01*
X55718417Y-125384598D01*
X55671924Y-125330942D01*
X55661820Y-125260668D01*
X55691314Y-125196088D01*
X55713370Y-125176021D01*
X55884136Y-125054216D01*
X55892003Y-125047567D01*
X56044445Y-124895656D01*
X56051122Y-124887811D01*
X56176702Y-124713047D01*
X56182013Y-124704208D01*
X56277358Y-124511292D01*
X56281156Y-124501699D01*
X56343716Y-124295791D01*
X56345893Y-124285721D01*
X56347705Y-124271960D01*
X56345493Y-124257778D01*
X56332336Y-124254000D01*
X54872000Y-124254000D01*
X54803879Y-124233998D01*
X54757386Y-124180342D01*
X54746000Y-124128000D01*
X54746000Y-123872000D01*
X54766002Y-123803879D01*
X54819658Y-123757386D01*
X54872000Y-123746000D01*
X56332367Y-123746000D01*
X56345898Y-123742027D01*
X56347203Y-123732947D01*
X56307277Y-123573996D01*
X56310081Y-123503055D01*
X56350794Y-123444891D01*
X56416489Y-123417972D01*
X56429481Y-123417300D01*
X58973277Y-123417300D01*
X59041398Y-123437302D01*
X59080646Y-123482159D01*
X59082346Y-123481107D01*
X59173884Y-123629031D01*
X59179066Y-123634204D01*
X59291816Y-123746758D01*
X59291821Y-123746762D01*
X59296997Y-123751929D01*
X59303227Y-123755769D01*
X59303228Y-123755770D01*
X59376803Y-123801122D01*
X59445080Y-123843209D01*
X59610191Y-123897974D01*
X59617027Y-123898674D01*
X59617030Y-123898675D01*
X59664370Y-123903525D01*
X59712928Y-123908500D01*
X60287072Y-123908500D01*
X60290318Y-123908163D01*
X60290322Y-123908163D01*
X60384235Y-123898419D01*
X60384239Y-123898418D01*
X60391093Y-123897707D01*
X60397629Y-123895526D01*
X60397631Y-123895526D01*
X60530395Y-123851232D01*
X60556107Y-123842654D01*
X60704031Y-123751116D01*
X60722168Y-123732947D01*
X60821758Y-123633184D01*
X60821762Y-123633179D01*
X60826929Y-123628003D01*
X60860220Y-123573996D01*
X60880522Y-123541060D01*
X60933295Y-123493566D01*
X61003366Y-123482143D01*
X61068490Y-123510418D01*
X61076877Y-123518081D01*
X61221043Y-123662247D01*
X61228587Y-123670537D01*
X61232700Y-123677018D01*
X61238477Y-123682443D01*
X61282367Y-123723658D01*
X61285209Y-123726413D01*
X61304931Y-123746135D01*
X61308055Y-123748558D01*
X61308059Y-123748562D01*
X61308124Y-123748612D01*
X61317145Y-123756317D01*
X61349379Y-123786586D01*
X61356327Y-123790405D01*
X61356329Y-123790407D01*
X61367132Y-123796346D01*
X61383659Y-123807202D01*
X61393398Y-123814757D01*
X61393400Y-123814758D01*
X61399660Y-123819614D01*
X61440240Y-123837174D01*
X61450888Y-123842391D01*
X61451367Y-123842654D01*
X61489640Y-123863695D01*
X61497316Y-123865666D01*
X61497319Y-123865667D01*
X61509262Y-123868733D01*
X61527967Y-123875137D01*
X61541438Y-123880967D01*
X61541440Y-123880968D01*
X61546555Y-123883181D01*
X61546198Y-123884006D01*
X61600391Y-123918617D01*
X61606222Y-123925828D01*
X61686739Y-124033261D01*
X61803295Y-124120615D01*
X61939684Y-124171745D01*
X62001866Y-124178500D01*
X63498134Y-124178500D01*
X63560316Y-124171745D01*
X63696705Y-124120615D01*
X63813261Y-124033261D01*
X63900615Y-123916705D01*
X63951745Y-123780316D01*
X63958500Y-123718134D01*
X63958500Y-123714669D01*
X68042001Y-123714669D01*
X68042371Y-123721490D01*
X68047895Y-123772352D01*
X68051521Y-123787604D01*
X68096676Y-123908054D01*
X68105214Y-123923649D01*
X68181715Y-124025724D01*
X68194276Y-124038285D01*
X68296351Y-124114786D01*
X68311946Y-124123324D01*
X68432394Y-124168478D01*
X68447649Y-124172105D01*
X68498514Y-124177631D01*
X68505328Y-124178000D01*
X68977885Y-124178000D01*
X68993124Y-124173525D01*
X68994329Y-124172135D01*
X68996000Y-124164452D01*
X68996000Y-123542115D01*
X68991525Y-123526876D01*
X68990135Y-123525671D01*
X68982452Y-123524000D01*
X68060116Y-123524000D01*
X68044877Y-123528475D01*
X68043672Y-123529865D01*
X68042001Y-123537548D01*
X68042001Y-123714669D01*
X63958500Y-123714669D01*
X63958500Y-122821866D01*
X63951745Y-122759684D01*
X63900615Y-122623295D01*
X63813261Y-122506739D01*
X63696705Y-122419385D01*
X63560316Y-122368255D01*
X63498134Y-122361500D01*
X62001866Y-122361500D01*
X61939684Y-122368255D01*
X61932288Y-122371027D01*
X61932282Y-122371029D01*
X61855032Y-122399989D01*
X61784225Y-122405172D01*
X61721708Y-122371102D01*
X61050348Y-121699742D01*
X61042813Y-121691462D01*
X61038700Y-121684982D01*
X61032505Y-121679164D01*
X61012728Y-121660593D01*
X60997906Y-121646674D01*
X60961941Y-121585464D01*
X60964567Y-121515156D01*
X60970807Y-121496345D01*
X60970809Y-121496337D01*
X60972974Y-121489809D01*
X60974321Y-121476662D01*
X61001160Y-121410933D01*
X61059273Y-121370150D01*
X61099665Y-121363500D01*
X61526461Y-121363500D01*
X61594582Y-121383502D01*
X61627287Y-121413935D01*
X61681357Y-121486080D01*
X61686739Y-121493261D01*
X61803295Y-121580615D01*
X61939684Y-121631745D01*
X62001866Y-121638500D01*
X63498134Y-121638500D01*
X63560316Y-121631745D01*
X63696705Y-121580615D01*
X63813261Y-121493261D01*
X63900615Y-121376705D01*
X63951745Y-121240316D01*
X63958500Y-121178134D01*
X63958500Y-120281866D01*
X63951745Y-120219684D01*
X63900615Y-120083295D01*
X63813261Y-119966739D01*
X63696705Y-119879385D01*
X63560316Y-119828255D01*
X63498134Y-119821500D01*
X62001866Y-119821500D01*
X61939684Y-119828255D01*
X61803295Y-119879385D01*
X61686739Y-119966739D01*
X61681358Y-119973919D01*
X61681357Y-119973920D01*
X61627287Y-120046065D01*
X61570427Y-120088580D01*
X61526461Y-120096500D01*
X60436263Y-120096500D01*
X60425079Y-120095973D01*
X60417591Y-120094299D01*
X60368433Y-120095844D01*
X60349533Y-120096438D01*
X60345575Y-120096500D01*
X60342313Y-120096500D01*
X60329471Y-120095844D01*
X60287072Y-120091500D01*
X59712928Y-120091500D01*
X59709682Y-120091837D01*
X59709678Y-120091837D01*
X59615765Y-120101581D01*
X59615761Y-120101582D01*
X59608907Y-120102293D01*
X59602371Y-120104474D01*
X59602369Y-120104474D01*
X59469605Y-120148768D01*
X59443893Y-120157346D01*
X59295969Y-120248884D01*
X59290796Y-120254066D01*
X59178242Y-120366816D01*
X59178238Y-120366821D01*
X59173071Y-120371997D01*
X59081791Y-120520080D01*
X59027026Y-120685191D01*
X59026326Y-120692027D01*
X59026325Y-120692030D01*
X59023058Y-120723922D01*
X59016500Y-120787928D01*
X59016500Y-121332500D01*
X58996498Y-121400621D01*
X58942842Y-121447114D01*
X58890500Y-121458500D01*
X54625767Y-121458500D01*
X54614584Y-121457973D01*
X54607091Y-121456298D01*
X54599165Y-121456547D01*
X54599164Y-121456547D01*
X54539014Y-121458438D01*
X54535055Y-121458500D01*
X54507144Y-121458500D01*
X54503210Y-121458997D01*
X54503209Y-121458997D01*
X54503144Y-121459005D01*
X54491307Y-121459938D01*
X54459490Y-121460938D01*
X54455029Y-121461078D01*
X54447110Y-121461327D01*
X54429454Y-121466456D01*
X54427658Y-121466978D01*
X54408306Y-121470986D01*
X54401235Y-121471880D01*
X54388203Y-121473526D01*
X54380834Y-121476443D01*
X54380832Y-121476444D01*
X54347097Y-121489800D01*
X54335869Y-121493645D01*
X54293407Y-121505982D01*
X54286585Y-121510016D01*
X54286579Y-121510019D01*
X54275968Y-121516294D01*
X54258218Y-121524990D01*
X54246756Y-121529528D01*
X54246751Y-121529531D01*
X54239383Y-121532448D01*
X54232968Y-121537109D01*
X54203625Y-121558427D01*
X54193707Y-121564943D01*
X54176315Y-121575229D01*
X54155637Y-121587458D01*
X54141313Y-121601782D01*
X54126281Y-121614621D01*
X54109893Y-121626528D01*
X54081712Y-121660593D01*
X54073722Y-121669373D01*
X52936947Y-122806148D01*
X52928661Y-122813688D01*
X52922182Y-122817800D01*
X52916757Y-122823577D01*
X52875557Y-122867451D01*
X52872802Y-122870293D01*
X52853065Y-122890030D01*
X52850585Y-122893227D01*
X52842882Y-122902247D01*
X52812614Y-122934479D01*
X52808795Y-122941425D01*
X52808793Y-122941428D01*
X52802852Y-122952234D01*
X52792001Y-122968753D01*
X52779586Y-122984759D01*
X52776441Y-122992028D01*
X52776438Y-122992032D01*
X52762026Y-123025337D01*
X52756809Y-123035987D01*
X52735505Y-123074740D01*
X52733534Y-123082415D01*
X52733534Y-123082416D01*
X52730467Y-123094362D01*
X52724063Y-123113066D01*
X52720641Y-123120975D01*
X52716019Y-123131655D01*
X52714780Y-123139478D01*
X52714777Y-123139488D01*
X52709101Y-123175324D01*
X52706695Y-123186944D01*
X52695700Y-123229770D01*
X52695700Y-123250024D01*
X52694149Y-123269734D01*
X52690980Y-123289743D01*
X52691726Y-123297635D01*
X52695141Y-123333761D01*
X52695700Y-123345619D01*
X52695700Y-124147442D01*
X52675698Y-124215563D01*
X52622042Y-124262056D01*
X52558716Y-124272962D01*
X52545483Y-124271804D01*
X52545475Y-124271804D01*
X52540000Y-124271325D01*
X52326643Y-124289991D01*
X52189740Y-124326674D01*
X52125078Y-124344000D01*
X52125076Y-124344001D01*
X52119768Y-124345423D01*
X52114788Y-124347745D01*
X52114786Y-124347746D01*
X51930644Y-124433613D01*
X51930641Y-124433615D01*
X51925663Y-124435936D01*
X51750223Y-124558780D01*
X51598780Y-124710223D01*
X51475936Y-124885663D01*
X51473615Y-124890641D01*
X51473613Y-124890644D01*
X51397338Y-125054216D01*
X51385423Y-125079768D01*
X51329991Y-125286643D01*
X51311325Y-125500000D01*
X51329991Y-125713357D01*
X51385423Y-125920232D01*
X51387745Y-125925212D01*
X51387746Y-125925214D01*
X51448080Y-126054599D01*
X51475936Y-126114337D01*
X51598780Y-126289777D01*
X51750223Y-126441220D01*
X51754731Y-126444377D01*
X51754734Y-126444379D01*
X51827649Y-126495434D01*
X51925662Y-126564064D01*
X51930644Y-126566387D01*
X51930649Y-126566390D01*
X52114786Y-126652254D01*
X52119768Y-126654577D01*
X52125076Y-126655999D01*
X52125078Y-126656000D01*
X52183299Y-126671600D01*
X52326643Y-126710009D01*
X52540000Y-126728675D01*
X52753357Y-126710009D01*
X52896701Y-126671600D01*
X52954922Y-126656000D01*
X52954924Y-126655999D01*
X52960232Y-126654577D01*
X52965214Y-126652254D01*
X53149351Y-126566390D01*
X53149356Y-126566387D01*
X53154338Y-126564064D01*
X53252351Y-126495434D01*
X53325266Y-126444379D01*
X53325269Y-126444377D01*
X53329777Y-126441220D01*
X53481220Y-126289777D01*
X53604064Y-126114337D01*
X53615205Y-126090445D01*
X53662121Y-126037160D01*
X53730397Y-126017698D01*
X53798358Y-126038239D01*
X53818495Y-126054599D01*
X54803843Y-127039947D01*
X54811387Y-127048237D01*
X54815500Y-127054718D01*
X54821277Y-127060143D01*
X54865167Y-127101358D01*
X54868009Y-127104113D01*
X54887731Y-127123835D01*
X54890873Y-127126272D01*
X54890933Y-127126319D01*
X54899945Y-127134017D01*
X54925536Y-127158047D01*
X54932179Y-127164286D01*
X54939122Y-127168103D01*
X54949931Y-127174045D01*
X54966453Y-127184898D01*
X54982459Y-127197314D01*
X54989737Y-127200464D01*
X54989738Y-127200464D01*
X55023037Y-127214874D01*
X55033687Y-127220091D01*
X55072440Y-127241395D01*
X55080115Y-127243366D01*
X55080116Y-127243366D01*
X55092062Y-127246433D01*
X55110767Y-127252837D01*
X55129355Y-127260881D01*
X55137178Y-127262120D01*
X55137188Y-127262123D01*
X55173024Y-127267799D01*
X55184644Y-127270205D01*
X55219789Y-127279228D01*
X55227470Y-127281200D01*
X55247724Y-127281200D01*
X55267434Y-127282751D01*
X55287443Y-127285920D01*
X55295335Y-127285174D01*
X55331461Y-127281759D01*
X55343319Y-127281200D01*
X55550206Y-127281200D01*
X55618327Y-127301202D01*
X55639301Y-127318105D01*
X58633648Y-130312453D01*
X58641188Y-130320739D01*
X58645300Y-130327218D01*
X58651077Y-130332643D01*
X58694951Y-130373843D01*
X58697793Y-130376598D01*
X58717530Y-130396335D01*
X58720727Y-130398815D01*
X58729747Y-130406518D01*
X58761979Y-130436786D01*
X58768925Y-130440605D01*
X58768928Y-130440607D01*
X58779734Y-130446548D01*
X58796253Y-130457399D01*
X58812259Y-130469814D01*
X58819528Y-130472959D01*
X58819532Y-130472962D01*
X58852837Y-130487374D01*
X58863487Y-130492591D01*
X58902240Y-130513895D01*
X58921837Y-130518927D01*
X58982841Y-130555239D01*
X59014530Y-130618772D01*
X59016500Y-130640967D01*
X59016500Y-131212072D01*
X59016837Y-131215318D01*
X59016837Y-131215322D01*
X59026571Y-131309132D01*
X59027293Y-131316093D01*
X59029474Y-131322629D01*
X59029474Y-131322631D01*
X59069039Y-131441220D01*
X59082346Y-131481107D01*
X59173884Y-131629031D01*
X59179066Y-131634204D01*
X59291816Y-131746758D01*
X59291821Y-131746762D01*
X59296997Y-131751929D01*
X59303227Y-131755769D01*
X59303228Y-131755770D01*
X59354876Y-131787606D01*
X59445080Y-131843209D01*
X59610191Y-131897974D01*
X59617027Y-131898674D01*
X59617030Y-131898675D01*
X59664370Y-131903525D01*
X59712928Y-131908500D01*
X60047906Y-131908500D01*
X60116027Y-131928502D01*
X60137001Y-131945405D01*
X61797935Y-133606339D01*
X61831961Y-133668651D01*
X61826896Y-133739466D01*
X61784349Y-133796302D01*
X61717829Y-133821113D01*
X61708840Y-133821434D01*
X61110070Y-133821434D01*
X61089166Y-133819688D01*
X61084066Y-133818830D01*
X61069402Y-133816363D01*
X61063044Y-133816285D01*
X61061721Y-133816269D01*
X61061717Y-133816269D01*
X61056863Y-133816210D01*
X61052047Y-133816900D01*
X61052044Y-133816900D01*
X61038565Y-133818830D01*
X61027768Y-133819905D01*
X60897815Y-133827203D01*
X60831684Y-133830917D01*
X60609337Y-133868695D01*
X60392618Y-133931131D01*
X60389350Y-133932485D01*
X60389349Y-133932485D01*
X60187520Y-134016085D01*
X60187515Y-134016088D01*
X60184252Y-134017439D01*
X59986860Y-134126534D01*
X59802924Y-134257043D01*
X59672767Y-134373359D01*
X59666723Y-134378760D01*
X59655846Y-134387448D01*
X59642274Y-134397111D01*
X59633299Y-134405870D01*
X59630380Y-134409765D01*
X59630379Y-134409766D01*
X59616580Y-134428178D01*
X59604849Y-134441708D01*
X56333108Y-137713448D01*
X56270796Y-137747474D01*
X56199980Y-137742409D01*
X56143145Y-137699862D01*
X56118334Y-137633342D01*
X56118370Y-137618373D01*
X56118261Y-137618370D01*
X56119140Y-137584797D01*
X56120608Y-137528730D01*
X56101794Y-137275564D01*
X56045767Y-137027959D01*
X56027484Y-136980944D01*
X55955452Y-136795713D01*
X55955451Y-136795710D01*
X55953757Y-136791355D01*
X55928486Y-136747139D01*
X55859533Y-136626499D01*
X55827785Y-136570951D01*
X55670620Y-136371587D01*
X55535949Y-136244901D01*
X55489113Y-136200842D01*
X55489110Y-136200840D01*
X55485712Y-136197643D01*
X55277125Y-136052941D01*
X55272642Y-136050730D01*
X55053629Y-135942725D01*
X55053626Y-135942724D01*
X55049441Y-135940660D01*
X55004797Y-135926369D01*
X54812107Y-135864688D01*
X54812109Y-135864688D01*
X54807662Y-135863265D01*
X54743035Y-135852740D01*
X54561710Y-135823210D01*
X54561709Y-135823210D01*
X54557098Y-135822459D01*
X54430177Y-135820797D01*
X54307933Y-135819197D01*
X54307930Y-135819197D01*
X54303256Y-135819136D01*
X54051710Y-135853370D01*
X54047224Y-135854678D01*
X54047222Y-135854678D01*
X54012879Y-135864688D01*
X53807988Y-135924408D01*
X53577442Y-136030691D01*
X53546658Y-136050874D01*
X53369052Y-136167317D01*
X53369047Y-136167321D01*
X53365139Y-136169883D01*
X53175742Y-136338927D01*
X53013411Y-136534108D01*
X52881713Y-136751140D01*
X52879904Y-136755454D01*
X52879903Y-136755456D01*
X52786435Y-136978353D01*
X52783541Y-136985254D01*
X52721051Y-137231307D01*
X52720583Y-137235958D01*
X52720582Y-137235962D01*
X52716126Y-137280216D01*
X52695617Y-137483894D01*
X52695841Y-137488559D01*
X52695841Y-137488565D01*
X52697127Y-137515315D01*
X52697423Y-137521484D01*
X52707797Y-137737466D01*
X52757323Y-137986453D01*
X52758901Y-137990848D01*
X52819632Y-138159997D01*
X52823826Y-138230870D01*
X52789037Y-138292759D01*
X52726311Y-138326015D01*
X52655563Y-138320080D01*
X52644695Y-138315273D01*
X48757913Y-136371884D01*
X48741245Y-136361872D01*
X48729037Y-136353191D01*
X48729032Y-136353188D01*
X48721720Y-136347989D01*
X48713243Y-136345051D01*
X48713237Y-136345048D01*
X48707304Y-136342992D01*
X48684256Y-136332292D01*
X48537015Y-136244901D01*
X48522132Y-136234551D01*
X48473168Y-136194984D01*
X48369312Y-136111061D01*
X48356070Y-136098684D01*
X48222547Y-135954538D01*
X48211216Y-135940388D01*
X48210424Y-135939237D01*
X48099757Y-135778569D01*
X48090576Y-135762940D01*
X48003497Y-135586812D01*
X47996654Y-135570031D01*
X47945779Y-135413988D01*
X47942296Y-135396979D01*
X47940269Y-135388361D01*
X47939474Y-135379420D01*
X47929048Y-135352791D01*
X47923769Y-135335899D01*
X47567399Y-133831509D01*
X47521421Y-133637418D01*
X47520836Y-133634827D01*
X47456871Y-133336844D01*
X47146417Y-131890599D01*
X47145887Y-131887992D01*
X47082878Y-131560907D01*
X46878505Y-130500000D01*
X51311325Y-130500000D01*
X51329991Y-130713357D01*
X51359994Y-130825328D01*
X51381449Y-130905399D01*
X51385423Y-130920232D01*
X51387745Y-130925212D01*
X51387746Y-130925214D01*
X51430081Y-131016000D01*
X51475936Y-131114337D01*
X51598780Y-131289777D01*
X51750223Y-131441220D01*
X51754731Y-131444377D01*
X51754734Y-131444379D01*
X51807187Y-131481107D01*
X51925662Y-131564064D01*
X51930644Y-131566387D01*
X51930649Y-131566390D01*
X52084866Y-131638302D01*
X52119768Y-131654577D01*
X52125076Y-131655999D01*
X52125078Y-131656000D01*
X52189740Y-131673326D01*
X52326643Y-131710009D01*
X52540000Y-131728675D01*
X52753357Y-131710009D01*
X52890260Y-131673326D01*
X52954922Y-131656000D01*
X52954924Y-131655999D01*
X52960232Y-131654577D01*
X52995134Y-131638302D01*
X53149351Y-131566390D01*
X53149356Y-131566387D01*
X53154338Y-131564064D01*
X53272813Y-131481107D01*
X53325266Y-131444379D01*
X53325269Y-131444377D01*
X53329777Y-131441220D01*
X53481220Y-131289777D01*
X53604064Y-131114337D01*
X53649920Y-131016000D01*
X53692254Y-130925214D01*
X53692255Y-130925212D01*
X53694577Y-130920232D01*
X53698552Y-130905399D01*
X53720006Y-130825328D01*
X53750009Y-130713357D01*
X53768675Y-130500000D01*
X53750009Y-130286643D01*
X53694577Y-130079768D01*
X53615994Y-129911246D01*
X53606387Y-129890644D01*
X53606385Y-129890641D01*
X53604064Y-129885663D01*
X53481220Y-129710223D01*
X53329777Y-129558780D01*
X53325269Y-129555623D01*
X53325266Y-129555621D01*
X53220531Y-129482285D01*
X53154338Y-129435936D01*
X53149356Y-129433613D01*
X53149351Y-129433610D01*
X52965214Y-129347746D01*
X52965213Y-129347745D01*
X52960232Y-129345423D01*
X52954924Y-129344001D01*
X52954922Y-129344000D01*
X52868226Y-129320770D01*
X52753357Y-129289991D01*
X52540000Y-129271325D01*
X52326643Y-129289991D01*
X52211774Y-129320770D01*
X52125078Y-129344000D01*
X52125076Y-129344001D01*
X52119768Y-129345423D01*
X52114788Y-129347745D01*
X52114786Y-129347746D01*
X51930644Y-129433613D01*
X51930641Y-129433615D01*
X51925663Y-129435936D01*
X51750223Y-129558780D01*
X51598780Y-129710223D01*
X51475936Y-129885663D01*
X51473615Y-129890641D01*
X51473613Y-129890644D01*
X51464006Y-129911246D01*
X51385423Y-130079768D01*
X51329991Y-130286643D01*
X51311325Y-130500000D01*
X46878505Y-130500000D01*
X46808442Y-130136302D01*
X46807967Y-130133685D01*
X46733891Y-129699969D01*
X46593759Y-128879504D01*
X46507636Y-128375255D01*
X46507215Y-128372624D01*
X46463002Y-128076109D01*
X46451654Y-128000000D01*
X48771325Y-128000000D01*
X48789991Y-128213357D01*
X48845423Y-128420232D01*
X48847745Y-128425212D01*
X48847746Y-128425214D01*
X48899006Y-128535140D01*
X48935936Y-128614337D01*
X49058780Y-128789777D01*
X49210223Y-128941220D01*
X49214731Y-128944377D01*
X49214734Y-128944379D01*
X49287649Y-128995434D01*
X49385662Y-129064064D01*
X49390644Y-129066387D01*
X49390649Y-129066390D01*
X49574786Y-129152254D01*
X49579768Y-129154577D01*
X49585076Y-129155999D01*
X49585078Y-129156000D01*
X49649740Y-129173326D01*
X49786643Y-129210009D01*
X50000000Y-129228675D01*
X50213357Y-129210009D01*
X50350260Y-129173326D01*
X50414922Y-129156000D01*
X50414924Y-129155999D01*
X50420232Y-129154577D01*
X50425214Y-129152254D01*
X50609351Y-129066390D01*
X50609356Y-129066387D01*
X50614338Y-129064064D01*
X50712351Y-128995434D01*
X50785266Y-128944379D01*
X50785269Y-128944377D01*
X50789777Y-128941220D01*
X50941220Y-128789777D01*
X51064064Y-128614337D01*
X51100995Y-128535140D01*
X51152254Y-128425214D01*
X51152255Y-128425212D01*
X51154577Y-128420232D01*
X51210009Y-128213357D01*
X51228675Y-128000000D01*
X51210009Y-127786643D01*
X51154577Y-127579768D01*
X51064064Y-127385663D01*
X50941220Y-127210223D01*
X50789777Y-127058780D01*
X50785269Y-127055623D01*
X50785266Y-127055621D01*
X50712351Y-127004566D01*
X50614338Y-126935936D01*
X50609356Y-126933613D01*
X50609351Y-126933610D01*
X50425214Y-126847746D01*
X50425213Y-126847745D01*
X50420232Y-126845423D01*
X50414924Y-126844001D01*
X50414922Y-126844000D01*
X50341710Y-126824383D01*
X50213357Y-126789991D01*
X50000000Y-126771325D01*
X49786643Y-126789991D01*
X49658290Y-126824383D01*
X49585078Y-126844000D01*
X49585076Y-126844001D01*
X49579768Y-126845423D01*
X49574788Y-126847745D01*
X49574786Y-126847746D01*
X49390644Y-126933613D01*
X49390641Y-126933615D01*
X49385663Y-126935936D01*
X49210223Y-127058780D01*
X49058780Y-127210223D01*
X48935936Y-127385663D01*
X48845423Y-127579768D01*
X48789991Y-127786643D01*
X48771325Y-128000000D01*
X46451654Y-128000000D01*
X46244121Y-126608171D01*
X46243761Y-126605567D01*
X46238065Y-126560907D01*
X46049135Y-125079768D01*
X46018039Y-124835986D01*
X46017730Y-124833340D01*
X45829479Y-123059434D01*
X45829225Y-123056782D01*
X45678516Y-121279204D01*
X45678319Y-121276547D01*
X45658559Y-120965469D01*
X46587095Y-120965469D01*
X46587392Y-120970622D01*
X46587392Y-120970625D01*
X46593067Y-121069041D01*
X46600427Y-121196697D01*
X46601564Y-121201743D01*
X46601565Y-121201749D01*
X46625297Y-121307054D01*
X46651346Y-121422642D01*
X46653288Y-121427424D01*
X46653289Y-121427428D01*
X46736254Y-121631745D01*
X46738484Y-121637237D01*
X46859501Y-121834719D01*
X47011147Y-122009784D01*
X47189349Y-122157730D01*
X47389322Y-122274584D01*
X47394147Y-122276426D01*
X47394148Y-122276427D01*
X47426780Y-122288888D01*
X47605694Y-122357209D01*
X47610760Y-122358240D01*
X47610761Y-122358240D01*
X47655794Y-122367402D01*
X47832656Y-122403385D01*
X47963324Y-122408176D01*
X48058949Y-122411683D01*
X48058953Y-122411683D01*
X48064113Y-122411872D01*
X48069233Y-122411216D01*
X48069235Y-122411216D01*
X48142270Y-122401860D01*
X48293847Y-122382442D01*
X48298795Y-122380957D01*
X48298802Y-122380956D01*
X48510747Y-122317369D01*
X48515690Y-122315886D01*
X48520324Y-122313616D01*
X48719049Y-122216262D01*
X48719052Y-122216260D01*
X48723684Y-122213991D01*
X48912243Y-122079494D01*
X49076303Y-121916005D01*
X49092641Y-121893269D01*
X49127996Y-121844066D01*
X49211458Y-121727917D01*
X49233293Y-121683738D01*
X49311784Y-121524922D01*
X49311785Y-121524920D01*
X49314078Y-121520280D01*
X49381408Y-121298671D01*
X49411640Y-121069041D01*
X49413327Y-121000000D01*
X49407032Y-120923434D01*
X49394773Y-120774318D01*
X49394772Y-120774312D01*
X49394349Y-120769167D01*
X49337925Y-120544533D01*
X49327293Y-120520080D01*
X49247630Y-120336868D01*
X49247628Y-120336865D01*
X49245570Y-120332131D01*
X49119764Y-120137665D01*
X48963887Y-119966358D01*
X48959836Y-119963159D01*
X48959832Y-119963155D01*
X48786177Y-119826011D01*
X48786172Y-119826008D01*
X48782123Y-119822810D01*
X48777607Y-119820317D01*
X48777604Y-119820315D01*
X48583879Y-119713373D01*
X48583875Y-119713371D01*
X48579355Y-119710876D01*
X48574486Y-119709152D01*
X48574482Y-119709150D01*
X48365903Y-119635288D01*
X48365899Y-119635287D01*
X48361028Y-119633562D01*
X48355935Y-119632655D01*
X48355932Y-119632654D01*
X48138095Y-119593851D01*
X48138089Y-119593850D01*
X48133006Y-119592945D01*
X48060096Y-119592054D01*
X47906581Y-119590179D01*
X47906579Y-119590179D01*
X47901411Y-119590116D01*
X47672464Y-119625150D01*
X47452314Y-119697106D01*
X47447726Y-119699494D01*
X47447722Y-119699496D01*
X47316832Y-119767633D01*
X47246872Y-119804052D01*
X47242739Y-119807155D01*
X47242736Y-119807157D01*
X47139364Y-119884771D01*
X47061655Y-119943117D01*
X47058083Y-119946855D01*
X46919544Y-120091828D01*
X46901639Y-120110564D01*
X46898725Y-120114836D01*
X46898724Y-120114837D01*
X46883152Y-120137665D01*
X46771119Y-120301899D01*
X46673602Y-120511981D01*
X46611707Y-120735169D01*
X46587095Y-120965469D01*
X45658559Y-120965469D01*
X45573419Y-119625150D01*
X45565227Y-119496178D01*
X45565087Y-119493523D01*
X45556340Y-119286809D01*
X45489668Y-117711234D01*
X45489584Y-117708604D01*
X45487074Y-117589888D01*
X45457935Y-116212072D01*
X47016500Y-116212072D01*
X47016837Y-116215318D01*
X47016837Y-116215322D01*
X47024219Y-116286465D01*
X47027293Y-116316093D01*
X47029474Y-116322629D01*
X47029474Y-116322631D01*
X47055301Y-116400044D01*
X47082346Y-116481107D01*
X47173884Y-116629031D01*
X47179066Y-116634204D01*
X47291816Y-116746758D01*
X47291821Y-116746762D01*
X47296997Y-116751929D01*
X47303227Y-116755769D01*
X47303228Y-116755770D01*
X47430217Y-116834047D01*
X47445080Y-116843209D01*
X47610191Y-116897974D01*
X47617027Y-116898674D01*
X47617030Y-116898675D01*
X47668526Y-116903951D01*
X47712928Y-116908500D01*
X48085406Y-116908500D01*
X48153527Y-116928502D01*
X48174501Y-116945405D01*
X49161343Y-117932247D01*
X49168887Y-117940537D01*
X49173000Y-117947018D01*
X49178777Y-117952443D01*
X49222667Y-117993658D01*
X49225509Y-117996413D01*
X49245231Y-118016135D01*
X49248355Y-118018558D01*
X49248359Y-118018562D01*
X49248424Y-118018612D01*
X49257445Y-118026317D01*
X49289679Y-118056586D01*
X49296627Y-118060405D01*
X49296629Y-118060407D01*
X49307432Y-118066346D01*
X49323959Y-118077202D01*
X49333698Y-118084757D01*
X49333700Y-118084758D01*
X49339960Y-118089614D01*
X49380540Y-118107174D01*
X49391188Y-118112391D01*
X49429940Y-118133695D01*
X49437616Y-118135666D01*
X49437619Y-118135667D01*
X49449562Y-118138733D01*
X49468267Y-118145137D01*
X49486855Y-118153181D01*
X49494678Y-118154420D01*
X49494688Y-118154423D01*
X49530524Y-118160099D01*
X49542144Y-118162505D01*
X49577289Y-118171528D01*
X49584970Y-118173500D01*
X49605224Y-118173500D01*
X49624934Y-118175051D01*
X49644943Y-118178220D01*
X49652835Y-118177474D01*
X49688961Y-118174059D01*
X49700819Y-118173500D01*
X49902685Y-118173500D01*
X49970806Y-118193502D01*
X50005898Y-118227230D01*
X50070699Y-118319776D01*
X50220224Y-118469301D01*
X50393442Y-118590589D01*
X50398420Y-118592910D01*
X50398423Y-118592912D01*
X50576780Y-118676081D01*
X50585090Y-118679956D01*
X50590398Y-118681378D01*
X50590400Y-118681379D01*
X50784030Y-118733262D01*
X50784032Y-118733262D01*
X50789345Y-118734686D01*
X51000000Y-118753116D01*
X51210655Y-118734686D01*
X51215968Y-118733262D01*
X51215970Y-118733262D01*
X51409600Y-118681379D01*
X51409602Y-118681378D01*
X51414910Y-118679956D01*
X51423220Y-118676081D01*
X51601577Y-118592912D01*
X51601580Y-118592910D01*
X51606558Y-118590589D01*
X51779776Y-118469301D01*
X51929301Y-118319776D01*
X52050589Y-118146558D01*
X52058369Y-118129875D01*
X52137633Y-117959892D01*
X52137634Y-117959891D01*
X52139956Y-117954910D01*
X52144355Y-117938495D01*
X52193262Y-117755970D01*
X52193262Y-117755968D01*
X52194686Y-117750655D01*
X52213116Y-117540000D01*
X52194686Y-117329345D01*
X52139956Y-117125090D01*
X52137633Y-117120108D01*
X52052912Y-116938423D01*
X52052910Y-116938420D01*
X52050589Y-116933442D01*
X51929301Y-116760224D01*
X51779776Y-116610699D01*
X51606558Y-116489411D01*
X51601580Y-116487090D01*
X51601577Y-116487088D01*
X51419892Y-116402367D01*
X51419891Y-116402366D01*
X51414910Y-116400044D01*
X51409602Y-116398622D01*
X51409600Y-116398621D01*
X51215970Y-116346738D01*
X51215968Y-116346738D01*
X51210655Y-116345314D01*
X51000000Y-116326884D01*
X50789345Y-116345314D01*
X50784032Y-116346738D01*
X50784030Y-116346738D01*
X50590400Y-116398621D01*
X50590398Y-116398622D01*
X50585090Y-116400044D01*
X50580109Y-116402366D01*
X50580108Y-116402367D01*
X50398423Y-116487088D01*
X50398420Y-116487090D01*
X50393442Y-116489411D01*
X50220224Y-116610699D01*
X50070699Y-116760224D01*
X50041936Y-116801302D01*
X50037572Y-116807535D01*
X49982115Y-116851863D01*
X49911495Y-116859172D01*
X49845263Y-116824359D01*
X49020404Y-115999499D01*
X48986379Y-115937187D01*
X48983500Y-115910404D01*
X48983500Y-115537928D01*
X48977837Y-115483350D01*
X48973419Y-115440765D01*
X48973418Y-115440761D01*
X48972707Y-115433907D01*
X48949324Y-115363818D01*
X48919972Y-115275841D01*
X48917654Y-115268893D01*
X48826116Y-115120969D01*
X48793859Y-115088769D01*
X48759780Y-115026488D01*
X48764782Y-114955668D01*
X48793704Y-114910578D01*
X48821363Y-114882871D01*
X48830375Y-114871460D01*
X48913912Y-114735937D01*
X48920056Y-114722759D01*
X48970315Y-114571234D01*
X48973181Y-114557868D01*
X48982672Y-114465230D01*
X48983000Y-114458815D01*
X48983000Y-114397115D01*
X48978525Y-114381876D01*
X48977135Y-114380671D01*
X48969452Y-114379000D01*
X47035115Y-114379000D01*
X47019876Y-114383475D01*
X47018671Y-114384865D01*
X47017000Y-114392548D01*
X47017000Y-114458766D01*
X47017337Y-114465282D01*
X47027075Y-114559132D01*
X47029968Y-114572528D01*
X47080488Y-114723953D01*
X47086653Y-114737115D01*
X47170426Y-114872492D01*
X47179464Y-114883895D01*
X47206140Y-114910525D01*
X47240219Y-114972807D01*
X47235216Y-115043627D01*
X47206295Y-115088715D01*
X47173071Y-115121997D01*
X47169231Y-115128227D01*
X47169230Y-115128228D01*
X47086364Y-115262662D01*
X47081791Y-115270080D01*
X47027026Y-115435191D01*
X47026326Y-115442027D01*
X47026325Y-115442030D01*
X47021598Y-115488167D01*
X47016500Y-115537928D01*
X47016500Y-116212072D01*
X45457935Y-116212072D01*
X45451865Y-115925057D01*
X45451837Y-115922393D01*
X45451837Y-114138495D01*
X45451865Y-114135831D01*
X45457849Y-113852885D01*
X47017000Y-113852885D01*
X47021475Y-113868124D01*
X47022865Y-113869329D01*
X47030548Y-113871000D01*
X47727885Y-113871000D01*
X47743124Y-113866525D01*
X47744329Y-113865135D01*
X47746000Y-113857452D01*
X47746000Y-113852885D01*
X48254000Y-113852885D01*
X48258475Y-113868124D01*
X48259865Y-113869329D01*
X48267548Y-113871000D01*
X48964885Y-113871000D01*
X48980124Y-113866525D01*
X48981329Y-113865135D01*
X48983000Y-113857452D01*
X48983000Y-113791234D01*
X48982663Y-113784718D01*
X48972925Y-113690868D01*
X48970032Y-113677472D01*
X48919512Y-113526047D01*
X48913347Y-113512885D01*
X48829574Y-113377508D01*
X48820540Y-113366110D01*
X48707871Y-113253637D01*
X48696460Y-113244625D01*
X48560937Y-113161088D01*
X48547759Y-113154944D01*
X48396234Y-113104685D01*
X48382868Y-113101819D01*
X48290230Y-113092328D01*
X48283815Y-113092000D01*
X48272115Y-113092000D01*
X48256876Y-113096475D01*
X48255671Y-113097865D01*
X48254000Y-113105548D01*
X48254000Y-113852885D01*
X47746000Y-113852885D01*
X47746000Y-113110115D01*
X47741525Y-113094876D01*
X47740135Y-113093671D01*
X47732452Y-113092000D01*
X47716234Y-113092000D01*
X47709718Y-113092337D01*
X47615868Y-113102075D01*
X47602472Y-113104968D01*
X47451047Y-113155488D01*
X47437885Y-113161653D01*
X47302508Y-113245426D01*
X47291110Y-113254460D01*
X47178637Y-113367129D01*
X47169625Y-113378540D01*
X47086088Y-113514063D01*
X47079944Y-113527241D01*
X47029685Y-113678766D01*
X47026819Y-113692132D01*
X47017328Y-113784770D01*
X47017000Y-113791185D01*
X47017000Y-113852885D01*
X45457849Y-113852885D01*
X45459289Y-113784770D01*
X45487306Y-112460000D01*
X49786884Y-112460000D01*
X49805314Y-112670655D01*
X49860044Y-112874910D01*
X49862366Y-112879891D01*
X49862367Y-112879892D01*
X49946358Y-113060010D01*
X49949411Y-113066558D01*
X50070699Y-113239776D01*
X50220224Y-113389301D01*
X50393442Y-113510589D01*
X50398420Y-113512910D01*
X50398423Y-113512912D01*
X50580108Y-113597633D01*
X50585090Y-113599956D01*
X50590398Y-113601378D01*
X50590400Y-113601379D01*
X50784030Y-113653262D01*
X50784032Y-113653262D01*
X50789345Y-113654686D01*
X51000000Y-113673116D01*
X51210655Y-113654686D01*
X51215968Y-113653262D01*
X51215970Y-113653262D01*
X51409600Y-113601379D01*
X51409602Y-113601378D01*
X51414910Y-113599956D01*
X51419892Y-113597633D01*
X51601577Y-113512912D01*
X51601580Y-113512910D01*
X51606558Y-113510589D01*
X51779776Y-113389301D01*
X51929301Y-113239776D01*
X51994102Y-113147230D01*
X52049559Y-113102901D01*
X52097315Y-113093500D01*
X53881482Y-113093500D01*
X53892665Y-113094027D01*
X53900158Y-113095702D01*
X53908084Y-113095453D01*
X53908085Y-113095453D01*
X53968235Y-113093562D01*
X53972194Y-113093500D01*
X54000105Y-113093500D01*
X54004040Y-113093003D01*
X54004105Y-113092995D01*
X54015942Y-113092062D01*
X54048200Y-113091048D01*
X54052219Y-113090922D01*
X54060138Y-113090673D01*
X54079592Y-113085021D01*
X54098949Y-113081013D01*
X54111179Y-113079468D01*
X54111180Y-113079468D01*
X54119046Y-113078474D01*
X54126417Y-113075555D01*
X54126419Y-113075555D01*
X54160161Y-113062196D01*
X54171391Y-113058351D01*
X54206232Y-113048229D01*
X54206233Y-113048229D01*
X54213842Y-113046018D01*
X54220661Y-113041985D01*
X54220666Y-113041983D01*
X54231277Y-113035707D01*
X54249025Y-113027012D01*
X54267866Y-113019552D01*
X54303636Y-112993564D01*
X54313556Y-112987048D01*
X54344784Y-112968580D01*
X54344787Y-112968578D01*
X54351611Y-112964542D01*
X54365932Y-112950221D01*
X54380966Y-112937380D01*
X54390943Y-112930131D01*
X54397356Y-112925472D01*
X54425547Y-112891395D01*
X54433537Y-112882616D01*
X59189753Y-108126401D01*
X59198039Y-108118861D01*
X59204518Y-108114749D01*
X59251144Y-108065097D01*
X59253898Y-108062256D01*
X59273635Y-108042519D01*
X59276115Y-108039322D01*
X59283820Y-108030300D01*
X59303743Y-108009084D01*
X59314086Y-107998070D01*
X59317905Y-107991124D01*
X59317907Y-107991121D01*
X59323848Y-107980315D01*
X59334699Y-107963796D01*
X59342258Y-107954050D01*
X59347114Y-107947790D01*
X59350259Y-107940521D01*
X59350262Y-107940517D01*
X59364674Y-107907212D01*
X59369891Y-107896562D01*
X59391195Y-107857809D01*
X59396233Y-107838186D01*
X59402637Y-107819483D01*
X59407533Y-107808169D01*
X59407533Y-107808168D01*
X59410681Y-107800894D01*
X59411920Y-107793071D01*
X59411923Y-107793061D01*
X59417599Y-107757225D01*
X59420005Y-107745605D01*
X59429028Y-107710460D01*
X59429028Y-107710459D01*
X59431000Y-107702779D01*
X59431000Y-107682525D01*
X59432551Y-107662814D01*
X59434480Y-107650635D01*
X59435720Y-107642806D01*
X59431559Y-107598787D01*
X59431000Y-107586930D01*
X59431000Y-103859066D01*
X59451002Y-103790945D01*
X59491165Y-103751633D01*
X59682702Y-103634259D01*
X59682708Y-103634255D01*
X59686916Y-103631676D01*
X59867469Y-103477469D01*
X60021676Y-103296916D01*
X60024255Y-103292708D01*
X60024259Y-103292702D01*
X60143154Y-103098683D01*
X60145740Y-103094463D01*
X60236605Y-102875094D01*
X60292035Y-102644211D01*
X60310665Y-102407500D01*
X64904335Y-102407500D01*
X64922965Y-102644211D01*
X64978395Y-102875094D01*
X65069260Y-103094463D01*
X65071846Y-103098683D01*
X65190741Y-103292702D01*
X65190745Y-103292708D01*
X65193324Y-103296916D01*
X65347531Y-103477469D01*
X65528084Y-103631676D01*
X65532292Y-103634255D01*
X65532298Y-103634259D01*
X65723835Y-103751633D01*
X65730537Y-103755740D01*
X65735107Y-103757633D01*
X65735111Y-103757635D01*
X65945333Y-103844711D01*
X65949906Y-103846605D01*
X65997849Y-103858115D01*
X66175976Y-103900880D01*
X66175982Y-103900881D01*
X66180789Y-103902035D01*
X66417500Y-103920665D01*
X66654211Y-103902035D01*
X66659018Y-103900881D01*
X66659024Y-103900880D01*
X66837151Y-103858115D01*
X66877451Y-103848440D01*
X66948358Y-103851987D01*
X66995960Y-103881864D01*
X67279042Y-104164947D01*
X67554296Y-104440201D01*
X67588321Y-104502513D01*
X67591200Y-104529296D01*
X67591200Y-121928207D01*
X67588968Y-121951816D01*
X67587425Y-121959906D01*
X67589608Y-121994600D01*
X67590951Y-122015951D01*
X67591200Y-122023862D01*
X67591200Y-122039856D01*
X67593206Y-122055730D01*
X67593949Y-122063598D01*
X67596397Y-122102508D01*
X67597475Y-122119650D01*
X67599925Y-122127191D01*
X67600021Y-122127487D01*
X67605194Y-122150631D01*
X67605232Y-122150935D01*
X67605233Y-122150940D01*
X67606226Y-122158797D01*
X67609142Y-122166162D01*
X67609143Y-122166166D01*
X67626899Y-122211011D01*
X67629571Y-122218430D01*
X67646936Y-122271875D01*
X67651186Y-122278571D01*
X67651186Y-122278572D01*
X67651350Y-122278831D01*
X67662115Y-122299958D01*
X67662229Y-122300246D01*
X67662232Y-122300251D01*
X67665148Y-122307617D01*
X67669804Y-122314025D01*
X67669807Y-122314031D01*
X67698158Y-122353052D01*
X67702601Y-122359589D01*
X67732700Y-122407018D01*
X67738478Y-122412444D01*
X67738479Y-122412445D01*
X67738707Y-122412659D01*
X67754388Y-122430446D01*
X67759228Y-122437107D01*
X67765337Y-122442161D01*
X67765338Y-122442162D01*
X67802496Y-122472903D01*
X67808430Y-122478134D01*
X67843598Y-122511158D01*
X67843601Y-122511160D01*
X67849379Y-122516586D01*
X67856603Y-122520558D01*
X67876206Y-122533881D01*
X67876446Y-122534080D01*
X67876453Y-122534084D01*
X67882556Y-122539133D01*
X67922100Y-122557741D01*
X67933376Y-122563047D01*
X67940408Y-122566629D01*
X67989640Y-122593695D01*
X67988722Y-122595365D01*
X68036623Y-122632737D01*
X68060102Y-122699738D01*
X68053147Y-122744661D01*
X68053349Y-122744709D01*
X68052749Y-122747233D01*
X68052251Y-122750449D01*
X68051522Y-122752395D01*
X68047895Y-122767649D01*
X68042369Y-122818514D01*
X68042000Y-122825328D01*
X68042000Y-122997885D01*
X68046475Y-123013124D01*
X68047865Y-123014329D01*
X68055548Y-123016000D01*
X69378000Y-123016000D01*
X69446121Y-123036002D01*
X69492614Y-123089658D01*
X69504000Y-123142000D01*
X69504000Y-124159884D01*
X69508475Y-124175123D01*
X69509865Y-124176328D01*
X69517548Y-124177999D01*
X69994669Y-124177999D01*
X70001490Y-124177629D01*
X70052352Y-124172105D01*
X70067604Y-124168479D01*
X70188054Y-124123324D01*
X70203649Y-124114786D01*
X70305724Y-124038285D01*
X70318285Y-124025724D01*
X70399001Y-123918025D01*
X70455860Y-123875510D01*
X70526679Y-123870484D01*
X70539494Y-123873997D01*
X70603766Y-123895315D01*
X70617132Y-123898181D01*
X70709770Y-123907672D01*
X70716185Y-123908000D01*
X70727885Y-123908000D01*
X70743124Y-123903525D01*
X70744329Y-123902135D01*
X70746000Y-123894452D01*
X70746000Y-123889885D01*
X71254000Y-123889885D01*
X71258475Y-123905124D01*
X71259865Y-123906329D01*
X71267548Y-123908000D01*
X71283766Y-123908000D01*
X71290282Y-123907663D01*
X71384132Y-123897925D01*
X71397528Y-123895032D01*
X71548953Y-123844512D01*
X71562115Y-123838347D01*
X71697492Y-123754574D01*
X71708890Y-123745540D01*
X71821363Y-123632871D01*
X71830375Y-123621460D01*
X71913912Y-123485937D01*
X71920056Y-123472759D01*
X71970315Y-123321234D01*
X71973181Y-123307868D01*
X71982672Y-123215230D01*
X71983000Y-123208815D01*
X71983000Y-123134615D01*
X71978525Y-123119376D01*
X71977135Y-123118171D01*
X71969452Y-123116500D01*
X71272115Y-123116500D01*
X71256876Y-123120975D01*
X71255671Y-123122365D01*
X71254000Y-123130048D01*
X71254000Y-123889885D01*
X70746000Y-123889885D01*
X70746000Y-122924669D01*
X75192001Y-122924669D01*
X75192371Y-122931490D01*
X75197895Y-122982352D01*
X75201521Y-122997604D01*
X75246676Y-123118054D01*
X75255214Y-123133649D01*
X75331715Y-123235724D01*
X75344276Y-123248285D01*
X75446351Y-123324786D01*
X75461946Y-123333324D01*
X75582394Y-123378478D01*
X75597649Y-123382105D01*
X75648514Y-123387631D01*
X75655328Y-123388000D01*
X76527885Y-123388000D01*
X76543124Y-123383525D01*
X76544329Y-123382135D01*
X76546000Y-123374452D01*
X76546000Y-123369884D01*
X77054000Y-123369884D01*
X77058475Y-123385123D01*
X77059865Y-123386328D01*
X77067548Y-123387999D01*
X77944669Y-123387999D01*
X77951490Y-123387629D01*
X78002352Y-123382105D01*
X78017604Y-123378479D01*
X78138054Y-123333324D01*
X78153649Y-123324786D01*
X78255724Y-123248285D01*
X78268285Y-123235724D01*
X78344786Y-123133649D01*
X78353324Y-123118054D01*
X78398478Y-122997606D01*
X78402105Y-122982351D01*
X78407631Y-122931486D01*
X78408000Y-122924672D01*
X78408000Y-122552115D01*
X78403525Y-122536876D01*
X78402135Y-122535671D01*
X78394452Y-122534000D01*
X77072115Y-122534000D01*
X77056876Y-122538475D01*
X77055671Y-122539865D01*
X77054000Y-122547548D01*
X77054000Y-123369884D01*
X76546000Y-123369884D01*
X76546000Y-122552115D01*
X76541525Y-122536876D01*
X76540135Y-122535671D01*
X76532452Y-122534000D01*
X75210116Y-122534000D01*
X75194877Y-122538475D01*
X75193672Y-122539865D01*
X75192001Y-122547548D01*
X75192001Y-122924669D01*
X70746000Y-122924669D01*
X70746000Y-122734500D01*
X70766002Y-122666379D01*
X70819658Y-122619886D01*
X70872000Y-122608500D01*
X71964885Y-122608500D01*
X71980124Y-122604025D01*
X71981329Y-122602635D01*
X71983000Y-122594952D01*
X71983000Y-122516234D01*
X71982663Y-122509718D01*
X71972925Y-122415868D01*
X71970032Y-122402472D01*
X71919512Y-122251047D01*
X71913347Y-122237885D01*
X71829574Y-122102508D01*
X71820536Y-122091106D01*
X71818861Y-122089433D01*
X71818081Y-122088007D01*
X71815993Y-122085373D01*
X71816444Y-122085016D01*
X71784781Y-122027151D01*
X71786142Y-122007885D01*
X75192000Y-122007885D01*
X75196475Y-122023124D01*
X75197865Y-122024329D01*
X75205548Y-122026000D01*
X76527885Y-122026000D01*
X76543124Y-122021525D01*
X76544329Y-122020135D01*
X76546000Y-122012452D01*
X76546000Y-122007885D01*
X77054000Y-122007885D01*
X77058475Y-122023124D01*
X77059865Y-122024329D01*
X77067548Y-122026000D01*
X78389884Y-122026000D01*
X78405123Y-122021525D01*
X78406328Y-122020135D01*
X78407999Y-122012452D01*
X78407999Y-121635331D01*
X78407629Y-121628510D01*
X78402105Y-121577648D01*
X78398479Y-121562396D01*
X78353324Y-121441946D01*
X78344786Y-121426351D01*
X78268285Y-121324276D01*
X78255724Y-121311715D01*
X78153649Y-121235214D01*
X78138054Y-121226676D01*
X78017606Y-121181522D01*
X78002351Y-121177895D01*
X77951486Y-121172369D01*
X77944672Y-121172000D01*
X77072115Y-121172000D01*
X77056876Y-121176475D01*
X77055671Y-121177865D01*
X77054000Y-121185548D01*
X77054000Y-122007885D01*
X76546000Y-122007885D01*
X76546000Y-121190116D01*
X76541525Y-121174877D01*
X76540135Y-121173672D01*
X76532452Y-121172001D01*
X75655331Y-121172001D01*
X75648510Y-121172371D01*
X75597648Y-121177895D01*
X75582396Y-121181521D01*
X75461946Y-121226676D01*
X75446351Y-121235214D01*
X75344276Y-121311715D01*
X75331715Y-121324276D01*
X75255214Y-121426351D01*
X75246676Y-121441946D01*
X75201522Y-121562394D01*
X75197895Y-121577649D01*
X75192369Y-121628514D01*
X75192000Y-121635328D01*
X75192000Y-122007885D01*
X71786142Y-122007885D01*
X71789784Y-121956331D01*
X71818701Y-121911246D01*
X71821756Y-121908185D01*
X71826929Y-121903003D01*
X71833116Y-121892966D01*
X71914369Y-121761150D01*
X71914370Y-121761148D01*
X71918209Y-121754920D01*
X71972974Y-121589809D01*
X71983500Y-121487072D01*
X71983500Y-120787928D01*
X71983049Y-120783582D01*
X71983094Y-120783342D01*
X71982995Y-120781438D01*
X71983449Y-120781415D01*
X71995922Y-120713763D01*
X72019283Y-120681498D01*
X74007629Y-118693152D01*
X74069941Y-118659126D01*
X74140756Y-118664191D01*
X74190359Y-118697935D01*
X74235947Y-118748566D01*
X74390448Y-118860818D01*
X74396476Y-118863502D01*
X74396478Y-118863503D01*
X74558881Y-118935809D01*
X74564912Y-118938494D01*
X74658313Y-118958347D01*
X74745256Y-118976828D01*
X74745261Y-118976828D01*
X74751713Y-118978200D01*
X74942687Y-118978200D01*
X74949139Y-118976828D01*
X74949144Y-118976828D01*
X75036087Y-118958347D01*
X75129488Y-118938494D01*
X75135519Y-118935809D01*
X75297922Y-118863503D01*
X75297924Y-118863502D01*
X75303952Y-118860818D01*
X75381850Y-118804222D01*
X75448716Y-118780364D01*
X75500138Y-118788176D01*
X75589684Y-118821745D01*
X75651866Y-118828500D01*
X77948134Y-118828500D01*
X78010316Y-118821745D01*
X78146705Y-118770615D01*
X78263261Y-118683261D01*
X78350615Y-118566705D01*
X78401745Y-118430316D01*
X78408500Y-118368134D01*
X78408500Y-117071866D01*
X78401745Y-117009684D01*
X78350615Y-116873295D01*
X78263261Y-116756739D01*
X78146705Y-116669385D01*
X78010316Y-116618255D01*
X77948134Y-116611500D01*
X76393471Y-116611500D01*
X76325350Y-116591498D01*
X76278857Y-116537842D01*
X76268753Y-116467568D01*
X76298247Y-116402988D01*
X76304376Y-116396405D01*
X80778576Y-111922205D01*
X80840888Y-111888179D01*
X80867671Y-111885300D01*
X85869313Y-111885300D01*
X85943372Y-111909363D01*
X85949802Y-111914035D01*
X85949809Y-111914039D01*
X85955148Y-111917918D01*
X85961176Y-111920602D01*
X85961178Y-111920603D01*
X86123581Y-111992909D01*
X86129612Y-111995594D01*
X86223012Y-112015447D01*
X86309956Y-112033928D01*
X86309961Y-112033928D01*
X86316413Y-112035300D01*
X86507387Y-112035300D01*
X86513839Y-112033928D01*
X86513844Y-112033928D01*
X86600788Y-112015447D01*
X86694188Y-111995594D01*
X86700219Y-111992909D01*
X86862622Y-111920603D01*
X86862624Y-111920602D01*
X86868652Y-111917918D01*
X86873997Y-111914035D01*
X86924057Y-111877664D01*
X87023153Y-111805666D01*
X87027575Y-111800755D01*
X87146521Y-111668652D01*
X87146522Y-111668651D01*
X87150940Y-111663744D01*
X87227754Y-111530699D01*
X87243123Y-111504079D01*
X87243124Y-111504078D01*
X87246427Y-111498356D01*
X87305442Y-111316728D01*
X87312733Y-111247363D01*
X87324714Y-111133365D01*
X87325404Y-111126800D01*
X87317816Y-111054601D01*
X87306132Y-110943435D01*
X87306132Y-110943433D01*
X87305442Y-110936872D01*
X87246427Y-110755244D01*
X87150940Y-110589856D01*
X87129457Y-110565996D01*
X87027575Y-110452845D01*
X87027574Y-110452844D01*
X87023153Y-110447934D01*
X86913547Y-110368300D01*
X86873994Y-110339563D01*
X86873993Y-110339562D01*
X86868652Y-110335682D01*
X86862624Y-110332998D01*
X86862622Y-110332997D01*
X86700219Y-110260691D01*
X86700218Y-110260691D01*
X86694188Y-110258006D01*
X86600787Y-110238153D01*
X86513844Y-110219672D01*
X86513839Y-110219672D01*
X86507387Y-110218300D01*
X86316413Y-110218300D01*
X86309961Y-110219672D01*
X86309956Y-110219672D01*
X86223013Y-110238153D01*
X86129612Y-110258006D01*
X86123582Y-110260691D01*
X86123581Y-110260691D01*
X85961178Y-110332997D01*
X85961176Y-110332998D01*
X85955148Y-110335682D01*
X85949809Y-110339561D01*
X85949802Y-110339565D01*
X85943372Y-110344237D01*
X85869313Y-110368300D01*
X80568370Y-110368300D01*
X80549420Y-110366867D01*
X80535185Y-110364701D01*
X80535181Y-110364701D01*
X80527951Y-110363601D01*
X80520659Y-110364194D01*
X80520656Y-110364194D01*
X80475282Y-110367885D01*
X80465067Y-110368300D01*
X80457007Y-110368300D01*
X80453373Y-110368724D01*
X80453367Y-110368724D01*
X80440342Y-110370243D01*
X80428780Y-110371591D01*
X80424432Y-110372021D01*
X80402359Y-110373816D01*
X80358962Y-110377346D01*
X80358959Y-110377347D01*
X80351664Y-110377940D01*
X80344700Y-110380196D01*
X80338761Y-110381383D01*
X80332890Y-110382770D01*
X80325619Y-110383618D01*
X80318743Y-110386114D01*
X80318734Y-110386116D01*
X80257002Y-110408525D01*
X80252898Y-110409935D01*
X80183401Y-110432448D01*
X80177146Y-110436244D01*
X80171687Y-110438743D01*
X80166239Y-110441471D01*
X80159363Y-110443967D01*
X80098310Y-110483995D01*
X80094637Y-110486313D01*
X80032193Y-110524205D01*
X80023817Y-110531602D01*
X80023793Y-110531575D01*
X80020799Y-110534230D01*
X80017568Y-110536932D01*
X80011448Y-110540944D01*
X80006416Y-110546256D01*
X79958172Y-110597183D01*
X79955794Y-110599625D01*
X70620824Y-119934595D01*
X70558512Y-119968621D01*
X70531729Y-119971500D01*
X70361589Y-119971500D01*
X70293468Y-119951498D01*
X70286024Y-119946326D01*
X70270371Y-119934595D01*
X70196705Y-119879385D01*
X70060316Y-119828255D01*
X69998134Y-119821500D01*
X68984200Y-119821500D01*
X68916079Y-119801498D01*
X68869586Y-119747842D01*
X68858200Y-119695500D01*
X68858200Y-108955151D01*
X73447296Y-108955151D01*
X73447520Y-108959817D01*
X73447520Y-108959822D01*
X73450066Y-109012811D01*
X73459480Y-109208798D01*
X73481864Y-109321328D01*
X73505691Y-109441115D01*
X73509021Y-109457857D01*
X73510600Y-109462255D01*
X73510602Y-109462262D01*
X73574927Y-109641421D01*
X73594831Y-109696858D01*
X73597048Y-109700984D01*
X73654112Y-109807185D01*
X73715025Y-109920551D01*
X73717820Y-109924294D01*
X73717822Y-109924297D01*
X73864171Y-110120282D01*
X73864176Y-110120288D01*
X73866963Y-110124020D01*
X73870272Y-110127300D01*
X73870277Y-110127306D01*
X73968859Y-110225031D01*
X74047307Y-110302797D01*
X74051069Y-110305555D01*
X74051072Y-110305558D01*
X74203366Y-110417224D01*
X74252094Y-110452953D01*
X74256229Y-110455129D01*
X74256233Y-110455131D01*
X74368610Y-110514255D01*
X74476827Y-110571191D01*
X74549178Y-110596457D01*
X74673483Y-110639866D01*
X74716568Y-110654912D01*
X74966050Y-110702278D01*
X75086532Y-110707011D01*
X75215125Y-110712064D01*
X75215130Y-110712064D01*
X75219793Y-110712247D01*
X75325239Y-110700699D01*
X75467569Y-110685112D01*
X75467575Y-110685111D01*
X75472222Y-110684602D01*
X75581680Y-110655784D01*
X75713273Y-110621138D01*
X75717793Y-110619948D01*
X75846378Y-110564704D01*
X75946807Y-110521557D01*
X75946810Y-110521555D01*
X75951110Y-110519708D01*
X75955090Y-110517245D01*
X75955094Y-110517243D01*
X76163064Y-110388547D01*
X76163066Y-110388545D01*
X76167047Y-110386082D01*
X76176665Y-110377940D01*
X76357289Y-110225031D01*
X76357291Y-110225029D01*
X76360862Y-110222006D01*
X76528295Y-110031084D01*
X76665669Y-109817512D01*
X76769967Y-109585980D01*
X76822945Y-109398134D01*
X78061500Y-109398134D01*
X78068255Y-109460316D01*
X78119385Y-109596705D01*
X78206739Y-109713261D01*
X78323295Y-109800615D01*
X78459684Y-109851745D01*
X78521866Y-109858500D01*
X80318134Y-109858500D01*
X80380316Y-109851745D01*
X80516705Y-109800615D01*
X80633261Y-109713261D01*
X80720615Y-109596705D01*
X80751192Y-109515142D01*
X80764598Y-109479382D01*
X80807240Y-109422618D01*
X80873802Y-109397918D01*
X80943150Y-109413126D01*
X80977817Y-109441114D01*
X81006250Y-109473938D01*
X81178126Y-109616632D01*
X81371000Y-109729338D01*
X81579692Y-109809030D01*
X81584760Y-109810061D01*
X81584763Y-109810062D01*
X81692017Y-109831883D01*
X81798597Y-109853567D01*
X81803772Y-109853757D01*
X81803774Y-109853757D01*
X82016673Y-109861564D01*
X82016677Y-109861564D01*
X82021837Y-109861753D01*
X82026957Y-109861097D01*
X82026959Y-109861097D01*
X82238288Y-109834025D01*
X82238289Y-109834025D01*
X82243416Y-109833368D01*
X82248366Y-109831883D01*
X82452429Y-109770661D01*
X82452434Y-109770659D01*
X82457384Y-109769174D01*
X82657994Y-109670896D01*
X82839860Y-109541173D01*
X82998096Y-109383489D01*
X83123624Y-109208798D01*
X83128453Y-109202077D01*
X83129776Y-109203028D01*
X83176645Y-109159857D01*
X83246580Y-109147625D01*
X83312026Y-109175144D01*
X83339875Y-109206994D01*
X83343792Y-109213386D01*
X83399987Y-109305088D01*
X83546250Y-109473938D01*
X83718126Y-109616632D01*
X83911000Y-109729338D01*
X84119692Y-109809030D01*
X84124760Y-109810061D01*
X84124763Y-109810062D01*
X84232017Y-109831883D01*
X84338597Y-109853567D01*
X84343772Y-109853757D01*
X84343774Y-109853757D01*
X84556673Y-109861564D01*
X84556677Y-109861564D01*
X84561837Y-109861753D01*
X84566957Y-109861097D01*
X84566959Y-109861097D01*
X84778288Y-109834025D01*
X84778289Y-109834025D01*
X84783416Y-109833368D01*
X84788366Y-109831883D01*
X84992429Y-109770661D01*
X84992434Y-109770659D01*
X84997384Y-109769174D01*
X85197994Y-109670896D01*
X85379860Y-109541173D01*
X85505306Y-109416165D01*
X100765926Y-109416165D01*
X100766576Y-109426787D01*
X100798492Y-109644239D01*
X100800921Y-109654596D01*
X100869018Y-109863560D01*
X100873163Y-109873370D01*
X100975494Y-110067871D01*
X100981224Y-110076831D01*
X100990681Y-110089177D01*
X101002251Y-110097640D01*
X101014259Y-110090997D01*
X101860211Y-109245045D01*
X101867825Y-109231101D01*
X101867694Y-109229268D01*
X101863443Y-109222653D01*
X101107957Y-108467167D01*
X101094526Y-108459833D01*
X101084668Y-108466775D01*
X101017290Y-108546648D01*
X101011137Y-108555337D01*
X100899753Y-108744808D01*
X100895161Y-108754391D01*
X100817289Y-108959931D01*
X100814378Y-108970150D01*
X100772250Y-109185870D01*
X100771102Y-109196439D01*
X100765926Y-109416165D01*
X85505306Y-109416165D01*
X85538096Y-109383489D01*
X85668453Y-109202077D01*
X85671240Y-109196439D01*
X85765136Y-109006453D01*
X85765137Y-109006451D01*
X85767430Y-109001811D01*
X85799900Y-108894940D01*
X85830865Y-108793023D01*
X85830865Y-108793021D01*
X85832370Y-108788069D01*
X85861529Y-108566590D01*
X85861804Y-108555337D01*
X85863074Y-108503365D01*
X85863074Y-108503361D01*
X85863156Y-108500000D01*
X85844852Y-108277361D01*
X85790431Y-108060702D01*
X85701354Y-107855840D01*
X85609486Y-107713833D01*
X85582822Y-107672617D01*
X85582820Y-107672614D01*
X85580014Y-107668277D01*
X85429670Y-107503051D01*
X85425619Y-107499852D01*
X85425615Y-107499848D01*
X85258414Y-107367800D01*
X85258410Y-107367798D01*
X85254359Y-107364598D01*
X85058789Y-107256638D01*
X85053920Y-107254914D01*
X85053916Y-107254912D01*
X84853087Y-107183795D01*
X84853083Y-107183794D01*
X84848212Y-107182069D01*
X84843119Y-107181162D01*
X84843116Y-107181161D01*
X84633373Y-107143800D01*
X84633367Y-107143799D01*
X84628284Y-107142894D01*
X84554452Y-107141992D01*
X84410081Y-107140228D01*
X84410079Y-107140228D01*
X84404911Y-107140165D01*
X84184091Y-107173955D01*
X83971756Y-107243357D01*
X83941443Y-107259137D01*
X83814044Y-107325457D01*
X83773607Y-107346507D01*
X83769474Y-107349610D01*
X83769471Y-107349612D01*
X83599100Y-107477530D01*
X83594965Y-107480635D01*
X83591393Y-107484373D01*
X83483729Y-107597037D01*
X83440629Y-107642138D01*
X83333201Y-107799621D01*
X83278293Y-107844621D01*
X83207768Y-107852792D01*
X83144021Y-107821538D01*
X83123324Y-107797054D01*
X83042822Y-107672617D01*
X83042820Y-107672614D01*
X83040014Y-107668277D01*
X82889670Y-107503051D01*
X82885619Y-107499852D01*
X82885615Y-107499848D01*
X82718414Y-107367800D01*
X82718410Y-107367798D01*
X82714359Y-107364598D01*
X82518789Y-107256638D01*
X82513920Y-107254914D01*
X82513916Y-107254912D01*
X82313087Y-107183795D01*
X82313083Y-107183794D01*
X82308212Y-107182069D01*
X82303119Y-107181162D01*
X82303116Y-107181161D01*
X82093373Y-107143800D01*
X82093367Y-107143799D01*
X82088284Y-107142894D01*
X82014452Y-107141992D01*
X81870081Y-107140228D01*
X81870079Y-107140228D01*
X81864911Y-107140165D01*
X81644091Y-107173955D01*
X81431756Y-107243357D01*
X81401443Y-107259137D01*
X81274044Y-107325457D01*
X81233607Y-107346507D01*
X81229474Y-107349610D01*
X81229471Y-107349612D01*
X81059100Y-107477530D01*
X81054965Y-107480635D01*
X80998537Y-107539684D01*
X80974283Y-107565064D01*
X80912759Y-107600494D01*
X80841846Y-107597037D01*
X80784060Y-107555791D01*
X80765207Y-107522243D01*
X80723767Y-107411703D01*
X80720615Y-107403295D01*
X80633261Y-107286739D01*
X80516705Y-107199385D01*
X80380316Y-107148255D01*
X80318134Y-107141500D01*
X78521866Y-107141500D01*
X78459684Y-107148255D01*
X78323295Y-107199385D01*
X78206739Y-107286739D01*
X78119385Y-107403295D01*
X78068255Y-107539684D01*
X78061500Y-107601866D01*
X78061500Y-109398134D01*
X76822945Y-109398134D01*
X76838896Y-109341575D01*
X76856108Y-109206277D01*
X76870545Y-109092798D01*
X76870545Y-109092792D01*
X76870943Y-109089667D01*
X76873291Y-109000000D01*
X76857161Y-108782939D01*
X76854818Y-108751411D01*
X76854817Y-108751407D01*
X76854472Y-108746759D01*
X76853034Y-108740400D01*
X76802515Y-108517146D01*
X76798428Y-108499082D01*
X76706391Y-108262409D01*
X76685866Y-108226498D01*
X76582702Y-108045997D01*
X76582700Y-108045995D01*
X76580383Y-108041940D01*
X76423171Y-107842517D01*
X76339625Y-107763925D01*
X76241610Y-107671722D01*
X76241608Y-107671720D01*
X76238209Y-107668523D01*
X76187205Y-107633140D01*
X76033393Y-107526437D01*
X76033390Y-107526435D01*
X76029561Y-107523779D01*
X76025384Y-107521719D01*
X76025377Y-107521715D01*
X75805996Y-107413528D01*
X75805992Y-107413527D01*
X75801810Y-107411464D01*
X75559960Y-107334047D01*
X75555355Y-107333297D01*
X75313935Y-107293980D01*
X75313934Y-107293980D01*
X75309323Y-107293229D01*
X75182364Y-107291567D01*
X75060083Y-107289966D01*
X75060080Y-107289966D01*
X75055406Y-107289905D01*
X74803787Y-107324149D01*
X74559993Y-107395208D01*
X74555740Y-107397168D01*
X74555739Y-107397169D01*
X74520254Y-107413528D01*
X74329380Y-107501522D01*
X74325471Y-107504085D01*
X74120928Y-107638189D01*
X74120923Y-107638193D01*
X74117015Y-107640755D01*
X74081328Y-107672607D01*
X73939024Y-107799618D01*
X73927562Y-107809848D01*
X73765183Y-108005087D01*
X73633447Y-108222182D01*
X73631638Y-108226496D01*
X73631637Y-108226498D01*
X73610309Y-108277361D01*
X73535246Y-108456365D01*
X73534095Y-108460897D01*
X73534094Y-108460900D01*
X73514017Y-108539953D01*
X73472738Y-108702490D01*
X73447296Y-108955151D01*
X68858200Y-108955151D01*
X68858200Y-105966362D01*
X93583609Y-105966362D01*
X93583906Y-105971514D01*
X93583906Y-105971518D01*
X93589618Y-106070578D01*
X93596597Y-106191614D01*
X93597734Y-106196660D01*
X93597735Y-106196666D01*
X93618984Y-106290952D01*
X93646200Y-106411720D01*
X93648142Y-106416502D01*
X93648143Y-106416506D01*
X93684822Y-106506835D01*
X93731086Y-106620769D01*
X93848975Y-106813147D01*
X93996702Y-106983687D01*
X94170299Y-107127810D01*
X94174751Y-107130412D01*
X94174756Y-107130415D01*
X94324018Y-107217637D01*
X94365103Y-107241645D01*
X94575884Y-107322134D01*
X94580952Y-107323165D01*
X94580955Y-107323166D01*
X94683938Y-107344118D01*
X94796981Y-107367117D01*
X94802156Y-107367307D01*
X94802158Y-107367307D01*
X95017292Y-107375196D01*
X95017296Y-107375196D01*
X95022456Y-107375385D01*
X95027576Y-107374729D01*
X95027578Y-107374729D01*
X95126154Y-107362101D01*
X95246253Y-107346716D01*
X95251202Y-107345231D01*
X95251208Y-107345230D01*
X95457413Y-107283365D01*
X95457412Y-107283365D01*
X95462363Y-107281880D01*
X95572150Y-107228096D01*
X95660331Y-107184897D01*
X95660336Y-107184894D01*
X95664982Y-107182618D01*
X95669192Y-107179615D01*
X95669197Y-107179612D01*
X95844455Y-107054601D01*
X95844459Y-107054597D01*
X95848667Y-107051596D01*
X96008487Y-106892333D01*
X96140150Y-106709105D01*
X96240118Y-106506835D01*
X96305708Y-106290952D01*
X96335158Y-106067256D01*
X96336802Y-106000000D01*
X96318315Y-105775132D01*
X96263349Y-105556304D01*
X96173380Y-105349391D01*
X96132973Y-105286931D01*
X96053634Y-105164291D01*
X96053632Y-105164288D01*
X96050826Y-105159951D01*
X95898977Y-104993071D01*
X95894926Y-104989872D01*
X95894922Y-104989868D01*
X95725966Y-104856434D01*
X95725962Y-104856432D01*
X95721911Y-104853232D01*
X95524383Y-104744191D01*
X95311698Y-104668876D01*
X95261297Y-104659898D01*
X95094657Y-104630214D01*
X95094653Y-104630214D01*
X95089569Y-104629308D01*
X95017574Y-104628429D01*
X94869129Y-104626615D01*
X94869127Y-104626615D01*
X94863959Y-104626552D01*
X94640929Y-104660680D01*
X94426468Y-104730777D01*
X94226335Y-104834960D01*
X94222202Y-104838063D01*
X94222199Y-104838065D01*
X94197734Y-104856434D01*
X94045905Y-104970430D01*
X93890024Y-105133550D01*
X93762878Y-105319940D01*
X93760704Y-105324624D01*
X93760702Y-105324627D01*
X93751226Y-105345043D01*
X93667881Y-105524593D01*
X93607585Y-105742013D01*
X93583609Y-105966362D01*
X68858200Y-105966362D01*
X68858200Y-104293468D01*
X68858727Y-104282285D01*
X68860402Y-104274792D01*
X68858262Y-104206701D01*
X68858200Y-104202744D01*
X68858200Y-104174844D01*
X68857696Y-104170853D01*
X68856763Y-104159011D01*
X68855623Y-104122736D01*
X68855374Y-104114811D01*
X68853162Y-104107197D01*
X68853161Y-104107192D01*
X68849723Y-104095359D01*
X68845713Y-104075998D01*
X68843413Y-104057794D01*
X68854718Y-103987703D01*
X68902123Y-103934851D01*
X68968419Y-103916000D01*
X70005634Y-103916000D01*
X70067816Y-103909245D01*
X70204205Y-103858115D01*
X70320761Y-103770761D01*
X70408115Y-103654205D01*
X70459245Y-103517816D01*
X70466000Y-103455634D01*
X70466000Y-101359366D01*
X70459245Y-101297184D01*
X70408115Y-101160795D01*
X70320761Y-101044239D01*
X70204205Y-100956885D01*
X70067816Y-100905755D01*
X70005634Y-100899000D01*
X67909366Y-100899000D01*
X67847184Y-100905755D01*
X67710795Y-100956885D01*
X67594239Y-101044239D01*
X67506885Y-101160795D01*
X67506825Y-101160750D01*
X67459948Y-101207518D01*
X67390556Y-101222528D01*
X67324065Y-101197640D01*
X67317861Y-101192671D01*
X67310682Y-101186540D01*
X67310678Y-101186537D01*
X67306916Y-101183324D01*
X67302708Y-101180745D01*
X67302702Y-101180741D01*
X67108683Y-101061846D01*
X67104463Y-101059260D01*
X67099893Y-101057367D01*
X67099889Y-101057365D01*
X66889667Y-100970289D01*
X66889665Y-100970288D01*
X66885094Y-100968395D01*
X66804891Y-100949140D01*
X66659024Y-100914120D01*
X66659018Y-100914119D01*
X66654211Y-100912965D01*
X66417500Y-100894335D01*
X66180789Y-100912965D01*
X66175982Y-100914119D01*
X66175976Y-100914120D01*
X66030109Y-100949140D01*
X65949906Y-100968395D01*
X65945335Y-100970288D01*
X65945333Y-100970289D01*
X65735111Y-101057365D01*
X65735107Y-101057367D01*
X65730537Y-101059260D01*
X65726317Y-101061846D01*
X65532298Y-101180741D01*
X65532292Y-101180745D01*
X65528084Y-101183324D01*
X65347531Y-101337531D01*
X65193324Y-101518084D01*
X65190745Y-101522292D01*
X65190741Y-101522298D01*
X65089037Y-101688264D01*
X65069260Y-101720537D01*
X64978395Y-101939906D01*
X64977240Y-101944718D01*
X64933957Y-102125005D01*
X64922965Y-102170789D01*
X64904335Y-102407500D01*
X60310665Y-102407500D01*
X60292035Y-102170789D01*
X60281044Y-102125005D01*
X60237760Y-101944718D01*
X60236605Y-101939906D01*
X60145740Y-101720537D01*
X60125963Y-101688264D01*
X60024259Y-101522298D01*
X60024255Y-101522292D01*
X60021676Y-101518084D01*
X59867469Y-101337531D01*
X59686916Y-101183324D01*
X59682708Y-101180745D01*
X59682702Y-101180741D01*
X59488683Y-101061846D01*
X59484463Y-101059260D01*
X59479893Y-101057367D01*
X59479889Y-101057365D01*
X59269667Y-100970289D01*
X59269665Y-100970288D01*
X59265094Y-100968395D01*
X59184891Y-100949140D01*
X59039024Y-100914120D01*
X59039018Y-100914119D01*
X59034211Y-100912965D01*
X58797500Y-100894335D01*
X58560789Y-100912965D01*
X58555982Y-100914119D01*
X58555976Y-100914120D01*
X58410109Y-100949140D01*
X58329906Y-100968395D01*
X58325335Y-100970288D01*
X58325333Y-100970289D01*
X58115111Y-101057365D01*
X58115107Y-101057367D01*
X58110537Y-101059260D01*
X58106317Y-101061846D01*
X57912298Y-101180741D01*
X57912292Y-101180745D01*
X57908084Y-101183324D01*
X57727531Y-101337531D01*
X57573324Y-101518084D01*
X57570745Y-101522292D01*
X57570741Y-101522298D01*
X57469037Y-101688264D01*
X57449260Y-101720537D01*
X57358395Y-101939906D01*
X57357240Y-101944718D01*
X57313957Y-102125005D01*
X57302965Y-102170789D01*
X57284335Y-102407500D01*
X57302965Y-102644211D01*
X57358395Y-102875094D01*
X57449260Y-103094463D01*
X57451846Y-103098683D01*
X57570741Y-103292702D01*
X57570745Y-103292708D01*
X57573324Y-103296916D01*
X57727531Y-103477469D01*
X57908084Y-103631676D01*
X57912292Y-103634255D01*
X57912298Y-103634259D01*
X58103835Y-103751633D01*
X58151466Y-103804281D01*
X58164000Y-103859066D01*
X58164000Y-107308155D01*
X58143998Y-107376276D01*
X58127095Y-107397250D01*
X56740895Y-108783450D01*
X56678583Y-108817476D01*
X56607768Y-108812411D01*
X56550932Y-108769864D01*
X56528907Y-108722163D01*
X56482515Y-108517146D01*
X56478428Y-108499082D01*
X56386391Y-108262409D01*
X56365866Y-108226498D01*
X56262702Y-108045997D01*
X56262700Y-108045995D01*
X56260383Y-108041940D01*
X56103171Y-107842517D01*
X56019625Y-107763925D01*
X55921610Y-107671722D01*
X55921608Y-107671720D01*
X55918209Y-107668523D01*
X55755706Y-107555791D01*
X55713397Y-107526440D01*
X55713392Y-107526437D01*
X55709561Y-107523779D01*
X55703768Y-107520922D01*
X55703305Y-107520496D01*
X55701344Y-107519341D01*
X55701592Y-107518920D01*
X55651521Y-107472853D01*
X55633500Y-107407918D01*
X55633500Y-107296217D01*
X55653502Y-107228096D01*
X55696991Y-107189376D01*
X55695897Y-107187541D01*
X55700342Y-107184891D01*
X55704982Y-107182618D01*
X55778163Y-107130418D01*
X55884455Y-107054601D01*
X55884459Y-107054597D01*
X55888667Y-107051596D01*
X56048487Y-106892333D01*
X56180150Y-106709105D01*
X56280118Y-106506835D01*
X56345708Y-106290952D01*
X56375158Y-106067256D01*
X56376802Y-106000000D01*
X56358315Y-105775132D01*
X56303349Y-105556304D01*
X56213380Y-105349391D01*
X56172973Y-105286931D01*
X56093634Y-105164291D01*
X56093632Y-105164288D01*
X56090826Y-105159951D01*
X55938977Y-104993071D01*
X55934926Y-104989872D01*
X55934922Y-104989868D01*
X55765966Y-104856434D01*
X55765962Y-104856432D01*
X55761911Y-104853232D01*
X55564383Y-104744191D01*
X55351698Y-104668876D01*
X55301297Y-104659898D01*
X55134657Y-104630214D01*
X55134653Y-104630214D01*
X55129569Y-104629308D01*
X55057574Y-104628429D01*
X54909129Y-104626615D01*
X54909127Y-104626615D01*
X54903959Y-104626552D01*
X54680929Y-104660680D01*
X54466468Y-104730777D01*
X54266335Y-104834960D01*
X54262202Y-104838063D01*
X54262199Y-104838065D01*
X54237734Y-104856434D01*
X54085905Y-104970430D01*
X53930024Y-105133550D01*
X53802878Y-105319940D01*
X53800704Y-105324624D01*
X53800702Y-105324627D01*
X53791226Y-105345043D01*
X53707881Y-105524593D01*
X53647585Y-105742013D01*
X53623609Y-105966362D01*
X53623906Y-105971514D01*
X53623906Y-105971518D01*
X53629618Y-106070578D01*
X53636597Y-106191614D01*
X53637734Y-106196660D01*
X53637735Y-106196666D01*
X53658984Y-106290952D01*
X53686200Y-106411720D01*
X53688142Y-106416502D01*
X53688143Y-106416506D01*
X53724822Y-106506835D01*
X53771086Y-106620769D01*
X53888975Y-106813147D01*
X54036702Y-106983687D01*
X54210299Y-107127810D01*
X54214756Y-107130414D01*
X54214761Y-107130418D01*
X54272584Y-107164207D01*
X54321308Y-107215846D01*
X54334379Y-107285629D01*
X54307648Y-107351401D01*
X54248445Y-107391157D01*
X54248859Y-107392264D01*
X54244491Y-107393897D01*
X54239993Y-107395208D01*
X54235740Y-107397168D01*
X54235739Y-107397169D01*
X54200254Y-107413528D01*
X54009380Y-107501522D01*
X54005471Y-107504085D01*
X53800928Y-107638189D01*
X53800923Y-107638193D01*
X53797015Y-107640755D01*
X53761328Y-107672607D01*
X53619024Y-107799618D01*
X53607562Y-107809848D01*
X53445183Y-108005087D01*
X53313447Y-108222182D01*
X53311638Y-108226496D01*
X53311637Y-108226498D01*
X53290309Y-108277361D01*
X53215246Y-108456365D01*
X53214095Y-108460897D01*
X53214094Y-108460900D01*
X53194017Y-108539953D01*
X53152738Y-108702490D01*
X53127296Y-108955151D01*
X53127520Y-108959817D01*
X53127520Y-108959822D01*
X53130066Y-109012811D01*
X53139480Y-109208798D01*
X53161864Y-109321328D01*
X53185691Y-109441115D01*
X53189021Y-109457857D01*
X53190600Y-109462255D01*
X53190602Y-109462262D01*
X53254927Y-109641421D01*
X53274831Y-109696858D01*
X53277048Y-109700984D01*
X53334112Y-109807185D01*
X53395025Y-109920551D01*
X53397820Y-109924294D01*
X53397822Y-109924297D01*
X53544171Y-110120282D01*
X53544176Y-110120288D01*
X53546963Y-110124020D01*
X53550272Y-110127300D01*
X53550277Y-110127306D01*
X53648859Y-110225031D01*
X53727307Y-110302797D01*
X53731069Y-110305555D01*
X53731072Y-110305558D01*
X53883366Y-110417224D01*
X53932094Y-110452953D01*
X53936229Y-110455129D01*
X53936233Y-110455131D01*
X54048610Y-110514255D01*
X54156827Y-110571191D01*
X54229178Y-110596457D01*
X54353483Y-110639866D01*
X54396568Y-110654912D01*
X54401161Y-110655784D01*
X54559938Y-110685929D01*
X54623133Y-110718287D01*
X54658801Y-110779673D01*
X54655620Y-110850598D01*
X54625531Y-110898813D01*
X53734749Y-111789595D01*
X53672437Y-111823621D01*
X53645654Y-111826500D01*
X52097315Y-111826500D01*
X52029194Y-111806498D01*
X51994102Y-111772770D01*
X51932460Y-111684736D01*
X51929301Y-111680224D01*
X51779776Y-111530699D01*
X51606558Y-111409411D01*
X51601580Y-111407090D01*
X51601577Y-111407088D01*
X51419892Y-111322367D01*
X51419891Y-111322366D01*
X51414910Y-111320044D01*
X51409602Y-111318622D01*
X51409600Y-111318621D01*
X51215970Y-111266738D01*
X51215968Y-111266738D01*
X51210655Y-111265314D01*
X51000000Y-111246884D01*
X50789345Y-111265314D01*
X50784032Y-111266738D01*
X50784030Y-111266738D01*
X50590400Y-111318621D01*
X50590398Y-111318622D01*
X50585090Y-111320044D01*
X50580109Y-111322366D01*
X50580108Y-111322367D01*
X50398423Y-111407088D01*
X50398420Y-111407090D01*
X50393442Y-111409411D01*
X50220224Y-111530699D01*
X50070699Y-111680224D01*
X49949411Y-111853442D01*
X49947090Y-111858420D01*
X49947088Y-111858423D01*
X49865249Y-112033928D01*
X49860044Y-112045090D01*
X49805314Y-112249345D01*
X49786884Y-112460000D01*
X45487306Y-112460000D01*
X45489585Y-112352253D01*
X45489669Y-112349621D01*
X45493681Y-112254825D01*
X45565087Y-110567358D01*
X45565227Y-110564704D01*
X45572333Y-110452845D01*
X45587723Y-110210559D01*
X45590845Y-110161406D01*
X47203423Y-110161406D01*
X47208704Y-110168461D01*
X47385080Y-110271527D01*
X47394363Y-110275974D01*
X47601003Y-110354883D01*
X47610901Y-110357759D01*
X47827653Y-110401857D01*
X47837883Y-110403076D01*
X48058914Y-110411182D01*
X48069223Y-110410714D01*
X48288623Y-110382608D01*
X48298688Y-110380468D01*
X48510557Y-110316905D01*
X48520152Y-110313144D01*
X48718778Y-110215838D01*
X48727636Y-110210559D01*
X48785097Y-110169572D01*
X48793497Y-110158874D01*
X48786510Y-110145721D01*
X48012811Y-109372021D01*
X47998868Y-109364408D01*
X47997034Y-109364539D01*
X47990420Y-109368790D01*
X47210180Y-110149031D01*
X47203423Y-110161406D01*
X45590845Y-110161406D01*
X45666485Y-108970638D01*
X46587893Y-108970638D01*
X46600627Y-109191468D01*
X46602061Y-109201670D01*
X46650685Y-109417439D01*
X46653773Y-109427292D01*
X46736986Y-109632220D01*
X46741634Y-109641421D01*
X46830097Y-109785781D01*
X46840553Y-109795242D01*
X46849331Y-109791458D01*
X47627979Y-109012811D01*
X47634356Y-109001132D01*
X48364408Y-109001132D01*
X48364539Y-109002966D01*
X48368790Y-109009580D01*
X49146307Y-109787096D01*
X49158313Y-109793652D01*
X49170052Y-109784684D01*
X49208010Y-109731859D01*
X49213321Y-109723020D01*
X49311318Y-109524737D01*
X49315117Y-109515142D01*
X49379415Y-109303517D01*
X49381594Y-109293436D01*
X49410702Y-109072338D01*
X49411221Y-109065663D01*
X49412744Y-109003364D01*
X49412550Y-108996646D01*
X49394279Y-108774400D01*
X49392596Y-108764238D01*
X49338710Y-108549708D01*
X49335389Y-108539953D01*
X49247193Y-108337118D01*
X49242315Y-108328020D01*
X49169224Y-108215038D01*
X49158538Y-108205835D01*
X49148973Y-108210238D01*
X48372021Y-108987189D01*
X48364408Y-109001132D01*
X47634356Y-109001132D01*
X47635592Y-108998868D01*
X47635461Y-108997034D01*
X47631210Y-108990420D01*
X46853862Y-108213073D01*
X46842330Y-108206776D01*
X46830048Y-108216399D01*
X46774467Y-108297877D01*
X46769379Y-108306833D01*
X46676252Y-108507459D01*
X46672689Y-108517146D01*
X46613581Y-108730280D01*
X46611650Y-108740400D01*
X46588145Y-108960349D01*
X46587893Y-108970638D01*
X45666485Y-108970638D01*
X45678319Y-108784341D01*
X45678516Y-108781684D01*
X45758295Y-107840711D01*
X47205508Y-107840711D01*
X47212251Y-107853040D01*
X47987189Y-108627979D01*
X48001132Y-108635592D01*
X48002966Y-108635461D01*
X48009580Y-108631210D01*
X48788994Y-107851795D01*
X48796011Y-107838944D01*
X48788237Y-107828274D01*
X48785902Y-107826430D01*
X48777320Y-107820729D01*
X48583678Y-107713833D01*
X48574272Y-107709606D01*
X48365772Y-107635772D01*
X48355809Y-107633140D01*
X48138047Y-107594350D01*
X48127796Y-107593381D01*
X47906616Y-107590679D01*
X47896332Y-107591399D01*
X47677693Y-107624855D01*
X47667666Y-107627244D01*
X47457426Y-107695961D01*
X47447916Y-107699958D01*
X47251725Y-107802089D01*
X47243007Y-107807578D01*
X47213961Y-107829386D01*
X47205508Y-107840711D01*
X45758295Y-107840711D01*
X45829225Y-107004106D01*
X45829479Y-107001454D01*
X46017730Y-105227548D01*
X46018039Y-105224902D01*
X46090109Y-104659898D01*
X46243766Y-103455287D01*
X46244126Y-103452682D01*
X46244196Y-103452217D01*
X46507215Y-101688264D01*
X46507636Y-101685633D01*
X46807967Y-99927203D01*
X46808443Y-99924582D01*
X46944988Y-99215773D01*
X47145888Y-98172891D01*
X47146418Y-98170285D01*
X47223111Y-97813011D01*
X47327332Y-97327500D01*
X57284335Y-97327500D01*
X57302965Y-97564211D01*
X57304119Y-97569018D01*
X57304120Y-97569024D01*
X57333622Y-97691908D01*
X57358395Y-97795094D01*
X57360288Y-97799665D01*
X57360289Y-97799667D01*
X57447272Y-98009663D01*
X57449260Y-98014463D01*
X57451846Y-98018683D01*
X57570741Y-98212702D01*
X57570745Y-98212708D01*
X57573324Y-98216916D01*
X57727531Y-98397469D01*
X57908084Y-98551676D01*
X57912292Y-98554255D01*
X57912298Y-98554259D01*
X58077180Y-98655299D01*
X58110537Y-98675740D01*
X58115107Y-98677633D01*
X58115111Y-98677635D01*
X58325333Y-98764711D01*
X58329906Y-98766605D01*
X58375941Y-98777657D01*
X58555976Y-98820880D01*
X58555982Y-98820881D01*
X58560789Y-98822035D01*
X58797500Y-98840665D01*
X59034211Y-98822035D01*
X59039018Y-98820881D01*
X59039024Y-98820880D01*
X59219059Y-98777657D01*
X59265094Y-98766605D01*
X59269667Y-98764711D01*
X59479889Y-98677635D01*
X59479893Y-98677633D01*
X59484463Y-98675740D01*
X59517820Y-98655299D01*
X59673056Y-98560170D01*
X65549660Y-98560170D01*
X65555387Y-98567820D01*
X65726542Y-98672705D01*
X65735337Y-98677187D01*
X65945488Y-98764234D01*
X65954873Y-98767283D01*
X66176054Y-98820385D01*
X66185801Y-98821928D01*
X66412570Y-98839775D01*
X66422430Y-98839775D01*
X66649199Y-98821928D01*
X66658946Y-98820385D01*
X66880127Y-98767283D01*
X66889512Y-98764234D01*
X67099663Y-98677187D01*
X67108458Y-98672705D01*
X67275945Y-98570068D01*
X67285407Y-98559610D01*
X67281624Y-98550834D01*
X66430312Y-97699522D01*
X66416368Y-97691908D01*
X66414535Y-97692039D01*
X66407920Y-97696290D01*
X65556420Y-98547790D01*
X65549660Y-98560170D01*
X59673056Y-98560170D01*
X59682702Y-98554259D01*
X59682708Y-98554255D01*
X59686916Y-98551676D01*
X59867469Y-98397469D01*
X60021676Y-98216916D01*
X60024255Y-98212708D01*
X60024259Y-98212702D01*
X60143154Y-98018683D01*
X60145740Y-98014463D01*
X60147729Y-98009663D01*
X60234711Y-97799667D01*
X60234712Y-97799665D01*
X60236605Y-97795094D01*
X60261378Y-97691908D01*
X60290880Y-97569024D01*
X60290881Y-97569018D01*
X60292035Y-97564211D01*
X60310665Y-97327500D01*
X60292035Y-97090789D01*
X60284016Y-97057385D01*
X60237760Y-96864718D01*
X60236605Y-96859906D01*
X60234711Y-96855333D01*
X60147635Y-96645111D01*
X60147633Y-96645107D01*
X60145740Y-96640537D01*
X60138044Y-96627978D01*
X60024259Y-96442298D01*
X60024255Y-96442292D01*
X60021676Y-96438084D01*
X59867469Y-96257531D01*
X59686916Y-96103324D01*
X59682708Y-96100745D01*
X59682702Y-96100741D01*
X59488683Y-95981846D01*
X59484463Y-95979260D01*
X59479893Y-95977367D01*
X59479889Y-95977365D01*
X59269667Y-95890289D01*
X59269665Y-95890288D01*
X59265094Y-95888395D01*
X59184891Y-95869140D01*
X59039024Y-95834120D01*
X59039018Y-95834119D01*
X59034211Y-95832965D01*
X58797500Y-95814335D01*
X58560789Y-95832965D01*
X58555982Y-95834119D01*
X58555976Y-95834120D01*
X58410109Y-95869140D01*
X58329906Y-95888395D01*
X58325335Y-95890288D01*
X58325333Y-95890289D01*
X58115111Y-95977365D01*
X58115107Y-95977367D01*
X58110537Y-95979260D01*
X58106317Y-95981846D01*
X57912298Y-96100741D01*
X57912292Y-96100745D01*
X57908084Y-96103324D01*
X57727531Y-96257531D01*
X57573324Y-96438084D01*
X57570745Y-96442292D01*
X57570741Y-96442298D01*
X57456956Y-96627978D01*
X57449260Y-96640537D01*
X57447367Y-96645107D01*
X57447365Y-96645111D01*
X57360289Y-96855333D01*
X57358395Y-96859906D01*
X57357240Y-96864718D01*
X57310985Y-97057385D01*
X57302965Y-97090789D01*
X57284335Y-97327500D01*
X47327332Y-97327500D01*
X47520838Y-96426053D01*
X47521423Y-96423462D01*
X47530917Y-96383386D01*
X47668202Y-95803845D01*
X47921989Y-94732502D01*
X47928425Y-94712758D01*
X47932980Y-94701913D01*
X47932981Y-94701910D01*
X47936455Y-94693638D01*
X47938177Y-94678485D01*
X47943577Y-94653657D01*
X47996655Y-94490858D01*
X48003500Y-94474071D01*
X48020142Y-94440412D01*
X48090579Y-94297945D01*
X48099761Y-94282316D01*
X48211215Y-94120504D01*
X48222545Y-94106353D01*
X48311649Y-94010159D01*
X48356068Y-93962206D01*
X48369309Y-93949830D01*
X48403230Y-93922420D01*
X48522140Y-93826333D01*
X48537021Y-93815985D01*
X48678159Y-93732216D01*
X48693943Y-93725121D01*
X48701950Y-93721239D01*
X48710504Y-93718507D01*
X48736856Y-93700722D01*
X48750994Y-93692464D01*
X52645374Y-91745275D01*
X52715248Y-91732701D01*
X52780828Y-91759900D01*
X52821293Y-91818236D01*
X52823795Y-91889189D01*
X52817921Y-91906695D01*
X52783541Y-91988683D01*
X52721051Y-92234736D01*
X52720583Y-92239387D01*
X52720582Y-92239391D01*
X52711362Y-92330959D01*
X52695617Y-92487323D01*
X52697423Y-92524913D01*
X52707797Y-92740895D01*
X52757323Y-92989882D01*
X52843108Y-93228813D01*
X52963267Y-93452440D01*
X52966062Y-93456183D01*
X52966064Y-93456186D01*
X53112369Y-93652112D01*
X53112374Y-93652118D01*
X53115161Y-93655850D01*
X53118470Y-93659130D01*
X53118475Y-93659136D01*
X53287140Y-93826334D01*
X53295452Y-93834574D01*
X53299214Y-93837332D01*
X53299217Y-93837335D01*
X53452641Y-93949830D01*
X53500179Y-93984686D01*
X53504322Y-93986866D01*
X53504324Y-93986867D01*
X53720696Y-94100706D01*
X53720701Y-94100708D01*
X53724846Y-94102889D01*
X53729269Y-94104434D01*
X53729270Y-94104434D01*
X53867838Y-94152824D01*
X53964517Y-94186586D01*
X53969110Y-94187458D01*
X54209337Y-94233067D01*
X54209340Y-94233067D01*
X54213926Y-94233938D01*
X54340760Y-94238922D01*
X54462926Y-94243722D01*
X54462932Y-94243722D01*
X54467594Y-94243905D01*
X54571768Y-94232496D01*
X54715297Y-94216777D01*
X54715302Y-94216776D01*
X54719950Y-94216267D01*
X54724474Y-94215076D01*
X54960926Y-94152824D01*
X54960928Y-94152823D01*
X54965449Y-94151633D01*
X55198697Y-94051421D01*
X55414571Y-93917834D01*
X55509661Y-93837335D01*
X55604762Y-93756827D01*
X55604764Y-93756825D01*
X55608329Y-93753807D01*
X55775713Y-93562941D01*
X55913047Y-93349431D01*
X56017314Y-93117967D01*
X56086223Y-92873634D01*
X56109966Y-92687000D01*
X56117863Y-92624929D01*
X56117863Y-92624925D01*
X56118261Y-92621799D01*
X56120608Y-92532159D01*
X56120375Y-92529019D01*
X56120374Y-92528991D01*
X56113862Y-92441375D01*
X56128760Y-92371960D01*
X56178822Y-92321618D01*
X56248154Y-92306334D01*
X56314743Y-92330959D01*
X56328610Y-92342942D01*
X59599368Y-95613699D01*
X59612911Y-95629709D01*
X59624541Y-95646044D01*
X59633299Y-95655018D01*
X59644986Y-95663777D01*
X59648076Y-95666093D01*
X59656470Y-95672967D01*
X59802923Y-95803845D01*
X59805791Y-95805880D01*
X59817707Y-95814335D01*
X59986859Y-95934355D01*
X60184252Y-96043450D01*
X60392618Y-96129758D01*
X60609337Y-96192194D01*
X60831684Y-96229972D01*
X61014075Y-96240215D01*
X61027901Y-96241762D01*
X61037490Y-96243375D01*
X61039521Y-96243717D01*
X61039523Y-96243717D01*
X61044324Y-96244525D01*
X61050864Y-96244605D01*
X61052004Y-96244619D01*
X61052008Y-96244619D01*
X61056863Y-96244678D01*
X61084451Y-96240727D01*
X61102314Y-96239454D01*
X65091449Y-96239454D01*
X65159570Y-96259456D01*
X65206063Y-96313112D01*
X65216167Y-96383386D01*
X65193386Y-96439513D01*
X65191144Y-96442599D01*
X65072295Y-96636542D01*
X65067813Y-96645337D01*
X64980766Y-96855488D01*
X64977717Y-96864873D01*
X64924615Y-97086054D01*
X64923072Y-97095801D01*
X64905225Y-97322570D01*
X64905225Y-97332430D01*
X64923072Y-97559199D01*
X64924615Y-97568946D01*
X64977717Y-97790127D01*
X64980766Y-97799512D01*
X65067813Y-98009663D01*
X65072295Y-98018458D01*
X65174932Y-98185945D01*
X65185390Y-98195407D01*
X65194166Y-98191624D01*
X66328405Y-97057385D01*
X66390717Y-97023359D01*
X66461532Y-97028424D01*
X66506595Y-97057385D01*
X67637790Y-98188580D01*
X67654602Y-98197760D01*
X67717850Y-98211520D01*
X67753275Y-98240276D01*
X67856525Y-98361166D01*
X67887531Y-98397469D01*
X68068084Y-98551676D01*
X68072292Y-98554255D01*
X68072298Y-98554259D01*
X68237180Y-98655299D01*
X68270537Y-98675740D01*
X68275107Y-98677633D01*
X68275111Y-98677635D01*
X68485333Y-98764711D01*
X68489906Y-98766605D01*
X68535941Y-98777657D01*
X68715976Y-98820880D01*
X68715982Y-98820881D01*
X68720789Y-98822035D01*
X68957500Y-98840665D01*
X69194211Y-98822035D01*
X69199018Y-98820881D01*
X69199024Y-98820880D01*
X69379059Y-98777657D01*
X69425094Y-98766605D01*
X69429667Y-98764711D01*
X69639889Y-98677635D01*
X69639893Y-98677633D01*
X69644463Y-98675740D01*
X69677820Y-98655299D01*
X69842702Y-98554259D01*
X69842708Y-98554255D01*
X69846916Y-98551676D01*
X70027469Y-98397469D01*
X70048061Y-98373359D01*
X78065386Y-98373359D01*
X78074099Y-98384879D01*
X78162586Y-98449760D01*
X78170505Y-98454708D01*
X78386877Y-98568547D01*
X78395451Y-98572275D01*
X78626282Y-98652885D01*
X78635291Y-98655299D01*
X78875518Y-98700908D01*
X78884775Y-98701962D01*
X79129107Y-98711563D01*
X79138420Y-98711237D01*
X79381478Y-98684618D01*
X79390655Y-98682917D01*
X79627107Y-98620665D01*
X79635926Y-98617628D01*
X79860584Y-98521107D01*
X79868856Y-98516800D01*
X80076777Y-98388135D01*
X80078620Y-98386796D01*
X80086038Y-98375541D01*
X80079974Y-98365184D01*
X79086812Y-97372022D01*
X79072868Y-97364408D01*
X79071035Y-97364539D01*
X79064420Y-97368790D01*
X78072044Y-98361166D01*
X78065386Y-98373359D01*
X70048061Y-98373359D01*
X70181676Y-98216916D01*
X70184255Y-98212708D01*
X70184259Y-98212702D01*
X70303154Y-98018683D01*
X70305740Y-98014463D01*
X70307729Y-98009663D01*
X70394711Y-97799667D01*
X70394712Y-97799665D01*
X70396605Y-97795094D01*
X70421378Y-97691908D01*
X70450880Y-97569024D01*
X70450881Y-97569018D01*
X70452035Y-97564211D01*
X70470665Y-97327500D01*
X70452035Y-97090789D01*
X70444016Y-97057385D01*
X70420596Y-96959835D01*
X77362022Y-96959835D01*
X77373754Y-97204064D01*
X77374891Y-97213324D01*
X77422593Y-97453143D01*
X77425082Y-97462118D01*
X77507708Y-97692250D01*
X77511505Y-97700778D01*
X77627234Y-97916160D01*
X77632245Y-97924027D01*
X77689173Y-98000263D01*
X77700431Y-98008712D01*
X77712850Y-98001940D01*
X78701978Y-97012812D01*
X78708356Y-97001132D01*
X79438408Y-97001132D01*
X79438539Y-97002965D01*
X79442790Y-97009580D01*
X80437732Y-98004522D01*
X80450112Y-98011282D01*
X80458453Y-98005038D01*
X80576700Y-97821202D01*
X80581147Y-97813011D01*
X80681572Y-97590076D01*
X80684767Y-97581298D01*
X80751135Y-97345973D01*
X80752993Y-97336844D01*
X80784044Y-97092770D01*
X80784525Y-97086483D01*
X80786706Y-97003160D01*
X80786555Y-96996851D01*
X80768321Y-96751486D01*
X80766944Y-96742280D01*
X80712979Y-96503786D01*
X80710255Y-96494875D01*
X80621633Y-96266983D01*
X80617619Y-96258567D01*
X80496284Y-96046276D01*
X80491074Y-96038553D01*
X80459787Y-95998865D01*
X80447863Y-95990395D01*
X80436328Y-95996882D01*
X79446022Y-96987188D01*
X79438408Y-97001132D01*
X78708356Y-97001132D01*
X78709592Y-96998868D01*
X78709461Y-96997035D01*
X78705210Y-96990420D01*
X77710828Y-95996038D01*
X77697520Y-95988771D01*
X77687481Y-95995893D01*
X77682581Y-96001784D01*
X77677168Y-96009373D01*
X77550322Y-96218409D01*
X77546084Y-96226726D01*
X77451529Y-96452214D01*
X77448572Y-96461052D01*
X77388384Y-96698042D01*
X77386763Y-96707232D01*
X77362267Y-96950510D01*
X77362022Y-96959835D01*
X70420596Y-96959835D01*
X70397760Y-96864718D01*
X70396605Y-96859906D01*
X70394711Y-96855333D01*
X70307635Y-96645111D01*
X70307633Y-96645107D01*
X70305740Y-96640537D01*
X70298044Y-96627978D01*
X70184259Y-96442298D01*
X70184255Y-96442292D01*
X70181676Y-96438084D01*
X70027469Y-96257531D01*
X69846916Y-96103324D01*
X69842708Y-96100745D01*
X69842702Y-96100741D01*
X69648683Y-95981846D01*
X69644463Y-95979260D01*
X69639893Y-95977367D01*
X69639889Y-95977365D01*
X69429667Y-95890289D01*
X69429665Y-95890288D01*
X69425094Y-95888395D01*
X69344891Y-95869140D01*
X69199024Y-95834120D01*
X69199018Y-95834119D01*
X69194211Y-95832965D01*
X68957500Y-95814335D01*
X68862579Y-95821806D01*
X68793100Y-95807210D01*
X68742541Y-95757368D01*
X68726954Y-95688104D01*
X68750009Y-95624917D01*
X78063330Y-95624917D01*
X78067903Y-95634693D01*
X79061188Y-96627978D01*
X79075132Y-96635592D01*
X79076965Y-96635461D01*
X79083580Y-96631210D01*
X80076488Y-95638302D01*
X80082872Y-95626612D01*
X80073460Y-95614502D01*
X79947144Y-95526873D01*
X79939116Y-95522145D01*
X79719810Y-95413995D01*
X79711177Y-95410507D01*
X79478288Y-95335958D01*
X79469238Y-95333785D01*
X79227891Y-95294480D01*
X79218602Y-95293668D01*
X78974114Y-95290467D01*
X78964803Y-95291037D01*
X78722522Y-95324010D01*
X78713403Y-95325948D01*
X78478668Y-95394367D01*
X78469915Y-95397639D01*
X78247869Y-95500004D01*
X78239714Y-95504524D01*
X78072468Y-95614175D01*
X78063330Y-95624917D01*
X68750009Y-95624917D01*
X68751289Y-95621408D01*
X68763599Y-95607099D01*
X71683698Y-92687000D01*
X72597190Y-92687000D01*
X72598463Y-92695889D01*
X72615357Y-92813852D01*
X72617839Y-92831186D01*
X72621553Y-92839354D01*
X72621553Y-92839355D01*
X72629341Y-92856484D01*
X72678126Y-92963782D01*
X72683073Y-92969935D01*
X72683075Y-92969938D01*
X72699111Y-92989882D01*
X72717319Y-93012528D01*
X73987472Y-94282681D01*
X73990134Y-94284821D01*
X74030062Y-94316925D01*
X74030065Y-94316927D01*
X74036218Y-94321874D01*
X74168814Y-94382161D01*
X74177697Y-94383433D01*
X74177700Y-94383434D01*
X74304111Y-94401537D01*
X74313000Y-94402810D01*
X74321889Y-94401537D01*
X74448300Y-94383434D01*
X74448303Y-94383433D01*
X74457186Y-94382161D01*
X74589782Y-94321874D01*
X74595935Y-94316927D01*
X74595938Y-94316925D01*
X74635866Y-94284821D01*
X74638528Y-94282681D01*
X75908681Y-93012528D01*
X75926889Y-92989882D01*
X75942925Y-92969938D01*
X75942927Y-92969935D01*
X75947874Y-92963782D01*
X75996659Y-92856484D01*
X76004447Y-92839355D01*
X76004447Y-92839354D01*
X76008161Y-92831186D01*
X76010644Y-92813852D01*
X76027537Y-92695889D01*
X76028810Y-92687000D01*
X76019473Y-92621799D01*
X76009434Y-92551700D01*
X76009433Y-92551697D01*
X76008161Y-92542814D01*
X75955386Y-92426740D01*
X75945400Y-92356449D01*
X75975001Y-92291918D01*
X76034791Y-92253634D01*
X76074704Y-92248674D01*
X76165701Y-92252011D01*
X76175987Y-92251544D01*
X76387236Y-92224483D01*
X76397313Y-92222341D01*
X76601306Y-92161140D01*
X76610893Y-92157382D01*
X76802149Y-92063687D01*
X76810995Y-92058414D01*
X76858298Y-92024672D01*
X76866699Y-92013972D01*
X76859711Y-92000819D01*
X74998900Y-90140008D01*
X74987364Y-90133708D01*
X74975082Y-90143331D01*
X74927140Y-90213611D01*
X74922055Y-90222562D01*
X74832389Y-90415732D01*
X74828826Y-90425419D01*
X74771915Y-90630630D01*
X74769984Y-90640749D01*
X74747353Y-90852523D01*
X74747101Y-90862813D01*
X74750534Y-90922357D01*
X74734486Y-90991516D01*
X74683595Y-91041020D01*
X74614019Y-91055152D01*
X74572593Y-91044310D01*
X74465358Y-90995554D01*
X74465355Y-90995553D01*
X74457186Y-90991839D01*
X74448303Y-90990567D01*
X74448300Y-90990566D01*
X74321889Y-90972463D01*
X74313000Y-90971190D01*
X74304111Y-90972463D01*
X74177700Y-90990566D01*
X74177697Y-90990567D01*
X74168814Y-90991839D01*
X74036218Y-91052126D01*
X74030065Y-91057073D01*
X74030062Y-91057075D01*
X74004208Y-91077863D01*
X73987472Y-91091319D01*
X72717319Y-92361472D01*
X72703863Y-92378208D01*
X72683075Y-92404062D01*
X72683073Y-92404065D01*
X72678126Y-92410218D01*
X72617839Y-92542814D01*
X72616567Y-92551697D01*
X72616566Y-92551700D01*
X72606527Y-92621799D01*
X72597190Y-92687000D01*
X71683698Y-92687000D01*
X74603322Y-89767376D01*
X75350274Y-89767376D01*
X75357019Y-89779707D01*
X77219525Y-91642213D01*
X77231535Y-91648772D01*
X77243274Y-91639804D01*
X77274055Y-91596968D01*
X77279366Y-91588129D01*
X77373721Y-91397216D01*
X77377520Y-91387621D01*
X77439427Y-91183864D01*
X77441606Y-91173783D01*
X77469641Y-90960836D01*
X77470160Y-90954161D01*
X77471623Y-90894313D01*
X77471429Y-90887595D01*
X77453832Y-90673553D01*
X77452147Y-90663374D01*
X77428300Y-90568436D01*
X77431104Y-90497495D01*
X77471816Y-90439331D01*
X77537511Y-90412412D01*
X77575620Y-90414269D01*
X77743699Y-90448465D01*
X77748874Y-90448655D01*
X77748876Y-90448655D01*
X77961775Y-90456462D01*
X77961779Y-90456462D01*
X77966939Y-90456651D01*
X77972059Y-90455995D01*
X77972061Y-90455995D01*
X78183390Y-90428923D01*
X78183391Y-90428923D01*
X78188518Y-90428266D01*
X78193468Y-90426781D01*
X78397531Y-90365559D01*
X78397536Y-90365557D01*
X78402486Y-90364072D01*
X78603096Y-90265794D01*
X78784962Y-90136071D01*
X78943198Y-89978387D01*
X79073555Y-89796975D01*
X79082090Y-89779707D01*
X79170238Y-89601351D01*
X79170239Y-89601349D01*
X79172532Y-89596709D01*
X79237472Y-89382967D01*
X79266631Y-89161488D01*
X79268258Y-89094898D01*
X79249954Y-88872259D01*
X79241718Y-88839468D01*
X79224760Y-88771956D01*
X79227564Y-88701015D01*
X79268277Y-88642852D01*
X79333973Y-88615933D01*
X79372084Y-88617790D01*
X79534749Y-88650884D01*
X79544977Y-88652103D01*
X79757804Y-88659908D01*
X79768090Y-88659441D01*
X79979339Y-88632380D01*
X79989416Y-88630238D01*
X80193409Y-88569037D01*
X80202996Y-88565279D01*
X80394252Y-88471584D01*
X80403098Y-88466311D01*
X80450401Y-88432569D01*
X80458802Y-88421869D01*
X80451814Y-88408716D01*
X79343076Y-87299978D01*
X80065562Y-87299978D01*
X80065693Y-87301811D01*
X80069944Y-87308426D01*
X80811628Y-88050110D01*
X80823638Y-88056669D01*
X80835377Y-88047701D01*
X80866158Y-88004865D01*
X80871469Y-87996026D01*
X80965824Y-87805113D01*
X80969623Y-87795518D01*
X81031530Y-87591761D01*
X81033709Y-87581680D01*
X81061744Y-87368733D01*
X81062263Y-87362058D01*
X81063726Y-87302210D01*
X81063532Y-87295492D01*
X81045935Y-87081450D01*
X81044250Y-87071270D01*
X80992368Y-86864721D01*
X80989048Y-86854970D01*
X80904126Y-86659660D01*
X80899259Y-86650585D01*
X80834217Y-86550043D01*
X80823531Y-86540841D01*
X80813966Y-86545244D01*
X80073176Y-87286034D01*
X80065562Y-87299978D01*
X79343076Y-87299978D01*
X78591003Y-86547905D01*
X78579467Y-86541605D01*
X78567185Y-86551228D01*
X78519243Y-86621508D01*
X78514158Y-86630459D01*
X78424492Y-86823629D01*
X78420929Y-86833316D01*
X78364018Y-87038527D01*
X78362087Y-87048646D01*
X78339456Y-87260420D01*
X78339204Y-87270709D01*
X78351463Y-87483323D01*
X78352899Y-87493542D01*
X78381916Y-87622296D01*
X78377380Y-87693147D01*
X78335259Y-87750299D01*
X78268925Y-87775605D01*
X78236905Y-87774044D01*
X78172452Y-87762563D01*
X78038475Y-87738698D01*
X78038469Y-87738697D01*
X78033386Y-87737792D01*
X77959554Y-87736890D01*
X77815183Y-87735126D01*
X77815181Y-87735126D01*
X77810013Y-87735063D01*
X77589193Y-87768853D01*
X77376858Y-87838255D01*
X77178709Y-87941405D01*
X77174576Y-87944508D01*
X77174573Y-87944510D01*
X77004202Y-88072428D01*
X77000067Y-88075533D01*
X76845731Y-88237036D01*
X76719845Y-88421578D01*
X76699081Y-88466311D01*
X76628767Y-88617790D01*
X76625790Y-88624203D01*
X76566091Y-88839468D01*
X76542353Y-89061593D01*
X76542650Y-89066746D01*
X76542650Y-89066749D01*
X76548113Y-89161488D01*
X76555212Y-89284613D01*
X76556349Y-89289659D01*
X76556350Y-89289665D01*
X76585448Y-89418780D01*
X76580912Y-89489632D01*
X76538790Y-89546783D01*
X76472457Y-89572089D01*
X76440435Y-89570529D01*
X76242366Y-89535248D01*
X76232124Y-89534280D01*
X76019167Y-89531677D01*
X76008883Y-89532397D01*
X75798372Y-89564610D01*
X75788344Y-89566999D01*
X75585919Y-89633161D01*
X75576410Y-89637158D01*
X75387517Y-89735489D01*
X75378785Y-89740988D01*
X75358728Y-89756048D01*
X75350274Y-89767376D01*
X74603322Y-89767376D01*
X78195425Y-86175273D01*
X78942377Y-86175273D01*
X78949122Y-86187604D01*
X79688342Y-86926824D01*
X79702286Y-86934438D01*
X79704119Y-86934307D01*
X79710734Y-86930056D01*
X80454543Y-86186247D01*
X80461564Y-86173390D01*
X80454765Y-86164059D01*
X80450708Y-86161364D01*
X80264271Y-86058445D01*
X80254859Y-86054215D01*
X80054113Y-85983126D01*
X80044143Y-85980492D01*
X79834481Y-85943147D01*
X79824227Y-85942177D01*
X79611270Y-85939574D01*
X79600986Y-85940294D01*
X79390475Y-85972507D01*
X79380447Y-85974896D01*
X79178022Y-86041058D01*
X79168513Y-86045055D01*
X78979620Y-86143386D01*
X78970888Y-86148885D01*
X78950831Y-86163945D01*
X78942377Y-86175273D01*
X78195425Y-86175273D01*
X79161149Y-85209549D01*
X79175916Y-85196902D01*
X79188019Y-85188060D01*
X79195267Y-85182765D01*
X79204627Y-85170589D01*
X79222005Y-85152161D01*
X79350108Y-85041159D01*
X79364491Y-85030392D01*
X79528414Y-84925045D01*
X79544192Y-84916430D01*
X79721444Y-84835481D01*
X79738286Y-84829199D01*
X79925249Y-84774302D01*
X79942805Y-84770483D01*
X80135675Y-84742752D01*
X80153608Y-84741469D01*
X80348466Y-84741469D01*
X80366399Y-84742752D01*
G37*
G04 #@! TD.AperFunction*
M02*
