%TF.GenerationSoftware,KiCad,Pcbnew,(6.0.9)*%
%TF.CreationDate,2022-12-21T01:12:51+09:00*%
%TF.ProjectId,power,706f7765-722e-46b6-9963-61645f706362,rev?*%
%TF.SameCoordinates,Original*%
%TF.FileFunction,Legend,Bot*%
%TF.FilePolarity,Positive*%
%FSLAX46Y46*%
G04 Gerber Fmt 4.6, Leading zero omitted, Abs format (unit mm)*
G04 Created by KiCad (PCBNEW (6.0.9)) date 2022-12-21 01:12:51*
%MOMM*%
%LPD*%
G01*
G04 APERTURE LIST*
%ADD10C,0.150000*%
%ADD11C,0.120000*%
G04 APERTURE END LIST*
D10*
%TO.C,J3*%
X115333333Y-87777380D02*
X115333333Y-88491666D01*
X115380952Y-88634523D01*
X115476190Y-88729761D01*
X115619047Y-88777380D01*
X115714285Y-88777380D01*
X114952380Y-87777380D02*
X114333333Y-87777380D01*
X114666666Y-88158333D01*
X114523809Y-88158333D01*
X114428571Y-88205952D01*
X114380952Y-88253571D01*
X114333333Y-88348809D01*
X114333333Y-88586904D01*
X114380952Y-88682142D01*
X114428571Y-88729761D01*
X114523809Y-88777380D01*
X114809523Y-88777380D01*
X114904761Y-88729761D01*
X114952380Y-88682142D01*
%TO.C,D1*%
X100882380Y-88761904D02*
X99882380Y-88761904D01*
X99882380Y-89000000D01*
X99930000Y-89142857D01*
X100025238Y-89238095D01*
X100120476Y-89285714D01*
X100310952Y-89333333D01*
X100453809Y-89333333D01*
X100644285Y-89285714D01*
X100739523Y-89238095D01*
X100834761Y-89142857D01*
X100882380Y-89000000D01*
X100882380Y-88761904D01*
X100882380Y-90285714D02*
X100882380Y-89714285D01*
X100882380Y-90000000D02*
X99882380Y-90000000D01*
X100025238Y-89904761D01*
X100120476Y-89809523D01*
X100168095Y-89714285D01*
%TO.C,F1*%
X114928571Y-96166666D02*
X114928571Y-95833333D01*
X115452380Y-95833333D02*
X114452380Y-95833333D01*
X114452380Y-96309523D01*
X115452380Y-97214285D02*
X115452380Y-96642857D01*
X115452380Y-96928571D02*
X114452380Y-96928571D01*
X114595238Y-96833333D01*
X114690476Y-96738095D01*
X114738095Y-96642857D01*
%TO.C,R1*%
X102882380Y-89333333D02*
X102406190Y-89000000D01*
X102882380Y-88761904D02*
X101882380Y-88761904D01*
X101882380Y-89142857D01*
X101930000Y-89238095D01*
X101977619Y-89285714D01*
X102072857Y-89333333D01*
X102215714Y-89333333D01*
X102310952Y-89285714D01*
X102358571Y-89238095D01*
X102406190Y-89142857D01*
X102406190Y-88761904D01*
X102882380Y-90285714D02*
X102882380Y-89714285D01*
X102882380Y-90000000D02*
X101882380Y-90000000D01*
X102025238Y-89904761D01*
X102120476Y-89809523D01*
X102168095Y-89714285D01*
%TO.C,J5*%
X100333333Y-87777380D02*
X100333333Y-88491666D01*
X100380952Y-88634523D01*
X100476190Y-88729761D01*
X100619047Y-88777380D01*
X100714285Y-88777380D01*
X99380952Y-87777380D02*
X99857142Y-87777380D01*
X99904761Y-88253571D01*
X99857142Y-88205952D01*
X99761904Y-88158333D01*
X99523809Y-88158333D01*
X99428571Y-88205952D01*
X99380952Y-88253571D01*
X99333333Y-88348809D01*
X99333333Y-88586904D01*
X99380952Y-88682142D01*
X99428571Y-88729761D01*
X99523809Y-88777380D01*
X99761904Y-88777380D01*
X99857142Y-88729761D01*
X99904761Y-88682142D01*
%TO.C,J1*%
X139752380Y-84666666D02*
X140466666Y-84666666D01*
X140609523Y-84619047D01*
X140704761Y-84523809D01*
X140752380Y-84380952D01*
X140752380Y-84285714D01*
X140752380Y-85666666D02*
X140752380Y-85095238D01*
X140752380Y-85380952D02*
X139752380Y-85380952D01*
X139895238Y-85285714D01*
X139990476Y-85190476D01*
X140038095Y-85095238D01*
X135269857Y-94442095D02*
X135269857Y-95965904D01*
X135142857Y-74122095D02*
X135142857Y-75645904D01*
X135904761Y-74884000D02*
X134380952Y-74884000D01*
D11*
%TO.C,J3*%
X111410000Y-87385000D02*
X111410000Y-85775000D01*
X113840000Y-70765000D02*
X113840000Y-72265000D01*
X112010000Y-72265000D02*
X112010000Y-78465000D01*
X116160000Y-72265000D02*
X116160000Y-70765000D01*
X119040000Y-78465000D02*
X117990000Y-78465000D01*
X117800000Y-70765000D02*
X117800000Y-72265000D01*
X117990000Y-78465000D02*
X117990000Y-72265000D01*
X110960000Y-78465000D02*
X110960000Y-81885000D01*
X112010000Y-78465000D02*
X110960000Y-78465000D01*
X112200000Y-72265000D02*
X112200000Y-70765000D01*
X113020000Y-87385000D02*
X111410000Y-87385000D01*
X112200000Y-70765000D02*
X113840000Y-70765000D01*
X119040000Y-81885000D02*
X119040000Y-78465000D01*
X117990000Y-72265000D02*
X112010000Y-72265000D01*
X116160000Y-70765000D02*
X117800000Y-70765000D01*
X110960000Y-81885000D02*
X119040000Y-81885000D01*
%TO.C,D1*%
X99735000Y-91160000D02*
X98265000Y-91160000D01*
X98265000Y-91160000D02*
X98265000Y-88700000D01*
X99735000Y-88700000D02*
X99735000Y-91160000D01*
%TO.C,F1*%
X129000000Y-93000000D02*
X101000000Y-93000000D01*
X101000000Y-96500000D02*
X101000000Y-100000000D01*
X129000000Y-100000000D02*
X129000000Y-93000000D01*
X101000000Y-100000000D02*
X129000000Y-100000000D01*
X101000000Y-93000000D02*
X101000000Y-96500000D01*
%TO.C,R1*%
X101522500Y-89754724D02*
X101522500Y-89245276D01*
X100477500Y-89754724D02*
X100477500Y-89245276D01*
%TO.C,J5*%
X97010000Y-72265000D02*
X97010000Y-78465000D01*
X102990000Y-72265000D02*
X97010000Y-72265000D01*
X97010000Y-78465000D02*
X95960000Y-78465000D01*
X102990000Y-78465000D02*
X102990000Y-72265000D01*
X101160000Y-72265000D02*
X101160000Y-70765000D01*
X104040000Y-78465000D02*
X102990000Y-78465000D01*
X95960000Y-81885000D02*
X104040000Y-81885000D01*
X98840000Y-70765000D02*
X98840000Y-72265000D01*
X97200000Y-70765000D02*
X98840000Y-70765000D01*
X98020000Y-87385000D02*
X96410000Y-87385000D01*
X101160000Y-70765000D02*
X102800000Y-70765000D01*
X104040000Y-81885000D02*
X104040000Y-78465000D01*
X102800000Y-70765000D02*
X102800000Y-72265000D01*
X95960000Y-78465000D02*
X95960000Y-81885000D01*
X96410000Y-87385000D02*
X96410000Y-85775000D01*
X97200000Y-72265000D02*
X97200000Y-70765000D01*
%TO.C,J1*%
X139150000Y-77150000D02*
X139150000Y-90000000D01*
X133450000Y-92850000D02*
X130850000Y-90000000D01*
X130850000Y-77150000D02*
X139150000Y-77150000D01*
X136600000Y-92850000D02*
X133450000Y-92850000D01*
X130850000Y-90000000D02*
X130850000Y-77150000D01*
X139150000Y-90000000D02*
X136600000Y-92850000D01*
%TD*%
M02*
