G04 #@! TF.GenerationSoftware,KiCad,Pcbnew,(5.1.6)-1*
G04 #@! TF.CreationDate,2021-11-09T00:45:41+09:00*
G04 #@! TF.ProjectId,control20211108,636f6e74-726f-46c3-9230-323131313038,V1.1*
G04 #@! TF.SameCoordinates,Original*
G04 #@! TF.FileFunction,Copper,L1,Top*
G04 #@! TF.FilePolarity,Positive*
%FSLAX46Y46*%
G04 Gerber Fmt 4.6, Leading zero omitted, Abs format (unit mm)*
G04 Created by KiCad (PCBNEW (5.1.6)-1) date 2021-11-09 00:45:41*
%MOMM*%
%LPD*%
G01*
G04 APERTURE LIST*
G04 #@! TA.AperFunction,EtchedComponent*
%ADD10C,0.100000*%
G04 #@! TD*
G04 #@! TA.AperFunction,ComponentPad*
%ADD11O,1.700000X2.000000*%
G04 #@! TD*
G04 #@! TA.AperFunction,ComponentPad*
%ADD12C,1.251000*%
G04 #@! TD*
G04 #@! TA.AperFunction,ComponentPad*
%ADD13C,0.100000*%
G04 #@! TD*
G04 #@! TA.AperFunction,ComponentPad*
%ADD14R,1.251000X1.251000*%
G04 #@! TD*
G04 #@! TA.AperFunction,ComponentPad*
%ADD15O,2.000000X1.700000*%
G04 #@! TD*
G04 #@! TA.AperFunction,ComponentPad*
%ADD16O,1.000000X1.000000*%
G04 #@! TD*
G04 #@! TA.AperFunction,ComponentPad*
%ADD17R,1.000000X1.000000*%
G04 #@! TD*
G04 #@! TA.AperFunction,ComponentPad*
%ADD18C,1.524000*%
G04 #@! TD*
G04 #@! TA.AperFunction,ComponentPad*
%ADD19R,1.524000X1.524000*%
G04 #@! TD*
G04 #@! TA.AperFunction,ComponentPad*
%ADD20O,2.500000X1.700000*%
G04 #@! TD*
G04 #@! TA.AperFunction,ComponentPad*
%ADD21R,2.500000X1.700000*%
G04 #@! TD*
G04 #@! TA.AperFunction,ComponentPad*
%ADD22R,4.524000X2.524000*%
G04 #@! TD*
G04 #@! TA.AperFunction,ComponentPad*
%ADD23C,1.431000*%
G04 #@! TD*
G04 #@! TA.AperFunction,ComponentPad*
%ADD24C,6.000000*%
G04 #@! TD*
G04 #@! TA.AperFunction,ComponentPad*
%ADD25C,4.000000*%
G04 #@! TD*
G04 #@! TA.AperFunction,ComponentPad*
%ADD26O,1.600000X1.600000*%
G04 #@! TD*
G04 #@! TA.AperFunction,ComponentPad*
%ADD27R,1.600000X1.600000*%
G04 #@! TD*
G04 #@! TA.AperFunction,ViaPad*
%ADD28C,0.800000*%
G04 #@! TD*
G04 #@! TA.AperFunction,Conductor*
%ADD29C,0.250000*%
G04 #@! TD*
G04 #@! TA.AperFunction,Conductor*
%ADD30C,2.000000*%
G04 #@! TD*
G04 #@! TA.AperFunction,Conductor*
%ADD31C,0.951600*%
G04 #@! TD*
G04 #@! TA.AperFunction,Conductor*
%ADD32C,3.000000*%
G04 #@! TD*
G04 APERTURE END LIST*
D10*
G36*
X191500000Y-111946000D02*
G01*
X187500000Y-111946000D01*
X187500000Y-105246000D01*
X191500000Y-105246000D01*
X191500000Y-111946000D01*
G37*
X191500000Y-111946000D02*
X187500000Y-111946000D01*
X187500000Y-105246000D01*
X191500000Y-105246000D01*
X191500000Y-111946000D01*
G36*
X191400000Y-94954000D02*
G01*
X187500000Y-94754000D01*
X187500000Y-88154000D01*
X191500000Y-88154000D01*
X191400000Y-94954000D01*
G37*
X191400000Y-94954000D02*
X187500000Y-94754000D01*
X187500000Y-88154000D01*
X191500000Y-88154000D01*
X191400000Y-94954000D01*
G04 #@! TA.AperFunction,ComponentPad*
G36*
G01*
X175439340Y-124727208D02*
X175227208Y-124939340D01*
G75*
G02*
X174025126Y-124939340I-601041J601041D01*
G01*
X174025126Y-124939340D01*
G75*
G02*
X174025126Y-123737258I601041J601041D01*
G01*
X174237258Y-123525126D01*
G75*
G02*
X175439340Y-123525126I601041J-601041D01*
G01*
X175439340Y-123525126D01*
G75*
G02*
X175439340Y-124727208I-601041J-601041D01*
G01*
G37*
G04 #@! TD.AperFunction*
G04 #@! TA.AperFunction,ComponentPad*
G36*
G01*
X177631371Y-126070711D02*
X176570711Y-127131371D01*
G75*
G02*
X176217157Y-127131371I-176777J176777D01*
G01*
X175368629Y-126282843D01*
G75*
G02*
X175368629Y-125929289I176777J176777D01*
G01*
X176429289Y-124868629D01*
G75*
G02*
X176782843Y-124868629I176777J-176777D01*
G01*
X177631371Y-125717157D01*
G75*
G02*
X177631371Y-126070711I-176777J-176777D01*
G01*
G37*
G04 #@! TD.AperFunction*
G04 #@! TA.AperFunction,ComponentPad*
G36*
G01*
X151439340Y-148727208D02*
X151227208Y-148939340D01*
G75*
G02*
X150025126Y-148939340I-601041J601041D01*
G01*
X150025126Y-148939340D01*
G75*
G02*
X150025126Y-147737258I601041J601041D01*
G01*
X150237258Y-147525126D01*
G75*
G02*
X151439340Y-147525126I601041J-601041D01*
G01*
X151439340Y-147525126D01*
G75*
G02*
X151439340Y-148727208I-601041J-601041D01*
G01*
G37*
G04 #@! TD.AperFunction*
G04 #@! TA.AperFunction,ComponentPad*
G36*
G01*
X153631371Y-150070711D02*
X152570711Y-151131371D01*
G75*
G02*
X152217157Y-151131371I-176777J176777D01*
G01*
X151368629Y-150282843D01*
G75*
G02*
X151368629Y-149929289I176777J176777D01*
G01*
X152429289Y-148868629D01*
G75*
G02*
X152782843Y-148868629I176777J-176777D01*
G01*
X153631371Y-149717157D01*
G75*
G02*
X153631371Y-150070711I-176777J-176777D01*
G01*
G37*
G04 #@! TD.AperFunction*
D11*
X138500000Y-163500000D03*
G04 #@! TA.AperFunction,ComponentPad*
G36*
G01*
X135150000Y-164250000D02*
X135150000Y-162750000D01*
G75*
G02*
X135400000Y-162500000I250000J0D01*
G01*
X136600000Y-162500000D01*
G75*
G02*
X136850000Y-162750000I0J-250000D01*
G01*
X136850000Y-164250000D01*
G75*
G02*
X136600000Y-164500000I-250000J0D01*
G01*
X135400000Y-164500000D01*
G75*
G02*
X135150000Y-164250000I0J250000D01*
G01*
G37*
G04 #@! TD.AperFunction*
D12*
X99803301Y-152803301D03*
X98742641Y-151742641D03*
X97681981Y-150681981D03*
X96621320Y-149621320D03*
X95560660Y-148560660D03*
G04 #@! TA.AperFunction,ComponentPad*
D13*
G36*
X93615409Y-147500000D02*
G01*
X94500000Y-146615409D01*
X95384591Y-147500000D01*
X94500000Y-148384591D01*
X93615409Y-147500000D01*
G37*
G04 #@! TD.AperFunction*
D12*
X68000000Y-95500000D03*
X68000000Y-97000000D03*
X68000000Y-98500000D03*
D14*
X68000000Y-100000000D03*
D12*
X68000000Y-82500000D03*
X68000000Y-84000000D03*
X68000000Y-85500000D03*
X68000000Y-87000000D03*
X68000000Y-88500000D03*
D14*
X68000000Y-90000000D03*
D12*
X68000000Y-104750000D03*
X68000000Y-106250000D03*
X68000000Y-107750000D03*
X68000000Y-109250000D03*
X68000000Y-110750000D03*
D14*
X68000000Y-112250000D03*
D15*
X183000000Y-85000000D03*
G04 #@! TA.AperFunction,ComponentPad*
G36*
G01*
X183750000Y-88350000D02*
X182250000Y-88350000D01*
G75*
G02*
X182000000Y-88100000I0J250000D01*
G01*
X182000000Y-86900000D01*
G75*
G02*
X182250000Y-86650000I250000J0D01*
G01*
X183750000Y-86650000D01*
G75*
G02*
X184000000Y-86900000I0J-250000D01*
G01*
X184000000Y-88100000D01*
G75*
G02*
X183750000Y-88350000I-250000J0D01*
G01*
G37*
G04 #@! TD.AperFunction*
X183000000Y-112500000D03*
G04 #@! TA.AperFunction,ComponentPad*
G36*
G01*
X183750000Y-115850000D02*
X182250000Y-115850000D01*
G75*
G02*
X182000000Y-115600000I0J250000D01*
G01*
X182000000Y-114400000D01*
G75*
G02*
X182250000Y-114150000I250000J0D01*
G01*
X183750000Y-114150000D01*
G75*
G02*
X184000000Y-114400000I0J-250000D01*
G01*
X184000000Y-115600000D01*
G75*
G02*
X183750000Y-115850000I-250000J0D01*
G01*
G37*
G04 #@! TD.AperFunction*
D16*
X47500000Y-116270000D03*
D17*
X47500000Y-115000000D03*
G04 #@! TA.AperFunction,SMDPad,CuDef*
G36*
G01*
X62237500Y-116150000D02*
X61762500Y-116150000D01*
G75*
G02*
X61525000Y-115912500I0J237500D01*
G01*
X61525000Y-115337500D01*
G75*
G02*
X61762500Y-115100000I237500J0D01*
G01*
X62237500Y-115100000D01*
G75*
G02*
X62475000Y-115337500I0J-237500D01*
G01*
X62475000Y-115912500D01*
G75*
G02*
X62237500Y-116150000I-237500J0D01*
G01*
G37*
G04 #@! TD.AperFunction*
G04 #@! TA.AperFunction,SMDPad,CuDef*
G36*
G01*
X62237500Y-117900000D02*
X61762500Y-117900000D01*
G75*
G02*
X61525000Y-117662500I0J237500D01*
G01*
X61525000Y-117087500D01*
G75*
G02*
X61762500Y-116850000I237500J0D01*
G01*
X62237500Y-116850000D01*
G75*
G02*
X62475000Y-117087500I0J-237500D01*
G01*
X62475000Y-117662500D01*
G75*
G02*
X62237500Y-117900000I-237500J0D01*
G01*
G37*
G04 #@! TD.AperFunction*
G04 #@! TA.AperFunction,SMDPad,CuDef*
G36*
G01*
X58737500Y-116150000D02*
X58262500Y-116150000D01*
G75*
G02*
X58025000Y-115912500I0J237500D01*
G01*
X58025000Y-115337500D01*
G75*
G02*
X58262500Y-115100000I237500J0D01*
G01*
X58737500Y-115100000D01*
G75*
G02*
X58975000Y-115337500I0J-237500D01*
G01*
X58975000Y-115912500D01*
G75*
G02*
X58737500Y-116150000I-237500J0D01*
G01*
G37*
G04 #@! TD.AperFunction*
G04 #@! TA.AperFunction,SMDPad,CuDef*
G36*
G01*
X58737500Y-117900000D02*
X58262500Y-117900000D01*
G75*
G02*
X58025000Y-117662500I0J237500D01*
G01*
X58025000Y-117087500D01*
G75*
G02*
X58262500Y-116850000I237500J0D01*
G01*
X58737500Y-116850000D01*
G75*
G02*
X58975000Y-117087500I0J-237500D01*
G01*
X58975000Y-117662500D01*
G75*
G02*
X58737500Y-117900000I-237500J0D01*
G01*
G37*
G04 #@! TD.AperFunction*
G04 #@! TA.AperFunction,SMDPad,CuDef*
G36*
G01*
X55237500Y-116150000D02*
X54762500Y-116150000D01*
G75*
G02*
X54525000Y-115912500I0J237500D01*
G01*
X54525000Y-115337500D01*
G75*
G02*
X54762500Y-115100000I237500J0D01*
G01*
X55237500Y-115100000D01*
G75*
G02*
X55475000Y-115337500I0J-237500D01*
G01*
X55475000Y-115912500D01*
G75*
G02*
X55237500Y-116150000I-237500J0D01*
G01*
G37*
G04 #@! TD.AperFunction*
G04 #@! TA.AperFunction,SMDPad,CuDef*
G36*
G01*
X55237500Y-117900000D02*
X54762500Y-117900000D01*
G75*
G02*
X54525000Y-117662500I0J237500D01*
G01*
X54525000Y-117087500D01*
G75*
G02*
X54762500Y-116850000I237500J0D01*
G01*
X55237500Y-116850000D01*
G75*
G02*
X55475000Y-117087500I0J-237500D01*
G01*
X55475000Y-117662500D01*
G75*
G02*
X55237500Y-117900000I-237500J0D01*
G01*
G37*
G04 #@! TD.AperFunction*
G04 #@! TA.AperFunction,SMDPad,CuDef*
G36*
G01*
X51737500Y-116150000D02*
X51262500Y-116150000D01*
G75*
G02*
X51025000Y-115912500I0J237500D01*
G01*
X51025000Y-115337500D01*
G75*
G02*
X51262500Y-115100000I237500J0D01*
G01*
X51737500Y-115100000D01*
G75*
G02*
X51975000Y-115337500I0J-237500D01*
G01*
X51975000Y-115912500D01*
G75*
G02*
X51737500Y-116150000I-237500J0D01*
G01*
G37*
G04 #@! TD.AperFunction*
G04 #@! TA.AperFunction,SMDPad,CuDef*
G36*
G01*
X51737500Y-117900000D02*
X51262500Y-117900000D01*
G75*
G02*
X51025000Y-117662500I0J237500D01*
G01*
X51025000Y-117087500D01*
G75*
G02*
X51262500Y-116850000I237500J0D01*
G01*
X51737500Y-116850000D01*
G75*
G02*
X51975000Y-117087500I0J-237500D01*
G01*
X51975000Y-117662500D01*
G75*
G02*
X51737500Y-117900000I-237500J0D01*
G01*
G37*
G04 #@! TD.AperFunction*
D18*
X108000000Y-171000000D03*
X113080000Y-173540000D03*
X113080000Y-176080000D03*
X108000000Y-176080000D03*
X108000000Y-173540000D03*
D19*
X113080000Y-171000000D03*
D20*
X115000000Y-157000000D03*
X112000000Y-157000000D03*
D21*
X109000000Y-157000000D03*
G04 #@! TA.AperFunction,ComponentPad*
G36*
G01*
X198738000Y-100631000D02*
X198738000Y-99369000D01*
G75*
G02*
X199369000Y-98738000I631000J0D01*
G01*
X202631000Y-98738000D01*
G75*
G02*
X203262000Y-99369000I0J-631000D01*
G01*
X203262000Y-100631000D01*
G75*
G02*
X202631000Y-101262000I-631000J0D01*
G01*
X199369000Y-101262000D01*
G75*
G02*
X198738000Y-100631000I0J631000D01*
G01*
G37*
G04 #@! TD.AperFunction*
G04 #@! TA.AperFunction,ComponentPad*
G36*
G01*
X198738000Y-107631000D02*
X198738000Y-106369000D01*
G75*
G02*
X199369000Y-105738000I631000J0D01*
G01*
X202631000Y-105738000D01*
G75*
G02*
X203262000Y-106369000I0J-631000D01*
G01*
X203262000Y-107631000D01*
G75*
G02*
X202631000Y-108262000I-631000J0D01*
G01*
X199369000Y-108262000D01*
G75*
G02*
X198738000Y-107631000I0J631000D01*
G01*
G37*
G04 #@! TD.AperFunction*
D22*
X201000000Y-93000000D03*
D23*
X60500000Y-105500000D03*
X58000000Y-103000000D03*
X55500000Y-105500000D03*
X51500000Y-96500000D03*
X49000000Y-94000000D03*
X46500000Y-96500000D03*
X60500000Y-96500000D03*
X58000000Y-94000000D03*
X55500000Y-96500000D03*
X51500000Y-87500000D03*
X49000000Y-85000000D03*
X46500000Y-87500000D03*
X60500000Y-87500000D03*
X58000000Y-85000000D03*
X55500000Y-87500000D03*
G04 #@! TA.AperFunction,SMDPad,CuDef*
G36*
G01*
X113650000Y-165762500D02*
X113650000Y-166237500D01*
G75*
G02*
X113412500Y-166475000I-237500J0D01*
G01*
X112837500Y-166475000D01*
G75*
G02*
X112600000Y-166237500I0J237500D01*
G01*
X112600000Y-165762500D01*
G75*
G02*
X112837500Y-165525000I237500J0D01*
G01*
X113412500Y-165525000D01*
G75*
G02*
X113650000Y-165762500I0J-237500D01*
G01*
G37*
G04 #@! TD.AperFunction*
G04 #@! TA.AperFunction,SMDPad,CuDef*
G36*
G01*
X115400000Y-165762500D02*
X115400000Y-166237500D01*
G75*
G02*
X115162500Y-166475000I-237500J0D01*
G01*
X114587500Y-166475000D01*
G75*
G02*
X114350000Y-166237500I0J237500D01*
G01*
X114350000Y-165762500D01*
G75*
G02*
X114587500Y-165525000I237500J0D01*
G01*
X115162500Y-165525000D01*
G75*
G02*
X115400000Y-165762500I0J-237500D01*
G01*
G37*
G04 #@! TD.AperFunction*
G04 #@! TA.AperFunction,SMDPad,CuDef*
G36*
G01*
X109150000Y-165762500D02*
X109150000Y-166237500D01*
G75*
G02*
X108912500Y-166475000I-237500J0D01*
G01*
X108337500Y-166475000D01*
G75*
G02*
X108100000Y-166237500I0J237500D01*
G01*
X108100000Y-165762500D01*
G75*
G02*
X108337500Y-165525000I237500J0D01*
G01*
X108912500Y-165525000D01*
G75*
G02*
X109150000Y-165762500I0J-237500D01*
G01*
G37*
G04 #@! TD.AperFunction*
G04 #@! TA.AperFunction,SMDPad,CuDef*
G36*
G01*
X110900000Y-165762500D02*
X110900000Y-166237500D01*
G75*
G02*
X110662500Y-166475000I-237500J0D01*
G01*
X110087500Y-166475000D01*
G75*
G02*
X109850000Y-166237500I0J237500D01*
G01*
X109850000Y-165762500D01*
G75*
G02*
X110087500Y-165525000I237500J0D01*
G01*
X110662500Y-165525000D01*
G75*
G02*
X110900000Y-165762500I0J-237500D01*
G01*
G37*
G04 #@! TD.AperFunction*
G04 #@! TA.AperFunction,SMDPad,CuDef*
G36*
G01*
X59150000Y-111762500D02*
X59150000Y-112237500D01*
G75*
G02*
X58912500Y-112475000I-237500J0D01*
G01*
X58337500Y-112475000D01*
G75*
G02*
X58100000Y-112237500I0J237500D01*
G01*
X58100000Y-111762500D01*
G75*
G02*
X58337500Y-111525000I237500J0D01*
G01*
X58912500Y-111525000D01*
G75*
G02*
X59150000Y-111762500I0J-237500D01*
G01*
G37*
G04 #@! TD.AperFunction*
G04 #@! TA.AperFunction,SMDPad,CuDef*
G36*
G01*
X60900000Y-111762500D02*
X60900000Y-112237500D01*
G75*
G02*
X60662500Y-112475000I-237500J0D01*
G01*
X60087500Y-112475000D01*
G75*
G02*
X59850000Y-112237500I0J237500D01*
G01*
X59850000Y-111762500D01*
G75*
G02*
X60087500Y-111525000I237500J0D01*
G01*
X60662500Y-111525000D01*
G75*
G02*
X60900000Y-111762500I0J-237500D01*
G01*
G37*
G04 #@! TD.AperFunction*
G04 #@! TA.AperFunction,SMDPad,CuDef*
G36*
G01*
X54650000Y-111762500D02*
X54650000Y-112237500D01*
G75*
G02*
X54412500Y-112475000I-237500J0D01*
G01*
X53837500Y-112475000D01*
G75*
G02*
X53600000Y-112237500I0J237500D01*
G01*
X53600000Y-111762500D01*
G75*
G02*
X53837500Y-111525000I237500J0D01*
G01*
X54412500Y-111525000D01*
G75*
G02*
X54650000Y-111762500I0J-237500D01*
G01*
G37*
G04 #@! TD.AperFunction*
G04 #@! TA.AperFunction,SMDPad,CuDef*
G36*
G01*
X56400000Y-111762500D02*
X56400000Y-112237500D01*
G75*
G02*
X56162500Y-112475000I-237500J0D01*
G01*
X55587500Y-112475000D01*
G75*
G02*
X55350000Y-112237500I0J237500D01*
G01*
X55350000Y-111762500D01*
G75*
G02*
X55587500Y-111525000I237500J0D01*
G01*
X56162500Y-111525000D01*
G75*
G02*
X56400000Y-111762500I0J-237500D01*
G01*
G37*
G04 #@! TD.AperFunction*
G04 #@! TA.AperFunction,SMDPad,CuDef*
G36*
G01*
X196975000Y-116237500D02*
X196975000Y-115762500D01*
G75*
G02*
X197212500Y-115525000I237500J0D01*
G01*
X197787500Y-115525000D01*
G75*
G02*
X198025000Y-115762500I0J-237500D01*
G01*
X198025000Y-116237500D01*
G75*
G02*
X197787500Y-116475000I-237500J0D01*
G01*
X197212500Y-116475000D01*
G75*
G02*
X196975000Y-116237500I0J237500D01*
G01*
G37*
G04 #@! TD.AperFunction*
G04 #@! TA.AperFunction,SMDPad,CuDef*
G36*
G01*
X195225000Y-116237500D02*
X195225000Y-115762500D01*
G75*
G02*
X195462500Y-115525000I237500J0D01*
G01*
X196037500Y-115525000D01*
G75*
G02*
X196275000Y-115762500I0J-237500D01*
G01*
X196275000Y-116237500D01*
G75*
G02*
X196037500Y-116475000I-237500J0D01*
G01*
X195462500Y-116475000D01*
G75*
G02*
X195225000Y-116237500I0J237500D01*
G01*
G37*
G04 #@! TD.AperFunction*
G04 #@! TA.AperFunction,ComponentPad*
G36*
G01*
X182000000Y-106500000D02*
X179000000Y-106500000D01*
G75*
G02*
X177500000Y-105000000I0J1500000D01*
G01*
X177500000Y-102000000D01*
G75*
G02*
X179000000Y-100500000I1500000J0D01*
G01*
X182000000Y-100500000D01*
G75*
G02*
X183500000Y-102000000I0J-1500000D01*
G01*
X183500000Y-105000000D01*
G75*
G02*
X182000000Y-106500000I-1500000J0D01*
G01*
G37*
G04 #@! TD.AperFunction*
D24*
X180500000Y-96300000D03*
D25*
X189500000Y-88316000D03*
X189500000Y-111684000D03*
X189500000Y-94754000D03*
X189500000Y-105246000D03*
G04 #@! TA.AperFunction,SMDPad,CuDef*
G36*
G01*
X200775000Y-115762500D02*
X200775000Y-116237500D01*
G75*
G02*
X200537500Y-116475000I-237500J0D01*
G01*
X199962500Y-116475000D01*
G75*
G02*
X199725000Y-116237500I0J237500D01*
G01*
X199725000Y-115762500D01*
G75*
G02*
X199962500Y-115525000I237500J0D01*
G01*
X200537500Y-115525000D01*
G75*
G02*
X200775000Y-115762500I0J-237500D01*
G01*
G37*
G04 #@! TD.AperFunction*
G04 #@! TA.AperFunction,SMDPad,CuDef*
G36*
G01*
X202525000Y-115762500D02*
X202525000Y-116237500D01*
G75*
G02*
X202287500Y-116475000I-237500J0D01*
G01*
X201712500Y-116475000D01*
G75*
G02*
X201475000Y-116237500I0J237500D01*
G01*
X201475000Y-115762500D01*
G75*
G02*
X201712500Y-115525000I237500J0D01*
G01*
X202287500Y-115525000D01*
G75*
G02*
X202525000Y-115762500I0J-237500D01*
G01*
G37*
G04 #@! TD.AperFunction*
D26*
X47000000Y-103880000D03*
X49540000Y-111500000D03*
X49540000Y-103880000D03*
D27*
X47000000Y-111500000D03*
D28*
X71098100Y-116775300D03*
X56847200Y-115625000D03*
X60889600Y-115625000D03*
X63290200Y-115984700D03*
D29*
X58625000Y-111138400D02*
X58625000Y-110325800D01*
X58625000Y-110325800D02*
X68000000Y-100950800D01*
X58625000Y-112000000D02*
X58625000Y-111138400D01*
X47000000Y-103880000D02*
X47000000Y-106205600D01*
X47000000Y-106205600D02*
X53595700Y-112801300D01*
X53595700Y-112801300D02*
X54678800Y-112801300D01*
X54678800Y-112801300D02*
X55000000Y-112480100D01*
X55000000Y-112480100D02*
X55000000Y-111507800D01*
X55000000Y-111507800D02*
X55369400Y-111138400D01*
X55369400Y-111138400D02*
X58625000Y-111138400D01*
X68000000Y-100000000D02*
X68000000Y-100950800D01*
X47000000Y-111500000D02*
X49540000Y-111500000D01*
X51985800Y-107451100D02*
X54125000Y-109590300D01*
X54125000Y-109590300D02*
X54125000Y-112000000D01*
X49540000Y-105005300D02*
X51985800Y-107451100D01*
X51985800Y-107451100D02*
X62436900Y-97000000D01*
X62436900Y-97000000D02*
X68000000Y-97000000D01*
X49540000Y-103880000D02*
X49540000Y-105005300D01*
X200250000Y-116000000D02*
X197500000Y-116000000D01*
D30*
X185250000Y-117250000D02*
X185854100Y-117854100D01*
X185854100Y-117854100D02*
X201135200Y-117854100D01*
X201135200Y-117854100D02*
X202076400Y-116912900D01*
X202076400Y-116912900D02*
X202076400Y-116000000D01*
X183000000Y-115000000D02*
X185108800Y-117108800D01*
X185108800Y-117108800D02*
X185108900Y-117108800D01*
X185108900Y-117108800D02*
X185108900Y-117108900D01*
X185108900Y-117108900D02*
X185250000Y-117250000D01*
D31*
X202076400Y-116000000D02*
X202000000Y-116000000D01*
D30*
X201000000Y-93000000D02*
X201000000Y-90437700D01*
X189500000Y-88316000D02*
X198878300Y-88316000D01*
X198878300Y-88316000D02*
X201000000Y-90437700D01*
X174732200Y-124232200D02*
X164172100Y-134792300D01*
X164172100Y-134792300D02*
X164172100Y-138327900D01*
X164172100Y-138327900D02*
X152500000Y-150000000D01*
X180699700Y-112500000D02*
X178514600Y-114685100D01*
X178514600Y-114685100D02*
X178514600Y-120449800D01*
X178514600Y-120449800D02*
X174732200Y-124232200D01*
X136000000Y-163500000D02*
X136000000Y-159598800D01*
X136000000Y-159598800D02*
X140899200Y-154699600D01*
X140899200Y-154699600D02*
X147800400Y-154699600D01*
X147800400Y-154699600D02*
X152500000Y-150000000D01*
X183000000Y-112500000D02*
X185300300Y-112500000D01*
X189500000Y-111684000D02*
X186116300Y-111684000D01*
X186116300Y-111684000D02*
X185300300Y-112500000D01*
X195275000Y-115525000D02*
X191434000Y-111684000D01*
X191434000Y-111684000D02*
X189500000Y-111684000D01*
X183000000Y-112500000D02*
X180699700Y-112500000D01*
D31*
X195275000Y-115525000D02*
X195750000Y-116000000D01*
D32*
X180500000Y-96300000D02*
X180967500Y-96300000D01*
X180967500Y-96300000D02*
X184667500Y-100000000D01*
X184667500Y-100000000D02*
X201000000Y-100000000D01*
D29*
X51500000Y-87500000D02*
X52540900Y-86459100D01*
X52540900Y-86459100D02*
X65540900Y-86459100D01*
X65540900Y-86459100D02*
X68000000Y-84000000D01*
X51500000Y-96500000D02*
X57568800Y-90431200D01*
X57568800Y-90431200D02*
X64568800Y-90431200D01*
X64568800Y-90431200D02*
X68000000Y-87000000D01*
X58000000Y-103000000D02*
X60500000Y-105500000D01*
X68000000Y-90000000D02*
X67049200Y-90000000D01*
X55500000Y-96500000D02*
X56540900Y-95459100D01*
X56540900Y-95459100D02*
X61590100Y-95459100D01*
X61590100Y-95459100D02*
X67049200Y-90000000D01*
X55875000Y-112000000D02*
X56682900Y-112807900D01*
X56682900Y-112807900D02*
X59567100Y-112807900D01*
X59567100Y-112807900D02*
X60375000Y-112000000D01*
X60375000Y-112000000D02*
X60375000Y-110437800D01*
X60375000Y-110437800D02*
X68950900Y-101861900D01*
X68950900Y-101861900D02*
X68950900Y-99224900D01*
X68950900Y-99224900D02*
X68226000Y-98500000D01*
X68226000Y-98500000D02*
X68000000Y-98500000D01*
X115000000Y-157000000D02*
X115000000Y-155824700D01*
X115000000Y-155824700D02*
X102824700Y-155824700D01*
X102824700Y-155824700D02*
X99803300Y-152803300D01*
X114875000Y-166000000D02*
X108510800Y-159635800D01*
X108510800Y-159635800D02*
X105249300Y-159635800D01*
X105249300Y-159635800D02*
X98742600Y-153129100D01*
X98742600Y-153129100D02*
X98742600Y-151742600D01*
X110375000Y-166000000D02*
X95560700Y-151185700D01*
X95560700Y-151185700D02*
X95560700Y-148560700D01*
X108625000Y-166000000D02*
X108000000Y-166625000D01*
X108000000Y-166625000D02*
X108000000Y-171000000D01*
X113125000Y-166000000D02*
X109452600Y-169672400D01*
X109452600Y-169672400D02*
X109452600Y-174627400D01*
X109452600Y-174627400D02*
X108000000Y-176080000D01*
X51500000Y-115625000D02*
X52375000Y-116500000D01*
X52375000Y-116500000D02*
X62598400Y-116500000D01*
X62598400Y-116500000D02*
X62873600Y-116775200D01*
X62873600Y-116775200D02*
X71098100Y-116775200D01*
X71098100Y-116775200D02*
X71098100Y-116775300D01*
X47500000Y-116270000D02*
X48325300Y-116270000D01*
X51500000Y-117375000D02*
X49430300Y-117375000D01*
X49430300Y-117375000D02*
X48325300Y-116270000D01*
X55000000Y-117375000D02*
X51500000Y-117375000D01*
X58500000Y-117375000D02*
X62000000Y-117375000D01*
X55000000Y-117375000D02*
X58500000Y-117375000D01*
X55000000Y-115625000D02*
X56847200Y-115625000D01*
X58500000Y-115625000D02*
X60889600Y-115625000D01*
X62000000Y-115625000D02*
X62930500Y-115625000D01*
X62930500Y-115625000D02*
X63290200Y-115984700D01*
M02*
