G04 #@! TF.GenerationSoftware,KiCad,Pcbnew,(5.1.6)-1*
G04 #@! TF.CreationDate,2021-11-09T00:45:41+09:00*
G04 #@! TF.ProjectId,control20211108,636f6e74-726f-46c3-9230-323131313038,V1.1*
G04 #@! TF.SameCoordinates,Original*
G04 #@! TF.FileFunction,Soldermask,Bot*
G04 #@! TF.FilePolarity,Negative*
%FSLAX46Y46*%
G04 Gerber Fmt 4.6, Leading zero omitted, Abs format (unit mm)*
G04 Created by KiCad (PCBNEW (5.1.6)-1) date 2021-11-09 00:45:41*
%MOMM*%
%LPD*%
G01*
G04 APERTURE LIST*
%ADD10O,1.700000X2.000000*%
%ADD11C,1.251000*%
%ADD12C,0.100000*%
%ADD13R,1.251000X1.251000*%
%ADD14C,2.200000*%
%ADD15O,2.000000X1.700000*%
%ADD16O,1.000000X1.000000*%
%ADD17R,1.000000X1.000000*%
%ADD18C,1.524000*%
%ADD19R,1.524000X1.524000*%
%ADD20O,2.500000X1.700000*%
%ADD21R,2.500000X1.700000*%
%ADD22R,4.524000X2.524000*%
%ADD23C,1.431000*%
%ADD24C,6.000000*%
%ADD25C,4.000000*%
%ADD26O,1.600000X1.600000*%
%ADD27R,1.600000X1.600000*%
G04 APERTURE END LIST*
G36*
G01*
X175439340Y-124727208D02*
X175227208Y-124939340D01*
G75*
G02*
X174025126Y-124939340I-601041J601041D01*
G01*
X174025126Y-124939340D01*
G75*
G02*
X174025126Y-123737258I601041J601041D01*
G01*
X174237258Y-123525126D01*
G75*
G02*
X175439340Y-123525126I601041J-601041D01*
G01*
X175439340Y-123525126D01*
G75*
G02*
X175439340Y-124727208I-601041J-601041D01*
G01*
G37*
G36*
G01*
X177631371Y-126070711D02*
X176570711Y-127131371D01*
G75*
G02*
X176217157Y-127131371I-176777J176777D01*
G01*
X175368629Y-126282843D01*
G75*
G02*
X175368629Y-125929289I176777J176777D01*
G01*
X176429289Y-124868629D01*
G75*
G02*
X176782843Y-124868629I176777J-176777D01*
G01*
X177631371Y-125717157D01*
G75*
G02*
X177631371Y-126070711I-176777J-176777D01*
G01*
G37*
G36*
G01*
X151439340Y-148727208D02*
X151227208Y-148939340D01*
G75*
G02*
X150025126Y-148939340I-601041J601041D01*
G01*
X150025126Y-148939340D01*
G75*
G02*
X150025126Y-147737258I601041J601041D01*
G01*
X150237258Y-147525126D01*
G75*
G02*
X151439340Y-147525126I601041J-601041D01*
G01*
X151439340Y-147525126D01*
G75*
G02*
X151439340Y-148727208I-601041J-601041D01*
G01*
G37*
G36*
G01*
X153631371Y-150070711D02*
X152570711Y-151131371D01*
G75*
G02*
X152217157Y-151131371I-176777J176777D01*
G01*
X151368629Y-150282843D01*
G75*
G02*
X151368629Y-149929289I176777J176777D01*
G01*
X152429289Y-148868629D01*
G75*
G02*
X152782843Y-148868629I176777J-176777D01*
G01*
X153631371Y-149717157D01*
G75*
G02*
X153631371Y-150070711I-176777J-176777D01*
G01*
G37*
D10*
X138500000Y-163500000D03*
G36*
G01*
X135150000Y-164250000D02*
X135150000Y-162750000D01*
G75*
G02*
X135400000Y-162500000I250000J0D01*
G01*
X136600000Y-162500000D01*
G75*
G02*
X136850000Y-162750000I0J-250000D01*
G01*
X136850000Y-164250000D01*
G75*
G02*
X136600000Y-164500000I-250000J0D01*
G01*
X135400000Y-164500000D01*
G75*
G02*
X135150000Y-164250000I0J250000D01*
G01*
G37*
D11*
X99803301Y-152803301D03*
X98742641Y-151742641D03*
X97681981Y-150681981D03*
X96621320Y-149621320D03*
X95560660Y-148560660D03*
D12*
G36*
X93615409Y-147500000D02*
G01*
X94500000Y-146615409D01*
X95384591Y-147500000D01*
X94500000Y-148384591D01*
X93615409Y-147500000D01*
G37*
D11*
X68000000Y-95500000D03*
X68000000Y-97000000D03*
X68000000Y-98500000D03*
D13*
X68000000Y-100000000D03*
D11*
X68000000Y-82500000D03*
X68000000Y-84000000D03*
X68000000Y-85500000D03*
X68000000Y-87000000D03*
X68000000Y-88500000D03*
D13*
X68000000Y-90000000D03*
D11*
X68000000Y-104750000D03*
X68000000Y-106250000D03*
X68000000Y-107750000D03*
X68000000Y-109250000D03*
X68000000Y-110750000D03*
D13*
X68000000Y-112250000D03*
D14*
X123000000Y-158500000D03*
X144500000Y-158500000D03*
D15*
X183000000Y-85000000D03*
G36*
G01*
X183750000Y-88350000D02*
X182250000Y-88350000D01*
G75*
G02*
X182000000Y-88100000I0J250000D01*
G01*
X182000000Y-86900000D01*
G75*
G02*
X182250000Y-86650000I250000J0D01*
G01*
X183750000Y-86650000D01*
G75*
G02*
X184000000Y-86900000I0J-250000D01*
G01*
X184000000Y-88100000D01*
G75*
G02*
X183750000Y-88350000I-250000J0D01*
G01*
G37*
X183000000Y-112500000D03*
G36*
G01*
X183750000Y-115850000D02*
X182250000Y-115850000D01*
G75*
G02*
X182000000Y-115600000I0J250000D01*
G01*
X182000000Y-114400000D01*
G75*
G02*
X182250000Y-114150000I250000J0D01*
G01*
X183750000Y-114150000D01*
G75*
G02*
X184000000Y-114400000I0J-250000D01*
G01*
X184000000Y-115600000D01*
G75*
G02*
X183750000Y-115850000I-250000J0D01*
G01*
G37*
G36*
G01*
X69169975Y-120347549D02*
X69505851Y-120683425D01*
G75*
G02*
X69505851Y-121019301I-167938J-167938D01*
G01*
X69099265Y-121425887D01*
G75*
G02*
X68763389Y-121425887I-167938J167938D01*
G01*
X68427513Y-121090011D01*
G75*
G02*
X68427513Y-120754135I167938J167938D01*
G01*
X68834099Y-120347549D01*
G75*
G02*
X69169975Y-120347549I167938J-167938D01*
G01*
G37*
G36*
G01*
X70407411Y-119110113D02*
X70743287Y-119445989D01*
G75*
G02*
X70743287Y-119781865I-167938J-167938D01*
G01*
X70336701Y-120188451D01*
G75*
G02*
X70000825Y-120188451I-167938J167938D01*
G01*
X69664949Y-119852575D01*
G75*
G02*
X69664949Y-119516699I167938J167938D01*
G01*
X70071535Y-119110113D01*
G75*
G02*
X70407411Y-119110113I167938J-167938D01*
G01*
G37*
G36*
G01*
X71644875Y-122822549D02*
X71980751Y-123158425D01*
G75*
G02*
X71980751Y-123494301I-167938J-167938D01*
G01*
X71574165Y-123900887D01*
G75*
G02*
X71238289Y-123900887I-167938J167938D01*
G01*
X70902413Y-123565011D01*
G75*
G02*
X70902413Y-123229135I167938J167938D01*
G01*
X71308999Y-122822549D01*
G75*
G02*
X71644875Y-122822549I167938J-167938D01*
G01*
G37*
G36*
G01*
X72882311Y-121585113D02*
X73218187Y-121920989D01*
G75*
G02*
X73218187Y-122256865I-167938J-167938D01*
G01*
X72811601Y-122663451D01*
G75*
G02*
X72475725Y-122663451I-167938J167938D01*
G01*
X72139849Y-122327575D01*
G75*
G02*
X72139849Y-121991699I167938J167938D01*
G01*
X72546435Y-121585113D01*
G75*
G02*
X72882311Y-121585113I167938J-167938D01*
G01*
G37*
G36*
G01*
X74119775Y-125297549D02*
X74455651Y-125633425D01*
G75*
G02*
X74455651Y-125969301I-167938J-167938D01*
G01*
X74049065Y-126375887D01*
G75*
G02*
X73713189Y-126375887I-167938J167938D01*
G01*
X73377313Y-126040011D01*
G75*
G02*
X73377313Y-125704135I167938J167938D01*
G01*
X73783899Y-125297549D01*
G75*
G02*
X74119775Y-125297549I167938J-167938D01*
G01*
G37*
G36*
G01*
X75357211Y-124060113D02*
X75693087Y-124395989D01*
G75*
G02*
X75693087Y-124731865I-167938J-167938D01*
G01*
X75286501Y-125138451D01*
G75*
G02*
X74950625Y-125138451I-167938J167938D01*
G01*
X74614749Y-124802575D01*
G75*
G02*
X74614749Y-124466699I167938J167938D01*
G01*
X75021335Y-124060113D01*
G75*
G02*
X75357211Y-124060113I167938J-167938D01*
G01*
G37*
G36*
G01*
X77425425Y-127613451D02*
X77089549Y-127277575D01*
G75*
G02*
X77089549Y-126941699I167938J167938D01*
G01*
X77496135Y-126535113D01*
G75*
G02*
X77832011Y-126535113I167938J-167938D01*
G01*
X78167887Y-126870989D01*
G75*
G02*
X78167887Y-127206865I-167938J-167938D01*
G01*
X77761301Y-127613451D01*
G75*
G02*
X77425425Y-127613451I-167938J167938D01*
G01*
G37*
G36*
G01*
X76187989Y-128850887D02*
X75852113Y-128515011D01*
G75*
G02*
X75852113Y-128179135I167938J167938D01*
G01*
X76258699Y-127772549D01*
G75*
G02*
X76594575Y-127772549I167938J-167938D01*
G01*
X76930451Y-128108425D01*
G75*
G02*
X76930451Y-128444301I-167938J-167938D01*
G01*
X76523865Y-128850887D01*
G75*
G02*
X76187989Y-128850887I-167938J167938D01*
G01*
G37*
D16*
X47500000Y-116270000D03*
D17*
X47500000Y-115000000D03*
D18*
X108000000Y-171000000D03*
X113080000Y-173540000D03*
X113080000Y-176080000D03*
X108000000Y-176080000D03*
X108000000Y-173540000D03*
D19*
X113080000Y-171000000D03*
D20*
X115000000Y-157000000D03*
X112000000Y-157000000D03*
D21*
X109000000Y-157000000D03*
G36*
G01*
X198738000Y-100631000D02*
X198738000Y-99369000D01*
G75*
G02*
X199369000Y-98738000I631000J0D01*
G01*
X202631000Y-98738000D01*
G75*
G02*
X203262000Y-99369000I0J-631000D01*
G01*
X203262000Y-100631000D01*
G75*
G02*
X202631000Y-101262000I-631000J0D01*
G01*
X199369000Y-101262000D01*
G75*
G02*
X198738000Y-100631000I0J631000D01*
G01*
G37*
G36*
G01*
X198738000Y-107631000D02*
X198738000Y-106369000D01*
G75*
G02*
X199369000Y-105738000I631000J0D01*
G01*
X202631000Y-105738000D01*
G75*
G02*
X203262000Y-106369000I0J-631000D01*
G01*
X203262000Y-107631000D01*
G75*
G02*
X202631000Y-108262000I-631000J0D01*
G01*
X199369000Y-108262000D01*
G75*
G02*
X198738000Y-107631000I0J631000D01*
G01*
G37*
D22*
X201000000Y-93000000D03*
D23*
X60500000Y-105500000D03*
X58000000Y-103000000D03*
X55500000Y-105500000D03*
X51500000Y-96500000D03*
X49000000Y-94000000D03*
X46500000Y-96500000D03*
X60500000Y-96500000D03*
X58000000Y-94000000D03*
X55500000Y-96500000D03*
X51500000Y-87500000D03*
X49000000Y-85000000D03*
X46500000Y-87500000D03*
X60500000Y-87500000D03*
X58000000Y-85000000D03*
X55500000Y-87500000D03*
G36*
G01*
X182000000Y-106500000D02*
X179000000Y-106500000D01*
G75*
G02*
X177500000Y-105000000I0J1500000D01*
G01*
X177500000Y-102000000D01*
G75*
G02*
X179000000Y-100500000I1500000J0D01*
G01*
X182000000Y-100500000D01*
G75*
G02*
X183500000Y-102000000I0J-1500000D01*
G01*
X183500000Y-105000000D01*
G75*
G02*
X182000000Y-106500000I-1500000J0D01*
G01*
G37*
D24*
X180500000Y-96300000D03*
D25*
X189500000Y-88316000D03*
X189500000Y-111684000D03*
X189500000Y-94754000D03*
X189500000Y-105246000D03*
D26*
X47000000Y-103880000D03*
X49540000Y-111500000D03*
X49540000Y-103880000D03*
D27*
X47000000Y-111500000D03*
M02*
