M48
; DRILL file {KiCad (5.1.6)-1} date 11/09/21 00:45:51
; FORMAT={3:3/ absolute / metric / suppress leading zeros}
; #@! TF.CreationDate,2021-11-09T00:45:51+09:00
; #@! TF.GenerationSoftware,Kicad,Pcbnew,(5.1.6)-1
FMAT,2
METRIC,TZ
T1C0.400
T2C0.650
T3C0.700
T4C0.730
T5C0.800
T6C0.813
T7C0.920
T8C1.000
T9C1.100
T10C2.000
T11C4.500
T12C2.200
%
G90
G05
T1
X56847Y-115625
X60890Y-115625
X63290Y-115985
X71098Y-116775
T2
X47500Y-115000
X47500Y-116270
T4
X68000Y-82500
X68000Y-84000
X68000Y-85500
X68000Y-87000
X68000Y-88500
X68000Y-90000
X68000Y-95500
X68000Y-97000
X68000Y-98500
X68000Y-100000
X68000Y-104750
X68000Y-106250
X68000Y-107750
X68000Y-109250
X68000Y-110750
X68000Y-112250
X94500Y-147500
X95561Y-148561
X96621Y-149621
X97682Y-150682
X98743Y-151743
X99803Y-152803
T5
X47000Y-103880
X47000Y-111500
X49540Y-103880
X49540Y-111500
T6
X108000Y-171000
X108000Y-173540
X108000Y-176080
X113080Y-171000
X113080Y-173540
X113080Y-176080
T7
X55500Y-96500
X58000Y-94000
X60500Y-96500
X46500Y-87500
X49000Y-85000
X51500Y-87500
X46500Y-96500
X49000Y-94000
X51500Y-96500
X55500Y-105500
X58000Y-103000
X60500Y-105500
X55500Y-87500
X58000Y-85000
X60500Y-87500
T8
X183000Y-112500
X183000Y-115000
X136000Y-163500
X138500Y-163500
X183000Y-85000
X183000Y-87500
X150732Y-148232
X152500Y-150000
X174732Y-124232
X176500Y-126000
T10
X189500Y-88316
X189500Y-94754
X189500Y-105246
X189500Y-111684
T11
X180500Y-96300
X180500Y-103500
T12
X123000Y-158500
X144500Y-158500
T3
G00X108500Y-157000
M15
G01X109500Y-157000
M16
G05
G00X111500Y-157000
M15
G01X112500Y-157000
M16
G05
G00X114500Y-157000
M15
G01X115500Y-157000
M16
G05
T9
G00X199850Y-93000
M15
G01X202150Y-93000
M16
G05
G00X199850Y-100000
M15
G01X202150Y-100000
M16
G05
G00X199850Y-107000
M15
G01X202150Y-107000
M16
G05
T0
M30
