G04 #@! TF.GenerationSoftware,KiCad,Pcbnew,(6.0.1)*
G04 #@! TF.CreationDate,2022-02-25T16:24:57+09:00*
G04 #@! TF.ProjectId,kick-drib-2,6b69636b-2d64-4726-9962-2d322e6b6963,V1.1*
G04 #@! TF.SameCoordinates,Original*
G04 #@! TF.FileFunction,Copper,L2,Bot*
G04 #@! TF.FilePolarity,Positive*
%FSLAX46Y46*%
G04 Gerber Fmt 4.6, Leading zero omitted, Abs format (unit mm)*
G04 Created by KiCad (PCBNEW (6.0.1)) date 2022-02-25 16:24:57*
%MOMM*%
%LPD*%
G01*
G04 APERTURE LIST*
G04 Aperture macros list*
%AMRoundRect*
0 Rectangle with rounded corners*
0 $1 Rounding radius*
0 $2 $3 $4 $5 $6 $7 $8 $9 X,Y pos of 4 corners*
0 Add a 4 corners polygon primitive as box body*
4,1,4,$2,$3,$4,$5,$6,$7,$8,$9,$2,$3,0*
0 Add four circle primitives for the rounded corners*
1,1,$1+$1,$2,$3*
1,1,$1+$1,$4,$5*
1,1,$1+$1,$6,$7*
1,1,$1+$1,$8,$9*
0 Add four rect primitives between the rounded corners*
20,1,$1+$1,$2,$3,$4,$5,0*
20,1,$1+$1,$4,$5,$6,$7,0*
20,1,$1+$1,$6,$7,$8,$9,0*
20,1,$1+$1,$8,$9,$2,$3,0*%
%AMHorizOval*
0 Thick line with rounded ends*
0 $1 width*
0 $2 $3 position (X,Y) of the first rounded end (center of the circle)*
0 $4 $5 position (X,Y) of the second rounded end (center of the circle)*
0 Add line between two ends*
20,1,$1,$2,$3,$4,$5,0*
0 Add two circle primitives to create the rounded ends*
1,1,$1,$2,$3*
1,1,$1,$4,$5*%
%AMRotRect*
0 Rectangle, with rotation*
0 The origin of the aperture is its center*
0 $1 length*
0 $2 width*
0 $3 Rotation angle, in degrees counterclockwise*
0 Add horizontal line*
21,1,$1,$2,0,0,$3*%
G04 Aperture macros list end*
G04 #@! TA.AperFunction,ComponentPad*
%ADD10RoundRect,0.250000X0.954594X0.106066X0.106066X0.954594X-0.954594X-0.106066X-0.106066X-0.954594X0*%
G04 #@! TD*
G04 #@! TA.AperFunction,ComponentPad*
%ADD11HorizOval,1.700000X0.106066X0.106066X-0.106066X-0.106066X0*%
G04 #@! TD*
G04 #@! TA.AperFunction,ComponentPad*
%ADD12RotRect,1.700000X1.700000X135.000000*%
G04 #@! TD*
G04 #@! TA.AperFunction,ComponentPad*
%ADD13HorizOval,1.700000X0.000000X0.000000X0.000000X0.000000X0*%
G04 #@! TD*
G04 #@! TA.AperFunction,ComponentPad*
%ADD14C,1.800000*%
G04 #@! TD*
G04 #@! TA.AperFunction,ComponentPad*
%ADD15C,1.431000*%
G04 #@! TD*
G04 #@! TA.AperFunction,ComponentPad*
%ADD16RoundRect,0.250000X0.106066X-0.954594X0.954594X-0.106066X-0.106066X0.954594X-0.954594X0.106066X0*%
G04 #@! TD*
G04 #@! TA.AperFunction,ComponentPad*
%ADD17HorizOval,1.700000X-0.106066X0.106066X0.106066X-0.106066X0*%
G04 #@! TD*
G04 #@! TA.AperFunction,ComponentPad*
%ADD18C,2.400000*%
G04 #@! TD*
G04 #@! TA.AperFunction,ComponentPad*
%ADD19O,2.400000X2.400000*%
G04 #@! TD*
G04 #@! TA.AperFunction,ComponentPad*
%ADD20RotRect,1.700000X1.700000X45.000000*%
G04 #@! TD*
G04 #@! TA.AperFunction,ComponentPad*
%ADD21HorizOval,1.700000X0.000000X0.000000X0.000000X0.000000X0*%
G04 #@! TD*
G04 #@! TA.AperFunction,ComponentPad*
%ADD22C,1.400000*%
G04 #@! TD*
G04 #@! TA.AperFunction,ComponentPad*
%ADD23O,1.400000X1.400000*%
G04 #@! TD*
G04 #@! TA.AperFunction,ComponentPad*
%ADD24R,2.400000X2.400000*%
G04 #@! TD*
G04 #@! TA.AperFunction,ComponentPad*
%ADD25R,1.727200X1.727200*%
G04 #@! TD*
G04 #@! TA.AperFunction,ComponentPad*
%ADD26O,1.727200X1.727200*%
G04 #@! TD*
G04 #@! TA.AperFunction,ComponentPad*
%ADD27R,2.000000X2.000000*%
G04 #@! TD*
G04 #@! TA.AperFunction,ComponentPad*
%ADD28C,2.000000*%
G04 #@! TD*
G04 #@! TA.AperFunction,ComponentPad*
%ADD29R,1.700000X1.700000*%
G04 #@! TD*
G04 #@! TA.AperFunction,ComponentPad*
%ADD30O,1.700000X1.700000*%
G04 #@! TD*
G04 #@! TA.AperFunction,ViaPad*
%ADD31C,0.800000*%
G04 #@! TD*
G04 #@! TA.AperFunction,Conductor*
%ADD32C,0.250000*%
G04 #@! TD*
G04 #@! TA.AperFunction,Conductor*
%ADD33C,0.500000*%
G04 #@! TD*
G04 #@! TA.AperFunction,Conductor*
%ADD34C,1.000000*%
G04 #@! TD*
G04 APERTURE END LIST*
D10*
X104000000Y-111000000D03*
D11*
X102232233Y-109232233D03*
D12*
X74313000Y-92687000D03*
D13*
X76109051Y-90890949D03*
X77905102Y-89094898D03*
X79701154Y-87298846D03*
D14*
X48000000Y-121000000D03*
X48000000Y-109000000D03*
D15*
X52540000Y-125500000D03*
X50000000Y-128000000D03*
X52540000Y-130500000D03*
D16*
X102232200Y-121000000D03*
D17*
X103999967Y-119232233D03*
D18*
X75160000Y-109000000D03*
D19*
X54840000Y-109000000D03*
D20*
X74407900Y-137407900D03*
D21*
X76203951Y-139203951D03*
X78000002Y-141000002D03*
X79796054Y-142796054D03*
D22*
X51000000Y-112460000D03*
D23*
X51000000Y-117540000D03*
D24*
X79426000Y-133000000D03*
D18*
X86926000Y-133000000D03*
D25*
X95000000Y-124000000D03*
D26*
X94960000Y-106000000D03*
X55000000Y-124000000D03*
X55000000Y-106000000D03*
D27*
X68957500Y-102407500D03*
D28*
X66417500Y-102407500D03*
X58797500Y-102407500D03*
X58797500Y-97327500D03*
X66417500Y-97327500D03*
X68957500Y-97327500D03*
D24*
X86574000Y-97000000D03*
D18*
X79074000Y-97000000D03*
D29*
X79420000Y-108500000D03*
D30*
X81960000Y-108500000D03*
X84500000Y-108500000D03*
D31*
X86411900Y-111126800D03*
X68455000Y-133846900D03*
X65585400Y-132187500D03*
X74847200Y-118069700D03*
X70578100Y-130000000D03*
X85011300Y-101329600D03*
X85000000Y-99930089D03*
D32*
X85680500Y-125220200D02*
X85680500Y-102079000D01*
X85680500Y-102079000D02*
X86574000Y-101185500D01*
X58797500Y-101042400D02*
X58797500Y-97327500D01*
X71147800Y-102079000D02*
X85680500Y-102079000D01*
X58797500Y-101042400D02*
X70111200Y-101042400D01*
X79426000Y-131474700D02*
X85680500Y-125220200D01*
X86574000Y-101185500D02*
X86574000Y-97000000D01*
X58797500Y-102407500D02*
X58797500Y-101042400D01*
X79426000Y-133000000D02*
X79426000Y-131474700D01*
X70111200Y-101042400D02*
X71147800Y-102079000D01*
D33*
X93646100Y-106000000D02*
X92592400Y-104946300D01*
X82638100Y-90014300D02*
X92592400Y-99968600D01*
X92592400Y-104946300D02*
X86411900Y-111126800D01*
X94960000Y-106000000D02*
X93646100Y-106000000D01*
X92592400Y-99968600D02*
X92592400Y-104946300D01*
X78824600Y-90014300D02*
X82638100Y-90014300D01*
X77905100Y-89094900D02*
X78824600Y-90014300D01*
X94612100Y-125313900D02*
X95000000Y-125313900D01*
X48000000Y-116178800D02*
X54507300Y-122686100D01*
X48000000Y-109000000D02*
X48000000Y-116178800D01*
X95000000Y-116464400D02*
X102232200Y-109232200D01*
X95000000Y-124000000D02*
X95000000Y-125313900D01*
X54507300Y-122686100D02*
X55000000Y-122686100D01*
X86926000Y-133000000D02*
X94612100Y-125313900D01*
X95000000Y-124000000D02*
X95000000Y-116464400D01*
X55000000Y-124000000D02*
X55000000Y-122686100D01*
D32*
X70846900Y-133846900D02*
X74407900Y-137407900D01*
X68455000Y-133846900D02*
X70846900Y-133846900D01*
X76204000Y-137496800D02*
X70894700Y-132187500D01*
X70894700Y-132187500D02*
X65585400Y-132187500D01*
X76204000Y-139204000D02*
X77035100Y-138372900D01*
X76204000Y-137541900D02*
X76204000Y-137496800D01*
X77035100Y-138372900D02*
X76204000Y-137541900D01*
X52540000Y-125500000D02*
X61244700Y-125500000D01*
X79420000Y-108500000D02*
X78244700Y-108500000D01*
X61244700Y-125500000D02*
X78244700Y-108500000D01*
X80784700Y-109308000D02*
X80784700Y-108500000D01*
X81960000Y-108500000D02*
X80784700Y-108500000D01*
X62092700Y-128000000D02*
X80784700Y-109308000D01*
X50000000Y-128000000D02*
X62092700Y-128000000D01*
X61391200Y-130500000D02*
X52540000Y-130500000D01*
X83324700Y-108867300D02*
X74847600Y-117344400D01*
X83324700Y-108500000D02*
X83324700Y-108867300D01*
X84500000Y-108500000D02*
X83324700Y-108500000D01*
X74546800Y-117344400D02*
X61391200Y-130500000D01*
X74847600Y-117344400D02*
X74546800Y-117344400D01*
X69892800Y-103732800D02*
X68957500Y-103732800D01*
X75160000Y-109000000D02*
X69892800Y-103732800D01*
X68957500Y-102407500D02*
X68957500Y-103732800D01*
X74847200Y-125730900D02*
X70578100Y-130000000D01*
X74847200Y-118069700D02*
X74847200Y-125730900D01*
X49229300Y-106000000D02*
X55000000Y-106000000D01*
X48000000Y-121000000D02*
X46726000Y-119726000D01*
X46726000Y-119726000D02*
X46726000Y-108503300D01*
X46726000Y-108503300D02*
X49229300Y-106000000D01*
D33*
X72959600Y-101329600D02*
X68957500Y-97327500D01*
X85011300Y-101329600D02*
X72959600Y-101329600D01*
D34*
X74313000Y-92687000D02*
X74313000Y-97313000D01*
X76930089Y-99930089D02*
X85000000Y-99930089D01*
X74313000Y-97313000D02*
X76930089Y-99930089D01*
G04 #@! TA.AperFunction,Conductor*
G36*
X80366399Y-84742752D02*
G01*
X80559267Y-84770483D01*
X80576824Y-84774302D01*
X80763787Y-84829199D01*
X80780631Y-84835481D01*
X80957878Y-84916427D01*
X80973657Y-84925043D01*
X81137578Y-85030389D01*
X81151969Y-85041162D01*
X81274696Y-85147505D01*
X81286816Y-85160677D01*
X81292642Y-85166648D01*
X81297939Y-85173898D01*
X81305056Y-85179369D01*
X81305057Y-85179370D01*
X81323150Y-85193278D01*
X81335454Y-85204079D01*
X89753696Y-93622320D01*
X89767244Y-93638337D01*
X89778869Y-93654665D01*
X89787627Y-93663639D01*
X89791519Y-93666556D01*
X89799523Y-93672555D01*
X89806471Y-93678157D01*
X89948222Y-93800986D01*
X89948226Y-93800989D01*
X89951619Y-93803929D01*
X90133084Y-93920550D01*
X90137174Y-93922418D01*
X90137178Y-93922420D01*
X90197198Y-93949830D01*
X90329300Y-94010159D01*
X90536271Y-94070931D01*
X90540730Y-94071572D01*
X90540734Y-94071573D01*
X90643027Y-94086280D01*
X90749784Y-94101630D01*
X90965493Y-94101630D01*
X91072250Y-94086280D01*
X91174543Y-94071573D01*
X91174547Y-94071572D01*
X91179006Y-94070931D01*
X91385977Y-94010159D01*
X91518079Y-93949830D01*
X91578099Y-93922420D01*
X91578103Y-93922418D01*
X91582193Y-93920550D01*
X91591115Y-93914816D01*
X91759876Y-93806359D01*
X91759880Y-93806356D01*
X91763658Y-93803928D01*
X91854607Y-93725121D01*
X91896064Y-93689198D01*
X91905496Y-93681781D01*
X91914712Y-93675219D01*
X91918676Y-93672397D01*
X91927650Y-93663639D01*
X91930560Y-93659756D01*
X91930569Y-93659746D01*
X91944369Y-93641332D01*
X91956100Y-93627802D01*
X92004296Y-93579606D01*
X92019064Y-93566959D01*
X92031163Y-93558120D01*
X92038414Y-93552823D01*
X92043884Y-93545707D01*
X92043888Y-93545703D01*
X92043947Y-93545626D01*
X92065278Y-93523911D01*
X92114222Y-93484879D01*
X92138106Y-93469872D01*
X92211790Y-93434388D01*
X92238421Y-93425069D01*
X92278284Y-93415971D01*
X92318149Y-93406872D01*
X92346185Y-93403713D01*
X92427966Y-93403713D01*
X92456003Y-93406872D01*
X92535730Y-93425069D01*
X92562362Y-93434388D01*
X92636043Y-93469871D01*
X92659933Y-93484882D01*
X92703699Y-93519784D01*
X92715319Y-93530297D01*
X92721576Y-93536709D01*
X92726870Y-93543956D01*
X92733983Y-93549424D01*
X92733988Y-93549429D01*
X92752086Y-93563341D01*
X92764390Y-93574141D01*
X112298657Y-113108408D01*
X112332683Y-113170720D01*
X112327618Y-113241535D01*
X112285071Y-113298371D01*
X112218551Y-113323182D01*
X112207922Y-113323492D01*
X112078708Y-113321800D01*
X112010801Y-113320911D01*
X112010798Y-113320911D01*
X112006124Y-113320850D01*
X111754578Y-113355084D01*
X111750092Y-113356392D01*
X111750090Y-113356392D01*
X111686055Y-113375056D01*
X111510856Y-113426122D01*
X111280310Y-113532405D01*
X111276401Y-113534968D01*
X111071920Y-113669031D01*
X111071915Y-113669035D01*
X111068007Y-113671597D01*
X110878610Y-113840641D01*
X110716279Y-114035822D01*
X110584581Y-114252854D01*
X110582772Y-114257168D01*
X110582771Y-114257170D01*
X110498513Y-114458104D01*
X110486409Y-114486968D01*
X110423919Y-114733021D01*
X110398485Y-114985608D01*
X110400291Y-115023198D01*
X110410665Y-115239180D01*
X110460191Y-115488167D01*
X110545976Y-115727098D01*
X110666135Y-115950725D01*
X110668930Y-115954468D01*
X110668932Y-115954471D01*
X110815237Y-116150397D01*
X110815242Y-116150403D01*
X110818029Y-116154135D01*
X110821338Y-116157415D01*
X110821343Y-116157421D01*
X110992776Y-116327363D01*
X110998320Y-116332859D01*
X111002082Y-116335617D01*
X111002085Y-116335620D01*
X111093117Y-116402367D01*
X111203047Y-116482971D01*
X111207190Y-116485151D01*
X111207192Y-116485152D01*
X111423564Y-116598991D01*
X111423569Y-116598993D01*
X111427714Y-116601174D01*
X111667385Y-116684871D01*
X111671978Y-116685743D01*
X111912205Y-116731352D01*
X111912208Y-116731352D01*
X111916794Y-116732223D01*
X112043628Y-116737207D01*
X112165794Y-116742007D01*
X112165800Y-116742007D01*
X112170462Y-116742190D01*
X112194412Y-116739567D01*
X112264305Y-116752034D01*
X112316363Y-116800309D01*
X112334057Y-116869065D01*
X112311770Y-116936473D01*
X112297224Y-116953913D01*
X92769855Y-136481282D01*
X92755088Y-136493928D01*
X92735737Y-136508065D01*
X92730267Y-136515181D01*
X92730263Y-136515185D01*
X92730204Y-136515262D01*
X92708873Y-136536977D01*
X92659930Y-136576008D01*
X92636044Y-136591016D01*
X92562362Y-136626500D01*
X92535734Y-136635817D01*
X92456003Y-136654015D01*
X92427966Y-136657174D01*
X92346186Y-136657174D01*
X92318149Y-136654015D01*
X92238422Y-136635818D01*
X92211789Y-136626499D01*
X92138106Y-136591015D01*
X92114218Y-136576005D01*
X92070446Y-136541098D01*
X92058832Y-136530591D01*
X92052577Y-136524182D01*
X92047281Y-136516932D01*
X92022071Y-136497553D01*
X92009766Y-136486752D01*
X91961581Y-136438567D01*
X91948034Y-136422552D01*
X91939230Y-136410187D01*
X91936408Y-136406223D01*
X91927650Y-136397249D01*
X91915745Y-136388327D01*
X91908795Y-136382724D01*
X91767055Y-136259903D01*
X91767050Y-136259899D01*
X91763658Y-136256960D01*
X91582192Y-136140339D01*
X91385977Y-136050730D01*
X91179006Y-135989958D01*
X91174547Y-135989317D01*
X91174543Y-135989316D01*
X91072250Y-135974609D01*
X90965493Y-135959259D01*
X90749784Y-135959259D01*
X90643027Y-135974609D01*
X90540734Y-135989316D01*
X90540730Y-135989317D01*
X90536271Y-135989958D01*
X90329300Y-136050730D01*
X90133085Y-136140339D01*
X89951619Y-136256960D01*
X89948227Y-136259900D01*
X89948222Y-136259903D01*
X89880959Y-136318188D01*
X89819209Y-136371695D01*
X89809790Y-136379100D01*
X89796602Y-136388490D01*
X89787627Y-136397249D01*
X89784708Y-136401144D01*
X89784707Y-136401145D01*
X89770908Y-136419557D01*
X89759177Y-136433087D01*
X81340924Y-144851339D01*
X81326157Y-144863985D01*
X81306806Y-144878122D01*
X81297449Y-144890295D01*
X81280066Y-144908728D01*
X81151970Y-145019724D01*
X81137578Y-145030498D01*
X80973657Y-145135844D01*
X80957878Y-145144460D01*
X80780631Y-145225406D01*
X80763789Y-145231687D01*
X80576824Y-145286585D01*
X80559267Y-145290404D01*
X80387407Y-145315114D01*
X80366398Y-145318135D01*
X80348466Y-145319418D01*
X80153608Y-145319418D01*
X80135676Y-145318135D01*
X80114667Y-145315114D01*
X79942807Y-145290404D01*
X79925250Y-145286585D01*
X79738285Y-145231687D01*
X79721443Y-145225406D01*
X79544196Y-145144460D01*
X79528417Y-145135844D01*
X79364489Y-145030494D01*
X79350109Y-145019728D01*
X79227373Y-144913377D01*
X79215267Y-144900220D01*
X79209428Y-144894237D01*
X79204134Y-144886990D01*
X79178923Y-144867610D01*
X79166619Y-144856809D01*
X69036964Y-134727154D01*
X69002938Y-134664842D01*
X69008003Y-134594027D01*
X69051996Y-134536124D01*
X69066253Y-134525766D01*
X69070669Y-134520862D01*
X69075580Y-134516440D01*
X69076705Y-134517689D01*
X69130014Y-134484849D01*
X69163200Y-134480400D01*
X70532306Y-134480400D01*
X70600427Y-134500402D01*
X70621401Y-134517305D01*
X72910248Y-136806152D01*
X72944274Y-136868464D01*
X72939209Y-136939279D01*
X72910248Y-136984342D01*
X72814633Y-137079957D01*
X72814624Y-137079967D01*
X72812219Y-137082372D01*
X72810086Y-137085025D01*
X72810085Y-137085026D01*
X72777975Y-137124962D01*
X72777973Y-137124965D01*
X72773026Y-137131118D01*
X72712739Y-137263714D01*
X72711467Y-137272597D01*
X72711466Y-137272600D01*
X72699431Y-137356637D01*
X72692090Y-137407900D01*
X72693363Y-137416789D01*
X72709847Y-137531890D01*
X72712739Y-137552086D01*
X72716453Y-137560254D01*
X72716453Y-137560255D01*
X72742876Y-137618370D01*
X72773026Y-137684682D01*
X72777973Y-137690835D01*
X72777975Y-137690838D01*
X72785231Y-137699862D01*
X72812219Y-137733428D01*
X74082372Y-139003581D01*
X74085034Y-139005721D01*
X74124962Y-139037825D01*
X74124965Y-139037827D01*
X74131118Y-139042774D01*
X74263714Y-139103061D01*
X74272597Y-139104333D01*
X74272600Y-139104334D01*
X74399011Y-139122437D01*
X74407900Y-139123710D01*
X74416789Y-139122437D01*
X74543200Y-139104334D01*
X74543203Y-139104333D01*
X74552086Y-139103061D01*
X74560252Y-139099348D01*
X74560256Y-139099347D01*
X74663524Y-139052394D01*
X74733815Y-139042408D01*
X74798347Y-139072009D01*
X74836630Y-139131799D01*
X74841426Y-139168553D01*
X74841202Y-139170646D01*
X74841499Y-139175799D01*
X74841499Y-139175804D01*
X74850016Y-139323513D01*
X74854061Y-139393666D01*
X74855198Y-139398712D01*
X74855199Y-139398718D01*
X74875070Y-139486890D01*
X74903173Y-139611590D01*
X74987217Y-139818567D01*
X74989916Y-139822971D01*
X75100270Y-140003053D01*
X75103938Y-140009039D01*
X75250201Y-140177889D01*
X75422077Y-140320583D01*
X75614951Y-140433289D01*
X75823643Y-140512981D01*
X75828711Y-140514012D01*
X75828714Y-140514013D01*
X75891894Y-140526867D01*
X76042548Y-140557518D01*
X76047723Y-140557708D01*
X76047725Y-140557708D01*
X76260624Y-140565515D01*
X76260628Y-140565515D01*
X76265788Y-140565704D01*
X76270908Y-140565048D01*
X76270910Y-140565048D01*
X76482239Y-140537976D01*
X76482240Y-140537976D01*
X76487367Y-140537319D01*
X76492318Y-140535834D01*
X76492321Y-140535833D01*
X76520820Y-140527283D01*
X76591815Y-140526867D01*
X76651766Y-140564899D01*
X76681637Y-140629306D01*
X76678444Y-140681639D01*
X76660991Y-140744572D01*
X76637253Y-140966697D01*
X76637550Y-140971850D01*
X76637550Y-140971853D01*
X76643013Y-141066592D01*
X76650112Y-141189717D01*
X76651249Y-141194763D01*
X76651250Y-141194769D01*
X76671121Y-141282941D01*
X76699224Y-141407641D01*
X76783268Y-141614618D01*
X76811478Y-141660652D01*
X76894359Y-141795902D01*
X76899989Y-141805090D01*
X77046252Y-141973940D01*
X77218128Y-142116634D01*
X77411002Y-142229340D01*
X77619694Y-142309032D01*
X77624762Y-142310063D01*
X77624765Y-142310064D01*
X77687945Y-142322918D01*
X77838599Y-142353569D01*
X77843774Y-142353759D01*
X77843776Y-142353759D01*
X78056675Y-142361566D01*
X78056679Y-142361566D01*
X78061839Y-142361755D01*
X78066959Y-142361099D01*
X78066961Y-142361099D01*
X78278290Y-142334027D01*
X78278291Y-142334027D01*
X78283418Y-142333370D01*
X78288370Y-142331884D01*
X78288376Y-142331883D01*
X78316873Y-142323334D01*
X78387868Y-142322918D01*
X78447818Y-142360951D01*
X78477689Y-142425358D01*
X78474496Y-142477691D01*
X78457043Y-142540624D01*
X78433305Y-142762749D01*
X78433602Y-142767902D01*
X78433602Y-142767905D01*
X78439065Y-142862644D01*
X78446164Y-142985769D01*
X78447301Y-142990815D01*
X78447302Y-142990821D01*
X78467173Y-143078993D01*
X78495276Y-143203693D01*
X78579320Y-143410670D01*
X78696041Y-143601142D01*
X78842304Y-143769992D01*
X79014180Y-143912686D01*
X79207054Y-144025392D01*
X79415746Y-144105084D01*
X79420814Y-144106115D01*
X79420817Y-144106116D01*
X79528071Y-144127937D01*
X79634651Y-144149621D01*
X79639826Y-144149811D01*
X79639828Y-144149811D01*
X79852727Y-144157618D01*
X79852731Y-144157618D01*
X79857891Y-144157807D01*
X79863011Y-144157151D01*
X79863013Y-144157151D01*
X80074342Y-144130079D01*
X80074343Y-144130079D01*
X80079470Y-144129422D01*
X80084420Y-144127937D01*
X80288483Y-144066715D01*
X80288488Y-144066713D01*
X80293438Y-144065228D01*
X80494048Y-143966950D01*
X80675914Y-143837227D01*
X80834150Y-143679543D01*
X80893648Y-143596743D01*
X80961489Y-143502331D01*
X80964507Y-143498131D01*
X81063484Y-143297865D01*
X81128424Y-143084123D01*
X81157583Y-142862644D01*
X81159210Y-142796054D01*
X81140906Y-142573415D01*
X81086485Y-142356756D01*
X80997408Y-142151894D01*
X80884421Y-141977242D01*
X80878876Y-141968671D01*
X80878874Y-141968668D01*
X80876068Y-141964331D01*
X80725724Y-141799105D01*
X80721673Y-141795906D01*
X80721669Y-141795902D01*
X80554468Y-141663854D01*
X80554464Y-141663852D01*
X80550413Y-141660652D01*
X80354843Y-141552692D01*
X80349974Y-141550968D01*
X80349970Y-141550966D01*
X80149141Y-141479849D01*
X80149137Y-141479848D01*
X80144266Y-141478123D01*
X80139173Y-141477216D01*
X80139170Y-141477215D01*
X79929427Y-141439854D01*
X79929421Y-141439853D01*
X79924338Y-141438948D01*
X79850506Y-141438046D01*
X79706135Y-141436282D01*
X79706133Y-141436282D01*
X79700965Y-141436219D01*
X79590555Y-141453114D01*
X79485259Y-141469226D01*
X79485254Y-141469227D01*
X79480145Y-141470009D01*
X79475231Y-141471615D01*
X79474690Y-141471744D01*
X79403789Y-141468071D01*
X79346128Y-141426649D01*
X79320016Y-141360628D01*
X79324935Y-141312548D01*
X79332372Y-141288071D01*
X79361531Y-141066592D01*
X79363158Y-141000002D01*
X79344854Y-140777363D01*
X79290433Y-140560704D01*
X79201356Y-140355842D01*
X79086233Y-140177889D01*
X79082824Y-140172619D01*
X79082822Y-140172616D01*
X79080016Y-140168279D01*
X78929672Y-140003053D01*
X78925621Y-139999854D01*
X78925617Y-139999850D01*
X78758416Y-139867802D01*
X78758412Y-139867800D01*
X78754361Y-139864600D01*
X78558791Y-139756640D01*
X78553922Y-139754916D01*
X78553918Y-139754914D01*
X78353089Y-139683797D01*
X78353085Y-139683796D01*
X78348214Y-139682071D01*
X78343121Y-139681164D01*
X78343118Y-139681163D01*
X78133375Y-139643802D01*
X78133369Y-139643801D01*
X78128286Y-139642896D01*
X78054454Y-139641994D01*
X77910083Y-139640230D01*
X77910081Y-139640230D01*
X77904913Y-139640167D01*
X77779335Y-139659383D01*
X77689208Y-139673174D01*
X77689204Y-139673175D01*
X77684093Y-139673957D01*
X77679175Y-139675565D01*
X77678644Y-139675691D01*
X77607742Y-139672020D01*
X77550081Y-139630599D01*
X77523966Y-139564580D01*
X77528885Y-139516496D01*
X77536321Y-139492020D01*
X77565480Y-139270541D01*
X77567107Y-139203951D01*
X77548803Y-138981312D01*
X77519374Y-138864150D01*
X77522178Y-138793210D01*
X77547060Y-138750136D01*
X77557997Y-138737729D01*
X77558000Y-138737725D01*
X77563242Y-138731778D01*
X77566969Y-138724462D01*
X77579682Y-138704428D01*
X77579854Y-138704206D01*
X77584714Y-138697941D01*
X77587862Y-138690666D01*
X77587865Y-138690661D01*
X77607033Y-138646366D01*
X77610400Y-138639210D01*
X77632299Y-138596224D01*
X77635898Y-138589160D01*
X77637691Y-138581139D01*
X77645015Y-138558592D01*
X77648281Y-138551045D01*
X77657072Y-138495544D01*
X77658553Y-138487780D01*
X77670805Y-138432953D01*
X77670546Y-138424749D01*
X77672036Y-138401065D01*
X77673320Y-138392957D01*
X77668033Y-138337021D01*
X77667536Y-138329131D01*
X77666017Y-138280896D01*
X77666016Y-138280893D01*
X77665767Y-138272972D01*
X77663477Y-138265092D01*
X77659030Y-138241787D01*
X77659003Y-138241502D01*
X77658257Y-138233608D01*
X77639222Y-138180735D01*
X77636781Y-138173224D01*
X77632938Y-138159997D01*
X77621103Y-138119271D01*
X77616923Y-138112204D01*
X77606823Y-138090745D01*
X77604039Y-138083011D01*
X77599582Y-138076452D01*
X77599580Y-138076449D01*
X77572454Y-138036534D01*
X77568217Y-138029858D01*
X77543655Y-137988332D01*
X77543654Y-137988331D01*
X77539618Y-137981507D01*
X77533811Y-137975701D01*
X77518687Y-137957420D01*
X77518528Y-137957186D01*
X77514072Y-137950629D01*
X77471917Y-137913465D01*
X77466175Y-137908073D01*
X76792723Y-137234701D01*
X76771711Y-137202717D01*
X76770288Y-137203499D01*
X76766471Y-137196556D01*
X76763552Y-137189183D01*
X76737564Y-137153413D01*
X76731048Y-137143493D01*
X76712580Y-137112265D01*
X76712578Y-137112262D01*
X76708542Y-137105438D01*
X76694221Y-137091117D01*
X76681380Y-137076083D01*
X76674131Y-137066106D01*
X76669472Y-137059693D01*
X76635395Y-137031502D01*
X76626616Y-137023512D01*
X71398352Y-131795247D01*
X71390812Y-131786961D01*
X71386700Y-131780482D01*
X71337048Y-131733856D01*
X71334207Y-131731102D01*
X71314470Y-131711365D01*
X71311273Y-131708885D01*
X71302251Y-131701180D01*
X71275800Y-131676341D01*
X71270021Y-131670914D01*
X71263075Y-131667095D01*
X71263072Y-131667093D01*
X71252266Y-131661152D01*
X71235747Y-131650301D01*
X71229748Y-131645648D01*
X71219741Y-131637886D01*
X71212472Y-131634741D01*
X71212468Y-131634738D01*
X71179163Y-131620326D01*
X71168513Y-131615109D01*
X71129760Y-131593805D01*
X71110137Y-131588767D01*
X71091434Y-131582363D01*
X71080120Y-131577467D01*
X71080119Y-131577467D01*
X71072845Y-131574319D01*
X71065022Y-131573080D01*
X71065012Y-131573077D01*
X71029176Y-131567401D01*
X71017556Y-131564995D01*
X70982411Y-131555972D01*
X70982410Y-131555972D01*
X70974730Y-131554000D01*
X70954476Y-131554000D01*
X70934765Y-131552449D01*
X70922586Y-131550520D01*
X70914757Y-131549280D01*
X70906865Y-131550026D01*
X70870739Y-131553441D01*
X70858881Y-131554000D01*
X66293600Y-131554000D01*
X66225479Y-131533998D01*
X66206253Y-131517657D01*
X66205980Y-131517960D01*
X66201068Y-131513537D01*
X66196653Y-131508634D01*
X66098502Y-131437323D01*
X66047494Y-131400263D01*
X66047493Y-131400262D01*
X66042152Y-131396382D01*
X66036124Y-131393698D01*
X66036122Y-131393697D01*
X65873719Y-131321391D01*
X65873718Y-131321391D01*
X65867688Y-131318706D01*
X65767461Y-131297402D01*
X65687344Y-131280372D01*
X65687339Y-131280372D01*
X65680887Y-131279000D01*
X65489913Y-131279000D01*
X65483461Y-131280372D01*
X65483456Y-131280372D01*
X65403339Y-131297402D01*
X65303112Y-131318706D01*
X65297082Y-131321391D01*
X65297081Y-131321391D01*
X65134678Y-131393697D01*
X65134676Y-131393698D01*
X65128648Y-131396382D01*
X65123307Y-131400262D01*
X65123306Y-131400263D01*
X65104406Y-131413995D01*
X64974147Y-131508634D01*
X64969726Y-131513544D01*
X64969725Y-131513545D01*
X64857394Y-131638302D01*
X64846360Y-131650556D01*
X64750873Y-131815944D01*
X64691858Y-131997572D01*
X64691168Y-132004133D01*
X64691168Y-132004135D01*
X64687551Y-132038553D01*
X64671896Y-132187500D01*
X64691858Y-132377428D01*
X64750873Y-132559056D01*
X64846360Y-132724444D01*
X64850778Y-132729351D01*
X64850779Y-132729352D01*
X64870709Y-132751486D01*
X64974147Y-132866366D01*
X65068641Y-132935020D01*
X65102796Y-132959835D01*
X65128648Y-132978618D01*
X65134676Y-132981302D01*
X65134678Y-132981303D01*
X65198190Y-133009580D01*
X65303112Y-133056294D01*
X65396512Y-133076147D01*
X65483456Y-133094628D01*
X65483461Y-133094628D01*
X65489913Y-133096000D01*
X65680887Y-133096000D01*
X65687339Y-133094628D01*
X65687344Y-133094628D01*
X65774288Y-133076147D01*
X65867688Y-133056294D01*
X65972610Y-133009580D01*
X66036122Y-132981303D01*
X66036124Y-132981302D01*
X66042152Y-132978618D01*
X66068005Y-132959835D01*
X66175071Y-132882046D01*
X66196653Y-132866366D01*
X66201068Y-132861463D01*
X66205980Y-132857040D01*
X66207105Y-132858289D01*
X66260414Y-132825449D01*
X66293600Y-132821000D01*
X67936044Y-132821000D01*
X68004165Y-132841002D01*
X68050658Y-132894658D01*
X68060762Y-132964932D01*
X68031268Y-133029512D01*
X68000863Y-133054618D01*
X67998248Y-133055782D01*
X67843747Y-133168034D01*
X67839326Y-133172944D01*
X67839325Y-133172945D01*
X67791669Y-133225873D01*
X67715960Y-133309956D01*
X67620473Y-133475344D01*
X67561458Y-133656972D01*
X67560768Y-133663533D01*
X67560768Y-133663535D01*
X67555613Y-133712587D01*
X67528600Y-133778244D01*
X67470379Y-133818874D01*
X67423239Y-133825219D01*
X67393999Y-133823577D01*
X67342294Y-133820673D01*
X67328466Y-133819126D01*
X67318877Y-133817513D01*
X67316846Y-133817171D01*
X67316844Y-133817171D01*
X67312043Y-133816363D01*
X67305503Y-133816283D01*
X67304363Y-133816269D01*
X67304359Y-133816269D01*
X67299504Y-133816210D01*
X67271916Y-133820161D01*
X67254053Y-133821434D01*
X61110070Y-133821434D01*
X61089166Y-133819688D01*
X61084066Y-133818830D01*
X61069402Y-133816363D01*
X61063044Y-133816285D01*
X61061721Y-133816269D01*
X61061717Y-133816269D01*
X61056863Y-133816210D01*
X61052047Y-133816900D01*
X61052044Y-133816900D01*
X61038565Y-133818830D01*
X61027768Y-133819905D01*
X60897815Y-133827203D01*
X60831684Y-133830917D01*
X60609337Y-133868695D01*
X60392618Y-133931131D01*
X60389350Y-133932485D01*
X60389349Y-133932485D01*
X60187520Y-134016085D01*
X60187515Y-134016088D01*
X60184252Y-134017439D01*
X59986860Y-134126534D01*
X59802924Y-134257043D01*
X59672767Y-134373359D01*
X59666723Y-134378760D01*
X59655846Y-134387448D01*
X59642274Y-134397111D01*
X59633299Y-134405870D01*
X59630380Y-134409765D01*
X59630379Y-134409766D01*
X59616580Y-134428178D01*
X59604849Y-134441708D01*
X56333108Y-137713448D01*
X56270796Y-137747474D01*
X56199980Y-137742409D01*
X56143145Y-137699862D01*
X56118334Y-137633342D01*
X56118370Y-137618373D01*
X56118261Y-137618370D01*
X56119140Y-137584797D01*
X56120608Y-137528730D01*
X56101794Y-137275564D01*
X56045767Y-137027959D01*
X56029160Y-136985254D01*
X55955452Y-136795713D01*
X55955451Y-136795710D01*
X55953757Y-136791355D01*
X55928486Y-136747139D01*
X55859533Y-136626499D01*
X55827785Y-136570951D01*
X55670620Y-136371587D01*
X55535949Y-136244901D01*
X55489113Y-136200842D01*
X55489110Y-136200840D01*
X55485712Y-136197643D01*
X55277125Y-136052941D01*
X55272642Y-136050730D01*
X55053629Y-135942725D01*
X55053626Y-135942724D01*
X55049441Y-135940660D01*
X55004797Y-135926369D01*
X54812107Y-135864688D01*
X54812109Y-135864688D01*
X54807662Y-135863265D01*
X54743035Y-135852740D01*
X54561710Y-135823210D01*
X54561709Y-135823210D01*
X54557098Y-135822459D01*
X54430177Y-135820797D01*
X54307933Y-135819197D01*
X54307930Y-135819197D01*
X54303256Y-135819136D01*
X54051710Y-135853370D01*
X54047224Y-135854678D01*
X54047222Y-135854678D01*
X54012879Y-135864688D01*
X53807988Y-135924408D01*
X53577442Y-136030691D01*
X53546658Y-136050874D01*
X53369052Y-136167317D01*
X53369047Y-136167321D01*
X53365139Y-136169883D01*
X53175742Y-136338927D01*
X53013411Y-136534108D01*
X52881713Y-136751140D01*
X52879904Y-136755454D01*
X52879903Y-136755456D01*
X52786435Y-136978353D01*
X52783541Y-136985254D01*
X52721051Y-137231307D01*
X52720583Y-137235958D01*
X52720582Y-137235962D01*
X52716126Y-137280216D01*
X52695617Y-137483894D01*
X52695841Y-137488559D01*
X52695841Y-137488565D01*
X52697127Y-137515315D01*
X52697423Y-137521484D01*
X52707797Y-137737466D01*
X52757323Y-137986453D01*
X52794667Y-138090463D01*
X52819632Y-138159997D01*
X52823826Y-138230870D01*
X52789037Y-138292759D01*
X52726311Y-138326015D01*
X52655563Y-138320080D01*
X52644695Y-138315273D01*
X48757913Y-136371884D01*
X48741245Y-136361872D01*
X48729037Y-136353191D01*
X48729032Y-136353188D01*
X48721720Y-136347989D01*
X48713243Y-136345051D01*
X48713237Y-136345048D01*
X48707304Y-136342992D01*
X48684256Y-136332292D01*
X48537015Y-136244901D01*
X48522132Y-136234551D01*
X48473168Y-136194984D01*
X48369312Y-136111061D01*
X48356070Y-136098684D01*
X48222547Y-135954538D01*
X48211216Y-135940388D01*
X48210424Y-135939237D01*
X48099757Y-135778569D01*
X48090576Y-135762940D01*
X48003497Y-135586812D01*
X47996654Y-135570031D01*
X47945779Y-135413988D01*
X47942296Y-135396979D01*
X47940269Y-135388361D01*
X47939474Y-135379420D01*
X47929048Y-135352791D01*
X47923769Y-135335899D01*
X47567399Y-133831509D01*
X47521421Y-133637418D01*
X47520836Y-133634827D01*
X47456871Y-133336844D01*
X47146417Y-131890599D01*
X47145887Y-131887992D01*
X47133219Y-131822229D01*
X46808442Y-130136302D01*
X46807967Y-130133685D01*
X46776387Y-129948782D01*
X46587099Y-128840508D01*
X46507636Y-128375255D01*
X46507215Y-128372624D01*
X46420658Y-127792123D01*
X46244121Y-126608171D01*
X46243761Y-126605567D01*
X46238065Y-126560907D01*
X46049135Y-125079768D01*
X46018039Y-124835986D01*
X46017730Y-124833340D01*
X45900985Y-123733239D01*
X53650536Y-123733239D01*
X53652233Y-123742609D01*
X53664610Y-123746000D01*
X54727885Y-123746000D01*
X54743124Y-123741525D01*
X54744329Y-123740135D01*
X54746000Y-123732452D01*
X54746000Y-123727885D01*
X55254000Y-123727885D01*
X55258475Y-123743124D01*
X55259865Y-123744329D01*
X55267548Y-123746000D01*
X56332367Y-123746000D01*
X56345898Y-123742027D01*
X56347203Y-123732947D01*
X56304133Y-123561477D01*
X56300813Y-123551726D01*
X56214999Y-123354365D01*
X56210133Y-123345290D01*
X56093239Y-123164601D01*
X56086947Y-123156430D01*
X55942113Y-122997260D01*
X55934580Y-122990234D01*
X55765691Y-122856855D01*
X55757104Y-122851150D01*
X55568711Y-122747151D01*
X55559299Y-122742921D01*
X55356445Y-122671086D01*
X55346474Y-122668452D01*
X55271837Y-122655157D01*
X55258540Y-122656617D01*
X55254000Y-122671174D01*
X55254000Y-123727885D01*
X54746000Y-123727885D01*
X54746000Y-122669343D01*
X54742082Y-122655999D01*
X54727806Y-122654012D01*
X54686161Y-122660385D01*
X54676125Y-122662776D01*
X54471576Y-122729633D01*
X54462079Y-122733625D01*
X54271189Y-122832995D01*
X54262464Y-122838490D01*
X54090373Y-122967700D01*
X54082666Y-122974543D01*
X53933984Y-123130129D01*
X53927498Y-123138139D01*
X53806232Y-123315908D01*
X53801134Y-123324882D01*
X53710530Y-123520071D01*
X53706967Y-123529758D01*
X53650536Y-123733239D01*
X45900985Y-123733239D01*
X45829479Y-123059434D01*
X45829225Y-123056782D01*
X45678516Y-121279204D01*
X45678319Y-121276547D01*
X45575575Y-119659093D01*
X45565227Y-119496178D01*
X45565087Y-119493523D01*
X45563821Y-119463595D01*
X45489668Y-117711234D01*
X45489584Y-117708604D01*
X45486019Y-117540000D01*
X45451865Y-115925057D01*
X45451837Y-115922393D01*
X45451837Y-114138495D01*
X45451865Y-114135831D01*
X45464572Y-113534968D01*
X45489585Y-112352253D01*
X45489669Y-112349621D01*
X45493681Y-112254825D01*
X45565087Y-110567358D01*
X45565227Y-110564704D01*
X45572790Y-110445651D01*
X45587723Y-110210559D01*
X45678319Y-108784341D01*
X45678516Y-108781684D01*
X45703819Y-108483243D01*
X46087780Y-108483243D01*
X46088526Y-108491135D01*
X46091941Y-108527261D01*
X46092500Y-108539119D01*
X46092500Y-119647233D01*
X46091973Y-119658416D01*
X46090298Y-119665909D01*
X46090547Y-119673835D01*
X46090547Y-119673836D01*
X46092438Y-119733986D01*
X46092500Y-119737945D01*
X46092500Y-119765856D01*
X46092997Y-119769790D01*
X46092997Y-119769791D01*
X46093005Y-119769856D01*
X46093938Y-119781693D01*
X46095327Y-119825889D01*
X46100978Y-119845339D01*
X46104987Y-119864700D01*
X46107526Y-119884797D01*
X46110445Y-119892168D01*
X46110445Y-119892170D01*
X46123804Y-119925912D01*
X46127649Y-119937142D01*
X46137771Y-119971983D01*
X46139982Y-119979593D01*
X46144015Y-119986412D01*
X46144017Y-119986417D01*
X46150293Y-119997028D01*
X46158988Y-120014776D01*
X46166448Y-120033617D01*
X46171110Y-120040033D01*
X46171110Y-120040034D01*
X46192436Y-120069387D01*
X46198952Y-120079307D01*
X46221458Y-120117362D01*
X46235779Y-120131683D01*
X46248619Y-120146716D01*
X46260528Y-120163107D01*
X46278167Y-120177699D01*
X46294605Y-120191298D01*
X46303384Y-120199288D01*
X46609154Y-120505058D01*
X46643180Y-120567370D01*
X46641476Y-120627825D01*
X46611707Y-120735169D01*
X46587095Y-120965469D01*
X46587392Y-120970622D01*
X46587392Y-120970625D01*
X46593067Y-121069041D01*
X46600427Y-121196697D01*
X46601564Y-121201743D01*
X46601565Y-121201749D01*
X46625297Y-121307054D01*
X46651346Y-121422642D01*
X46653288Y-121427424D01*
X46653289Y-121427428D01*
X46725083Y-121604234D01*
X46738484Y-121637237D01*
X46859501Y-121834719D01*
X47011147Y-122009784D01*
X47189349Y-122157730D01*
X47389322Y-122274584D01*
X47605694Y-122357209D01*
X47610760Y-122358240D01*
X47610761Y-122358240D01*
X47663846Y-122369040D01*
X47832656Y-122403385D01*
X47963324Y-122408176D01*
X48058949Y-122411683D01*
X48058953Y-122411683D01*
X48064113Y-122411872D01*
X48069233Y-122411216D01*
X48069235Y-122411216D01*
X48142270Y-122401860D01*
X48293847Y-122382442D01*
X48298795Y-122380957D01*
X48298802Y-122380956D01*
X48510747Y-122317369D01*
X48515690Y-122315886D01*
X48596236Y-122276427D01*
X48719049Y-122216262D01*
X48719052Y-122216260D01*
X48723684Y-122213991D01*
X48912243Y-122079494D01*
X49076303Y-121916005D01*
X49211458Y-121727917D01*
X49258641Y-121632450D01*
X49311784Y-121524922D01*
X49311785Y-121524920D01*
X49314078Y-121520280D01*
X49381408Y-121298671D01*
X49411640Y-121069041D01*
X49412734Y-121024286D01*
X49413245Y-121003365D01*
X49413245Y-121003361D01*
X49413327Y-121000000D01*
X49400574Y-120844877D01*
X49394773Y-120774318D01*
X49394772Y-120774312D01*
X49394349Y-120769167D01*
X49360397Y-120633999D01*
X49339184Y-120549544D01*
X49339183Y-120549540D01*
X49337925Y-120544533D01*
X49313950Y-120489394D01*
X49247630Y-120336868D01*
X49247628Y-120336865D01*
X49245570Y-120332131D01*
X49119764Y-120137665D01*
X49106396Y-120122973D01*
X49025088Y-120033617D01*
X48963887Y-119966358D01*
X48959836Y-119963159D01*
X48959832Y-119963155D01*
X48786177Y-119826011D01*
X48786172Y-119826008D01*
X48782123Y-119822810D01*
X48777607Y-119820317D01*
X48777604Y-119820315D01*
X48583879Y-119713373D01*
X48583875Y-119713371D01*
X48579355Y-119710876D01*
X48574486Y-119709152D01*
X48574482Y-119709150D01*
X48365903Y-119635288D01*
X48365899Y-119635287D01*
X48361028Y-119633562D01*
X48355935Y-119632655D01*
X48355932Y-119632654D01*
X48138095Y-119593851D01*
X48138089Y-119593850D01*
X48133006Y-119592945D01*
X48060096Y-119592054D01*
X47906581Y-119590179D01*
X47906579Y-119590179D01*
X47901411Y-119590116D01*
X47672464Y-119625150D01*
X47631885Y-119638413D01*
X47560922Y-119640563D01*
X47503647Y-119607742D01*
X47396405Y-119500500D01*
X47362379Y-119438188D01*
X47359500Y-119411405D01*
X47359500Y-117540000D01*
X49786884Y-117540000D01*
X49805314Y-117750655D01*
X49806738Y-117755968D01*
X49806738Y-117755970D01*
X49845144Y-117899301D01*
X49860044Y-117954910D01*
X49862366Y-117959891D01*
X49862367Y-117959892D01*
X49937803Y-118121664D01*
X49949411Y-118146558D01*
X50070699Y-118319776D01*
X50220224Y-118469301D01*
X50393442Y-118590589D01*
X50398420Y-118592910D01*
X50398423Y-118592912D01*
X50549776Y-118663489D01*
X50585090Y-118679956D01*
X50590398Y-118681378D01*
X50590400Y-118681379D01*
X50784030Y-118733262D01*
X50784032Y-118733262D01*
X50789345Y-118734686D01*
X51000000Y-118753116D01*
X51210655Y-118734686D01*
X51215968Y-118733262D01*
X51215970Y-118733262D01*
X51409600Y-118681379D01*
X51409602Y-118681378D01*
X51414910Y-118679956D01*
X51450224Y-118663489D01*
X51601577Y-118592912D01*
X51601580Y-118592910D01*
X51606558Y-118590589D01*
X51779776Y-118469301D01*
X51929301Y-118319776D01*
X52050589Y-118146558D01*
X52062198Y-118121664D01*
X52137633Y-117959892D01*
X52137634Y-117959891D01*
X52139956Y-117954910D01*
X52154857Y-117899301D01*
X52193262Y-117755970D01*
X52193262Y-117755968D01*
X52194686Y-117750655D01*
X52213116Y-117540000D01*
X52194686Y-117329345D01*
X52139956Y-117125090D01*
X52050589Y-116933442D01*
X51929301Y-116760224D01*
X51779776Y-116610699D01*
X51606558Y-116489411D01*
X51601580Y-116487090D01*
X51601577Y-116487088D01*
X51419892Y-116402367D01*
X51419891Y-116402366D01*
X51414910Y-116400044D01*
X51409602Y-116398622D01*
X51409600Y-116398621D01*
X51215970Y-116346738D01*
X51215968Y-116346738D01*
X51210655Y-116345314D01*
X51000000Y-116326884D01*
X50789345Y-116345314D01*
X50784032Y-116346738D01*
X50784030Y-116346738D01*
X50590400Y-116398621D01*
X50590398Y-116398622D01*
X50585090Y-116400044D01*
X50580109Y-116402366D01*
X50580108Y-116402367D01*
X50398423Y-116487088D01*
X50398420Y-116487090D01*
X50393442Y-116489411D01*
X50220224Y-116610699D01*
X50070699Y-116760224D01*
X49949411Y-116933442D01*
X49860044Y-117125090D01*
X49805314Y-117329345D01*
X49786884Y-117540000D01*
X47359500Y-117540000D01*
X47359500Y-112460000D01*
X49786884Y-112460000D01*
X49805314Y-112670655D01*
X49860044Y-112874910D01*
X49949411Y-113066558D01*
X50070699Y-113239776D01*
X50220224Y-113389301D01*
X50393442Y-113510589D01*
X50398420Y-113512910D01*
X50398423Y-113512912D01*
X50580108Y-113597633D01*
X50585090Y-113599956D01*
X50590398Y-113601378D01*
X50590400Y-113601379D01*
X50784030Y-113653262D01*
X50784032Y-113653262D01*
X50789345Y-113654686D01*
X51000000Y-113673116D01*
X51210655Y-113654686D01*
X51215968Y-113653262D01*
X51215970Y-113653262D01*
X51409600Y-113601379D01*
X51409602Y-113601378D01*
X51414910Y-113599956D01*
X51419892Y-113597633D01*
X51601577Y-113512912D01*
X51601580Y-113512910D01*
X51606558Y-113510589D01*
X51779776Y-113389301D01*
X51929301Y-113239776D01*
X52050589Y-113066558D01*
X52139956Y-112874910D01*
X52194686Y-112670655D01*
X52213116Y-112460000D01*
X52194686Y-112249345D01*
X52193262Y-112244030D01*
X52141379Y-112050400D01*
X52141378Y-112050398D01*
X52139956Y-112045090D01*
X52134751Y-112033928D01*
X52052912Y-111858423D01*
X52052910Y-111858420D01*
X52050589Y-111853442D01*
X51929301Y-111680224D01*
X51779776Y-111530699D01*
X51606558Y-111409411D01*
X51601580Y-111407090D01*
X51601577Y-111407088D01*
X51419892Y-111322367D01*
X51419891Y-111322366D01*
X51414910Y-111320044D01*
X51409602Y-111318622D01*
X51409600Y-111318621D01*
X51215970Y-111266738D01*
X51215968Y-111266738D01*
X51210655Y-111265314D01*
X51000000Y-111246884D01*
X50789345Y-111265314D01*
X50784032Y-111266738D01*
X50784030Y-111266738D01*
X50590400Y-111318621D01*
X50590398Y-111318622D01*
X50585090Y-111320044D01*
X50580109Y-111322366D01*
X50580108Y-111322367D01*
X50398423Y-111407088D01*
X50398420Y-111407090D01*
X50393442Y-111409411D01*
X50220224Y-111530699D01*
X50070699Y-111680224D01*
X49949411Y-111853442D01*
X49947090Y-111858420D01*
X49947088Y-111858423D01*
X49865249Y-112033928D01*
X49860044Y-112045090D01*
X49858622Y-112050398D01*
X49858621Y-112050400D01*
X49806738Y-112244030D01*
X49805314Y-112249345D01*
X49786884Y-112460000D01*
X47359500Y-112460000D01*
X47359500Y-110445651D01*
X47379502Y-110377530D01*
X47433158Y-110331037D01*
X47503432Y-110320933D01*
X47530449Y-110327941D01*
X47601003Y-110354883D01*
X47610901Y-110357759D01*
X47827653Y-110401857D01*
X47837883Y-110403076D01*
X48058914Y-110411182D01*
X48069223Y-110410714D01*
X48288623Y-110382608D01*
X48298688Y-110380468D01*
X48510557Y-110316905D01*
X48520152Y-110313144D01*
X48718778Y-110215838D01*
X48727636Y-110210559D01*
X48785097Y-110169572D01*
X48793497Y-110158874D01*
X48786509Y-110145720D01*
X47729885Y-109089095D01*
X47695859Y-109026783D01*
X47697694Y-109001132D01*
X48364408Y-109001132D01*
X48364539Y-109002966D01*
X48368790Y-109009580D01*
X49146307Y-109787096D01*
X49158313Y-109793652D01*
X49170052Y-109784684D01*
X49208010Y-109731859D01*
X49213321Y-109723020D01*
X49311318Y-109524737D01*
X49315117Y-109515142D01*
X49379415Y-109303517D01*
X49381594Y-109293436D01*
X49410702Y-109072338D01*
X49411221Y-109065663D01*
X49412744Y-109003364D01*
X49412550Y-108996646D01*
X49394279Y-108774400D01*
X49392596Y-108764238D01*
X49338710Y-108549708D01*
X49335389Y-108539953D01*
X49247193Y-108337118D01*
X49242315Y-108328020D01*
X49169224Y-108215038D01*
X49158538Y-108205835D01*
X49148973Y-108210238D01*
X48372021Y-108987189D01*
X48364408Y-109001132D01*
X47697694Y-109001132D01*
X47700924Y-108955967D01*
X47729885Y-108910905D01*
X48000000Y-108640790D01*
X48788990Y-107851799D01*
X48796010Y-107838943D01*
X48788236Y-107828273D01*
X48785902Y-107826430D01*
X48777320Y-107820729D01*
X48619309Y-107733502D01*
X48569338Y-107683069D01*
X48554566Y-107613626D01*
X48579682Y-107547221D01*
X48591107Y-107534098D01*
X49454800Y-106670405D01*
X49517112Y-106636379D01*
X49543895Y-106633500D01*
X53708324Y-106633500D01*
X53776445Y-106653502D01*
X53815757Y-106693665D01*
X53888975Y-106813147D01*
X54036702Y-106983687D01*
X54210299Y-107127810D01*
X54214754Y-107130413D01*
X54214765Y-107130421D01*
X54272584Y-107164208D01*
X54321307Y-107215846D01*
X54334378Y-107285630D01*
X54307646Y-107351401D01*
X54248446Y-107391159D01*
X54248859Y-107392264D01*
X54244494Y-107393896D01*
X54239993Y-107395208D01*
X54235740Y-107397168D01*
X54235739Y-107397169D01*
X54200254Y-107413528D01*
X54009380Y-107501522D01*
X54005471Y-107504085D01*
X53800928Y-107638189D01*
X53800923Y-107638193D01*
X53797015Y-107640755D01*
X53761317Y-107672617D01*
X53619024Y-107799618D01*
X53607562Y-107809848D01*
X53445183Y-108005087D01*
X53313447Y-108222182D01*
X53311638Y-108226496D01*
X53311637Y-108226498D01*
X53220631Y-108443524D01*
X53215246Y-108456365D01*
X53214095Y-108460897D01*
X53214094Y-108460900D01*
X53205503Y-108494728D01*
X53152738Y-108702490D01*
X53127296Y-108955151D01*
X53127520Y-108959817D01*
X53127520Y-108959822D01*
X53130737Y-109026783D01*
X53139480Y-109208798D01*
X53155026Y-109286951D01*
X53182841Y-109426787D01*
X53189021Y-109457857D01*
X53190600Y-109462255D01*
X53190602Y-109462262D01*
X53271195Y-109686730D01*
X53274831Y-109696858D01*
X53277048Y-109700984D01*
X53334112Y-109807185D01*
X53395025Y-109920551D01*
X53397820Y-109924294D01*
X53397822Y-109924297D01*
X53544171Y-110120282D01*
X53544176Y-110120288D01*
X53546963Y-110124020D01*
X53550272Y-110127300D01*
X53550277Y-110127306D01*
X53648859Y-110225031D01*
X53727307Y-110302797D01*
X53731069Y-110305555D01*
X53731072Y-110305558D01*
X53922135Y-110445651D01*
X53932094Y-110452953D01*
X53936229Y-110455129D01*
X53936233Y-110455131D01*
X53985049Y-110480814D01*
X54156827Y-110571191D01*
X54254684Y-110605364D01*
X54353483Y-110639866D01*
X54396568Y-110654912D01*
X54646050Y-110702278D01*
X54766532Y-110707011D01*
X54895125Y-110712064D01*
X54895130Y-110712064D01*
X54899793Y-110712247D01*
X55005239Y-110700699D01*
X55147569Y-110685112D01*
X55147575Y-110685111D01*
X55152222Y-110684602D01*
X55261680Y-110655784D01*
X55393273Y-110621138D01*
X55397793Y-110619948D01*
X55526378Y-110564704D01*
X55626807Y-110521557D01*
X55626810Y-110521555D01*
X55631110Y-110519708D01*
X55635090Y-110517245D01*
X55635094Y-110517243D01*
X55843064Y-110388547D01*
X55843066Y-110388545D01*
X55847047Y-110386082D01*
X55915726Y-110327941D01*
X56037289Y-110225031D01*
X56037291Y-110225029D01*
X56040862Y-110222006D01*
X56208295Y-110031084D01*
X56246975Y-109970950D01*
X56335470Y-109833368D01*
X56345669Y-109817512D01*
X56449967Y-109585980D01*
X56518896Y-109341575D01*
X56550943Y-109089667D01*
X56553291Y-109000000D01*
X56539162Y-108809870D01*
X56534818Y-108751411D01*
X56534817Y-108751407D01*
X56534472Y-108746759D01*
X56510494Y-108640790D01*
X56487676Y-108539953D01*
X56478428Y-108499082D01*
X56452030Y-108431199D01*
X56388084Y-108266762D01*
X56388083Y-108266760D01*
X56386391Y-108262409D01*
X56364604Y-108224289D01*
X56262702Y-108045997D01*
X56262700Y-108045995D01*
X56260383Y-108041940D01*
X56103171Y-107842517D01*
X55918209Y-107668523D01*
X55822123Y-107601866D01*
X55713393Y-107526437D01*
X55713390Y-107526435D01*
X55709561Y-107523779D01*
X55705376Y-107521715D01*
X55590143Y-107464888D01*
X55537894Y-107416819D01*
X55519928Y-107348134D01*
X55541948Y-107280638D01*
X55590436Y-107238734D01*
X55704982Y-107182618D01*
X55709192Y-107179615D01*
X55709197Y-107179612D01*
X55884455Y-107054601D01*
X55884459Y-107054597D01*
X55888667Y-107051596D01*
X56048487Y-106892333D01*
X56180150Y-106709105D01*
X56248936Y-106569927D01*
X56277824Y-106511477D01*
X56277825Y-106511475D01*
X56280118Y-106506835D01*
X56345708Y-106290952D01*
X56375158Y-106067256D01*
X56376802Y-106000000D01*
X56358315Y-105775132D01*
X56303349Y-105556304D01*
X56213380Y-105349391D01*
X56172973Y-105286931D01*
X56093634Y-105164291D01*
X56093632Y-105164288D01*
X56090826Y-105159951D01*
X55938977Y-104993071D01*
X55934926Y-104989872D01*
X55934922Y-104989868D01*
X55765966Y-104856434D01*
X55765962Y-104856432D01*
X55761911Y-104853232D01*
X55564383Y-104744191D01*
X55351698Y-104668876D01*
X55301297Y-104659898D01*
X55134657Y-104630214D01*
X55134653Y-104630214D01*
X55129569Y-104629308D01*
X55057574Y-104628429D01*
X54909129Y-104626615D01*
X54909127Y-104626615D01*
X54903959Y-104626552D01*
X54680929Y-104660680D01*
X54466468Y-104730777D01*
X54266335Y-104834960D01*
X54262202Y-104838063D01*
X54262199Y-104838065D01*
X54237734Y-104856434D01*
X54085905Y-104970430D01*
X53930024Y-105133550D01*
X53866811Y-105226218D01*
X53808633Y-105311504D01*
X53753721Y-105356507D01*
X53704544Y-105366500D01*
X49308067Y-105366500D01*
X49296884Y-105365973D01*
X49289391Y-105364298D01*
X49281465Y-105364547D01*
X49281464Y-105364547D01*
X49221301Y-105366438D01*
X49217343Y-105366500D01*
X49189444Y-105366500D01*
X49185454Y-105367004D01*
X49173620Y-105367936D01*
X49129411Y-105369326D01*
X49121797Y-105371538D01*
X49121792Y-105371539D01*
X49109959Y-105374977D01*
X49090596Y-105378988D01*
X49070503Y-105381526D01*
X49063136Y-105384443D01*
X49063131Y-105384444D01*
X49029392Y-105397802D01*
X49018165Y-105401646D01*
X48975707Y-105413982D01*
X48968881Y-105418019D01*
X48958272Y-105424293D01*
X48940524Y-105432988D01*
X48921683Y-105440448D01*
X48915267Y-105445110D01*
X48915266Y-105445110D01*
X48885913Y-105466436D01*
X48875993Y-105472952D01*
X48844765Y-105491420D01*
X48844762Y-105491422D01*
X48837938Y-105495458D01*
X48823617Y-105509779D01*
X48808584Y-105522619D01*
X48792193Y-105534528D01*
X48787142Y-105540634D01*
X48764002Y-105568605D01*
X48756012Y-105577384D01*
X46333747Y-107999648D01*
X46325461Y-108007188D01*
X46318982Y-108011300D01*
X46313557Y-108017077D01*
X46272357Y-108060951D01*
X46269602Y-108063793D01*
X46249865Y-108083530D01*
X46247385Y-108086727D01*
X46239682Y-108095747D01*
X46209414Y-108127979D01*
X46205595Y-108134925D01*
X46205593Y-108134928D01*
X46199652Y-108145734D01*
X46188801Y-108162253D01*
X46176386Y-108178259D01*
X46173241Y-108185528D01*
X46173238Y-108185532D01*
X46158826Y-108218837D01*
X46153609Y-108229487D01*
X46132305Y-108268240D01*
X46130334Y-108275915D01*
X46130334Y-108275916D01*
X46127267Y-108287862D01*
X46120863Y-108306566D01*
X46112819Y-108325155D01*
X46111580Y-108332978D01*
X46111577Y-108332988D01*
X46105901Y-108368824D01*
X46103495Y-108380444D01*
X46097478Y-108403880D01*
X46092500Y-108423270D01*
X46092500Y-108443524D01*
X46090949Y-108463234D01*
X46087780Y-108483243D01*
X45703819Y-108483243D01*
X45829225Y-107004106D01*
X45829479Y-107001454D01*
X46017730Y-105227548D01*
X46018039Y-105224902D01*
X46091620Y-104648050D01*
X46243766Y-103455287D01*
X46244126Y-103452682D01*
X46244974Y-103447000D01*
X46507215Y-101688264D01*
X46507636Y-101685633D01*
X46807967Y-99927203D01*
X46808443Y-99924582D01*
X46847024Y-99724306D01*
X47145888Y-98172891D01*
X47146418Y-98170285D01*
X47176319Y-98030991D01*
X47520838Y-96426053D01*
X47521423Y-96423462D01*
X47530917Y-96383386D01*
X47668202Y-95803845D01*
X47921989Y-94732502D01*
X47928425Y-94712758D01*
X47932980Y-94701913D01*
X47932981Y-94701910D01*
X47936455Y-94693638D01*
X47938177Y-94678485D01*
X47943577Y-94653657D01*
X47996655Y-94490858D01*
X48003500Y-94474071D01*
X48020142Y-94440412D01*
X48090579Y-94297945D01*
X48099761Y-94282316D01*
X48211215Y-94120504D01*
X48222545Y-94106353D01*
X48311649Y-94010159D01*
X48356068Y-93962206D01*
X48369309Y-93949830D01*
X48403230Y-93922420D01*
X48522140Y-93826333D01*
X48537021Y-93815985D01*
X48678159Y-93732216D01*
X48693943Y-93725121D01*
X48701950Y-93721239D01*
X48710504Y-93718507D01*
X48736856Y-93700722D01*
X48750994Y-93692464D01*
X52645374Y-91745275D01*
X52715248Y-91732701D01*
X52780828Y-91759900D01*
X52821293Y-91818236D01*
X52823795Y-91889189D01*
X52817921Y-91906695D01*
X52783541Y-91988683D01*
X52721051Y-92234736D01*
X52720583Y-92239387D01*
X52720582Y-92239391D01*
X52711362Y-92330959D01*
X52695617Y-92487323D01*
X52697423Y-92524913D01*
X52707797Y-92740895D01*
X52757323Y-92989882D01*
X52843108Y-93228813D01*
X52963267Y-93452440D01*
X52966062Y-93456183D01*
X52966064Y-93456186D01*
X53112369Y-93652112D01*
X53112374Y-93652118D01*
X53115161Y-93655850D01*
X53118470Y-93659130D01*
X53118475Y-93659136D01*
X53287140Y-93826334D01*
X53295452Y-93834574D01*
X53299214Y-93837332D01*
X53299217Y-93837335D01*
X53452641Y-93949830D01*
X53500179Y-93984686D01*
X53504322Y-93986866D01*
X53504324Y-93986867D01*
X53720696Y-94100706D01*
X53720701Y-94100708D01*
X53724846Y-94102889D01*
X53729269Y-94104434D01*
X53729270Y-94104434D01*
X53867838Y-94152824D01*
X53964517Y-94186586D01*
X53969110Y-94187458D01*
X54209337Y-94233067D01*
X54209340Y-94233067D01*
X54213926Y-94233938D01*
X54340760Y-94238922D01*
X54462926Y-94243722D01*
X54462932Y-94243722D01*
X54467594Y-94243905D01*
X54571768Y-94232496D01*
X54715297Y-94216777D01*
X54715302Y-94216776D01*
X54719950Y-94216267D01*
X54724474Y-94215076D01*
X54960926Y-94152824D01*
X54960928Y-94152823D01*
X54965449Y-94151633D01*
X55198697Y-94051421D01*
X55414571Y-93917834D01*
X55509661Y-93837335D01*
X55604762Y-93756827D01*
X55604764Y-93756825D01*
X55608329Y-93753807D01*
X55775713Y-93562941D01*
X55913047Y-93349431D01*
X56017314Y-93117967D01*
X56086223Y-92873634D01*
X56109966Y-92687000D01*
X56117863Y-92624929D01*
X56117863Y-92624925D01*
X56118261Y-92621799D01*
X56120608Y-92532159D01*
X56120375Y-92529019D01*
X56120374Y-92528991D01*
X56113862Y-92441375D01*
X56128760Y-92371960D01*
X56178822Y-92321618D01*
X56248154Y-92306334D01*
X56314743Y-92330959D01*
X56328610Y-92342942D01*
X59599368Y-95613699D01*
X59612911Y-95629709D01*
X59624541Y-95646044D01*
X59633299Y-95655018D01*
X59644986Y-95663777D01*
X59648076Y-95666093D01*
X59656470Y-95672967D01*
X59802923Y-95803845D01*
X59805791Y-95805880D01*
X59817707Y-95814335D01*
X59986859Y-95934355D01*
X60184252Y-96043450D01*
X60392618Y-96129758D01*
X60609337Y-96192194D01*
X60831684Y-96229972D01*
X61014075Y-96240215D01*
X61027901Y-96241762D01*
X61037490Y-96243375D01*
X61039521Y-96243717D01*
X61039523Y-96243717D01*
X61044324Y-96244525D01*
X61050864Y-96244605D01*
X61052004Y-96244619D01*
X61052008Y-96244619D01*
X61056863Y-96244678D01*
X61084451Y-96240727D01*
X61102314Y-96239454D01*
X65091449Y-96239454D01*
X65159570Y-96259456D01*
X65206063Y-96313112D01*
X65216167Y-96383386D01*
X65193386Y-96439513D01*
X65191144Y-96442599D01*
X65072295Y-96636542D01*
X65067813Y-96645337D01*
X64980766Y-96855488D01*
X64977717Y-96864873D01*
X64924615Y-97086054D01*
X64923072Y-97095801D01*
X64905225Y-97322570D01*
X64905225Y-97332430D01*
X64923072Y-97559199D01*
X64924615Y-97568946D01*
X64977717Y-97790127D01*
X64980766Y-97799512D01*
X65067813Y-98009663D01*
X65072295Y-98018458D01*
X65174932Y-98185945D01*
X65185390Y-98195407D01*
X65194166Y-98191624D01*
X66328405Y-97057385D01*
X66390717Y-97023359D01*
X66461532Y-97028424D01*
X66506595Y-97057385D01*
X67637790Y-98188580D01*
X67654602Y-98197760D01*
X67717850Y-98211520D01*
X67753275Y-98240276D01*
X67856525Y-98361166D01*
X67887531Y-98397469D01*
X68068084Y-98551676D01*
X68072292Y-98554255D01*
X68072298Y-98554259D01*
X68265584Y-98672705D01*
X68270537Y-98675740D01*
X68275107Y-98677633D01*
X68275111Y-98677635D01*
X68485333Y-98764711D01*
X68489906Y-98766605D01*
X68535941Y-98777657D01*
X68715976Y-98820880D01*
X68715982Y-98820881D01*
X68720789Y-98822035D01*
X68957500Y-98840665D01*
X69194211Y-98822035D01*
X69199018Y-98820881D01*
X69199024Y-98820880D01*
X69274898Y-98802664D01*
X69345806Y-98806211D01*
X69393407Y-98836088D01*
X71787724Y-101230405D01*
X71821750Y-101292717D01*
X71816685Y-101363532D01*
X71774138Y-101420368D01*
X71707618Y-101445179D01*
X71698629Y-101445500D01*
X71462395Y-101445500D01*
X71394274Y-101425498D01*
X71373299Y-101408595D01*
X71002460Y-101037755D01*
X70614847Y-100650142D01*
X70607313Y-100641863D01*
X70603200Y-100635382D01*
X70553548Y-100588756D01*
X70550707Y-100586002D01*
X70530970Y-100566265D01*
X70527773Y-100563785D01*
X70518751Y-100556080D01*
X70492300Y-100531241D01*
X70486521Y-100525814D01*
X70479575Y-100521995D01*
X70479572Y-100521993D01*
X70468766Y-100516052D01*
X70452247Y-100505201D01*
X70451783Y-100504841D01*
X70436241Y-100492786D01*
X70428972Y-100489641D01*
X70428968Y-100489638D01*
X70395663Y-100475226D01*
X70385013Y-100470009D01*
X70346260Y-100448705D01*
X70326637Y-100443667D01*
X70307934Y-100437263D01*
X70296620Y-100432367D01*
X70296619Y-100432367D01*
X70289345Y-100429219D01*
X70281522Y-100427980D01*
X70281512Y-100427977D01*
X70245676Y-100422301D01*
X70234056Y-100419895D01*
X70198911Y-100410872D01*
X70198910Y-100410872D01*
X70191230Y-100408900D01*
X70170976Y-100408900D01*
X70151265Y-100407349D01*
X70139086Y-100405420D01*
X70131257Y-100404180D01*
X70123365Y-100404926D01*
X70087239Y-100408341D01*
X70075381Y-100408900D01*
X59557000Y-100408900D01*
X59488879Y-100388898D01*
X59442386Y-100335242D01*
X59431000Y-100282900D01*
X59431000Y-98779066D01*
X59451002Y-98710945D01*
X59491165Y-98671633D01*
X59673056Y-98560170D01*
X65549660Y-98560170D01*
X65555387Y-98567820D01*
X65726542Y-98672705D01*
X65735337Y-98677187D01*
X65945488Y-98764234D01*
X65954873Y-98767283D01*
X66176054Y-98820385D01*
X66185801Y-98821928D01*
X66412570Y-98839775D01*
X66422430Y-98839775D01*
X66649199Y-98821928D01*
X66658946Y-98820385D01*
X66880127Y-98767283D01*
X66889512Y-98764234D01*
X67099663Y-98677187D01*
X67108458Y-98672705D01*
X67275945Y-98570068D01*
X67285407Y-98559610D01*
X67281624Y-98550834D01*
X66430312Y-97699522D01*
X66416368Y-97691908D01*
X66414535Y-97692039D01*
X66407920Y-97696290D01*
X65556420Y-98547790D01*
X65549660Y-98560170D01*
X59673056Y-98560170D01*
X59682702Y-98554259D01*
X59682708Y-98554255D01*
X59686916Y-98551676D01*
X59867469Y-98397469D01*
X60021676Y-98216916D01*
X60024255Y-98212708D01*
X60024259Y-98212702D01*
X60143154Y-98018683D01*
X60145740Y-98014463D01*
X60147729Y-98009663D01*
X60234711Y-97799667D01*
X60234712Y-97799665D01*
X60236605Y-97795094D01*
X60283754Y-97598704D01*
X60290880Y-97569024D01*
X60290881Y-97569018D01*
X60292035Y-97564211D01*
X60310665Y-97327500D01*
X60292035Y-97090789D01*
X60284016Y-97057385D01*
X60237760Y-96864718D01*
X60236605Y-96859906D01*
X60229634Y-96843076D01*
X60147635Y-96645111D01*
X60147633Y-96645107D01*
X60145740Y-96640537D01*
X60138044Y-96627978D01*
X60024259Y-96442298D01*
X60024255Y-96442292D01*
X60021676Y-96438084D01*
X59867469Y-96257531D01*
X59686916Y-96103324D01*
X59682708Y-96100745D01*
X59682702Y-96100741D01*
X59488683Y-95981846D01*
X59484463Y-95979260D01*
X59479893Y-95977367D01*
X59479889Y-95977365D01*
X59269667Y-95890289D01*
X59269665Y-95890288D01*
X59265094Y-95888395D01*
X59184891Y-95869140D01*
X59039024Y-95834120D01*
X59039018Y-95834119D01*
X59034211Y-95832965D01*
X58797500Y-95814335D01*
X58560789Y-95832965D01*
X58555982Y-95834119D01*
X58555976Y-95834120D01*
X58410109Y-95869140D01*
X58329906Y-95888395D01*
X58325335Y-95890288D01*
X58325333Y-95890289D01*
X58115111Y-95977365D01*
X58115107Y-95977367D01*
X58110537Y-95979260D01*
X58106317Y-95981846D01*
X57912298Y-96100741D01*
X57912292Y-96100745D01*
X57908084Y-96103324D01*
X57727531Y-96257531D01*
X57573324Y-96438084D01*
X57570745Y-96442292D01*
X57570741Y-96442298D01*
X57456956Y-96627978D01*
X57449260Y-96640537D01*
X57447367Y-96645107D01*
X57447365Y-96645111D01*
X57365366Y-96843076D01*
X57358395Y-96859906D01*
X57357240Y-96864718D01*
X57310985Y-97057385D01*
X57302965Y-97090789D01*
X57284335Y-97327500D01*
X57302965Y-97564211D01*
X57304119Y-97569018D01*
X57304120Y-97569024D01*
X57311246Y-97598704D01*
X57358395Y-97795094D01*
X57360288Y-97799665D01*
X57360289Y-97799667D01*
X57447272Y-98009663D01*
X57449260Y-98014463D01*
X57451846Y-98018683D01*
X57570741Y-98212702D01*
X57570745Y-98212708D01*
X57573324Y-98216916D01*
X57727531Y-98397469D01*
X57908084Y-98551676D01*
X57912292Y-98554255D01*
X57912298Y-98554259D01*
X58103835Y-98671633D01*
X58151466Y-98724281D01*
X58164000Y-98779066D01*
X58164000Y-100955934D01*
X58143998Y-101024055D01*
X58103835Y-101063367D01*
X57912298Y-101180741D01*
X57912292Y-101180745D01*
X57908084Y-101183324D01*
X57727531Y-101337531D01*
X57573324Y-101518084D01*
X57570745Y-101522292D01*
X57570741Y-101522298D01*
X57469037Y-101688264D01*
X57449260Y-101720537D01*
X57447367Y-101725107D01*
X57447365Y-101725111D01*
X57360289Y-101935333D01*
X57358395Y-101939906D01*
X57302965Y-102170789D01*
X57284335Y-102407500D01*
X57302965Y-102644211D01*
X57304119Y-102649018D01*
X57304120Y-102649024D01*
X57319494Y-102713059D01*
X57358395Y-102875094D01*
X57449260Y-103094463D01*
X57451846Y-103098683D01*
X57570741Y-103292702D01*
X57570745Y-103292708D01*
X57573324Y-103296916D01*
X57727531Y-103477469D01*
X57908084Y-103631676D01*
X57912292Y-103634255D01*
X57912298Y-103634259D01*
X58106317Y-103753154D01*
X58110537Y-103755740D01*
X58115107Y-103757633D01*
X58115111Y-103757635D01*
X58325333Y-103844711D01*
X58329906Y-103846605D01*
X58377849Y-103858115D01*
X58555976Y-103900880D01*
X58555982Y-103900881D01*
X58560789Y-103902035D01*
X58797500Y-103920665D01*
X59034211Y-103902035D01*
X59039018Y-103900881D01*
X59039024Y-103900880D01*
X59217151Y-103858115D01*
X59265094Y-103846605D01*
X59269667Y-103844711D01*
X59479889Y-103757635D01*
X59479893Y-103757633D01*
X59484463Y-103755740D01*
X59488683Y-103753154D01*
X59682702Y-103634259D01*
X59682708Y-103634255D01*
X59686916Y-103631676D01*
X59867469Y-103477469D01*
X60021676Y-103296916D01*
X60024255Y-103292708D01*
X60024259Y-103292702D01*
X60143154Y-103098683D01*
X60145740Y-103094463D01*
X60236605Y-102875094D01*
X60275506Y-102713059D01*
X60290880Y-102649024D01*
X60290881Y-102649018D01*
X60292035Y-102644211D01*
X60310665Y-102407500D01*
X60292035Y-102170789D01*
X60236605Y-101939906D01*
X60234711Y-101935333D01*
X60234711Y-101935332D01*
X60199414Y-101850118D01*
X60191825Y-101779528D01*
X60223605Y-101716041D01*
X60284663Y-101679814D01*
X60315823Y-101675900D01*
X64899177Y-101675900D01*
X64967298Y-101695902D01*
X65013791Y-101749558D01*
X65023895Y-101819832D01*
X65015586Y-101850118D01*
X64980289Y-101935332D01*
X64980289Y-101935333D01*
X64978395Y-101939906D01*
X64922965Y-102170789D01*
X64904335Y-102407500D01*
X64922965Y-102644211D01*
X64924119Y-102649018D01*
X64924120Y-102649024D01*
X64939494Y-102713059D01*
X64978395Y-102875094D01*
X65069260Y-103094463D01*
X65071846Y-103098683D01*
X65190741Y-103292702D01*
X65190745Y-103292708D01*
X65193324Y-103296916D01*
X65347531Y-103477469D01*
X65528084Y-103631676D01*
X65532292Y-103634255D01*
X65532298Y-103634259D01*
X65726317Y-103753154D01*
X65730537Y-103755740D01*
X65735107Y-103757633D01*
X65735111Y-103757635D01*
X65945333Y-103844711D01*
X65949906Y-103846605D01*
X65997849Y-103858115D01*
X66175976Y-103900880D01*
X66175982Y-103900881D01*
X66180789Y-103902035D01*
X66417500Y-103920665D01*
X66654211Y-103902035D01*
X66659018Y-103900881D01*
X66659024Y-103900880D01*
X66837151Y-103858115D01*
X66885094Y-103846605D01*
X66889667Y-103844711D01*
X67099889Y-103757635D01*
X67099893Y-103757633D01*
X67104463Y-103755740D01*
X67108683Y-103753154D01*
X67302702Y-103634259D01*
X67302708Y-103634255D01*
X67306916Y-103631676D01*
X67310678Y-103628463D01*
X67310682Y-103628460D01*
X67317861Y-103622329D01*
X67382651Y-103593298D01*
X67452851Y-103603903D01*
X67505319Y-103650027D01*
X67506885Y-103654205D01*
X67594239Y-103770761D01*
X67710795Y-103858115D01*
X67847184Y-103909245D01*
X67909366Y-103916000D01*
X68259380Y-103916000D01*
X68327501Y-103936002D01*
X68373994Y-103989658D01*
X68375075Y-103992435D01*
X68377285Y-103997132D01*
X68379736Y-104004675D01*
X68383986Y-104011371D01*
X68383986Y-104011372D01*
X68384150Y-104011631D01*
X68394915Y-104032758D01*
X68395029Y-104033046D01*
X68395032Y-104033051D01*
X68397948Y-104040417D01*
X68402604Y-104046825D01*
X68402607Y-104046831D01*
X68430958Y-104085852D01*
X68435401Y-104092389D01*
X68465500Y-104139818D01*
X68471278Y-104145244D01*
X68471279Y-104145245D01*
X68471507Y-104145459D01*
X68487188Y-104163246D01*
X68492028Y-104169907D01*
X68498137Y-104174961D01*
X68498138Y-104174962D01*
X68535296Y-104205703D01*
X68541230Y-104210934D01*
X68576398Y-104243958D01*
X68576401Y-104243960D01*
X68582179Y-104249386D01*
X68589403Y-104253358D01*
X68609006Y-104266681D01*
X68609246Y-104266880D01*
X68609253Y-104266884D01*
X68615356Y-104271933D01*
X68654900Y-104290541D01*
X68666176Y-104295847D01*
X68673208Y-104299429D01*
X68722440Y-104326495D01*
X68730115Y-104328465D01*
X68730121Y-104328468D01*
X68730419Y-104328544D01*
X68752728Y-104336576D01*
X68753003Y-104336706D01*
X68753011Y-104336709D01*
X68760182Y-104340083D01*
X68815349Y-104350606D01*
X68823058Y-104352329D01*
X68857051Y-104361057D01*
X68869793Y-104364329D01*
X68869794Y-104364329D01*
X68877470Y-104366300D01*
X68885707Y-104366300D01*
X68909316Y-104368532D01*
X68909619Y-104368590D01*
X68909623Y-104368590D01*
X68917406Y-104370075D01*
X68973451Y-104366549D01*
X68981362Y-104366300D01*
X69578206Y-104366300D01*
X69646327Y-104386302D01*
X69667301Y-104403205D01*
X73530154Y-108266058D01*
X73564180Y-108328370D01*
X73557256Y-108403877D01*
X73535246Y-108456365D01*
X73534095Y-108460897D01*
X73534094Y-108460900D01*
X73525503Y-108494728D01*
X73472738Y-108702490D01*
X73447296Y-108955151D01*
X73447520Y-108959817D01*
X73447520Y-108959822D01*
X73450737Y-109026783D01*
X73459480Y-109208798D01*
X73475026Y-109286951D01*
X73502841Y-109426787D01*
X73509021Y-109457857D01*
X73510600Y-109462255D01*
X73510602Y-109462262D01*
X73591195Y-109686730D01*
X73594831Y-109696858D01*
X73597048Y-109700984D01*
X73654112Y-109807185D01*
X73715025Y-109920551D01*
X73717820Y-109924294D01*
X73717822Y-109924297D01*
X73864171Y-110120282D01*
X73864176Y-110120288D01*
X73866963Y-110124020D01*
X73870272Y-110127300D01*
X73870277Y-110127306D01*
X73968859Y-110225031D01*
X74047307Y-110302797D01*
X74051069Y-110305555D01*
X74051072Y-110305558D01*
X74242135Y-110445651D01*
X74252094Y-110452953D01*
X74256229Y-110455129D01*
X74256233Y-110455131D01*
X74305049Y-110480814D01*
X74476827Y-110571191D01*
X74574684Y-110605364D01*
X74673483Y-110639866D01*
X74716568Y-110654912D01*
X74883681Y-110686640D01*
X74946874Y-110718996D01*
X74982543Y-110780382D01*
X74979362Y-110851308D01*
X74949273Y-110899523D01*
X67980236Y-117868559D01*
X61019200Y-124829595D01*
X60956888Y-124863621D01*
X60930105Y-124866500D01*
X56304625Y-124866500D01*
X56236504Y-124846498D01*
X56190011Y-124792842D01*
X56179907Y-124722568D01*
X56191668Y-124684673D01*
X56277358Y-124511292D01*
X56281156Y-124501699D01*
X56343716Y-124295791D01*
X56345893Y-124285721D01*
X56347705Y-124271960D01*
X56345493Y-124257778D01*
X56332336Y-124254000D01*
X53669283Y-124254000D01*
X53655752Y-124257973D01*
X53654315Y-124267966D01*
X53685542Y-124406528D01*
X53688621Y-124416356D01*
X53769589Y-124615756D01*
X53774232Y-124624947D01*
X53804699Y-124674665D01*
X53823237Y-124743199D01*
X53801781Y-124810875D01*
X53747141Y-124856208D01*
X53697266Y-124866500D01*
X53656237Y-124866500D01*
X53588116Y-124846498D01*
X53553026Y-124812773D01*
X53481220Y-124710223D01*
X53329777Y-124558780D01*
X53325269Y-124555623D01*
X53325266Y-124555621D01*
X53248257Y-124501699D01*
X53154338Y-124435936D01*
X53149356Y-124433613D01*
X53149351Y-124433610D01*
X52965214Y-124347746D01*
X52965213Y-124347745D01*
X52960232Y-124345423D01*
X52954924Y-124344001D01*
X52954922Y-124344000D01*
X52890260Y-124326674D01*
X52753357Y-124289991D01*
X52540000Y-124271325D01*
X52326643Y-124289991D01*
X52189740Y-124326674D01*
X52125078Y-124344000D01*
X52125076Y-124344001D01*
X52119768Y-124345423D01*
X52114788Y-124347745D01*
X52114786Y-124347746D01*
X51930644Y-124433613D01*
X51930641Y-124433615D01*
X51925663Y-124435936D01*
X51750223Y-124558780D01*
X51598780Y-124710223D01*
X51475936Y-124885663D01*
X51473615Y-124890641D01*
X51473613Y-124890644D01*
X51387746Y-125074786D01*
X51385423Y-125079768D01*
X51329991Y-125286643D01*
X51311325Y-125500000D01*
X51329991Y-125713357D01*
X51340066Y-125750957D01*
X51380327Y-125901212D01*
X51385423Y-125920232D01*
X51387745Y-125925212D01*
X51387746Y-125925214D01*
X51470275Y-126102196D01*
X51475936Y-126114337D01*
X51598780Y-126289777D01*
X51750223Y-126441220D01*
X51754731Y-126444377D01*
X51754734Y-126444379D01*
X51827649Y-126495434D01*
X51925662Y-126564064D01*
X51930644Y-126566387D01*
X51930649Y-126566390D01*
X52114786Y-126652254D01*
X52119768Y-126654577D01*
X52125076Y-126655999D01*
X52125078Y-126656000D01*
X52189740Y-126673326D01*
X52326643Y-126710009D01*
X52540000Y-126728675D01*
X52753357Y-126710009D01*
X52890260Y-126673326D01*
X52954922Y-126656000D01*
X52954924Y-126655999D01*
X52960232Y-126654577D01*
X52965214Y-126652254D01*
X53149351Y-126566390D01*
X53149356Y-126566387D01*
X53154338Y-126564064D01*
X53252351Y-126495434D01*
X53325266Y-126444379D01*
X53325269Y-126444377D01*
X53329777Y-126441220D01*
X53481220Y-126289777D01*
X53553026Y-126187228D01*
X53608481Y-126142901D01*
X53656237Y-126133500D01*
X61165933Y-126133500D01*
X61177116Y-126134027D01*
X61184609Y-126135702D01*
X61192535Y-126135453D01*
X61192536Y-126135453D01*
X61252686Y-126133562D01*
X61256645Y-126133500D01*
X61284556Y-126133500D01*
X61288491Y-126133003D01*
X61288556Y-126132995D01*
X61300393Y-126132062D01*
X61332651Y-126131048D01*
X61336670Y-126130922D01*
X61344589Y-126130673D01*
X61364043Y-126125021D01*
X61383400Y-126121013D01*
X61395630Y-126119468D01*
X61395631Y-126119468D01*
X61403497Y-126118474D01*
X61410868Y-126115555D01*
X61410870Y-126115555D01*
X61444612Y-126102196D01*
X61455842Y-126098351D01*
X61490683Y-126088229D01*
X61490684Y-126088229D01*
X61498293Y-126086018D01*
X61505112Y-126081985D01*
X61505117Y-126081983D01*
X61515728Y-126075707D01*
X61533476Y-126067012D01*
X61552317Y-126059552D01*
X61588087Y-126033564D01*
X61598007Y-126027048D01*
X61629235Y-126008580D01*
X61629238Y-126008578D01*
X61636062Y-126004542D01*
X61650383Y-125990221D01*
X61665417Y-125977380D01*
X61675394Y-125970131D01*
X61681807Y-125965472D01*
X61709998Y-125931395D01*
X61717988Y-125922616D01*
X77984284Y-109656320D01*
X78046596Y-109622294D01*
X78117411Y-109627359D01*
X78174204Y-109669849D01*
X78206739Y-109713261D01*
X78323295Y-109800615D01*
X78459684Y-109851745D01*
X78521866Y-109858500D01*
X79034106Y-109858500D01*
X79102227Y-109878502D01*
X79148720Y-109932158D01*
X79158824Y-110002432D01*
X79129330Y-110067012D01*
X79123201Y-110073595D01*
X70492692Y-118704103D01*
X61867200Y-127329595D01*
X61804888Y-127363621D01*
X61778105Y-127366500D01*
X51116237Y-127366500D01*
X51048116Y-127346498D01*
X51013026Y-127312773D01*
X50941220Y-127210223D01*
X50789777Y-127058780D01*
X50785269Y-127055623D01*
X50785266Y-127055621D01*
X50712351Y-127004566D01*
X50614338Y-126935936D01*
X50609356Y-126933613D01*
X50609351Y-126933610D01*
X50425214Y-126847746D01*
X50425213Y-126847745D01*
X50420232Y-126845423D01*
X50414924Y-126844001D01*
X50414922Y-126844000D01*
X50350260Y-126826674D01*
X50213357Y-126789991D01*
X50000000Y-126771325D01*
X49786643Y-126789991D01*
X49649740Y-126826674D01*
X49585078Y-126844000D01*
X49585076Y-126844001D01*
X49579768Y-126845423D01*
X49574788Y-126847745D01*
X49574786Y-126847746D01*
X49390644Y-126933613D01*
X49390641Y-126933615D01*
X49385663Y-126935936D01*
X49210223Y-127058780D01*
X49058780Y-127210223D01*
X48935936Y-127385663D01*
X48845423Y-127579768D01*
X48789991Y-127786643D01*
X48771325Y-128000000D01*
X48789991Y-128213357D01*
X48845423Y-128420232D01*
X48847745Y-128425212D01*
X48847746Y-128425214D01*
X48922731Y-128586018D01*
X48935936Y-128614337D01*
X49058780Y-128789777D01*
X49210223Y-128941220D01*
X49214731Y-128944377D01*
X49214734Y-128944379D01*
X49287649Y-128995434D01*
X49385662Y-129064064D01*
X49390644Y-129066387D01*
X49390649Y-129066390D01*
X49574786Y-129152254D01*
X49579768Y-129154577D01*
X49585076Y-129155999D01*
X49585078Y-129156000D01*
X49649740Y-129173326D01*
X49786643Y-129210009D01*
X50000000Y-129228675D01*
X50213357Y-129210009D01*
X50350260Y-129173326D01*
X50414922Y-129156000D01*
X50414924Y-129155999D01*
X50420232Y-129154577D01*
X50425214Y-129152254D01*
X50609351Y-129066390D01*
X50609356Y-129066387D01*
X50614338Y-129064064D01*
X50712351Y-128995434D01*
X50785266Y-128944379D01*
X50785269Y-128944377D01*
X50789777Y-128941220D01*
X50941220Y-128789777D01*
X51013026Y-128687228D01*
X51068481Y-128642901D01*
X51116237Y-128633500D01*
X62013933Y-128633500D01*
X62025116Y-128634027D01*
X62032609Y-128635702D01*
X62040535Y-128635453D01*
X62040537Y-128635453D01*
X62052121Y-128635089D01*
X62120836Y-128652942D01*
X62168991Y-128705111D01*
X62181297Y-128775033D01*
X62153847Y-128840508D01*
X62145173Y-128850122D01*
X61165700Y-129829595D01*
X61103388Y-129863621D01*
X61076605Y-129866500D01*
X53656237Y-129866500D01*
X53588116Y-129846498D01*
X53553026Y-129812773D01*
X53481220Y-129710223D01*
X53329777Y-129558780D01*
X53325269Y-129555623D01*
X53325266Y-129555621D01*
X53193069Y-129463056D01*
X53154338Y-129435936D01*
X53149356Y-129433613D01*
X53149351Y-129433610D01*
X52965214Y-129347746D01*
X52965213Y-129347745D01*
X52960232Y-129345423D01*
X52954924Y-129344001D01*
X52954922Y-129344000D01*
X52869584Y-129321134D01*
X52753357Y-129289991D01*
X52540000Y-129271325D01*
X52326643Y-129289991D01*
X52210416Y-129321134D01*
X52125078Y-129344000D01*
X52125076Y-129344001D01*
X52119768Y-129345423D01*
X52114788Y-129347745D01*
X52114786Y-129347746D01*
X51930644Y-129433613D01*
X51930641Y-129433615D01*
X51925663Y-129435936D01*
X51750223Y-129558780D01*
X51598780Y-129710223D01*
X51475936Y-129885663D01*
X51473615Y-129890641D01*
X51473613Y-129890644D01*
X51419558Y-130006565D01*
X51385423Y-130079768D01*
X51329991Y-130286643D01*
X51311325Y-130500000D01*
X51329991Y-130713357D01*
X51385423Y-130920232D01*
X51387745Y-130925212D01*
X51387746Y-130925214D01*
X51470275Y-131102196D01*
X51475936Y-131114337D01*
X51598780Y-131289777D01*
X51750223Y-131441220D01*
X51754731Y-131444377D01*
X51754734Y-131444379D01*
X51827649Y-131495434D01*
X51925662Y-131564064D01*
X51930644Y-131566387D01*
X51930649Y-131566390D01*
X52110598Y-131650301D01*
X52119768Y-131654577D01*
X52125076Y-131655999D01*
X52125078Y-131656000D01*
X52189740Y-131673326D01*
X52326643Y-131710009D01*
X52540000Y-131728675D01*
X52753357Y-131710009D01*
X52890260Y-131673326D01*
X52954922Y-131656000D01*
X52954924Y-131655999D01*
X52960232Y-131654577D01*
X52969402Y-131650301D01*
X53149351Y-131566390D01*
X53149356Y-131566387D01*
X53154338Y-131564064D01*
X53252351Y-131495434D01*
X53325266Y-131444379D01*
X53325269Y-131444377D01*
X53329777Y-131441220D01*
X53481220Y-131289777D01*
X53553026Y-131187228D01*
X53608481Y-131142901D01*
X53656237Y-131133500D01*
X61312433Y-131133500D01*
X61323616Y-131134027D01*
X61331109Y-131135702D01*
X61339035Y-131135453D01*
X61339036Y-131135453D01*
X61399186Y-131133562D01*
X61403145Y-131133500D01*
X61431056Y-131133500D01*
X61434991Y-131133003D01*
X61435056Y-131132995D01*
X61446893Y-131132062D01*
X61479151Y-131131048D01*
X61483170Y-131130922D01*
X61491089Y-131130673D01*
X61510543Y-131125021D01*
X61529900Y-131121013D01*
X61542130Y-131119468D01*
X61542131Y-131119468D01*
X61549997Y-131118474D01*
X61557368Y-131115555D01*
X61557370Y-131115555D01*
X61591112Y-131102196D01*
X61602342Y-131098351D01*
X61637183Y-131088229D01*
X61637184Y-131088229D01*
X61644793Y-131086018D01*
X61651612Y-131081985D01*
X61651617Y-131081983D01*
X61662228Y-131075707D01*
X61679976Y-131067012D01*
X61698817Y-131059552D01*
X61734587Y-131033564D01*
X61744507Y-131027048D01*
X61775735Y-131008580D01*
X61775738Y-131008578D01*
X61782562Y-131004542D01*
X61796883Y-130990221D01*
X61811917Y-130977380D01*
X61821894Y-130970131D01*
X61828307Y-130965472D01*
X61856498Y-130931395D01*
X61864488Y-130922616D01*
X73998605Y-118788500D01*
X74060917Y-118754474D01*
X74131732Y-118759539D01*
X74188568Y-118802086D01*
X74213379Y-118868606D01*
X74213700Y-118877595D01*
X74213700Y-125416306D01*
X74193698Y-125484427D01*
X74176795Y-125505401D01*
X70627600Y-129054595D01*
X70565288Y-129088621D01*
X70538505Y-129091500D01*
X70482613Y-129091500D01*
X70476161Y-129092872D01*
X70476156Y-129092872D01*
X70389212Y-129111353D01*
X70295812Y-129131206D01*
X70289782Y-129133891D01*
X70289781Y-129133891D01*
X70127378Y-129206197D01*
X70127376Y-129206198D01*
X70121348Y-129208882D01*
X69966847Y-129321134D01*
X69962426Y-129326044D01*
X69962425Y-129326045D01*
X69865571Y-129433613D01*
X69839060Y-129463056D01*
X69743573Y-129628444D01*
X69684558Y-129810072D01*
X69683868Y-129816633D01*
X69683868Y-129816635D01*
X69678930Y-129863621D01*
X69664596Y-130000000D01*
X69684558Y-130189928D01*
X69743573Y-130371556D01*
X69839060Y-130536944D01*
X69966847Y-130678866D01*
X70121348Y-130791118D01*
X70127376Y-130793802D01*
X70127378Y-130793803D01*
X70289781Y-130866109D01*
X70295812Y-130868794D01*
X70389212Y-130888647D01*
X70476156Y-130907128D01*
X70476161Y-130907128D01*
X70482613Y-130908500D01*
X70673587Y-130908500D01*
X70680039Y-130907128D01*
X70680044Y-130907128D01*
X70766988Y-130888647D01*
X70860388Y-130868794D01*
X70866419Y-130866109D01*
X71028822Y-130793803D01*
X71028824Y-130793802D01*
X71034852Y-130791118D01*
X71189353Y-130678866D01*
X71317140Y-130536944D01*
X71412627Y-130371556D01*
X71471642Y-130189928D01*
X71489007Y-130024706D01*
X71516020Y-129959050D01*
X71525222Y-129948782D01*
X75239453Y-126234552D01*
X75247739Y-126227012D01*
X75254218Y-126222900D01*
X75300845Y-126173247D01*
X75303600Y-126170405D01*
X75323335Y-126150670D01*
X75325815Y-126147473D01*
X75333520Y-126138451D01*
X75363786Y-126106221D01*
X75367605Y-126099275D01*
X75367607Y-126099272D01*
X75373548Y-126088466D01*
X75384399Y-126071947D01*
X75388231Y-126067006D01*
X75396814Y-126055941D01*
X75399959Y-126048672D01*
X75399962Y-126048668D01*
X75414374Y-126015363D01*
X75419591Y-126004713D01*
X75440895Y-125965960D01*
X75445933Y-125946337D01*
X75452337Y-125927634D01*
X75457233Y-125916320D01*
X75457233Y-125916319D01*
X75460381Y-125909045D01*
X75461620Y-125901222D01*
X75461623Y-125901212D01*
X75467299Y-125865376D01*
X75469705Y-125853756D01*
X75478728Y-125818611D01*
X75478728Y-125818610D01*
X75480700Y-125810930D01*
X75480700Y-125790676D01*
X75482251Y-125770965D01*
X75484180Y-125758786D01*
X75485420Y-125750957D01*
X75481259Y-125706938D01*
X75480700Y-125695081D01*
X75480700Y-118772224D01*
X75500702Y-118704103D01*
X75513058Y-118687921D01*
X75586240Y-118606644D01*
X75681727Y-118441256D01*
X75740742Y-118259628D01*
X75760704Y-118069700D01*
X75760014Y-118063135D01*
X75741432Y-117886335D01*
X75741432Y-117886333D01*
X75740742Y-117879772D01*
X75681727Y-117698144D01*
X75623201Y-117596774D01*
X75606463Y-117527779D01*
X75629683Y-117460687D01*
X75643225Y-117444679D01*
X83502036Y-109585869D01*
X83564348Y-109551843D01*
X83635163Y-109556908D01*
X83671614Y-109578018D01*
X83714151Y-109613332D01*
X83718126Y-109616632D01*
X83911000Y-109729338D01*
X84119692Y-109809030D01*
X84124760Y-109810061D01*
X84124763Y-109810062D01*
X84232008Y-109831881D01*
X84338597Y-109853567D01*
X84343772Y-109853757D01*
X84343774Y-109853757D01*
X84556673Y-109861564D01*
X84556677Y-109861564D01*
X84561837Y-109861753D01*
X84566957Y-109861097D01*
X84566959Y-109861097D01*
X84778288Y-109834025D01*
X84778289Y-109834025D01*
X84783416Y-109833368D01*
X84788361Y-109831884D01*
X84788377Y-109831881D01*
X84884792Y-109802954D01*
X84955787Y-109802536D01*
X85015738Y-109840568D01*
X85045610Y-109904975D01*
X85047000Y-109923639D01*
X85047000Y-124905606D01*
X85026998Y-124973727D01*
X85010095Y-124994701D01*
X79033747Y-130971048D01*
X79025461Y-130978588D01*
X79018982Y-130982700D01*
X79013557Y-130988477D01*
X78972357Y-131032351D01*
X78969602Y-131035193D01*
X78949865Y-131054930D01*
X78947385Y-131058127D01*
X78939682Y-131067147D01*
X78909414Y-131099379D01*
X78905595Y-131106325D01*
X78905593Y-131106328D01*
X78899652Y-131117134D01*
X78888801Y-131133653D01*
X78876386Y-131149659D01*
X78873241Y-131156928D01*
X78873238Y-131156932D01*
X78858826Y-131190237D01*
X78853604Y-131200896D01*
X78839694Y-131226199D01*
X78789350Y-131276259D01*
X78729279Y-131291500D01*
X78177866Y-131291500D01*
X78115684Y-131298255D01*
X77979295Y-131349385D01*
X77862739Y-131436739D01*
X77775385Y-131553295D01*
X77724255Y-131689684D01*
X77717500Y-131751866D01*
X77717500Y-134248134D01*
X77724255Y-134310316D01*
X77775385Y-134446705D01*
X77862739Y-134563261D01*
X77979295Y-134650615D01*
X78115684Y-134701745D01*
X78177866Y-134708500D01*
X80674134Y-134708500D01*
X80736316Y-134701745D01*
X80872705Y-134650615D01*
X80989261Y-134563261D01*
X81076615Y-134446705D01*
X81104111Y-134373359D01*
X85917386Y-134373359D01*
X85926099Y-134384879D01*
X86014586Y-134449760D01*
X86022505Y-134454708D01*
X86238877Y-134568547D01*
X86247451Y-134572275D01*
X86478282Y-134652885D01*
X86487291Y-134655299D01*
X86727518Y-134700908D01*
X86736775Y-134701962D01*
X86981107Y-134711563D01*
X86990420Y-134711237D01*
X87233478Y-134684618D01*
X87242655Y-134682917D01*
X87479107Y-134620665D01*
X87487926Y-134617628D01*
X87712584Y-134521107D01*
X87720856Y-134516800D01*
X87928777Y-134388135D01*
X87930620Y-134386796D01*
X87938038Y-134375541D01*
X87931974Y-134365184D01*
X86938812Y-133372022D01*
X86924868Y-133364408D01*
X86923035Y-133364539D01*
X86916420Y-133368790D01*
X85924044Y-134361166D01*
X85917386Y-134373359D01*
X81104111Y-134373359D01*
X81127745Y-134310316D01*
X81134500Y-134248134D01*
X81134500Y-132959835D01*
X85214022Y-132959835D01*
X85225754Y-133204064D01*
X85226891Y-133213324D01*
X85274593Y-133453143D01*
X85277082Y-133462118D01*
X85359708Y-133692250D01*
X85363505Y-133700778D01*
X85479234Y-133916160D01*
X85484245Y-133924027D01*
X85541173Y-134000263D01*
X85552431Y-134008712D01*
X85564850Y-134001940D01*
X86553978Y-133012812D01*
X86560356Y-133001132D01*
X87290408Y-133001132D01*
X87290539Y-133002965D01*
X87294790Y-133009580D01*
X88289732Y-134004522D01*
X88302112Y-134011282D01*
X88310453Y-134005038D01*
X88428700Y-133821202D01*
X88433147Y-133813011D01*
X88533572Y-133590076D01*
X88536767Y-133581298D01*
X88603135Y-133345973D01*
X88604993Y-133336844D01*
X88636044Y-133092770D01*
X88636525Y-133086483D01*
X88638706Y-133003160D01*
X88638555Y-132996851D01*
X88620321Y-132751486D01*
X88618944Y-132742280D01*
X88564979Y-132503786D01*
X88562255Y-132494875D01*
X88473633Y-132266983D01*
X88469619Y-132258567D01*
X88348284Y-132046276D01*
X88343074Y-132038553D01*
X88311787Y-131998865D01*
X88299863Y-131990395D01*
X88288328Y-131996882D01*
X87298022Y-132987188D01*
X87290408Y-133001132D01*
X86560356Y-133001132D01*
X86561592Y-132998868D01*
X86561461Y-132997035D01*
X86557210Y-132990420D01*
X85562828Y-131996038D01*
X85549520Y-131988771D01*
X85539481Y-131995893D01*
X85534581Y-132001784D01*
X85529168Y-132009373D01*
X85402322Y-132218409D01*
X85398084Y-132226726D01*
X85303529Y-132452214D01*
X85300572Y-132461052D01*
X85240384Y-132698042D01*
X85238763Y-132707232D01*
X85214267Y-132950510D01*
X85214022Y-132959835D01*
X81134500Y-132959835D01*
X81134500Y-131751866D01*
X81127745Y-131689684D01*
X81103465Y-131624917D01*
X85915330Y-131624917D01*
X85919903Y-131634693D01*
X86913188Y-132627978D01*
X86927132Y-132635592D01*
X86928965Y-132635461D01*
X86935580Y-132631210D01*
X87928488Y-131638302D01*
X87934872Y-131626612D01*
X87925460Y-131614502D01*
X87799144Y-131526873D01*
X87791116Y-131522145D01*
X87571810Y-131413995D01*
X87563177Y-131410507D01*
X87330288Y-131335958D01*
X87321238Y-131333785D01*
X87079891Y-131294480D01*
X87070602Y-131293668D01*
X86826114Y-131290467D01*
X86816803Y-131291037D01*
X86574522Y-131324010D01*
X86565403Y-131325948D01*
X86330668Y-131394367D01*
X86321915Y-131397639D01*
X86099869Y-131500004D01*
X86091714Y-131504524D01*
X85924468Y-131614175D01*
X85915330Y-131624917D01*
X81103465Y-131624917D01*
X81076615Y-131553295D01*
X80989261Y-131436739D01*
X80872705Y-131349385D01*
X80864296Y-131346233D01*
X80864295Y-131346232D01*
X80746482Y-131302066D01*
X80689717Y-131259425D01*
X80665017Y-131192863D01*
X80680224Y-131123514D01*
X80701616Y-131094989D01*
X86072753Y-125723852D01*
X86081039Y-125716312D01*
X86087518Y-125712200D01*
X86134144Y-125662548D01*
X86136898Y-125659707D01*
X86156635Y-125639970D01*
X86159115Y-125636773D01*
X86166820Y-125627751D01*
X86191659Y-125601300D01*
X86197086Y-125595521D01*
X86200905Y-125588575D01*
X86200907Y-125588572D01*
X86206848Y-125577766D01*
X86217699Y-125561247D01*
X86225258Y-125551501D01*
X86230114Y-125545241D01*
X86233259Y-125537972D01*
X86233262Y-125537968D01*
X86247674Y-125504663D01*
X86252891Y-125494013D01*
X86274195Y-125455260D01*
X86279233Y-125435637D01*
X86285637Y-125416934D01*
X86290533Y-125405620D01*
X86290533Y-125405619D01*
X86293681Y-125398345D01*
X86294920Y-125390522D01*
X86294923Y-125390512D01*
X86300599Y-125354676D01*
X86303005Y-125343056D01*
X86312028Y-125307911D01*
X86312028Y-125307910D01*
X86314000Y-125300230D01*
X86314000Y-125279976D01*
X86315551Y-125260265D01*
X86317480Y-125248086D01*
X86318720Y-125240257D01*
X86314559Y-125196238D01*
X86314000Y-125184381D01*
X86314000Y-124908269D01*
X93628401Y-124908269D01*
X93628771Y-124915090D01*
X93634295Y-124965952D01*
X93637921Y-124981204D01*
X93683076Y-125101654D01*
X93691614Y-125117249D01*
X93768115Y-125219324D01*
X93780676Y-125231885D01*
X93882751Y-125308386D01*
X93898346Y-125316924D01*
X94018794Y-125362078D01*
X94034049Y-125365705D01*
X94084914Y-125371231D01*
X94091728Y-125371600D01*
X94727885Y-125371600D01*
X94743124Y-125367125D01*
X94744329Y-125365735D01*
X94746000Y-125358052D01*
X94746000Y-125353484D01*
X95254000Y-125353484D01*
X95258475Y-125368723D01*
X95259865Y-125369928D01*
X95267548Y-125371599D01*
X95908269Y-125371599D01*
X95915090Y-125371229D01*
X95965952Y-125365705D01*
X95981204Y-125362079D01*
X96101654Y-125316924D01*
X96117249Y-125308386D01*
X96219324Y-125231885D01*
X96231885Y-125219324D01*
X96308386Y-125117249D01*
X96316924Y-125101654D01*
X96362078Y-124981206D01*
X96365705Y-124965951D01*
X96371231Y-124915086D01*
X96371600Y-124908272D01*
X96371600Y-124272115D01*
X96367125Y-124256876D01*
X96365735Y-124255671D01*
X96358052Y-124254000D01*
X95272115Y-124254000D01*
X95256876Y-124258475D01*
X95255671Y-124259865D01*
X95254000Y-124267548D01*
X95254000Y-125353484D01*
X94746000Y-125353484D01*
X94746000Y-124272115D01*
X94741525Y-124256876D01*
X94740135Y-124255671D01*
X94732452Y-124254000D01*
X93646516Y-124254000D01*
X93631277Y-124258475D01*
X93630072Y-124259865D01*
X93628401Y-124267548D01*
X93628401Y-124908269D01*
X86314000Y-124908269D01*
X86314000Y-123727885D01*
X93628400Y-123727885D01*
X93632875Y-123743124D01*
X93634265Y-123744329D01*
X93641948Y-123746000D01*
X94727885Y-123746000D01*
X94743124Y-123741525D01*
X94744329Y-123740135D01*
X94746000Y-123732452D01*
X94746000Y-123727885D01*
X95254000Y-123727885D01*
X95258475Y-123743124D01*
X95259865Y-123744329D01*
X95267548Y-123746000D01*
X96353484Y-123746000D01*
X96368723Y-123741525D01*
X96369928Y-123740135D01*
X96371599Y-123732452D01*
X96371599Y-123091731D01*
X96371229Y-123084910D01*
X96365705Y-123034048D01*
X96362079Y-123018796D01*
X96316924Y-122898346D01*
X96308386Y-122882751D01*
X96231885Y-122780676D01*
X96219324Y-122768115D01*
X96117249Y-122691614D01*
X96101654Y-122683076D01*
X95981206Y-122637922D01*
X95965951Y-122634295D01*
X95915086Y-122628769D01*
X95908272Y-122628400D01*
X95272115Y-122628400D01*
X95256876Y-122632875D01*
X95255671Y-122634265D01*
X95254000Y-122641948D01*
X95254000Y-123727885D01*
X94746000Y-123727885D01*
X94746000Y-122646516D01*
X94741525Y-122631277D01*
X94740135Y-122630072D01*
X94732452Y-122628401D01*
X94091731Y-122628401D01*
X94084910Y-122628771D01*
X94034048Y-122634295D01*
X94018796Y-122637921D01*
X93898346Y-122683076D01*
X93882751Y-122691614D01*
X93780676Y-122768115D01*
X93768115Y-122780676D01*
X93691614Y-122882751D01*
X93683076Y-122898346D01*
X93637922Y-123018794D01*
X93634295Y-123034049D01*
X93628769Y-123084914D01*
X93628400Y-123091728D01*
X93628400Y-123727885D01*
X86314000Y-123727885D01*
X86314000Y-120806161D01*
X100519003Y-120806161D01*
X100519009Y-120813477D01*
X100519009Y-120813480D01*
X100519080Y-120894787D01*
X100519157Y-120983031D01*
X100559996Y-121155123D01*
X100639330Y-121313203D01*
X100643672Y-121318536D01*
X100643673Y-121318538D01*
X100703596Y-121392142D01*
X100703602Y-121392148D01*
X100705627Y-121394636D01*
X101837564Y-122526573D01*
X101840094Y-122528627D01*
X101840098Y-122528631D01*
X101914758Y-122589255D01*
X101914762Y-122589257D01*
X101920111Y-122593601D01*
X101926272Y-122596679D01*
X101926276Y-122596682D01*
X102071788Y-122669389D01*
X102071790Y-122669390D01*
X102078331Y-122672658D01*
X102158834Y-122691614D01*
X102243370Y-122711520D01*
X102243372Y-122711520D01*
X102250493Y-122713197D01*
X102257809Y-122713191D01*
X102257812Y-122713191D01*
X102339119Y-122713120D01*
X102427363Y-122713043D01*
X102517663Y-122691614D01*
X102592334Y-122673894D01*
X102592335Y-122673894D01*
X102599455Y-122672204D01*
X102606932Y-122668452D01*
X102751386Y-122595956D01*
X102757535Y-122592870D01*
X102762870Y-122588527D01*
X102836474Y-122528604D01*
X102836480Y-122528598D01*
X102838968Y-122526573D01*
X103758773Y-121606768D01*
X103760831Y-121604234D01*
X103821455Y-121529574D01*
X103821457Y-121529570D01*
X103825801Y-121524221D01*
X103828879Y-121518060D01*
X103828882Y-121518056D01*
X103901589Y-121372544D01*
X103901590Y-121372542D01*
X103904858Y-121366001D01*
X103927040Y-121271798D01*
X103943720Y-121200962D01*
X103943720Y-121200960D01*
X103945397Y-121193839D01*
X103945364Y-121155123D01*
X103945249Y-121024286D01*
X103945243Y-121016969D01*
X103905739Y-120850503D01*
X103909471Y-120779605D01*
X103950942Y-120721979D01*
X104016984Y-120695922D01*
X104031301Y-120695445D01*
X104189267Y-120699168D01*
X104351527Y-120675352D01*
X104412090Y-120666463D01*
X104412092Y-120666463D01*
X104417369Y-120665688D01*
X104636569Y-120594254D01*
X104840600Y-120486909D01*
X105023626Y-120346721D01*
X105027258Y-120342806D01*
X105027262Y-120342802D01*
X105176788Y-120181610D01*
X105180416Y-120177699D01*
X105274522Y-120033617D01*
X105303565Y-119989151D01*
X105303566Y-119989150D01*
X105306487Y-119984677D01*
X105308693Y-119979593D01*
X105396108Y-119778068D01*
X105398232Y-119773172D01*
X105426147Y-119659093D01*
X105451761Y-119554417D01*
X105451762Y-119554411D01*
X105453029Y-119549233D01*
X105458235Y-119475706D01*
X105468935Y-119324590D01*
X105468935Y-119324587D01*
X105469312Y-119319262D01*
X105452618Y-119150517D01*
X105447141Y-119095150D01*
X105447140Y-119095146D01*
X105446615Y-119089837D01*
X105385586Y-118867515D01*
X105355007Y-118802086D01*
X105331742Y-118752310D01*
X105287971Y-118658655D01*
X105156560Y-118469227D01*
X105153770Y-118466161D01*
X105153766Y-118466156D01*
X105141273Y-118452428D01*
X105140287Y-118451344D01*
X104813571Y-118124628D01*
X104681759Y-118013435D01*
X104483012Y-117896598D01*
X104267421Y-117814917D01*
X104041149Y-117770730D01*
X104035816Y-117770604D01*
X104035813Y-117770604D01*
X103920262Y-117767881D01*
X103810667Y-117765298D01*
X103648407Y-117789114D01*
X103587844Y-117798003D01*
X103587842Y-117798003D01*
X103582565Y-117798778D01*
X103363365Y-117870212D01*
X103159334Y-117977557D01*
X103155097Y-117980803D01*
X103155096Y-117980803D01*
X103112493Y-118013435D01*
X102976308Y-118117745D01*
X102972676Y-118121660D01*
X102972672Y-118121664D01*
X102949580Y-118146558D01*
X102819518Y-118286767D01*
X102816601Y-118291233D01*
X102714877Y-118446979D01*
X102693447Y-118479789D01*
X102601702Y-118691294D01*
X102600434Y-118696476D01*
X102548173Y-118910049D01*
X102548172Y-118910055D01*
X102546905Y-118915233D01*
X102530622Y-119145204D01*
X102531148Y-119150517D01*
X102535160Y-119191072D01*
X102521962Y-119260831D01*
X102473144Y-119312380D01*
X102404207Y-119329354D01*
X102380893Y-119326123D01*
X102221030Y-119288480D01*
X102221028Y-119288480D01*
X102213907Y-119286803D01*
X102206591Y-119286809D01*
X102206588Y-119286809D01*
X102125281Y-119286880D01*
X102037037Y-119286957D01*
X101950991Y-119307376D01*
X101872066Y-119326106D01*
X101872065Y-119326106D01*
X101864945Y-119327796D01*
X101706865Y-119407130D01*
X101701532Y-119411472D01*
X101701530Y-119411473D01*
X101627926Y-119471396D01*
X101627920Y-119471402D01*
X101625432Y-119473427D01*
X100705627Y-120393232D01*
X100703573Y-120395762D01*
X100703569Y-120395766D01*
X100642945Y-120470426D01*
X100642943Y-120470430D01*
X100638599Y-120475779D01*
X100635521Y-120481940D01*
X100635518Y-120481944D01*
X100579401Y-120594254D01*
X100559542Y-120633999D01*
X100519003Y-120806161D01*
X86314000Y-120806161D01*
X86314000Y-112161300D01*
X86334002Y-112093179D01*
X86387658Y-112046686D01*
X86440000Y-112035300D01*
X86507387Y-112035300D01*
X86513839Y-112033928D01*
X86513844Y-112033928D01*
X86600788Y-112015447D01*
X86694188Y-111995594D01*
X86700219Y-111992909D01*
X86862622Y-111920603D01*
X86862624Y-111920602D01*
X86868652Y-111917918D01*
X87023153Y-111805666D01*
X87132039Y-111684736D01*
X87146521Y-111668652D01*
X87146522Y-111668651D01*
X87150940Y-111663744D01*
X87227754Y-111530699D01*
X87243123Y-111504079D01*
X87243124Y-111504078D01*
X87246427Y-111498356D01*
X87301287Y-111329514D01*
X87332025Y-111279356D01*
X88150411Y-110460970D01*
X101368326Y-110460970D01*
X101374749Y-110469550D01*
X101475562Y-110535394D01*
X101484925Y-110540435D01*
X101686554Y-110627898D01*
X101696642Y-110631292D01*
X101910127Y-110683531D01*
X101920635Y-110685176D01*
X102139869Y-110700699D01*
X102150512Y-110700550D01*
X102191194Y-110696526D01*
X102260953Y-110709725D01*
X102312502Y-110758543D01*
X102329475Y-110827481D01*
X102326244Y-110850793D01*
X102293741Y-110988830D01*
X102286803Y-111018293D01*
X102286957Y-111195163D01*
X102327796Y-111367255D01*
X102331078Y-111373794D01*
X102331078Y-111373795D01*
X102348952Y-111409411D01*
X102407130Y-111525335D01*
X102411472Y-111530668D01*
X102411473Y-111530670D01*
X102471396Y-111604274D01*
X102471402Y-111604280D01*
X102473427Y-111606768D01*
X103393232Y-112526573D01*
X103395762Y-112528627D01*
X103395766Y-112528631D01*
X103470426Y-112589255D01*
X103470430Y-112589257D01*
X103475779Y-112593601D01*
X103481940Y-112596679D01*
X103481944Y-112596682D01*
X103627456Y-112669389D01*
X103627458Y-112669390D01*
X103633999Y-112672658D01*
X103728202Y-112694840D01*
X103799038Y-112711520D01*
X103799040Y-112711520D01*
X103806161Y-112713197D01*
X103813477Y-112713191D01*
X103813480Y-112713191D01*
X103894787Y-112713120D01*
X103983031Y-112713043D01*
X104069077Y-112692623D01*
X104148002Y-112673894D01*
X104148003Y-112673894D01*
X104155123Y-112672204D01*
X104313203Y-112592870D01*
X104318538Y-112588527D01*
X104392142Y-112528604D01*
X104392148Y-112528598D01*
X104394636Y-112526573D01*
X105526573Y-111394636D01*
X105543496Y-111373795D01*
X105589255Y-111317442D01*
X105589257Y-111317438D01*
X105593601Y-111312089D01*
X105596679Y-111305928D01*
X105596682Y-111305924D01*
X105669389Y-111160412D01*
X105669390Y-111160410D01*
X105672658Y-111153869D01*
X105704582Y-111018293D01*
X105711520Y-110988830D01*
X105711520Y-110988828D01*
X105713197Y-110981707D01*
X105713043Y-110804837D01*
X105677671Y-110655784D01*
X105673894Y-110639866D01*
X105673894Y-110639865D01*
X105672204Y-110632745D01*
X105640219Y-110569011D01*
X105595956Y-110480814D01*
X105592870Y-110474665D01*
X105588527Y-110469330D01*
X105528604Y-110395726D01*
X105528598Y-110395720D01*
X105526573Y-110393232D01*
X104606768Y-109473427D01*
X104593018Y-109462262D01*
X104529574Y-109410745D01*
X104529570Y-109410743D01*
X104524221Y-109406399D01*
X104518060Y-109403321D01*
X104518056Y-109403318D01*
X104372544Y-109330611D01*
X104372542Y-109330610D01*
X104366001Y-109327342D01*
X104271798Y-109305160D01*
X104200962Y-109288480D01*
X104200960Y-109288480D01*
X104193839Y-109286803D01*
X104186523Y-109286809D01*
X104186520Y-109286809D01*
X104105213Y-109286880D01*
X104016969Y-109286957D01*
X103989667Y-109293436D01*
X103850000Y-109326580D01*
X103779101Y-109322847D01*
X103721476Y-109281377D01*
X103695419Y-109215335D01*
X103694942Y-109201017D01*
X103698540Y-109048300D01*
X103697890Y-109037679D01*
X103665974Y-108820227D01*
X103663545Y-108809870D01*
X103595448Y-108600906D01*
X103591303Y-108591096D01*
X103488972Y-108396595D01*
X103483242Y-108387635D01*
X103473785Y-108375289D01*
X103462215Y-108366826D01*
X103450207Y-108373469D01*
X101375086Y-110448590D01*
X101368326Y-110460970D01*
X88150411Y-110460970D01*
X89195216Y-109416165D01*
X100765926Y-109416165D01*
X100766576Y-109426787D01*
X100798492Y-109644239D01*
X100800921Y-109654596D01*
X100869018Y-109863560D01*
X100873163Y-109873370D01*
X100975494Y-110067871D01*
X100981224Y-110076831D01*
X100990681Y-110089177D01*
X101002251Y-110097640D01*
X101014259Y-110090997D01*
X101860211Y-109245045D01*
X101867825Y-109231101D01*
X101867694Y-109229268D01*
X101863443Y-109222653D01*
X101107957Y-108467167D01*
X101094526Y-108459833D01*
X101084668Y-108466775D01*
X101017290Y-108546648D01*
X101011137Y-108555337D01*
X100899753Y-108744808D01*
X100895161Y-108754391D01*
X100817289Y-108959931D01*
X100814378Y-108970150D01*
X100772250Y-109185870D01*
X100771102Y-109196439D01*
X100765926Y-109416165D01*
X89195216Y-109416165D01*
X90517872Y-108093509D01*
X101456785Y-108093509D01*
X101456916Y-108095342D01*
X101461167Y-108101957D01*
X102219421Y-108860211D01*
X102233365Y-108867825D01*
X102235198Y-108867694D01*
X102241813Y-108863443D01*
X103089380Y-108015876D01*
X103096140Y-108003496D01*
X103089717Y-107994916D01*
X102988904Y-107929072D01*
X102979541Y-107924031D01*
X102777912Y-107836568D01*
X102767824Y-107833174D01*
X102554339Y-107780935D01*
X102543831Y-107779290D01*
X102324597Y-107763767D01*
X102313956Y-107763916D01*
X102095241Y-107785553D01*
X102084778Y-107787493D01*
X101872832Y-107845674D01*
X101862856Y-107849344D01*
X101663739Y-107942406D01*
X101654520Y-107947707D01*
X101472960Y-108073660D01*
X101466477Y-108078822D01*
X101463154Y-108081845D01*
X101456785Y-108093509D01*
X90517872Y-108093509D01*
X92503305Y-106108076D01*
X92565617Y-106074050D01*
X92636432Y-106079115D01*
X92681495Y-106108076D01*
X93062330Y-106488911D01*
X93074716Y-106503323D01*
X93083249Y-106514918D01*
X93083254Y-106514923D01*
X93087592Y-106520818D01*
X93093170Y-106525557D01*
X93093173Y-106525560D01*
X93127875Y-106555041D01*
X93135391Y-106561971D01*
X93141080Y-106567660D01*
X93143934Y-106569918D01*
X93143944Y-106569927D01*
X93163342Y-106585274D01*
X93166742Y-106588062D01*
X93216807Y-106630595D01*
X93216811Y-106630598D01*
X93222385Y-106635333D01*
X93228900Y-106638660D01*
X93233937Y-106642019D01*
X93239075Y-106645192D01*
X93244816Y-106649734D01*
X93310975Y-106680655D01*
X93314869Y-106682558D01*
X93379908Y-106715769D01*
X93387017Y-106717508D01*
X93392651Y-106719604D01*
X93398421Y-106721523D01*
X93405050Y-106724622D01*
X93412213Y-106726112D01*
X93412216Y-106726113D01*
X93462930Y-106736661D01*
X93476535Y-106739491D01*
X93480801Y-106740457D01*
X93551710Y-106757808D01*
X93557312Y-106758156D01*
X93557315Y-106758156D01*
X93562864Y-106758500D01*
X93562862Y-106758535D01*
X93566834Y-106758775D01*
X93571055Y-106759152D01*
X93578215Y-106760641D01*
X93655642Y-106758546D01*
X93659050Y-106758500D01*
X93745581Y-106758500D01*
X93813702Y-106778502D01*
X93846878Y-106809726D01*
X93848975Y-106813147D01*
X93996702Y-106983687D01*
X94170299Y-107127810D01*
X94174751Y-107130412D01*
X94174756Y-107130415D01*
X94360645Y-107239040D01*
X94365103Y-107241645D01*
X94575884Y-107322134D01*
X94580952Y-107323165D01*
X94580955Y-107323166D01*
X94683938Y-107344118D01*
X94796981Y-107367117D01*
X94802156Y-107367307D01*
X94802158Y-107367307D01*
X95017292Y-107375196D01*
X95017296Y-107375196D01*
X95022456Y-107375385D01*
X95027576Y-107374729D01*
X95027578Y-107374729D01*
X95126154Y-107362101D01*
X95246253Y-107346716D01*
X95251202Y-107345231D01*
X95251208Y-107345230D01*
X95446167Y-107286739D01*
X95462363Y-107281880D01*
X95557419Y-107235312D01*
X95660331Y-107184897D01*
X95660336Y-107184894D01*
X95664982Y-107182618D01*
X95669192Y-107179615D01*
X95669197Y-107179612D01*
X95844455Y-107054601D01*
X95844459Y-107054597D01*
X95848667Y-107051596D01*
X96008487Y-106892333D01*
X96140150Y-106709105D01*
X96208936Y-106569927D01*
X96237824Y-106511477D01*
X96237825Y-106511475D01*
X96240118Y-106506835D01*
X96305708Y-106290952D01*
X96335158Y-106067256D01*
X96336802Y-106000000D01*
X96318315Y-105775132D01*
X96263349Y-105556304D01*
X96173380Y-105349391D01*
X96132973Y-105286931D01*
X96053634Y-105164291D01*
X96053632Y-105164288D01*
X96050826Y-105159951D01*
X95898977Y-104993071D01*
X95894926Y-104989872D01*
X95894922Y-104989868D01*
X95725966Y-104856434D01*
X95725962Y-104856432D01*
X95721911Y-104853232D01*
X95524383Y-104744191D01*
X95311698Y-104668876D01*
X95261297Y-104659898D01*
X95094657Y-104630214D01*
X95094653Y-104630214D01*
X95089569Y-104629308D01*
X95017574Y-104628429D01*
X94869129Y-104626615D01*
X94869127Y-104626615D01*
X94863959Y-104626552D01*
X94640929Y-104660680D01*
X94426468Y-104730777D01*
X94226335Y-104834960D01*
X94222202Y-104838063D01*
X94222199Y-104838065D01*
X94197734Y-104856434D01*
X94045905Y-104970430D01*
X94042333Y-104974168D01*
X93960654Y-105059640D01*
X93899130Y-105095070D01*
X93828217Y-105091613D01*
X93780465Y-105061684D01*
X93387805Y-104669024D01*
X93353779Y-104606712D01*
X93350900Y-104579929D01*
X93350900Y-100035670D01*
X93352333Y-100016720D01*
X93354499Y-100002485D01*
X93354499Y-100002481D01*
X93355599Y-99995251D01*
X93351315Y-99942582D01*
X93350900Y-99932367D01*
X93350900Y-99924307D01*
X93347611Y-99896093D01*
X93347178Y-99891718D01*
X93341854Y-99826261D01*
X93341853Y-99826258D01*
X93341260Y-99818963D01*
X93339004Y-99811999D01*
X93337813Y-99806040D01*
X93336429Y-99800185D01*
X93335582Y-99792919D01*
X93310665Y-99724273D01*
X93309248Y-99720145D01*
X93289007Y-99657664D01*
X93289006Y-99657662D01*
X93286751Y-99650701D01*
X93282955Y-99644446D01*
X93280449Y-99638972D01*
X93277730Y-99633542D01*
X93275233Y-99626663D01*
X93235214Y-99565624D01*
X93232867Y-99561905D01*
X93194995Y-99499493D01*
X93187597Y-99491116D01*
X93187624Y-99491092D01*
X93184971Y-99488100D01*
X93182268Y-99484867D01*
X93178256Y-99478748D01*
X93122017Y-99425472D01*
X93119575Y-99423094D01*
X83221870Y-89525389D01*
X83209484Y-89510977D01*
X83200951Y-89499382D01*
X83200946Y-89499377D01*
X83196608Y-89493482D01*
X83191030Y-89488743D01*
X83191027Y-89488740D01*
X83156332Y-89459265D01*
X83148816Y-89452335D01*
X83143121Y-89446640D01*
X83136980Y-89441782D01*
X83120849Y-89429019D01*
X83117445Y-89426228D01*
X83067397Y-89383709D01*
X83067395Y-89383708D01*
X83061815Y-89378967D01*
X83055299Y-89375639D01*
X83050250Y-89372272D01*
X83045121Y-89369105D01*
X83039384Y-89364566D01*
X82973225Y-89333645D01*
X82969325Y-89331739D01*
X82904292Y-89298531D01*
X82897184Y-89296792D01*
X82891541Y-89294693D01*
X82885778Y-89292776D01*
X82879150Y-89289678D01*
X82807683Y-89274813D01*
X82803399Y-89273843D01*
X82732490Y-89256492D01*
X82726888Y-89256144D01*
X82726885Y-89256144D01*
X82721336Y-89255800D01*
X82721338Y-89255764D01*
X82717345Y-89255525D01*
X82713153Y-89255151D01*
X82705985Y-89253660D01*
X82639775Y-89255451D01*
X82628579Y-89255754D01*
X82625172Y-89255800D01*
X79393442Y-89255800D01*
X79325321Y-89235798D01*
X79278828Y-89182142D01*
X79267480Y-89126721D01*
X79268176Y-89098262D01*
X79268176Y-89098258D01*
X79268258Y-89094898D01*
X79249954Y-88872259D01*
X79241718Y-88839468D01*
X79224760Y-88771956D01*
X79227564Y-88701015D01*
X79268277Y-88642852D01*
X79333973Y-88615933D01*
X79372084Y-88617790D01*
X79534749Y-88650884D01*
X79544977Y-88652103D01*
X79757804Y-88659908D01*
X79768090Y-88659441D01*
X79979339Y-88632380D01*
X79989416Y-88630238D01*
X80193409Y-88569037D01*
X80202996Y-88565279D01*
X80394252Y-88471584D01*
X80403098Y-88466311D01*
X80450401Y-88432569D01*
X80458802Y-88421869D01*
X80451814Y-88408716D01*
X79343076Y-87299978D01*
X80065562Y-87299978D01*
X80065693Y-87301811D01*
X80069944Y-87308426D01*
X80811628Y-88050110D01*
X80823638Y-88056669D01*
X80835377Y-88047701D01*
X80866158Y-88004865D01*
X80871469Y-87996026D01*
X80965824Y-87805113D01*
X80969623Y-87795518D01*
X81031530Y-87591761D01*
X81033709Y-87581680D01*
X81061744Y-87368733D01*
X81062263Y-87362058D01*
X81063726Y-87302210D01*
X81063532Y-87295492D01*
X81045935Y-87081450D01*
X81044250Y-87071270D01*
X80992368Y-86864721D01*
X80989048Y-86854970D01*
X80904126Y-86659660D01*
X80899259Y-86650585D01*
X80834217Y-86550043D01*
X80823531Y-86540841D01*
X80813966Y-86545244D01*
X80073176Y-87286034D01*
X80065562Y-87299978D01*
X79343076Y-87299978D01*
X78591003Y-86547905D01*
X78579467Y-86541605D01*
X78567185Y-86551228D01*
X78519243Y-86621508D01*
X78514158Y-86630459D01*
X78424492Y-86823629D01*
X78420929Y-86833316D01*
X78364018Y-87038527D01*
X78362087Y-87048646D01*
X78339456Y-87260420D01*
X78339204Y-87270709D01*
X78351463Y-87483323D01*
X78352899Y-87493542D01*
X78381916Y-87622296D01*
X78377380Y-87693147D01*
X78335259Y-87750299D01*
X78268925Y-87775605D01*
X78236905Y-87774044D01*
X78172452Y-87762563D01*
X78038475Y-87738698D01*
X78038469Y-87738697D01*
X78033386Y-87737792D01*
X77959554Y-87736890D01*
X77815183Y-87735126D01*
X77815181Y-87735126D01*
X77810013Y-87735063D01*
X77589193Y-87768853D01*
X77376858Y-87838255D01*
X77178709Y-87941405D01*
X77174576Y-87944508D01*
X77174573Y-87944510D01*
X77004202Y-88072428D01*
X77000067Y-88075533D01*
X76845731Y-88237036D01*
X76719845Y-88421578D01*
X76699081Y-88466311D01*
X76628767Y-88617790D01*
X76625790Y-88624203D01*
X76566091Y-88839468D01*
X76542353Y-89061593D01*
X76542650Y-89066746D01*
X76542650Y-89066749D01*
X76553591Y-89256492D01*
X76555212Y-89284613D01*
X76556349Y-89289659D01*
X76556350Y-89289665D01*
X76585448Y-89418780D01*
X76580912Y-89489632D01*
X76538790Y-89546783D01*
X76472457Y-89572089D01*
X76440435Y-89570529D01*
X76242366Y-89535248D01*
X76232124Y-89534280D01*
X76019167Y-89531677D01*
X76008883Y-89532397D01*
X75798372Y-89564610D01*
X75788344Y-89566999D01*
X75585919Y-89633161D01*
X75576410Y-89637158D01*
X75387517Y-89735489D01*
X75378785Y-89740988D01*
X75358728Y-89756048D01*
X75350274Y-89767376D01*
X75357019Y-89779707D01*
X77219525Y-91642213D01*
X77231535Y-91648772D01*
X77243274Y-91639804D01*
X77274055Y-91596968D01*
X77279366Y-91588129D01*
X77373721Y-91397216D01*
X77377520Y-91387621D01*
X77439427Y-91183864D01*
X77441606Y-91173783D01*
X77469641Y-90960836D01*
X77470160Y-90954161D01*
X77471623Y-90894313D01*
X77471429Y-90887595D01*
X77453832Y-90673553D01*
X77452147Y-90663374D01*
X77428300Y-90568436D01*
X77431104Y-90497495D01*
X77471816Y-90439331D01*
X77537511Y-90412412D01*
X77575620Y-90414269D01*
X77743699Y-90448465D01*
X77748874Y-90448655D01*
X77748876Y-90448655D01*
X77961775Y-90456462D01*
X77961779Y-90456462D01*
X77966939Y-90456651D01*
X77972059Y-90455995D01*
X77972061Y-90455995D01*
X78107086Y-90438698D01*
X78177196Y-90449883D01*
X78212187Y-90474577D01*
X78240848Y-90503235D01*
X78253234Y-90517647D01*
X78266092Y-90535118D01*
X78306386Y-90569350D01*
X78313893Y-90576272D01*
X78317016Y-90579395D01*
X78317023Y-90579401D01*
X78319610Y-90581988D01*
X78341878Y-90599603D01*
X78345265Y-90602380D01*
X78395311Y-90644898D01*
X78395314Y-90644900D01*
X78400885Y-90649633D01*
X78407402Y-90652961D01*
X78412438Y-90656319D01*
X78417606Y-90659510D01*
X78423352Y-90664056D01*
X78489438Y-90694938D01*
X78493386Y-90696867D01*
X78558408Y-90730069D01*
X78565516Y-90731808D01*
X78571165Y-90733909D01*
X78576959Y-90735836D01*
X78583590Y-90738935D01*
X78590754Y-90740425D01*
X78590758Y-90740426D01*
X78655001Y-90753784D01*
X78659301Y-90754756D01*
X78730210Y-90772108D01*
X78735809Y-90772455D01*
X78735813Y-90772456D01*
X78741364Y-90772800D01*
X78741362Y-90772836D01*
X78745338Y-90773074D01*
X78749588Y-90773453D01*
X78756757Y-90774944D01*
X78764072Y-90774746D01*
X78764076Y-90774746D01*
X78834148Y-90772846D01*
X78837562Y-90772800D01*
X82271729Y-90772800D01*
X82339850Y-90792802D01*
X82360824Y-90809705D01*
X86627524Y-95076405D01*
X86661550Y-95138717D01*
X86656485Y-95209532D01*
X86613938Y-95266368D01*
X86547418Y-95291179D01*
X86538429Y-95291500D01*
X85325866Y-95291500D01*
X85263684Y-95298255D01*
X85127295Y-95349385D01*
X85010739Y-95436739D01*
X84923385Y-95553295D01*
X84872255Y-95689684D01*
X84865500Y-95751866D01*
X84865500Y-98248134D01*
X84872255Y-98310316D01*
X84923385Y-98446705D01*
X85010739Y-98563261D01*
X85127295Y-98650615D01*
X85135703Y-98653767D01*
X85238254Y-98692212D01*
X85264700Y-98712079D01*
X85290424Y-98705125D01*
X85301311Y-98705833D01*
X85322464Y-98708131D01*
X85322474Y-98708132D01*
X85325866Y-98708500D01*
X85814500Y-98708500D01*
X85882621Y-98728502D01*
X85929114Y-98782158D01*
X85940500Y-98834500D01*
X85940500Y-99134221D01*
X85920498Y-99202342D01*
X85866842Y-99248835D01*
X85796568Y-99258939D01*
X85731988Y-99229445D01*
X85726990Y-99224743D01*
X85724032Y-99221064D01*
X85572526Y-99093935D01*
X85567128Y-99090968D01*
X85567123Y-99090964D01*
X85404608Y-99001622D01*
X85404609Y-99001622D01*
X85399213Y-98998656D01*
X85393346Y-98996795D01*
X85393344Y-98996794D01*
X85333952Y-98977954D01*
X85249605Y-98951197D01*
X85215769Y-98928406D01*
X85179980Y-98935409D01*
X85056773Y-98921589D01*
X79457588Y-98921589D01*
X79389467Y-98901587D01*
X79342974Y-98847931D01*
X79332870Y-98777657D01*
X79362364Y-98713077D01*
X79425508Y-98673741D01*
X79627107Y-98620665D01*
X79635926Y-98617628D01*
X79860584Y-98521107D01*
X79868856Y-98516800D01*
X80076777Y-98388135D01*
X80078620Y-98386796D01*
X80086038Y-98375541D01*
X80079974Y-98365184D01*
X79086812Y-97372022D01*
X79072868Y-97364408D01*
X79071035Y-97364539D01*
X79064420Y-97368790D01*
X78072044Y-98361166D01*
X78065386Y-98373359D01*
X78074099Y-98384879D01*
X78162586Y-98449760D01*
X78170505Y-98454708D01*
X78386877Y-98568547D01*
X78395451Y-98572275D01*
X78626282Y-98652885D01*
X78635291Y-98655299D01*
X78722204Y-98671800D01*
X78785398Y-98704157D01*
X78821067Y-98765544D01*
X78817886Y-98836469D01*
X78776865Y-98894415D01*
X78711027Y-98920985D01*
X78698702Y-98921589D01*
X77400013Y-98921589D01*
X77331892Y-98901587D01*
X77310918Y-98884684D01*
X75386069Y-96959835D01*
X77362022Y-96959835D01*
X77373754Y-97204064D01*
X77374891Y-97213324D01*
X77422593Y-97453143D01*
X77425082Y-97462118D01*
X77507708Y-97692250D01*
X77511505Y-97700778D01*
X77627234Y-97916160D01*
X77632245Y-97924027D01*
X77689173Y-98000263D01*
X77700431Y-98008712D01*
X77712850Y-98001940D01*
X78701978Y-97012812D01*
X78708356Y-97001132D01*
X79438408Y-97001132D01*
X79438539Y-97002965D01*
X79442790Y-97009580D01*
X80437732Y-98004522D01*
X80450112Y-98011282D01*
X80458453Y-98005038D01*
X80576700Y-97821202D01*
X80581147Y-97813011D01*
X80681572Y-97590076D01*
X80684767Y-97581298D01*
X80751135Y-97345973D01*
X80752993Y-97336844D01*
X80784044Y-97092770D01*
X80784525Y-97086483D01*
X80786706Y-97003160D01*
X80786555Y-96996851D01*
X80768321Y-96751486D01*
X80766944Y-96742280D01*
X80712979Y-96503786D01*
X80710255Y-96494875D01*
X80621633Y-96266983D01*
X80617619Y-96258567D01*
X80496284Y-96046276D01*
X80491074Y-96038553D01*
X80459787Y-95998865D01*
X80447863Y-95990395D01*
X80436328Y-95996882D01*
X79446022Y-96987188D01*
X79438408Y-97001132D01*
X78708356Y-97001132D01*
X78709592Y-96998868D01*
X78709461Y-96997035D01*
X78705210Y-96990420D01*
X77710828Y-95996038D01*
X77697520Y-95988771D01*
X77687481Y-95995893D01*
X77682581Y-96001784D01*
X77677168Y-96009373D01*
X77550322Y-96218409D01*
X77546084Y-96226726D01*
X77451529Y-96452214D01*
X77448572Y-96461052D01*
X77388384Y-96698042D01*
X77386763Y-96707232D01*
X77362267Y-96950510D01*
X77362022Y-96959835D01*
X75386069Y-96959835D01*
X75358405Y-96932171D01*
X75324379Y-96869859D01*
X75321500Y-96843076D01*
X75321500Y-95624917D01*
X78063330Y-95624917D01*
X78067903Y-95634693D01*
X79061188Y-96627978D01*
X79075132Y-96635592D01*
X79076965Y-96635461D01*
X79083580Y-96631210D01*
X80076488Y-95638302D01*
X80082872Y-95626612D01*
X80073460Y-95614502D01*
X79947144Y-95526873D01*
X79939116Y-95522145D01*
X79719810Y-95413995D01*
X79711177Y-95410507D01*
X79478288Y-95335958D01*
X79469238Y-95333785D01*
X79227891Y-95294480D01*
X79218602Y-95293668D01*
X78974114Y-95290467D01*
X78964803Y-95291037D01*
X78722522Y-95324010D01*
X78713403Y-95325948D01*
X78478668Y-95394367D01*
X78469915Y-95397639D01*
X78247869Y-95500004D01*
X78239714Y-95504524D01*
X78072468Y-95614175D01*
X78063330Y-95624917D01*
X75321500Y-95624917D01*
X75321500Y-93651899D01*
X75341502Y-93583778D01*
X75358405Y-93562804D01*
X75908681Y-93012528D01*
X75926889Y-92989882D01*
X75942925Y-92969938D01*
X75942927Y-92969935D01*
X75947874Y-92963782D01*
X75996659Y-92856484D01*
X76004447Y-92839355D01*
X76004447Y-92839354D01*
X76008161Y-92831186D01*
X76010644Y-92813852D01*
X76027537Y-92695889D01*
X76028810Y-92687000D01*
X76019473Y-92621799D01*
X76009434Y-92551700D01*
X76009433Y-92551697D01*
X76008161Y-92542814D01*
X75955386Y-92426740D01*
X75945400Y-92356449D01*
X75975001Y-92291918D01*
X76034791Y-92253634D01*
X76074704Y-92248674D01*
X76165701Y-92252011D01*
X76175987Y-92251544D01*
X76387236Y-92224483D01*
X76397313Y-92222341D01*
X76601306Y-92161140D01*
X76610893Y-92157382D01*
X76802149Y-92063687D01*
X76810995Y-92058414D01*
X76858298Y-92024672D01*
X76866699Y-92013972D01*
X76859711Y-92000819D01*
X74998900Y-90140008D01*
X74987364Y-90133708D01*
X74975082Y-90143331D01*
X74927140Y-90213611D01*
X74922055Y-90222562D01*
X74832389Y-90415732D01*
X74828826Y-90425419D01*
X74771915Y-90630630D01*
X74769984Y-90640749D01*
X74747353Y-90852523D01*
X74747101Y-90862813D01*
X74750534Y-90922357D01*
X74734486Y-90991516D01*
X74683595Y-91041020D01*
X74614019Y-91055152D01*
X74572593Y-91044310D01*
X74465358Y-90995554D01*
X74465355Y-90995553D01*
X74457186Y-90991839D01*
X74448303Y-90990567D01*
X74448300Y-90990566D01*
X74321889Y-90972463D01*
X74313000Y-90971190D01*
X74304111Y-90972463D01*
X74177700Y-90990566D01*
X74177697Y-90990567D01*
X74168814Y-90991839D01*
X74036218Y-91052126D01*
X74030065Y-91057073D01*
X74030062Y-91057075D01*
X74004208Y-91077863D01*
X73987472Y-91091319D01*
X72717319Y-92361472D01*
X72703863Y-92378208D01*
X72683075Y-92404062D01*
X72683073Y-92404065D01*
X72678126Y-92410218D01*
X72617839Y-92542814D01*
X72616567Y-92551697D01*
X72616566Y-92551700D01*
X72606527Y-92621799D01*
X72597190Y-92687000D01*
X72598463Y-92695889D01*
X72615357Y-92813852D01*
X72617839Y-92831186D01*
X72621553Y-92839354D01*
X72621553Y-92839355D01*
X72629341Y-92856484D01*
X72678126Y-92963782D01*
X72683073Y-92969935D01*
X72683075Y-92969938D01*
X72699111Y-92989882D01*
X72717319Y-93012528D01*
X73267595Y-93562804D01*
X73301621Y-93625116D01*
X73304500Y-93651899D01*
X73304500Y-97251157D01*
X73303763Y-97264764D01*
X73299676Y-97302388D01*
X73300213Y-97308523D01*
X73304050Y-97352388D01*
X73304379Y-97357214D01*
X73304500Y-97359686D01*
X73304500Y-97362769D01*
X73305407Y-97372022D01*
X73308690Y-97405506D01*
X73308812Y-97406819D01*
X73316913Y-97499413D01*
X73318400Y-97504532D01*
X73318920Y-97509833D01*
X73345791Y-97598834D01*
X73346126Y-97599967D01*
X73372091Y-97689336D01*
X73374544Y-97694068D01*
X73376084Y-97699169D01*
X73378978Y-97704612D01*
X73419731Y-97781260D01*
X73420343Y-97782426D01*
X73426910Y-97795094D01*
X73463108Y-97864926D01*
X73466431Y-97869089D01*
X73468934Y-97873796D01*
X73527755Y-97945918D01*
X73528446Y-97946774D01*
X73559738Y-97985973D01*
X73562242Y-97988477D01*
X73562884Y-97989195D01*
X73566585Y-97993528D01*
X73593935Y-98027062D01*
X73598682Y-98030989D01*
X73598684Y-98030991D01*
X73629262Y-98056287D01*
X73638042Y-98064277D01*
X74832705Y-99258939D01*
X75929771Y-100356005D01*
X75963796Y-100418317D01*
X75958732Y-100489132D01*
X75916185Y-100545968D01*
X75849665Y-100570779D01*
X75840676Y-100571100D01*
X73325971Y-100571100D01*
X73257850Y-100551098D01*
X73236876Y-100534195D01*
X70466088Y-97763407D01*
X70432062Y-97701095D01*
X70432664Y-97644898D01*
X70450880Y-97569024D01*
X70450881Y-97569018D01*
X70452035Y-97564211D01*
X70470665Y-97327500D01*
X70452035Y-97090789D01*
X70444016Y-97057385D01*
X70397760Y-96864718D01*
X70396605Y-96859906D01*
X70389634Y-96843076D01*
X70307635Y-96645111D01*
X70307633Y-96645107D01*
X70305740Y-96640537D01*
X70298044Y-96627978D01*
X70184259Y-96442298D01*
X70184255Y-96442292D01*
X70181676Y-96438084D01*
X70027469Y-96257531D01*
X69846916Y-96103324D01*
X69842708Y-96100745D01*
X69842702Y-96100741D01*
X69648683Y-95981846D01*
X69644463Y-95979260D01*
X69639893Y-95977367D01*
X69639889Y-95977365D01*
X69429667Y-95890289D01*
X69429665Y-95890288D01*
X69425094Y-95888395D01*
X69344891Y-95869140D01*
X69199024Y-95834120D01*
X69199018Y-95834119D01*
X69194211Y-95832965D01*
X68957500Y-95814335D01*
X68862579Y-95821806D01*
X68793100Y-95807210D01*
X68742541Y-95757368D01*
X68726954Y-95688104D01*
X68751289Y-95621408D01*
X68763599Y-95607099D01*
X78195425Y-86175273D01*
X78942377Y-86175273D01*
X78949122Y-86187604D01*
X79688342Y-86926824D01*
X79702286Y-86934438D01*
X79704119Y-86934307D01*
X79710734Y-86930056D01*
X80454543Y-86186247D01*
X80461564Y-86173390D01*
X80454765Y-86164059D01*
X80450708Y-86161364D01*
X80264271Y-86058445D01*
X80254859Y-86054215D01*
X80054113Y-85983126D01*
X80044143Y-85980492D01*
X79834481Y-85943147D01*
X79824227Y-85942177D01*
X79611270Y-85939574D01*
X79600986Y-85940294D01*
X79390475Y-85972507D01*
X79380447Y-85974896D01*
X79178022Y-86041058D01*
X79168513Y-86045055D01*
X78979620Y-86143386D01*
X78970888Y-86148885D01*
X78950831Y-86163945D01*
X78942377Y-86175273D01*
X78195425Y-86175273D01*
X79161149Y-85209549D01*
X79175916Y-85196902D01*
X79188019Y-85188060D01*
X79195267Y-85182765D01*
X79204627Y-85170589D01*
X79222005Y-85152161D01*
X79350108Y-85041159D01*
X79364491Y-85030392D01*
X79528414Y-84925045D01*
X79544192Y-84916430D01*
X79721444Y-84835481D01*
X79738286Y-84829199D01*
X79925249Y-84774302D01*
X79942805Y-84770483D01*
X80135675Y-84742752D01*
X80153608Y-84741469D01*
X80348466Y-84741469D01*
X80366399Y-84742752D01*
G37*
G04 #@! TD.AperFunction*
M02*
