G04 #@! TF.GenerationSoftware,KiCad,Pcbnew,(6.0.1)*
G04 #@! TF.CreationDate,2022-04-06T23:24:07+09:00*
G04 #@! TF.ProjectId,xbee-gyro20220207,78626565-2d67-4797-926f-323032323032,V1.1*
G04 #@! TF.SameCoordinates,Original*
G04 #@! TF.FileFunction,Profile,NP*
%FSLAX46Y46*%
G04 Gerber Fmt 4.6, Leading zero omitted, Abs format (unit mm)*
G04 Created by KiCad (PCBNEW (6.0.1)) date 2022-04-06 23:24:07*
%MOMM*%
%LPD*%
G01*
G04 APERTURE LIST*
G04 #@! TA.AperFunction,Profile*
%ADD10C,0.200000*%
G04 #@! TD*
G04 APERTURE END LIST*
D10*
X58439113Y-109214444D02*
G75*
G03*
X57439113Y-110214444I-1J-999999D01*
G01*
X90150532Y-93300736D02*
G75*
G03*
X91564745Y-93300736I707106J707103D01*
G01*
X57439113Y-110214444D02*
X57439113Y-122214444D01*
X53513393Y-139317584D02*
G75*
G03*
X55822033Y-138942943I894426J1788856D01*
G01*
X55822033Y-91117945D02*
G75*
G03*
X53513393Y-90743304I-1414214J-1414215D01*
G01*
X73439113Y-122214444D02*
X73439113Y-110214444D01*
X47439877Y-135496901D02*
G75*
G03*
X48486608Y-136804192I1941162J481566D01*
G01*
X48486608Y-136804192D02*
X53513393Y-139317584D01*
X91679969Y-93185513D02*
X91564745Y-93300736D01*
X78836823Y-145245433D02*
G75*
G03*
X81665250Y-145245433I1414214J1414211D01*
G01*
X67299504Y-95731454D02*
X61056863Y-95731454D01*
X81665250Y-145245433D02*
X90150532Y-136760152D01*
X93094182Y-136875375D02*
X113524900Y-116444658D01*
X113310687Y-115030444D02*
G75*
G03*
X113310687Y-115030444I-1200000J0D01*
G01*
X91679969Y-136875375D02*
G75*
G03*
X93094182Y-136875375I707107J707103D01*
G01*
X47439877Y-94563987D02*
G75*
G03*
X47439877Y-135496901I82499231J-20466457D01*
G01*
X55822033Y-138942943D02*
X59996203Y-134768774D01*
X91564745Y-136760152D02*
X91679969Y-136875375D01*
X67299504Y-95731454D02*
G75*
G03*
X68360164Y-95292114I-1J1500002D01*
G01*
X57439113Y-122214444D02*
G75*
G03*
X58439113Y-123214444I999999J-1D01*
G01*
X59996203Y-95292114D02*
G75*
G03*
X61056863Y-95731454I1060661J1060662D01*
G01*
X73439113Y-110214444D02*
G75*
G03*
X72439113Y-109214444I-999999J1D01*
G01*
X53513393Y-90743304D02*
X48486608Y-93256696D01*
X68360164Y-134768774D02*
X78836823Y-145245433D01*
X72439113Y-109214444D02*
X58439113Y-109214444D01*
X72639114Y-104280444D02*
G75*
G03*
X72639114Y-104280444I-1200000J0D01*
G01*
X81665250Y-84815455D02*
G75*
G03*
X78836823Y-84815455I-1414213J-1414211D01*
G01*
X113524900Y-113616230D02*
X93094182Y-93185513D01*
X61056863Y-134329434D02*
G75*
G03*
X59996203Y-134768774I1J-1500002D01*
G01*
X59996203Y-95292114D02*
X55822033Y-91117945D01*
X93094182Y-93185513D02*
G75*
G03*
X91679969Y-93185513I-707106J-707103D01*
G01*
X55607819Y-137528730D02*
G75*
G03*
X55607819Y-137528730I-1200000J0D01*
G01*
X72439113Y-123214444D02*
G75*
G03*
X73439113Y-122214444I1J999999D01*
G01*
X55607819Y-92532159D02*
G75*
G03*
X55607819Y-92532159I-1200000J0D01*
G01*
X72639114Y-125780444D02*
G75*
G03*
X72639114Y-125780444I-1200000J0D01*
G01*
X58439113Y-123214444D02*
X72439113Y-123214444D01*
X48486608Y-93256696D02*
G75*
G03*
X47439877Y-94563987I894431J-1788857D01*
G01*
X90150532Y-93300736D02*
X81665250Y-84815455D01*
X91564745Y-136760152D02*
G75*
G03*
X90150532Y-136760152I-707107J-707103D01*
G01*
X68360164Y-134768774D02*
G75*
G03*
X67299504Y-134329434I-1060661J-1060662D01*
G01*
X61056863Y-134329434D02*
X67299504Y-134329434D01*
X78836823Y-84815455D02*
X68360164Y-95292114D01*
X113524900Y-116444658D02*
G75*
G03*
X113524900Y-113616230I-1414213J1414214D01*
G01*
M02*
