0
SECTION
2
HEADER
9
$INSUNITS
70
4
9
$ACADVER
1
AC1014
9
$HANDSEED
5
FFFF
0
ENDSEC
0
SECTION
2
TABLES
0
TABLE
2
VPORT
5
8
100
AcDbSymbolTable
0
ENDTAB
0
TABLE
2
LTYPE
5
5
100
AcDbSymbolTable
0
LTYPE
5
14
100
AcDbSymbolTableRecord
100
AcDbLinetypeTableRecord
2
BYBLOCK
70
0
0
LTYPE
5
15
100
AcDbSymbolTableRecord
100
AcDbLinetypeTableRecord
2
BYLAYER
70
0
0
ENDTAB
0
TABLE
2
LAYER
5
2
100
AcDbSymbolTable
70
2
0
LAYER
5
50
100
AcDbSymbolTableRecord
100
AcDbLayerTableRecord
2
0
70
0
6
CONTINUOUS
0
ENDTAB
0
TABLE
2
STYLE
5
3
100
AcDbSymbolTable
70
1
0
STYLE
5
11
100
AcDbSymbolTableRecord
100
AcDbTextStyleTableRecord
2
STANDARD
70
0
0
ENDTAB
0
TABLE
2
VIEW
5
6
100
AcDbSymbolTable
70
0
0
ENDTAB
0
TABLE
2
UCS
5
7
100
AcDbSymbolTable
70
0
0
ENDTAB
0
TABLE
2
APPID
5
9
100
AcDbSymbolTable
70
2
0
APPID
5
12
100
AcDbSymbolTableRecord
100
AcDbRegAppTableRecord
2
ACAD
70
0
0
ENDTAB
0
TABLE
2
DIMSTYLE
5
A
100
AcDbSymbolTable
70
1
0
ENDTAB
0
TABLE
2
BLOCK_RECORD
5
1
100
AcDbSymbolTable
70
1
0
BLOCK_RECORD
5
1F
100
AcDbSymbolTableRecord
100
AcDbBlockTableRecord
2
*MODEL_SPACE
0
BLOCK_RECORD
5
1B
100
AcDbSymbolTableRecord
100
AcDbBlockTableRecord
2
*PAPER_SPACE
0
ENDTAB
0
ENDSEC
0
SECTION
2
BLOCKS
0
BLOCK
5
20
100
AcDbEntity
100
AcDbBlockBegin
2
*MODEL_SPACE
0
ENDBLK
5
21
100
AcDbEntity
100
AcDbBlockEnd
0
BLOCK
5
1C
100
AcDbEntity
100
AcDbBlockBegin
2
*PAPER_SPACE
0
ENDBLK
5
1D
100
AcDbEntity
100
AcDbBlockEnd
0
ENDSEC
0
SECTION
2
ENTITIES
0
LWPOLYLINE
5
100
100
AcDbEntity
8
0
100
AcDbPolyline
90
64
70
1
43
0.0
10
80.000001192092896
20
-8.0000001490116119
42
-0.41421356237309914
10
78.000001192092896
20
-10.000000149011612
10
77.00000111758709
20
-10.000000149011608
42
-0.41421356237309404
10
75.00000111758709
20
-8.0000001490116119
10
75.00000111758709
20
-7
42
0.4142135623730937
10
73.00000111758709
20
-5
10
24.112698372208094
20
-4.9999999999999991
42
0.19891236737965781
10
22.698484809835001
20
-5.5857864376269051
10
5.5857864376268997
20
-22.698484809834998
42
0.19891236737965751
10
5
20
-24.11269837220809
10
4.9999999999999991
20
-68.000001043081284
42
0.41421356237309503
10
7
20
-70.000001043081284
10
7.9999998509883881
20
-70.000001043081284
42
-0.41421356237309309
10
9.9999998509883881
20
-72.000001043081284
10
9.9999998509883845
20
-73
42
-0.41421356237309404
10
7.9999998509883881
20
-75
10
-8.0000001490116119
20
-75.000000000000014
42
-0.4142135623730947
10
-10.000000149011612
20
-73
10
-10.000000149011608
20
-72.000001043081284
42
-0.41421356237309404
10
-8.0000001490116119
20
-70.000001043081284
10
-7
20
-70.000001043081284
42
0.41421356237309503
10
-5
20
-68.000001043081284
10
-4.9999999999999991
20
-24.11269837220809
42
0.19891236737965828
10
-5.5857864376269095
20
-22.698484809834998
10
-22.698484809835008
20
-5.5857864376269015
42
0.19891236737965745
10
-24.112698372208101
20
-5
10
-73.00000111758709
20
-4.9999999999999991
42
0.41421356237309503
10
-75.00000111758709
20
-7
10
-75.000001117587075
20
-8.0000001490116119
42
-0.4142135623730947
10
-77.00000111758709
20
-10.000000149011612
10
-78.000001192092896
20
-10.000000149011608
42
-0.41421356237309404
10
-80.000001192092896
20
-8.0000001490116119
10
-80.000001192092896
20
8.0000001490116119
42
-0.41421356237309914
10
-78.000001192092896
20
10.000000149011612
10
-77.00000111758709
20
10.000000149011608
42
-0.41421356237309404
10
-75.00000111758709
20
8.0000001490116119
10
-75.00000111758709
20
7
42
0.4142135623730937
10
-73.00000111758709
20
5
10
-24.112698372208094
20
4.9999999999999991
42
0.19891236737965801
10
-22.698484809834998
20
5.5857864376269024
10
-5.5857864376269015
20
22.698484809834998
42
0.19891236737965745
10
-5
20
24.11269837220809
10
-4.9999999999999991
20
53.000000819563866
42
0.41421356237309503
10
-7
20
55.000000819563866
10
-8.0000001490116119
20
55.000000819563859
42
-0.4142135623730947
10
-10.000000149011612
20
57.000000819563859
10
-10.000000149011608
20
58
42
-0.41421356237309404
10
-8.0000001490116119
20
60
10
8.0000001490116119
20
60.000000000000007
42
-0.4142135623730947
10
10.000000149011612
20
58.000000000000007
10
10.000000149011608
20
57.000000819563866
42
-0.41421356237309404
10
8.0000001490116119
20
55.000000819563866
10
7
20
55.000000819563866
42
0.41421356237309503
10
5
20
53.000000819563866
10
4.9999999999999991
20
24.11269837220809
42
0.19891236737965778
10
5.5857864376269051
20
22.698484809834998
10
22.698484809835001
20
5.585786437626906
42
0.19891236737965823
10
24.112698372208101
20
5
10
73.00000111758709
20
4.9999999999999991
42
0.41421356237309503
10
75.00000111758709
20
7
10
75.000001117587075
20
8.0000001490116119
42
-0.4142135623730947
10
77.00000111758709
20
10.000000149011612
10
78.000001192092896
20
10.000000149011608
42
-0.41421356237309404
10
80.000001192092896
20
8.0000001490116119
0
CIRCLE
5
101
100
AcDbEntity
8
0
100
AcDbCircle
10
-77.500001154839993
20
7.500000111758709
30
0
40
1.2000000000000011
210
0
220
0
230
1
0
CIRCLE
5
102
100
AcDbEntity
8
0
100
AcDbCircle
10
-77.500001154839993
20
-7.500000111758709
30
0
40
1.2000000000000011
210
0
220
0
230
1
0
CIRCLE
5
103
100
AcDbEntity
8
0
100
AcDbCircle
10
-7.500000111758709
20
-72.500001080334187
30
0
40
1.1999999999999977
210
0
220
0
230
1
0
CIRCLE
5
104
100
AcDbEntity
8
0
100
AcDbCircle
10
77.500001154839993
20
-7.500000111758709
30
0
40
1.2000000000000011
210
0
220
0
230
1
0
CIRCLE
5
105
100
AcDbEntity
8
0
100
AcDbCircle
10
77.500001154839993
20
7.500000111758709
30
0
40
1.2000000000000011
210
0
220
0
230
1
0
CIRCLE
5
106
100
AcDbEntity
8
0
100
AcDbCircle
10
7.500000111758709
20
-72.500001080334187
30
0
40
1.1999999999999955
210
0
220
0
230
1
0
CIRCLE
5
107
100
AcDbEntity
8
0
100
AcDbCircle
10
7.500000074505806
20
57.500000856816769
30
0
40
1.2
210
0
220
-0
230
1
0
CIRCLE
5
108
100
AcDbEntity
8
0
100
AcDbCircle
10
-7.500000111758709
20
57.500000856816769
30
0
40
1.2
210
0
220
-0
230
1
0
CIRCLE
5
109
100
AcDbEntity
8
0
100
AcDbCircle
10
12.500000186264515
20
-12.500000186264515
30
0
40
1.2
210
0
220
-0
230
1
0
CIRCLE
5
110
100
AcDbEntity
8
0
100
AcDbCircle
10
12.500000186264515
20
12.500000186264515
30
0
40
1.2
210
0
220
-0
230
1
0
CIRCLE
5
111
100
AcDbEntity
8
0
100
AcDbCircle
10
-12.500000186264515
20
12.500000186264515
30
0
40
1.2
210
0
220
-0
230
1
0
CIRCLE
5
112
100
AcDbEntity
8
0
100
AcDbCircle
10
-12.500000186264515
20
-12.500000186264515
30
0
40
1.2
210
0
220
-0
230
1
0
ENDSEC
0
SECTION
2
OBJECTS
0
DICTIONARY
5
C
100
AcDbDictionary
3
ACAD_GROUP
350
D
3
ACAD_MLINESTYLE
350
17
0
DICTIONARY
5
D
100
AcDbDictionary
0
DICTIONARY
5
1A
330
C
100
AcDbDictionary
0
DICTIONARY
5
17
100
AcDbDictionary
0
ENDSEC
0
EOF
