0
SECTION
2
HEADER
9
$INSUNITS
70
4
9
$ACADVER
1
AC1014
9
$HANDSEED
5
FFFF
0
ENDSEC
0
SECTION
2
TABLES
0
TABLE
2
VPORT
5
8
100
AcDbSymbolTable
0
ENDTAB
0
TABLE
2
LTYPE
5
5
100
AcDbSymbolTable
0
LTYPE
5
14
100
AcDbSymbolTableRecord
100
AcDbLinetypeTableRecord
2
BYBLOCK
70
0
0
LTYPE
5
15
100
AcDbSymbolTableRecord
100
AcDbLinetypeTableRecord
2
BYLAYER
70
0
0
ENDTAB
0
TABLE
2
LAYER
5
2
100
AcDbSymbolTable
70
2
0
LAYER
5
50
100
AcDbSymbolTableRecord
100
AcDbLayerTableRecord
2
0
70
0
6
CONTINUOUS
0
ENDTAB
0
TABLE
2
STYLE
5
3
100
AcDbSymbolTable
70
1
0
STYLE
5
11
100
AcDbSymbolTableRecord
100
AcDbTextStyleTableRecord
2
STANDARD
70
0
0
ENDTAB
0
TABLE
2
VIEW
5
6
100
AcDbSymbolTable
70
0
0
ENDTAB
0
TABLE
2
UCS
5
7
100
AcDbSymbolTable
70
0
0
ENDTAB
0
TABLE
2
APPID
5
9
100
AcDbSymbolTable
70
2
0
APPID
5
12
100
AcDbSymbolTableRecord
100
AcDbRegAppTableRecord
2
ACAD
70
0
0
ENDTAB
0
TABLE
2
DIMSTYLE
5
A
100
AcDbSymbolTable
70
1
0
ENDTAB
0
TABLE
2
BLOCK_RECORD
5
1
100
AcDbSymbolTable
70
1
0
BLOCK_RECORD
5
1F
100
AcDbSymbolTableRecord
100
AcDbBlockTableRecord
2
*MODEL_SPACE
0
BLOCK_RECORD
5
1B
100
AcDbSymbolTableRecord
100
AcDbBlockTableRecord
2
*PAPER_SPACE
0
ENDTAB
0
ENDSEC
0
SECTION
2
BLOCKS
0
BLOCK
5
20
100
AcDbEntity
100
AcDbBlockBegin
2
*MODEL_SPACE
0
ENDBLK
5
21
100
AcDbEntity
100
AcDbBlockEnd
0
BLOCK
5
1C
100
AcDbEntity
100
AcDbBlockBegin
2
*PAPER_SPACE
0
ENDBLK
5
1D
100
AcDbEntity
100
AcDbBlockEnd
0
ENDSEC
0
SECTION
2
ENTITIES
0
LWPOLYLINE
5
100
100
AcDbEntity
8
0
100
AcDbPolyline
90
72
70
1
43
0.0
10
72.000001043081284
20
-10.000000149011608
42
-0.41421356237309404
10
70.000001043081284
20
-8.0000001490116119
10
70.000001043081284
20
-7
42
0.4142135623730937
10
68.000001043081284
20
-5
10
22.000000298023224
20
-4.9999999999999991
42
0.41421356237309503
10
20.000000298023224
20
-7
10
20.000000298023224
20
-18.000000298023224
42
-0.41421356237309404
10
18.000000298023224
20
-20.000000298023224
10
7
20
-20.00000029802322
42
0.4142135623730957
10
5
20
-22.000000298023224
10
4.9999999999999991
20
-63.000000968575478
42
0.41421356237309503
10
7
20
-65.000000968575478
10
8.0000001490116119
20
-65.000000968575463
42
-0.4142135623730947
10
10.000000149011612
20
-67.000000968575478
10
10.000000149011608
20
-68.000001043081284
42
-0.41421356237309392
10
8.0000001490116119
20
-70.000001043081284
10
-8.0000001490116119
20
-70.000001043081298
42
-0.4142135623730947
10
-10.000000149011612
20
-68.000001043081284
10
-10.000000149011608
20
-67.000000968575478
42
-0.41421356237309404
10
-8.0000001490116119
20
-65.000000968575478
10
-7
20
-65.000000968575478
42
0.41421356237309503
10
-5
20
-63.000000968575478
10
-4.9999999999999991
20
-22.000000298023224
42
0.41421356237309503
10
-7
20
-20.000000298023224
10
-18.000000298023224
20
-20.000000298023224
42
-0.41421356237309404
10
-20.000000298023224
20
-18.000000298023224
10
-20.00000029802322
20
-7
42
0.4142135623730957
10
-22.000000298023224
20
-4.9999999999999982
10
-68.000001043081284
20
-4.9999999999999991
42
0.41421356237309503
10
-70.000001043081284
20
-7
10
-70.000001043081269
20
-8.0000001490116119
42
-0.4142135623730947
10
-72.000001043081284
20
-10.000000149011612
10
-73.00000111758709
20
-10.000000149011608
42
-0.41421356237309404
10
-75.00000111758709
20
-8.0000001490116119
10
-75.000001117587104
20
8.0000001490116119
42
-0.4142135623730947
10
-73.00000111758709
20
10.000000149011612
10
-72.000001043081284
20
10.000000149011608
42
-0.41421356237309404
10
-70.000001043081284
20
8.0000001490116119
10
-70.000001043081284
20
7
42
0.4142135623730937
10
-68.000001043081284
20
5
10
-22.000000298023224
20
4.9999999999999991
42
0.41421356237309503
10
-20.000000298023224
20
7
10
-20.000000298023224
20
8.0000001490116119
42
-0.41421356237309492
10
-18.000000298023224
20
10.000000149011612
10
-7
20
10.000000149011614
42
0.41421356237309503
10
-5
20
12.000000149011614
10
-4.9999999999999991
20
53.000000819563866
42
0.41421356237309503
10
-7
20
55.000000819563866
10
-8.0000001490116119
20
55.000000819563859
42
-0.4142135623730947
10
-10.000000149011612
20
57.000000819563859
10
-10.000000149011608
20
58
42
-0.41421356237309404
10
-8.0000001490116119
20
60
10
8.0000001490116119
20
60.000000000000007
42
-0.4142135623730947
10
10.000000149011612
20
58.000000000000007
10
10.000000149011608
20
57.000000819563866
42
-0.41421356237309404
10
8.0000001490116119
20
55.000000819563866
10
7
20
55.000000819563866
42
0.41421356237309503
10
5
20
53.000000819563866
10
5
20
12.000000149011612
42
0.41421356237309492
10
7
20
10.000000149011612
10
18.000000298023224
20
10.000000149011612
42
-0.41421356237309503
10
20.000000298023224
20
8.0000001490116119
10
20.00000029802322
20
7
42
0.4142135623730957
10
22.000000298023224
20
5
10
68.000001043081284
20
4.9999999999999991
42
0.41421356237309503
10
70.000001043081284
20
7
10
70.000001043081269
20
8.0000001490116119
42
-0.4142135623730947
10
72.000001043081284
20
10.000000149011612
10
73.00000111758709
20
10.000000149011608
42
-0.41421356237309404
10
75.00000111758709
20
8.0000001490116119
10
75.000001117587104
20
-8.0000001490116119
42
-0.4142135623730947
10
73.00000111758709
20
-10.000000149011612
0
CIRCLE
5
101
100
AcDbEntity
8
0
100
AcDbCircle
10
17.500000260770321
20
-7.500000111758709
30
0
40
1.2000000000000011
210
0
220
0
230
1
0
CIRCLE
5
102
100
AcDbEntity
8
0
100
AcDbCircle
10
-17.500000260770321
20
7.500000111758709
30
0
40
1.2000000000000011
210
0
220
0
230
1
0
CIRCLE
5
103
100
AcDbEntity
8
0
100
AcDbCircle
10
17.500000260770321
20
7.500000111758709
30
0
40
1.2000000000000011
210
0
220
0
230
1
0
CIRCLE
5
104
100
AcDbEntity
8
0
100
AcDbCircle
10
-17.500000260770321
20
-7.500000111758709
30
0
40
1.2000000000000011
210
0
220
0
230
1
0
CIRCLE
5
105
100
AcDbEntity
8
0
100
AcDbCircle
10
-7.500000111758709
20
57.500000856816769
30
0
40
1.2
210
0
220
-0
230
1
0
CIRCLE
5
106
100
AcDbEntity
8
0
100
AcDbCircle
10
7.500000074505806
20
57.500000856816769
30
0
40
1.2
210
0
220
-0
230
1
0
CIRCLE
5
107
100
AcDbEntity
8
0
100
AcDbCircle
10
72.500001080334187
20
7.500000074505806
30
0
40
1.2000000000000011
210
0
220
0
230
1
0
CIRCLE
5
108
100
AcDbEntity
8
0
100
AcDbCircle
10
7.500000111758709
20
-67.500001005828381
30
0
40
1.2
210
0
220
0
230
1
0
CIRCLE
5
109
100
AcDbEntity
8
0
100
AcDbCircle
10
-72.500001080334187
20
-7.500000074505806
30
0
40
1.2000000000000011
210
0
220
0
230
1
0
CIRCLE
5
110
100
AcDbEntity
8
0
100
AcDbCircle
10
72.500001080334187
20
-7.500000074505806
30
0
40
1.2000000000000011
210
0
220
0
230
1
0
CIRCLE
5
111
100
AcDbEntity
8
0
100
AcDbCircle
10
-7.500000111758709
20
-67.500001005828381
30
0
40
1.2
210
0
220
0
230
1
0
CIRCLE
5
112
100
AcDbEntity
8
0
100
AcDbCircle
10
-72.500001080334187
20
7.500000074505806
30
0
40
1.2000000000000011
210
0
220
0
230
1
0
ENDSEC
0
SECTION
2
OBJECTS
0
DICTIONARY
5
C
100
AcDbDictionary
3
ACAD_GROUP
350
D
3
ACAD_MLINESTYLE
350
17
0
DICTIONARY
5
D
100
AcDbDictionary
0
DICTIONARY
5
1A
330
C
100
AcDbDictionary
0
DICTIONARY
5
17
100
AcDbDictionary
0
ENDSEC
0
EOF
