M48
; DRILL file {KiCad (5.1.9)-1} date 08/03/21 23:26:51
; FORMAT={-:-/ absolute / metric / decimal}
; #@! TF.CreationDate,2021-08-03T23:26:51+09:00
; #@! TF.GenerationSoftware,Kicad,Pcbnew,(5.1.9)-1
FMAT,2
METRIC
T1C0.400
T2C0.700
T3C0.750
T4C1.000
T5C0.750
T6C2.200
%
G90
G05
T1
X13.581Y12.568
X14.186Y18.033
X14.204Y19.909
X14.328Y21.017
X15.054Y22.055
X16.009Y20.008
X16.647Y20.874
X19.84Y20.013
X21.27Y25.909
X22.423Y12.077
X22.872Y7.752
X22.924Y19.08
X25.394Y28.975
X28.783Y19.745
T2
X6.5Y20.5
X6.5Y19.0
X6.5Y17.5
X6.5Y16.0
X6.5Y14.5
X6.5Y13.0
T3
X13.0Y30.5
X15.0Y30.5
X17.0Y30.5
X19.0Y30.5
X21.0Y30.5
T4
X25.5Y26.0
X25.5Y23.46
X25.5Y20.92
X25.5Y18.38
X25.5Y15.84
X25.5Y13.3
X25.5Y10.76
X25.5Y8.22
T5
X4.7Y25.5
X6.3Y25.5
X28.2Y25.5
X29.8Y25.5
T6
X6.5Y30.5
X28.0Y30.5
T0
M30
