G04 #@! TF.GenerationSoftware,KiCad,Pcbnew,(5.1.9)-1*
G04 #@! TF.CreationDate,2021-08-03T23:26:31+09:00*
G04 #@! TF.ProjectId,IMU_BNO055_20210802,494d555f-424e-44f3-9035-355f32303231,rev?*
G04 #@! TF.SameCoordinates,PX6dac2c0PY6dac2c0*
G04 #@! TF.FileFunction,Soldermask,Bot*
G04 #@! TF.FilePolarity,Negative*
%FSLAX46Y46*%
G04 Gerber Fmt 4.6, Leading zero omitted, Abs format (unit mm)*
G04 Created by KiCad (PCBNEW (5.1.9)-1) date 2021-08-03 23:26:31*
%MOMM*%
%LPD*%
G01*
G04 APERTURE LIST*
%ADD10C,2.200000*%
%ADD11C,1.250000*%
%ADD12R,1.250000X1.250000*%
%ADD13C,0.750000*%
%ADD14O,1.700000X1.700000*%
%ADD15R,1.700000X1.700000*%
%ADD16O,1.200000X1.750000*%
%ADD17C,0.800000*%
G04 APERTURE END LIST*
D10*
X6500000Y30500000D03*
X28000000Y30500000D03*
D11*
X6500000Y13000000D03*
X6500000Y14500000D03*
X6500000Y16000000D03*
X6500000Y17500000D03*
X6500000Y19000000D03*
D12*
X6500000Y20500000D03*
D13*
X4700000Y25500000D03*
X6300000Y25500000D03*
X28200000Y25500000D03*
X29800000Y25500000D03*
D14*
X25500000Y26000000D03*
X25500000Y23460000D03*
X25500000Y20920000D03*
X25500000Y18380000D03*
X25500000Y15840000D03*
X25500000Y13300000D03*
X25500000Y10760000D03*
D15*
X25500000Y8220000D03*
D16*
X13000000Y30500000D03*
X15000000Y30500000D03*
X17000000Y30500000D03*
X19000000Y30500000D03*
G36*
G01*
X21600000Y31125001D02*
X21600000Y29874999D01*
G75*
G02*
X21350001Y29625000I-249999J0D01*
G01*
X20649999Y29625000D01*
G75*
G02*
X20400000Y29874999I0J249999D01*
G01*
X20400000Y31125001D01*
G75*
G02*
X20649999Y31375000I249999J0D01*
G01*
X21350001Y31375000D01*
G75*
G02*
X21600000Y31125001I0J-249999D01*
G01*
G37*
D17*
X13581100Y12568100D03*
X22422750Y12077250D03*
X21270000Y25909300D03*
X14185900Y18032700D03*
X16009300Y20007800D03*
X22924100Y19080000D03*
X22872300Y7752400D03*
X16646600Y20874400D03*
X25394000Y28974900D03*
X15053600Y22055100D03*
X14328200Y21017400D03*
X14203700Y19909500D03*
X19839900Y20012700D03*
X28782700Y19744700D03*
M02*
