G04 #@! TF.GenerationSoftware,KiCad,Pcbnew,(6.0.1)*
G04 #@! TF.CreationDate,2022-04-06T23:24:07+09:00*
G04 #@! TF.ProjectId,xbee-gyro20220207,78626565-2d67-4797-926f-323032323032,V1.1*
G04 #@! TF.SameCoordinates,Original*
G04 #@! TF.FileFunction,Copper,L2,Bot*
G04 #@! TF.FilePolarity,Positive*
%FSLAX46Y46*%
G04 Gerber Fmt 4.6, Leading zero omitted, Abs format (unit mm)*
G04 Created by KiCad (PCBNEW (6.0.1)) date 2022-04-06 23:24:07*
%MOMM*%
%LPD*%
G01*
G04 APERTURE LIST*
G04 Aperture macros list*
%AMHorizOval*
0 Thick line with rounded ends*
0 $1 width*
0 $2 $3 position (X,Y) of the first rounded end (center of the circle)*
0 $4 $5 position (X,Y) of the second rounded end (center of the circle)*
0 Add line between two ends*
20,1,$1,$2,$3,$4,$5,0*
0 Add two circle primitives to create the rounded ends*
1,1,$1,$2,$3*
1,1,$1,$4,$5*%
%AMRotRect*
0 Rectangle, with rotation*
0 The origin of the aperture is its center*
0 $1 length*
0 $2 width*
0 $3 Rotation angle, in degrees counterclockwise*
0 Add horizontal line*
21,1,$1,$2,0,0,$3*%
G04 Aperture macros list end*
G04 #@! TA.AperFunction,ComponentPad*
%ADD10RotRect,1.700000X1.700000X45.000000*%
G04 #@! TD*
G04 #@! TA.AperFunction,ComponentPad*
%ADD11HorizOval,1.700000X0.000000X0.000000X0.000000X0.000000X0*%
G04 #@! TD*
G04 #@! TA.AperFunction,ComponentPad*
%ADD12RotRect,1.700000X1.700000X135.000000*%
G04 #@! TD*
G04 #@! TA.AperFunction,ComponentPad*
%ADD13HorizOval,1.700000X0.000000X0.000000X0.000000X0.000000X0*%
G04 #@! TD*
G04 #@! TA.AperFunction,ComponentPad*
%ADD14C,1.409600*%
G04 #@! TD*
G04 #@! TA.AperFunction,SMDPad,CuDef*
%ADD15R,1.000000X1.550000*%
G04 #@! TD*
G04 #@! TA.AperFunction,ComponentPad*
%ADD16R,1.000000X1.000000*%
G04 #@! TD*
G04 #@! TA.AperFunction,ComponentPad*
%ADD17O,1.000000X1.000000*%
G04 #@! TD*
G04 #@! TA.AperFunction,ViaPad*
%ADD18C,0.800000*%
G04 #@! TD*
G04 #@! TA.AperFunction,Conductor*
%ADD19C,0.250000*%
G04 #@! TD*
G04 APERTURE END LIST*
D10*
X72407900Y-135407900D03*
D11*
X74203951Y-137203951D03*
X76000002Y-139000002D03*
X77796054Y-140796054D03*
X79592105Y-142592105D03*
D12*
X74200000Y-92669300D03*
D13*
X75996051Y-90873249D03*
X77792102Y-89077198D03*
X79588154Y-87281146D03*
D14*
X100000000Y-126000000D03*
X98000000Y-126000000D03*
X96000000Y-126000000D03*
X94000000Y-126000000D03*
X92000000Y-126000000D03*
X90000000Y-126000000D03*
X88000000Y-126000000D03*
X86000000Y-126000000D03*
X84000000Y-126000000D03*
X82000000Y-126000000D03*
X82000000Y-104000000D03*
X84000000Y-104000000D03*
X86000000Y-104000000D03*
X88000000Y-104000000D03*
X90000000Y-104000000D03*
X92000000Y-104000000D03*
X94000000Y-104000000D03*
X96000000Y-104000000D03*
X98000000Y-104000000D03*
X100000000Y-104000000D03*
D15*
X47150000Y-117625000D03*
X47150000Y-112375000D03*
X48850000Y-112375000D03*
X48850000Y-117625000D03*
D16*
X54000000Y-118550000D03*
D17*
X54000000Y-117280000D03*
X54000000Y-116010000D03*
X54000000Y-114740000D03*
X54000000Y-113470000D03*
D18*
X79908800Y-108862500D03*
X80779000Y-106530400D03*
X48859600Y-125015400D03*
X60439800Y-128740000D03*
X61608700Y-129272000D03*
X47368600Y-114122800D03*
X98025200Y-99085900D03*
X100500000Y-122088400D03*
D19*
X76827100Y-91704300D02*
X76827100Y-103448700D01*
X79908800Y-106530400D02*
X79908800Y-108862500D01*
X76827200Y-91704200D02*
X76827100Y-91704300D01*
X75996100Y-90873200D02*
X76827200Y-91704200D01*
X76827100Y-103448700D02*
X79908800Y-106530400D01*
X48850000Y-112375000D02*
X48850000Y-113475300D01*
X80634100Y-106229900D02*
X80419200Y-106015000D01*
X82000000Y-126000000D02*
X80779000Y-124779000D01*
X48850000Y-117625000D02*
X48850000Y-125005800D01*
X80419200Y-106015000D02*
X80419200Y-88112200D01*
X48850000Y-125005800D02*
X48859600Y-125015400D01*
X80419200Y-88112200D02*
X80419300Y-88112100D01*
X48850000Y-113475300D02*
X50113000Y-114738300D01*
X48850000Y-117625000D02*
X48850000Y-116524700D01*
X80634100Y-106385500D02*
X80634100Y-106229900D01*
X79588200Y-87281100D02*
X80419300Y-88112100D01*
X50113000Y-114738300D02*
X50113000Y-115261700D01*
X50113000Y-115261700D02*
X48850000Y-116524700D01*
X80779000Y-106530400D02*
X80634100Y-106385500D01*
X80779000Y-124779000D02*
X80779000Y-106530400D01*
X54000000Y-122300200D02*
X60439800Y-128740000D01*
X54000000Y-118550000D02*
X54000000Y-122300200D01*
X53402000Y-112137000D02*
X54571700Y-112137000D01*
X75427100Y-136738500D02*
X75427100Y-137910800D01*
X54000000Y-116010000D02*
X52676100Y-114686100D01*
X56894800Y-122590200D02*
X57877000Y-123572400D01*
X52676100Y-114686100D02*
X52676100Y-112862900D01*
X62261000Y-123572400D02*
X75427100Y-136738500D01*
X56894800Y-114460100D02*
X56894800Y-122590200D01*
X75427100Y-137910800D02*
X75169000Y-138168900D01*
X57877000Y-123572400D02*
X62261000Y-123572400D01*
X54571700Y-112137000D02*
X56894800Y-114460100D01*
X52676100Y-112862900D02*
X53402000Y-112137000D01*
X76000000Y-139000000D02*
X75169000Y-138168900D01*
X57690400Y-124022700D02*
X58964100Y-124022700D01*
X56285400Y-114492400D02*
X56285400Y-122617700D01*
X53133200Y-113873200D02*
X53133200Y-113092700D01*
X58964100Y-124022700D02*
X75737500Y-140796100D01*
X53601400Y-112624500D02*
X54417500Y-112624500D01*
X56285400Y-122617700D02*
X57690400Y-124022700D01*
X54417500Y-112624500D02*
X56285400Y-114492400D01*
X75737500Y-140796100D02*
X77796100Y-140796100D01*
X54000000Y-114740000D02*
X53133200Y-113873200D01*
X53133200Y-113092700D02*
X53601400Y-112624500D01*
X60772400Y-128014700D02*
X61608700Y-128851000D01*
X60351400Y-128014700D02*
X60772400Y-128014700D01*
X61608700Y-128851000D02*
X61608700Y-129272000D01*
X54825300Y-117280000D02*
X54825300Y-122488600D01*
X54825300Y-122488600D02*
X60351400Y-128014700D01*
X54000000Y-117280000D02*
X54825300Y-117280000D01*
X58140600Y-124473000D02*
X58624000Y-124956400D01*
X55835100Y-122804300D02*
X57503800Y-124473000D01*
X55502800Y-115609600D02*
X55835100Y-115941900D01*
X79592100Y-142592100D02*
X78761100Y-141761000D01*
X55502800Y-114972800D02*
X55502800Y-115609600D01*
X78502900Y-142019200D02*
X78761100Y-141761000D01*
X55835100Y-115941900D02*
X55835100Y-122804300D01*
X54000000Y-113470000D02*
X55502800Y-114972800D01*
X59260900Y-124956400D02*
X76323700Y-142019200D01*
X76323700Y-142019200D02*
X78502900Y-142019200D01*
X57503800Y-124473000D02*
X58140600Y-124473000D01*
X58624000Y-124956400D02*
X59260900Y-124956400D01*
X47150000Y-116524700D02*
X47368600Y-116306100D01*
X47150000Y-112375000D02*
X47150000Y-113475300D01*
X47368600Y-114122800D02*
X47368600Y-113693900D01*
X47150000Y-117625000D02*
X47150000Y-116524700D01*
X47368600Y-113693900D02*
X47150000Y-113475300D01*
X47368600Y-116306100D02*
X47368600Y-114122800D01*
X96000000Y-125562700D02*
X96000000Y-126000000D01*
X101031100Y-120531600D02*
X96000000Y-125562700D01*
X98025200Y-99085900D02*
X101031100Y-102091800D01*
X101031100Y-102091800D02*
X101031100Y-120531600D01*
X100500000Y-125500000D02*
X100500000Y-122088400D01*
X100000000Y-126000000D02*
X100500000Y-125500000D01*
G04 #@! TA.AperFunction,Conductor*
G36*
X80366399Y-84742752D02*
G01*
X80559267Y-84770483D01*
X80576824Y-84774302D01*
X80763787Y-84829199D01*
X80780631Y-84835481D01*
X80957878Y-84916427D01*
X80973657Y-84925043D01*
X81137578Y-85030389D01*
X81151969Y-85041162D01*
X81274696Y-85147505D01*
X81286816Y-85160677D01*
X81292642Y-85166648D01*
X81297939Y-85173898D01*
X81305056Y-85179369D01*
X81305057Y-85179370D01*
X81323150Y-85193278D01*
X81335454Y-85204079D01*
X89753696Y-93622320D01*
X89767244Y-93638337D01*
X89778869Y-93654665D01*
X89787627Y-93663639D01*
X89791519Y-93666556D01*
X89799523Y-93672555D01*
X89806471Y-93678157D01*
X89948222Y-93800986D01*
X89948226Y-93800989D01*
X89951619Y-93803929D01*
X90133084Y-93920550D01*
X90137174Y-93922418D01*
X90137178Y-93922420D01*
X90197198Y-93949830D01*
X90329300Y-94010159D01*
X90536271Y-94070931D01*
X90540730Y-94071572D01*
X90540734Y-94071573D01*
X90643027Y-94086280D01*
X90749784Y-94101630D01*
X90965493Y-94101630D01*
X91072250Y-94086280D01*
X91174543Y-94071573D01*
X91174547Y-94071572D01*
X91179006Y-94070931D01*
X91385977Y-94010159D01*
X91518079Y-93949830D01*
X91578099Y-93922420D01*
X91578103Y-93922418D01*
X91582193Y-93920550D01*
X91591115Y-93914816D01*
X91759876Y-93806359D01*
X91759880Y-93806356D01*
X91763658Y-93803928D01*
X91854607Y-93725121D01*
X91896064Y-93689198D01*
X91905496Y-93681781D01*
X91914712Y-93675219D01*
X91918676Y-93672397D01*
X91927650Y-93663639D01*
X91930560Y-93659756D01*
X91930569Y-93659746D01*
X91944369Y-93641332D01*
X91956100Y-93627802D01*
X92004296Y-93579606D01*
X92019064Y-93566959D01*
X92031163Y-93558120D01*
X92038414Y-93552823D01*
X92043884Y-93545707D01*
X92043888Y-93545703D01*
X92043947Y-93545626D01*
X92065278Y-93523911D01*
X92114222Y-93484879D01*
X92138106Y-93469872D01*
X92211790Y-93434388D01*
X92238421Y-93425069D01*
X92278284Y-93415971D01*
X92318149Y-93406872D01*
X92346185Y-93403713D01*
X92427966Y-93403713D01*
X92456003Y-93406872D01*
X92535730Y-93425069D01*
X92562362Y-93434388D01*
X92636043Y-93469871D01*
X92659933Y-93484882D01*
X92703699Y-93519784D01*
X92715319Y-93530297D01*
X92721576Y-93536709D01*
X92726870Y-93543956D01*
X92733983Y-93549424D01*
X92733988Y-93549429D01*
X92752086Y-93563341D01*
X92764390Y-93574141D01*
X97417021Y-98226772D01*
X97451047Y-98289084D01*
X97445982Y-98359899D01*
X97413929Y-98407017D01*
X97413947Y-98407034D01*
X97286160Y-98548956D01*
X97190673Y-98714344D01*
X97131658Y-98895972D01*
X97111696Y-99085900D01*
X97131658Y-99275828D01*
X97190673Y-99457456D01*
X97286160Y-99622844D01*
X97413947Y-99764766D01*
X97568448Y-99877018D01*
X97574476Y-99879702D01*
X97574478Y-99879703D01*
X97736881Y-99952009D01*
X97742912Y-99954694D01*
X97836313Y-99974547D01*
X97923256Y-99993028D01*
X97923261Y-99993028D01*
X97929713Y-99994400D01*
X97985606Y-99994400D01*
X98053727Y-100014402D01*
X98074701Y-100031305D01*
X100360695Y-102317299D01*
X100394721Y-102379611D01*
X100397600Y-102406394D01*
X100397600Y-102686229D01*
X100377598Y-102754350D01*
X100323942Y-102800843D01*
X100253668Y-102810947D01*
X100238988Y-102807935D01*
X100216814Y-102801993D01*
X100216803Y-102801991D01*
X100211492Y-102800568D01*
X100000000Y-102782065D01*
X99788508Y-102800568D01*
X99783195Y-102801992D01*
X99783193Y-102801992D01*
X99588752Y-102854092D01*
X99588750Y-102854093D01*
X99583442Y-102855515D01*
X99578461Y-102857837D01*
X99578460Y-102857838D01*
X99396020Y-102942911D01*
X99396015Y-102942914D01*
X99391033Y-102945237D01*
X99386526Y-102948393D01*
X99386524Y-102948394D01*
X99221637Y-103063849D01*
X99221634Y-103063851D01*
X99217126Y-103067008D01*
X99089095Y-103195039D01*
X99026783Y-103229065D01*
X98955968Y-103224000D01*
X98910905Y-103195039D01*
X98782874Y-103067008D01*
X98608968Y-102945237D01*
X98603986Y-102942914D01*
X98603981Y-102942911D01*
X98421540Y-102857838D01*
X98421539Y-102857838D01*
X98416558Y-102855515D01*
X98411250Y-102854093D01*
X98411248Y-102854092D01*
X98216807Y-102801992D01*
X98216805Y-102801992D01*
X98211492Y-102800568D01*
X98000000Y-102782065D01*
X97788508Y-102800568D01*
X97783195Y-102801992D01*
X97783193Y-102801992D01*
X97588752Y-102854092D01*
X97588750Y-102854093D01*
X97583442Y-102855515D01*
X97578461Y-102857837D01*
X97578460Y-102857838D01*
X97396020Y-102942911D01*
X97396015Y-102942914D01*
X97391033Y-102945237D01*
X97386526Y-102948393D01*
X97386524Y-102948394D01*
X97221637Y-103063849D01*
X97221634Y-103063851D01*
X97217126Y-103067008D01*
X97089095Y-103195039D01*
X97026783Y-103229065D01*
X96955968Y-103224000D01*
X96910905Y-103195039D01*
X96782874Y-103067008D01*
X96608968Y-102945237D01*
X96603986Y-102942914D01*
X96603981Y-102942911D01*
X96421540Y-102857838D01*
X96421539Y-102857838D01*
X96416558Y-102855515D01*
X96411250Y-102854093D01*
X96411248Y-102854092D01*
X96216807Y-102801992D01*
X96216805Y-102801992D01*
X96211492Y-102800568D01*
X96000000Y-102782065D01*
X95788508Y-102800568D01*
X95783195Y-102801992D01*
X95783193Y-102801992D01*
X95588752Y-102854092D01*
X95588750Y-102854093D01*
X95583442Y-102855515D01*
X95578461Y-102857837D01*
X95578460Y-102857838D01*
X95396020Y-102942911D01*
X95396015Y-102942914D01*
X95391033Y-102945237D01*
X95386526Y-102948393D01*
X95386524Y-102948394D01*
X95221637Y-103063849D01*
X95221634Y-103063851D01*
X95217126Y-103067008D01*
X95089095Y-103195039D01*
X95026783Y-103229065D01*
X94955968Y-103224000D01*
X94910905Y-103195039D01*
X94782874Y-103067008D01*
X94608968Y-102945237D01*
X94603986Y-102942914D01*
X94603981Y-102942911D01*
X94421540Y-102857838D01*
X94421539Y-102857838D01*
X94416558Y-102855515D01*
X94411250Y-102854093D01*
X94411248Y-102854092D01*
X94216807Y-102801992D01*
X94216805Y-102801992D01*
X94211492Y-102800568D01*
X94000000Y-102782065D01*
X93788508Y-102800568D01*
X93783195Y-102801992D01*
X93783193Y-102801992D01*
X93588752Y-102854092D01*
X93588750Y-102854093D01*
X93583442Y-102855515D01*
X93578461Y-102857837D01*
X93578460Y-102857838D01*
X93396020Y-102942911D01*
X93396015Y-102942914D01*
X93391033Y-102945237D01*
X93386526Y-102948393D01*
X93386524Y-102948394D01*
X93221637Y-103063849D01*
X93221634Y-103063851D01*
X93217126Y-103067008D01*
X93089095Y-103195039D01*
X93026783Y-103229065D01*
X92955968Y-103224000D01*
X92910905Y-103195039D01*
X92782874Y-103067008D01*
X92608968Y-102945237D01*
X92603986Y-102942914D01*
X92603981Y-102942911D01*
X92421540Y-102857838D01*
X92421539Y-102857838D01*
X92416558Y-102855515D01*
X92411250Y-102854093D01*
X92411248Y-102854092D01*
X92216807Y-102801992D01*
X92216805Y-102801992D01*
X92211492Y-102800568D01*
X92000000Y-102782065D01*
X91788508Y-102800568D01*
X91783195Y-102801992D01*
X91783193Y-102801992D01*
X91588752Y-102854092D01*
X91588750Y-102854093D01*
X91583442Y-102855515D01*
X91578461Y-102857837D01*
X91578460Y-102857838D01*
X91396020Y-102942911D01*
X91396015Y-102942914D01*
X91391033Y-102945237D01*
X91386526Y-102948393D01*
X91386524Y-102948394D01*
X91221637Y-103063849D01*
X91221634Y-103063851D01*
X91217126Y-103067008D01*
X91089095Y-103195039D01*
X91026783Y-103229065D01*
X90955968Y-103224000D01*
X90910905Y-103195039D01*
X90782874Y-103067008D01*
X90608968Y-102945237D01*
X90603986Y-102942914D01*
X90603981Y-102942911D01*
X90421540Y-102857838D01*
X90421539Y-102857838D01*
X90416558Y-102855515D01*
X90411250Y-102854093D01*
X90411248Y-102854092D01*
X90216807Y-102801992D01*
X90216805Y-102801992D01*
X90211492Y-102800568D01*
X90000000Y-102782065D01*
X89788508Y-102800568D01*
X89783195Y-102801992D01*
X89783193Y-102801992D01*
X89588752Y-102854092D01*
X89588750Y-102854093D01*
X89583442Y-102855515D01*
X89578461Y-102857837D01*
X89578460Y-102857838D01*
X89396020Y-102942911D01*
X89396015Y-102942914D01*
X89391033Y-102945237D01*
X89386526Y-102948393D01*
X89386524Y-102948394D01*
X89221637Y-103063849D01*
X89221634Y-103063851D01*
X89217126Y-103067008D01*
X89089095Y-103195039D01*
X89026783Y-103229065D01*
X88955968Y-103224000D01*
X88910905Y-103195039D01*
X88782874Y-103067008D01*
X88608968Y-102945237D01*
X88603986Y-102942914D01*
X88603981Y-102942911D01*
X88421540Y-102857838D01*
X88421539Y-102857838D01*
X88416558Y-102855515D01*
X88411250Y-102854093D01*
X88411248Y-102854092D01*
X88216807Y-102801992D01*
X88216805Y-102801992D01*
X88211492Y-102800568D01*
X88000000Y-102782065D01*
X87788508Y-102800568D01*
X87783195Y-102801992D01*
X87783193Y-102801992D01*
X87588752Y-102854092D01*
X87588750Y-102854093D01*
X87583442Y-102855515D01*
X87578461Y-102857837D01*
X87578460Y-102857838D01*
X87396020Y-102942911D01*
X87396015Y-102942914D01*
X87391033Y-102945237D01*
X87386526Y-102948393D01*
X87386524Y-102948394D01*
X87221637Y-103063849D01*
X87221634Y-103063851D01*
X87217126Y-103067008D01*
X87089095Y-103195039D01*
X87026783Y-103229065D01*
X86955968Y-103224000D01*
X86910905Y-103195039D01*
X86782874Y-103067008D01*
X86608968Y-102945237D01*
X86603986Y-102942914D01*
X86603981Y-102942911D01*
X86421540Y-102857838D01*
X86421539Y-102857838D01*
X86416558Y-102855515D01*
X86411250Y-102854093D01*
X86411248Y-102854092D01*
X86216807Y-102801992D01*
X86216805Y-102801992D01*
X86211492Y-102800568D01*
X86000000Y-102782065D01*
X85788508Y-102800568D01*
X85783195Y-102801992D01*
X85783193Y-102801992D01*
X85588752Y-102854092D01*
X85588750Y-102854093D01*
X85583442Y-102855515D01*
X85578461Y-102857837D01*
X85578460Y-102857838D01*
X85396020Y-102942911D01*
X85396015Y-102942914D01*
X85391033Y-102945237D01*
X85386526Y-102948393D01*
X85386524Y-102948394D01*
X85221637Y-103063849D01*
X85221634Y-103063851D01*
X85217126Y-103067008D01*
X85089095Y-103195039D01*
X85026783Y-103229065D01*
X84955968Y-103224000D01*
X84910905Y-103195039D01*
X84782874Y-103067008D01*
X84608968Y-102945237D01*
X84603986Y-102942914D01*
X84603981Y-102942911D01*
X84421540Y-102857838D01*
X84421539Y-102857838D01*
X84416558Y-102855515D01*
X84411250Y-102854093D01*
X84411248Y-102854092D01*
X84216807Y-102801992D01*
X84216805Y-102801992D01*
X84211492Y-102800568D01*
X84000000Y-102782065D01*
X83788508Y-102800568D01*
X83783195Y-102801992D01*
X83783193Y-102801992D01*
X83588752Y-102854092D01*
X83588750Y-102854093D01*
X83583442Y-102855515D01*
X83578461Y-102857837D01*
X83578460Y-102857838D01*
X83396020Y-102942911D01*
X83396015Y-102942914D01*
X83391033Y-102945237D01*
X83386526Y-102948393D01*
X83386524Y-102948394D01*
X83221637Y-103063849D01*
X83221634Y-103063851D01*
X83217126Y-103067008D01*
X83089095Y-103195039D01*
X83026783Y-103229065D01*
X82955968Y-103224000D01*
X82910905Y-103195039D01*
X82782874Y-103067008D01*
X82608968Y-102945237D01*
X82603986Y-102942914D01*
X82603981Y-102942911D01*
X82421540Y-102857838D01*
X82421539Y-102857838D01*
X82416558Y-102855515D01*
X82411250Y-102854093D01*
X82411248Y-102854092D01*
X82216807Y-102801992D01*
X82216805Y-102801992D01*
X82211492Y-102800568D01*
X82000000Y-102782065D01*
X81788508Y-102800568D01*
X81783195Y-102801992D01*
X81783193Y-102801992D01*
X81588752Y-102854092D01*
X81588750Y-102854093D01*
X81583442Y-102855515D01*
X81578461Y-102857837D01*
X81578460Y-102857838D01*
X81396020Y-102942911D01*
X81396015Y-102942914D01*
X81391033Y-102945237D01*
X81386526Y-102948393D01*
X81386524Y-102948394D01*
X81221637Y-103063849D01*
X81221634Y-103063851D01*
X81217126Y-103067008D01*
X81067008Y-103217126D01*
X81063851Y-103221634D01*
X81063849Y-103221637D01*
X80993109Y-103322665D01*
X80945237Y-103391033D01*
X80942914Y-103396015D01*
X80942911Y-103396020D01*
X80858257Y-103577561D01*
X80855515Y-103583442D01*
X80854093Y-103588750D01*
X80854092Y-103588752D01*
X80807474Y-103762734D01*
X80800568Y-103788508D01*
X80782065Y-104000000D01*
X80800568Y-104211492D01*
X80801992Y-104216805D01*
X80801992Y-104216807D01*
X80822927Y-104294936D01*
X80855515Y-104416558D01*
X80857837Y-104421539D01*
X80857838Y-104421540D01*
X80942911Y-104603980D01*
X80942914Y-104603985D01*
X80945237Y-104608967D01*
X80948393Y-104613474D01*
X80948394Y-104613476D01*
X81062195Y-104776000D01*
X81067008Y-104782874D01*
X81217126Y-104932992D01*
X81221635Y-104936149D01*
X81221637Y-104936151D01*
X81286005Y-104981222D01*
X81391032Y-105054763D01*
X81396014Y-105057086D01*
X81396019Y-105057089D01*
X81578460Y-105142162D01*
X81583442Y-105144485D01*
X81588750Y-105145907D01*
X81588752Y-105145908D01*
X81783193Y-105198008D01*
X81783195Y-105198008D01*
X81788508Y-105199432D01*
X82000000Y-105217935D01*
X82211492Y-105199432D01*
X82216805Y-105198008D01*
X82216807Y-105198008D01*
X82411248Y-105145908D01*
X82411250Y-105145907D01*
X82416558Y-105144485D01*
X82421540Y-105142162D01*
X82603981Y-105057089D01*
X82603986Y-105057086D01*
X82608968Y-105054763D01*
X82713995Y-104981222D01*
X82778363Y-104936151D01*
X82778365Y-104936149D01*
X82782874Y-104932992D01*
X82910905Y-104804961D01*
X82973217Y-104770935D01*
X83044032Y-104776000D01*
X83089095Y-104804961D01*
X83217126Y-104932992D01*
X83221635Y-104936149D01*
X83221637Y-104936151D01*
X83286005Y-104981222D01*
X83391032Y-105054763D01*
X83396014Y-105057086D01*
X83396019Y-105057089D01*
X83578460Y-105142162D01*
X83583442Y-105144485D01*
X83588750Y-105145907D01*
X83588752Y-105145908D01*
X83783193Y-105198008D01*
X83783195Y-105198008D01*
X83788508Y-105199432D01*
X84000000Y-105217935D01*
X84211492Y-105199432D01*
X84216805Y-105198008D01*
X84216807Y-105198008D01*
X84411248Y-105145908D01*
X84411250Y-105145907D01*
X84416558Y-105144485D01*
X84421540Y-105142162D01*
X84603981Y-105057089D01*
X84603986Y-105057086D01*
X84608968Y-105054763D01*
X84713995Y-104981222D01*
X84778363Y-104936151D01*
X84778365Y-104936149D01*
X84782874Y-104932992D01*
X84910905Y-104804961D01*
X84973217Y-104770935D01*
X85044032Y-104776000D01*
X85089095Y-104804961D01*
X85217126Y-104932992D01*
X85221635Y-104936149D01*
X85221637Y-104936151D01*
X85286005Y-104981222D01*
X85391032Y-105054763D01*
X85396014Y-105057086D01*
X85396019Y-105057089D01*
X85578460Y-105142162D01*
X85583442Y-105144485D01*
X85588750Y-105145907D01*
X85588752Y-105145908D01*
X85783193Y-105198008D01*
X85783195Y-105198008D01*
X85788508Y-105199432D01*
X86000000Y-105217935D01*
X86211492Y-105199432D01*
X86216805Y-105198008D01*
X86216807Y-105198008D01*
X86411248Y-105145908D01*
X86411250Y-105145907D01*
X86416558Y-105144485D01*
X86421540Y-105142162D01*
X86603981Y-105057089D01*
X86603986Y-105057086D01*
X86608968Y-105054763D01*
X86713995Y-104981222D01*
X86778363Y-104936151D01*
X86778365Y-104936149D01*
X86782874Y-104932992D01*
X86910905Y-104804961D01*
X86973217Y-104770935D01*
X87044032Y-104776000D01*
X87089095Y-104804961D01*
X87217126Y-104932992D01*
X87221635Y-104936149D01*
X87221637Y-104936151D01*
X87286005Y-104981222D01*
X87391032Y-105054763D01*
X87396014Y-105057086D01*
X87396019Y-105057089D01*
X87578460Y-105142162D01*
X87583442Y-105144485D01*
X87588750Y-105145907D01*
X87588752Y-105145908D01*
X87783193Y-105198008D01*
X87783195Y-105198008D01*
X87788508Y-105199432D01*
X88000000Y-105217935D01*
X88211492Y-105199432D01*
X88216805Y-105198008D01*
X88216807Y-105198008D01*
X88411248Y-105145908D01*
X88411250Y-105145907D01*
X88416558Y-105144485D01*
X88421540Y-105142162D01*
X88603981Y-105057089D01*
X88603986Y-105057086D01*
X88608968Y-105054763D01*
X88713995Y-104981222D01*
X88778363Y-104936151D01*
X88778365Y-104936149D01*
X88782874Y-104932992D01*
X88910905Y-104804961D01*
X88973217Y-104770935D01*
X89044032Y-104776000D01*
X89089095Y-104804961D01*
X89217126Y-104932992D01*
X89221635Y-104936149D01*
X89221637Y-104936151D01*
X89286005Y-104981222D01*
X89391032Y-105054763D01*
X89396014Y-105057086D01*
X89396019Y-105057089D01*
X89578460Y-105142162D01*
X89583442Y-105144485D01*
X89588750Y-105145907D01*
X89588752Y-105145908D01*
X89783193Y-105198008D01*
X89783195Y-105198008D01*
X89788508Y-105199432D01*
X90000000Y-105217935D01*
X90211492Y-105199432D01*
X90216805Y-105198008D01*
X90216807Y-105198008D01*
X90411248Y-105145908D01*
X90411250Y-105145907D01*
X90416558Y-105144485D01*
X90421540Y-105142162D01*
X90603981Y-105057089D01*
X90603986Y-105057086D01*
X90608968Y-105054763D01*
X90713995Y-104981222D01*
X90778363Y-104936151D01*
X90778365Y-104936149D01*
X90782874Y-104932992D01*
X90910905Y-104804961D01*
X90973217Y-104770935D01*
X91044032Y-104776000D01*
X91089095Y-104804961D01*
X91217126Y-104932992D01*
X91221635Y-104936149D01*
X91221637Y-104936151D01*
X91286005Y-104981222D01*
X91391032Y-105054763D01*
X91396014Y-105057086D01*
X91396019Y-105057089D01*
X91578460Y-105142162D01*
X91583442Y-105144485D01*
X91588750Y-105145907D01*
X91588752Y-105145908D01*
X91783193Y-105198008D01*
X91783195Y-105198008D01*
X91788508Y-105199432D01*
X92000000Y-105217935D01*
X92211492Y-105199432D01*
X92216805Y-105198008D01*
X92216807Y-105198008D01*
X92411248Y-105145908D01*
X92411250Y-105145907D01*
X92416558Y-105144485D01*
X92421540Y-105142162D01*
X92603981Y-105057089D01*
X92603986Y-105057086D01*
X92608968Y-105054763D01*
X92713995Y-104981222D01*
X92778363Y-104936151D01*
X92778365Y-104936149D01*
X92782874Y-104932992D01*
X92910905Y-104804961D01*
X92973217Y-104770935D01*
X93044032Y-104776000D01*
X93089095Y-104804961D01*
X93217126Y-104932992D01*
X93221635Y-104936149D01*
X93221637Y-104936151D01*
X93286005Y-104981222D01*
X93391032Y-105054763D01*
X93396014Y-105057086D01*
X93396019Y-105057089D01*
X93578460Y-105142162D01*
X93583442Y-105144485D01*
X93588750Y-105145907D01*
X93588752Y-105145908D01*
X93783193Y-105198008D01*
X93783195Y-105198008D01*
X93788508Y-105199432D01*
X94000000Y-105217935D01*
X94211492Y-105199432D01*
X94216805Y-105198008D01*
X94216807Y-105198008D01*
X94411248Y-105145908D01*
X94411250Y-105145907D01*
X94416558Y-105144485D01*
X94421540Y-105142162D01*
X94603981Y-105057089D01*
X94603986Y-105057086D01*
X94608968Y-105054763D01*
X94713995Y-104981222D01*
X94778363Y-104936151D01*
X94778365Y-104936149D01*
X94782874Y-104932992D01*
X94910905Y-104804961D01*
X94973217Y-104770935D01*
X95044032Y-104776000D01*
X95089095Y-104804961D01*
X95217126Y-104932992D01*
X95221635Y-104936149D01*
X95221637Y-104936151D01*
X95286005Y-104981222D01*
X95391032Y-105054763D01*
X95396014Y-105057086D01*
X95396019Y-105057089D01*
X95578460Y-105142162D01*
X95583442Y-105144485D01*
X95588750Y-105145907D01*
X95588752Y-105145908D01*
X95783193Y-105198008D01*
X95783195Y-105198008D01*
X95788508Y-105199432D01*
X96000000Y-105217935D01*
X96211492Y-105199432D01*
X96216805Y-105198008D01*
X96216807Y-105198008D01*
X96411248Y-105145908D01*
X96411250Y-105145907D01*
X96416558Y-105144485D01*
X96421540Y-105142162D01*
X96603981Y-105057089D01*
X96603986Y-105057086D01*
X96608968Y-105054763D01*
X96713995Y-104981222D01*
X96778363Y-104936151D01*
X96778365Y-104936149D01*
X96782874Y-104932992D01*
X96910905Y-104804961D01*
X96973217Y-104770935D01*
X97044032Y-104776000D01*
X97089095Y-104804961D01*
X97217126Y-104932992D01*
X97221635Y-104936149D01*
X97221637Y-104936151D01*
X97286005Y-104981222D01*
X97391032Y-105054763D01*
X97396014Y-105057086D01*
X97396019Y-105057089D01*
X97578460Y-105142162D01*
X97583442Y-105144485D01*
X97588750Y-105145907D01*
X97588752Y-105145908D01*
X97783193Y-105198008D01*
X97783195Y-105198008D01*
X97788508Y-105199432D01*
X98000000Y-105217935D01*
X98211492Y-105199432D01*
X98216805Y-105198008D01*
X98216807Y-105198008D01*
X98411248Y-105145908D01*
X98411250Y-105145907D01*
X98416558Y-105144485D01*
X98421540Y-105142162D01*
X98603981Y-105057089D01*
X98603986Y-105057086D01*
X98608968Y-105054763D01*
X98713995Y-104981222D01*
X98778363Y-104936151D01*
X98778365Y-104936149D01*
X98782874Y-104932992D01*
X98910905Y-104804961D01*
X98973217Y-104770935D01*
X99044032Y-104776000D01*
X99089095Y-104804961D01*
X99217126Y-104932992D01*
X99221635Y-104936149D01*
X99221637Y-104936151D01*
X99286005Y-104981222D01*
X99391032Y-105054763D01*
X99396014Y-105057086D01*
X99396019Y-105057089D01*
X99578460Y-105142162D01*
X99583442Y-105144485D01*
X99588750Y-105145907D01*
X99588752Y-105145908D01*
X99783193Y-105198008D01*
X99783195Y-105198008D01*
X99788508Y-105199432D01*
X100000000Y-105217935D01*
X100211492Y-105199432D01*
X100216803Y-105198009D01*
X100216814Y-105198007D01*
X100238988Y-105192065D01*
X100309964Y-105193754D01*
X100368761Y-105233547D01*
X100396709Y-105298812D01*
X100397600Y-105313771D01*
X100397600Y-120217006D01*
X100377598Y-120285127D01*
X100360695Y-120306101D01*
X95906107Y-124760688D01*
X95843795Y-124794714D01*
X95827995Y-124797113D01*
X95788508Y-124800568D01*
X95666201Y-124833340D01*
X95588752Y-124854092D01*
X95588750Y-124854093D01*
X95583442Y-124855515D01*
X95578461Y-124857837D01*
X95578460Y-124857838D01*
X95396020Y-124942911D01*
X95396015Y-124942914D01*
X95391033Y-124945237D01*
X95386526Y-124948393D01*
X95386524Y-124948394D01*
X95221637Y-125063849D01*
X95221634Y-125063851D01*
X95217126Y-125067008D01*
X95089095Y-125195039D01*
X95026783Y-125229065D01*
X94955968Y-125224000D01*
X94910905Y-125195039D01*
X94782874Y-125067008D01*
X94742891Y-125039011D01*
X94661889Y-124982293D01*
X94608968Y-124945237D01*
X94603986Y-124942914D01*
X94603981Y-124942911D01*
X94421540Y-124857838D01*
X94421539Y-124857838D01*
X94416558Y-124855515D01*
X94411250Y-124854093D01*
X94411248Y-124854092D01*
X94216807Y-124801992D01*
X94216805Y-124801992D01*
X94211492Y-124800568D01*
X94000000Y-124782065D01*
X93788508Y-124800568D01*
X93783195Y-124801992D01*
X93783193Y-124801992D01*
X93588752Y-124854092D01*
X93588750Y-124854093D01*
X93583442Y-124855515D01*
X93578461Y-124857837D01*
X93578460Y-124857838D01*
X93396020Y-124942911D01*
X93396015Y-124942914D01*
X93391033Y-124945237D01*
X93386526Y-124948393D01*
X93386524Y-124948394D01*
X93221637Y-125063849D01*
X93221634Y-125063851D01*
X93217126Y-125067008D01*
X93089095Y-125195039D01*
X93026783Y-125229065D01*
X92955968Y-125224000D01*
X92910905Y-125195039D01*
X92782874Y-125067008D01*
X92742891Y-125039011D01*
X92661889Y-124982293D01*
X92608968Y-124945237D01*
X92603986Y-124942914D01*
X92603981Y-124942911D01*
X92421540Y-124857838D01*
X92421539Y-124857838D01*
X92416558Y-124855515D01*
X92411250Y-124854093D01*
X92411248Y-124854092D01*
X92216807Y-124801992D01*
X92216805Y-124801992D01*
X92211492Y-124800568D01*
X92000000Y-124782065D01*
X91788508Y-124800568D01*
X91783195Y-124801992D01*
X91783193Y-124801992D01*
X91588752Y-124854092D01*
X91588750Y-124854093D01*
X91583442Y-124855515D01*
X91578461Y-124857837D01*
X91578460Y-124857838D01*
X91396020Y-124942911D01*
X91396015Y-124942914D01*
X91391033Y-124945237D01*
X91386526Y-124948393D01*
X91386524Y-124948394D01*
X91221637Y-125063849D01*
X91221634Y-125063851D01*
X91217126Y-125067008D01*
X91089095Y-125195039D01*
X91026783Y-125229065D01*
X90955968Y-125224000D01*
X90910905Y-125195039D01*
X90782874Y-125067008D01*
X90742891Y-125039011D01*
X90661889Y-124982293D01*
X90608968Y-124945237D01*
X90603986Y-124942914D01*
X90603981Y-124942911D01*
X90421540Y-124857838D01*
X90421539Y-124857838D01*
X90416558Y-124855515D01*
X90411250Y-124854093D01*
X90411248Y-124854092D01*
X90216807Y-124801992D01*
X90216805Y-124801992D01*
X90211492Y-124800568D01*
X90000000Y-124782065D01*
X89788508Y-124800568D01*
X89783195Y-124801992D01*
X89783193Y-124801992D01*
X89588752Y-124854092D01*
X89588750Y-124854093D01*
X89583442Y-124855515D01*
X89578461Y-124857837D01*
X89578460Y-124857838D01*
X89396020Y-124942911D01*
X89396015Y-124942914D01*
X89391033Y-124945237D01*
X89386526Y-124948393D01*
X89386524Y-124948394D01*
X89221637Y-125063849D01*
X89221634Y-125063851D01*
X89217126Y-125067008D01*
X89089095Y-125195039D01*
X89026783Y-125229065D01*
X88955968Y-125224000D01*
X88910905Y-125195039D01*
X88782874Y-125067008D01*
X88742891Y-125039011D01*
X88661889Y-124982293D01*
X88608968Y-124945237D01*
X88603986Y-124942914D01*
X88603981Y-124942911D01*
X88421540Y-124857838D01*
X88421539Y-124857838D01*
X88416558Y-124855515D01*
X88411250Y-124854093D01*
X88411248Y-124854092D01*
X88216807Y-124801992D01*
X88216805Y-124801992D01*
X88211492Y-124800568D01*
X88000000Y-124782065D01*
X87788508Y-124800568D01*
X87783195Y-124801992D01*
X87783193Y-124801992D01*
X87588752Y-124854092D01*
X87588750Y-124854093D01*
X87583442Y-124855515D01*
X87578461Y-124857837D01*
X87578460Y-124857838D01*
X87396020Y-124942911D01*
X87396015Y-124942914D01*
X87391033Y-124945237D01*
X87386526Y-124948393D01*
X87386524Y-124948394D01*
X87221637Y-125063849D01*
X87221634Y-125063851D01*
X87217126Y-125067008D01*
X87089095Y-125195039D01*
X87026783Y-125229065D01*
X86955968Y-125224000D01*
X86910905Y-125195039D01*
X86782874Y-125067008D01*
X86742891Y-125039011D01*
X86661889Y-124982293D01*
X86608968Y-124945237D01*
X86603986Y-124942914D01*
X86603981Y-124942911D01*
X86421540Y-124857838D01*
X86421539Y-124857838D01*
X86416558Y-124855515D01*
X86411250Y-124854093D01*
X86411248Y-124854092D01*
X86216807Y-124801992D01*
X86216805Y-124801992D01*
X86211492Y-124800568D01*
X86000000Y-124782065D01*
X85788508Y-124800568D01*
X85783195Y-124801992D01*
X85783193Y-124801992D01*
X85588752Y-124854092D01*
X85588750Y-124854093D01*
X85583442Y-124855515D01*
X85578461Y-124857837D01*
X85578460Y-124857838D01*
X85396020Y-124942911D01*
X85396015Y-124942914D01*
X85391033Y-124945237D01*
X85386526Y-124948393D01*
X85386524Y-124948394D01*
X85221637Y-125063849D01*
X85221634Y-125063851D01*
X85217126Y-125067008D01*
X85089095Y-125195039D01*
X85026783Y-125229065D01*
X84955968Y-125224000D01*
X84910905Y-125195039D01*
X84782874Y-125067008D01*
X84742891Y-125039011D01*
X84661889Y-124982293D01*
X84608968Y-124945237D01*
X84603986Y-124942914D01*
X84603981Y-124942911D01*
X84421540Y-124857838D01*
X84421539Y-124857838D01*
X84416558Y-124855515D01*
X84411250Y-124854093D01*
X84411248Y-124854092D01*
X84216807Y-124801992D01*
X84216805Y-124801992D01*
X84211492Y-124800568D01*
X84000000Y-124782065D01*
X83788508Y-124800568D01*
X83783195Y-124801992D01*
X83783193Y-124801992D01*
X83588752Y-124854092D01*
X83588750Y-124854093D01*
X83583442Y-124855515D01*
X83578461Y-124857837D01*
X83578460Y-124857838D01*
X83396020Y-124942911D01*
X83396015Y-124942914D01*
X83391033Y-124945237D01*
X83386526Y-124948393D01*
X83386524Y-124948394D01*
X83221637Y-125063849D01*
X83221634Y-125063851D01*
X83217126Y-125067008D01*
X83067008Y-125217126D01*
X83063851Y-125221634D01*
X83063849Y-125221637D01*
X82948394Y-125386524D01*
X82945237Y-125391033D01*
X82942912Y-125396018D01*
X82942909Y-125396024D01*
X82934582Y-125413882D01*
X82909482Y-125449728D01*
X82372022Y-125987188D01*
X82364408Y-126001132D01*
X82364539Y-126002965D01*
X82368790Y-126009580D01*
X82909482Y-126550272D01*
X82934582Y-126586118D01*
X82942909Y-126603976D01*
X82942912Y-126603982D01*
X82945237Y-126608967D01*
X82948393Y-126613474D01*
X82948394Y-126613476D01*
X83062195Y-126776000D01*
X83067008Y-126782874D01*
X83217126Y-126932992D01*
X83391032Y-127054763D01*
X83396014Y-127057086D01*
X83396019Y-127057089D01*
X83577448Y-127141690D01*
X83583442Y-127144485D01*
X83588750Y-127145907D01*
X83588752Y-127145908D01*
X83783193Y-127198008D01*
X83783195Y-127198008D01*
X83788508Y-127199432D01*
X84000000Y-127217935D01*
X84211492Y-127199432D01*
X84216805Y-127198008D01*
X84216807Y-127198008D01*
X84411248Y-127145908D01*
X84411250Y-127145907D01*
X84416558Y-127144485D01*
X84422552Y-127141690D01*
X84603981Y-127057089D01*
X84603986Y-127057086D01*
X84608968Y-127054763D01*
X84782874Y-126932992D01*
X84910905Y-126804961D01*
X84973217Y-126770935D01*
X85044032Y-126776000D01*
X85089095Y-126804961D01*
X85217126Y-126932992D01*
X85391032Y-127054763D01*
X85396014Y-127057086D01*
X85396019Y-127057089D01*
X85577448Y-127141690D01*
X85583442Y-127144485D01*
X85588750Y-127145907D01*
X85588752Y-127145908D01*
X85783193Y-127198008D01*
X85783195Y-127198008D01*
X85788508Y-127199432D01*
X86000000Y-127217935D01*
X86211492Y-127199432D01*
X86216805Y-127198008D01*
X86216807Y-127198008D01*
X86411248Y-127145908D01*
X86411250Y-127145907D01*
X86416558Y-127144485D01*
X86422552Y-127141690D01*
X86603981Y-127057089D01*
X86603986Y-127057086D01*
X86608968Y-127054763D01*
X86782874Y-126932992D01*
X86910905Y-126804961D01*
X86973217Y-126770935D01*
X87044032Y-126776000D01*
X87089095Y-126804961D01*
X87217126Y-126932992D01*
X87391032Y-127054763D01*
X87396014Y-127057086D01*
X87396019Y-127057089D01*
X87577448Y-127141690D01*
X87583442Y-127144485D01*
X87588750Y-127145907D01*
X87588752Y-127145908D01*
X87783193Y-127198008D01*
X87783195Y-127198008D01*
X87788508Y-127199432D01*
X88000000Y-127217935D01*
X88211492Y-127199432D01*
X88216805Y-127198008D01*
X88216807Y-127198008D01*
X88411248Y-127145908D01*
X88411250Y-127145907D01*
X88416558Y-127144485D01*
X88422552Y-127141690D01*
X88603981Y-127057089D01*
X88603986Y-127057086D01*
X88608968Y-127054763D01*
X88782874Y-126932992D01*
X88910905Y-126804961D01*
X88973217Y-126770935D01*
X89044032Y-126776000D01*
X89089095Y-126804961D01*
X89217126Y-126932992D01*
X89391032Y-127054763D01*
X89396014Y-127057086D01*
X89396019Y-127057089D01*
X89577448Y-127141690D01*
X89583442Y-127144485D01*
X89588750Y-127145907D01*
X89588752Y-127145908D01*
X89783193Y-127198008D01*
X89783195Y-127198008D01*
X89788508Y-127199432D01*
X90000000Y-127217935D01*
X90211492Y-127199432D01*
X90216805Y-127198008D01*
X90216807Y-127198008D01*
X90411248Y-127145908D01*
X90411250Y-127145907D01*
X90416558Y-127144485D01*
X90422552Y-127141690D01*
X90603981Y-127057089D01*
X90603986Y-127057086D01*
X90608968Y-127054763D01*
X90782874Y-126932992D01*
X90910905Y-126804961D01*
X90973217Y-126770935D01*
X91044032Y-126776000D01*
X91089095Y-126804961D01*
X91217126Y-126932992D01*
X91391032Y-127054763D01*
X91396014Y-127057086D01*
X91396019Y-127057089D01*
X91577448Y-127141690D01*
X91583442Y-127144485D01*
X91588750Y-127145907D01*
X91588752Y-127145908D01*
X91783193Y-127198008D01*
X91783195Y-127198008D01*
X91788508Y-127199432D01*
X92000000Y-127217935D01*
X92211492Y-127199432D01*
X92216805Y-127198008D01*
X92216807Y-127198008D01*
X92411248Y-127145908D01*
X92411250Y-127145907D01*
X92416558Y-127144485D01*
X92422552Y-127141690D01*
X92603981Y-127057089D01*
X92603986Y-127057086D01*
X92608968Y-127054763D01*
X92782874Y-126932992D01*
X92910905Y-126804961D01*
X92973217Y-126770935D01*
X93044032Y-126776000D01*
X93089095Y-126804961D01*
X93217126Y-126932992D01*
X93391032Y-127054763D01*
X93396014Y-127057086D01*
X93396019Y-127057089D01*
X93577448Y-127141690D01*
X93583442Y-127144485D01*
X93588750Y-127145907D01*
X93588752Y-127145908D01*
X93783193Y-127198008D01*
X93783195Y-127198008D01*
X93788508Y-127199432D01*
X94000000Y-127217935D01*
X94211492Y-127199432D01*
X94216805Y-127198008D01*
X94216807Y-127198008D01*
X94411248Y-127145908D01*
X94411250Y-127145907D01*
X94416558Y-127144485D01*
X94422552Y-127141690D01*
X94603981Y-127057089D01*
X94603986Y-127057086D01*
X94608968Y-127054763D01*
X94782874Y-126932992D01*
X94910905Y-126804961D01*
X94973217Y-126770935D01*
X95044032Y-126776000D01*
X95089095Y-126804961D01*
X95217126Y-126932992D01*
X95391032Y-127054763D01*
X95396014Y-127057086D01*
X95396019Y-127057089D01*
X95577448Y-127141690D01*
X95583442Y-127144485D01*
X95588750Y-127145907D01*
X95588752Y-127145908D01*
X95783193Y-127198008D01*
X95783195Y-127198008D01*
X95788508Y-127199432D01*
X96000000Y-127217935D01*
X96211492Y-127199432D01*
X96216805Y-127198008D01*
X96216807Y-127198008D01*
X96411248Y-127145908D01*
X96411250Y-127145907D01*
X96416558Y-127144485D01*
X96422552Y-127141690D01*
X96603981Y-127057089D01*
X96603986Y-127057086D01*
X96608968Y-127054763D01*
X96782874Y-126932992D01*
X96910905Y-126804961D01*
X96973217Y-126770935D01*
X97044032Y-126776000D01*
X97089095Y-126804961D01*
X97217126Y-126932992D01*
X97391032Y-127054763D01*
X97396014Y-127057086D01*
X97396019Y-127057089D01*
X97577448Y-127141690D01*
X97583442Y-127144485D01*
X97588750Y-127145907D01*
X97588752Y-127145908D01*
X97783193Y-127198008D01*
X97783195Y-127198008D01*
X97788508Y-127199432D01*
X98000000Y-127217935D01*
X98211492Y-127199432D01*
X98216805Y-127198008D01*
X98216807Y-127198008D01*
X98411248Y-127145908D01*
X98411250Y-127145907D01*
X98416558Y-127144485D01*
X98422552Y-127141690D01*
X98603981Y-127057089D01*
X98603986Y-127057086D01*
X98608968Y-127054763D01*
X98782874Y-126932992D01*
X98910905Y-126804961D01*
X98973217Y-126770935D01*
X99044032Y-126776000D01*
X99089095Y-126804961D01*
X99217126Y-126932992D01*
X99391032Y-127054763D01*
X99396014Y-127057086D01*
X99396019Y-127057089D01*
X99577448Y-127141690D01*
X99583442Y-127144485D01*
X99588750Y-127145907D01*
X99588752Y-127145908D01*
X99783193Y-127198008D01*
X99783195Y-127198008D01*
X99788508Y-127199432D01*
X100000000Y-127217935D01*
X100211492Y-127199432D01*
X100216805Y-127198008D01*
X100216807Y-127198008D01*
X100411248Y-127145908D01*
X100411250Y-127145907D01*
X100416558Y-127144485D01*
X100422552Y-127141690D01*
X100603981Y-127057089D01*
X100603986Y-127057086D01*
X100608968Y-127054763D01*
X100782874Y-126932992D01*
X100932992Y-126782874D01*
X100937806Y-126776000D01*
X101051606Y-126613476D01*
X101051607Y-126613474D01*
X101054763Y-126608967D01*
X101057086Y-126603985D01*
X101057089Y-126603980D01*
X101142162Y-126421540D01*
X101142163Y-126421539D01*
X101144485Y-126416558D01*
X101156419Y-126372022D01*
X101198008Y-126216807D01*
X101198008Y-126216805D01*
X101199432Y-126211492D01*
X101217935Y-126000000D01*
X101199432Y-125788508D01*
X101144485Y-125583442D01*
X101143974Y-125582346D01*
X101139504Y-125535898D01*
X101136731Y-125535811D01*
X101136980Y-125527886D01*
X101138220Y-125520057D01*
X101134059Y-125476038D01*
X101133500Y-125464181D01*
X101133500Y-122790924D01*
X101153502Y-122722803D01*
X101165858Y-122706621D01*
X101239040Y-122625344D01*
X101304859Y-122511342D01*
X101331223Y-122465679D01*
X101331224Y-122465678D01*
X101334527Y-122459956D01*
X101393542Y-122278328D01*
X101396640Y-122248857D01*
X101412814Y-122094965D01*
X101413504Y-122088400D01*
X101393542Y-121898472D01*
X101334527Y-121716844D01*
X101239040Y-121551456D01*
X101161796Y-121465668D01*
X101131081Y-121401665D01*
X101139844Y-121331211D01*
X101166339Y-121292266D01*
X101423353Y-121035252D01*
X101431639Y-121027712D01*
X101438118Y-121023600D01*
X101484744Y-120973948D01*
X101487498Y-120971107D01*
X101507235Y-120951370D01*
X101509715Y-120948173D01*
X101517420Y-120939151D01*
X101542259Y-120912700D01*
X101547686Y-120906921D01*
X101551505Y-120899975D01*
X101551507Y-120899972D01*
X101557448Y-120889166D01*
X101568299Y-120872647D01*
X101575858Y-120862901D01*
X101580714Y-120856641D01*
X101583859Y-120849372D01*
X101583862Y-120849368D01*
X101598274Y-120816063D01*
X101603491Y-120805413D01*
X101624795Y-120766660D01*
X101629833Y-120747037D01*
X101636237Y-120728334D01*
X101641133Y-120717020D01*
X101641133Y-120717019D01*
X101644281Y-120709745D01*
X101645520Y-120701922D01*
X101645523Y-120701912D01*
X101651199Y-120666076D01*
X101653605Y-120654456D01*
X101662628Y-120619311D01*
X101662628Y-120619310D01*
X101664600Y-120611630D01*
X101664600Y-120591376D01*
X101666151Y-120571665D01*
X101668080Y-120559486D01*
X101669320Y-120551657D01*
X101665159Y-120507638D01*
X101664600Y-120495781D01*
X101664600Y-102778541D01*
X101684602Y-102710420D01*
X101738258Y-102663927D01*
X101808532Y-102653823D01*
X101873112Y-102683317D01*
X101879695Y-102689446D01*
X112298657Y-113108408D01*
X112332683Y-113170720D01*
X112327618Y-113241535D01*
X112285071Y-113298371D01*
X112218551Y-113323182D01*
X112207922Y-113323492D01*
X112078708Y-113321800D01*
X112010801Y-113320911D01*
X112010798Y-113320911D01*
X112006124Y-113320850D01*
X111754578Y-113355084D01*
X111750092Y-113356392D01*
X111750090Y-113356392D01*
X111686055Y-113375056D01*
X111510856Y-113426122D01*
X111280310Y-113532405D01*
X111276401Y-113534968D01*
X111071920Y-113669031D01*
X111071915Y-113669035D01*
X111068007Y-113671597D01*
X110878610Y-113840641D01*
X110716279Y-114035822D01*
X110584581Y-114252854D01*
X110582772Y-114257168D01*
X110582771Y-114257170D01*
X110498513Y-114458104D01*
X110486409Y-114486968D01*
X110423919Y-114733021D01*
X110398485Y-114985608D01*
X110398709Y-114990273D01*
X110398709Y-114990279D01*
X110399183Y-115000134D01*
X110400291Y-115023198D01*
X110410665Y-115239180D01*
X110460191Y-115488167D01*
X110545976Y-115727098D01*
X110666135Y-115950725D01*
X110668930Y-115954468D01*
X110668932Y-115954471D01*
X110815237Y-116150397D01*
X110815242Y-116150403D01*
X110818029Y-116154135D01*
X110821338Y-116157415D01*
X110821343Y-116157421D01*
X110971867Y-116306636D01*
X110998320Y-116332859D01*
X111002082Y-116335617D01*
X111002085Y-116335620D01*
X111199273Y-116480204D01*
X111203047Y-116482971D01*
X111207190Y-116485151D01*
X111207192Y-116485152D01*
X111423564Y-116598991D01*
X111423569Y-116598993D01*
X111427714Y-116601174D01*
X111432137Y-116602719D01*
X111432138Y-116602719D01*
X111662629Y-116683210D01*
X111667385Y-116684871D01*
X111671978Y-116685743D01*
X111912205Y-116731352D01*
X111912208Y-116731352D01*
X111916794Y-116732223D01*
X112043628Y-116737207D01*
X112165794Y-116742007D01*
X112165800Y-116742007D01*
X112170462Y-116742190D01*
X112194412Y-116739567D01*
X112264305Y-116752034D01*
X112316363Y-116800309D01*
X112334057Y-116869065D01*
X112311770Y-116936473D01*
X112297224Y-116953913D01*
X92769855Y-136481282D01*
X92755088Y-136493928D01*
X92735737Y-136508065D01*
X92730267Y-136515181D01*
X92730263Y-136515185D01*
X92730204Y-136515262D01*
X92708873Y-136536977D01*
X92659930Y-136576008D01*
X92636044Y-136591016D01*
X92562362Y-136626500D01*
X92535734Y-136635817D01*
X92488802Y-136646529D01*
X92456003Y-136654015D01*
X92427966Y-136657174D01*
X92346186Y-136657174D01*
X92318149Y-136654015D01*
X92238422Y-136635818D01*
X92211789Y-136626499D01*
X92138106Y-136591015D01*
X92114218Y-136576005D01*
X92070446Y-136541098D01*
X92058832Y-136530591D01*
X92052577Y-136524182D01*
X92047281Y-136516932D01*
X92022071Y-136497553D01*
X92009766Y-136486752D01*
X91961581Y-136438567D01*
X91948034Y-136422552D01*
X91939230Y-136410187D01*
X91936408Y-136406223D01*
X91927650Y-136397249D01*
X91915745Y-136388327D01*
X91908795Y-136382724D01*
X91767055Y-136259903D01*
X91767050Y-136259899D01*
X91763658Y-136256960D01*
X91582192Y-136140339D01*
X91385977Y-136050730D01*
X91179006Y-135989958D01*
X91174547Y-135989317D01*
X91174543Y-135989316D01*
X91072250Y-135974609D01*
X90965493Y-135959259D01*
X90749784Y-135959259D01*
X90643027Y-135974609D01*
X90540734Y-135989316D01*
X90540730Y-135989317D01*
X90536271Y-135989958D01*
X90329300Y-136050730D01*
X90133085Y-136140339D01*
X89951619Y-136256960D01*
X89948227Y-136259900D01*
X89948222Y-136259903D01*
X89942084Y-136265222D01*
X89819209Y-136371695D01*
X89809790Y-136379100D01*
X89796602Y-136388490D01*
X89787627Y-136397249D01*
X89784708Y-136401144D01*
X89784707Y-136401145D01*
X89770908Y-136419557D01*
X89759177Y-136433087D01*
X81340924Y-144851339D01*
X81326157Y-144863985D01*
X81306806Y-144878122D01*
X81297449Y-144890295D01*
X81280066Y-144908728D01*
X81151970Y-145019724D01*
X81137578Y-145030498D01*
X80973657Y-145135844D01*
X80957878Y-145144460D01*
X80780631Y-145225406D01*
X80763789Y-145231687D01*
X80576824Y-145286585D01*
X80559267Y-145290404D01*
X80387407Y-145315114D01*
X80366398Y-145318135D01*
X80348466Y-145319418D01*
X80153608Y-145319418D01*
X80135676Y-145318135D01*
X80114667Y-145315114D01*
X79942807Y-145290404D01*
X79925250Y-145286585D01*
X79738285Y-145231687D01*
X79721443Y-145225406D01*
X79544196Y-145144460D01*
X79528417Y-145135844D01*
X79364489Y-145030494D01*
X79350109Y-145019728D01*
X79227373Y-144913377D01*
X79215267Y-144900220D01*
X79209428Y-144894237D01*
X79204134Y-144886990D01*
X79178923Y-144867610D01*
X79166619Y-144856809D01*
X77177605Y-142867795D01*
X77143579Y-142805483D01*
X77148644Y-142734668D01*
X77191191Y-142677832D01*
X77257711Y-142653021D01*
X77266700Y-142652700D01*
X78115826Y-142652700D01*
X78183947Y-142672702D01*
X78230440Y-142726358D01*
X78241617Y-142771448D01*
X78242215Y-142781820D01*
X78243352Y-142786866D01*
X78243353Y-142786872D01*
X78263224Y-142875044D01*
X78291327Y-142999744D01*
X78375371Y-143206721D01*
X78492092Y-143397193D01*
X78638355Y-143566043D01*
X78810231Y-143708737D01*
X79003105Y-143821443D01*
X79211797Y-143901135D01*
X79216865Y-143902166D01*
X79216868Y-143902167D01*
X79324122Y-143923988D01*
X79430702Y-143945672D01*
X79435877Y-143945862D01*
X79435879Y-143945862D01*
X79648778Y-143953669D01*
X79648782Y-143953669D01*
X79653942Y-143953858D01*
X79659062Y-143953202D01*
X79659064Y-143953202D01*
X79870393Y-143926130D01*
X79870394Y-143926130D01*
X79875521Y-143925473D01*
X79880471Y-143923988D01*
X80084534Y-143862766D01*
X80084539Y-143862764D01*
X80089489Y-143861279D01*
X80290099Y-143763001D01*
X80471965Y-143633278D01*
X80630201Y-143475594D01*
X80689699Y-143392794D01*
X80757540Y-143298382D01*
X80760558Y-143294182D01*
X80859535Y-143093916D01*
X80924475Y-142880174D01*
X80953634Y-142658695D01*
X80953773Y-142653021D01*
X80955179Y-142595470D01*
X80955179Y-142595466D01*
X80955261Y-142592105D01*
X80936957Y-142369466D01*
X80882536Y-142152807D01*
X80793459Y-141947945D01*
X80672119Y-141760382D01*
X80521775Y-141595156D01*
X80517724Y-141591957D01*
X80517720Y-141591953D01*
X80350519Y-141459905D01*
X80350515Y-141459903D01*
X80346464Y-141456703D01*
X80150894Y-141348743D01*
X80146025Y-141347019D01*
X80146021Y-141347017D01*
X79945192Y-141275900D01*
X79945188Y-141275899D01*
X79940317Y-141274174D01*
X79935224Y-141273267D01*
X79935221Y-141273266D01*
X79725478Y-141235905D01*
X79725472Y-141235904D01*
X79720389Y-141234999D01*
X79646557Y-141234097D01*
X79502186Y-141232333D01*
X79502184Y-141232333D01*
X79497016Y-141232270D01*
X79276196Y-141266060D01*
X79271281Y-141267667D01*
X79270750Y-141267793D01*
X79199848Y-141264124D01*
X79142186Y-141222704D01*
X79116070Y-141156685D01*
X79120989Y-141108598D01*
X79126920Y-141089077D01*
X79126923Y-141089064D01*
X79128424Y-141084123D01*
X79157583Y-140862644D01*
X79159210Y-140796054D01*
X79140906Y-140573415D01*
X79086485Y-140356756D01*
X78997408Y-140151894D01*
X78957960Y-140090916D01*
X78878876Y-139968671D01*
X78878874Y-139968668D01*
X78876068Y-139964331D01*
X78725724Y-139799105D01*
X78721673Y-139795906D01*
X78721669Y-139795902D01*
X78554468Y-139663854D01*
X78554464Y-139663852D01*
X78550413Y-139660652D01*
X78354843Y-139552692D01*
X78349974Y-139550968D01*
X78349970Y-139550966D01*
X78149141Y-139479849D01*
X78149137Y-139479848D01*
X78144266Y-139478123D01*
X78139173Y-139477216D01*
X78139170Y-139477215D01*
X77929427Y-139439854D01*
X77929421Y-139439853D01*
X77924338Y-139438948D01*
X77850506Y-139438046D01*
X77706135Y-139436282D01*
X77706133Y-139436282D01*
X77700965Y-139436219D01*
X77590555Y-139453114D01*
X77485259Y-139469226D01*
X77485254Y-139469227D01*
X77480145Y-139470009D01*
X77475231Y-139471615D01*
X77474690Y-139471744D01*
X77403789Y-139468071D01*
X77346128Y-139426649D01*
X77320016Y-139360628D01*
X77324935Y-139312548D01*
X77332372Y-139288071D01*
X77361531Y-139066592D01*
X77363158Y-139000002D01*
X77344854Y-138777363D01*
X77290433Y-138560704D01*
X77201356Y-138355842D01*
X77111496Y-138216939D01*
X77082824Y-138172619D01*
X77082822Y-138172616D01*
X77080016Y-138168279D01*
X76929672Y-138003053D01*
X76925621Y-137999854D01*
X76925617Y-137999850D01*
X76758416Y-137867802D01*
X76758412Y-137867800D01*
X76754361Y-137864600D01*
X76749840Y-137862104D01*
X76749838Y-137862103D01*
X76702138Y-137835771D01*
X76558791Y-137756640D01*
X76553922Y-137754916D01*
X76553918Y-137754914D01*
X76353089Y-137683797D01*
X76353085Y-137683796D01*
X76348214Y-137682071D01*
X76343121Y-137681164D01*
X76343118Y-137681163D01*
X76164504Y-137649347D01*
X76100946Y-137617709D01*
X76064583Y-137556732D01*
X76060600Y-137525300D01*
X76060600Y-136817267D01*
X76061127Y-136806084D01*
X76062802Y-136798591D01*
X76060662Y-136730514D01*
X76060600Y-136726555D01*
X76060600Y-136698644D01*
X76060095Y-136694644D01*
X76059162Y-136682801D01*
X76058022Y-136646529D01*
X76057773Y-136638610D01*
X76052122Y-136619158D01*
X76048114Y-136599806D01*
X76046567Y-136587563D01*
X76045574Y-136579703D01*
X76040655Y-136567278D01*
X76029300Y-136538597D01*
X76025455Y-136527370D01*
X76015739Y-136493929D01*
X76013118Y-136484907D01*
X76009084Y-136478085D01*
X76009081Y-136478079D01*
X76002806Y-136467468D01*
X75994110Y-136449718D01*
X75989572Y-136438256D01*
X75989569Y-136438251D01*
X75986652Y-136430883D01*
X75966205Y-136402740D01*
X75960673Y-136395125D01*
X75954157Y-136385207D01*
X75935675Y-136353957D01*
X75931642Y-136347137D01*
X75917318Y-136332813D01*
X75904476Y-136317778D01*
X75892572Y-136301393D01*
X75858506Y-136273211D01*
X75849727Y-136265222D01*
X65320113Y-125735608D01*
X69726912Y-125735608D01*
X69728718Y-125773198D01*
X69739092Y-125989180D01*
X69788618Y-126238167D01*
X69874403Y-126477098D01*
X69994562Y-126700725D01*
X69997357Y-126704468D01*
X69997359Y-126704471D01*
X70143664Y-126900397D01*
X70143669Y-126900403D01*
X70146456Y-126904135D01*
X70149765Y-126907415D01*
X70149770Y-126907421D01*
X70300309Y-127056651D01*
X70326747Y-127082859D01*
X70330509Y-127085617D01*
X70330512Y-127085620D01*
X70510314Y-127217456D01*
X70531474Y-127232971D01*
X70535617Y-127235151D01*
X70535619Y-127235152D01*
X70751991Y-127348991D01*
X70751996Y-127348993D01*
X70756141Y-127351174D01*
X70760564Y-127352719D01*
X70760565Y-127352719D01*
X70899133Y-127401109D01*
X70995812Y-127434871D01*
X71000405Y-127435743D01*
X71240632Y-127481352D01*
X71240635Y-127481352D01*
X71245221Y-127482223D01*
X71372055Y-127487206D01*
X71494221Y-127492007D01*
X71494227Y-127492007D01*
X71498889Y-127492190D01*
X71603063Y-127480781D01*
X71746592Y-127465062D01*
X71746597Y-127465061D01*
X71751245Y-127464552D01*
X71755769Y-127463361D01*
X71992221Y-127401109D01*
X71992223Y-127401108D01*
X71996744Y-127399918D01*
X72229992Y-127299706D01*
X72445866Y-127166119D01*
X72540956Y-127085620D01*
X72621179Y-127017707D01*
X81346847Y-127017707D01*
X81356144Y-127029723D01*
X81386778Y-127051173D01*
X81396264Y-127056651D01*
X81578631Y-127141690D01*
X81588923Y-127145436D01*
X81783280Y-127197513D01*
X81794075Y-127199416D01*
X81994525Y-127216954D01*
X82005475Y-127216954D01*
X82205925Y-127199416D01*
X82216720Y-127197513D01*
X82411077Y-127145436D01*
X82421369Y-127141690D01*
X82603736Y-127056651D01*
X82613222Y-127051173D01*
X82644694Y-127029137D01*
X82653069Y-127018659D01*
X82646001Y-127005211D01*
X82012812Y-126372022D01*
X81998868Y-126364408D01*
X81997035Y-126364539D01*
X81990420Y-126368790D01*
X81353277Y-127005933D01*
X81346847Y-127017707D01*
X72621179Y-127017707D01*
X72636057Y-127005112D01*
X72636059Y-127005110D01*
X72639624Y-127002092D01*
X72807008Y-126811226D01*
X72944342Y-126597716D01*
X73048609Y-126366252D01*
X73117518Y-126121919D01*
X73132332Y-126005475D01*
X80783046Y-126005475D01*
X80800584Y-126205925D01*
X80802487Y-126216720D01*
X80854564Y-126411077D01*
X80858310Y-126421369D01*
X80943348Y-126603732D01*
X80948828Y-126613223D01*
X80970864Y-126644695D01*
X80981341Y-126653070D01*
X80994788Y-126646002D01*
X81627978Y-126012812D01*
X81635592Y-125998868D01*
X81635461Y-125997035D01*
X81631210Y-125990420D01*
X80994067Y-125353277D01*
X80982293Y-125346847D01*
X80970277Y-125356144D01*
X80948828Y-125386777D01*
X80943348Y-125396268D01*
X80858310Y-125578631D01*
X80854564Y-125588923D01*
X80802487Y-125783280D01*
X80800584Y-125794075D01*
X80783046Y-125994525D01*
X80783046Y-126005475D01*
X73132332Y-126005475D01*
X73149556Y-125870084D01*
X73151903Y-125780444D01*
X73148225Y-125730954D01*
X73133435Y-125531930D01*
X73133434Y-125531926D01*
X73133089Y-125527278D01*
X73077062Y-125279673D01*
X73052739Y-125217126D01*
X72986747Y-125047427D01*
X72986746Y-125047424D01*
X72985052Y-125043069D01*
X72959781Y-124998853D01*
X72949772Y-124981341D01*
X81346930Y-124981341D01*
X81353998Y-124994788D01*
X81987188Y-125627978D01*
X82001132Y-125635592D01*
X82002965Y-125635461D01*
X82009580Y-125631210D01*
X82646723Y-124994067D01*
X82653153Y-124982293D01*
X82643856Y-124970277D01*
X82613222Y-124948827D01*
X82603736Y-124943349D01*
X82421369Y-124858310D01*
X82411077Y-124854564D01*
X82216720Y-124802487D01*
X82205925Y-124800584D01*
X82005475Y-124783046D01*
X81994525Y-124783046D01*
X81794075Y-124800584D01*
X81783280Y-124802487D01*
X81588923Y-124854564D01*
X81578631Y-124858310D01*
X81396268Y-124943348D01*
X81386777Y-124948828D01*
X81355305Y-124970864D01*
X81346930Y-124981341D01*
X72949772Y-124981341D01*
X72873745Y-124848324D01*
X72859080Y-124822665D01*
X72701915Y-124623301D01*
X72517007Y-124449357D01*
X72308420Y-124304655D01*
X72304229Y-124302588D01*
X72084924Y-124194439D01*
X72084921Y-124194438D01*
X72080736Y-124192374D01*
X72036092Y-124178083D01*
X71843402Y-124116402D01*
X71843404Y-124116402D01*
X71838957Y-124114979D01*
X71774330Y-124104454D01*
X71593005Y-124074924D01*
X71593004Y-124074924D01*
X71588393Y-124074173D01*
X71461472Y-124072512D01*
X71339228Y-124070911D01*
X71339225Y-124070911D01*
X71334551Y-124070850D01*
X71083005Y-124105084D01*
X71078519Y-124106392D01*
X71078517Y-124106392D01*
X71044174Y-124116402D01*
X70839283Y-124176122D01*
X70608737Y-124282405D01*
X70604828Y-124284968D01*
X70400347Y-124419031D01*
X70400342Y-124419035D01*
X70396434Y-124421597D01*
X70207037Y-124590641D01*
X70044706Y-124785822D01*
X69913008Y-125002854D01*
X69911199Y-125007168D01*
X69911198Y-125007170D01*
X69821265Y-125221637D01*
X69814836Y-125236968D01*
X69752346Y-125483021D01*
X69751878Y-125487672D01*
X69751877Y-125487676D01*
X69745616Y-125549858D01*
X69726912Y-125735608D01*
X65320113Y-125735608D01*
X63522044Y-123937539D01*
X63488018Y-123875227D01*
X63493083Y-123804412D01*
X63535630Y-123747576D01*
X63602150Y-123722765D01*
X63611139Y-123722444D01*
X72385905Y-123722444D01*
X72406810Y-123724190D01*
X72421780Y-123726709D01*
X72421785Y-123726709D01*
X72426573Y-123727515D01*
X72432903Y-123727592D01*
X72434254Y-123727609D01*
X72434258Y-123727609D01*
X72439112Y-123727668D01*
X72453846Y-123725558D01*
X72462693Y-123724609D01*
X72610889Y-123714011D01*
X72649785Y-123711229D01*
X72649786Y-123711229D01*
X72654272Y-123710908D01*
X72802596Y-123678642D01*
X72860662Y-123666011D01*
X72860665Y-123666010D01*
X72865051Y-123665056D01*
X72869253Y-123663489D01*
X72869259Y-123663487D01*
X73062947Y-123591244D01*
X73067159Y-123589673D01*
X73256482Y-123486295D01*
X73429166Y-123357026D01*
X73581695Y-123204497D01*
X73710964Y-123031813D01*
X73814342Y-122842490D01*
X73853574Y-122737307D01*
X73888156Y-122644590D01*
X73888158Y-122644584D01*
X73889725Y-122640382D01*
X73892997Y-122625344D01*
X73930894Y-122451130D01*
X73935577Y-122429603D01*
X73938254Y-122392170D01*
X73948076Y-122254847D01*
X73949500Y-122242936D01*
X73952184Y-122226982D01*
X73952337Y-122214443D01*
X73948386Y-122186855D01*
X73947113Y-122168992D01*
X73947113Y-110267652D01*
X73948859Y-110246747D01*
X73951378Y-110231777D01*
X73951378Y-110231772D01*
X73952184Y-110226984D01*
X73952337Y-110214445D01*
X73950227Y-110199711D01*
X73949277Y-110190853D01*
X73935898Y-110003772D01*
X73935898Y-110003771D01*
X73935577Y-109999285D01*
X73889725Y-109788506D01*
X73888158Y-109784304D01*
X73888156Y-109784298D01*
X73815913Y-109590610D01*
X73814342Y-109586398D01*
X73710964Y-109397075D01*
X73581695Y-109224391D01*
X73429166Y-109071862D01*
X73256482Y-108942593D01*
X73222668Y-108924129D01*
X73071106Y-108841370D01*
X73071104Y-108841369D01*
X73067159Y-108839215D01*
X73060148Y-108836600D01*
X72869259Y-108765401D01*
X72869253Y-108765399D01*
X72865051Y-108763832D01*
X72860665Y-108762878D01*
X72860662Y-108762877D01*
X72736492Y-108735866D01*
X72654272Y-108717980D01*
X72649784Y-108717659D01*
X72479516Y-108705481D01*
X72467605Y-108704057D01*
X72451651Y-108701373D01*
X72445296Y-108701295D01*
X72443971Y-108701279D01*
X72443967Y-108701279D01*
X72439112Y-108701220D01*
X72414827Y-108704698D01*
X72411524Y-108705171D01*
X72393661Y-108706444D01*
X58492321Y-108706444D01*
X58471416Y-108704698D01*
X58456446Y-108702179D01*
X58456441Y-108702179D01*
X58451653Y-108701373D01*
X58445323Y-108701296D01*
X58443972Y-108701279D01*
X58443968Y-108701279D01*
X58439114Y-108701220D01*
X58424380Y-108703330D01*
X58415533Y-108704279D01*
X58267337Y-108714877D01*
X58228441Y-108717659D01*
X58228440Y-108717659D01*
X58223954Y-108717980D01*
X58075630Y-108750246D01*
X58017564Y-108762877D01*
X58017561Y-108762878D01*
X58013175Y-108763832D01*
X58008973Y-108765399D01*
X58008967Y-108765401D01*
X57818078Y-108836600D01*
X57811067Y-108839215D01*
X57807122Y-108841369D01*
X57807120Y-108841370D01*
X57655558Y-108924129D01*
X57621744Y-108942593D01*
X57449060Y-109071862D01*
X57296531Y-109224391D01*
X57167262Y-109397075D01*
X57063884Y-109586398D01*
X57062313Y-109590610D01*
X56990070Y-109784298D01*
X56990068Y-109784304D01*
X56988501Y-109788506D01*
X56942649Y-109999285D01*
X56942328Y-110003772D01*
X56942328Y-110003773D01*
X56930150Y-110174041D01*
X56928726Y-110185950D01*
X56926042Y-110201906D01*
X56925889Y-110214445D01*
X56926579Y-110219260D01*
X56929840Y-110242033D01*
X56931113Y-110259896D01*
X56931113Y-113296319D01*
X56911111Y-113364440D01*
X56857455Y-113410933D01*
X56787181Y-113421037D01*
X56722601Y-113391543D01*
X56716018Y-113385414D01*
X55996771Y-112666166D01*
X55075352Y-111744747D01*
X55067812Y-111736461D01*
X55063700Y-111729982D01*
X55014048Y-111683356D01*
X55011207Y-111680602D01*
X54991470Y-111660865D01*
X54988273Y-111658385D01*
X54979251Y-111650680D01*
X54975097Y-111646779D01*
X54947021Y-111620414D01*
X54940075Y-111616595D01*
X54940072Y-111616593D01*
X54929266Y-111610652D01*
X54912747Y-111599801D01*
X54912283Y-111599441D01*
X54896741Y-111587386D01*
X54889472Y-111584241D01*
X54889468Y-111584238D01*
X54856163Y-111569826D01*
X54845513Y-111564609D01*
X54806760Y-111543305D01*
X54787137Y-111538267D01*
X54768434Y-111531863D01*
X54757120Y-111526967D01*
X54757119Y-111526967D01*
X54749845Y-111523819D01*
X54742022Y-111522580D01*
X54742012Y-111522577D01*
X54706176Y-111516901D01*
X54694556Y-111514495D01*
X54659411Y-111505472D01*
X54659410Y-111505472D01*
X54651730Y-111503500D01*
X54631476Y-111503500D01*
X54611765Y-111501949D01*
X54599586Y-111500020D01*
X54591757Y-111498780D01*
X54562486Y-111501547D01*
X54547739Y-111502941D01*
X54535881Y-111503500D01*
X53480768Y-111503500D01*
X53469585Y-111502973D01*
X53462092Y-111501298D01*
X53454166Y-111501547D01*
X53454165Y-111501547D01*
X53394002Y-111503438D01*
X53390044Y-111503500D01*
X53362144Y-111503500D01*
X53358154Y-111504004D01*
X53346320Y-111504936D01*
X53302111Y-111506326D01*
X53294495Y-111508539D01*
X53294493Y-111508539D01*
X53282652Y-111511979D01*
X53263293Y-111515988D01*
X53261983Y-111516154D01*
X53243203Y-111518526D01*
X53235837Y-111521442D01*
X53235831Y-111521444D01*
X53202098Y-111534800D01*
X53190868Y-111538645D01*
X53156912Y-111548510D01*
X53148407Y-111550981D01*
X53141584Y-111555016D01*
X53130966Y-111561295D01*
X53113213Y-111569992D01*
X53105568Y-111573019D01*
X53094383Y-111577448D01*
X53080705Y-111587386D01*
X53058612Y-111603437D01*
X53048695Y-111609951D01*
X53010638Y-111632458D01*
X52996317Y-111646779D01*
X52981284Y-111659619D01*
X52964893Y-111671528D01*
X52938516Y-111703413D01*
X52936712Y-111705593D01*
X52928722Y-111714374D01*
X52283842Y-112359253D01*
X52275563Y-112366787D01*
X52269082Y-112370900D01*
X52222457Y-112420551D01*
X52219702Y-112423393D01*
X52199965Y-112443130D01*
X52197485Y-112446327D01*
X52189782Y-112455347D01*
X52159514Y-112487579D01*
X52155695Y-112494525D01*
X52155693Y-112494528D01*
X52149752Y-112505334D01*
X52138901Y-112521853D01*
X52126486Y-112537859D01*
X52123341Y-112545128D01*
X52123338Y-112545132D01*
X52108926Y-112578437D01*
X52103709Y-112589087D01*
X52082405Y-112627840D01*
X52080434Y-112635515D01*
X52080434Y-112635516D01*
X52077367Y-112647462D01*
X52070963Y-112666166D01*
X52062919Y-112684755D01*
X52061680Y-112692578D01*
X52061677Y-112692588D01*
X52056001Y-112728424D01*
X52053595Y-112740044D01*
X52042600Y-112782870D01*
X52042600Y-112803124D01*
X52041049Y-112822834D01*
X52037880Y-112842843D01*
X52038626Y-112850735D01*
X52042041Y-112886861D01*
X52042600Y-112898719D01*
X52042600Y-114607333D01*
X52042073Y-114618516D01*
X52040398Y-114626009D01*
X52040647Y-114633935D01*
X52040647Y-114633936D01*
X52042538Y-114694086D01*
X52042600Y-114698045D01*
X52042600Y-114725956D01*
X52043097Y-114729890D01*
X52043097Y-114729891D01*
X52043105Y-114729956D01*
X52044038Y-114741793D01*
X52045427Y-114785989D01*
X52051078Y-114805439D01*
X52055087Y-114824800D01*
X52057626Y-114844897D01*
X52060545Y-114852268D01*
X52060545Y-114852270D01*
X52073904Y-114886012D01*
X52077749Y-114897242D01*
X52090082Y-114939693D01*
X52094115Y-114946512D01*
X52094117Y-114946517D01*
X52100393Y-114957128D01*
X52109088Y-114974876D01*
X52116548Y-114993717D01*
X52121210Y-115000133D01*
X52121210Y-115000134D01*
X52142536Y-115029487D01*
X52149052Y-115039407D01*
X52171558Y-115077462D01*
X52185879Y-115091783D01*
X52198719Y-115106816D01*
X52210628Y-115123207D01*
X52216734Y-115128258D01*
X52244705Y-115151398D01*
X52253484Y-115159388D01*
X52954251Y-115860155D01*
X52988277Y-115922467D01*
X52990371Y-115963294D01*
X52986719Y-115995851D01*
X52987235Y-116001995D01*
X53002489Y-116183653D01*
X53003268Y-116192934D01*
X53007282Y-116206932D01*
X53054313Y-116370947D01*
X53057783Y-116383050D01*
X53148187Y-116558956D01*
X53152016Y-116563787D01*
X53153839Y-116566088D01*
X53154414Y-116567509D01*
X53155353Y-116568966D01*
X53155076Y-116569144D01*
X53180474Y-116631898D01*
X53167301Y-116701662D01*
X53163846Y-116707474D01*
X53068567Y-116880787D01*
X53008765Y-117069306D01*
X52986719Y-117265851D01*
X52987235Y-117271995D01*
X52995173Y-117366525D01*
X53003268Y-117462934D01*
X53057783Y-117653050D01*
X53064150Y-117665438D01*
X53077496Y-117735165D01*
X53057300Y-117787266D01*
X53059079Y-117788240D01*
X53054771Y-117796108D01*
X53049385Y-117803295D01*
X52998255Y-117939684D01*
X52991500Y-118001866D01*
X52991500Y-119098134D01*
X52998255Y-119160316D01*
X53049385Y-119296705D01*
X53136739Y-119413261D01*
X53253295Y-119500615D01*
X53261704Y-119503768D01*
X53261707Y-119503769D01*
X53284731Y-119512401D01*
X53341495Y-119555043D01*
X53366194Y-119621605D01*
X53366500Y-119630382D01*
X53366500Y-122221433D01*
X53365973Y-122232616D01*
X53364298Y-122240109D01*
X53364547Y-122248035D01*
X53364547Y-122248036D01*
X53366438Y-122308186D01*
X53366500Y-122312145D01*
X53366500Y-122340056D01*
X53366997Y-122343990D01*
X53366997Y-122343991D01*
X53367005Y-122344056D01*
X53367938Y-122355893D01*
X53369327Y-122400089D01*
X53374978Y-122419539D01*
X53378987Y-122438900D01*
X53381526Y-122458997D01*
X53384445Y-122466368D01*
X53384445Y-122466370D01*
X53397804Y-122500112D01*
X53401649Y-122511342D01*
X53413982Y-122553793D01*
X53418015Y-122560612D01*
X53418017Y-122560617D01*
X53424293Y-122571228D01*
X53432988Y-122588976D01*
X53440448Y-122607817D01*
X53445110Y-122614233D01*
X53445110Y-122614234D01*
X53466436Y-122643587D01*
X53472952Y-122653507D01*
X53495458Y-122691562D01*
X53509779Y-122705883D01*
X53522619Y-122720916D01*
X53534528Y-122737307D01*
X53568605Y-122765498D01*
X53577384Y-122773488D01*
X59492678Y-128688782D01*
X59526704Y-128751094D01*
X59528892Y-128764703D01*
X59546258Y-128929928D01*
X59605273Y-129111556D01*
X59700760Y-129276944D01*
X59705178Y-129281851D01*
X59705179Y-129281852D01*
X59824125Y-129413955D01*
X59828547Y-129418866D01*
X59983048Y-129531118D01*
X59989076Y-129533802D01*
X59989078Y-129533803D01*
X60121876Y-129592928D01*
X60157512Y-129608794D01*
X60250912Y-129628647D01*
X60337856Y-129647128D01*
X60337861Y-129647128D01*
X60344313Y-129648500D01*
X60535287Y-129648500D01*
X60541739Y-129647128D01*
X60541744Y-129647128D01*
X60661060Y-129621766D01*
X60731851Y-129627168D01*
X60788483Y-129669985D01*
X60796376Y-129682013D01*
X60869660Y-129808944D01*
X60997447Y-129950866D01*
X61151948Y-130063118D01*
X61157976Y-130065802D01*
X61157978Y-130065803D01*
X61320381Y-130138109D01*
X61326412Y-130140794D01*
X61419812Y-130160647D01*
X61506756Y-130179128D01*
X61506761Y-130179128D01*
X61513213Y-130180500D01*
X61704187Y-130180500D01*
X61710639Y-130179128D01*
X61710644Y-130179128D01*
X61797588Y-130160647D01*
X61890988Y-130140794D01*
X61897019Y-130138109D01*
X62059422Y-130065803D01*
X62059424Y-130065802D01*
X62065452Y-130063118D01*
X62219953Y-129950866D01*
X62347740Y-129808944D01*
X62443227Y-129643556D01*
X62502242Y-129461928D01*
X62509656Y-129391389D01*
X62536669Y-129325732D01*
X62594891Y-129285103D01*
X62665836Y-129282400D01*
X62724061Y-129315465D01*
X67014935Y-133606339D01*
X67048961Y-133668651D01*
X67043896Y-133739466D01*
X67001349Y-133796302D01*
X66934829Y-133821113D01*
X66925840Y-133821434D01*
X61110070Y-133821434D01*
X61089166Y-133819688D01*
X61084066Y-133818830D01*
X61069402Y-133816363D01*
X61063044Y-133816285D01*
X61061721Y-133816269D01*
X61061717Y-133816269D01*
X61056863Y-133816210D01*
X61052047Y-133816900D01*
X61052044Y-133816900D01*
X61038565Y-133818830D01*
X61027768Y-133819905D01*
X60897815Y-133827203D01*
X60831684Y-133830917D01*
X60609337Y-133868695D01*
X60392618Y-133931131D01*
X60389350Y-133932485D01*
X60389349Y-133932485D01*
X60187520Y-134016085D01*
X60187515Y-134016088D01*
X60184252Y-134017439D01*
X59986860Y-134126534D01*
X59802924Y-134257043D01*
X59800290Y-134259397D01*
X59666723Y-134378760D01*
X59655846Y-134387448D01*
X59642274Y-134397111D01*
X59633299Y-134405870D01*
X59630380Y-134409765D01*
X59630379Y-134409766D01*
X59616580Y-134428178D01*
X59604849Y-134441708D01*
X56333108Y-137713448D01*
X56270796Y-137747474D01*
X56199980Y-137742409D01*
X56143145Y-137699862D01*
X56118334Y-137633342D01*
X56118370Y-137618373D01*
X56118261Y-137618370D01*
X56119875Y-137556732D01*
X56120608Y-137528730D01*
X56101794Y-137275564D01*
X56045767Y-137027959D01*
X56027484Y-136980944D01*
X55955452Y-136795713D01*
X55955451Y-136795710D01*
X55953757Y-136791355D01*
X55928486Y-136747139D01*
X55875260Y-136654015D01*
X55827785Y-136570951D01*
X55670620Y-136371587D01*
X55535949Y-136244901D01*
X55489113Y-136200842D01*
X55489110Y-136200840D01*
X55485712Y-136197643D01*
X55277125Y-136052941D01*
X55272642Y-136050730D01*
X55053629Y-135942725D01*
X55053626Y-135942724D01*
X55049441Y-135940660D01*
X55004797Y-135926369D01*
X54812107Y-135864688D01*
X54812109Y-135864688D01*
X54807662Y-135863265D01*
X54743035Y-135852740D01*
X54561710Y-135823210D01*
X54561709Y-135823210D01*
X54557098Y-135822459D01*
X54430177Y-135820797D01*
X54307933Y-135819197D01*
X54307930Y-135819197D01*
X54303256Y-135819136D01*
X54051710Y-135853370D01*
X54047224Y-135854678D01*
X54047222Y-135854678D01*
X54012879Y-135864688D01*
X53807988Y-135924408D01*
X53577442Y-136030691D01*
X53546658Y-136050874D01*
X53369052Y-136167317D01*
X53369047Y-136167321D01*
X53365139Y-136169883D01*
X53175742Y-136338927D01*
X53013411Y-136534108D01*
X52881713Y-136751140D01*
X52879904Y-136755454D01*
X52879903Y-136755456D01*
X52786435Y-136978353D01*
X52783541Y-136985254D01*
X52721051Y-137231307D01*
X52720583Y-137235958D01*
X52720582Y-137235962D01*
X52716126Y-137280216D01*
X52695617Y-137483894D01*
X52695841Y-137488559D01*
X52695841Y-137488565D01*
X52697127Y-137515315D01*
X52697423Y-137521484D01*
X52707797Y-137737466D01*
X52757323Y-137986453D01*
X52758901Y-137990848D01*
X52819632Y-138159997D01*
X52823826Y-138230870D01*
X52789037Y-138292759D01*
X52726311Y-138326015D01*
X52655563Y-138320080D01*
X52644695Y-138315273D01*
X48757913Y-136371884D01*
X48741245Y-136361872D01*
X48729037Y-136353191D01*
X48729032Y-136353188D01*
X48721720Y-136347989D01*
X48713243Y-136345051D01*
X48713237Y-136345048D01*
X48707304Y-136342992D01*
X48684256Y-136332292D01*
X48584715Y-136273212D01*
X48537013Y-136244900D01*
X48522132Y-136234551D01*
X48473168Y-136194984D01*
X48369312Y-136111061D01*
X48356070Y-136098684D01*
X48222547Y-135954538D01*
X48211216Y-135940388D01*
X48210424Y-135939237D01*
X48099757Y-135778569D01*
X48090576Y-135762940D01*
X48003497Y-135586812D01*
X47996654Y-135570031D01*
X47945779Y-135413988D01*
X47942296Y-135396979D01*
X47940269Y-135388361D01*
X47939474Y-135379420D01*
X47929048Y-135352791D01*
X47923769Y-135335899D01*
X47567399Y-133831509D01*
X47521421Y-133637418D01*
X47520836Y-133634827D01*
X47146418Y-131890603D01*
X47145887Y-131887992D01*
X46808443Y-130136306D01*
X46807967Y-130133685D01*
X46507636Y-128375255D01*
X46507215Y-128372624D01*
X46371637Y-127463361D01*
X46244121Y-126608171D01*
X46243761Y-126605567D01*
X46241281Y-126586118D01*
X46050827Y-125093030D01*
X46018039Y-124835986D01*
X46017730Y-124833340D01*
X45829479Y-123059434D01*
X45829225Y-123056782D01*
X45678516Y-121279204D01*
X45678319Y-121276547D01*
X45565709Y-119503769D01*
X45565227Y-119496178D01*
X45565087Y-119493523D01*
X45557063Y-119303891D01*
X45489668Y-117711234D01*
X45489584Y-117708604D01*
X45484389Y-117462934D01*
X45451865Y-115925057D01*
X45451837Y-115922393D01*
X45451837Y-115092860D01*
X45741500Y-115092860D01*
X45742872Y-115099313D01*
X45742872Y-115099317D01*
X45754746Y-115155177D01*
X45780113Y-115274521D01*
X45782797Y-115280550D01*
X45782798Y-115280552D01*
X45811317Y-115344605D01*
X45855652Y-115444183D01*
X45859532Y-115449524D01*
X45859533Y-115449525D01*
X45893781Y-115496663D01*
X45964815Y-115594434D01*
X45969725Y-115598855D01*
X45969726Y-115598856D01*
X45978577Y-115606825D01*
X46102831Y-115718704D01*
X46263669Y-115811564D01*
X46440298Y-115868954D01*
X46446861Y-115869644D01*
X46446862Y-115869644D01*
X46471058Y-115872187D01*
X46578694Y-115883500D01*
X46591105Y-115883500D01*
X46659226Y-115903502D01*
X46705719Y-115957158D01*
X46715823Y-116027432D01*
X46686329Y-116092012D01*
X46680200Y-116098595D01*
X46673865Y-116104930D01*
X46671385Y-116108127D01*
X46663682Y-116117147D01*
X46633414Y-116149379D01*
X46629595Y-116156325D01*
X46629593Y-116156328D01*
X46623652Y-116167134D01*
X46612801Y-116183653D01*
X46600386Y-116199659D01*
X46597241Y-116206928D01*
X46597238Y-116206932D01*
X46582826Y-116240237D01*
X46577609Y-116250887D01*
X46556305Y-116289640D01*
X46554334Y-116297317D01*
X46553784Y-116298706D01*
X46510111Y-116354680D01*
X46480862Y-116370306D01*
X46432237Y-116388535D01*
X46403295Y-116399385D01*
X46286739Y-116486739D01*
X46199385Y-116603295D01*
X46148255Y-116739684D01*
X46141500Y-116801866D01*
X46141500Y-118448134D01*
X46148255Y-118510316D01*
X46199385Y-118646705D01*
X46286739Y-118763261D01*
X46403295Y-118850615D01*
X46539684Y-118901745D01*
X46601866Y-118908500D01*
X47698134Y-118908500D01*
X47760316Y-118901745D01*
X47896705Y-118850615D01*
X47924852Y-118829520D01*
X47991358Y-118804672D01*
X48060741Y-118819725D01*
X48075982Y-118829520D01*
X48096351Y-118844786D01*
X48111946Y-118853324D01*
X48232394Y-118898478D01*
X48247649Y-118902105D01*
X48298514Y-118907631D01*
X48305328Y-118908000D01*
X48577885Y-118908000D01*
X48593124Y-118903525D01*
X48594329Y-118902135D01*
X48596000Y-118894452D01*
X48596000Y-118889884D01*
X49104000Y-118889884D01*
X49108475Y-118905123D01*
X49109865Y-118906328D01*
X49117548Y-118907999D01*
X49394669Y-118907999D01*
X49401490Y-118907629D01*
X49452352Y-118902105D01*
X49467604Y-118898479D01*
X49588054Y-118853324D01*
X49603649Y-118844786D01*
X49705724Y-118768285D01*
X49718285Y-118755724D01*
X49794786Y-118653649D01*
X49803324Y-118638054D01*
X49848478Y-118517606D01*
X49852105Y-118502351D01*
X49857631Y-118451486D01*
X49858000Y-118444672D01*
X49858000Y-117897115D01*
X49853525Y-117881876D01*
X49852135Y-117880671D01*
X49844452Y-117879000D01*
X49122115Y-117879000D01*
X49106876Y-117883475D01*
X49105671Y-117884865D01*
X49104000Y-117892548D01*
X49104000Y-118889884D01*
X48596000Y-118889884D01*
X48596000Y-117352885D01*
X49104000Y-117352885D01*
X49108475Y-117368124D01*
X49109865Y-117369329D01*
X49117548Y-117371000D01*
X49839884Y-117371000D01*
X49855123Y-117366525D01*
X49856328Y-117365135D01*
X49857999Y-117357452D01*
X49857999Y-116805331D01*
X49857629Y-116798510D01*
X49852105Y-116747648D01*
X49848479Y-116732396D01*
X49803324Y-116611946D01*
X49794786Y-116596351D01*
X49718285Y-116494276D01*
X49705724Y-116481715D01*
X49603649Y-116405214D01*
X49588054Y-116396676D01*
X49467606Y-116351522D01*
X49452351Y-116347895D01*
X49401486Y-116342369D01*
X49394672Y-116342000D01*
X49122115Y-116342000D01*
X49106876Y-116346475D01*
X49105671Y-116347865D01*
X49104000Y-116355548D01*
X49104000Y-117352885D01*
X48596000Y-117352885D01*
X48596000Y-116360116D01*
X48591525Y-116344877D01*
X48590135Y-116343672D01*
X48582452Y-116342001D01*
X48305331Y-116342001D01*
X48298510Y-116342371D01*
X48247648Y-116347895D01*
X48232397Y-116351521D01*
X48172330Y-116374039D01*
X48101523Y-116379222D01*
X48039154Y-116345301D01*
X48005024Y-116283046D01*
X48002100Y-116256057D01*
X48002100Y-115092860D01*
X48491500Y-115092860D01*
X48492872Y-115099313D01*
X48492872Y-115099317D01*
X48504746Y-115155177D01*
X48530113Y-115274521D01*
X48532797Y-115280550D01*
X48532798Y-115280552D01*
X48561317Y-115344605D01*
X48605652Y-115444183D01*
X48609532Y-115449524D01*
X48609533Y-115449525D01*
X48643781Y-115496663D01*
X48714815Y-115594434D01*
X48719725Y-115598855D01*
X48719726Y-115598856D01*
X48728577Y-115606825D01*
X48852831Y-115718704D01*
X49013669Y-115811564D01*
X49190298Y-115868954D01*
X49196861Y-115869644D01*
X49196862Y-115869644D01*
X49221058Y-115872187D01*
X49328694Y-115883500D01*
X49421306Y-115883500D01*
X49528942Y-115872187D01*
X49553138Y-115869644D01*
X49553139Y-115869644D01*
X49559702Y-115868954D01*
X49736331Y-115811564D01*
X49897169Y-115718704D01*
X50021424Y-115606825D01*
X50030274Y-115598856D01*
X50030275Y-115598855D01*
X50035185Y-115594434D01*
X50109200Y-115492562D01*
X50140467Y-115449526D01*
X50140468Y-115449525D01*
X50144348Y-115444184D01*
X50174983Y-115375378D01*
X50217202Y-115280552D01*
X50217202Y-115280551D01*
X50219887Y-115274521D01*
X50245254Y-115155177D01*
X50257128Y-115099317D01*
X50257128Y-115099313D01*
X50258500Y-115092860D01*
X50258500Y-114907140D01*
X50256397Y-114897242D01*
X50226630Y-114757203D01*
X50219887Y-114725479D01*
X50217202Y-114719448D01*
X50147033Y-114561847D01*
X50147032Y-114561845D01*
X50144348Y-114555817D01*
X50103852Y-114500079D01*
X50039068Y-114410910D01*
X50039066Y-114410908D01*
X50035185Y-114405566D01*
X50030274Y-114401144D01*
X49902077Y-114285715D01*
X49902076Y-114285714D01*
X49897169Y-114281296D01*
X49736331Y-114188436D01*
X49663134Y-114164653D01*
X49565981Y-114133086D01*
X49565980Y-114133086D01*
X49559702Y-114131046D01*
X49553139Y-114130356D01*
X49553138Y-114130356D01*
X49515146Y-114126363D01*
X49421306Y-114116500D01*
X49328694Y-114116500D01*
X49234854Y-114126363D01*
X49196862Y-114130356D01*
X49196861Y-114130356D01*
X49190298Y-114131046D01*
X49184020Y-114133086D01*
X49184019Y-114133086D01*
X49086866Y-114164653D01*
X49013669Y-114188436D01*
X48852831Y-114281296D01*
X48847924Y-114285714D01*
X48847923Y-114285715D01*
X48719726Y-114401144D01*
X48714815Y-114405566D01*
X48710934Y-114410908D01*
X48710932Y-114410910D01*
X48652383Y-114491496D01*
X48605652Y-114555816D01*
X48602968Y-114561844D01*
X48602967Y-114561846D01*
X48532798Y-114719448D01*
X48530113Y-114725479D01*
X48523370Y-114757203D01*
X48493604Y-114897242D01*
X48491500Y-114907140D01*
X48491500Y-115092860D01*
X48002100Y-115092860D01*
X48002100Y-114825324D01*
X48022102Y-114757203D01*
X48034458Y-114741021D01*
X48107640Y-114659744D01*
X48203127Y-114494356D01*
X48262142Y-114312728D01*
X48265273Y-114282943D01*
X48281414Y-114129365D01*
X48282104Y-114122800D01*
X48262142Y-113932872D01*
X48226421Y-113822935D01*
X48224393Y-113751969D01*
X48261055Y-113691171D01*
X48324768Y-113659846D01*
X48346254Y-113658000D01*
X48577885Y-113658000D01*
X48593124Y-113653525D01*
X48594329Y-113652135D01*
X48596000Y-113644452D01*
X48596000Y-113639884D01*
X49104000Y-113639884D01*
X49108475Y-113655123D01*
X49109865Y-113656328D01*
X49117548Y-113657999D01*
X49394669Y-113657999D01*
X49401490Y-113657629D01*
X49452352Y-113652105D01*
X49467604Y-113648479D01*
X49588054Y-113603324D01*
X49603649Y-113594786D01*
X49705724Y-113518285D01*
X49718285Y-113505724D01*
X49794786Y-113403649D01*
X49803324Y-113388054D01*
X49848478Y-113267606D01*
X49852105Y-113252351D01*
X49857631Y-113201486D01*
X49858000Y-113194672D01*
X49858000Y-112647115D01*
X49853525Y-112631876D01*
X49852135Y-112630671D01*
X49844452Y-112629000D01*
X49122115Y-112629000D01*
X49106876Y-112633475D01*
X49105671Y-112634865D01*
X49104000Y-112642548D01*
X49104000Y-113639884D01*
X48596000Y-113639884D01*
X48596000Y-112102885D01*
X49104000Y-112102885D01*
X49108475Y-112118124D01*
X49109865Y-112119329D01*
X49117548Y-112121000D01*
X49839884Y-112121000D01*
X49855123Y-112116525D01*
X49856328Y-112115135D01*
X49857999Y-112107452D01*
X49857999Y-111555331D01*
X49857629Y-111548510D01*
X49852105Y-111497648D01*
X49848479Y-111482396D01*
X49803324Y-111361946D01*
X49794786Y-111346351D01*
X49718285Y-111244276D01*
X49705724Y-111231715D01*
X49603649Y-111155214D01*
X49588054Y-111146676D01*
X49467606Y-111101522D01*
X49452351Y-111097895D01*
X49401486Y-111092369D01*
X49394672Y-111092000D01*
X49122115Y-111092000D01*
X49106876Y-111096475D01*
X49105671Y-111097865D01*
X49104000Y-111105548D01*
X49104000Y-112102885D01*
X48596000Y-112102885D01*
X48596000Y-111110116D01*
X48591525Y-111094877D01*
X48590135Y-111093672D01*
X48582452Y-111092001D01*
X48305331Y-111092001D01*
X48298510Y-111092371D01*
X48247648Y-111097895D01*
X48232396Y-111101521D01*
X48111946Y-111146676D01*
X48096351Y-111155214D01*
X48075982Y-111170480D01*
X48009475Y-111195328D01*
X47940093Y-111180275D01*
X47924852Y-111170480D01*
X47923047Y-111169127D01*
X47896705Y-111149385D01*
X47760316Y-111098255D01*
X47698134Y-111091500D01*
X46601866Y-111091500D01*
X46539684Y-111098255D01*
X46403295Y-111149385D01*
X46286739Y-111236739D01*
X46199385Y-111353295D01*
X46148255Y-111489684D01*
X46141500Y-111551866D01*
X46141500Y-113198134D01*
X46148255Y-113260316D01*
X46199385Y-113396705D01*
X46286739Y-113513261D01*
X46403295Y-113600615D01*
X46411704Y-113603768D01*
X46411707Y-113603769D01*
X46450658Y-113618372D01*
X46507422Y-113661014D01*
X46532121Y-113727576D01*
X46526260Y-113775289D01*
X46475058Y-113932872D01*
X46474368Y-113939433D01*
X46474368Y-113939435D01*
X46463275Y-114044982D01*
X46436262Y-114110639D01*
X46376901Y-114151645D01*
X46263669Y-114188436D01*
X46102831Y-114281296D01*
X46097924Y-114285714D01*
X46097923Y-114285715D01*
X45969726Y-114401144D01*
X45964815Y-114405566D01*
X45960934Y-114410908D01*
X45960932Y-114410910D01*
X45902383Y-114491496D01*
X45855652Y-114555816D01*
X45852968Y-114561844D01*
X45852967Y-114561846D01*
X45782798Y-114719448D01*
X45780113Y-114725479D01*
X45773370Y-114757203D01*
X45743604Y-114897242D01*
X45741500Y-114907140D01*
X45741500Y-115092860D01*
X45451837Y-115092860D01*
X45451837Y-114138495D01*
X45451865Y-114135831D01*
X45462095Y-113652105D01*
X45489585Y-112352253D01*
X45489669Y-112349621D01*
X45499344Y-112121000D01*
X45565087Y-110567358D01*
X45565227Y-110564704D01*
X45678319Y-108784341D01*
X45678516Y-108781684D01*
X45829225Y-107004106D01*
X45829479Y-107001454D01*
X46017730Y-105227548D01*
X46018039Y-105224902D01*
X46127480Y-104366927D01*
X46144231Y-104235608D01*
X69726912Y-104235608D01*
X69728718Y-104273198D01*
X69739092Y-104489180D01*
X69788618Y-104738167D01*
X69874403Y-104977098D01*
X69994562Y-105200725D01*
X69997357Y-105204468D01*
X69997359Y-105204471D01*
X70143664Y-105400397D01*
X70143669Y-105400403D01*
X70146456Y-105404135D01*
X70149765Y-105407415D01*
X70149770Y-105407421D01*
X70248318Y-105505112D01*
X70326747Y-105582859D01*
X70330509Y-105585617D01*
X70330512Y-105585620D01*
X70436183Y-105663101D01*
X70531474Y-105732971D01*
X70535617Y-105735151D01*
X70535619Y-105735152D01*
X70751991Y-105848991D01*
X70751996Y-105848993D01*
X70756141Y-105851174D01*
X70760564Y-105852719D01*
X70760565Y-105852719D01*
X70899133Y-105901109D01*
X70995812Y-105934871D01*
X71000405Y-105935743D01*
X71240632Y-105981352D01*
X71240635Y-105981352D01*
X71245221Y-105982223D01*
X71372055Y-105987207D01*
X71494221Y-105992007D01*
X71494227Y-105992007D01*
X71498889Y-105992190D01*
X71603063Y-105980781D01*
X71746592Y-105965062D01*
X71746597Y-105965061D01*
X71751245Y-105964552D01*
X71755769Y-105963361D01*
X71992221Y-105901109D01*
X71992223Y-105901108D01*
X71996744Y-105899918D01*
X72229992Y-105799706D01*
X72445866Y-105666119D01*
X72540956Y-105585620D01*
X72636057Y-105505112D01*
X72636059Y-105505110D01*
X72639624Y-105502092D01*
X72807008Y-105311226D01*
X72944342Y-105097716D01*
X73048609Y-104866252D01*
X73117518Y-104621919D01*
X73149556Y-104370084D01*
X73151903Y-104280444D01*
X73133089Y-104027278D01*
X73077062Y-103779673D01*
X73070475Y-103762734D01*
X72986747Y-103547427D01*
X72986746Y-103547424D01*
X72985052Y-103543069D01*
X72959781Y-103498853D01*
X72896770Y-103388609D01*
X72859080Y-103322665D01*
X72701915Y-103123301D01*
X72517007Y-102949357D01*
X72308420Y-102804655D01*
X72300690Y-102800843D01*
X72084924Y-102694439D01*
X72084921Y-102694438D01*
X72080736Y-102692374D01*
X72061540Y-102686229D01*
X71843402Y-102616402D01*
X71843404Y-102616402D01*
X71838957Y-102614979D01*
X71774330Y-102604454D01*
X71593005Y-102574924D01*
X71593004Y-102574924D01*
X71588393Y-102574173D01*
X71461472Y-102572512D01*
X71339228Y-102570911D01*
X71339225Y-102570911D01*
X71334551Y-102570850D01*
X71083005Y-102605084D01*
X71078519Y-102606392D01*
X71078517Y-102606392D01*
X71044174Y-102616402D01*
X70839283Y-102676122D01*
X70608737Y-102782405D01*
X70581034Y-102800568D01*
X70400347Y-102919031D01*
X70400342Y-102919035D01*
X70396434Y-102921597D01*
X70207037Y-103090641D01*
X70044706Y-103285822D01*
X69913008Y-103502854D01*
X69911199Y-103507168D01*
X69911198Y-103507170D01*
X69826940Y-103708104D01*
X69814836Y-103736968D01*
X69752346Y-103983021D01*
X69751878Y-103987672D01*
X69751877Y-103987676D01*
X69747421Y-104031930D01*
X69726912Y-104235608D01*
X46144231Y-104235608D01*
X46243766Y-103455287D01*
X46244126Y-103452682D01*
X46253319Y-103391033D01*
X46507215Y-101688264D01*
X46507636Y-101685633D01*
X46807967Y-99927203D01*
X46808443Y-99924582D01*
X47145888Y-98172891D01*
X47146418Y-98170285D01*
X47520836Y-96426061D01*
X47521423Y-96423462D01*
X47564711Y-96240727D01*
X47668202Y-95803845D01*
X47921989Y-94732502D01*
X47928425Y-94712758D01*
X47932980Y-94701913D01*
X47932981Y-94701910D01*
X47936455Y-94693638D01*
X47938177Y-94678485D01*
X47943577Y-94653657D01*
X47996655Y-94490858D01*
X48003500Y-94474071D01*
X48020142Y-94440412D01*
X48090579Y-94297945D01*
X48099761Y-94282316D01*
X48211215Y-94120504D01*
X48222545Y-94106353D01*
X48311649Y-94010159D01*
X48356068Y-93962206D01*
X48369309Y-93949830D01*
X48403230Y-93922420D01*
X48522140Y-93826333D01*
X48537021Y-93815985D01*
X48678159Y-93732216D01*
X48693943Y-93725121D01*
X48701950Y-93721239D01*
X48710504Y-93718507D01*
X48736856Y-93700722D01*
X48750994Y-93692464D01*
X52645374Y-91745275D01*
X52715248Y-91732701D01*
X52780828Y-91759900D01*
X52821293Y-91818236D01*
X52823795Y-91889189D01*
X52817921Y-91906695D01*
X52783541Y-91988683D01*
X52721051Y-92234736D01*
X52720583Y-92239387D01*
X52720582Y-92239391D01*
X52711362Y-92330959D01*
X52695617Y-92487323D01*
X52697423Y-92524913D01*
X52707797Y-92740895D01*
X52757323Y-92989882D01*
X52843108Y-93228813D01*
X52963267Y-93452440D01*
X52966062Y-93456183D01*
X52966064Y-93456186D01*
X53112369Y-93652112D01*
X53112374Y-93652118D01*
X53115161Y-93655850D01*
X53118470Y-93659130D01*
X53118475Y-93659136D01*
X53287140Y-93826334D01*
X53295452Y-93834574D01*
X53299214Y-93837332D01*
X53299217Y-93837335D01*
X53452641Y-93949830D01*
X53500179Y-93984686D01*
X53504322Y-93986866D01*
X53504324Y-93986867D01*
X53720696Y-94100706D01*
X53720701Y-94100708D01*
X53724846Y-94102889D01*
X53729269Y-94104434D01*
X53729270Y-94104434D01*
X53867838Y-94152824D01*
X53964517Y-94186586D01*
X53969110Y-94187458D01*
X54209337Y-94233067D01*
X54209340Y-94233067D01*
X54213926Y-94233938D01*
X54340760Y-94238922D01*
X54462926Y-94243722D01*
X54462932Y-94243722D01*
X54467594Y-94243905D01*
X54571768Y-94232496D01*
X54715297Y-94216777D01*
X54715302Y-94216776D01*
X54719950Y-94216267D01*
X54724474Y-94215076D01*
X54960926Y-94152824D01*
X54960928Y-94152823D01*
X54965449Y-94151633D01*
X55198697Y-94051421D01*
X55414571Y-93917834D01*
X55509661Y-93837335D01*
X55604762Y-93756827D01*
X55604764Y-93756825D01*
X55608329Y-93753807D01*
X55775713Y-93562941D01*
X55913047Y-93349431D01*
X56017314Y-93117967D01*
X56086223Y-92873634D01*
X56109562Y-92690178D01*
X56117863Y-92624929D01*
X56117863Y-92624925D01*
X56118261Y-92621799D01*
X56120608Y-92532159D01*
X56120375Y-92529019D01*
X56120374Y-92528991D01*
X56113862Y-92441375D01*
X56128760Y-92371960D01*
X56178822Y-92321618D01*
X56248154Y-92306334D01*
X56314743Y-92330959D01*
X56328610Y-92342942D01*
X59599368Y-95613699D01*
X59612911Y-95629709D01*
X59624541Y-95646044D01*
X59633299Y-95655018D01*
X59644986Y-95663777D01*
X59648076Y-95666093D01*
X59656470Y-95672967D01*
X59802923Y-95803845D01*
X59986859Y-95934355D01*
X60184252Y-96043450D01*
X60392618Y-96129758D01*
X60609337Y-96192194D01*
X60831684Y-96229972D01*
X61014075Y-96240215D01*
X61027901Y-96241762D01*
X61037490Y-96243375D01*
X61039521Y-96243717D01*
X61039523Y-96243717D01*
X61044324Y-96244525D01*
X61050864Y-96244605D01*
X61052004Y-96244619D01*
X61052008Y-96244619D01*
X61056863Y-96244678D01*
X61084451Y-96240727D01*
X61102314Y-96239454D01*
X67246297Y-96239454D01*
X67267201Y-96241200D01*
X67286965Y-96244525D01*
X67293323Y-96244603D01*
X67294646Y-96244619D01*
X67294650Y-96244619D01*
X67299504Y-96244678D01*
X67304320Y-96243988D01*
X67304323Y-96243988D01*
X67317802Y-96242058D01*
X67328599Y-96240983D01*
X67458552Y-96233685D01*
X67524683Y-96229971D01*
X67747030Y-96192193D01*
X67935262Y-96137964D01*
X67960351Y-96130736D01*
X67960352Y-96130736D01*
X67963749Y-96129757D01*
X67967018Y-96128403D01*
X68168847Y-96044803D01*
X68168852Y-96044800D01*
X68172115Y-96043449D01*
X68369507Y-95934354D01*
X68553443Y-95803845D01*
X68689646Y-95682126D01*
X68700521Y-95673440D01*
X68714093Y-95663777D01*
X68723068Y-95655018D01*
X68739787Y-95632710D01*
X68751518Y-95619180D01*
X71701398Y-92669300D01*
X72484190Y-92669300D01*
X72485463Y-92678189D01*
X72503049Y-92800985D01*
X72504839Y-92813486D01*
X72508553Y-92821654D01*
X72508553Y-92821655D01*
X72522393Y-92852095D01*
X72565126Y-92946082D01*
X72570073Y-92952235D01*
X72570075Y-92952238D01*
X72573048Y-92955935D01*
X72604319Y-92994828D01*
X73874472Y-94264981D01*
X73877134Y-94267121D01*
X73917062Y-94299225D01*
X73917065Y-94299227D01*
X73923218Y-94304174D01*
X74055814Y-94364461D01*
X74064697Y-94365733D01*
X74064700Y-94365734D01*
X74191111Y-94383837D01*
X74200000Y-94385110D01*
X74208889Y-94383837D01*
X74335300Y-94365734D01*
X74335303Y-94365733D01*
X74344186Y-94364461D01*
X74476782Y-94304174D01*
X74482935Y-94299227D01*
X74482938Y-94299225D01*
X74522866Y-94267121D01*
X74525528Y-94264981D01*
X75795681Y-92994828D01*
X75826952Y-92955935D01*
X75829925Y-92952238D01*
X75829927Y-92952235D01*
X75834874Y-92946082D01*
X75877607Y-92852095D01*
X75891447Y-92821655D01*
X75891447Y-92821654D01*
X75895161Y-92813486D01*
X75896952Y-92800985D01*
X75914537Y-92678189D01*
X75915810Y-92669300D01*
X75908555Y-92618642D01*
X75896434Y-92534000D01*
X75896433Y-92533997D01*
X75895161Y-92525114D01*
X75880103Y-92491994D01*
X75842618Y-92409550D01*
X75832632Y-92339259D01*
X75862233Y-92274727D01*
X75922023Y-92236444D01*
X75961936Y-92231484D01*
X76022196Y-92233693D01*
X76057888Y-92235002D01*
X76062140Y-92234457D01*
X76130847Y-92251291D01*
X76179724Y-92302785D01*
X76193600Y-92360267D01*
X76193600Y-103369933D01*
X76193073Y-103381116D01*
X76191398Y-103388609D01*
X76191647Y-103396535D01*
X76191647Y-103396536D01*
X76193538Y-103456686D01*
X76193600Y-103460645D01*
X76193600Y-103488556D01*
X76194097Y-103492490D01*
X76194097Y-103492491D01*
X76194105Y-103492556D01*
X76195038Y-103504393D01*
X76196427Y-103548589D01*
X76202078Y-103568039D01*
X76206087Y-103587400D01*
X76208626Y-103607497D01*
X76211545Y-103614868D01*
X76211545Y-103614870D01*
X76224904Y-103648612D01*
X76228749Y-103659842D01*
X76241082Y-103702293D01*
X76245115Y-103709112D01*
X76245117Y-103709117D01*
X76251393Y-103719728D01*
X76260088Y-103737476D01*
X76267548Y-103756317D01*
X76272210Y-103762733D01*
X76272210Y-103762734D01*
X76293536Y-103792087D01*
X76300052Y-103802007D01*
X76312359Y-103822816D01*
X76322558Y-103840062D01*
X76336879Y-103854383D01*
X76349719Y-103869416D01*
X76361628Y-103885807D01*
X76367734Y-103890858D01*
X76395705Y-103913998D01*
X76404484Y-103921988D01*
X79238395Y-106755900D01*
X79272421Y-106818212D01*
X79275300Y-106844995D01*
X79275300Y-108159976D01*
X79255298Y-108228097D01*
X79242942Y-108244279D01*
X79169760Y-108325556D01*
X79074273Y-108490944D01*
X79015258Y-108672572D01*
X79014568Y-108679133D01*
X79014568Y-108679135D01*
X79003511Y-108784341D01*
X78995296Y-108862500D01*
X79015258Y-109052428D01*
X79074273Y-109234056D01*
X79169760Y-109399444D01*
X79297547Y-109541366D01*
X79452048Y-109653618D01*
X79458076Y-109656302D01*
X79458078Y-109656303D01*
X79612445Y-109725031D01*
X79626512Y-109731294D01*
X79719913Y-109751147D01*
X79806856Y-109769628D01*
X79806861Y-109769628D01*
X79813313Y-109771000D01*
X80004287Y-109771000D01*
X80010739Y-109769628D01*
X80010744Y-109769628D01*
X80097687Y-109751147D01*
X80191088Y-109731294D01*
X80205155Y-109725031D01*
X80359522Y-109656303D01*
X80359524Y-109656302D01*
X80365552Y-109653618D01*
X80520053Y-109541366D01*
X80647840Y-109399444D01*
X80743327Y-109234056D01*
X80802342Y-109052428D01*
X80822304Y-108862500D01*
X80814089Y-108784341D01*
X80803032Y-108679135D01*
X80803032Y-108679133D01*
X80802342Y-108672572D01*
X80743327Y-108490944D01*
X80647840Y-108325556D01*
X80574663Y-108244285D01*
X80543947Y-108180279D01*
X80542300Y-108159976D01*
X80542300Y-106609167D01*
X80542827Y-106597984D01*
X80544502Y-106590491D01*
X80542362Y-106522400D01*
X80542300Y-106518443D01*
X80542300Y-106490544D01*
X80541796Y-106486553D01*
X80540863Y-106474711D01*
X80539723Y-106438436D01*
X80539474Y-106430511D01*
X80537262Y-106422897D01*
X80537261Y-106422892D01*
X80533823Y-106411059D01*
X80529812Y-106391695D01*
X80528267Y-106379464D01*
X80527274Y-106371603D01*
X80524357Y-106364236D01*
X80524356Y-106364231D01*
X80510998Y-106330492D01*
X80507154Y-106319265D01*
X80497030Y-106284422D01*
X80494818Y-106276807D01*
X80484507Y-106259372D01*
X80475812Y-106241624D01*
X80468352Y-106222783D01*
X80442364Y-106187013D01*
X80435848Y-106177093D01*
X80417380Y-106145865D01*
X80417378Y-106145862D01*
X80413342Y-106139038D01*
X80399021Y-106124717D01*
X80386180Y-106109683D01*
X80378931Y-106099706D01*
X80374272Y-106093293D01*
X80340195Y-106065102D01*
X80331416Y-106057112D01*
X77497505Y-103223200D01*
X77463479Y-103160888D01*
X77460600Y-103134105D01*
X77460600Y-91784026D01*
X77461159Y-91772175D01*
X77461177Y-91771987D01*
X77462905Y-91764253D01*
X77462655Y-91756334D01*
X77462656Y-91756328D01*
X77462647Y-91756038D01*
X77464136Y-91732354D01*
X77465419Y-91724257D01*
X77461159Y-91679188D01*
X77460800Y-91671580D01*
X77460600Y-91668401D01*
X77460600Y-91664444D01*
X77460104Y-91660516D01*
X77459919Y-91657576D01*
X77459297Y-91649680D01*
X77458116Y-91612191D01*
X77457867Y-91604272D01*
X77455576Y-91596388D01*
X77451130Y-91573086D01*
X77451103Y-91572801D01*
X77450357Y-91564908D01*
X77447671Y-91557449D01*
X77446969Y-91554306D01*
X77446489Y-91552746D01*
X77445574Y-91545503D01*
X77429774Y-91505597D01*
X77425932Y-91494375D01*
X77415416Y-91458185D01*
X77415415Y-91458182D01*
X77413203Y-91450571D01*
X77409023Y-91443504D01*
X77398923Y-91422045D01*
X77396139Y-91414311D01*
X77391685Y-91407757D01*
X77390266Y-91404971D01*
X77389328Y-91403439D01*
X77386652Y-91396683D01*
X77361508Y-91362075D01*
X77354996Y-91352162D01*
X77331719Y-91312809D01*
X77332867Y-91312130D01*
X77309921Y-91253702D01*
X77314869Y-91205922D01*
X77326916Y-91166271D01*
X77328421Y-91161318D01*
X77357580Y-90939839D01*
X77357662Y-90936489D01*
X77359125Y-90876614D01*
X77359125Y-90876610D01*
X77359207Y-90873249D01*
X77340903Y-90650610D01*
X77315844Y-90550846D01*
X77318648Y-90479904D01*
X77359361Y-90421741D01*
X77425056Y-90394822D01*
X77463166Y-90396680D01*
X77630699Y-90430765D01*
X77635874Y-90430955D01*
X77635876Y-90430955D01*
X77848775Y-90438762D01*
X77848779Y-90438762D01*
X77853939Y-90438951D01*
X77859059Y-90438295D01*
X77859061Y-90438295D01*
X78070390Y-90411223D01*
X78070391Y-90411223D01*
X78075518Y-90410566D01*
X78085584Y-90407546D01*
X78284531Y-90347859D01*
X78284536Y-90347857D01*
X78289486Y-90346372D01*
X78490096Y-90248094D01*
X78671962Y-90118371D01*
X78830198Y-89960687D01*
X78909175Y-89850779D01*
X78957537Y-89783475D01*
X78960555Y-89779275D01*
X78988437Y-89722861D01*
X79057238Y-89583651D01*
X79057239Y-89583649D01*
X79059532Y-89579009D01*
X79124472Y-89365267D01*
X79153631Y-89143788D01*
X79155258Y-89077198D01*
X79136954Y-88854559D01*
X79128718Y-88821768D01*
X79111760Y-88754256D01*
X79114564Y-88683315D01*
X79155277Y-88625152D01*
X79220973Y-88598233D01*
X79259084Y-88600090D01*
X79421749Y-88633184D01*
X79431977Y-88634403D01*
X79644804Y-88642208D01*
X79655090Y-88641741D01*
X79866339Y-88614680D01*
X79876416Y-88612538D01*
X80080409Y-88551337D01*
X80089996Y-88547579D01*
X80281252Y-88453884D01*
X80290098Y-88448611D01*
X80337401Y-88414869D01*
X80345802Y-88404169D01*
X80338814Y-88391016D01*
X79230076Y-87282278D01*
X79952562Y-87282278D01*
X79952693Y-87284111D01*
X79956944Y-87290726D01*
X80698628Y-88032410D01*
X80710638Y-88038969D01*
X80722377Y-88030001D01*
X80753158Y-87987165D01*
X80758469Y-87978326D01*
X80852824Y-87787413D01*
X80856623Y-87777818D01*
X80918530Y-87574061D01*
X80920709Y-87563980D01*
X80948744Y-87351033D01*
X80949263Y-87344358D01*
X80950726Y-87284510D01*
X80950532Y-87277792D01*
X80932935Y-87063750D01*
X80931250Y-87053570D01*
X80879368Y-86847021D01*
X80876048Y-86837270D01*
X80791126Y-86641960D01*
X80786259Y-86632885D01*
X80721217Y-86532343D01*
X80710531Y-86523141D01*
X80700966Y-86527544D01*
X79960176Y-87268334D01*
X79952562Y-87282278D01*
X79230076Y-87282278D01*
X78478003Y-86530205D01*
X78466467Y-86523905D01*
X78454185Y-86533528D01*
X78406243Y-86603808D01*
X78401158Y-86612759D01*
X78311492Y-86805929D01*
X78307929Y-86815616D01*
X78251018Y-87020827D01*
X78249087Y-87030946D01*
X78226456Y-87242720D01*
X78226204Y-87253009D01*
X78238463Y-87465623D01*
X78239899Y-87475842D01*
X78268916Y-87604596D01*
X78264380Y-87675447D01*
X78222259Y-87732599D01*
X78155925Y-87757905D01*
X78123905Y-87756344D01*
X78059452Y-87744863D01*
X77925475Y-87720998D01*
X77925469Y-87720997D01*
X77920386Y-87720092D01*
X77846554Y-87719190D01*
X77702183Y-87717426D01*
X77702181Y-87717426D01*
X77697013Y-87717363D01*
X77476193Y-87751153D01*
X77263858Y-87820555D01*
X77065709Y-87923705D01*
X77061576Y-87926808D01*
X77061573Y-87926810D01*
X76891202Y-88054728D01*
X76887067Y-88057833D01*
X76732731Y-88219336D01*
X76606845Y-88403878D01*
X76586081Y-88448611D01*
X76515767Y-88600090D01*
X76512790Y-88606503D01*
X76453091Y-88821768D01*
X76429353Y-89043893D01*
X76429650Y-89049046D01*
X76429650Y-89049049D01*
X76435113Y-89143788D01*
X76442212Y-89266913D01*
X76443349Y-89271959D01*
X76443350Y-89271965D01*
X76472329Y-89400551D01*
X76467793Y-89471403D01*
X76425671Y-89528554D01*
X76359338Y-89553860D01*
X76327316Y-89552299D01*
X76129424Y-89517049D01*
X76129418Y-89517048D01*
X76124335Y-89516143D01*
X76050503Y-89515241D01*
X75906132Y-89513477D01*
X75906130Y-89513477D01*
X75900962Y-89513414D01*
X75680142Y-89547204D01*
X75467807Y-89616606D01*
X75269658Y-89719756D01*
X75265525Y-89722859D01*
X75265522Y-89722861D01*
X75190386Y-89779275D01*
X75091016Y-89853884D01*
X74936680Y-90015387D01*
X74810794Y-90199929D01*
X74808615Y-90204624D01*
X74719466Y-90396680D01*
X74716739Y-90402554D01*
X74657040Y-90617819D01*
X74633302Y-90839944D01*
X74633599Y-90845097D01*
X74633599Y-90845100D01*
X74637020Y-90904422D01*
X74620973Y-90973581D01*
X74570083Y-91023085D01*
X74500507Y-91037218D01*
X74459079Y-91026376D01*
X74352359Y-90977854D01*
X74352353Y-90977852D01*
X74344186Y-90974139D01*
X74335303Y-90972867D01*
X74335300Y-90972866D01*
X74208889Y-90954763D01*
X74200000Y-90953490D01*
X74191111Y-90954763D01*
X74064700Y-90972866D01*
X74064697Y-90972867D01*
X74055814Y-90974139D01*
X73923218Y-91034426D01*
X73917065Y-91039373D01*
X73917062Y-91039375D01*
X73891208Y-91060163D01*
X73874472Y-91073619D01*
X72604319Y-92343772D01*
X72602179Y-92346434D01*
X72570075Y-92386362D01*
X72570073Y-92386365D01*
X72565126Y-92392518D01*
X72561858Y-92399706D01*
X72519898Y-92491994D01*
X72504839Y-92525114D01*
X72503567Y-92533997D01*
X72503566Y-92534000D01*
X72491445Y-92618642D01*
X72484190Y-92669300D01*
X71701398Y-92669300D01*
X78213125Y-86157573D01*
X78829377Y-86157573D01*
X78836122Y-86169904D01*
X79575342Y-86909124D01*
X79589286Y-86916738D01*
X79591119Y-86916607D01*
X79597734Y-86912356D01*
X80341543Y-86168547D01*
X80348564Y-86155690D01*
X80341765Y-86146359D01*
X80337708Y-86143664D01*
X80151271Y-86040745D01*
X80141859Y-86036515D01*
X79941113Y-85965426D01*
X79931143Y-85962792D01*
X79721481Y-85925447D01*
X79711227Y-85924477D01*
X79498270Y-85921874D01*
X79487986Y-85922594D01*
X79277475Y-85954807D01*
X79267447Y-85957196D01*
X79065022Y-86023358D01*
X79055513Y-86027355D01*
X78866620Y-86125686D01*
X78857888Y-86131185D01*
X78837831Y-86146245D01*
X78829377Y-86157573D01*
X78213125Y-86157573D01*
X79161149Y-85209549D01*
X79175916Y-85196902D01*
X79188019Y-85188060D01*
X79195267Y-85182765D01*
X79204627Y-85170589D01*
X79222005Y-85152161D01*
X79350108Y-85041159D01*
X79364491Y-85030392D01*
X79528414Y-84925045D01*
X79544192Y-84916430D01*
X79721444Y-84835481D01*
X79738286Y-84829199D01*
X79925249Y-84774302D01*
X79942805Y-84770483D01*
X80135675Y-84742752D01*
X80153608Y-84741469D01*
X80348466Y-84741469D01*
X80366399Y-84742752D01*
G37*
G04 #@! TD.AperFunction*
M02*
