G04 #@! TF.GenerationSoftware,KiCad,Pcbnew,(6.0.1)*
G04 #@! TF.CreationDate,2022-02-25T16:08:36+09:00*
G04 #@! TF.ProjectId,line_senser20220225,6c696e65-5f73-4656-9e73-657232303232,rev?*
G04 #@! TF.SameCoordinates,PX17d7840PYb06e040*
G04 #@! TF.FileFunction,Soldermask,Top*
G04 #@! TF.FilePolarity,Negative*
%FSLAX46Y46*%
G04 Gerber Fmt 4.6, Leading zero omitted, Abs format (unit mm)*
G04 Created by KiCad (PCBNEW (6.0.1)) date 2022-02-25 16:08:36*
%MOMM*%
%LPD*%
G01*
G04 APERTURE LIST*
G04 Aperture macros list*
%AMRoundRect*
0 Rectangle with rounded corners*
0 $1 Rounding radius*
0 $2 $3 $4 $5 $6 $7 $8 $9 X,Y pos of 4 corners*
0 Add a 4 corners polygon primitive as box body*
4,1,4,$2,$3,$4,$5,$6,$7,$8,$9,$2,$3,0*
0 Add four circle primitives for the rounded corners*
1,1,$1+$1,$2,$3*
1,1,$1+$1,$4,$5*
1,1,$1+$1,$6,$7*
1,1,$1+$1,$8,$9*
0 Add four rect primitives between the rounded corners*
20,1,$1+$1,$2,$3,$4,$5,0*
20,1,$1+$1,$4,$5,$6,$7,0*
20,1,$1+$1,$6,$7,$8,$9,0*
20,1,$1+$1,$8,$9,$2,$3,0*%
G04 Aperture macros list end*
%ADD10RoundRect,0.237500X-0.287500X-0.237500X0.287500X-0.237500X0.287500X0.237500X-0.287500X0.237500X0*%
%ADD11RoundRect,0.237500X0.287500X0.237500X-0.287500X0.237500X-0.287500X-0.237500X0.287500X-0.237500X0*%
%ADD12R,1.250000X1.250000*%
%ADD13C,1.250000*%
%ADD14R,1.251000X1.251000*%
%ADD15C,1.251000*%
%ADD16RoundRect,0.237500X-0.237500X0.287500X-0.237500X-0.287500X0.237500X-0.287500X0.237500X0.287500X0*%
%ADD17RoundRect,0.237500X0.237500X-0.287500X0.237500X0.287500X-0.237500X0.287500X-0.237500X-0.287500X0*%
%ADD18R,1.800000X1.800000*%
%ADD19C,1.800000*%
%ADD20C,0.800000*%
G04 APERTURE END LIST*
D10*
X73125000Y79000000D03*
X74875000Y79000000D03*
X76625000Y107500000D03*
X78375000Y107500000D03*
X76625000Y32500000D03*
X78375000Y32500000D03*
X22625000Y77500000D03*
X24375000Y77500000D03*
D11*
X137375000Y77000000D03*
X135625000Y77000000D03*
D12*
X87460000Y62535000D03*
D13*
X88960000Y62535000D03*
X90460000Y62535000D03*
X91960000Y62535000D03*
X93460000Y62535000D03*
X94960000Y62535000D03*
X96460000Y62535000D03*
X97960000Y62535000D03*
D14*
X63885000Y61925000D03*
D15*
X65385000Y61925000D03*
X66885000Y61925000D03*
X68385000Y61925000D03*
X69885000Y61925000D03*
X71385000Y61925000D03*
D16*
X87500000Y78375000D03*
X87500000Y76625000D03*
D11*
X88375000Y82500000D03*
X86625000Y82500000D03*
D17*
X82500000Y126500000D03*
X82500000Y128250000D03*
D10*
X86125000Y72000000D03*
X87875000Y72000000D03*
X95625000Y72500000D03*
X97375000Y72500000D03*
D11*
X87875000Y69500000D03*
X86125000Y69500000D03*
D16*
X82500000Y63375000D03*
X82500000Y61625000D03*
X73000000Y74375000D03*
X73000000Y72625000D03*
D11*
X64375000Y72500000D03*
X62625000Y72500000D03*
D17*
X82500000Y96625000D03*
X82500000Y98375000D03*
X82500000Y106625000D03*
X82500000Y108375000D03*
X82500000Y116625000D03*
X82500000Y118375000D03*
D16*
X82500000Y53375000D03*
X82500000Y51625000D03*
X82500000Y43375000D03*
X82500000Y41625000D03*
X82500000Y33375000D03*
X82500000Y31625000D03*
X82500000Y23375000D03*
X82500000Y21625000D03*
D17*
X82500000Y11125000D03*
X82500000Y12875000D03*
D10*
X52625000Y72500000D03*
X54375000Y72500000D03*
X42625000Y72500000D03*
X44375000Y72500000D03*
X32625000Y72500000D03*
X34375000Y72500000D03*
X22625000Y72500000D03*
X24375000Y72500000D03*
X12625000Y72500000D03*
X14375000Y72500000D03*
D11*
X107375000Y72500000D03*
X105625000Y72500000D03*
D10*
X115875000Y72500000D03*
X117625000Y72500000D03*
X125875000Y72500000D03*
X127625000Y72500000D03*
X135625000Y72500000D03*
X137375000Y72500000D03*
X145875000Y72500000D03*
X147625000Y72500000D03*
D17*
X82500000Y87125000D03*
X82500000Y88875000D03*
D18*
X77500000Y73730000D03*
D19*
X77500000Y76270000D03*
D18*
X82500000Y83770000D03*
D19*
X82500000Y81230000D03*
D18*
X82500000Y133770000D03*
D19*
X82500000Y131230000D03*
D18*
X82500000Y56230000D03*
D19*
X82500000Y58770000D03*
D18*
X67230000Y72500000D03*
D19*
X69770000Y72500000D03*
D18*
X57230000Y72500000D03*
D19*
X59770000Y72500000D03*
D18*
X82500000Y103770000D03*
D19*
X82500000Y101230000D03*
D18*
X82500000Y113770000D03*
D19*
X82500000Y111230000D03*
D18*
X82500000Y123770000D03*
D19*
X82500000Y121230000D03*
D18*
X82500000Y46230000D03*
D19*
X82500000Y48770000D03*
D18*
X82500000Y36230000D03*
D19*
X82500000Y38770000D03*
D18*
X82500000Y26230000D03*
D19*
X82500000Y28770000D03*
D18*
X82500000Y16230000D03*
D19*
X82500000Y18770000D03*
D18*
X82500000Y6230000D03*
D19*
X82500000Y8770000D03*
D18*
X37230000Y72426000D03*
D19*
X39770000Y72426000D03*
D18*
X27230000Y72426000D03*
D19*
X29770000Y72426000D03*
D18*
X17230000Y72426000D03*
D19*
X19770000Y72426000D03*
D18*
X82500000Y76270000D03*
D19*
X82500000Y73730000D03*
D18*
X77500000Y81230000D03*
D19*
X77500000Y83770000D03*
D18*
X77500000Y131230000D03*
D19*
X77500000Y133770000D03*
D18*
X90230000Y77426000D03*
D19*
X92770000Y77426000D03*
D18*
X100230000Y77426000D03*
D19*
X102770000Y77426000D03*
D18*
X69770000Y77426000D03*
D19*
X67230000Y77426000D03*
D18*
X59770000Y77426000D03*
D19*
X57230000Y77426000D03*
D18*
X77500000Y101230000D03*
D19*
X77500000Y103770000D03*
D18*
X77500000Y111230000D03*
D19*
X77500000Y113770000D03*
D18*
X77500000Y121230000D03*
D19*
X77500000Y123770000D03*
D18*
X77500000Y18770000D03*
D19*
X77500000Y16230000D03*
D18*
X77500000Y8770000D03*
D19*
X77500000Y6230000D03*
D18*
X49770000Y77426000D03*
D19*
X47230000Y77426000D03*
D18*
X39770000Y77426000D03*
D19*
X37230000Y77426000D03*
D18*
X29770000Y77426000D03*
D19*
X27230000Y77426000D03*
D18*
X19770000Y77426000D03*
D19*
X17230000Y77426000D03*
D18*
X9770000Y77500000D03*
D19*
X7230000Y77500000D03*
D18*
X110230000Y77426000D03*
D19*
X112770000Y77426000D03*
D18*
X120230000Y77426000D03*
D19*
X122770000Y77426000D03*
D18*
X130230000Y77426000D03*
D19*
X132770000Y77426000D03*
D18*
X140230000Y77426000D03*
D19*
X142770000Y77426000D03*
D18*
X150230000Y77426000D03*
D19*
X152770000Y77426000D03*
D18*
X82500000Y93770000D03*
D19*
X82500000Y91230000D03*
D18*
X77500000Y91230000D03*
D19*
X77500000Y93770000D03*
D18*
X110230000Y72250000D03*
D19*
X112770000Y72250000D03*
D18*
X7230000Y72426000D03*
D19*
X9770000Y72426000D03*
D18*
X47230000Y72426000D03*
D19*
X49770000Y72426000D03*
D18*
X152770000Y72500000D03*
D19*
X150230000Y72500000D03*
D18*
X142770000Y72500000D03*
D19*
X140230000Y72500000D03*
D18*
X132770000Y72500000D03*
D19*
X130230000Y72500000D03*
D18*
X122770000Y72426000D03*
D19*
X120230000Y72426000D03*
D18*
X102770000Y72500000D03*
D19*
X100230000Y72500000D03*
D18*
X92770000Y72426000D03*
D19*
X90230000Y72426000D03*
D18*
X82500000Y66230000D03*
D19*
X82500000Y68770000D03*
D18*
X77500000Y58770000D03*
D19*
X77500000Y56230000D03*
D18*
X77500000Y48770000D03*
D19*
X77500000Y46230000D03*
D18*
X77500000Y28770000D03*
D19*
X77500000Y26230000D03*
D18*
X77500000Y68770000D03*
D19*
X77500000Y66230000D03*
D18*
X77500000Y38770000D03*
D19*
X77500000Y36230000D03*
D20*
X83694400Y63157400D03*
X65413100Y65762500D03*
M02*
