G04 #@! TF.GenerationSoftware,KiCad,Pcbnew,(6.0.1)*
G04 #@! TF.CreationDate,2022-02-25T16:08:36+09:00*
G04 #@! TF.ProjectId,line_senser20220225,6c696e65-5f73-4656-9e73-657232303232,rev?*
G04 #@! TF.SameCoordinates,PX17d7840PYb06e040*
G04 #@! TF.FileFunction,Copper,L2,Bot*
G04 #@! TF.FilePolarity,Positive*
%FSLAX46Y46*%
G04 Gerber Fmt 4.6, Leading zero omitted, Abs format (unit mm)*
G04 Created by KiCad (PCBNEW (6.0.1)) date 2022-02-25 16:08:36*
%MOMM*%
%LPD*%
G01*
G04 APERTURE LIST*
G04 #@! TA.AperFunction,ComponentPad*
%ADD10R,1.250000X1.250000*%
G04 #@! TD*
G04 #@! TA.AperFunction,ComponentPad*
%ADD11C,1.250000*%
G04 #@! TD*
G04 #@! TA.AperFunction,ComponentPad*
%ADD12R,1.251000X1.251000*%
G04 #@! TD*
G04 #@! TA.AperFunction,ComponentPad*
%ADD13C,1.251000*%
G04 #@! TD*
G04 #@! TA.AperFunction,ComponentPad*
%ADD14R,1.800000X1.800000*%
G04 #@! TD*
G04 #@! TA.AperFunction,ComponentPad*
%ADD15C,1.800000*%
G04 #@! TD*
G04 #@! TA.AperFunction,ViaPad*
%ADD16C,0.800000*%
G04 #@! TD*
G04 #@! TA.AperFunction,Conductor*
%ADD17C,0.300000*%
G04 #@! TD*
G04 APERTURE END LIST*
D10*
X87460000Y62535000D03*
D11*
X88960000Y62535000D03*
X90460000Y62535000D03*
X91960000Y62535000D03*
X93460000Y62535000D03*
X94960000Y62535000D03*
X96460000Y62535000D03*
X97960000Y62535000D03*
D12*
X63885000Y61925000D03*
D13*
X65385000Y61925000D03*
X66885000Y61925000D03*
X68385000Y61925000D03*
X69885000Y61925000D03*
X71385000Y61925000D03*
D14*
X77500000Y73730000D03*
D15*
X77500000Y76270000D03*
D14*
X82500000Y83770000D03*
D15*
X82500000Y81230000D03*
D14*
X82500000Y133770000D03*
D15*
X82500000Y131230000D03*
D14*
X82500000Y56230000D03*
D15*
X82500000Y58770000D03*
D14*
X67230000Y72500000D03*
D15*
X69770000Y72500000D03*
D14*
X57230000Y72500000D03*
D15*
X59770000Y72500000D03*
D14*
X82500000Y103770000D03*
D15*
X82500000Y101230000D03*
D14*
X82500000Y113770000D03*
D15*
X82500000Y111230000D03*
D14*
X82500000Y123770000D03*
D15*
X82500000Y121230000D03*
D14*
X82500000Y46230000D03*
D15*
X82500000Y48770000D03*
D14*
X82500000Y36230000D03*
D15*
X82500000Y38770000D03*
D14*
X82500000Y26230000D03*
D15*
X82500000Y28770000D03*
D14*
X82500000Y16230000D03*
D15*
X82500000Y18770000D03*
D14*
X82500000Y6230000D03*
D15*
X82500000Y8770000D03*
D14*
X37230000Y72426000D03*
D15*
X39770000Y72426000D03*
D14*
X27230000Y72426000D03*
D15*
X29770000Y72426000D03*
D14*
X17230000Y72426000D03*
D15*
X19770000Y72426000D03*
D14*
X82500000Y76270000D03*
D15*
X82500000Y73730000D03*
D14*
X77500000Y81230000D03*
D15*
X77500000Y83770000D03*
D14*
X77500000Y131230000D03*
D15*
X77500000Y133770000D03*
D14*
X90230000Y77426000D03*
D15*
X92770000Y77426000D03*
D14*
X100230000Y77426000D03*
D15*
X102770000Y77426000D03*
D14*
X69770000Y77426000D03*
D15*
X67230000Y77426000D03*
D14*
X59770000Y77426000D03*
D15*
X57230000Y77426000D03*
D14*
X77500000Y101230000D03*
D15*
X77500000Y103770000D03*
D14*
X77500000Y111230000D03*
D15*
X77500000Y113770000D03*
D14*
X77500000Y121230000D03*
D15*
X77500000Y123770000D03*
D14*
X77500000Y18770000D03*
D15*
X77500000Y16230000D03*
D14*
X77500000Y8770000D03*
D15*
X77500000Y6230000D03*
D14*
X49770000Y77426000D03*
D15*
X47230000Y77426000D03*
D14*
X39770000Y77426000D03*
D15*
X37230000Y77426000D03*
D14*
X29770000Y77426000D03*
D15*
X27230000Y77426000D03*
D14*
X19770000Y77426000D03*
D15*
X17230000Y77426000D03*
D14*
X9770000Y77500000D03*
D15*
X7230000Y77500000D03*
D14*
X110230000Y77426000D03*
D15*
X112770000Y77426000D03*
D14*
X120230000Y77426000D03*
D15*
X122770000Y77426000D03*
D14*
X130230000Y77426000D03*
D15*
X132770000Y77426000D03*
D14*
X140230000Y77426000D03*
D15*
X142770000Y77426000D03*
D14*
X150230000Y77426000D03*
D15*
X152770000Y77426000D03*
D14*
X82500000Y93770000D03*
D15*
X82500000Y91230000D03*
D14*
X77500000Y91230000D03*
D15*
X77500000Y93770000D03*
D14*
X110230000Y72250000D03*
D15*
X112770000Y72250000D03*
D14*
X7230000Y72426000D03*
D15*
X9770000Y72426000D03*
D14*
X47230000Y72426000D03*
D15*
X49770000Y72426000D03*
D14*
X152770000Y72500000D03*
D15*
X150230000Y72500000D03*
D14*
X142770000Y72500000D03*
D15*
X140230000Y72500000D03*
D14*
X132770000Y72500000D03*
D15*
X130230000Y72500000D03*
D14*
X122770000Y72426000D03*
D15*
X120230000Y72426000D03*
D14*
X102770000Y72500000D03*
D15*
X100230000Y72500000D03*
D14*
X92770000Y72426000D03*
D15*
X90230000Y72426000D03*
D14*
X82500000Y66230000D03*
D15*
X82500000Y68770000D03*
D14*
X77500000Y58770000D03*
D15*
X77500000Y56230000D03*
D14*
X77500000Y48770000D03*
D15*
X77500000Y46230000D03*
D14*
X77500000Y28770000D03*
D15*
X77500000Y26230000D03*
D14*
X77500000Y68770000D03*
D15*
X77500000Y66230000D03*
D14*
X77500000Y38770000D03*
D15*
X77500000Y36230000D03*
D16*
X83694400Y63157400D03*
X65413100Y65762500D03*
D17*
X35445100Y73101200D02*
X31120300Y77426000D01*
X39770000Y76075700D02*
X37470600Y73776300D01*
X102770000Y72500000D02*
X102770000Y71824900D01*
X122770000Y73101200D02*
X122770000Y73776300D01*
X76149700Y75080300D02*
X77500000Y73730000D01*
X82259400Y24879700D02*
X82500000Y24879700D01*
X37230000Y73101200D02*
X35445100Y73101200D01*
X9770000Y77500000D02*
X11120300Y77500000D01*
X77740600Y99879700D02*
X77500000Y99879700D01*
X82259400Y115120300D02*
X82500000Y115120300D01*
X77500000Y48770000D02*
X77500000Y50120300D01*
X11120300Y77500000D02*
X14844000Y73776300D01*
X37230000Y73101200D02*
X37230000Y73776300D01*
X68932700Y76075700D02*
X67230000Y74373000D01*
X77500000Y89879700D02*
X82259400Y85120300D01*
X57230000Y72500000D02*
X55879700Y72500000D01*
X82259400Y125120300D02*
X82500000Y125120300D01*
X77500000Y129879700D02*
X82259400Y125120300D01*
X77500000Y79879700D02*
X76149700Y78529400D01*
X77500000Y111230000D02*
X77500000Y109879700D01*
X49770000Y76750900D02*
X49770000Y76075700D01*
X77500000Y109879700D02*
X82259400Y105120300D01*
X97960000Y62535000D02*
X97960000Y62436300D01*
X49770000Y77426000D02*
X49770000Y76750900D01*
X110230000Y72250000D02*
X108879700Y72250000D01*
X110230000Y77426000D02*
X110230000Y76075700D01*
X120470600Y76075700D02*
X120230000Y76075700D01*
X49770000Y76075700D02*
X49529400Y76075700D01*
X92529400Y73776300D02*
X92770000Y73776300D01*
X99539600Y69080500D02*
X99539600Y64114600D01*
X77500000Y38770000D02*
X77500000Y40120300D01*
X102770000Y71824900D02*
X102284000Y71824900D01*
X37230000Y72426000D02*
X37230000Y73101200D01*
X132770000Y72500000D02*
X132770000Y73850300D01*
X152770000Y72500000D02*
X152770000Y73850300D01*
X92770000Y72426000D02*
X92770000Y73776300D01*
X77500000Y20120300D02*
X82259400Y24879700D01*
X77500000Y8770000D02*
X77500000Y10120300D01*
X140544600Y76075700D02*
X140230000Y76075700D01*
X140230000Y77426000D02*
X140230000Y76075700D01*
X49770000Y76750900D02*
X51628800Y76750900D01*
X82259400Y14879700D02*
X82500000Y14879700D01*
X77500000Y18770000D02*
X77500000Y20120300D01*
X150544600Y76075700D02*
X150230000Y76075700D01*
X82500000Y103770000D02*
X82500000Y105120300D01*
X19770000Y77426000D02*
X19770000Y76075700D01*
X152770000Y73850300D02*
X150544600Y76075700D01*
X69770000Y77426000D02*
X69770000Y76075700D01*
X130230000Y77426000D02*
X130230000Y76075700D01*
X82500000Y83770000D02*
X82500000Y85120300D01*
X77740600Y40120300D02*
X77500000Y40120300D01*
X82500000Y95120300D02*
X77740600Y99879700D01*
X47230000Y72426000D02*
X47230000Y73776300D01*
X110230000Y76075700D02*
X120230000Y76075700D01*
X76149700Y78529400D02*
X76149700Y75080300D01*
X77500000Y81230000D02*
X77500000Y79879700D01*
X91753700Y56230000D02*
X82500000Y56230000D01*
X99539600Y64114600D02*
X97960000Y62535000D01*
X142770000Y72500000D02*
X142770000Y73175200D01*
X82500000Y113770000D02*
X82500000Y115120300D01*
X142770000Y73175200D02*
X142770000Y73850300D01*
X142770000Y73850300D02*
X140544600Y76075700D01*
X14844000Y73776300D02*
X17230000Y73776300D01*
X64173300Y74373000D02*
X61120300Y77426000D01*
X110230000Y76075700D02*
X110230000Y72250000D01*
X77500000Y30120300D02*
X82259400Y34879700D01*
X67230000Y73850300D02*
X67230000Y74373000D01*
X82500000Y46230000D02*
X82500000Y44879700D01*
X122770000Y72426000D02*
X122770000Y73101200D01*
X147329500Y73175200D02*
X150230000Y76075700D01*
X142770000Y73175200D02*
X147329500Y73175200D01*
X59770000Y77426000D02*
X61120300Y77426000D01*
X82500000Y123770000D02*
X82500000Y125120300D01*
X122770000Y73101200D02*
X127255500Y73101200D01*
X100230000Y76075700D02*
X102455400Y73850300D01*
X39770000Y77426000D02*
X39770000Y76075700D01*
X19770000Y76075700D02*
X19529400Y76075700D01*
X82500000Y36230000D02*
X82500000Y34879700D01*
X67230000Y72500000D02*
X67230000Y73850300D01*
X77500000Y121230000D02*
X77500000Y119879700D01*
X29770000Y77426000D02*
X31120300Y77426000D01*
X102770000Y72500000D02*
X102770000Y73850300D01*
X82259400Y34879700D02*
X82500000Y34879700D01*
X82259400Y105120300D02*
X82500000Y105120300D01*
X90230000Y77426000D02*
X90230000Y76075700D01*
X49529400Y76075700D02*
X47230000Y73776300D01*
X77500000Y28770000D02*
X77500000Y30120300D01*
X82500000Y16230000D02*
X82500000Y14879700D01*
X122770000Y73776300D02*
X120470600Y76075700D01*
X77500000Y131230000D02*
X77500000Y129879700D01*
X120230000Y77426000D02*
X120230000Y76075700D01*
X82500000Y44879700D02*
X77740600Y40120300D01*
X82500000Y93770000D02*
X82500000Y95120300D01*
X97960000Y62436300D02*
X91753700Y56230000D01*
X51628800Y76750900D02*
X55879700Y72500000D01*
X37470600Y73776300D02*
X37230000Y73776300D01*
X77500000Y68770000D02*
X77500000Y73730000D01*
X77500000Y91230000D02*
X77500000Y89879700D01*
X108454600Y71824900D02*
X102770000Y71824900D01*
X130544600Y76075700D02*
X130230000Y76075700D01*
X77500000Y50120300D02*
X82259400Y54879700D01*
X82259400Y54879700D02*
X82500000Y54879700D01*
X82500000Y56230000D02*
X82500000Y54879700D01*
X100230000Y77426000D02*
X100230000Y76075700D01*
X67230000Y74373000D02*
X64173300Y74373000D01*
X69770000Y76075700D02*
X68932700Y76075700D01*
X150230000Y77426000D02*
X150230000Y76075700D01*
X19529400Y76075700D02*
X17230000Y73776300D01*
X17230000Y72426000D02*
X17230000Y73776300D01*
X90230000Y76075700D02*
X92529400Y73776300D01*
X77500000Y119879700D02*
X82259400Y115120300D01*
X82500000Y26230000D02*
X82500000Y24879700D01*
X82259400Y85120300D02*
X82500000Y85120300D01*
X77500000Y10120300D02*
X82259400Y14879700D01*
X127255500Y73101200D02*
X130230000Y76075700D01*
X102455400Y73850300D02*
X102770000Y73850300D01*
X132770000Y73850300D02*
X130544600Y76075700D01*
X108879700Y72250000D02*
X108454600Y71824900D01*
X77500000Y101230000D02*
X77500000Y99879700D01*
X102284000Y71824900D02*
X99539600Y69080500D01*
X82500000Y71230000D02*
X82500000Y73730000D01*
X92770000Y77426000D02*
X94960000Y75236000D01*
X77500000Y66230000D02*
X82500000Y71230000D01*
X82500000Y73730000D02*
X80054900Y76175100D01*
X80054900Y76175100D02*
X80054900Y81215100D01*
X80054900Y81215100D02*
X77500000Y83770000D01*
X94960000Y75236000D02*
X94960000Y62535000D01*
X55879600Y78776400D02*
X57230000Y77426000D01*
X27230000Y77426000D02*
X25879600Y78776400D01*
X18580400Y78776400D02*
X17230000Y77426000D01*
X25879600Y78776400D02*
X18580400Y78776400D01*
X38580400Y78776400D02*
X37230000Y77426000D01*
X47230000Y77426000D02*
X48580400Y78776400D01*
X48580400Y78776400D02*
X55879600Y78776400D01*
X57230000Y77426000D02*
X65413100Y69242900D01*
X68385000Y61925000D02*
X68385000Y62026600D01*
X68385000Y62026600D02*
X69515800Y63157400D01*
X69515800Y63157400D02*
X83694400Y63157400D01*
X45879600Y78776400D02*
X38580400Y78776400D01*
X65413100Y69242900D02*
X65413100Y65762500D01*
X47230000Y77426000D02*
X45879600Y78776400D01*
X76149600Y27580400D02*
X76149600Y34879600D01*
X77500000Y26230000D02*
X76149600Y24879600D01*
X81428200Y60158200D02*
X88157600Y60158200D01*
X90460000Y62460600D02*
X90460000Y62535000D01*
X77500000Y26230000D02*
X76149600Y27580400D01*
X76149600Y34879600D02*
X77500000Y36230000D01*
X76149600Y17580400D02*
X77500000Y16230000D01*
X77500000Y6230000D02*
X76149600Y7580400D01*
X77500000Y36230000D02*
X76149600Y37580400D01*
X76149600Y37580400D02*
X76149600Y44879600D01*
X88157600Y60158200D02*
X90460000Y62460600D01*
X76149600Y24879600D02*
X76149600Y17580400D01*
X76149600Y14879600D02*
X77500000Y16230000D01*
X77500000Y56230000D02*
X81428200Y60158200D01*
X76149600Y7580400D02*
X76149600Y14879600D01*
X76149600Y44879600D02*
X77500000Y46230000D01*
X88879600Y78587100D02*
X89111900Y78819400D01*
X65385000Y61925000D02*
X65385000Y61903500D01*
X142770000Y77426000D02*
X141419600Y78776400D01*
X88960000Y62535000D02*
X88879600Y62615400D01*
X141419600Y78776400D02*
X134120400Y78776400D01*
X66450500Y60838000D02*
X87658800Y60838000D01*
X88960000Y62139200D02*
X88960000Y62535000D01*
X88879600Y62615400D02*
X88879600Y78587100D01*
X101376600Y78819400D02*
X102770000Y77426000D01*
X134120400Y78776400D02*
X132770000Y77426000D01*
X87658800Y60838000D02*
X88960000Y62139200D01*
X65385000Y61903500D02*
X66450500Y60838000D01*
X89111900Y78819400D02*
X101376600Y78819400D01*
X63885000Y61925000D02*
X63885000Y63000800D01*
X75460400Y91730400D02*
X77500000Y93770000D01*
X76149600Y122419600D02*
X77500000Y123770000D01*
X76149600Y105120400D02*
X77500000Y103770000D01*
X76149600Y125120400D02*
X76149600Y132419600D01*
X75460400Y66359500D02*
X75460400Y91730400D01*
X76149600Y112419600D02*
X76149600Y105120400D01*
X77500000Y123770000D02*
X76149600Y125120400D01*
X77500000Y103770000D02*
X76149600Y102419600D01*
X67243700Y66359500D02*
X75460400Y66359500D01*
X86384700Y62535000D02*
X84887100Y64032600D01*
X77787300Y64032600D02*
X75460400Y66359500D01*
X76149600Y115120400D02*
X76149600Y122419600D01*
X76149600Y102419600D02*
X76149600Y95120400D01*
X63885000Y63000800D02*
X67243700Y66359500D01*
X77500000Y113770000D02*
X76149600Y115120400D01*
X77500000Y113770000D02*
X76149600Y112419600D01*
X87460000Y62535000D02*
X86384700Y62535000D01*
X76149600Y132419600D02*
X77500000Y133770000D01*
X84887100Y64032600D02*
X77787300Y64032600D01*
X76149600Y95120400D02*
X77500000Y93770000D01*
M02*
