G04 #@! TF.GenerationSoftware,KiCad,Pcbnew,(6.0.1)*
G04 #@! TF.CreationDate,2022-02-25T16:08:36+09:00*
G04 #@! TF.ProjectId,line_senser20220225,6c696e65-5f73-4656-9e73-657232303232,rev?*
G04 #@! TF.SameCoordinates,PX17d7840PYb06e040*
G04 #@! TF.FileFunction,Legend,Bot*
G04 #@! TF.FilePolarity,Positive*
%FSLAX46Y46*%
G04 Gerber Fmt 4.6, Leading zero omitted, Abs format (unit mm)*
G04 Created by KiCad (PCBNEW (6.0.1)) date 2022-02-25 16:08:36*
%MOMM*%
%LPD*%
G01*
G04 APERTURE LIST*
%ADD10C,0.150000*%
%ADD11C,0.120000*%
G04 APERTURE END LIST*
D10*
X74952380Y75488096D02*
X73952380Y75488096D01*
X73952380Y75250000D01*
X74000000Y75107143D01*
X74095238Y75011905D01*
X74190476Y74964286D01*
X74380952Y74916667D01*
X74523809Y74916667D01*
X74714285Y74964286D01*
X74809523Y75011905D01*
X74904761Y75107143D01*
X74952380Y75250000D01*
X74952380Y75488096D01*
X73952380Y74059524D02*
X73952380Y74250000D01*
X74000000Y74345239D01*
X74047619Y74392858D01*
X74190476Y74488096D01*
X74380952Y74535715D01*
X74761904Y74535715D01*
X74857142Y74488096D01*
X74904761Y74440477D01*
X74952380Y74345239D01*
X74952380Y74154762D01*
X74904761Y74059524D01*
X74857142Y74011905D01*
X74761904Y73964286D01*
X74523809Y73964286D01*
X74428571Y74011905D01*
X74380952Y74059524D01*
X74333333Y74154762D01*
X74333333Y74345239D01*
X74380952Y74440477D01*
X74428571Y74488096D01*
X74523809Y74535715D01*
X86052380Y84738096D02*
X85052380Y84738096D01*
X85052380Y84500000D01*
X85100000Y84357143D01*
X85195238Y84261905D01*
X85290476Y84214286D01*
X85480952Y84166667D01*
X85623809Y84166667D01*
X85814285Y84214286D01*
X85909523Y84261905D01*
X86004761Y84357143D01*
X86052380Y84500000D01*
X86052380Y84738096D01*
X85052380Y83833334D02*
X85052380Y83166667D01*
X86052380Y83595239D01*
X82952380Y128988096D02*
X81952380Y128988096D01*
X81952380Y128750000D01*
X82000000Y128607143D01*
X82095238Y128511905D01*
X82190476Y128464286D01*
X82380952Y128416667D01*
X82523809Y128416667D01*
X82714285Y128464286D01*
X82809523Y128511905D01*
X82904761Y128607143D01*
X82952380Y128750000D01*
X82952380Y128988096D01*
X82285714Y127559524D02*
X82952380Y127559524D01*
X81904761Y127797620D02*
X82619047Y128035715D01*
X82619047Y127416667D01*
X85912380Y58714286D02*
X84912380Y58714286D01*
X84912380Y58476191D01*
X84960000Y58333334D01*
X85055238Y58238096D01*
X85150476Y58190477D01*
X85340952Y58142858D01*
X85483809Y58142858D01*
X85674285Y58190477D01*
X85769523Y58238096D01*
X85864761Y58333334D01*
X85912380Y58476191D01*
X85912380Y58714286D01*
X85912380Y57190477D02*
X85912380Y57761905D01*
X85912380Y57476191D02*
X84912380Y57476191D01*
X85055238Y57571429D01*
X85150476Y57666667D01*
X85198095Y57761905D01*
X84912380Y56333334D02*
X84912380Y56523810D01*
X84960000Y56619048D01*
X85007619Y56666667D01*
X85150476Y56761905D01*
X85340952Y56809524D01*
X85721904Y56809524D01*
X85817142Y56761905D01*
X85864761Y56714286D01*
X85912380Y56619048D01*
X85912380Y56428572D01*
X85864761Y56333334D01*
X85817142Y56285715D01*
X85721904Y56238096D01*
X85483809Y56238096D01*
X85388571Y56285715D01*
X85340952Y56333334D01*
X85293333Y56428572D01*
X85293333Y56619048D01*
X85340952Y56714286D01*
X85388571Y56761905D01*
X85483809Y56809524D01*
X69944285Y68547620D02*
X69944285Y69547620D01*
X69706190Y69547620D01*
X69563333Y69500000D01*
X69468095Y69404762D01*
X69420476Y69309524D01*
X69372857Y69119048D01*
X69372857Y68976191D01*
X69420476Y68785715D01*
X69468095Y68690477D01*
X69563333Y68595239D01*
X69706190Y68547620D01*
X69944285Y68547620D01*
X68420476Y68547620D02*
X68991904Y68547620D01*
X68706190Y68547620D02*
X68706190Y69547620D01*
X68801428Y69404762D01*
X68896666Y69309524D01*
X68991904Y69261905D01*
X67801428Y69547620D02*
X67706190Y69547620D01*
X67610952Y69500000D01*
X67563333Y69452381D01*
X67515714Y69357143D01*
X67468095Y69166667D01*
X67468095Y68928572D01*
X67515714Y68738096D01*
X67563333Y68642858D01*
X67610952Y68595239D01*
X67706190Y68547620D01*
X67801428Y68547620D01*
X67896666Y68595239D01*
X67944285Y68642858D01*
X67991904Y68738096D01*
X68039523Y68928572D01*
X68039523Y69166667D01*
X67991904Y69357143D01*
X67944285Y69452381D01*
X67896666Y69500000D01*
X67801428Y69547620D01*
X64214285Y71797620D02*
X64214285Y72797620D01*
X63976190Y72797620D01*
X63833333Y72750000D01*
X63738095Y72654762D01*
X63690476Y72559524D01*
X63642857Y72369048D01*
X63642857Y72226191D01*
X63690476Y72035715D01*
X63738095Y71940477D01*
X63833333Y71845239D01*
X63976190Y71797620D01*
X64214285Y71797620D01*
X63261904Y72702381D02*
X63214285Y72750000D01*
X63119047Y72797620D01*
X62880952Y72797620D01*
X62785714Y72750000D01*
X62738095Y72702381D01*
X62690476Y72607143D01*
X62690476Y72511905D01*
X62738095Y72369048D01*
X63309523Y71797620D01*
X62690476Y71797620D01*
X61833333Y72464286D02*
X61833333Y71797620D01*
X62071428Y72845239D02*
X62309523Y72130953D01*
X61690476Y72130953D01*
X82952380Y99008096D02*
X81952380Y99008096D01*
X81952380Y98770000D01*
X82000000Y98627143D01*
X82095238Y98531905D01*
X82190476Y98484286D01*
X82380952Y98436667D01*
X82523809Y98436667D01*
X82714285Y98484286D01*
X82809523Y98531905D01*
X82904761Y98627143D01*
X82952380Y98770000D01*
X82952380Y99008096D01*
X82952380Y97484286D02*
X82952380Y98055715D01*
X82952380Y97770000D02*
X81952380Y97770000D01*
X82095238Y97865239D01*
X82190476Y97960477D01*
X82238095Y98055715D01*
X82952380Y109008096D02*
X81952380Y109008096D01*
X81952380Y108770000D01*
X82000000Y108627143D01*
X82095238Y108531905D01*
X82190476Y108484286D01*
X82380952Y108436667D01*
X82523809Y108436667D01*
X82714285Y108484286D01*
X82809523Y108531905D01*
X82904761Y108627143D01*
X82952380Y108770000D01*
X82952380Y109008096D01*
X82047619Y108055715D02*
X82000000Y108008096D01*
X81952380Y107912858D01*
X81952380Y107674762D01*
X82000000Y107579524D01*
X82047619Y107531905D01*
X82142857Y107484286D01*
X82238095Y107484286D01*
X82380952Y107531905D01*
X82952380Y108103334D01*
X82952380Y107484286D01*
X82952380Y119008096D02*
X81952380Y119008096D01*
X81952380Y118770000D01*
X82000000Y118627143D01*
X82095238Y118531905D01*
X82190476Y118484286D01*
X82380952Y118436667D01*
X82523809Y118436667D01*
X82714285Y118484286D01*
X82809523Y118531905D01*
X82904761Y118627143D01*
X82952380Y118770000D01*
X82952380Y119008096D01*
X81952380Y118103334D02*
X81952380Y117484286D01*
X82333333Y117817620D01*
X82333333Y117674762D01*
X82380952Y117579524D01*
X82428571Y117531905D01*
X82523809Y117484286D01*
X82761904Y117484286D01*
X82857142Y117531905D01*
X82904761Y117579524D01*
X82952380Y117674762D01*
X82952380Y117960477D01*
X82904761Y118055715D01*
X82857142Y118103334D01*
X82952380Y52944286D02*
X81952380Y52944286D01*
X81952380Y52706191D01*
X82000000Y52563334D01*
X82095238Y52468096D01*
X82190476Y52420477D01*
X82380952Y52372858D01*
X82523809Y52372858D01*
X82714285Y52420477D01*
X82809523Y52468096D01*
X82904761Y52563334D01*
X82952380Y52706191D01*
X82952380Y52944286D01*
X82952380Y51420477D02*
X82952380Y51991905D01*
X82952380Y51706191D02*
X81952380Y51706191D01*
X82095238Y51801429D01*
X82190476Y51896667D01*
X82238095Y51991905D01*
X82952380Y50468096D02*
X82952380Y51039524D01*
X82952380Y50753810D02*
X81952380Y50753810D01*
X82095238Y50849048D01*
X82190476Y50944286D01*
X82238095Y51039524D01*
X82952380Y42944286D02*
X81952380Y42944286D01*
X81952380Y42706191D01*
X82000000Y42563334D01*
X82095238Y42468096D01*
X82190476Y42420477D01*
X82380952Y42372858D01*
X82523809Y42372858D01*
X82714285Y42420477D01*
X82809523Y42468096D01*
X82904761Y42563334D01*
X82952380Y42706191D01*
X82952380Y42944286D01*
X82952380Y41420477D02*
X82952380Y41991905D01*
X82952380Y41706191D02*
X81952380Y41706191D01*
X82095238Y41801429D01*
X82190476Y41896667D01*
X82238095Y41991905D01*
X82047619Y41039524D02*
X82000000Y40991905D01*
X81952380Y40896667D01*
X81952380Y40658572D01*
X82000000Y40563334D01*
X82047619Y40515715D01*
X82142857Y40468096D01*
X82238095Y40468096D01*
X82380952Y40515715D01*
X82952380Y41087143D01*
X82952380Y40468096D01*
X82952380Y32944286D02*
X81952380Y32944286D01*
X81952380Y32706191D01*
X82000000Y32563334D01*
X82095238Y32468096D01*
X82190476Y32420477D01*
X82380952Y32372858D01*
X82523809Y32372858D01*
X82714285Y32420477D01*
X82809523Y32468096D01*
X82904761Y32563334D01*
X82952380Y32706191D01*
X82952380Y32944286D01*
X82952380Y31420477D02*
X82952380Y31991905D01*
X82952380Y31706191D02*
X81952380Y31706191D01*
X82095238Y31801429D01*
X82190476Y31896667D01*
X82238095Y31991905D01*
X81952380Y31087143D02*
X81952380Y30468096D01*
X82333333Y30801429D01*
X82333333Y30658572D01*
X82380952Y30563334D01*
X82428571Y30515715D01*
X82523809Y30468096D01*
X82761904Y30468096D01*
X82857142Y30515715D01*
X82904761Y30563334D01*
X82952380Y30658572D01*
X82952380Y30944286D01*
X82904761Y31039524D01*
X82857142Y31087143D01*
X82952380Y22944286D02*
X81952380Y22944286D01*
X81952380Y22706191D01*
X82000000Y22563334D01*
X82095238Y22468096D01*
X82190476Y22420477D01*
X82380952Y22372858D01*
X82523809Y22372858D01*
X82714285Y22420477D01*
X82809523Y22468096D01*
X82904761Y22563334D01*
X82952380Y22706191D01*
X82952380Y22944286D01*
X82952380Y21420477D02*
X82952380Y21991905D01*
X82952380Y21706191D02*
X81952380Y21706191D01*
X82095238Y21801429D01*
X82190476Y21896667D01*
X82238095Y21991905D01*
X82285714Y20563334D02*
X82952380Y20563334D01*
X81904761Y20801429D02*
X82619047Y21039524D01*
X82619047Y20420477D01*
X82952380Y12944286D02*
X81952380Y12944286D01*
X81952380Y12706191D01*
X82000000Y12563334D01*
X82095238Y12468096D01*
X82190476Y12420477D01*
X82380952Y12372858D01*
X82523809Y12372858D01*
X82714285Y12420477D01*
X82809523Y12468096D01*
X82904761Y12563334D01*
X82952380Y12706191D01*
X82952380Y12944286D01*
X82952380Y11420477D02*
X82952380Y11991905D01*
X82952380Y11706191D02*
X81952380Y11706191D01*
X82095238Y11801429D01*
X82190476Y11896667D01*
X82238095Y11991905D01*
X81952380Y10515715D02*
X81952380Y10991905D01*
X82428571Y11039524D01*
X82380952Y10991905D01*
X82333333Y10896667D01*
X82333333Y10658572D01*
X82380952Y10563334D01*
X82428571Y10515715D01*
X82523809Y10468096D01*
X82761904Y10468096D01*
X82857142Y10515715D01*
X82904761Y10563334D01*
X82952380Y10658572D01*
X82952380Y10896667D01*
X82904761Y10991905D01*
X82857142Y11039524D01*
X43944285Y71973620D02*
X43944285Y72973620D01*
X43706190Y72973620D01*
X43563333Y72926000D01*
X43468095Y72830762D01*
X43420476Y72735524D01*
X43372857Y72545048D01*
X43372857Y72402191D01*
X43420476Y72211715D01*
X43468095Y72116477D01*
X43563333Y72021239D01*
X43706190Y71973620D01*
X43944285Y71973620D01*
X42420476Y71973620D02*
X42991904Y71973620D01*
X42706190Y71973620D02*
X42706190Y72973620D01*
X42801428Y72830762D01*
X42896666Y72735524D01*
X42991904Y72687905D01*
X41944285Y71973620D02*
X41753809Y71973620D01*
X41658571Y72021239D01*
X41610952Y72068858D01*
X41515714Y72211715D01*
X41468095Y72402191D01*
X41468095Y72783143D01*
X41515714Y72878381D01*
X41563333Y72926000D01*
X41658571Y72973620D01*
X41849047Y72973620D01*
X41944285Y72926000D01*
X41991904Y72878381D01*
X42039523Y72783143D01*
X42039523Y72545048D01*
X41991904Y72449810D01*
X41944285Y72402191D01*
X41849047Y72354572D01*
X41658571Y72354572D01*
X41563333Y72402191D01*
X41515714Y72449810D01*
X41468095Y72545048D01*
X33984285Y71973620D02*
X33984285Y72973620D01*
X33746190Y72973620D01*
X33603333Y72926000D01*
X33508095Y72830762D01*
X33460476Y72735524D01*
X33412857Y72545048D01*
X33412857Y72402191D01*
X33460476Y72211715D01*
X33508095Y72116477D01*
X33603333Y72021239D01*
X33746190Y71973620D01*
X33984285Y71973620D01*
X33031904Y72878381D02*
X32984285Y72926000D01*
X32889047Y72973620D01*
X32650952Y72973620D01*
X32555714Y72926000D01*
X32508095Y72878381D01*
X32460476Y72783143D01*
X32460476Y72687905D01*
X32508095Y72545048D01*
X33079523Y71973620D01*
X32460476Y71973620D01*
X31841428Y72973620D02*
X31746190Y72973620D01*
X31650952Y72926000D01*
X31603333Y72878381D01*
X31555714Y72783143D01*
X31508095Y72592667D01*
X31508095Y72354572D01*
X31555714Y72164096D01*
X31603333Y72068858D01*
X31650952Y72021239D01*
X31746190Y71973620D01*
X31841428Y71973620D01*
X31936666Y72021239D01*
X31984285Y72068858D01*
X32031904Y72164096D01*
X32079523Y72354572D01*
X32079523Y72592667D01*
X32031904Y72783143D01*
X31984285Y72878381D01*
X31936666Y72926000D01*
X31841428Y72973620D01*
X23944285Y71973620D02*
X23944285Y72973620D01*
X23706190Y72973620D01*
X23563333Y72926000D01*
X23468095Y72830762D01*
X23420476Y72735524D01*
X23372857Y72545048D01*
X23372857Y72402191D01*
X23420476Y72211715D01*
X23468095Y72116477D01*
X23563333Y72021239D01*
X23706190Y71973620D01*
X23944285Y71973620D01*
X22991904Y72878381D02*
X22944285Y72926000D01*
X22849047Y72973620D01*
X22610952Y72973620D01*
X22515714Y72926000D01*
X22468095Y72878381D01*
X22420476Y72783143D01*
X22420476Y72687905D01*
X22468095Y72545048D01*
X23039523Y71973620D01*
X22420476Y71973620D01*
X21468095Y71973620D02*
X22039523Y71973620D01*
X21753809Y71973620D02*
X21753809Y72973620D01*
X21849047Y72830762D01*
X21944285Y72735524D01*
X22039523Y72687905D01*
X86297619Y75345239D02*
X86250000Y75440477D01*
X86154761Y75535715D01*
X86011904Y75678572D01*
X85964285Y75773810D01*
X85964285Y75869048D01*
X86202380Y75821429D02*
X86154761Y75916667D01*
X86059523Y76011905D01*
X85869047Y76059524D01*
X85535714Y76059524D01*
X85345238Y76011905D01*
X85250000Y75916667D01*
X85202380Y75821429D01*
X85202380Y75630953D01*
X85250000Y75535715D01*
X85345238Y75440477D01*
X85535714Y75392858D01*
X85869047Y75392858D01*
X86059523Y75440477D01*
X86154761Y75535715D01*
X86202380Y75630953D01*
X86202380Y75821429D01*
X85202380Y74535715D02*
X85202380Y74726191D01*
X85250000Y74821429D01*
X85297619Y74869048D01*
X85440476Y74964286D01*
X85630952Y75011905D01*
X86011904Y75011905D01*
X86107142Y74964286D01*
X86154761Y74916667D01*
X86202380Y74821429D01*
X86202380Y74630953D01*
X86154761Y74535715D01*
X86107142Y74488096D01*
X86011904Y74440477D01*
X85773809Y74440477D01*
X85678571Y74488096D01*
X85630952Y74535715D01*
X85583333Y74630953D01*
X85583333Y74821429D01*
X85630952Y74916667D01*
X85678571Y74964286D01*
X85773809Y75011905D01*
X75047619Y83895239D02*
X75000000Y83990477D01*
X74904761Y84085715D01*
X74761904Y84228572D01*
X74714285Y84323810D01*
X74714285Y84419048D01*
X74952380Y84371429D02*
X74904761Y84466667D01*
X74809523Y84561905D01*
X74619047Y84609524D01*
X74285714Y84609524D01*
X74095238Y84561905D01*
X74000000Y84466667D01*
X73952380Y84371429D01*
X73952380Y84180953D01*
X74000000Y84085715D01*
X74095238Y83990477D01*
X74285714Y83942858D01*
X74619047Y83942858D01*
X74809523Y83990477D01*
X74904761Y84085715D01*
X74952380Y84180953D01*
X74952380Y84371429D01*
X73952380Y83609524D02*
X73952380Y82942858D01*
X74952380Y83371429D01*
X78797619Y128845239D02*
X78750000Y128940477D01*
X78654761Y129035715D01*
X78511904Y129178572D01*
X78464285Y129273810D01*
X78464285Y129369048D01*
X78702380Y129321429D02*
X78654761Y129416667D01*
X78559523Y129511905D01*
X78369047Y129559524D01*
X78035714Y129559524D01*
X77845238Y129511905D01*
X77750000Y129416667D01*
X77702380Y129321429D01*
X77702380Y129130953D01*
X77750000Y129035715D01*
X77845238Y128940477D01*
X78035714Y128892858D01*
X78369047Y128892858D01*
X78559523Y128940477D01*
X78654761Y129035715D01*
X78702380Y129130953D01*
X78702380Y129321429D01*
X78035714Y128035715D02*
X78702380Y128035715D01*
X77654761Y128273810D02*
X78369047Y128511905D01*
X78369047Y127892858D01*
X91825238Y79878381D02*
X91920476Y79926000D01*
X92015714Y80021239D01*
X92158571Y80164096D01*
X92253809Y80211715D01*
X92349047Y80211715D01*
X92301428Y79973620D02*
X92396666Y80021239D01*
X92491904Y80116477D01*
X92539523Y80306953D01*
X92539523Y80640286D01*
X92491904Y80830762D01*
X92396666Y80926000D01*
X92301428Y80973620D01*
X92110952Y80973620D01*
X92015714Y80926000D01*
X91920476Y80830762D01*
X91872857Y80640286D01*
X91872857Y80306953D01*
X91920476Y80116477D01*
X92015714Y80021239D01*
X92110952Y79973620D01*
X92301428Y79973620D01*
X91301428Y80545048D02*
X91396666Y80592667D01*
X91444285Y80640286D01*
X91491904Y80735524D01*
X91491904Y80783143D01*
X91444285Y80878381D01*
X91396666Y80926000D01*
X91301428Y80973620D01*
X91110952Y80973620D01*
X91015714Y80926000D01*
X90968095Y80878381D01*
X90920476Y80783143D01*
X90920476Y80735524D01*
X90968095Y80640286D01*
X91015714Y80592667D01*
X91110952Y80545048D01*
X91301428Y80545048D01*
X91396666Y80497429D01*
X91444285Y80449810D01*
X91491904Y80354572D01*
X91491904Y80164096D01*
X91444285Y80068858D01*
X91396666Y80021239D01*
X91301428Y79973620D01*
X91110952Y79973620D01*
X91015714Y80021239D01*
X90968095Y80068858D01*
X90920476Y80164096D01*
X90920476Y80354572D01*
X90968095Y80449810D01*
X91015714Y80497429D01*
X91110952Y80545048D01*
X102301428Y79878381D02*
X102396666Y79926000D01*
X102491904Y80021239D01*
X102634761Y80164096D01*
X102730000Y80211715D01*
X102825238Y80211715D01*
X102777619Y79973620D02*
X102872857Y80021239D01*
X102968095Y80116477D01*
X103015714Y80306953D01*
X103015714Y80640286D01*
X102968095Y80830762D01*
X102872857Y80926000D01*
X102777619Y80973620D01*
X102587142Y80973620D01*
X102491904Y80926000D01*
X102396666Y80830762D01*
X102349047Y80640286D01*
X102349047Y80306953D01*
X102396666Y80116477D01*
X102491904Y80021239D01*
X102587142Y79973620D01*
X102777619Y79973620D01*
X102015714Y80973620D02*
X101396666Y80973620D01*
X101730000Y80592667D01*
X101587142Y80592667D01*
X101491904Y80545048D01*
X101444285Y80497429D01*
X101396666Y80402191D01*
X101396666Y80164096D01*
X101444285Y80068858D01*
X101491904Y80021239D01*
X101587142Y79973620D01*
X101872857Y79973620D01*
X101968095Y80021239D01*
X102015714Y80068858D01*
X100444285Y79973620D02*
X101015714Y79973620D01*
X100730000Y79973620D02*
X100730000Y80973620D01*
X100825238Y80830762D01*
X100920476Y80735524D01*
X101015714Y80687905D01*
X69341428Y79952381D02*
X69436666Y80000000D01*
X69531904Y80095239D01*
X69674761Y80238096D01*
X69770000Y80285715D01*
X69865238Y80285715D01*
X69817619Y80047620D02*
X69912857Y80095239D01*
X70008095Y80190477D01*
X70055714Y80380953D01*
X70055714Y80714286D01*
X70008095Y80904762D01*
X69912857Y81000000D01*
X69817619Y81047620D01*
X69627142Y81047620D01*
X69531904Y81000000D01*
X69436666Y80904762D01*
X69389047Y80714286D01*
X69389047Y80380953D01*
X69436666Y80190477D01*
X69531904Y80095239D01*
X69627142Y80047620D01*
X69817619Y80047620D01*
X68436666Y80047620D02*
X69008095Y80047620D01*
X68722380Y80047620D02*
X68722380Y81047620D01*
X68817619Y80904762D01*
X68912857Y80809524D01*
X69008095Y80761905D01*
X67817619Y81047620D02*
X67722380Y81047620D01*
X67627142Y81000000D01*
X67579523Y80952381D01*
X67531904Y80857143D01*
X67484285Y80666667D01*
X67484285Y80428572D01*
X67531904Y80238096D01*
X67579523Y80142858D01*
X67627142Y80095239D01*
X67722380Y80047620D01*
X67817619Y80047620D01*
X67912857Y80095239D01*
X67960476Y80142858D01*
X68008095Y80238096D01*
X68055714Y80428572D01*
X68055714Y80666667D01*
X68008095Y80857143D01*
X67960476Y80952381D01*
X67912857Y81000000D01*
X67817619Y81047620D01*
X63821428Y76952381D02*
X63916666Y77000000D01*
X64011904Y77095239D01*
X64154761Y77238096D01*
X64250000Y77285715D01*
X64345238Y77285715D01*
X64297619Y77047620D02*
X64392857Y77095239D01*
X64488095Y77190477D01*
X64535714Y77380953D01*
X64535714Y77714286D01*
X64488095Y77904762D01*
X64392857Y78000000D01*
X64297619Y78047620D01*
X64107142Y78047620D01*
X64011904Y78000000D01*
X63916666Y77904762D01*
X63869047Y77714286D01*
X63869047Y77380953D01*
X63916666Y77190477D01*
X64011904Y77095239D01*
X64107142Y77047620D01*
X64297619Y77047620D01*
X63488095Y77952381D02*
X63440476Y78000000D01*
X63345238Y78047620D01*
X63107142Y78047620D01*
X63011904Y78000000D01*
X62964285Y77952381D01*
X62916666Y77857143D01*
X62916666Y77761905D01*
X62964285Y77619048D01*
X63535714Y77047620D01*
X62916666Y77047620D01*
X62059523Y77714286D02*
X62059523Y77047620D01*
X62297619Y78095239D02*
X62535714Y77380953D01*
X61916666Y77380953D01*
X78047619Y98325239D02*
X78000000Y98420477D01*
X77904761Y98515715D01*
X77761904Y98658572D01*
X77714285Y98753810D01*
X77714285Y98849048D01*
X77952380Y98801429D02*
X77904761Y98896667D01*
X77809523Y98991905D01*
X77619047Y99039524D01*
X77285714Y99039524D01*
X77095238Y98991905D01*
X77000000Y98896667D01*
X76952380Y98801429D01*
X76952380Y98610953D01*
X77000000Y98515715D01*
X77095238Y98420477D01*
X77285714Y98372858D01*
X77619047Y98372858D01*
X77809523Y98420477D01*
X77904761Y98515715D01*
X77952380Y98610953D01*
X77952380Y98801429D01*
X77952380Y97420477D02*
X77952380Y97991905D01*
X77952380Y97706191D02*
X76952380Y97706191D01*
X77095238Y97801429D01*
X77190476Y97896667D01*
X77238095Y97991905D01*
X78547619Y108825239D02*
X78500000Y108920477D01*
X78404761Y109015715D01*
X78261904Y109158572D01*
X78214285Y109253810D01*
X78214285Y109349048D01*
X78452380Y109301429D02*
X78404761Y109396667D01*
X78309523Y109491905D01*
X78119047Y109539524D01*
X77785714Y109539524D01*
X77595238Y109491905D01*
X77500000Y109396667D01*
X77452380Y109301429D01*
X77452380Y109110953D01*
X77500000Y109015715D01*
X77595238Y108920477D01*
X77785714Y108872858D01*
X78119047Y108872858D01*
X78309523Y108920477D01*
X78404761Y109015715D01*
X78452380Y109110953D01*
X78452380Y109301429D01*
X77547619Y108491905D02*
X77500000Y108444286D01*
X77452380Y108349048D01*
X77452380Y108110953D01*
X77500000Y108015715D01*
X77547619Y107968096D01*
X77642857Y107920477D01*
X77738095Y107920477D01*
X77880952Y107968096D01*
X78452380Y108539524D01*
X78452380Y107920477D01*
X78547619Y118325239D02*
X78500000Y118420477D01*
X78404761Y118515715D01*
X78261904Y118658572D01*
X78214285Y118753810D01*
X78214285Y118849048D01*
X78452380Y118801429D02*
X78404761Y118896667D01*
X78309523Y118991905D01*
X78119047Y119039524D01*
X77785714Y119039524D01*
X77595238Y118991905D01*
X77500000Y118896667D01*
X77452380Y118801429D01*
X77452380Y118610953D01*
X77500000Y118515715D01*
X77595238Y118420477D01*
X77785714Y118372858D01*
X78119047Y118372858D01*
X78309523Y118420477D01*
X78404761Y118515715D01*
X78452380Y118610953D01*
X78452380Y118801429D01*
X77452380Y118039524D02*
X77452380Y117420477D01*
X77833333Y117753810D01*
X77833333Y117610953D01*
X77880952Y117515715D01*
X77928571Y117468096D01*
X78023809Y117420477D01*
X78261904Y117420477D01*
X78357142Y117468096D01*
X78404761Y117515715D01*
X78452380Y117610953D01*
X78452380Y117896667D01*
X78404761Y117991905D01*
X78357142Y118039524D01*
X78047619Y22341429D02*
X78000000Y22436667D01*
X77904761Y22531905D01*
X77761904Y22674762D01*
X77714285Y22770000D01*
X77714285Y22865239D01*
X77952380Y22817620D02*
X77904761Y22912858D01*
X77809523Y23008096D01*
X77619047Y23055715D01*
X77285714Y23055715D01*
X77095238Y23008096D01*
X77000000Y22912858D01*
X76952380Y22817620D01*
X76952380Y22627143D01*
X77000000Y22531905D01*
X77095238Y22436667D01*
X77285714Y22389048D01*
X77619047Y22389048D01*
X77809523Y22436667D01*
X77904761Y22531905D01*
X77952380Y22627143D01*
X77952380Y22817620D01*
X77952380Y21436667D02*
X77952380Y22008096D01*
X77952380Y21722381D02*
X76952380Y21722381D01*
X77095238Y21817620D01*
X77190476Y21912858D01*
X77238095Y22008096D01*
X77285714Y20579524D02*
X77952380Y20579524D01*
X76904761Y20817620D02*
X77619047Y21055715D01*
X77619047Y20436667D01*
X78047619Y12341429D02*
X78000000Y12436667D01*
X77904761Y12531905D01*
X77761904Y12674762D01*
X77714285Y12770000D01*
X77714285Y12865239D01*
X77952380Y12817620D02*
X77904761Y12912858D01*
X77809523Y13008096D01*
X77619047Y13055715D01*
X77285714Y13055715D01*
X77095238Y13008096D01*
X77000000Y12912858D01*
X76952380Y12817620D01*
X76952380Y12627143D01*
X77000000Y12531905D01*
X77095238Y12436667D01*
X77285714Y12389048D01*
X77619047Y12389048D01*
X77809523Y12436667D01*
X77904761Y12531905D01*
X77952380Y12627143D01*
X77952380Y12817620D01*
X77952380Y11436667D02*
X77952380Y12008096D01*
X77952380Y11722381D02*
X76952380Y11722381D01*
X77095238Y11817620D01*
X77190476Y11912858D01*
X77238095Y12008096D01*
X76952380Y10531905D02*
X76952380Y11008096D01*
X77428571Y11055715D01*
X77380952Y11008096D01*
X77333333Y10912858D01*
X77333333Y10674762D01*
X77380952Y10579524D01*
X77428571Y10531905D01*
X77523809Y10484286D01*
X77761904Y10484286D01*
X77857142Y10531905D01*
X77904761Y10579524D01*
X77952380Y10674762D01*
X77952380Y10912858D01*
X77904761Y11008096D01*
X77857142Y11055715D01*
X53341428Y76878381D02*
X53436666Y76926000D01*
X53531904Y77021239D01*
X53674761Y77164096D01*
X53770000Y77211715D01*
X53865238Y77211715D01*
X53817619Y76973620D02*
X53912857Y77021239D01*
X54008095Y77116477D01*
X54055714Y77306953D01*
X54055714Y77640286D01*
X54008095Y77830762D01*
X53912857Y77926000D01*
X53817619Y77973620D01*
X53627142Y77973620D01*
X53531904Y77926000D01*
X53436666Y77830762D01*
X53389047Y77640286D01*
X53389047Y77306953D01*
X53436666Y77116477D01*
X53531904Y77021239D01*
X53627142Y76973620D01*
X53817619Y76973620D01*
X52436666Y76973620D02*
X53008095Y76973620D01*
X52722380Y76973620D02*
X52722380Y77973620D01*
X52817619Y77830762D01*
X52912857Y77735524D01*
X53008095Y77687905D01*
X51865238Y77545048D02*
X51960476Y77592667D01*
X52008095Y77640286D01*
X52055714Y77735524D01*
X52055714Y77783143D01*
X52008095Y77878381D01*
X51960476Y77926000D01*
X51865238Y77973620D01*
X51674761Y77973620D01*
X51579523Y77926000D01*
X51531904Y77878381D01*
X51484285Y77783143D01*
X51484285Y77735524D01*
X51531904Y77640286D01*
X51579523Y77592667D01*
X51674761Y77545048D01*
X51865238Y77545048D01*
X51960476Y77497429D01*
X52008095Y77449810D01*
X52055714Y77354572D01*
X52055714Y77164096D01*
X52008095Y77068858D01*
X51960476Y77021239D01*
X51865238Y76973620D01*
X51674761Y76973620D01*
X51579523Y77021239D01*
X51531904Y77068858D01*
X51484285Y77164096D01*
X51484285Y77354572D01*
X51531904Y77449810D01*
X51579523Y77497429D01*
X51674761Y77545048D01*
X43341428Y76878381D02*
X43436666Y76926000D01*
X43531904Y77021239D01*
X43674761Y77164096D01*
X43770000Y77211715D01*
X43865238Y77211715D01*
X43817619Y76973620D02*
X43912857Y77021239D01*
X44008095Y77116477D01*
X44055714Y77306953D01*
X44055714Y77640286D01*
X44008095Y77830762D01*
X43912857Y77926000D01*
X43817619Y77973620D01*
X43627142Y77973620D01*
X43531904Y77926000D01*
X43436666Y77830762D01*
X43389047Y77640286D01*
X43389047Y77306953D01*
X43436666Y77116477D01*
X43531904Y77021239D01*
X43627142Y76973620D01*
X43817619Y76973620D01*
X42436666Y76973620D02*
X43008095Y76973620D01*
X42722380Y76973620D02*
X42722380Y77973620D01*
X42817619Y77830762D01*
X42912857Y77735524D01*
X43008095Y77687905D01*
X41960476Y76973620D02*
X41770000Y76973620D01*
X41674761Y77021239D01*
X41627142Y77068858D01*
X41531904Y77211715D01*
X41484285Y77402191D01*
X41484285Y77783143D01*
X41531904Y77878381D01*
X41579523Y77926000D01*
X41674761Y77973620D01*
X41865238Y77973620D01*
X41960476Y77926000D01*
X42008095Y77878381D01*
X42055714Y77783143D01*
X42055714Y77545048D01*
X42008095Y77449810D01*
X41960476Y77402191D01*
X41865238Y77354572D01*
X41674761Y77354572D01*
X41579523Y77402191D01*
X41531904Y77449810D01*
X41484285Y77545048D01*
X33341428Y76878381D02*
X33436666Y76926000D01*
X33531904Y77021239D01*
X33674761Y77164096D01*
X33770000Y77211715D01*
X33865238Y77211715D01*
X33817619Y76973620D02*
X33912857Y77021239D01*
X34008095Y77116477D01*
X34055714Y77306953D01*
X34055714Y77640286D01*
X34008095Y77830762D01*
X33912857Y77926000D01*
X33817619Y77973620D01*
X33627142Y77973620D01*
X33531904Y77926000D01*
X33436666Y77830762D01*
X33389047Y77640286D01*
X33389047Y77306953D01*
X33436666Y77116477D01*
X33531904Y77021239D01*
X33627142Y76973620D01*
X33817619Y76973620D01*
X33008095Y77878381D02*
X32960476Y77926000D01*
X32865238Y77973620D01*
X32627142Y77973620D01*
X32531904Y77926000D01*
X32484285Y77878381D01*
X32436666Y77783143D01*
X32436666Y77687905D01*
X32484285Y77545048D01*
X33055714Y76973620D01*
X32436666Y76973620D01*
X31817619Y77973620D02*
X31722380Y77973620D01*
X31627142Y77926000D01*
X31579523Y77878381D01*
X31531904Y77783143D01*
X31484285Y77592667D01*
X31484285Y77354572D01*
X31531904Y77164096D01*
X31579523Y77068858D01*
X31627142Y77021239D01*
X31722380Y76973620D01*
X31817619Y76973620D01*
X31912857Y77021239D01*
X31960476Y77068858D01*
X32008095Y77164096D01*
X32055714Y77354572D01*
X32055714Y77592667D01*
X32008095Y77783143D01*
X31960476Y77878381D01*
X31912857Y77926000D01*
X31817619Y77973620D01*
X23341428Y76878381D02*
X23436666Y76926000D01*
X23531904Y77021239D01*
X23674761Y77164096D01*
X23770000Y77211715D01*
X23865238Y77211715D01*
X23817619Y76973620D02*
X23912857Y77021239D01*
X24008095Y77116477D01*
X24055714Y77306953D01*
X24055714Y77640286D01*
X24008095Y77830762D01*
X23912857Y77926000D01*
X23817619Y77973620D01*
X23627142Y77973620D01*
X23531904Y77926000D01*
X23436666Y77830762D01*
X23389047Y77640286D01*
X23389047Y77306953D01*
X23436666Y77116477D01*
X23531904Y77021239D01*
X23627142Y76973620D01*
X23817619Y76973620D01*
X23008095Y77878381D02*
X22960476Y77926000D01*
X22865238Y77973620D01*
X22627142Y77973620D01*
X22531904Y77926000D01*
X22484285Y77878381D01*
X22436666Y77783143D01*
X22436666Y77687905D01*
X22484285Y77545048D01*
X23055714Y76973620D01*
X22436666Y76973620D01*
X21484285Y76973620D02*
X22055714Y76973620D01*
X21770000Y76973620D02*
X21770000Y77973620D01*
X21865238Y77830762D01*
X21960476Y77735524D01*
X22055714Y77687905D01*
X13341428Y76952381D02*
X13436666Y77000000D01*
X13531904Y77095239D01*
X13674761Y77238096D01*
X13770000Y77285715D01*
X13865238Y77285715D01*
X13817619Y77047620D02*
X13912857Y77095239D01*
X14008095Y77190477D01*
X14055714Y77380953D01*
X14055714Y77714286D01*
X14008095Y77904762D01*
X13912857Y78000000D01*
X13817619Y78047620D01*
X13627142Y78047620D01*
X13531904Y78000000D01*
X13436666Y77904762D01*
X13389047Y77714286D01*
X13389047Y77380953D01*
X13436666Y77190477D01*
X13531904Y77095239D01*
X13627142Y77047620D01*
X13817619Y77047620D01*
X13008095Y77952381D02*
X12960476Y78000000D01*
X12865238Y78047620D01*
X12627142Y78047620D01*
X12531904Y78000000D01*
X12484285Y77952381D01*
X12436666Y77857143D01*
X12436666Y77761905D01*
X12484285Y77619048D01*
X13055714Y77047620D01*
X12436666Y77047620D01*
X12055714Y77952381D02*
X12008095Y78000000D01*
X11912857Y78047620D01*
X11674761Y78047620D01*
X11579523Y78000000D01*
X11531904Y77952381D01*
X11484285Y77857143D01*
X11484285Y77761905D01*
X11531904Y77619048D01*
X12103333Y77047620D01*
X11484285Y77047620D01*
X107321428Y76878381D02*
X107416666Y76926000D01*
X107511904Y77021239D01*
X107654761Y77164096D01*
X107750000Y77211715D01*
X107845238Y77211715D01*
X107797619Y76973620D02*
X107892857Y77021239D01*
X107988095Y77116477D01*
X108035714Y77306953D01*
X108035714Y77640286D01*
X107988095Y77830762D01*
X107892857Y77926000D01*
X107797619Y77973620D01*
X107607142Y77973620D01*
X107511904Y77926000D01*
X107416666Y77830762D01*
X107369047Y77640286D01*
X107369047Y77306953D01*
X107416666Y77116477D01*
X107511904Y77021239D01*
X107607142Y76973620D01*
X107797619Y76973620D01*
X106988095Y77878381D02*
X106940476Y77926000D01*
X106845238Y77973620D01*
X106607142Y77973620D01*
X106511904Y77926000D01*
X106464285Y77878381D01*
X106416666Y77783143D01*
X106416666Y77687905D01*
X106464285Y77545048D01*
X107035714Y76973620D01*
X106416666Y76973620D01*
X105511904Y77973620D02*
X105988095Y77973620D01*
X106035714Y77497429D01*
X105988095Y77545048D01*
X105892857Y77592667D01*
X105654761Y77592667D01*
X105559523Y77545048D01*
X105511904Y77497429D01*
X105464285Y77402191D01*
X105464285Y77164096D01*
X105511904Y77068858D01*
X105559523Y77021239D01*
X105654761Y76973620D01*
X105892857Y76973620D01*
X105988095Y77021239D01*
X106035714Y77068858D01*
X117801428Y76878381D02*
X117896666Y76926000D01*
X117991904Y77021239D01*
X118134761Y77164096D01*
X118230000Y77211715D01*
X118325238Y77211715D01*
X118277619Y76973620D02*
X118372857Y77021239D01*
X118468095Y77116477D01*
X118515714Y77306953D01*
X118515714Y77640286D01*
X118468095Y77830762D01*
X118372857Y77926000D01*
X118277619Y77973620D01*
X118087142Y77973620D01*
X117991904Y77926000D01*
X117896666Y77830762D01*
X117849047Y77640286D01*
X117849047Y77306953D01*
X117896666Y77116477D01*
X117991904Y77021239D01*
X118087142Y76973620D01*
X118277619Y76973620D01*
X117468095Y77878381D02*
X117420476Y77926000D01*
X117325238Y77973620D01*
X117087142Y77973620D01*
X116991904Y77926000D01*
X116944285Y77878381D01*
X116896666Y77783143D01*
X116896666Y77687905D01*
X116944285Y77545048D01*
X117515714Y76973620D01*
X116896666Y76973620D01*
X116039523Y77973620D02*
X116230000Y77973620D01*
X116325238Y77926000D01*
X116372857Y77878381D01*
X116468095Y77735524D01*
X116515714Y77545048D01*
X116515714Y77164096D01*
X116468095Y77068858D01*
X116420476Y77021239D01*
X116325238Y76973620D01*
X116134761Y76973620D01*
X116039523Y77021239D01*
X115991904Y77068858D01*
X115944285Y77164096D01*
X115944285Y77402191D01*
X115991904Y77497429D01*
X116039523Y77545048D01*
X116134761Y77592667D01*
X116325238Y77592667D01*
X116420476Y77545048D01*
X116468095Y77497429D01*
X116515714Y77402191D01*
X127801428Y76878381D02*
X127896666Y76926000D01*
X127991904Y77021239D01*
X128134761Y77164096D01*
X128230000Y77211715D01*
X128325238Y77211715D01*
X128277619Y76973620D02*
X128372857Y77021239D01*
X128468095Y77116477D01*
X128515714Y77306953D01*
X128515714Y77640286D01*
X128468095Y77830762D01*
X128372857Y77926000D01*
X128277619Y77973620D01*
X128087142Y77973620D01*
X127991904Y77926000D01*
X127896666Y77830762D01*
X127849047Y77640286D01*
X127849047Y77306953D01*
X127896666Y77116477D01*
X127991904Y77021239D01*
X128087142Y76973620D01*
X128277619Y76973620D01*
X127468095Y77878381D02*
X127420476Y77926000D01*
X127325238Y77973620D01*
X127087142Y77973620D01*
X126991904Y77926000D01*
X126944285Y77878381D01*
X126896666Y77783143D01*
X126896666Y77687905D01*
X126944285Y77545048D01*
X127515714Y76973620D01*
X126896666Y76973620D01*
X126563333Y77973620D02*
X125896666Y77973620D01*
X126325238Y76973620D01*
X137801428Y76878381D02*
X137896666Y76926000D01*
X137991904Y77021239D01*
X138134761Y77164096D01*
X138230000Y77211715D01*
X138325238Y77211715D01*
X138277619Y76973620D02*
X138372857Y77021239D01*
X138468095Y77116477D01*
X138515714Y77306953D01*
X138515714Y77640286D01*
X138468095Y77830762D01*
X138372857Y77926000D01*
X138277619Y77973620D01*
X138087142Y77973620D01*
X137991904Y77926000D01*
X137896666Y77830762D01*
X137849047Y77640286D01*
X137849047Y77306953D01*
X137896666Y77116477D01*
X137991904Y77021239D01*
X138087142Y76973620D01*
X138277619Y76973620D01*
X137468095Y77878381D02*
X137420476Y77926000D01*
X137325238Y77973620D01*
X137087142Y77973620D01*
X136991904Y77926000D01*
X136944285Y77878381D01*
X136896666Y77783143D01*
X136896666Y77687905D01*
X136944285Y77545048D01*
X137515714Y76973620D01*
X136896666Y76973620D01*
X136325238Y77545048D02*
X136420476Y77592667D01*
X136468095Y77640286D01*
X136515714Y77735524D01*
X136515714Y77783143D01*
X136468095Y77878381D01*
X136420476Y77926000D01*
X136325238Y77973620D01*
X136134761Y77973620D01*
X136039523Y77926000D01*
X135991904Y77878381D01*
X135944285Y77783143D01*
X135944285Y77735524D01*
X135991904Y77640286D01*
X136039523Y77592667D01*
X136134761Y77545048D01*
X136325238Y77545048D01*
X136420476Y77497429D01*
X136468095Y77449810D01*
X136515714Y77354572D01*
X136515714Y77164096D01*
X136468095Y77068858D01*
X136420476Y77021239D01*
X136325238Y76973620D01*
X136134761Y76973620D01*
X136039523Y77021239D01*
X135991904Y77068858D01*
X135944285Y77164096D01*
X135944285Y77354572D01*
X135991904Y77449810D01*
X136039523Y77497429D01*
X136134761Y77545048D01*
X147801428Y76878381D02*
X147896666Y76926000D01*
X147991904Y77021239D01*
X148134761Y77164096D01*
X148230000Y77211715D01*
X148325238Y77211715D01*
X148277619Y76973620D02*
X148372857Y77021239D01*
X148468095Y77116477D01*
X148515714Y77306953D01*
X148515714Y77640286D01*
X148468095Y77830762D01*
X148372857Y77926000D01*
X148277619Y77973620D01*
X148087142Y77973620D01*
X147991904Y77926000D01*
X147896666Y77830762D01*
X147849047Y77640286D01*
X147849047Y77306953D01*
X147896666Y77116477D01*
X147991904Y77021239D01*
X148087142Y76973620D01*
X148277619Y76973620D01*
X147468095Y77878381D02*
X147420476Y77926000D01*
X147325238Y77973620D01*
X147087142Y77973620D01*
X146991904Y77926000D01*
X146944285Y77878381D01*
X146896666Y77783143D01*
X146896666Y77687905D01*
X146944285Y77545048D01*
X147515714Y76973620D01*
X146896666Y76973620D01*
X146420476Y76973620D02*
X146230000Y76973620D01*
X146134761Y77021239D01*
X146087142Y77068858D01*
X145991904Y77211715D01*
X145944285Y77402191D01*
X145944285Y77783143D01*
X145991904Y77878381D01*
X146039523Y77926000D01*
X146134761Y77973620D01*
X146325238Y77973620D01*
X146420476Y77926000D01*
X146468095Y77878381D01*
X146515714Y77783143D01*
X146515714Y77545048D01*
X146468095Y77449810D01*
X146420476Y77402191D01*
X146325238Y77354572D01*
X146134761Y77354572D01*
X146039523Y77402191D01*
X145991904Y77449810D01*
X145944285Y77545048D01*
X82952380Y89238096D02*
X81952380Y89238096D01*
X81952380Y89000000D01*
X82000000Y88857143D01*
X82095238Y88761905D01*
X82190476Y88714286D01*
X82380952Y88666667D01*
X82523809Y88666667D01*
X82714285Y88714286D01*
X82809523Y88761905D01*
X82904761Y88857143D01*
X82952380Y89000000D01*
X82952380Y89238096D01*
X81952380Y87761905D02*
X81952380Y88238096D01*
X82428571Y88285715D01*
X82380952Y88238096D01*
X82333333Y88142858D01*
X82333333Y87904762D01*
X82380952Y87809524D01*
X82428571Y87761905D01*
X82523809Y87714286D01*
X82761904Y87714286D01*
X82857142Y87761905D01*
X82904761Y87809524D01*
X82952380Y87904762D01*
X82952380Y88142858D01*
X82904761Y88238096D01*
X82857142Y88285715D01*
X78447619Y88595239D02*
X78400000Y88690477D01*
X78304761Y88785715D01*
X78161904Y88928572D01*
X78114285Y89023810D01*
X78114285Y89119048D01*
X78352380Y89071429D02*
X78304761Y89166667D01*
X78209523Y89261905D01*
X78019047Y89309524D01*
X77685714Y89309524D01*
X77495238Y89261905D01*
X77400000Y89166667D01*
X77352380Y89071429D01*
X77352380Y88880953D01*
X77400000Y88785715D01*
X77495238Y88690477D01*
X77685714Y88642858D01*
X78019047Y88642858D01*
X78209523Y88690477D01*
X78304761Y88785715D01*
X78352380Y88880953D01*
X78352380Y89071429D01*
X77352380Y87738096D02*
X77352380Y88214286D01*
X77828571Y88261905D01*
X77780952Y88214286D01*
X77733333Y88119048D01*
X77733333Y87880953D01*
X77780952Y87785715D01*
X77828571Y87738096D01*
X77923809Y87690477D01*
X78161904Y87690477D01*
X78257142Y87738096D01*
X78304761Y87785715D01*
X78352380Y87880953D01*
X78352380Y88119048D01*
X78304761Y88214286D01*
X78257142Y88261905D01*
X108214285Y72047620D02*
X108214285Y73047620D01*
X107976190Y73047620D01*
X107833333Y73000000D01*
X107738095Y72904762D01*
X107690476Y72809524D01*
X107642857Y72619048D01*
X107642857Y72476191D01*
X107690476Y72285715D01*
X107738095Y72190477D01*
X107833333Y72095239D01*
X107976190Y72047620D01*
X108214285Y72047620D01*
X107261904Y72952381D02*
X107214285Y73000000D01*
X107119047Y73047620D01*
X106880952Y73047620D01*
X106785714Y73000000D01*
X106738095Y72952381D01*
X106690476Y72857143D01*
X106690476Y72761905D01*
X106738095Y72619048D01*
X107309523Y72047620D01*
X106690476Y72047620D01*
X105785714Y73047620D02*
X106261904Y73047620D01*
X106309523Y72571429D01*
X106261904Y72619048D01*
X106166666Y72666667D01*
X105928571Y72666667D01*
X105833333Y72619048D01*
X105785714Y72571429D01*
X105738095Y72476191D01*
X105738095Y72238096D01*
X105785714Y72142858D01*
X105833333Y72095239D01*
X105928571Y72047620D01*
X106166666Y72047620D01*
X106261904Y72095239D01*
X106309523Y72142858D01*
X13944285Y71973620D02*
X13944285Y72973620D01*
X13706190Y72973620D01*
X13563333Y72926000D01*
X13468095Y72830762D01*
X13420476Y72735524D01*
X13372857Y72545048D01*
X13372857Y72402191D01*
X13420476Y72211715D01*
X13468095Y72116477D01*
X13563333Y72021239D01*
X13706190Y71973620D01*
X13944285Y71973620D01*
X12991904Y72878381D02*
X12944285Y72926000D01*
X12849047Y72973620D01*
X12610952Y72973620D01*
X12515714Y72926000D01*
X12468095Y72878381D01*
X12420476Y72783143D01*
X12420476Y72687905D01*
X12468095Y72545048D01*
X13039523Y71973620D01*
X12420476Y71973620D01*
X12039523Y72878381D02*
X11991904Y72926000D01*
X11896666Y72973620D01*
X11658571Y72973620D01*
X11563333Y72926000D01*
X11515714Y72878381D01*
X11468095Y72783143D01*
X11468095Y72687905D01*
X11515714Y72545048D01*
X12087142Y71973620D01*
X11468095Y71973620D01*
X53944285Y71973620D02*
X53944285Y72973620D01*
X53706190Y72973620D01*
X53563333Y72926000D01*
X53468095Y72830762D01*
X53420476Y72735524D01*
X53372857Y72545048D01*
X53372857Y72402191D01*
X53420476Y72211715D01*
X53468095Y72116477D01*
X53563333Y72021239D01*
X53706190Y71973620D01*
X53944285Y71973620D01*
X52420476Y71973620D02*
X52991904Y71973620D01*
X52706190Y71973620D02*
X52706190Y72973620D01*
X52801428Y72830762D01*
X52896666Y72735524D01*
X52991904Y72687905D01*
X51849047Y72545048D02*
X51944285Y72592667D01*
X51991904Y72640286D01*
X52039523Y72735524D01*
X52039523Y72783143D01*
X51991904Y72878381D01*
X51944285Y72926000D01*
X51849047Y72973620D01*
X51658571Y72973620D01*
X51563333Y72926000D01*
X51515714Y72878381D01*
X51468095Y72783143D01*
X51468095Y72735524D01*
X51515714Y72640286D01*
X51563333Y72592667D01*
X51658571Y72545048D01*
X51849047Y72545048D01*
X51944285Y72497429D01*
X51991904Y72449810D01*
X52039523Y72354572D01*
X52039523Y72164096D01*
X51991904Y72068858D01*
X51944285Y72021239D01*
X51849047Y71973620D01*
X51658571Y71973620D01*
X51563333Y72021239D01*
X51515714Y72068858D01*
X51468095Y72164096D01*
X51468095Y72354572D01*
X51515714Y72449810D01*
X51563333Y72497429D01*
X51658571Y72545048D01*
X148484285Y72047620D02*
X148484285Y73047620D01*
X148246190Y73047620D01*
X148103333Y73000000D01*
X148008095Y72904762D01*
X147960476Y72809524D01*
X147912857Y72619048D01*
X147912857Y72476191D01*
X147960476Y72285715D01*
X148008095Y72190477D01*
X148103333Y72095239D01*
X148246190Y72047620D01*
X148484285Y72047620D01*
X147531904Y72952381D02*
X147484285Y73000000D01*
X147389047Y73047620D01*
X147150952Y73047620D01*
X147055714Y73000000D01*
X147008095Y72952381D01*
X146960476Y72857143D01*
X146960476Y72761905D01*
X147008095Y72619048D01*
X147579523Y72047620D01*
X146960476Y72047620D01*
X146484285Y72047620D02*
X146293809Y72047620D01*
X146198571Y72095239D01*
X146150952Y72142858D01*
X146055714Y72285715D01*
X146008095Y72476191D01*
X146008095Y72857143D01*
X146055714Y72952381D01*
X146103333Y73000000D01*
X146198571Y73047620D01*
X146389047Y73047620D01*
X146484285Y73000000D01*
X146531904Y72952381D01*
X146579523Y72857143D01*
X146579523Y72619048D01*
X146531904Y72523810D01*
X146484285Y72476191D01*
X146389047Y72428572D01*
X146198571Y72428572D01*
X146103333Y72476191D01*
X146055714Y72523810D01*
X146008095Y72619048D01*
X138484285Y72047620D02*
X138484285Y73047620D01*
X138246190Y73047620D01*
X138103333Y73000000D01*
X138008095Y72904762D01*
X137960476Y72809524D01*
X137912857Y72619048D01*
X137912857Y72476191D01*
X137960476Y72285715D01*
X138008095Y72190477D01*
X138103333Y72095239D01*
X138246190Y72047620D01*
X138484285Y72047620D01*
X137531904Y72952381D02*
X137484285Y73000000D01*
X137389047Y73047620D01*
X137150952Y73047620D01*
X137055714Y73000000D01*
X137008095Y72952381D01*
X136960476Y72857143D01*
X136960476Y72761905D01*
X137008095Y72619048D01*
X137579523Y72047620D01*
X136960476Y72047620D01*
X136389047Y72619048D02*
X136484285Y72666667D01*
X136531904Y72714286D01*
X136579523Y72809524D01*
X136579523Y72857143D01*
X136531904Y72952381D01*
X136484285Y73000000D01*
X136389047Y73047620D01*
X136198571Y73047620D01*
X136103333Y73000000D01*
X136055714Y72952381D01*
X136008095Y72857143D01*
X136008095Y72809524D01*
X136055714Y72714286D01*
X136103333Y72666667D01*
X136198571Y72619048D01*
X136389047Y72619048D01*
X136484285Y72571429D01*
X136531904Y72523810D01*
X136579523Y72428572D01*
X136579523Y72238096D01*
X136531904Y72142858D01*
X136484285Y72095239D01*
X136389047Y72047620D01*
X136198571Y72047620D01*
X136103333Y72095239D01*
X136055714Y72142858D01*
X136008095Y72238096D01*
X136008095Y72428572D01*
X136055714Y72523810D01*
X136103333Y72571429D01*
X136198571Y72619048D01*
X128484285Y72047620D02*
X128484285Y73047620D01*
X128246190Y73047620D01*
X128103333Y73000000D01*
X128008095Y72904762D01*
X127960476Y72809524D01*
X127912857Y72619048D01*
X127912857Y72476191D01*
X127960476Y72285715D01*
X128008095Y72190477D01*
X128103333Y72095239D01*
X128246190Y72047620D01*
X128484285Y72047620D01*
X127531904Y72952381D02*
X127484285Y73000000D01*
X127389047Y73047620D01*
X127150952Y73047620D01*
X127055714Y73000000D01*
X127008095Y72952381D01*
X126960476Y72857143D01*
X126960476Y72761905D01*
X127008095Y72619048D01*
X127579523Y72047620D01*
X126960476Y72047620D01*
X126627142Y73047620D02*
X125960476Y73047620D01*
X126389047Y72047620D01*
X118464285Y72047620D02*
X118464285Y73047620D01*
X118226190Y73047620D01*
X118083333Y73000000D01*
X117988095Y72904762D01*
X117940476Y72809524D01*
X117892857Y72619048D01*
X117892857Y72476191D01*
X117940476Y72285715D01*
X117988095Y72190477D01*
X118083333Y72095239D01*
X118226190Y72047620D01*
X118464285Y72047620D01*
X117511904Y72952381D02*
X117464285Y73000000D01*
X117369047Y73047620D01*
X117130952Y73047620D01*
X117035714Y73000000D01*
X116988095Y72952381D01*
X116940476Y72857143D01*
X116940476Y72761905D01*
X116988095Y72619048D01*
X117559523Y72047620D01*
X116940476Y72047620D01*
X116083333Y73047620D02*
X116273809Y73047620D01*
X116369047Y73000000D01*
X116416666Y72952381D01*
X116511904Y72809524D01*
X116559523Y72619048D01*
X116559523Y72238096D01*
X116511904Y72142858D01*
X116464285Y72095239D01*
X116369047Y72047620D01*
X116178571Y72047620D01*
X116083333Y72095239D01*
X116035714Y72142858D01*
X115988095Y72238096D01*
X115988095Y72476191D01*
X116035714Y72571429D01*
X116083333Y72619048D01*
X116178571Y72666667D01*
X116369047Y72666667D01*
X116464285Y72619048D01*
X116511904Y72571429D01*
X116559523Y72476191D01*
X102484285Y69047620D02*
X102484285Y70047620D01*
X102246190Y70047620D01*
X102103333Y70000000D01*
X102008095Y69904762D01*
X101960476Y69809524D01*
X101912857Y69619048D01*
X101912857Y69476191D01*
X101960476Y69285715D01*
X102008095Y69190477D01*
X102103333Y69095239D01*
X102246190Y69047620D01*
X102484285Y69047620D01*
X101579523Y70047620D02*
X100960476Y70047620D01*
X101293809Y69666667D01*
X101150952Y69666667D01*
X101055714Y69619048D01*
X101008095Y69571429D01*
X100960476Y69476191D01*
X100960476Y69238096D01*
X101008095Y69142858D01*
X101055714Y69095239D01*
X101150952Y69047620D01*
X101436666Y69047620D01*
X101531904Y69095239D01*
X101579523Y69142858D01*
X100008095Y69047620D02*
X100579523Y69047620D01*
X100293809Y69047620D02*
X100293809Y70047620D01*
X100389047Y69904762D01*
X100484285Y69809524D01*
X100579523Y69761905D01*
X92508095Y68973620D02*
X92508095Y69973620D01*
X92270000Y69973620D01*
X92127142Y69926000D01*
X92031904Y69830762D01*
X91984285Y69735524D01*
X91936666Y69545048D01*
X91936666Y69402191D01*
X91984285Y69211715D01*
X92031904Y69116477D01*
X92127142Y69021239D01*
X92270000Y68973620D01*
X92508095Y68973620D01*
X91365238Y69545048D02*
X91460476Y69592667D01*
X91508095Y69640286D01*
X91555714Y69735524D01*
X91555714Y69783143D01*
X91508095Y69878381D01*
X91460476Y69926000D01*
X91365238Y69973620D01*
X91174761Y69973620D01*
X91079523Y69926000D01*
X91031904Y69878381D01*
X90984285Y69783143D01*
X90984285Y69735524D01*
X91031904Y69640286D01*
X91079523Y69592667D01*
X91174761Y69545048D01*
X91365238Y69545048D01*
X91460476Y69497429D01*
X91508095Y69449810D01*
X91555714Y69354572D01*
X91555714Y69164096D01*
X91508095Y69068858D01*
X91460476Y69021239D01*
X91365238Y68973620D01*
X91174761Y68973620D01*
X91079523Y69021239D01*
X91031904Y69068858D01*
X90984285Y69164096D01*
X90984285Y69354572D01*
X91031904Y69449810D01*
X91079523Y69497429D01*
X91174761Y69545048D01*
X85952380Y68238096D02*
X84952380Y68238096D01*
X84952380Y68000000D01*
X85000000Y67857143D01*
X85095238Y67761905D01*
X85190476Y67714286D01*
X85380952Y67666667D01*
X85523809Y67666667D01*
X85714285Y67714286D01*
X85809523Y67761905D01*
X85904761Y67857143D01*
X85952380Y68000000D01*
X85952380Y68238096D01*
X85952380Y67190477D02*
X85952380Y67000000D01*
X85904761Y66904762D01*
X85857142Y66857143D01*
X85714285Y66761905D01*
X85523809Y66714286D01*
X85142857Y66714286D01*
X85047619Y66761905D01*
X85000000Y66809524D01*
X84952380Y66904762D01*
X84952380Y67095239D01*
X85000000Y67190477D01*
X85047619Y67238096D01*
X85142857Y67285715D01*
X85380952Y67285715D01*
X85476190Y67238096D01*
X85523809Y67190477D01*
X85571428Y67095239D01*
X85571428Y66904762D01*
X85523809Y66809524D01*
X85476190Y66761905D01*
X85380952Y66714286D01*
X75087619Y58071429D02*
X75040000Y58166667D01*
X74944761Y58261905D01*
X74801904Y58404762D01*
X74754285Y58500000D01*
X74754285Y58595239D01*
X74992380Y58547620D02*
X74944761Y58642858D01*
X74849523Y58738096D01*
X74659047Y58785715D01*
X74325714Y58785715D01*
X74135238Y58738096D01*
X74040000Y58642858D01*
X73992380Y58547620D01*
X73992380Y58357143D01*
X74040000Y58261905D01*
X74135238Y58166667D01*
X74325714Y58119048D01*
X74659047Y58119048D01*
X74849523Y58166667D01*
X74944761Y58261905D01*
X74992380Y58357143D01*
X74992380Y58547620D01*
X74992380Y57166667D02*
X74992380Y57738096D01*
X74992380Y57452381D02*
X73992380Y57452381D01*
X74135238Y57547620D01*
X74230476Y57642858D01*
X74278095Y57738096D01*
X73992380Y56309524D02*
X73992380Y56500000D01*
X74040000Y56595239D01*
X74087619Y56642858D01*
X74230476Y56738096D01*
X74420952Y56785715D01*
X74801904Y56785715D01*
X74897142Y56738096D01*
X74944761Y56690477D01*
X74992380Y56595239D01*
X74992380Y56404762D01*
X74944761Y56309524D01*
X74897142Y56261905D01*
X74801904Y56214286D01*
X74563809Y56214286D01*
X74468571Y56261905D01*
X74420952Y56309524D01*
X74373333Y56404762D01*
X74373333Y56595239D01*
X74420952Y56690477D01*
X74468571Y56738096D01*
X74563809Y56785715D01*
X78047619Y52341429D02*
X78000000Y52436667D01*
X77904761Y52531905D01*
X77761904Y52674762D01*
X77714285Y52770000D01*
X77714285Y52865239D01*
X77952380Y52817620D02*
X77904761Y52912858D01*
X77809523Y53008096D01*
X77619047Y53055715D01*
X77285714Y53055715D01*
X77095238Y53008096D01*
X77000000Y52912858D01*
X76952380Y52817620D01*
X76952380Y52627143D01*
X77000000Y52531905D01*
X77095238Y52436667D01*
X77285714Y52389048D01*
X77619047Y52389048D01*
X77809523Y52436667D01*
X77904761Y52531905D01*
X77952380Y52627143D01*
X77952380Y52817620D01*
X77952380Y51436667D02*
X77952380Y52008096D01*
X77952380Y51722381D02*
X76952380Y51722381D01*
X77095238Y51817620D01*
X77190476Y51912858D01*
X77238095Y52008096D01*
X77952380Y50484286D02*
X77952380Y51055715D01*
X77952380Y50770000D02*
X76952380Y50770000D01*
X77095238Y50865239D01*
X77190476Y50960477D01*
X77238095Y51055715D01*
X78047619Y32341429D02*
X78000000Y32436667D01*
X77904761Y32531905D01*
X77761904Y32674762D01*
X77714285Y32770000D01*
X77714285Y32865239D01*
X77952380Y32817620D02*
X77904761Y32912858D01*
X77809523Y33008096D01*
X77619047Y33055715D01*
X77285714Y33055715D01*
X77095238Y33008096D01*
X77000000Y32912858D01*
X76952380Y32817620D01*
X76952380Y32627143D01*
X77000000Y32531905D01*
X77095238Y32436667D01*
X77285714Y32389048D01*
X77619047Y32389048D01*
X77809523Y32436667D01*
X77904761Y32531905D01*
X77952380Y32627143D01*
X77952380Y32817620D01*
X77952380Y31436667D02*
X77952380Y32008096D01*
X77952380Y31722381D02*
X76952380Y31722381D01*
X77095238Y31817620D01*
X77190476Y31912858D01*
X77238095Y32008096D01*
X76952380Y31103334D02*
X76952380Y30484286D01*
X77333333Y30817620D01*
X77333333Y30674762D01*
X77380952Y30579524D01*
X77428571Y30531905D01*
X77523809Y30484286D01*
X77761904Y30484286D01*
X77857142Y30531905D01*
X77904761Y30579524D01*
X77952380Y30674762D01*
X77952380Y30960477D01*
X77904761Y31055715D01*
X77857142Y31103334D01*
X75087619Y67595239D02*
X75040000Y67690477D01*
X74944761Y67785715D01*
X74801904Y67928572D01*
X74754285Y68023810D01*
X74754285Y68119048D01*
X74992380Y68071429D02*
X74944761Y68166667D01*
X74849523Y68261905D01*
X74659047Y68309524D01*
X74325714Y68309524D01*
X74135238Y68261905D01*
X74040000Y68166667D01*
X73992380Y68071429D01*
X73992380Y67880953D01*
X74040000Y67785715D01*
X74135238Y67690477D01*
X74325714Y67642858D01*
X74659047Y67642858D01*
X74849523Y67690477D01*
X74944761Y67785715D01*
X74992380Y67880953D01*
X74992380Y68071429D01*
X74992380Y67166667D02*
X74992380Y66976191D01*
X74944761Y66880953D01*
X74897142Y66833334D01*
X74754285Y66738096D01*
X74563809Y66690477D01*
X74182857Y66690477D01*
X74087619Y66738096D01*
X74040000Y66785715D01*
X73992380Y66880953D01*
X73992380Y67071429D01*
X74040000Y67166667D01*
X74087619Y67214286D01*
X74182857Y67261905D01*
X74420952Y67261905D01*
X74516190Y67214286D01*
X74563809Y67166667D01*
X74611428Y67071429D01*
X74611428Y66880953D01*
X74563809Y66785715D01*
X74516190Y66738096D01*
X74420952Y66690477D01*
X78047619Y42341429D02*
X78000000Y42436667D01*
X77904761Y42531905D01*
X77761904Y42674762D01*
X77714285Y42770000D01*
X77714285Y42865239D01*
X77952380Y42817620D02*
X77904761Y42912858D01*
X77809523Y43008096D01*
X77619047Y43055715D01*
X77285714Y43055715D01*
X77095238Y43008096D01*
X77000000Y42912858D01*
X76952380Y42817620D01*
X76952380Y42627143D01*
X77000000Y42531905D01*
X77095238Y42436667D01*
X77285714Y42389048D01*
X77619047Y42389048D01*
X77809523Y42436667D01*
X77904761Y42531905D01*
X77952380Y42627143D01*
X77952380Y42817620D01*
X77952380Y41436667D02*
X77952380Y42008096D01*
X77952380Y41722381D02*
X76952380Y41722381D01*
X77095238Y41817620D01*
X77190476Y41912858D01*
X77238095Y42008096D01*
X77047619Y41055715D02*
X77000000Y41008096D01*
X76952380Y40912858D01*
X76952380Y40674762D01*
X77000000Y40579524D01*
X77047619Y40531905D01*
X77142857Y40484286D01*
X77238095Y40484286D01*
X77380952Y40531905D01*
X77952380Y41103334D01*
X77952380Y40484286D01*
D11*
X78736000Y73440000D02*
X78580000Y73440000D01*
X76420000Y73440000D02*
X76264000Y73440000D01*
X78735516Y73440000D02*
G75*
G03*
X78578608Y76672335I-1235517J1560000D01*
G01*
X78580000Y73959039D02*
G75*
G03*
X78579837Y76041130I-1080000J1040961D01*
G01*
X76420163Y76041130D02*
G75*
G03*
X76420000Y73959039I1079837J-1041130D01*
G01*
X76421392Y76672335D02*
G75*
G03*
X76264484Y73440000I1078609J-1672335D01*
G01*
X81264000Y84060000D02*
X81420000Y84060000D01*
X83580000Y84060000D02*
X83736000Y84060000D01*
X81420000Y83540961D02*
G75*
G03*
X81420163Y81458870I1080000J-1040961D01*
G01*
X81264484Y84060000D02*
G75*
G03*
X81421392Y80827665I1235517J-1560000D01*
G01*
X83578608Y80827665D02*
G75*
G03*
X83735516Y84060000I-1078609J1672335D01*
G01*
X83579837Y81458870D02*
G75*
G03*
X83580000Y83540961I-1079837J1041130D01*
G01*
X81264000Y134060000D02*
X81420000Y134060000D01*
X83580000Y134060000D02*
X83736000Y134060000D01*
X81420000Y133540961D02*
G75*
G03*
X81420163Y131458870I1080000J-1040961D01*
G01*
X83578608Y130827665D02*
G75*
G03*
X83735516Y134060000I-1078609J1672335D01*
G01*
X81264484Y134060000D02*
G75*
G03*
X81421392Y130827665I1235517J-1560000D01*
G01*
X83579837Y131458870D02*
G75*
G03*
X83580000Y133540961I-1079837J1041130D01*
G01*
X81420000Y55940000D02*
X81264000Y55940000D01*
X83736000Y55940000D02*
X83580000Y55940000D01*
X81420163Y58541130D02*
G75*
G03*
X81420000Y56459039I1079837J-1041130D01*
G01*
X81421392Y59172335D02*
G75*
G03*
X81264484Y55940000I1078609J-1672335D01*
G01*
X83580000Y56459039D02*
G75*
G03*
X83579837Y58541130I-1080000J1040961D01*
G01*
X83735516Y55940000D02*
G75*
G03*
X83578608Y59172335I-1235517J1560000D01*
G01*
X66940000Y71264000D02*
X66940000Y71420000D01*
X66940000Y73580000D02*
X66940000Y73736000D01*
X69541130Y73579837D02*
G75*
G03*
X67459039Y73580000I-1041130J-1079837D01*
G01*
X70172335Y73578608D02*
G75*
G03*
X66940000Y73735516I-1672335J-1078609D01*
G01*
X66940000Y71264484D02*
G75*
G03*
X70172335Y71421392I1560000J1235517D01*
G01*
X67459039Y71420000D02*
G75*
G03*
X69541130Y71420163I1040961J1080000D01*
G01*
X56940000Y73580000D02*
X56940000Y73736000D01*
X56940000Y71264000D02*
X56940000Y71420000D01*
X57459039Y71420000D02*
G75*
G03*
X59541130Y71420163I1040961J1080000D01*
G01*
X60172335Y73578608D02*
G75*
G03*
X56940000Y73735516I-1672335J-1078609D01*
G01*
X56940000Y71264484D02*
G75*
G03*
X60172335Y71421392I1560000J1235517D01*
G01*
X59541130Y73579837D02*
G75*
G03*
X57459039Y73580000I-1041130J-1079837D01*
G01*
X81264000Y104060000D02*
X81420000Y104060000D01*
X83580000Y104060000D02*
X83736000Y104060000D01*
X83578608Y100827665D02*
G75*
G03*
X83735516Y104060000I-1078609J1672335D01*
G01*
X81420000Y103540961D02*
G75*
G03*
X81420163Y101458870I1080000J-1040961D01*
G01*
X81264484Y104060000D02*
G75*
G03*
X81421392Y100827665I1235517J-1560000D01*
G01*
X83579837Y101458870D02*
G75*
G03*
X83580000Y103540961I-1079837J1041130D01*
G01*
X81264000Y114060000D02*
X81420000Y114060000D01*
X83580000Y114060000D02*
X83736000Y114060000D01*
X81264484Y114060000D02*
G75*
G03*
X81421392Y110827665I1235517J-1560000D01*
G01*
X81420000Y113540961D02*
G75*
G03*
X81420163Y111458870I1080000J-1040961D01*
G01*
X83579837Y111458870D02*
G75*
G03*
X83580000Y113540961I-1079837J1041130D01*
G01*
X83578608Y110827665D02*
G75*
G03*
X83735516Y114060000I-1078609J1672335D01*
G01*
X83580000Y124060000D02*
X83736000Y124060000D01*
X81264000Y124060000D02*
X81420000Y124060000D01*
X83579837Y121458870D02*
G75*
G03*
X83580000Y123540961I-1079837J1041130D01*
G01*
X81264484Y124060000D02*
G75*
G03*
X81421392Y120827665I1235517J-1560000D01*
G01*
X81420000Y123540961D02*
G75*
G03*
X81420163Y121458870I1080000J-1040961D01*
G01*
X83578608Y120827665D02*
G75*
G03*
X83735516Y124060000I-1078609J1672335D01*
G01*
X81420000Y45940000D02*
X81264000Y45940000D01*
X83736000Y45940000D02*
X83580000Y45940000D01*
X81421392Y49172335D02*
G75*
G03*
X81264484Y45940000I1078609J-1672335D01*
G01*
X83735516Y45940000D02*
G75*
G03*
X83578608Y49172335I-1235517J1560000D01*
G01*
X83580000Y46459039D02*
G75*
G03*
X83579837Y48541130I-1080000J1040961D01*
G01*
X81420163Y48541130D02*
G75*
G03*
X81420000Y46459039I1079837J-1041130D01*
G01*
X83736000Y35940000D02*
X83580000Y35940000D01*
X81420000Y35940000D02*
X81264000Y35940000D01*
X81421392Y39172335D02*
G75*
G03*
X81264484Y35940000I1078609J-1672335D01*
G01*
X83735516Y35940000D02*
G75*
G03*
X83578608Y39172335I-1235517J1560000D01*
G01*
X81420163Y38541130D02*
G75*
G03*
X81420000Y36459039I1079837J-1041130D01*
G01*
X83580000Y36459039D02*
G75*
G03*
X83579837Y38541130I-1080000J1040961D01*
G01*
X83736000Y25940000D02*
X83580000Y25940000D01*
X81420000Y25940000D02*
X81264000Y25940000D01*
X83735516Y25940000D02*
G75*
G03*
X83578608Y29172335I-1235517J1560000D01*
G01*
X83580000Y26459039D02*
G75*
G03*
X83579837Y28541130I-1080000J1040961D01*
G01*
X81420163Y28541130D02*
G75*
G03*
X81420000Y26459039I1079837J-1041130D01*
G01*
X81421392Y29172335D02*
G75*
G03*
X81264484Y25940000I1078609J-1672335D01*
G01*
X83736000Y15940000D02*
X83580000Y15940000D01*
X81420000Y15940000D02*
X81264000Y15940000D01*
X81421392Y19172335D02*
G75*
G03*
X81264484Y15940000I1078609J-1672335D01*
G01*
X83580000Y16459039D02*
G75*
G03*
X83579837Y18541130I-1080000J1040961D01*
G01*
X81420163Y18541130D02*
G75*
G03*
X81420000Y16459039I1079837J-1041130D01*
G01*
X83735516Y15940000D02*
G75*
G03*
X83578608Y19172335I-1235517J1560000D01*
G01*
X81420000Y5940000D02*
X81264000Y5940000D01*
X83736000Y5940000D02*
X83580000Y5940000D01*
X83580000Y6459039D02*
G75*
G03*
X83579837Y8541130I-1080000J1040961D01*
G01*
X81420163Y8541130D02*
G75*
G03*
X81420000Y6459039I1079837J-1041130D01*
G01*
X81421392Y9172335D02*
G75*
G03*
X81264484Y5940000I1078609J-1672335D01*
G01*
X83735516Y5940000D02*
G75*
G03*
X83578608Y9172335I-1235517J1560000D01*
G01*
X36940000Y73506000D02*
X36940000Y73662000D01*
X36940000Y71190000D02*
X36940000Y71346000D01*
X39541130Y73505837D02*
G75*
G03*
X37459039Y73506000I-1041130J-1079837D01*
G01*
X40172335Y73504608D02*
G75*
G03*
X36940000Y73661516I-1672335J-1078609D01*
G01*
X37459039Y71346000D02*
G75*
G03*
X39541130Y71346163I1040961J1080000D01*
G01*
X36940000Y71190484D02*
G75*
G03*
X40172335Y71347392I1560000J1235517D01*
G01*
X26940000Y73506000D02*
X26940000Y73662000D01*
X26940000Y71190000D02*
X26940000Y71346000D01*
X27459039Y71346000D02*
G75*
G03*
X29541130Y71346163I1040961J1080000D01*
G01*
X30172335Y73504608D02*
G75*
G03*
X26940000Y73661516I-1672335J-1078609D01*
G01*
X29541130Y73505837D02*
G75*
G03*
X27459039Y73506000I-1041130J-1079837D01*
G01*
X26940000Y71190484D02*
G75*
G03*
X30172335Y71347392I1560000J1235517D01*
G01*
X16940000Y73506000D02*
X16940000Y73662000D01*
X16940000Y71190000D02*
X16940000Y71346000D01*
X19541130Y73505837D02*
G75*
G03*
X17459039Y73506000I-1041130J-1079837D01*
G01*
X20172335Y73504608D02*
G75*
G03*
X16940000Y73661516I-1672335J-1078609D01*
G01*
X17459039Y71346000D02*
G75*
G03*
X19541130Y71346163I1040961J1080000D01*
G01*
X16940000Y71190484D02*
G75*
G03*
X20172335Y71347392I1560000J1235517D01*
G01*
X83580000Y76560000D02*
X83736000Y76560000D01*
X81264000Y76560000D02*
X81420000Y76560000D01*
X83578608Y73327665D02*
G75*
G03*
X83735516Y76560000I-1078609J1672335D01*
G01*
X81420000Y76040961D02*
G75*
G03*
X81420163Y73958870I1080000J-1040961D01*
G01*
X83579837Y73958870D02*
G75*
G03*
X83580000Y76040961I-1079837J1041130D01*
G01*
X81264484Y76560000D02*
G75*
G03*
X81421392Y73327665I1235517J-1560000D01*
G01*
X78736000Y80940000D02*
X78580000Y80940000D01*
X76420000Y80940000D02*
X76264000Y80940000D01*
X78580000Y81459039D02*
G75*
G03*
X78579837Y83541130I-1080000J1040961D01*
G01*
X76420163Y83541130D02*
G75*
G03*
X76420000Y81459039I1079837J-1041130D01*
G01*
X78735516Y80940000D02*
G75*
G03*
X78578608Y84172335I-1235517J1560000D01*
G01*
X76421392Y84172335D02*
G75*
G03*
X76264484Y80940000I1078609J-1672335D01*
G01*
X78736000Y130940000D02*
X78580000Y130940000D01*
X76420000Y130940000D02*
X76264000Y130940000D01*
X76420163Y133541130D02*
G75*
G03*
X76420000Y131459039I1079837J-1041130D01*
G01*
X78580000Y131459039D02*
G75*
G03*
X78579837Y133541130I-1080000J1040961D01*
G01*
X78735516Y130940000D02*
G75*
G03*
X78578608Y134172335I-1235517J1560000D01*
G01*
X76421392Y134172335D02*
G75*
G03*
X76264484Y130940000I1078609J-1672335D01*
G01*
X89940000Y78506000D02*
X89940000Y78662000D01*
X89940000Y76190000D02*
X89940000Y76346000D01*
X89940000Y76190484D02*
G75*
G03*
X93172335Y76347392I1560000J1235517D01*
G01*
X90459039Y76346000D02*
G75*
G03*
X92541130Y76346163I1040961J1080000D01*
G01*
X93172335Y78504608D02*
G75*
G03*
X89940000Y78661516I-1672335J-1078609D01*
G01*
X92541130Y78505837D02*
G75*
G03*
X90459039Y78506000I-1041130J-1079837D01*
G01*
X99940000Y78506000D02*
X99940000Y78662000D01*
X99940000Y76190000D02*
X99940000Y76346000D01*
X102541130Y78505837D02*
G75*
G03*
X100459039Y78506000I-1041130J-1079837D01*
G01*
X103172335Y78504608D02*
G75*
G03*
X99940000Y78661516I-1672335J-1078609D01*
G01*
X99940000Y76190484D02*
G75*
G03*
X103172335Y76347392I1560000J1235517D01*
G01*
X100459039Y76346000D02*
G75*
G03*
X102541130Y76346163I1040961J1080000D01*
G01*
X70060000Y78662000D02*
X70060000Y78506000D01*
X70060000Y76346000D02*
X70060000Y76190000D01*
X69540961Y78506000D02*
G75*
G03*
X67458870Y78505837I-1040961J-1080000D01*
G01*
X67458870Y76346163D02*
G75*
G03*
X69540961Y76346000I1041130J1079837D01*
G01*
X66827665Y76347392D02*
G75*
G03*
X70060000Y76190484I1672335J1078609D01*
G01*
X70060000Y78661516D02*
G75*
G03*
X66827665Y78504608I-1560000J-1235517D01*
G01*
X60060000Y78662000D02*
X60060000Y78506000D01*
X60060000Y76346000D02*
X60060000Y76190000D01*
X56827665Y76347392D02*
G75*
G03*
X60060000Y76190484I1672335J1078609D01*
G01*
X59540961Y78506000D02*
G75*
G03*
X57458870Y78505837I-1040961J-1080000D01*
G01*
X60060000Y78661516D02*
G75*
G03*
X56827665Y78504608I-1560000J-1235517D01*
G01*
X57458870Y76346163D02*
G75*
G03*
X59540961Y76346000I1041130J1079837D01*
G01*
X76420000Y100940000D02*
X76264000Y100940000D01*
X78736000Y100940000D02*
X78580000Y100940000D01*
X76421392Y104172335D02*
G75*
G03*
X76264484Y100940000I1078609J-1672335D01*
G01*
X76420163Y103541130D02*
G75*
G03*
X76420000Y101459039I1079837J-1041130D01*
G01*
X78735516Y100940000D02*
G75*
G03*
X78578608Y104172335I-1235517J1560000D01*
G01*
X78580000Y101459039D02*
G75*
G03*
X78579837Y103541130I-1080000J1040961D01*
G01*
X76420000Y110940000D02*
X76264000Y110940000D01*
X78736000Y110940000D02*
X78580000Y110940000D01*
X76420163Y113541130D02*
G75*
G03*
X76420000Y111459039I1079837J-1041130D01*
G01*
X76421392Y114172335D02*
G75*
G03*
X76264484Y110940000I1078609J-1672335D01*
G01*
X78735516Y110940000D02*
G75*
G03*
X78578608Y114172335I-1235517J1560000D01*
G01*
X78580000Y111459039D02*
G75*
G03*
X78579837Y113541130I-1080000J1040961D01*
G01*
X78736000Y120940000D02*
X78580000Y120940000D01*
X76420000Y120940000D02*
X76264000Y120940000D01*
X76420163Y123541130D02*
G75*
G03*
X76420000Y121459039I1079837J-1041130D01*
G01*
X78580000Y121459039D02*
G75*
G03*
X78579837Y123541130I-1080000J1040961D01*
G01*
X78735516Y120940000D02*
G75*
G03*
X78578608Y124172335I-1235517J1560000D01*
G01*
X76421392Y124172335D02*
G75*
G03*
X76264484Y120940000I1078609J-1672335D01*
G01*
X76264000Y19060000D02*
X76420000Y19060000D01*
X78580000Y19060000D02*
X78736000Y19060000D01*
X76420000Y18540961D02*
G75*
G03*
X76420163Y16458870I1080000J-1040961D01*
G01*
X78579837Y16458870D02*
G75*
G03*
X78580000Y18540961I-1079837J1041130D01*
G01*
X78578608Y15827665D02*
G75*
G03*
X78735516Y19060000I-1078609J1672335D01*
G01*
X76264484Y19060000D02*
G75*
G03*
X76421392Y15827665I1235517J-1560000D01*
G01*
X76264000Y9060000D02*
X76420000Y9060000D01*
X78580000Y9060000D02*
X78736000Y9060000D01*
X78579837Y6458870D02*
G75*
G03*
X78580000Y8540961I-1079837J1041130D01*
G01*
X76420000Y8540961D02*
G75*
G03*
X76420163Y6458870I1080000J-1040961D01*
G01*
X78578608Y5827665D02*
G75*
G03*
X78735516Y9060000I-1078609J1672335D01*
G01*
X76264484Y9060000D02*
G75*
G03*
X76421392Y5827665I1235517J-1560000D01*
G01*
X50060000Y76346000D02*
X50060000Y76190000D01*
X50060000Y78662000D02*
X50060000Y78506000D01*
X46827665Y76347392D02*
G75*
G03*
X50060000Y76190484I1672335J1078609D01*
G01*
X47458870Y76346163D02*
G75*
G03*
X49540961Y76346000I1041130J1079837D01*
G01*
X50060000Y78661516D02*
G75*
G03*
X46827665Y78504608I-1560000J-1235517D01*
G01*
X49540961Y78506000D02*
G75*
G03*
X47458870Y78505837I-1040961J-1080000D01*
G01*
X40060000Y78662000D02*
X40060000Y78506000D01*
X40060000Y76346000D02*
X40060000Y76190000D01*
X40060000Y78661516D02*
G75*
G03*
X36827665Y78504608I-1560000J-1235517D01*
G01*
X37458870Y76346163D02*
G75*
G03*
X39540961Y76346000I1041130J1079837D01*
G01*
X36827665Y76347392D02*
G75*
G03*
X40060000Y76190484I1672335J1078609D01*
G01*
X39540961Y78506000D02*
G75*
G03*
X37458870Y78505837I-1040961J-1080000D01*
G01*
X30060000Y76346000D02*
X30060000Y76190000D01*
X30060000Y78662000D02*
X30060000Y78506000D01*
X26827665Y76347392D02*
G75*
G03*
X30060000Y76190484I1672335J1078609D01*
G01*
X29540961Y78506000D02*
G75*
G03*
X27458870Y78505837I-1040961J-1080000D01*
G01*
X27458870Y76346163D02*
G75*
G03*
X29540961Y76346000I1041130J1079837D01*
G01*
X30060000Y78661516D02*
G75*
G03*
X26827665Y78504608I-1560000J-1235517D01*
G01*
X20060000Y78662000D02*
X20060000Y78506000D01*
X20060000Y76346000D02*
X20060000Y76190000D01*
X20060000Y78661516D02*
G75*
G03*
X16827665Y78504608I-1560000J-1235517D01*
G01*
X16827665Y76347392D02*
G75*
G03*
X20060000Y76190484I1672335J1078609D01*
G01*
X17458870Y76346163D02*
G75*
G03*
X19540961Y76346000I1041130J1079837D01*
G01*
X19540961Y78506000D02*
G75*
G03*
X17458870Y78505837I-1040961J-1080000D01*
G01*
X10060000Y76420000D02*
X10060000Y76264000D01*
X10060000Y78736000D02*
X10060000Y78580000D01*
X6827665Y76421392D02*
G75*
G03*
X10060000Y76264484I1672335J1078609D01*
G01*
X10060000Y78735516D02*
G75*
G03*
X6827665Y78578608I-1560000J-1235517D01*
G01*
X7458870Y76420163D02*
G75*
G03*
X9540961Y76420000I1041130J1079837D01*
G01*
X9540961Y78580000D02*
G75*
G03*
X7458870Y78579837I-1040961J-1080000D01*
G01*
X109940000Y76190000D02*
X109940000Y76346000D01*
X109940000Y78506000D02*
X109940000Y78662000D01*
X109940000Y76190484D02*
G75*
G03*
X113172335Y76347392I1560000J1235517D01*
G01*
X113172335Y78504608D02*
G75*
G03*
X109940000Y78661516I-1672335J-1078609D01*
G01*
X112541130Y78505837D02*
G75*
G03*
X110459039Y78506000I-1041130J-1079837D01*
G01*
X110459039Y76346000D02*
G75*
G03*
X112541130Y76346163I1040961J1080000D01*
G01*
X119940000Y78506000D02*
X119940000Y78662000D01*
X119940000Y76190000D02*
X119940000Y76346000D01*
X122541130Y78505837D02*
G75*
G03*
X120459039Y78506000I-1041130J-1079837D01*
G01*
X119940000Y76190484D02*
G75*
G03*
X123172335Y76347392I1560000J1235517D01*
G01*
X120459039Y76346000D02*
G75*
G03*
X122541130Y76346163I1040961J1080000D01*
G01*
X123172335Y78504608D02*
G75*
G03*
X119940000Y78661516I-1672335J-1078609D01*
G01*
X129940000Y76190000D02*
X129940000Y76346000D01*
X129940000Y78506000D02*
X129940000Y78662000D01*
X133172335Y78504608D02*
G75*
G03*
X129940000Y78661516I-1672335J-1078609D01*
G01*
X132541130Y78505837D02*
G75*
G03*
X130459039Y78506000I-1041130J-1079837D01*
G01*
X129940000Y76190484D02*
G75*
G03*
X133172335Y76347392I1560000J1235517D01*
G01*
X130459039Y76346000D02*
G75*
G03*
X132541130Y76346163I1040961J1080000D01*
G01*
X139940000Y76190000D02*
X139940000Y76346000D01*
X139940000Y78506000D02*
X139940000Y78662000D01*
X143172335Y78504608D02*
G75*
G03*
X139940000Y78661516I-1672335J-1078609D01*
G01*
X142541130Y78505837D02*
G75*
G03*
X140459039Y78506000I-1041130J-1079837D01*
G01*
X140459039Y76346000D02*
G75*
G03*
X142541130Y76346163I1040961J1080000D01*
G01*
X139940000Y76190484D02*
G75*
G03*
X143172335Y76347392I1560000J1235517D01*
G01*
X149940000Y78506000D02*
X149940000Y78662000D01*
X149940000Y76190000D02*
X149940000Y76346000D01*
X150459039Y76346000D02*
G75*
G03*
X152541130Y76346163I1040961J1080000D01*
G01*
X153172335Y78504608D02*
G75*
G03*
X149940000Y78661516I-1672335J-1078609D01*
G01*
X152541130Y78505837D02*
G75*
G03*
X150459039Y78506000I-1041130J-1079837D01*
G01*
X149940000Y76190484D02*
G75*
G03*
X153172335Y76347392I1560000J1235517D01*
G01*
X81264000Y94060000D02*
X81420000Y94060000D01*
X83580000Y94060000D02*
X83736000Y94060000D01*
X81264484Y94060000D02*
G75*
G03*
X81421392Y90827665I1235517J-1560000D01*
G01*
X83578608Y90827665D02*
G75*
G03*
X83735516Y94060000I-1078609J1672335D01*
G01*
X81420000Y93540961D02*
G75*
G03*
X81420163Y91458870I1080000J-1040961D01*
G01*
X83579837Y91458870D02*
G75*
G03*
X83580000Y93540961I-1079837J1041130D01*
G01*
X78736000Y90940000D02*
X78580000Y90940000D01*
X76420000Y90940000D02*
X76264000Y90940000D01*
X78580000Y91459039D02*
G75*
G03*
X78579837Y93541130I-1080000J1040961D01*
G01*
X78735516Y90940000D02*
G75*
G03*
X78578608Y94172335I-1235517J1560000D01*
G01*
X76420163Y93541130D02*
G75*
G03*
X76420000Y91459039I1079837J-1041130D01*
G01*
X76421392Y94172335D02*
G75*
G03*
X76264484Y90940000I1078609J-1672335D01*
G01*
X109940000Y73330000D02*
X109940000Y73486000D01*
X109940000Y71014000D02*
X109940000Y71170000D01*
X112541130Y73329837D02*
G75*
G03*
X110459039Y73330000I-1041130J-1079837D01*
G01*
X110459039Y71170000D02*
G75*
G03*
X112541130Y71170163I1040961J1080000D01*
G01*
X113172335Y73328608D02*
G75*
G03*
X109940000Y73485516I-1672335J-1078609D01*
G01*
X109940000Y71014484D02*
G75*
G03*
X113172335Y71171392I1560000J1235517D01*
G01*
X6940000Y73506000D02*
X6940000Y73662000D01*
X6940000Y71190000D02*
X6940000Y71346000D01*
X7459039Y71346000D02*
G75*
G03*
X9541130Y71346163I1040961J1080000D01*
G01*
X9541130Y73505837D02*
G75*
G03*
X7459039Y73506000I-1041130J-1079837D01*
G01*
X6940000Y71190484D02*
G75*
G03*
X10172335Y71347392I1560000J1235517D01*
G01*
X10172335Y73504608D02*
G75*
G03*
X6940000Y73661516I-1672335J-1078609D01*
G01*
X46940000Y71190000D02*
X46940000Y71346000D01*
X46940000Y73506000D02*
X46940000Y73662000D01*
X49541130Y73505837D02*
G75*
G03*
X47459039Y73506000I-1041130J-1079837D01*
G01*
X47459039Y71346000D02*
G75*
G03*
X49541130Y71346163I1040961J1080000D01*
G01*
X46940000Y71190484D02*
G75*
G03*
X50172335Y71347392I1560000J1235517D01*
G01*
X50172335Y73504608D02*
G75*
G03*
X46940000Y73661516I-1672335J-1078609D01*
G01*
X153060000Y73736000D02*
X153060000Y73580000D01*
X153060000Y71420000D02*
X153060000Y71264000D01*
X152540961Y73580000D02*
G75*
G03*
X150458870Y73579837I-1040961J-1080000D01*
G01*
X150458870Y71420163D02*
G75*
G03*
X152540961Y71420000I1041130J1079837D01*
G01*
X153060000Y73735516D02*
G75*
G03*
X149827665Y73578608I-1560000J-1235517D01*
G01*
X149827665Y71421392D02*
G75*
G03*
X153060000Y71264484I1672335J1078609D01*
G01*
X143060000Y73736000D02*
X143060000Y73580000D01*
X143060000Y71420000D02*
X143060000Y71264000D01*
X140458870Y71420163D02*
G75*
G03*
X142540961Y71420000I1041130J1079837D01*
G01*
X139827665Y71421392D02*
G75*
G03*
X143060000Y71264484I1672335J1078609D01*
G01*
X143060000Y73735516D02*
G75*
G03*
X139827665Y73578608I-1560000J-1235517D01*
G01*
X142540961Y73580000D02*
G75*
G03*
X140458870Y73579837I-1040961J-1080000D01*
G01*
X133060000Y73736000D02*
X133060000Y73580000D01*
X133060000Y71420000D02*
X133060000Y71264000D01*
X130458870Y71420163D02*
G75*
G03*
X132540961Y71420000I1041130J1079837D01*
G01*
X132540961Y73580000D02*
G75*
G03*
X130458870Y73579837I-1040961J-1080000D01*
G01*
X129827665Y71421392D02*
G75*
G03*
X133060000Y71264484I1672335J1078609D01*
G01*
X133060000Y73735516D02*
G75*
G03*
X129827665Y73578608I-1560000J-1235517D01*
G01*
X123060000Y71346000D02*
X123060000Y71190000D01*
X123060000Y73662000D02*
X123060000Y73506000D01*
X122540961Y73506000D02*
G75*
G03*
X120458870Y73505837I-1040961J-1080000D01*
G01*
X120458870Y71346163D02*
G75*
G03*
X122540961Y71346000I1041130J1079837D01*
G01*
X123060000Y73661516D02*
G75*
G03*
X119827665Y73504608I-1560000J-1235517D01*
G01*
X119827665Y71347392D02*
G75*
G03*
X123060000Y71190484I1672335J1078609D01*
G01*
X103060000Y73736000D02*
X103060000Y73580000D01*
X103060000Y71420000D02*
X103060000Y71264000D01*
X103060000Y73735516D02*
G75*
G03*
X99827665Y73578608I-1560000J-1235517D01*
G01*
X99827665Y71421392D02*
G75*
G03*
X103060000Y71264484I1672335J1078609D01*
G01*
X102540961Y73580000D02*
G75*
G03*
X100458870Y73579837I-1040961J-1080000D01*
G01*
X100458870Y71420163D02*
G75*
G03*
X102540961Y71420000I1041130J1079837D01*
G01*
X93060000Y71346000D02*
X93060000Y71190000D01*
X93060000Y73662000D02*
X93060000Y73506000D01*
X90458870Y71346163D02*
G75*
G03*
X92540961Y71346000I1041130J1079837D01*
G01*
X89827665Y71347392D02*
G75*
G03*
X93060000Y71190484I1672335J1078609D01*
G01*
X93060000Y73661516D02*
G75*
G03*
X89827665Y73504608I-1560000J-1235517D01*
G01*
X92540961Y73506000D02*
G75*
G03*
X90458870Y73505837I-1040961J-1080000D01*
G01*
X81420000Y65940000D02*
X81264000Y65940000D01*
X83736000Y65940000D02*
X83580000Y65940000D01*
X83580000Y66459039D02*
G75*
G03*
X83579837Y68541130I-1080000J1040961D01*
G01*
X81421392Y69172335D02*
G75*
G03*
X81264484Y65940000I1078609J-1672335D01*
G01*
X81420163Y68541130D02*
G75*
G03*
X81420000Y66459039I1079837J-1041130D01*
G01*
X83735516Y65940000D02*
G75*
G03*
X83578608Y69172335I-1235517J1560000D01*
G01*
X76264000Y59060000D02*
X76420000Y59060000D01*
X78580000Y59060000D02*
X78736000Y59060000D01*
X76264484Y59060000D02*
G75*
G03*
X76421392Y55827665I1235517J-1560000D01*
G01*
X78578608Y55827665D02*
G75*
G03*
X78735516Y59060000I-1078609J1672335D01*
G01*
X76420000Y58540961D02*
G75*
G03*
X76420163Y56458870I1080000J-1040961D01*
G01*
X78579837Y56458870D02*
G75*
G03*
X78580000Y58540961I-1079837J1041130D01*
G01*
X78580000Y49060000D02*
X78736000Y49060000D01*
X76264000Y49060000D02*
X76420000Y49060000D01*
X76420000Y48540961D02*
G75*
G03*
X76420163Y46458870I1080000J-1040961D01*
G01*
X76264484Y49060000D02*
G75*
G03*
X76421392Y45827665I1235517J-1560000D01*
G01*
X78578608Y45827665D02*
G75*
G03*
X78735516Y49060000I-1078609J1672335D01*
G01*
X78579837Y46458870D02*
G75*
G03*
X78580000Y48540961I-1079837J1041130D01*
G01*
X78580000Y29060000D02*
X78736000Y29060000D01*
X76264000Y29060000D02*
X76420000Y29060000D01*
X78578608Y25827665D02*
G75*
G03*
X78735516Y29060000I-1078609J1672335D01*
G01*
X76264484Y29060000D02*
G75*
G03*
X76421392Y25827665I1235517J-1560000D01*
G01*
X76420000Y28540961D02*
G75*
G03*
X76420163Y26458870I1080000J-1040961D01*
G01*
X78579837Y26458870D02*
G75*
G03*
X78580000Y28540961I-1079837J1041130D01*
G01*
X76264000Y69060000D02*
X76420000Y69060000D01*
X78580000Y69060000D02*
X78736000Y69060000D01*
X78578608Y65827665D02*
G75*
G03*
X78735516Y69060000I-1078609J1672335D01*
G01*
X78579837Y66458870D02*
G75*
G03*
X78580000Y68540961I-1079837J1041130D01*
G01*
X76264484Y69060000D02*
G75*
G03*
X76421392Y65827665I1235517J-1560000D01*
G01*
X76420000Y68540961D02*
G75*
G03*
X76420163Y66458870I1080000J-1040961D01*
G01*
X78580000Y39060000D02*
X78736000Y39060000D01*
X76264000Y39060000D02*
X76420000Y39060000D01*
X78578608Y35827665D02*
G75*
G03*
X78735516Y39060000I-1078609J1672335D01*
G01*
X78579837Y36458870D02*
G75*
G03*
X78580000Y38540961I-1079837J1041130D01*
G01*
X76264484Y39060000D02*
G75*
G03*
X76421392Y35827665I1235517J-1560000D01*
G01*
X76420000Y38540961D02*
G75*
G03*
X76420163Y36458870I1080000J-1040961D01*
G01*
M02*
