M48
; DRILL file {KiCad (6.0.1)} date Fri Feb 25 16:08:54 2022
; FORMAT={-:-/ absolute / metric / decimal}
; #@! TF.CreationDate,2022-02-25T16:08:54+09:00
; #@! TF.GenerationSoftware,Kicad,Pcbnew,(6.0.1)
; #@! TF.FileFunction,MixedPlating,1,2
FMAT,2
METRIC
; #@! TA.AperFunction,Plated,PTH,ViaDrill
T1C0.400
; #@! TA.AperFunction,Plated,PTH,ComponentDrill
T2C0.730
; #@! TA.AperFunction,Plated,PTH,ComponentDrill
T3C0.900
%
G90
G05
T1
X65.413Y65.763
X83.694Y63.157
T2
X63.885Y61.925
X65.385Y61.925
X66.885Y61.925
X68.385Y61.925
X69.885Y61.925
X71.385Y61.925
X87.46Y62.535
X88.96Y62.535
X90.46Y62.535
X91.96Y62.535
X93.46Y62.535
X94.96Y62.535
X96.46Y62.535
X97.96Y62.535
T3
X7.23Y77.5
X7.23Y72.426
X9.77Y77.5
X9.77Y72.426
X17.23Y77.426
X17.23Y72.426
X19.77Y77.426
X19.77Y72.426
X27.23Y77.426
X27.23Y72.426
X29.77Y77.426
X29.77Y72.426
X37.23Y77.426
X37.23Y72.426
X39.77Y77.426
X39.77Y72.426
X47.23Y77.426
X47.23Y72.426
X49.77Y77.426
X49.77Y72.426
X57.23Y77.426
X57.23Y72.5
X59.77Y77.426
X59.77Y72.5
X67.23Y77.426
X67.23Y72.5
X69.77Y77.426
X69.77Y72.5
X77.5Y133.77
X77.5Y131.23
X77.5Y123.77
X77.5Y121.23
X77.5Y113.77
X77.5Y111.23
X77.5Y103.77
X77.5Y101.23
X77.5Y93.77
X77.5Y91.23
X77.5Y83.77
X77.5Y81.23
X77.5Y76.27
X77.5Y73.73
X77.5Y68.77
X77.5Y66.23
X77.5Y58.77
X77.5Y56.23
X77.5Y48.77
X77.5Y46.23
X77.5Y38.77
X77.5Y36.23
X77.5Y28.77
X77.5Y26.23
X77.5Y18.77
X77.5Y16.23
X77.5Y8.77
X77.5Y6.23
X82.5Y133.77
X82.5Y131.23
X82.5Y123.77
X82.5Y121.23
X82.5Y113.77
X82.5Y111.23
X82.5Y103.77
X82.5Y101.23
X82.5Y93.77
X82.5Y91.23
X82.5Y83.77
X82.5Y81.23
X82.5Y76.27
X82.5Y73.73
X82.5Y68.77
X82.5Y66.23
X82.5Y58.77
X82.5Y56.23
X82.5Y48.77
X82.5Y46.23
X82.5Y38.77
X82.5Y36.23
X82.5Y28.77
X82.5Y26.23
X82.5Y18.77
X82.5Y16.23
X82.5Y8.77
X82.5Y6.23
X90.23Y77.426
X90.23Y72.426
X92.77Y77.426
X92.77Y72.426
X100.23Y77.426
X100.23Y72.5
X102.77Y77.426
X102.77Y72.5
X110.23Y77.426
X110.23Y72.25
X112.77Y77.426
X112.77Y72.25
X120.23Y77.426
X120.23Y72.426
X122.77Y77.426
X122.77Y72.426
X130.23Y77.426
X130.23Y72.5
X132.77Y77.426
X132.77Y72.5
X140.23Y77.426
X140.23Y72.5
X142.77Y77.426
X142.77Y72.5
X150.23Y77.426
X150.23Y72.5
X152.77Y77.426
X152.77Y72.5
T0
M30
