%TF.GenerationSoftware,KiCad,Pcbnew,(6.0.9)*%
%TF.CreationDate,2022-12-21T05:14:31+09:00*%
%TF.ProjectId,main,6d61696e-2e6b-4696-9361-645f70636258,rev?*%
%TF.SameCoordinates,Original*%
%TF.FileFunction,Copper,L2,Bot*%
%TF.FilePolarity,Positive*%
%FSLAX46Y46*%
G04 Gerber Fmt 4.6, Leading zero omitted, Abs format (unit mm)*
G04 Created by KiCad (PCBNEW (6.0.9)) date 2022-12-21 05:14:31*
%MOMM*%
%LPD*%
G01*
G04 APERTURE LIST*
G04 Aperture macros list*
%AMRoundRect*
0 Rectangle with rounded corners*
0 $1 Rounding radius*
0 $2 $3 $4 $5 $6 $7 $8 $9 X,Y pos of 4 corners*
0 Add a 4 corners polygon primitive as box body*
4,1,4,$2,$3,$4,$5,$6,$7,$8,$9,$2,$3,0*
0 Add four circle primitives for the rounded corners*
1,1,$1+$1,$2,$3*
1,1,$1+$1,$4,$5*
1,1,$1+$1,$6,$7*
1,1,$1+$1,$8,$9*
0 Add four rect primitives between the rounded corners*
20,1,$1+$1,$2,$3,$4,$5,0*
20,1,$1+$1,$4,$5,$6,$7,0*
20,1,$1+$1,$6,$7,$8,$9,0*
20,1,$1+$1,$8,$9,$2,$3,0*%
%AMHorizOval*
0 Thick line with rounded ends*
0 $1 width*
0 $2 $3 position (X,Y) of the first rounded end (center of the circle)*
0 $4 $5 position (X,Y) of the second rounded end (center of the circle)*
0 Add line between two ends*
20,1,$1,$2,$3,$4,$5,0*
0 Add two circle primitives to create the rounded ends*
1,1,$1,$2,$3*
1,1,$1,$4,$5*%
%AMRotRect*
0 Rectangle, with rotation*
0 The origin of the aperture is its center*
0 $1 length*
0 $2 width*
0 $3 Rotation angle, in degrees counterclockwise*
0 Add horizontal line*
21,1,$1,$2,0,0,$3*%
G04 Aperture macros list end*
%TA.AperFunction,NonConductor*%
%ADD10C,0.200000*%
%TD*%
%TA.AperFunction,ComponentPad*%
%ADD11R,2.500000X1.700000*%
%TD*%
%TA.AperFunction,ComponentPad*%
%ADD12O,2.500000X1.700000*%
%TD*%
%TA.AperFunction,ComponentPad*%
%ADD13C,1.431000*%
%TD*%
%TA.AperFunction,ComponentPad*%
%ADD14R,1.250000X1.250000*%
%TD*%
%TA.AperFunction,ComponentPad*%
%ADD15C,1.250000*%
%TD*%
%TA.AperFunction,ComponentPad*%
%ADD16RoundRect,0.250000X-0.600000X-0.750000X0.600000X-0.750000X0.600000X0.750000X-0.600000X0.750000X0*%
%TD*%
%TA.AperFunction,ComponentPad*%
%ADD17O,1.700000X2.000000*%
%TD*%
%TA.AperFunction,ComponentPad*%
%ADD18R,1.524000X1.524000*%
%TD*%
%TA.AperFunction,ComponentPad*%
%ADD19C,1.524000*%
%TD*%
%TA.AperFunction,ComponentPad*%
%ADD20RoundRect,0.250001X-1.099999X-1.099999X1.099999X-1.099999X1.099999X1.099999X-1.099999X1.099999X0*%
%TD*%
%TA.AperFunction,ComponentPad*%
%ADD21C,2.700000*%
%TD*%
%TA.AperFunction,ComponentPad*%
%ADD22RotRect,1.250000X1.250000X315.000000*%
%TD*%
%TA.AperFunction,ComponentPad*%
%ADD23R,1.600000X1.600000*%
%TD*%
%TA.AperFunction,ComponentPad*%
%ADD24O,1.600000X1.600000*%
%TD*%
%TA.AperFunction,ComponentPad*%
%ADD25RoundRect,0.250000X0.600000X0.750000X-0.600000X0.750000X-0.600000X-0.750000X0.600000X-0.750000X0*%
%TD*%
%TA.AperFunction,ComponentPad*%
%ADD26C,1.400000*%
%TD*%
%TA.AperFunction,ComponentPad*%
%ADD27O,1.400000X1.400000*%
%TD*%
%TA.AperFunction,ComponentPad*%
%ADD28C,1.397000*%
%TD*%
%TA.AperFunction,ComponentPad*%
%ADD29RotRect,1.250000X1.250000X225.000000*%
%TD*%
%TA.AperFunction,ComponentPad*%
%ADD30R,1.000000X1.000000*%
%TD*%
%TA.AperFunction,ComponentPad*%
%ADD31O,1.000000X1.000000*%
%TD*%
%TA.AperFunction,ComponentPad*%
%ADD32R,1.409600X1.409600*%
%TD*%
%TA.AperFunction,ComponentPad*%
%ADD33C,1.409600*%
%TD*%
%TA.AperFunction,ComponentPad*%
%ADD34RotRect,1.250000X1.250000X135.000000*%
%TD*%
%TA.AperFunction,ComponentPad*%
%ADD35RotRect,1.250000X1.250000X45.000000*%
%TD*%
%TA.AperFunction,ComponentPad*%
%ADD36R,3.200000X3.200000*%
%TD*%
%TA.AperFunction,SMDPad,CuDef*%
%ADD37RoundRect,0.237500X0.237500X-0.300000X0.237500X0.300000X-0.237500X0.300000X-0.237500X-0.300000X0*%
%TD*%
%TA.AperFunction,SMDPad,CuDef*%
%ADD38RoundRect,0.237500X0.300000X0.237500X-0.300000X0.237500X-0.300000X-0.237500X0.300000X-0.237500X0*%
%TD*%
%TA.AperFunction,SMDPad,CuDef*%
%ADD39RoundRect,0.237500X0.237500X-0.250000X0.237500X0.250000X-0.237500X0.250000X-0.237500X-0.250000X0*%
%TD*%
%TA.AperFunction,SMDPad,CuDef*%
%ADD40R,3.300000X1.270000*%
%TD*%
%TA.AperFunction,SMDPad,CuDef*%
%ADD41R,5.890000X3.810000*%
%TD*%
%TA.AperFunction,SMDPad,CuDef*%
%ADD42R,4.120000X3.830000*%
%TD*%
%TA.AperFunction,SMDPad,CuDef*%
%ADD43R,3.300000X4.320000*%
%TD*%
%TA.AperFunction,SMDPad,CuDef*%
%ADD44R,1.270000X3.300000*%
%TD*%
%TA.AperFunction,SMDPad,CuDef*%
%ADD45R,1.270000X1.270000*%
%TD*%
%TA.AperFunction,SMDPad,CuDef*%
%ADD46RoundRect,0.237500X-0.237500X0.250000X-0.237500X-0.250000X0.237500X-0.250000X0.237500X0.250000X0*%
%TD*%
%TA.AperFunction,SMDPad,CuDef*%
%ADD47RoundRect,0.237500X0.250000X0.237500X-0.250000X0.237500X-0.250000X-0.237500X0.250000X-0.237500X0*%
%TD*%
%TA.AperFunction,SMDPad,CuDef*%
%ADD48R,1.000000X1.550000*%
%TD*%
%TA.AperFunction,SMDPad,CuDef*%
%ADD49RoundRect,0.237500X-0.300000X-0.237500X0.300000X-0.237500X0.300000X0.237500X-0.300000X0.237500X0*%
%TD*%
%TA.AperFunction,SMDPad,CuDef*%
%ADD50RoundRect,0.100000X-0.100000X0.637500X-0.100000X-0.637500X0.100000X-0.637500X0.100000X0.637500X0*%
%TD*%
%TA.AperFunction,SMDPad,CuDef*%
%ADD51RoundRect,0.237500X-0.237500X0.300000X-0.237500X-0.300000X0.237500X-0.300000X0.237500X0.300000X0*%
%TD*%
%TA.AperFunction,ComponentPad*%
%ADD52RotRect,1.700000X1.700000X135.000000*%
%TD*%
%TA.AperFunction,ComponentPad*%
%ADD53HorizOval,1.700000X0.000000X0.000000X0.000000X0.000000X0*%
%TD*%
%TA.AperFunction,SMDPad,CuDef*%
%ADD54R,1.800000X2.500000*%
%TD*%
%TA.AperFunction,SMDPad,CuDef*%
%ADD55R,1.600000X1.050000*%
%TD*%
%TA.AperFunction,ComponentPad*%
%ADD56RotRect,1.700000X1.700000X225.000000*%
%TD*%
%TA.AperFunction,ComponentPad*%
%ADD57HorizOval,1.700000X0.000000X0.000000X0.000000X0.000000X0*%
%TD*%
%TA.AperFunction,SMDPad,CuDef*%
%ADD58RoundRect,0.150000X-1.150000X-0.150000X1.150000X-0.150000X1.150000X0.150000X-1.150000X0.150000X0*%
%TD*%
%TA.AperFunction,SMDPad,CuDef*%
%ADD59R,2.500000X1.800000*%
%TD*%
%TA.AperFunction,SMDPad,CuDef*%
%ADD60R,1.597660X0.698500*%
%TD*%
%TA.AperFunction,SMDPad,CuDef*%
%ADD61RoundRect,0.237500X-0.250000X-0.237500X0.250000X-0.237500X0.250000X0.237500X-0.250000X0.237500X0*%
%TD*%
%TA.AperFunction,ComponentPad*%
%ADD62C,1.700000*%
%TD*%
%TA.AperFunction,ComponentPad*%
%ADD63RotRect,1.700000X1.700000X315.000000*%
%TD*%
%TA.AperFunction,ComponentPad*%
%ADD64HorizOval,1.700000X0.000000X0.000000X0.000000X0.000000X0*%
%TD*%
%TA.AperFunction,SMDPad,CuDef*%
%ADD65RoundRect,0.250000X-0.450000X0.325000X-0.450000X-0.325000X0.450000X-0.325000X0.450000X0.325000X0*%
%TD*%
%TA.AperFunction,ComponentPad*%
%ADD66O,1.800000X1.000000*%
%TD*%
%TA.AperFunction,ComponentPad*%
%ADD67O,2.200000X1.000000*%
%TD*%
%TA.AperFunction,SMDPad,CuDef*%
%ADD68R,1.650000X0.575000*%
%TD*%
%TA.AperFunction,SMDPad,CuDef*%
%ADD69R,1.650000X0.300000*%
%TD*%
%TA.AperFunction,ViaPad*%
%ADD70C,0.800000*%
%TD*%
%TA.AperFunction,ViaPad*%
%ADD71C,1.500000*%
%TD*%
%TA.AperFunction,Conductor*%
%ADD72C,0.150000*%
%TD*%
%TA.AperFunction,Conductor*%
%ADD73C,2.000000*%
%TD*%
%TA.AperFunction,Conductor*%
%ADD74C,1.000000*%
%TD*%
G04 APERTURE END LIST*
D10*
X145000000Y-100000000D02*
X155000000Y-100000000D01*
X150000000Y-95000000D02*
X150000000Y-105000000D01*
D11*
%TO.P,SW5,1,A*%
%TO.N,SW1_3*%
X212000000Y-90000000D03*
D12*
%TO.P,SW5,2,B*%
%TO.N,SW1_1*%
X215000000Y-90000000D03*
%TO.P,SW5,3,C*%
%TO.N,SW1_6*%
X218000000Y-90000000D03*
%TD*%
D13*
%TO.P,RV2,1,1*%
%TO.N,Net-(D12-Pad2)*%
X87500000Y-90000000D03*
%TO.P,RV2,2,2*%
%TO.N,Net-(J24-Pad2)*%
X90000000Y-87500000D03*
%TO.P,RV2,3,3*%
X92500000Y-90000000D03*
%TD*%
D14*
%TO.P,J17,1,Pin_1*%
%TO.N,Net-(J17-Pad1)*%
X115450000Y-96250000D03*
D15*
%TO.P,J17,2,Pin_2*%
%TO.N,+3.3VA*%
X115450000Y-97750000D03*
%TO.P,J17,3,Pin_3*%
%TO.N,Net-(J17-Pad3)*%
X115450000Y-99250000D03*
%TO.P,J17,4,Pin_4*%
%TO.N,Net-(J17-Pad4)*%
X115450000Y-100750000D03*
%TO.P,J17,5,Pin_5*%
%TO.N,Net-(C8-Pad1)*%
X115450000Y-102250000D03*
%TO.P,J17,6,Pin_6*%
%TO.N,SW1_6*%
X115450000Y-103750000D03*
%TD*%
D16*
%TO.P,J8,1,Pin_1*%
%TO.N,SW1_6*%
X148750000Y-81000000D03*
D17*
%TO.P,J8,2,Pin_2*%
%TO.N,+15V*%
X151250000Y-81000000D03*
%TD*%
D18*
%TO.P,SW6,1,A*%
%TO.N,SW1_3*%
X217645000Y-97460000D03*
D19*
%TO.P,SW6,2,B*%
%TO.N,SW1_4*%
X217645000Y-100000000D03*
%TO.P,SW6,3,C*%
%TO.N,SW1_6*%
X217645000Y-102540000D03*
%TO.P,SW6,4,KR*%
%TO.N,Net-(R37-Pad1)*%
X212565000Y-97460000D03*
%TO.P,SW6,5,A*%
%TO.N,SW1_3*%
X212565000Y-100000000D03*
%TO.P,SW6,6,KG*%
%TO.N,Net-(R40-Pad1)*%
X212565000Y-102540000D03*
%TD*%
D14*
%TO.P,J14,1,Pin_1*%
%TO.N,SCL_IMU*%
X123000000Y-122000000D03*
D15*
%TO.P,J14,2,Pin_2*%
%TO.N,SW1_3*%
X121500000Y-122000000D03*
%TO.P,J14,3,Pin_3*%
%TO.N,SDA_IMU*%
X120000000Y-122000000D03*
%TO.P,J14,4,Pin_4*%
%TO.N,SW1_6*%
X118500000Y-122000000D03*
%TD*%
D20*
%TO.P,J5,1,Pin_1*%
%TO.N,SW1_6*%
X148242500Y-129450000D03*
D21*
%TO.P,J5,2,Pin_2*%
%TO.N,+15V*%
X152202500Y-129450000D03*
%TD*%
D22*
%TO.P,J20,1,Pin_1*%
%TO.N,Net-(J20-Pad1)*%
X139272800Y-108909200D03*
D15*
%TO.P,J20,2,Pin_2*%
%TO.N,Net-(J20-Pad2)*%
X138212140Y-107848540D03*
%TO.P,J20,3,Pin_3*%
%TO.N,Net-(J20-Pad1)*%
X137151480Y-106787880D03*
%TO.P,J20,4,Pin_4*%
%TO.N,Net-(J20-Pad4)*%
X136090819Y-105727219D03*
%TD*%
D23*
%TO.P,SW7,1*%
%TO.N,SW1_6*%
X88725000Y-114767500D03*
D24*
%TO.P,SW7,2*%
X91265000Y-114767500D03*
%TO.P,SW7,3*%
%TO.N,Net-(R38-Pad2)*%
X91265000Y-107147500D03*
%TO.P,SW7,4*%
%TO.N,Net-(R39-Pad2)*%
X88725000Y-107147500D03*
%TD*%
D25*
%TO.P,J9,1,Pin_1*%
%TO.N,SW1_6*%
X151250000Y-118000000D03*
D17*
%TO.P,J9,2,Pin_2*%
%TO.N,+15V*%
X148750000Y-118000000D03*
%TD*%
D16*
%TO.P,J15,1,Pin_1*%
%TO.N,+5V*%
X159000000Y-138000000D03*
D17*
%TO.P,J15,2,Pin_2*%
%TO.N,SW1_6*%
X161500000Y-138000000D03*
%TD*%
D13*
%TO.P,RV5,1,1*%
%TO.N,Net-(D12-Pad2)*%
X77500000Y-110000000D03*
%TO.P,RV5,2,2*%
%TO.N,Line5*%
X80000000Y-107500000D03*
%TO.P,RV5,3,3*%
X82500000Y-110000000D03*
%TD*%
D14*
%TO.P,J23,1,Pin_1*%
%TO.N,Net-(J23-Pad1)*%
X125750000Y-56450000D03*
D15*
%TO.P,J23,2,Pin_2*%
%TO.N,Vcc1*%
X124250000Y-56450000D03*
%TO.P,J23,3,Pin_3*%
%TO.N,Net-(J23-Pad3)*%
X122750000Y-56450000D03*
%TO.P,J23,4,Pin_4*%
%TO.N,Net-(J23-Pad4)*%
X121250000Y-56450000D03*
%TO.P,J23,5,Pin_5*%
%TO.N,Net-(C11-Pad1)*%
X119750000Y-56450000D03*
%TO.P,J23,6,Pin_6*%
%TO.N,SW1_6*%
X118250000Y-56450000D03*
%TD*%
D13*
%TO.P,RV4,1,1*%
%TO.N,Net-(D12-Pad2)*%
X87500000Y-100000000D03*
%TO.P,RV4,2,2*%
%TO.N,Net-(J24-Pad4)*%
X90000000Y-97500000D03*
%TO.P,RV4,3,3*%
X92500000Y-100000000D03*
%TD*%
D26*
%TO.P,R11,1*%
%TO.N,SW1_6*%
X180460000Y-115000000D03*
D27*
%TO.P,R11,2*%
%TO.N,Net-(R11-Pad2)*%
X185540000Y-115000000D03*
%TD*%
D28*
%TO.P,SW4,1,1*%
%TO.N,SW1_5*%
X218810000Y-112540000D03*
X211190000Y-112540000D03*
%TO.P,SW4,2,2*%
%TO.N,SW1_6*%
X211190000Y-107460000D03*
X218810000Y-107460000D03*
%TD*%
D29*
%TO.P,J21,1,Pin_1*%
%TO.N,Net-(J21-Pad1)*%
X136090800Y-94272800D03*
D15*
%TO.P,J21,2,Pin_2*%
%TO.N,Net-(J21-Pad2)*%
X137151460Y-93212140D03*
%TO.P,J21,3,Pin_3*%
%TO.N,Net-(J21-Pad1)*%
X138212120Y-92151480D03*
%TO.P,J21,4,Pin_4*%
%TO.N,Net-(J21-Pad4)*%
X139272781Y-91090819D03*
%TD*%
D30*
%TO.P,JP1,1,A*%
%TO.N,Net-(C25-Pad1)*%
X85000000Y-84000000D03*
D31*
%TO.P,JP1,2,B*%
%TO.N,Net-(D13-Pad2)*%
X85000000Y-82730000D03*
%TD*%
D14*
%TO.P,J16,1,Pin_1*%
%TO.N,Net-(J16-Pad1)*%
X156775000Y-77525000D03*
D15*
%TO.P,J16,2,Pin_2*%
%TO.N,Net-(J16-Pad2)*%
X158275000Y-77525000D03*
%TO.P,J16,3,Pin_3*%
%TO.N,Net-(J16-Pad3)*%
X159775000Y-77525000D03*
%TO.P,J16,4,Pin_4*%
%TO.N,Net-(J16-Pad4)*%
X161275000Y-77525000D03*
%TO.P,J16,5,Pin_5*%
%TO.N,Net-(J16-Pad5)*%
X162775000Y-77525000D03*
%TO.P,J16,6,Pin_6*%
%TO.N,Net-(J16-Pad6)*%
X164275000Y-77525000D03*
%TO.P,J16,7,Pin_7*%
%TO.N,SW1_3*%
X165775000Y-77525000D03*
%TO.P,J16,8,Pin_8*%
%TO.N,SW1_6*%
X167275000Y-77525000D03*
%TD*%
D14*
%TO.P,J6,1,Pin_1*%
%TO.N,/rp2040/GPIO08{slash}11*%
X169000000Y-138000000D03*
D15*
%TO.P,J6,2,Pin_2*%
%TO.N,+5V*%
X170500000Y-138000000D03*
%TO.P,J6,3,Pin_3*%
%TO.N,Net-(J6-Pad3)*%
X172000000Y-138000000D03*
%TO.P,J6,4,Pin_4*%
%TO.N,SW1_6*%
X173500000Y-138000000D03*
%TD*%
D13*
%TO.P,RV3,1,1*%
%TO.N,Net-(D12-Pad2)*%
X77500000Y-100000000D03*
%TO.P,RV3,2,2*%
%TO.N,Net-(J24-Pad3)*%
X80000000Y-97500000D03*
%TO.P,RV3,3,3*%
X82500000Y-100000000D03*
%TD*%
D14*
%TO.P,J2,1,Pin_1*%
%TO.N,/rp2040/GPIO14{slash}19*%
X112250000Y-123450000D03*
D15*
%TO.P,J2,2,Pin_2*%
%TO.N,SW1_3*%
X110750000Y-123450000D03*
%TO.P,J2,3,Pin_3*%
%TO.N,/rp2040/GPIO15{slash}20*%
X109250000Y-123450000D03*
%TO.P,J2,4,Pin_4*%
%TO.N,SW1_6*%
X107750000Y-123450000D03*
%TD*%
D32*
%TO.P,U11,1,VIN*%
%TO.N,Net-(C25-Pad1)*%
X131190000Y-130810000D03*
D33*
%TO.P,U11,2,GND*%
%TO.N,SW1_6*%
X133730000Y-130810000D03*
%TO.P,U11,3,SDA*%
%TO.N,SDA_IMU*%
X136270000Y-130810000D03*
%TO.P,U11,4,SCL*%
%TO.N,SCL_IMU*%
X138810000Y-130810000D03*
%TO.P,U11,5,RESET*%
%TO.N,Net-(D17-Pad2)*%
X138810000Y-123190000D03*
%TO.P,U11,6,INT*%
%TO.N,unconnected-(U11-Pad6)*%
X136270000Y-123190000D03*
%TO.P,U11,7,GND*%
%TO.N,SW1_6*%
X133730000Y-123190000D03*
%TO.P,U11,8,VOUT*%
%TO.N,unconnected-(U11-Pad8)*%
X131190000Y-123190000D03*
%TD*%
D14*
%TO.P,J22,1,Pin_1*%
%TO.N,/LineTrimmer/SCL*%
X137250000Y-138450000D03*
D15*
%TO.P,J22,2,Pin_2*%
%TO.N,Vcc1*%
X135750000Y-138450000D03*
%TO.P,J22,3,Pin_3*%
%TO.N,/LineTrimmer/SDA*%
X134250000Y-138450000D03*
%TO.P,J22,4,Pin_4*%
%TO.N,SW1_6*%
X132750000Y-138450000D03*
%TD*%
D13*
%TO.P,RV1,1,1*%
%TO.N,Net-(D12-Pad2)*%
X77500000Y-90000000D03*
%TO.P,RV1,2,2*%
%TO.N,Net-(J24-Pad1)*%
X80000000Y-87500000D03*
%TO.P,RV1,3,3*%
X82500000Y-90000000D03*
%TD*%
D14*
%TO.P,J24,1,Pin_1*%
%TO.N,Net-(J24-Pad1)*%
X133250000Y-77550000D03*
D15*
%TO.P,J24,2,Pin_2*%
%TO.N,Net-(J24-Pad2)*%
X134750000Y-77550000D03*
%TO.P,J24,3,Pin_3*%
%TO.N,Net-(J24-Pad3)*%
X136250000Y-77550000D03*
%TO.P,J24,4,Pin_4*%
%TO.N,Net-(J24-Pad4)*%
X137750000Y-77550000D03*
%TO.P,J24,5,Pin_5*%
%TO.N,Line5*%
X139250000Y-77550000D03*
%TO.P,J24,6,Pin_6*%
%TO.N,Net-(D12-Pad2)*%
X140750000Y-77550000D03*
%TD*%
D34*
%TO.P,J18,1,Pin_1*%
%TO.N,Net-(J17-Pad4)*%
X160727200Y-91090800D03*
D15*
%TO.P,J18,2,Pin_2*%
%TO.N,Net-(J17-Pad1)*%
X161787860Y-92151460D03*
%TO.P,J18,3,Pin_3*%
%TO.N,Net-(J17-Pad4)*%
X162848520Y-93212120D03*
%TO.P,J18,4,Pin_4*%
%TO.N,Net-(J17-Pad3)*%
X163909181Y-94272781D03*
%TD*%
D35*
%TO.P,J19,1,Pin_1*%
%TO.N,Net-(J19-Pad1)*%
X163909200Y-105727200D03*
D15*
%TO.P,J19,2,Pin_2*%
%TO.N,Net-(J19-Pad2)*%
X162848540Y-106787860D03*
%TO.P,J19,3,Pin_3*%
%TO.N,Net-(J19-Pad1)*%
X161787880Y-107848520D03*
%TO.P,J19,4,Pin_4*%
%TO.N,Net-(J19-Pad4)*%
X160727219Y-108909181D03*
%TD*%
D14*
%TO.P,J11,1,Pin_1*%
%TO.N,SCL_IMU*%
X123000000Y-129000000D03*
D15*
%TO.P,J11,2,Pin_2*%
%TO.N,SW1_3*%
X121500000Y-129000000D03*
%TO.P,J11,3,Pin_3*%
%TO.N,SDA_IMU*%
X120000000Y-129000000D03*
%TO.P,J11,4,Pin_4*%
%TO.N,SW1_6*%
X118500000Y-129000000D03*
%TD*%
D36*
%TO.P,U7,57,GND*%
%TO.N,SW1_6*%
X190000000Y-100000000D03*
%TD*%
D26*
%TO.P,R9,1*%
%TO.N,Net-(R11-Pad2)*%
X189000000Y-115460000D03*
D27*
%TO.P,R9,2*%
%TO.N,Net-(R9-Pad2)*%
X189000000Y-120540000D03*
%TD*%
D14*
%TO.P,J3,1,Pin_1*%
%TO.N,/Sheet63625160/SCL_1*%
X123250000Y-136450000D03*
D15*
%TO.P,J3,2,Pin_2*%
%TO.N,SW1_3*%
X121750000Y-136450000D03*
%TO.P,J3,3,Pin_3*%
%TO.N,/Sheet63625160/SDA_1*%
X120250000Y-136450000D03*
%TO.P,J3,4,Pin_4*%
%TO.N,SW1_6*%
X118750000Y-136450000D03*
%TD*%
D37*
%TO.P,C24,1*%
%TO.N,+5V*%
X195000000Y-76862500D03*
%TO.P,C24,2*%
%TO.N,SW1_6*%
X195000000Y-75137500D03*
%TD*%
D38*
%TO.P,C25,1*%
%TO.N,Net-(C25-Pad1)*%
X196862500Y-73000000D03*
%TO.P,C25,2*%
%TO.N,SW1_6*%
X195137500Y-73000000D03*
%TD*%
D39*
%TO.P,R35,1*%
%TO.N,QSPI_SS*%
X196000000Y-96912500D03*
%TO.P,R35,2*%
%TO.N,SW1_3*%
X196000000Y-95087500D03*
%TD*%
D40*
%TO.P,U4,1,ON/OFF*%
%TO.N,SW1_6*%
X174422000Y-124873000D03*
D41*
%TO.P,U4,2,VIN*%
%TO.N,+15V*%
X175693000Y-130457000D03*
D42*
%TO.P,U4,3,GND_1*%
%TO.N,SW1_6*%
X181154000Y-130457000D03*
D43*
%TO.P,U4,4,VOUT*%
%TO.N,+5V*%
X185599000Y-128298000D03*
D40*
%TO.P,U4,5,SENSE*%
X185602000Y-124873000D03*
%TO.P,U4,6,TRIM*%
%TO.N,Net-(R9-Pad2)*%
X185602000Y-120293000D03*
D44*
%TO.P,U4,7,GND_2*%
%TO.N,SW1_6*%
X180017000Y-119278000D03*
%TO.P,U4,8,NC_1*%
%TO.N,unconnected-(U4-Pad8)*%
X177727000Y-119278000D03*
D40*
%TO.P,U4,9,SEQ*%
%TO.N,unconnected-(U4-Pad9)*%
X174422000Y-120293000D03*
%TO.P,U4,10,PGOOD*%
%TO.N,unconnected-(U4-Pad10)*%
X174422000Y-122583000D03*
D45*
%TO.P,U4,11,NC_2*%
%TO.N,unconnected-(U4-Pad11)*%
X184587000Y-122583000D03*
D44*
%TO.P,U4,12,NC_3*%
%TO.N,unconnected-(U4-Pad12)*%
X182297000Y-119278000D03*
%TD*%
D46*
%TO.P,R26,1*%
%TO.N,Vcc1*%
X137000000Y-134087500D03*
%TO.P,R26,2*%
%TO.N,/LineTrimmer/SCL*%
X137000000Y-135912500D03*
%TD*%
D38*
%TO.P,C14,1*%
%TO.N,+1V1*%
X186862500Y-96000000D03*
%TO.P,C14,2*%
%TO.N,SW1_6*%
X185137500Y-96000000D03*
%TD*%
D39*
%TO.P,R29,1*%
%TO.N,Net-(C11-Pad1)*%
X70000000Y-112912500D03*
%TO.P,R29,2*%
%TO.N,Vcc1*%
X70000000Y-111087500D03*
%TD*%
D38*
%TO.P,C23,1*%
%TO.N,SW1_3*%
X105862500Y-90000000D03*
%TO.P,C23,2*%
%TO.N,SW1_6*%
X104137500Y-90000000D03*
%TD*%
D47*
%TO.P,R6,1*%
%TO.N,SW1_3*%
X221912500Y-86500000D03*
%TO.P,R6,2*%
%TO.N,SCL_IMU*%
X220087500Y-86500000D03*
%TD*%
D39*
%TO.P,R17,1*%
%TO.N,+15V*%
X203000000Y-114912500D03*
%TO.P,R17,2*%
%TO.N,Vbatt*%
X203000000Y-113087500D03*
%TD*%
D48*
%TO.P,SW1,1,1*%
%TO.N,RESET*%
X231850000Y-82375000D03*
X231850000Y-87625000D03*
%TO.P,SW1,2,2*%
%TO.N,SW1_6*%
X230150000Y-87625000D03*
X230150000Y-82375000D03*
%TD*%
D46*
%TO.P,R47,1*%
%TO.N,Net-(C25-Pad1)*%
X127000000Y-129087500D03*
%TO.P,R47,2*%
%TO.N,SCL_IMU*%
X127000000Y-130912500D03*
%TD*%
D37*
%TO.P,C12,1*%
%TO.N,+1V1*%
X186000000Y-100862500D03*
%TO.P,C12,2*%
%TO.N,SW1_6*%
X186000000Y-99137500D03*
%TD*%
D47*
%TO.P,R37,1*%
%TO.N,Net-(R37-Pad1)*%
X120912500Y-71000000D03*
%TO.P,R37,2*%
%TO.N,Net-(R37-Pad2)*%
X119087500Y-71000000D03*
%TD*%
D49*
%TO.P,C21,1*%
%TO.N,SW1_3*%
X166137500Y-80000000D03*
%TO.P,C21,2*%
%TO.N,SW1_6*%
X167862500Y-80000000D03*
%TD*%
D46*
%TO.P,R18,1*%
%TO.N,Vbatt*%
X197000000Y-113087500D03*
%TO.P,R18,2*%
%TO.N,SW1_6*%
X197000000Y-114912500D03*
%TD*%
D50*
%TO.P,U10,1,INT*%
%TO.N,unconnected-(U10-Pad1)*%
X121075000Y-108137500D03*
%TO.P,U10,2,SCL*%
%TO.N,SCL_IMU*%
X121725000Y-108137500D03*
%TO.P,U10,3,NC*%
%TO.N,unconnected-(U10-Pad3)*%
X122375000Y-108137500D03*
%TO.P,U10,4,SDA*%
%TO.N,SDA_IMU*%
X123025000Y-108137500D03*
%TO.P,U10,5,VCC*%
%TO.N,Net-(C25-Pad1)*%
X123675000Y-108137500D03*
%TO.P,U10,6,A0*%
%TO.N,Net-(R41-Pad2)*%
X124325000Y-108137500D03*
%TO.P,U10,7,A1*%
X124975000Y-108137500D03*
%TO.P,U10,8,NC*%
%TO.N,unconnected-(U10-Pad8)*%
X125625000Y-108137500D03*
%TO.P,U10,9,A2*%
%TO.N,Net-(R41-Pad2)*%
X126275000Y-108137500D03*
%TO.P,U10,10,P0*%
%TO.N,Net-(R39-Pad2)*%
X126925000Y-108137500D03*
%TO.P,U10,11,P1*%
%TO.N,Net-(R38-Pad2)*%
X126925000Y-113862500D03*
%TO.P,U10,12,P2*%
%TO.N,Net-(R37-Pad2)*%
X126275000Y-113862500D03*
%TO.P,U10,13,NC*%
%TO.N,unconnected-(U10-Pad13)*%
X125625000Y-113862500D03*
%TO.P,U10,14,P3*%
%TO.N,Net-(R40-Pad2)*%
X124975000Y-113862500D03*
%TO.P,U10,15,GND*%
%TO.N,SW1_6*%
X124325000Y-113862500D03*
%TO.P,U10,16,P4*%
%TO.N,Net-(R45-Pad1)*%
X123675000Y-113862500D03*
%TO.P,U10,17,P5*%
%TO.N,Net-(R44-Pad1)*%
X123025000Y-113862500D03*
%TO.P,U10,18,NC*%
%TO.N,unconnected-(U10-Pad18)*%
X122375000Y-113862500D03*
%TO.P,U10,19,P6*%
%TO.N,Net-(R43-Pad1)*%
X121725000Y-113862500D03*
%TO.P,U10,20,P7*%
%TO.N,Net-(R42-Pad1)*%
X121075000Y-113862500D03*
%TD*%
D51*
%TO.P,C11,1*%
%TO.N,Net-(C11-Pad1)*%
X116000000Y-64137500D03*
%TO.P,C11,2*%
%TO.N,SW1_6*%
X116000000Y-65862500D03*
%TD*%
D39*
%TO.P,R27,1*%
%TO.N,Vcc1*%
X130000000Y-139912500D03*
%TO.P,R27,2*%
%TO.N,/LineTrimmer/SDA*%
X130000000Y-138087500D03*
%TD*%
D47*
%TO.P,R40,1*%
%TO.N,Net-(R40-Pad1)*%
X122912500Y-75000000D03*
%TO.P,R40,2*%
%TO.N,Net-(R40-Pad2)*%
X121087500Y-75000000D03*
%TD*%
D52*
%TO.P,J4,1,Pin_1*%
%TO.N,/rp2040/GPIO00{slash}01*%
X205687000Y-122313000D03*
D53*
%TO.P,J4,2,Pin_2*%
%TO.N,+5V*%
X203890949Y-124109051D03*
%TO.P,J4,3,Pin_3*%
%TO.N,Net-(J4-Pad3)*%
X202094898Y-125905102D03*
%TO.P,J4,4,Pin_4*%
%TO.N,SW1_6*%
X200298846Y-127701154D03*
%TD*%
D47*
%TO.P,R25,1*%
%TO.N,Net-(R25-Pad1)*%
X122912500Y-67000000D03*
%TO.P,R25,2*%
%TO.N,Vcc1*%
X121087500Y-67000000D03*
%TD*%
D54*
%TO.P,D1,1,K*%
%TO.N,Net-(C1-Pad1)*%
X194000000Y-125000000D03*
%TO.P,D1,2,A*%
%TO.N,Net-(D1-Pad2)*%
X194000000Y-121000000D03*
%TD*%
D51*
%TO.P,C15,1*%
%TO.N,SW1_3*%
X194000000Y-100137500D03*
%TO.P,C15,2*%
%TO.N,SW1_6*%
X194000000Y-101862500D03*
%TD*%
D49*
%TO.P,C17,1*%
%TO.N,SW1_3*%
X194137500Y-91000000D03*
%TO.P,C17,2*%
%TO.N,SW1_6*%
X195862500Y-91000000D03*
%TD*%
D37*
%TO.P,C13,1*%
%TO.N,+1V1*%
X182000000Y-100862500D03*
%TO.P,C13,2*%
%TO.N,SW1_6*%
X182000000Y-99137500D03*
%TD*%
D55*
%TO.P,SW2,1,1*%
%TO.N,SW1_6*%
X70200000Y-118700000D03*
%TO.P,SW2,2,2*%
%TO.N,Net-(C11-Pad1)*%
X70200000Y-115300000D03*
%TD*%
D54*
%TO.P,D3,1,K*%
%TO.N,SW1_3*%
X225000000Y-86500000D03*
%TO.P,D3,2,A*%
%TO.N,RESET*%
X225000000Y-82500000D03*
%TD*%
D56*
%TO.P,J12,1,Pin_1*%
%TO.N,/rp2040/GPIO13{slash}17*%
X94313000Y-122313000D03*
D57*
%TO.P,J12,2,Pin_2*%
%TO.N,SW1_6*%
X96109051Y-124109051D03*
%TO.P,J12,3,Pin_3*%
%TO.N,/rp2040/GPIO12{slash}16*%
X97905102Y-125905102D03*
%TO.P,J12,4,Pin_4*%
%TO.N,SW1_6*%
X99701154Y-127701154D03*
%TD*%
D58*
%TO.P,U8,1,~{CS}*%
%TO.N,QSPI_SS*%
X201900000Y-86905000D03*
%TO.P,U8,2,DO(IO1)*%
%TO.N,QSPI_SD1*%
X201900000Y-85635000D03*
%TO.P,U8,3,IO2*%
%TO.N,QSPI_SD2*%
X201900000Y-84365000D03*
%TO.P,U8,4,GND*%
%TO.N,SW1_6*%
X201900000Y-83095000D03*
%TO.P,U8,5,DI(IO0)*%
%TO.N,QSPI_SD0*%
X208100000Y-83095000D03*
%TO.P,U8,6,CLK*%
%TO.N,QSPI_CLK*%
X208100000Y-84365000D03*
%TO.P,U8,7,IO3*%
%TO.N,QSPI_SD3*%
X208100000Y-85635000D03*
%TO.P,U8,8,VCC*%
%TO.N,SW1_3*%
X208100000Y-86905000D03*
%TD*%
D59*
%TO.P,D2,1,K*%
%TO.N,Net-(C1-Pad1)*%
X194000000Y-129000000D03*
%TO.P,D2,2,A*%
%TO.N,+5V*%
X190000000Y-129000000D03*
%TD*%
D60*
%TO.P,U3,1*%
%TO.N,Net-(R8-Pad1)*%
X120235720Y-92807460D03*
%TO.P,U3,2*%
%TO.N,/rp2040/GPIO16{slash}21*%
X120235720Y-91537460D03*
%TO.P,U3,3*%
%TO.N,Net-(R10-Pad1)*%
X120235720Y-90267460D03*
%TO.P,U3,4*%
%TO.N,/rp2040/GPIO17{slash}22*%
X120235720Y-89000000D03*
%TO.P,U3,5*%
%TO.N,Net-(R14-Pad1)*%
X120235720Y-87732540D03*
%TO.P,U3,6*%
%TO.N,/rp2040/GPIO18{slash}24*%
X120235720Y-86462540D03*
%TO.P,U3,7,GND*%
%TO.N,SW1_6*%
X120235720Y-85192540D03*
%TO.P,U3,8*%
%TO.N,/rp2040/GPIO19{slash}25*%
X127764280Y-85192540D03*
%TO.P,U3,9*%
%TO.N,Net-(R12-Pad1)*%
X127764280Y-86462540D03*
%TO.P,U3,10*%
%TO.N,/rp2040/GPIO20{slash}26*%
X127764280Y-87732540D03*
%TO.P,U3,11*%
%TO.N,Net-(R13-Pad1)*%
X127764280Y-89000000D03*
%TO.P,U3,12*%
%TO.N,unconnected-(U3-Pad12)*%
X127764280Y-90267460D03*
%TO.P,U3,13*%
%TO.N,Net-(U2-Pad14)*%
X127764280Y-91537460D03*
%TO.P,U3,14,VCC*%
%TO.N,SW1_3*%
X127764280Y-92807460D03*
%TD*%
D46*
%TO.P,R48,1*%
%TO.N,Net-(C25-Pad1)*%
X125000000Y-100587500D03*
%TO.P,R48,2*%
%TO.N,Net-(D18-Pad2)*%
X125000000Y-102412500D03*
%TD*%
D51*
%TO.P,C16,1*%
%TO.N,SW1_3*%
X177000000Y-62137500D03*
%TO.P,C16,2*%
%TO.N,SW1_6*%
X177000000Y-63862500D03*
%TD*%
D38*
%TO.P,C19,1*%
%TO.N,Net-(C19-Pad1)*%
X189862500Y-67000000D03*
%TO.P,C19,2*%
%TO.N,SW1_6*%
X188137500Y-67000000D03*
%TD*%
D46*
%TO.P,R3,1*%
%TO.N,/rp2040/GPIO01{slash}02*%
X200000000Y-122087500D03*
%TO.P,R3,2*%
%TO.N,Net-(J4-Pad3)*%
X200000000Y-123912500D03*
%TD*%
D61*
%TO.P,R5,1*%
%TO.N,SW1_3*%
X229587500Y-90500000D03*
%TO.P,R5,2*%
%TO.N,RESET*%
X231412500Y-90500000D03*
%TD*%
D49*
%TO.P,C3,1*%
%TO.N,SW1_6*%
X228637500Y-80000000D03*
%TO.P,C3,2*%
%TO.N,RESET*%
X230362500Y-80000000D03*
%TD*%
D62*
%TO.P,Y3,1,1*%
%TO.N,Net-(U7-Pad20)*%
X185000000Y-90000000D03*
%TO.P,Y3,2,2*%
%TO.N,SW1_6*%
X182500000Y-90000000D03*
%TO.P,Y3,3,3*%
%TO.N,Net-(R30-Pad2)*%
X180000000Y-90000000D03*
%TD*%
D63*
%TO.P,J13,1,Pin_1*%
%TO.N,+15V*%
X94313000Y-77687000D03*
D64*
%TO.P,J13,2,Pin_2*%
%TO.N,SW1_6*%
X96109051Y-75890949D03*
%TO.P,J13,3,Pin_3*%
%TO.N,+15V*%
X97905102Y-74094898D03*
%TO.P,J13,4,Pin_4*%
%TO.N,SW1_6*%
X99701154Y-72298846D03*
%TD*%
D51*
%TO.P,C27,1*%
%TO.N,Net-(C25-Pad1)*%
X128000000Y-101225000D03*
%TO.P,C27,2*%
%TO.N,SW1_6*%
X128000000Y-102950000D03*
%TD*%
D55*
%TO.P,SW3,1,1*%
%TO.N,SW1_6*%
X231000000Y-113300000D03*
%TO.P,SW3,2,2*%
%TO.N,Net-(R36-Pad1)*%
X231000000Y-116700000D03*
%TD*%
D65*
%TO.P,D11,1,K*%
%TO.N,Vcc1*%
X68000000Y-110975000D03*
%TO.P,D11,2,A*%
%TO.N,Net-(C11-Pad1)*%
X68000000Y-113025000D03*
%TD*%
D51*
%TO.P,C18,1*%
%TO.N,SW1_3*%
X193000000Y-105137500D03*
%TO.P,C18,2*%
%TO.N,SW1_6*%
X193000000Y-106862500D03*
%TD*%
D46*
%TO.P,R46,1*%
%TO.N,Net-(C25-Pad1)*%
X115000000Y-128087500D03*
%TO.P,R46,2*%
%TO.N,SDA_IMU*%
X115000000Y-129912500D03*
%TD*%
D51*
%TO.P,C8,1*%
%TO.N,Net-(C8-Pad1)*%
X99000000Y-102137500D03*
%TO.P,C8,2*%
%TO.N,SW1_6*%
X99000000Y-103862500D03*
%TD*%
D65*
%TO.P,D12,1,K*%
%TO.N,Vcc1*%
X70000000Y-81975000D03*
%TO.P,D12,2,A*%
%TO.N,Net-(D12-Pad2)*%
X70000000Y-84025000D03*
%TD*%
D51*
%TO.P,C6,1*%
%TO.N,Vbatt*%
X200000000Y-113137500D03*
%TO.P,C6,2*%
%TO.N,SW1_6*%
X200000000Y-114862500D03*
%TD*%
D62*
%TO.P,Y2,1,1*%
%TO.N,Net-(U6-Pad8)*%
X109000000Y-76450000D03*
%TO.P,Y2,2,2*%
%TO.N,SW1_6*%
X109000000Y-73950000D03*
%TO.P,Y2,3,3*%
%TO.N,Net-(U6-Pad7)*%
X109000000Y-71450000D03*
%TD*%
%TO.P,Y1,1,1*%
%TO.N,Net-(U5-Pad8)*%
X108000000Y-110000000D03*
%TO.P,Y1,2,2*%
%TO.N,SW1_6*%
X110500000Y-110000000D03*
%TO.P,Y1,3,3*%
%TO.N,Net-(U5-Pad7)*%
X113000000Y-110000000D03*
%TD*%
D51*
%TO.P,C22,1*%
%TO.N,SW1_3*%
X189000000Y-104137500D03*
%TO.P,C22,2*%
%TO.N,SW1_6*%
X189000000Y-105862500D03*
%TD*%
D66*
%TO.P,J1,*%
%TO.N,*%
X226380000Y-94250000D03*
D67*
X230380000Y-94250000D03*
X230380000Y-105750000D03*
D66*
X226380000Y-105750000D03*
D68*
%TO.P,J1,1,VBUS*%
%TO.N,Net-(D1-Pad2)*%
X225270000Y-102450000D03*
X225270000Y-97550000D03*
D69*
%TO.P,J1,2,D-*%
%TO.N,USB_DM*%
X225270000Y-100250000D03*
X225270000Y-99250000D03*
%TO.P,J1,3,D+*%
%TO.N,USB_DP*%
X225270000Y-99750000D03*
X225270000Y-100750000D03*
D68*
%TO.P,J1,4,GND*%
%TO.N,SW1_6*%
X225270000Y-96775000D03*
X225270000Y-103225000D03*
D69*
%TO.P,J1,5,CC1*%
%TO.N,Net-(J1-Pad5)*%
X225270000Y-98750000D03*
%TO.P,J1,6,CC2*%
%TO.N,Net-(J1-Pad6)*%
X225270000Y-101750000D03*
%TD*%
D70*
%TO.N,Net-(C1-Pad1)*%
X188874100Y-68953500D03*
%TO.N,SW1_6*%
X184265800Y-98956500D03*
X103195200Y-97494600D03*
D71*
X158500000Y-118000000D03*
D70*
X101607000Y-75392800D03*
D71*
X156500000Y-118000000D03*
D70*
X193398500Y-88868500D03*
%TO.N,+5V*%
X196078900Y-77309500D03*
X190559800Y-124705800D03*
D71*
X181000000Y-135000000D03*
X183000000Y-135000000D03*
D70*
%TO.N,SW1_3*%
X192995000Y-91516400D03*
X105687000Y-91087500D03*
X118191300Y-97217600D03*
X193312500Y-103649500D03*
X136178100Y-88693300D03*
X178454400Y-63706500D03*
X130961900Y-88920700D03*
%TO.N,RESET*%
X173530400Y-94192400D03*
X144659600Y-119749200D03*
X204693400Y-82936600D03*
%TO.N,+3.3VA*%
X110189900Y-113570700D03*
%TO.N,Vbatt*%
X195862000Y-105199400D03*
%TO.N,Net-(J16-Pad1)*%
X134615400Y-92270400D03*
%TO.N,Net-(C8-Pad1)*%
X97228200Y-108230400D03*
X100737500Y-100400000D03*
%TO.N,+1V1*%
X183516500Y-100632100D03*
%TO.N,SCL_IMU*%
X183203600Y-92694500D03*
X210016100Y-84727200D03*
%TO.N,Net-(D1-Pad2)*%
X220360700Y-104050400D03*
X194000000Y-108829100D03*
%TO.N,Net-(C19-Pad1)*%
X199921400Y-102459900D03*
X190086000Y-64213700D03*
%TO.N,Net-(C25-Pad1)*%
X123675000Y-109483300D03*
X123997500Y-99900100D03*
X185327300Y-75114000D03*
X198015500Y-72483500D03*
X146391900Y-113969400D03*
%TO.N,Net-(D12-Pad2)*%
X95698100Y-101386400D03*
%TO.N,/rp2040/GPIO14{slash}19*%
X183443000Y-97803700D03*
X143542600Y-127147900D03*
%TO.N,/rp2040/GPIO15{slash}20*%
X150379300Y-130930400D03*
X182442800Y-97777500D03*
%TO.N,/Sheet63625160/SCL_1*%
X180674800Y-96141400D03*
X102466000Y-100417500D03*
X105632400Y-112488100D03*
X117562700Y-134665000D03*
%TO.N,/Sheet63625160/SDA_1*%
X181689500Y-95747900D03*
X103477000Y-101110800D03*
%TO.N,/rp2040/GPIO08{slash}11*%
X157724400Y-119623100D03*
X164753800Y-132067000D03*
X181148900Y-94047500D03*
%TO.N,SDA_IMU*%
X184203800Y-92874600D03*
%TO.N,Net-(J17-Pad1)*%
X113095900Y-97544200D03*
%TO.N,Net-(J17-Pad3)*%
X129442800Y-101264500D03*
%TO.N,Net-(D18-Pad2)*%
X123999300Y-103085200D03*
%TO.N,Net-(J1-Pad5)*%
X222744100Y-99010600D03*
%TO.N,Net-(J1-Pad6)*%
X222825100Y-103055400D03*
%TO.N,Vcc1*%
X123664300Y-70000000D03*
X71972000Y-111137500D03*
X74784500Y-116324500D03*
%TO.N,Net-(J16-Pad2)*%
X136018100Y-90800800D03*
%TO.N,Net-(J20-Pad1)*%
X115333700Y-107023400D03*
X131635300Y-105055900D03*
X117288800Y-105039400D03*
X113852300Y-105659000D03*
X111980100Y-101200900D03*
%TO.N,Net-(J16-Pad3)*%
X134091500Y-80720400D03*
X149635700Y-83524500D03*
X127176400Y-82945500D03*
%TO.N,/rp2040/GPIO13{slash}17*%
X156971600Y-120305000D03*
X184314900Y-97223100D03*
%TO.N,/rp2040/GPIO21{slash}27*%
X184519100Y-101331200D03*
X186597600Y-74433700D03*
X185477800Y-105199400D03*
X177289900Y-95550100D03*
%TO.N,/rp2040/GPIO12{slash}16*%
X181693300Y-97098200D03*
%TO.N,Net-(J16-Pad5)*%
X149638400Y-85961700D03*
%TO.N,Net-(J21-Pad1)*%
X111261000Y-98800000D03*
%TO.N,/rp2040/GPIO00{slash}01*%
X194057100Y-95595400D03*
%TO.N,/rp2040/GPIO01{slash}02*%
X193486500Y-94686700D03*
%TO.N,/rp2040/GPIO09{slash}12*%
X180876000Y-99627400D03*
X170766000Y-128450600D03*
%TO.N,Net-(J21-Pad2)*%
X101974000Y-97154700D03*
X120534300Y-94084300D03*
%TO.N,Net-(J19-Pad1)*%
X144431200Y-114759700D03*
%TO.N,Net-(J21-Pad4)*%
X114080500Y-88004300D03*
X104086500Y-92968400D03*
%TO.N,Net-(J23-Pad3)*%
X122662600Y-71677300D03*
%TO.N,SW1_5*%
X206471100Y-88013300D03*
%TO.N,Net-(J23-Pad1)*%
X120468900Y-69903200D03*
%TO.N,USB_DP*%
X221856100Y-103523100D03*
X204760100Y-104405700D03*
X200840400Y-100981200D03*
%TO.N,USB_DM*%
X222060800Y-100131100D03*
X222743600Y-101411300D03*
%TO.N,QSPI_SS*%
X194835800Y-96901300D03*
X206101600Y-115707700D03*
%TO.N,Net-(J24-Pad1)*%
X106031800Y-71171800D03*
X116348300Y-76343100D03*
X123448400Y-76103700D03*
%TO.N,/rp2040/GPIO20{slash}26*%
X129894500Y-79650000D03*
%TO.N,/rp2040/GPIO16{slash}21*%
X126346100Y-79655700D03*
X143182400Y-84830400D03*
X133792300Y-84883200D03*
X172101200Y-99384500D03*
%TO.N,/rp2040/GPIO18{slash}24*%
X144095000Y-83095200D03*
X123763500Y-79644800D03*
X170930000Y-100162300D03*
X128684400Y-81395500D03*
%TO.N,Net-(J23-Pad4)*%
X119422800Y-69920100D03*
%TO.N,/rp2040/GPIO17{slash}22*%
X158018900Y-81302700D03*
X149642400Y-84961500D03*
X118154600Y-89224400D03*
%TO.N,/rp2040/GPIO19{slash}25*%
X126087900Y-84347000D03*
X126315800Y-88405600D03*
X142647500Y-88018100D03*
X171707500Y-101612800D03*
%TO.N,/LineTrimmer/SCL*%
X116729100Y-66876400D03*
X92817300Y-121750500D03*
%TO.N,/LineTrimmer/SDA*%
X70351600Y-109090200D03*
X116407500Y-55797900D03*
X114978800Y-134993900D03*
X93959300Y-113608700D03*
%TO.N,Net-(J24-Pad2)*%
X116563300Y-67991000D03*
X124993400Y-74591400D03*
%TO.N,Line5*%
X132419200Y-90218400D03*
%TO.N,Net-(J24-Pad3)*%
X126454800Y-73503000D03*
%TO.N,Net-(J24-Pad4)*%
X115885400Y-78231000D03*
X118738200Y-66306100D03*
X105963000Y-76165400D03*
%TO.N,QSPI_SD3*%
X201761900Y-99698800D03*
%TO.N,QSPI_CLK*%
X200149800Y-99023600D03*
%TO.N,QSPI_SD0*%
X196629500Y-98600000D03*
%TO.N,QSPI_SD2*%
X199848300Y-97240400D03*
%TO.N,QSPI_SD1*%
X196964500Y-96187300D03*
%TO.N,Net-(R13-Pad1)*%
X125574600Y-76309200D03*
%TO.N,Net-(R8-Pad1)*%
X122087500Y-94080300D03*
%TO.N,Net-(R14-Pad1)*%
X118829800Y-88482800D03*
%TO.N,Net-(R10-Pad1)*%
X122210600Y-83295500D03*
%TO.N,Net-(R23-Pad1)*%
X100089800Y-84472300D03*
X105562900Y-97671300D03*
%TO.N,Net-(R12-Pad1)*%
X130903300Y-86495200D03*
%TO.N,Net-(R30-Pad1)*%
X176356300Y-101919900D03*
X180399000Y-97877200D03*
%TO.N,Net-(R36-Pad1)*%
X229581900Y-116874200D03*
%TO.N,Net-(R25-Pad1)*%
X124001800Y-66800000D03*
%TO.N,Net-(R38-Pad2)*%
X127186200Y-115210100D03*
%TO.N,Net-(R39-Pad2)*%
X123169700Y-118864200D03*
X94699100Y-120272900D03*
X124980000Y-110498100D03*
%TO.N,Net-(R37-Pad1)*%
X120916600Y-81474900D03*
X141288300Y-89377400D03*
X168358400Y-105421300D03*
%TO.N,Net-(R40-Pad1)*%
X129216000Y-83530300D03*
X167896000Y-106393800D03*
X143144900Y-83821100D03*
%TO.N,Net-(R43-Pad1)*%
X122505000Y-112506800D03*
%TO.N,Net-(U2-Pad12)*%
X127248000Y-81374200D03*
X128634600Y-82485100D03*
%TO.N,Net-(U2-Pad14)*%
X129807500Y-87165300D03*
%TO.N,Net-(U7-Pad20)*%
X177990900Y-94775900D03*
%TO.N,Net-(R41-Pad2)*%
X127100500Y-106793000D03*
%TO.N,Net-(J19-Pad2)*%
X147139300Y-113288200D03*
%TO.N,Net-(J19-Pad4)*%
X136541600Y-108538400D03*
%TO.N,Net-(R37-Pad2)*%
X137197700Y-90464900D03*
X120134500Y-82602500D03*
%TO.N,Net-(R40-Pad2)*%
X126258000Y-100575300D03*
X111659800Y-91166500D03*
%TO.N,Net-(R45-Pad1)*%
X122152000Y-118520900D03*
%TO.N,Net-(R44-Pad1)*%
X121757700Y-117518100D03*
%TO.N,Net-(R42-Pad1)*%
X120904400Y-116747600D03*
X99530900Y-106112600D03*
X102514200Y-118851100D03*
%TD*%
D72*
%TO.N,Net-(C1-Pad1)*%
X196788200Y-77049500D02*
X195738700Y-76000000D01*
X194000000Y-125000000D02*
X192824900Y-125000000D01*
X196788200Y-81618500D02*
X196788200Y-77049500D01*
X194000000Y-129000000D02*
X194000000Y-125000000D01*
X189133900Y-97158400D02*
X189133900Y-89272800D01*
X192824900Y-113153600D02*
X187892900Y-108221600D01*
X188874100Y-70279200D02*
X188874100Y-68953500D01*
X194594900Y-76000000D02*
X188874100Y-70279200D01*
X195738700Y-76000000D02*
X194594900Y-76000000D01*
X187892900Y-108221600D02*
X187892900Y-98399400D01*
X189133900Y-89272800D02*
X196788200Y-81618500D01*
X187892900Y-98399400D02*
X189133900Y-97158400D01*
X192824900Y-125000000D02*
X192824900Y-113153600D01*
%TO.N,SW1_6*%
X185137500Y-99137500D02*
X184265800Y-99137500D01*
X96109100Y-124109100D02*
X96506900Y-124506900D01*
X133730000Y-123190000D02*
X133029100Y-123190000D01*
X231000000Y-113300000D02*
X231000000Y-108844400D01*
X174422000Y-124873000D02*
X176347100Y-124873000D01*
X114054100Y-73950000D02*
X109000000Y-73950000D01*
X98855800Y-107714200D02*
X91265000Y-115305000D01*
X190000000Y-100850400D02*
X190000000Y-100000000D01*
D73*
X156500000Y-118000000D02*
X158500000Y-118000000D01*
D72*
X181154000Y-130457000D02*
X181154000Y-132647100D01*
X200000000Y-114862500D02*
X197050000Y-114862500D01*
X181204700Y-114255300D02*
X181204700Y-100253500D01*
X109000000Y-74097700D02*
X104137500Y-78960200D01*
X230150000Y-81849900D02*
X230150000Y-82375000D01*
X190000000Y-100850400D02*
X190000000Y-101875100D01*
X181204700Y-100253500D02*
X182000000Y-99458200D01*
X70200000Y-118700000D02*
X83717400Y-118700000D01*
X177000000Y-69777300D02*
X177000000Y-67000000D01*
X195862500Y-91000000D02*
X195862500Y-90199300D01*
X83717400Y-118700000D02*
X87649900Y-114767500D01*
X185137500Y-99137500D02*
X186000000Y-99137500D01*
D73*
X157381624Y-140200000D02*
X156700000Y-140200000D01*
D72*
X182000000Y-99458200D02*
X182000000Y-99137500D01*
X107750000Y-112750000D02*
X110500000Y-110000000D01*
X190000000Y-98124900D02*
X190000000Y-93464300D01*
D73*
X160200610Y-140200000D02*
X161500000Y-138900610D01*
D72*
X195000000Y-75137500D02*
X195000000Y-73137500D01*
X133730000Y-130810000D02*
X133730000Y-137470000D01*
X107750000Y-123450000D02*
X107750000Y-112750000D01*
X225270000Y-96775000D02*
X224720000Y-96775000D01*
X218810000Y-104736300D02*
X225045100Y-104736300D01*
X98855800Y-104006700D02*
X98855800Y-107714200D01*
X195862500Y-85486900D02*
X198254400Y-83095000D01*
X189995600Y-101875100D02*
X190000000Y-101875100D01*
X197000000Y-114912500D02*
X195880800Y-113793300D01*
X190000000Y-106862500D02*
X189000000Y-105862500D01*
X227095600Y-104940000D02*
X225698600Y-104940000D01*
X114054100Y-73950000D02*
X114054100Y-80084800D01*
X180017000Y-121203100D02*
X176347100Y-124873000D01*
X167275000Y-77525000D02*
X169252300Y-77525000D01*
X99812900Y-83794200D02*
X104137500Y-83794200D01*
X218810000Y-104736300D02*
X218810000Y-107460000D01*
X190000000Y-100000000D02*
X190000000Y-98124900D01*
X224720000Y-96775000D02*
X224720000Y-96039200D01*
X133730000Y-137470000D02*
X132750000Y-138450000D01*
X99701200Y-127701200D02*
X98905600Y-128496800D01*
X230150000Y-87625000D02*
X230150000Y-86574900D01*
X221209300Y-96775000D02*
X221209300Y-98975700D01*
X218000000Y-90000000D02*
X218000000Y-91125100D01*
X230412500Y-88937600D02*
X230150000Y-88675100D01*
X189000000Y-105862500D02*
X188243500Y-105106000D01*
X225664400Y-95094800D02*
X227056200Y-95094800D01*
X167862500Y-80000000D02*
X167862500Y-78112500D01*
D73*
X151250000Y-118000000D02*
X156500000Y-118000000D01*
D72*
X181154000Y-132647100D02*
X178852900Y-132647100D01*
X128000000Y-102950000D02*
X128000000Y-108927400D01*
X117408500Y-66575600D02*
X117408500Y-70595600D01*
X133029100Y-123190000D02*
X124325000Y-114485900D01*
X198254400Y-83095000D02*
X198254400Y-78020500D01*
X228637500Y-80000000D02*
X229962400Y-81324900D01*
X104137500Y-83794200D02*
X104137500Y-90000000D01*
X195137500Y-73000000D02*
X195000000Y-73137500D01*
X221209300Y-98975700D02*
X217645000Y-102540000D01*
X120235700Y-85192500D02*
X119161800Y-85192500D01*
X180460000Y-115000000D02*
X181204700Y-114255300D01*
X99402300Y-84204800D02*
X99812900Y-83794200D01*
X230412500Y-91738500D02*
X230412500Y-88937600D01*
X231000000Y-108844400D02*
X227095600Y-104940000D01*
X198254400Y-78020500D02*
X195371400Y-75137500D01*
X195880800Y-109743300D02*
X193000000Y-106862500D01*
X230330500Y-86394400D02*
X230330500Y-83605600D01*
X91265000Y-114767500D02*
X91265000Y-115305000D01*
X224169900Y-96775000D02*
X221209300Y-96775000D01*
X104137500Y-78960200D02*
X104137500Y-83794200D01*
X124325000Y-112602400D02*
X124325000Y-113862500D01*
D74*
X101607000Y-75392800D02*
X101109000Y-75891000D01*
D72*
X118500000Y-129000000D02*
X118500000Y-122000000D01*
X99000000Y-103862500D02*
X98855800Y-104006700D01*
X230330500Y-83605600D02*
X230150000Y-83425100D01*
X133730000Y-130810000D02*
X133730000Y-123190000D01*
X180017000Y-119278000D02*
X180017000Y-115443000D01*
X212163800Y-117427400D02*
X212163800Y-108433800D01*
X221209300Y-94334400D02*
X221209300Y-96775000D01*
X225270000Y-104511400D02*
X225270000Y-103225000D01*
X167862500Y-78112500D02*
X167275000Y-77525000D01*
X180017000Y-119278000D02*
X180017000Y-121203100D01*
X200696600Y-128099000D02*
X200298800Y-127701200D01*
X91265000Y-115305000D02*
X91265000Y-115842600D01*
X201900000Y-83095000D02*
X198254400Y-83095000D01*
X188243500Y-105106000D02*
X188243500Y-103627200D01*
X115450000Y-105050000D02*
X115450000Y-103750000D01*
X194000000Y-105862500D02*
X193000000Y-106862500D01*
X109000000Y-73950000D02*
X109000000Y-74097700D01*
X227056200Y-95094800D02*
X230412500Y-91738500D01*
X225698600Y-104940000D02*
X225270000Y-104511400D01*
X195862500Y-90199300D02*
X195862500Y-85486900D01*
X103195200Y-97494600D02*
X102859900Y-97829900D01*
X185137500Y-92637500D02*
X182500000Y-90000000D01*
X116000000Y-65862500D02*
X116695400Y-65862500D01*
X110500000Y-110000000D02*
X115450000Y-105050000D01*
X217645000Y-102540000D02*
X218810000Y-103705000D01*
X101649200Y-97829900D02*
X99402300Y-95583000D01*
X118250000Y-56450000D02*
X118250000Y-63612500D01*
X177000000Y-67000000D02*
X177000000Y-63862500D01*
X185137500Y-96000000D02*
X185137500Y-92637500D01*
X99402300Y-95583000D02*
X99402300Y-84204800D01*
X200696600Y-128099000D02*
X201094400Y-128496800D01*
D73*
X156700000Y-140200000D02*
X148242500Y-131742500D01*
D72*
X182000000Y-99137500D02*
X184265800Y-99137500D01*
X201094400Y-128496800D02*
X212163800Y-117427400D01*
X224720000Y-96039200D02*
X225664400Y-95094800D01*
X195880800Y-113793300D02*
X195880800Y-109743300D01*
X96109200Y-75891000D02*
X96109100Y-75890900D01*
X114054100Y-80084800D02*
X119161800Y-85192500D01*
X178852900Y-132647100D02*
X173500000Y-138000000D01*
X96739900Y-126331100D02*
X96739900Y-125069400D01*
X224720000Y-96775000D02*
X224169900Y-96775000D01*
D74*
X96109200Y-75891000D02*
X96109000Y-75891000D01*
D72*
X128000000Y-108927400D02*
X124325000Y-112602400D01*
X218000000Y-91125100D02*
X221209300Y-94334400D01*
X193000000Y-106862500D02*
X190000000Y-106862500D01*
X180017000Y-115443000D02*
X180460000Y-115000000D01*
X118250000Y-63612500D02*
X116000000Y-65862500D01*
X230150000Y-82375000D02*
X230150000Y-83425100D01*
D73*
X148242500Y-131742500D02*
X148242500Y-129450000D01*
D72*
X190000000Y-93464300D02*
X193265000Y-90199300D01*
X218810000Y-103705000D02*
X218810000Y-104736300D01*
X193398500Y-90199300D02*
X195862500Y-90199300D01*
X169252300Y-77525000D02*
X177000000Y-69777300D01*
X195371400Y-75137500D02*
X195000000Y-75137500D01*
X185137500Y-99137500D02*
X185137500Y-96000000D01*
X193398500Y-90199300D02*
X193398500Y-88868500D01*
X177000000Y-67000000D02*
X188137500Y-67000000D01*
X96506900Y-124506900D02*
X96904700Y-124904600D01*
X194275000Y-73137500D02*
X195000000Y-73137500D01*
X96506900Y-121084500D02*
X91265000Y-115842600D01*
X188243500Y-103627200D02*
X189995600Y-101875100D01*
X118750000Y-129250000D02*
X118500000Y-129000000D01*
X124325000Y-114485900D02*
X124325000Y-113862500D01*
X98905600Y-128496800D02*
X96739900Y-126331100D01*
X230150000Y-81849900D02*
X230150000Y-81324900D01*
X230150000Y-87625000D02*
X230150000Y-88675100D01*
X116695400Y-65862500D02*
X117408500Y-66575600D01*
X96506900Y-124506900D02*
X96506900Y-121084500D01*
X117408500Y-70595600D02*
X114054100Y-73950000D01*
X230150000Y-86574900D02*
X230330500Y-86394400D01*
X184265800Y-99137500D02*
X184265800Y-98956500D01*
X88725000Y-114767500D02*
X87649900Y-114767500D01*
X194000000Y-101862500D02*
X194000000Y-105862500D01*
X197050000Y-114862500D02*
X197000000Y-114912500D01*
X118750000Y-136450000D02*
X118750000Y-129250000D01*
D73*
X157381624Y-140200000D02*
X160200610Y-140200000D01*
D72*
X188137500Y-67000000D02*
X194275000Y-73137500D01*
X102859900Y-97829900D02*
X101649200Y-97829900D01*
D74*
X101109000Y-75891000D02*
X96109200Y-75891000D01*
D72*
X193265000Y-90199300D02*
X193398500Y-90199300D01*
X96739900Y-125069400D02*
X96904700Y-124904600D01*
X225045100Y-104736300D02*
X225270000Y-104511400D01*
X229962400Y-81324900D02*
X230150000Y-81324900D01*
X212163800Y-108433800D02*
X211190000Y-107460000D01*
%TO.N,+5V*%
X190559800Y-124705800D02*
X190559800Y-112174600D01*
X195631900Y-76862500D02*
X195000000Y-76862500D01*
X187516600Y-109131400D02*
X187516600Y-98032600D01*
D73*
X185602000Y-124873000D02*
X185602000Y-128295000D01*
D72*
X190559800Y-112174600D02*
X187516600Y-109131400D01*
X189797100Y-130378000D02*
X190000000Y-130175100D01*
X188415700Y-97133500D02*
X188415700Y-83446800D01*
D73*
X185602000Y-128295000D02*
X185599000Y-128298000D01*
X185599000Y-132458000D02*
X185528000Y-132528000D01*
D72*
X187516600Y-98032600D02*
X188415700Y-97133500D01*
X185599000Y-130378000D02*
X189797100Y-130378000D01*
D73*
X185528000Y-132528000D02*
X183057000Y-135000000D01*
D72*
X190000000Y-129000000D02*
X190000000Y-130175100D01*
D73*
X185599000Y-130378000D02*
X185599000Y-132458000D01*
X185599000Y-128298000D02*
X185599000Y-130378000D01*
D72*
X196078900Y-77309500D02*
X195631900Y-76862500D01*
D73*
X183000000Y-135000000D02*
X181000000Y-135000000D01*
D72*
X188415700Y-83446800D02*
X195000000Y-76862500D01*
D73*
X183057000Y-135000000D02*
X183000000Y-135000000D01*
D72*
%TO.N,SW1_3*%
X229587500Y-90500000D02*
X226175100Y-87087600D01*
X110750000Y-123450000D02*
X110750000Y-114845700D01*
X212000000Y-88874900D02*
X210030100Y-86905000D01*
X212565000Y-100000000D02*
X215105000Y-97460000D01*
X215105000Y-94230100D02*
X212000000Y-91125100D01*
X127227400Y-92807500D02*
X127764300Y-92807500D01*
X177000000Y-62137500D02*
X177000000Y-62425400D01*
X105862500Y-90912000D02*
X105862500Y-90000000D01*
X192290300Y-104427800D02*
X193161200Y-103556900D01*
X147940600Y-76585100D02*
X136178100Y-88347600D01*
X193161200Y-103556900D02*
X193219900Y-103556900D01*
X110750000Y-114845700D02*
X118191300Y-107404400D01*
X192000000Y-104137500D02*
X192290300Y-104427800D01*
X164835100Y-76585100D02*
X147940600Y-76585100D01*
X225000000Y-86500000D02*
X221912500Y-86500000D01*
X121500000Y-136200000D02*
X121500000Y-129000000D01*
X193308100Y-91829400D02*
X192811200Y-92326300D01*
X128838200Y-92807500D02*
X130961900Y-90683800D01*
X192290300Y-104427800D02*
X193000000Y-105137500D01*
X166675900Y-76624100D02*
X169658000Y-76624100D01*
X166137500Y-80000000D02*
X165775000Y-79637500D01*
X127764300Y-92807500D02*
X128838200Y-92807500D01*
X212000000Y-90000000D02*
X212000000Y-91125100D01*
X193161200Y-103556900D02*
X193161200Y-100137500D01*
X172324600Y-67100800D02*
X177000000Y-62425400D01*
X136178100Y-88347600D02*
X136178100Y-88693300D01*
X126066000Y-92183100D02*
X126690400Y-92807500D01*
X177000000Y-62425400D02*
X177173300Y-62425400D01*
X225000000Y-86500000D02*
X226175100Y-86500000D01*
X121750000Y-136450000D02*
X121500000Y-136200000D01*
X118191300Y-107404400D02*
X118191300Y-97217600D01*
X130961900Y-90683800D02*
X130961900Y-88920700D01*
X165775000Y-77525000D02*
X166675900Y-76624100D01*
X193161200Y-100137500D02*
X194000000Y-100137500D01*
X193308100Y-91829400D02*
X192995000Y-91516400D01*
X219537600Y-88874900D02*
X221912500Y-86500000D01*
X121500000Y-129000000D02*
X121500000Y-122000000D01*
X108045600Y-92183100D02*
X126066000Y-92183100D01*
X165775000Y-77525000D02*
X164835100Y-76585100D01*
X193219900Y-103556900D02*
X193312500Y-103649500D01*
X189000000Y-104137500D02*
X192000000Y-104137500D01*
X215105000Y-97460000D02*
X217645000Y-97460000D01*
X192811200Y-92326300D02*
X192811200Y-99787500D01*
X196000000Y-92862500D02*
X196000000Y-95087500D01*
X127227400Y-92807500D02*
X126690400Y-92807500D01*
X215105000Y-97460000D02*
X215105000Y-94230100D01*
X212000000Y-88874900D02*
X219537600Y-88874900D01*
X212000000Y-90000000D02*
X212000000Y-88874900D01*
X194137500Y-91000000D02*
X196000000Y-92862500D01*
X194137500Y-91000000D02*
X193308100Y-91829400D01*
X105862500Y-90000000D02*
X108045600Y-92183100D01*
X177173300Y-62425400D02*
X178454400Y-63706500D01*
X210030100Y-86905000D02*
X208100000Y-86905000D01*
X169658000Y-76624100D02*
X172324600Y-73957500D01*
X165775000Y-79637500D02*
X165775000Y-77525000D01*
X192811200Y-99787500D02*
X193161200Y-100137500D01*
X226175100Y-87087600D02*
X226175100Y-86500000D01*
X172324600Y-73957500D02*
X172324600Y-67100800D01*
X105687000Y-91087500D02*
X105862500Y-90912000D01*
%TO.N,RESET*%
X230362500Y-80000000D02*
X231687400Y-81324900D01*
X229607800Y-79245300D02*
X230362500Y-80000000D01*
X231656300Y-86381200D02*
X231850000Y-86574900D01*
X231850000Y-87625000D02*
X231850000Y-86574900D01*
X231656300Y-83618800D02*
X231656300Y-86381200D01*
X173082900Y-102680100D02*
X173082900Y-99965100D01*
X205892600Y-81737400D02*
X204693400Y-82936600D01*
X231850000Y-82375000D02*
X231850000Y-83425100D01*
X231850000Y-81849900D02*
X231850000Y-81324900D01*
X173082900Y-99965100D02*
X173530400Y-99517600D01*
X144659600Y-119749200D02*
X150615300Y-113793500D01*
X231850000Y-87625000D02*
X231850000Y-90062500D01*
X225000000Y-82500000D02*
X225000000Y-81737400D01*
X231687400Y-81324900D02*
X231850000Y-81324900D01*
X225000000Y-80974900D02*
X226729600Y-79245300D01*
X225000000Y-81737400D02*
X205892600Y-81737400D01*
X231850000Y-90062500D02*
X231412500Y-90500000D01*
X150615300Y-113793500D02*
X161969500Y-113793500D01*
X231850000Y-81849900D02*
X231850000Y-82375000D01*
X226729600Y-79245300D02*
X229607800Y-79245300D01*
X173530400Y-99517600D02*
X173530400Y-94192400D01*
X161969500Y-113793500D02*
X173082900Y-102680100D01*
X225000000Y-81737400D02*
X225000000Y-80974900D01*
X231850000Y-83425100D02*
X231656300Y-83618800D01*
%TO.N,+15V*%
X192474700Y-128755200D02*
X192474700Y-130028200D01*
X185392300Y-121672800D02*
X192474700Y-128755200D01*
X183835800Y-121672800D02*
X185392300Y-121672800D01*
X175693000Y-129815600D02*
X183835800Y-121672800D01*
D73*
X175693000Y-130457000D02*
X153209500Y-130457000D01*
D72*
X175693000Y-130457000D02*
X175693000Y-129815600D01*
X195639200Y-129900800D02*
X195639200Y-122273300D01*
X192621700Y-130175200D02*
X195364800Y-130175200D01*
X195639200Y-122273300D02*
X203000000Y-114912500D01*
X192474700Y-130028200D02*
X192621700Y-130175200D01*
X195364800Y-130175200D02*
X195639200Y-129900800D01*
D73*
X153209500Y-130457000D02*
X152202500Y-129450000D01*
D72*
%TO.N,+3.3VA*%
X115450000Y-97750000D02*
X116386200Y-98686200D01*
X111625200Y-109751900D02*
X111625200Y-112135400D01*
X111625200Y-112135400D02*
X110189900Y-113570700D01*
X116386200Y-104990900D02*
X111625200Y-109751900D01*
X116386200Y-98686200D02*
X116386200Y-104990900D01*
%TO.N,Vbatt*%
X202950000Y-113137500D02*
X203000000Y-113087500D01*
X197000000Y-106337400D02*
X195862000Y-105199400D01*
X200000000Y-113137500D02*
X202950000Y-113137500D01*
X197050000Y-113137500D02*
X197000000Y-113087500D01*
X197000000Y-113087500D02*
X197000000Y-106337400D01*
X200000000Y-113137500D02*
X197050000Y-113137500D01*
%TO.N,Net-(J16-Pad1)*%
X156775000Y-77525000D02*
X147495900Y-77525000D01*
X147495900Y-77525000D02*
X140321600Y-84699300D01*
X134615400Y-91211000D02*
X134615400Y-92270400D01*
X140321600Y-85504800D02*
X134615400Y-91211000D01*
X140321600Y-84699300D02*
X140321600Y-85504800D01*
%TO.N,Net-(C8-Pad1)*%
X99000000Y-102137500D02*
X100737500Y-100400000D01*
X103700800Y-99735400D02*
X101402100Y-99735400D01*
X97228200Y-103909300D02*
X97228200Y-108230400D01*
X99000000Y-102137500D02*
X97228200Y-103909300D01*
X104491200Y-100525800D02*
X103700800Y-99735400D01*
X115450000Y-102250000D02*
X113725800Y-100525800D01*
X101402100Y-99735400D02*
X100737500Y-100400000D01*
X113725800Y-100525800D02*
X104491200Y-100525800D01*
%TO.N,+1V1*%
X186000000Y-100862500D02*
X186862500Y-100000000D01*
X182000000Y-100862500D02*
X182206400Y-100656100D01*
X183516500Y-100656100D02*
X185793600Y-100656100D01*
X185793600Y-100656100D02*
X186000000Y-100862500D01*
X183516500Y-100656100D02*
X183516500Y-100632100D01*
X186862500Y-100000000D02*
X186862500Y-96000000D01*
X182206400Y-100656100D02*
X183516500Y-100656100D01*
%TO.N,SCL_IMU*%
X149921900Y-117196400D02*
X152303900Y-114814400D01*
X161939000Y-114814400D02*
X173783100Y-102970300D01*
X123000000Y-122900100D02*
X123450100Y-123350200D01*
X123450100Y-129000000D02*
X125087500Y-129000000D01*
X178872300Y-95349400D02*
X181527200Y-92694500D01*
X119529100Y-117874300D02*
X122754700Y-121099900D01*
X121725000Y-108137500D02*
X121725000Y-110731200D01*
X149921900Y-119698100D02*
X149921900Y-117196400D01*
X123450100Y-123350200D02*
X123450100Y-129000000D01*
X125087500Y-129000000D02*
X127000000Y-130912500D01*
X138810000Y-130810000D02*
X149921900Y-119698100D01*
X122754700Y-121099900D02*
X123000000Y-121099900D01*
X152303900Y-114814400D02*
X161939000Y-114814400D01*
X123000000Y-122000000D02*
X123000000Y-122900100D01*
X178872300Y-95436800D02*
X178872300Y-95349400D01*
X173783100Y-100526000D02*
X178872300Y-95436800D01*
X123000000Y-122000000D02*
X123000000Y-121099900D01*
X173783100Y-102970300D02*
X173783100Y-100526000D01*
X123000000Y-129000000D02*
X123450100Y-129000000D01*
X181527200Y-92694500D02*
X183203600Y-92694500D01*
X119529100Y-112927100D02*
X119529100Y-117874300D01*
X218314700Y-84727200D02*
X210016100Y-84727200D01*
X220087500Y-86500000D02*
X218314700Y-84727200D01*
X121725000Y-110731200D02*
X119529100Y-112927100D01*
%TO.N,Net-(D1-Pad2)*%
X223250000Y-97550000D02*
X221181000Y-99619000D01*
X220420400Y-103990700D02*
X220360700Y-104050400D01*
X222622200Y-104213100D02*
X224169900Y-102665400D01*
X221181000Y-103990700D02*
X221403400Y-104213100D01*
X224169900Y-102665400D02*
X224169900Y-102450000D01*
X225270000Y-97550000D02*
X224169900Y-97550000D01*
X224169900Y-97550000D02*
X223250000Y-97550000D01*
X194000000Y-121000000D02*
X194000000Y-108829100D01*
X225270000Y-102450000D02*
X224169900Y-102450000D01*
X221403400Y-104213100D02*
X222622200Y-104213100D01*
X221181000Y-103990700D02*
X220420400Y-103990700D01*
X221181000Y-99619000D02*
X221181000Y-103990700D01*
%TO.N,Net-(C11-Pad1)*%
X71061400Y-104490800D02*
X90922100Y-84630100D01*
X116000000Y-64137500D02*
X116000000Y-57395700D01*
X93549500Y-84630100D02*
X114042100Y-64137500D01*
X70200000Y-115300000D02*
X70200000Y-114499900D01*
X90922100Y-84630100D02*
X93549500Y-84630100D01*
X70000000Y-112912500D02*
X71061400Y-111851100D01*
X71061400Y-111851100D02*
X71061400Y-104490800D01*
X69887500Y-113025000D02*
X70000000Y-112912500D01*
X70200000Y-114499900D02*
X69887500Y-114187400D01*
X118801300Y-55501300D02*
X119750000Y-56450000D01*
X68000000Y-113025000D02*
X69887500Y-113025000D01*
X69887500Y-114187400D02*
X69887500Y-113025000D01*
X116000000Y-57395700D02*
X117894400Y-55501300D01*
X117894400Y-55501300D02*
X118801300Y-55501300D01*
X114042100Y-64137500D02*
X116000000Y-64137500D01*
%TO.N,Net-(C19-Pad1)*%
X195904100Y-98238200D02*
X195904100Y-98834100D01*
X189862500Y-64437200D02*
X190086000Y-64213700D01*
X203556900Y-91147700D02*
X197028500Y-97676100D01*
X200601700Y-83730000D02*
X200313000Y-84018700D01*
X203241400Y-83730000D02*
X200601700Y-83730000D01*
X199529900Y-102459900D02*
X199921400Y-102459900D01*
X196000000Y-75097800D02*
X203475800Y-82573600D01*
X190426700Y-67000000D02*
X196000000Y-72573300D01*
X203556900Y-85353300D02*
X203556900Y-91147700D01*
X200313000Y-84018700D02*
X200313000Y-84736700D01*
X200313000Y-84736700D02*
X200576300Y-85000000D01*
X203475800Y-82573600D02*
X203475800Y-83495600D01*
X189862500Y-67000000D02*
X190426700Y-67000000D01*
X195904100Y-98834100D02*
X199529900Y-102459900D01*
X196466200Y-97676100D02*
X195904100Y-98238200D01*
X196000000Y-72573300D02*
X196000000Y-75097800D01*
X189862500Y-67000000D02*
X189862500Y-64437200D01*
X203475800Y-83495600D02*
X203241400Y-83730000D01*
X200576300Y-85000000D02*
X203203600Y-85000000D01*
X197028500Y-97676100D02*
X196466200Y-97676100D01*
X203203600Y-85000000D02*
X203556900Y-85353300D01*
%TO.N,Net-(C25-Pad1)*%
X197379000Y-72483500D02*
X196862500Y-73000000D01*
X119879200Y-117729200D02*
X122286400Y-120136400D01*
X119879200Y-113279100D02*
X119879200Y-117729200D01*
X149230500Y-113443300D02*
X161824500Y-113443300D01*
X128487600Y-129087500D02*
X130210100Y-130810000D01*
X172732800Y-102535000D02*
X172732800Y-99820000D01*
X120626200Y-106720900D02*
X123675000Y-106720900D01*
X115000000Y-128087500D02*
X115000000Y-112347100D01*
X127879800Y-101345200D02*
X128000000Y-101225000D01*
X122286400Y-120136400D02*
X122781500Y-120136400D01*
X161824500Y-113443300D02*
X172732800Y-102535000D01*
X123675000Y-109483300D02*
X119879200Y-113279100D01*
X125000000Y-100587500D02*
X125757700Y-101345200D01*
X148704400Y-113969400D02*
X149230500Y-113443300D01*
X115000000Y-112347100D02*
X120626200Y-106720900D01*
X172790200Y-87651100D02*
X185327300Y-75114000D01*
X131190000Y-130810000D02*
X130210100Y-130810000D01*
X146391900Y-113969400D02*
X148704400Y-113969400D01*
X125757700Y-104638200D02*
X123675000Y-106720900D01*
X122781500Y-120136400D02*
X127000000Y-124354900D01*
X125757700Y-101345200D02*
X127879800Y-101345200D01*
X124312600Y-99900100D02*
X123997500Y-99900100D01*
X127000000Y-129087500D02*
X128487600Y-129087500D01*
X198015500Y-72483500D02*
X197379000Y-72483500D01*
X123675000Y-108137500D02*
X123675000Y-106720900D01*
X125000000Y-100587500D02*
X124312600Y-99900100D01*
X125757700Y-101345200D02*
X125757700Y-104638200D01*
X123675000Y-109483300D02*
X123675000Y-108137500D01*
X172732800Y-99820000D02*
X172790200Y-99762600D01*
X127000000Y-124354900D02*
X127000000Y-129087500D01*
X172790200Y-99762600D02*
X172790200Y-87651100D01*
%TO.N,Net-(D12-Pad2)*%
X128194600Y-95472500D02*
X140750000Y-82917100D01*
X87500000Y-100000000D02*
X87500000Y-90000000D01*
X114071600Y-94598300D02*
X116465400Y-94598300D01*
X95698100Y-101386400D02*
X97759300Y-99325200D01*
X109248000Y-99421900D02*
X114071600Y-94598300D01*
X77500000Y-100000000D02*
X77500000Y-110000000D01*
X117339600Y-95472500D02*
X128194600Y-95472500D01*
X71525000Y-84025000D02*
X77500000Y-90000000D01*
X104377700Y-99421900D02*
X109248000Y-99421900D01*
X104281000Y-99325200D02*
X104377700Y-99421900D01*
X140750000Y-82917100D02*
X140750000Y-77550000D01*
X97759300Y-99325200D02*
X104281000Y-99325200D01*
X116465400Y-94598300D02*
X117339600Y-95472500D01*
X70000000Y-84025000D02*
X71525000Y-84025000D01*
%TO.N,/rp2040/GPIO14{slash}19*%
X143542600Y-127147900D02*
X149703600Y-120986900D01*
X174833400Y-104471200D02*
X174833400Y-100961300D01*
X180721900Y-95072800D02*
X181969200Y-95072800D01*
X181969200Y-95072800D02*
X183443000Y-96546600D01*
X149703600Y-120986900D02*
X158317700Y-120986900D01*
X183443000Y-96546600D02*
X183443000Y-97803700D01*
X174833400Y-100961300D02*
X180721900Y-95072800D01*
X158317700Y-120986900D02*
X174833400Y-104471200D01*
%TO.N,/rp2040/GPIO15{slash}20*%
X150379300Y-130930400D02*
X150379300Y-128930400D01*
X179845900Y-99702800D02*
X180646300Y-98902400D01*
X180646300Y-98902400D02*
X180823700Y-98902400D01*
X181948600Y-97777500D02*
X182442800Y-97777500D01*
X150379300Y-128930400D02*
X156860800Y-122448900D01*
X179845900Y-101439500D02*
X179845900Y-99702800D01*
X156860800Y-122448900D02*
X158836500Y-122448900D01*
X158836500Y-122448900D02*
X179845900Y-101439500D01*
X180823700Y-98902400D02*
X181948600Y-97777500D01*
%TO.N,/Sheet63625160/SCL_1*%
X175183500Y-104616300D02*
X175183500Y-101632700D01*
X105632400Y-102162000D02*
X105632400Y-112488100D01*
X105632300Y-102162000D02*
X105632400Y-102162000D01*
X105632400Y-122734700D02*
X105632400Y-112488100D01*
X158462700Y-121337100D02*
X175183500Y-104616300D01*
X175183500Y-101632700D02*
X180674800Y-96141400D01*
X128404400Y-140704300D02*
X136636000Y-140704300D01*
X117562700Y-134665000D02*
X105632400Y-122734700D01*
X123250000Y-136450000D02*
X124150100Y-136450000D01*
X102466000Y-100417500D02*
X103887800Y-100417500D01*
X124150100Y-136450000D02*
X128404400Y-140704300D01*
X145346800Y-131993500D02*
X145346800Y-128403600D01*
X103887800Y-100417500D02*
X105632300Y-102162000D01*
X152413300Y-121337100D02*
X158462700Y-121337100D01*
X145346800Y-128403600D02*
X152413300Y-121337100D01*
X136636000Y-140704300D02*
X145346800Y-131993500D01*
%TO.N,/Sheet63625160/SDA_1*%
X103477000Y-122505100D02*
X118325200Y-137353300D01*
X119346700Y-137353300D02*
X120250000Y-136450000D01*
X175533600Y-101787900D02*
X180119400Y-97202100D01*
X180571700Y-97202100D02*
X181689500Y-96084300D01*
X145696900Y-132138600D02*
X145696900Y-128548800D01*
X124854400Y-141054400D02*
X136781100Y-141054400D01*
X145696900Y-128548800D02*
X152558400Y-121687300D01*
X152558400Y-121687300D02*
X158607700Y-121687300D01*
X180119400Y-97202100D02*
X180571700Y-97202100D01*
X158607700Y-121687300D02*
X175533600Y-104761400D01*
X181689500Y-96084300D02*
X181689500Y-95747900D01*
X120250000Y-136450000D02*
X124854400Y-141054400D01*
X136781100Y-141054400D02*
X145696900Y-132138600D01*
X118325200Y-137353300D02*
X119346700Y-137353300D01*
X103477000Y-101110800D02*
X103477000Y-122505100D01*
X175533600Y-104761400D02*
X175533600Y-101787900D01*
%TO.N,/rp2040/GPIO08{slash}11*%
X164753800Y-132853700D02*
X164753800Y-132067000D01*
X158691200Y-119623000D02*
X174133200Y-104181000D01*
X180756800Y-94047500D02*
X181148900Y-94047500D01*
X169000000Y-137099900D02*
X164753800Y-132853700D01*
X157724400Y-119623000D02*
X158691200Y-119623000D01*
X174133200Y-104181000D02*
X174133200Y-100671100D01*
X169000000Y-138000000D02*
X169000000Y-137099900D01*
X174133200Y-100671100D02*
X180756800Y-94047500D01*
X157724400Y-119623100D02*
X157724400Y-119623000D01*
%TO.N,SDA_IMU*%
X116206500Y-122984800D02*
X118130300Y-121061000D01*
X173433000Y-102825200D02*
X173433000Y-100380900D01*
X115000000Y-129912500D02*
X116206500Y-128706000D01*
X123025000Y-107496800D02*
X122651300Y-107123100D01*
X178522200Y-95291700D02*
X178522200Y-95204300D01*
X120810300Y-107123100D02*
X119168000Y-108765400D01*
X119168000Y-121168000D02*
X119168000Y-121061000D01*
X119168000Y-108765400D02*
X119168000Y-121061000D01*
X145334700Y-119636000D02*
X150827100Y-114143600D01*
X173433000Y-100380900D02*
X178522200Y-95291700D01*
X120000000Y-129000000D02*
X120000000Y-122000000D01*
X118130300Y-121061000D02*
X119168000Y-121061000D01*
X162114600Y-114143600D02*
X173433000Y-102825200D01*
X183558300Y-92019400D02*
X184203800Y-92664900D01*
X116206500Y-128706000D02*
X116206500Y-122984800D01*
X181707100Y-92019400D02*
X183558300Y-92019400D01*
X136270000Y-130810000D02*
X145334700Y-121745300D01*
X120000000Y-122000000D02*
X119168000Y-121168000D01*
X150827100Y-114143600D02*
X162114600Y-114143600D01*
X178522200Y-95204300D02*
X181707100Y-92019400D01*
X123025000Y-108137500D02*
X123025000Y-107496800D01*
X145334700Y-121745300D02*
X145334700Y-119636000D01*
X184203800Y-92664900D02*
X184203800Y-92874600D01*
X122651300Y-107123100D02*
X120810300Y-107123100D01*
%TO.N,Net-(J17-Pad1)*%
X115450000Y-96250000D02*
X114390100Y-96250000D01*
X114390100Y-96250000D02*
X113095900Y-97544200D01*
X137808900Y-96274600D02*
X144730400Y-89353100D01*
X132256800Y-96274600D02*
X137808900Y-96274600D01*
X161668600Y-92270800D02*
X161787900Y-92151500D01*
X116622900Y-96522800D02*
X132008600Y-96522800D01*
X116350100Y-96250000D02*
X116622900Y-96522800D01*
X132008600Y-96522800D02*
X132256800Y-96274600D01*
X115450000Y-96250000D02*
X116350100Y-96250000D01*
X160632200Y-92270800D02*
X161668600Y-92270800D01*
X157714500Y-89353100D02*
X160632200Y-92270800D01*
X144730400Y-89353100D02*
X157714500Y-89353100D01*
%TO.N,Net-(J17-Pad3)*%
X129442800Y-100575200D02*
X133285400Y-96732600D01*
X144875500Y-89703200D02*
X155508000Y-89703200D01*
X137846100Y-96732600D02*
X144875500Y-89703200D01*
X155508000Y-89703200D02*
X160077600Y-94272800D01*
X133285400Y-96732600D02*
X137846100Y-96732600D01*
X160077600Y-94272800D02*
X163909200Y-94272800D01*
X129442800Y-101264500D02*
X129442800Y-100575200D01*
%TO.N,Net-(J17-Pad4)*%
X162848500Y-91886300D02*
X162848500Y-93212100D01*
X160727200Y-91090800D02*
X160090700Y-90454300D01*
X112391500Y-97268700D02*
X114361700Y-95298500D01*
X112391500Y-97813100D02*
X112391500Y-97268700D01*
X137534500Y-95908700D02*
X144440200Y-89003000D01*
X115450000Y-100750000D02*
X115328400Y-100750000D01*
X144440200Y-89003000D02*
X158639400Y-89003000D01*
X131564300Y-95908700D02*
X137534500Y-95908700D01*
X115328400Y-100750000D02*
X112391500Y-97813100D01*
X158639400Y-89003000D02*
X160090700Y-90454300D01*
X160727200Y-91090800D02*
X162053000Y-91090800D01*
X116175100Y-95298500D02*
X117049300Y-96172700D01*
X162053000Y-91090800D02*
X162848500Y-91886300D01*
X114361700Y-95298500D02*
X116175100Y-95298500D01*
X117049300Y-96172700D02*
X131300300Y-96172700D01*
X131300300Y-96172700D02*
X131564300Y-95908700D01*
%TO.N,Net-(D18-Pad2)*%
X124327300Y-103085200D02*
X125000000Y-102412500D01*
X123999300Y-103085200D02*
X124327300Y-103085200D01*
%TO.N,Net-(J4-Pad3)*%
X200102300Y-123912500D02*
X202094900Y-125905100D01*
X200000000Y-123912500D02*
X200102300Y-123912500D01*
%TO.N,Net-(J1-Pad5)*%
X225270000Y-98750000D02*
X223004700Y-98750000D01*
X223004700Y-98750000D02*
X222744100Y-99010600D01*
%TO.N,Net-(J1-Pad6)*%
X222864500Y-103055400D02*
X222825100Y-103055400D01*
X224169900Y-101750000D02*
X222864500Y-103055400D01*
X225270000Y-101750000D02*
X224169900Y-101750000D01*
%TO.N,Vcc1*%
X74784500Y-116324500D02*
X73778900Y-115318900D01*
X122921200Y-55121200D02*
X114200000Y-55121200D01*
X68855600Y-110119400D02*
X68000000Y-110975000D01*
X87397000Y-81924200D02*
X70050800Y-81924200D01*
X71972000Y-115318900D02*
X71972000Y-111137500D01*
X69968100Y-111087500D02*
X69000000Y-110119400D01*
X121087500Y-67000000D02*
X121087500Y-67423200D01*
X114200000Y-55121200D02*
X87397000Y-81924200D01*
X68000000Y-110975000D02*
X66968600Y-112006400D01*
X124250000Y-56450000D02*
X122921200Y-55121200D01*
X69000000Y-82975000D02*
X70000000Y-81975000D01*
X70050800Y-81924200D02*
X70000000Y-81975000D01*
X66968600Y-112006400D02*
X66968600Y-113798900D01*
X130000000Y-139912500D02*
X134287500Y-139912500D01*
X69000000Y-110119400D02*
X69000000Y-82975000D01*
X70000000Y-111087500D02*
X69968100Y-111087500D01*
X135750000Y-138450000D02*
X135750000Y-135337500D01*
X121087500Y-67000000D02*
X124250000Y-63837500D01*
X69269900Y-116100200D02*
X71190700Y-116100200D01*
X69000000Y-110119400D02*
X68855600Y-110119400D01*
X73778900Y-115318900D02*
X71972000Y-115318900D01*
X66968600Y-113798900D02*
X69269900Y-116100200D01*
X134287500Y-139912500D02*
X135750000Y-138450000D01*
X135750000Y-135337500D02*
X137000000Y-134087500D01*
X124250000Y-63837500D02*
X124250000Y-56450000D01*
X121087500Y-67423200D02*
X123664300Y-70000000D01*
X71190700Y-116100200D02*
X71972000Y-115318900D01*
%TO.N,Net-(J16-Pad2)*%
X140671700Y-86035800D02*
X136018100Y-90689400D01*
X153551800Y-82412500D02*
X143103500Y-82412500D01*
X136018100Y-90689400D02*
X136018100Y-90800800D01*
X158275000Y-77689300D02*
X153551800Y-82412500D01*
X158275000Y-77525000D02*
X158275000Y-77689300D01*
X143103500Y-82412500D02*
X140671700Y-84844300D01*
X140671700Y-84844300D02*
X140671700Y-86035800D01*
%TO.N,Net-(J20-Pad1)*%
X137151500Y-106787900D02*
X133367300Y-106787900D01*
X139272800Y-108909200D02*
X139272800Y-107552800D01*
X111980100Y-101200900D02*
X113852300Y-103073100D01*
X117288800Y-105068300D02*
X115333700Y-107023400D01*
X113852300Y-103073100D02*
X113852300Y-105659000D01*
X117288800Y-105039400D02*
X117288800Y-105068300D01*
X138507900Y-106787900D02*
X137151500Y-106787900D01*
X133367300Y-106787900D02*
X131635300Y-105055900D01*
X139272800Y-107552800D02*
X138507900Y-106787900D01*
%TO.N,Net-(J16-Pad3)*%
X134091500Y-80720400D02*
X132345900Y-78974800D01*
X132345900Y-78974800D02*
X129549500Y-78974800D01*
X129902000Y-83855300D02*
X129510400Y-84246900D01*
X128477800Y-84246900D02*
X127176400Y-82945500D01*
X153775500Y-83524500D02*
X149635700Y-83524500D01*
X129549500Y-78974800D02*
X129217500Y-79306800D01*
X129217500Y-79306800D02*
X129217500Y-79935500D01*
X159775000Y-77525000D02*
X153775500Y-83524500D01*
X129510400Y-84246900D02*
X128477800Y-84246900D01*
X129902000Y-80620000D02*
X129902000Y-83855300D01*
X129217500Y-79935500D02*
X129902000Y-80620000D01*
%TO.N,/rp2040/GPIO13{slash}17*%
X174483300Y-100816200D02*
X180576800Y-94722700D01*
X174483300Y-104326100D02*
X174483300Y-100816200D01*
X180576800Y-94722700D02*
X182114300Y-94722700D01*
X184314900Y-96923300D02*
X184314900Y-97223100D01*
X158504400Y-120305000D02*
X174483300Y-104326100D01*
X156971600Y-120305000D02*
X158504400Y-120305000D01*
X182114300Y-94722700D02*
X184314900Y-96923300D01*
%TO.N,/rp2040/GPIO21{slash}27*%
X177289900Y-84242000D02*
X177289900Y-95550100D01*
X186597600Y-74934300D02*
X177289900Y-84242000D01*
X184519100Y-101331200D02*
X184519100Y-104240700D01*
X186597600Y-74433700D02*
X186597600Y-74934300D01*
X184519100Y-104240700D02*
X185477800Y-105199400D01*
%TO.N,/rp2040/GPIO12{slash}16*%
X177047000Y-103743200D02*
X177047000Y-101964200D01*
X115033100Y-141441900D02*
X136949600Y-141441900D01*
X100092900Y-126501700D02*
X115033100Y-141441900D01*
X98899700Y-126501700D02*
X100092900Y-126501700D01*
X146159500Y-132232000D02*
X146159500Y-128581300D01*
X98700700Y-126700700D02*
X98899700Y-126501700D01*
X181693300Y-97537700D02*
X181693300Y-97098200D01*
X177047000Y-101964200D02*
X180458900Y-98552300D01*
X146159500Y-128581300D02*
X152642000Y-122098800D01*
X180458900Y-98552300D02*
X180678700Y-98552300D01*
X152642000Y-122098800D02*
X158691400Y-122098800D01*
X158691400Y-122098800D02*
X177047000Y-103743200D01*
X97905100Y-125905100D02*
X98700700Y-126700700D01*
X136949600Y-141441900D02*
X146159500Y-132232000D01*
X180678700Y-98552300D02*
X181693300Y-97537700D01*
%TO.N,Net-(J16-Pad5)*%
X154338300Y-85961700D02*
X149638400Y-85961700D01*
X162775000Y-77525000D02*
X154338300Y-85961700D01*
%TO.N,Net-(J21-Pad1)*%
X130980400Y-95822600D02*
X117194500Y-95822600D01*
X136090800Y-92980200D02*
X136090800Y-94272800D01*
X135454300Y-94909300D02*
X131893700Y-94909300D01*
X117194500Y-95822600D02*
X116320300Y-94948400D01*
X138212100Y-92151500D02*
X136919500Y-92151500D01*
X136090800Y-94272800D02*
X135454300Y-94909300D01*
X131893700Y-94909300D02*
X130980400Y-95822600D01*
X111261000Y-97904000D02*
X111261000Y-98800000D01*
X136919500Y-92151500D02*
X136090800Y-92980200D01*
X116320300Y-94948400D02*
X114216600Y-94948400D01*
X114216600Y-94948400D02*
X111261000Y-97904000D01*
%TO.N,/rp2040/GPIO00{slash}01*%
X205687000Y-122313000D02*
X204891400Y-121517400D01*
X204891400Y-109268100D02*
X204891400Y-121517400D01*
X194057100Y-95595400D02*
X194057100Y-98433800D01*
X194057100Y-98433800D02*
X204891400Y-109268100D01*
%TO.N,/rp2040/GPIO01{slash}02*%
X193368200Y-98240100D02*
X203751800Y-108623700D01*
X193368200Y-94805000D02*
X193368200Y-98240100D01*
X203751800Y-118335700D02*
X200000000Y-122087500D01*
X193486500Y-94686700D02*
X193368200Y-94805000D01*
X203751800Y-108623700D02*
X203751800Y-118335700D01*
%TO.N,/rp2040/GPIO09{slash}12*%
X180460000Y-102260900D02*
X170766000Y-111954900D01*
X180460000Y-100043400D02*
X180460000Y-102260900D01*
X170766000Y-111954900D02*
X170766000Y-128450600D01*
X180876000Y-99627400D02*
X180460000Y-100043400D01*
%TO.N,Net-(J21-Pad2)*%
X101974000Y-97154700D02*
X102309200Y-96819500D01*
X103756100Y-96819500D02*
X105285300Y-98348700D01*
X102309200Y-96819500D02*
X103756100Y-96819500D01*
X106645100Y-98348700D02*
X111445800Y-93548000D01*
X105285300Y-98348700D02*
X106645100Y-98348700D01*
X111445800Y-93548000D02*
X119998000Y-93548000D01*
X119998000Y-93548000D02*
X120534300Y-94084300D01*
%TO.N,Net-(J19-Pad1)*%
X163909200Y-105727200D02*
X163909200Y-105788100D01*
X161803400Y-105887700D02*
X155584000Y-112107100D01*
X161787900Y-107848500D02*
X163112400Y-107848500D01*
X163112400Y-107848500D02*
X163809600Y-107151300D01*
X147083800Y-112107100D02*
X144431200Y-114759700D01*
X163809600Y-105887700D02*
X161803400Y-105887700D01*
X163909200Y-105788100D02*
X163809600Y-105887700D01*
X155584000Y-112107100D02*
X147083800Y-112107100D01*
X163809600Y-107151300D02*
X163809600Y-105887700D01*
%TO.N,Net-(J21-Pad4)*%
X106526000Y-88004300D02*
X114080500Y-88004300D01*
X105000000Y-92054900D02*
X105000000Y-89530300D01*
X104086500Y-92968400D02*
X105000000Y-92054900D01*
X105000000Y-89530300D02*
X106526000Y-88004300D01*
%TO.N,Net-(J23-Pad3)*%
X120320800Y-67769300D02*
X120320800Y-58879200D01*
X120320800Y-58879200D02*
X122750000Y-56450000D01*
X122662600Y-71677300D02*
X122662600Y-70111100D01*
X122662600Y-70111100D02*
X120320800Y-67769300D01*
%TO.N,SW1_5*%
X211190000Y-112540000D02*
X206471100Y-107821100D01*
X206471100Y-107821100D02*
X206471100Y-88013300D01*
%TO.N,Net-(J23-Pad1)*%
X121987400Y-70817800D02*
X121072800Y-69903200D01*
X122375600Y-72352500D02*
X121987400Y-71964300D01*
X125750000Y-69581300D02*
X122978800Y-72352500D01*
X121987400Y-71964300D02*
X121987400Y-70817800D01*
X121072800Y-69903200D02*
X120468900Y-69903200D01*
X125750000Y-57350100D02*
X125750000Y-69581300D01*
X122978800Y-72352500D02*
X122375600Y-72352500D01*
X125750000Y-56450000D02*
X125750000Y-57350100D01*
%TO.N,USB_DP*%
X222988000Y-100216700D02*
X223454700Y-99750000D01*
X221856100Y-103036200D02*
X221856100Y-103523100D01*
X201335600Y-100981200D02*
X200840400Y-100981200D01*
X225270000Y-100750000D02*
X224169900Y-100750000D01*
X222049000Y-101917300D02*
X222049000Y-101097600D01*
X222049000Y-101097600D02*
X222929900Y-100216700D01*
X223454700Y-99750000D02*
X225270000Y-99750000D01*
X204760100Y-104405700D02*
X201335600Y-100981200D01*
X222929900Y-100216700D02*
X222988000Y-100216700D01*
X224169900Y-100750000D02*
X224169900Y-100971100D01*
X222760700Y-102380300D02*
X222512000Y-102380300D01*
X222512000Y-102380300D02*
X222049000Y-101917300D01*
X224169900Y-100971100D02*
X222760700Y-102380300D01*
X222512000Y-102380300D02*
X221856100Y-103036200D01*
%TO.N,USB_DM*%
X224169900Y-100250000D02*
X223008600Y-101411300D01*
X223459400Y-99250000D02*
X225270000Y-99250000D01*
X222325300Y-99866600D02*
X222842800Y-99866600D01*
X225270000Y-100250000D02*
X224169900Y-100250000D01*
X222060800Y-100131100D02*
X222325300Y-99866600D01*
X222842800Y-99866600D02*
X223459400Y-99250000D01*
X223008600Y-101411300D02*
X222743600Y-101411300D01*
%TO.N,QSPI_SS*%
X195554000Y-99064100D02*
X206101600Y-109611700D01*
X206101600Y-109611700D02*
X206101600Y-115707700D01*
X196000000Y-96912500D02*
X195554000Y-96912500D01*
X197236600Y-96912500D02*
X196000000Y-96912500D01*
X195554000Y-96912500D02*
X194847000Y-96912500D01*
X194847000Y-96912500D02*
X194835800Y-96901300D01*
X201900000Y-92249100D02*
X197236600Y-96912500D01*
X201900000Y-86905000D02*
X201900000Y-92249100D01*
X195554000Y-96912500D02*
X195554000Y-99064100D01*
%TO.N,Net-(J24-Pad1)*%
X122770900Y-76103700D02*
X123448400Y-76103700D01*
X118476700Y-74214700D02*
X122109300Y-74214700D01*
X91092800Y-79291700D02*
X97447000Y-72937500D01*
X133250000Y-77550000D02*
X132349900Y-77550000D01*
X98543700Y-72937500D02*
X99067300Y-73461100D01*
X122407700Y-73916300D02*
X122109300Y-74214700D01*
X97447000Y-72937500D02*
X98543700Y-72937500D01*
X99067300Y-73461100D02*
X103742500Y-73461100D01*
X103742500Y-73461100D02*
X106031800Y-71171800D01*
X129255900Y-77550000D02*
X125622200Y-73916300D01*
X116348300Y-76343100D02*
X118476700Y-74214700D01*
X132349900Y-77550000D02*
X129255900Y-77550000D01*
X91092800Y-81407200D02*
X91092800Y-79291700D01*
X125622200Y-73916300D02*
X122407700Y-73916300D01*
X82500000Y-90000000D02*
X91092800Y-81407200D01*
X122109300Y-74214700D02*
X122109300Y-75442100D01*
X122109300Y-75442100D02*
X122770900Y-76103700D01*
%TO.N,/rp2040/GPIO20{slash}26*%
X130252100Y-84241700D02*
X130252100Y-80007600D01*
X126690400Y-87732500D02*
X126690400Y-85994400D01*
X130252100Y-80007600D02*
X129894500Y-79650000D01*
X127764300Y-87732500D02*
X126690400Y-87732500D01*
X126690400Y-85994400D02*
X126867900Y-85816900D01*
X128676900Y-85816900D02*
X130252100Y-84241700D01*
X126867900Y-85816900D02*
X128676900Y-85816900D01*
%TO.N,/rp2040/GPIO16{slash}21*%
X129188400Y-91712500D02*
X129188400Y-89487100D01*
X121309600Y-91537500D02*
X121534300Y-91312800D01*
X129188400Y-89487100D02*
X133792300Y-84883200D01*
X172101200Y-99384500D02*
X172101200Y-97987600D01*
X125062600Y-91312800D02*
X125691000Y-91312800D01*
X120235700Y-91537500D02*
X121309600Y-91537500D01*
X121534300Y-91312800D02*
X125062600Y-91312800D01*
X126540100Y-92161900D02*
X128739000Y-92161900D01*
X172101200Y-97987600D02*
X160750500Y-86636900D01*
X128739000Y-92161900D02*
X129188400Y-91712500D01*
X125062600Y-80939200D02*
X126346100Y-79655700D01*
X125062600Y-91312800D02*
X125062600Y-80939200D01*
X144988900Y-86636900D02*
X143182400Y-84830400D01*
X125691000Y-91312800D02*
X126540100Y-92161900D01*
X160750500Y-86636900D02*
X144988900Y-86636900D01*
%TO.N,/rp2040/GPIO18{slash}24*%
X142916000Y-83095300D02*
X144095000Y-83095300D01*
X142138700Y-83872600D02*
X142916000Y-83095300D01*
X142138700Y-85236900D02*
X142138700Y-83872600D01*
X125837100Y-75616700D02*
X127423900Y-77203500D01*
X127423900Y-77203500D02*
X127423900Y-80135000D01*
X121721100Y-86051000D02*
X121721100Y-83967500D01*
X144095000Y-83095300D02*
X144095000Y-83095200D01*
X160460300Y-87337100D02*
X144238900Y-87337100D01*
X121535500Y-83781900D02*
X121535500Y-83016000D01*
X121535500Y-83016000D02*
X123763500Y-80788000D01*
X166643200Y-93520000D02*
X160460300Y-87337100D01*
X166643200Y-95875500D02*
X166643200Y-93520000D01*
X123763500Y-79644800D02*
X123763500Y-77100700D01*
X121721100Y-83967500D02*
X121535500Y-83781900D01*
X125247500Y-75616700D02*
X125837100Y-75616700D01*
X123763500Y-77100700D02*
X125247500Y-75616700D01*
X123763500Y-80788000D02*
X123763500Y-79644800D01*
X121309600Y-86462500D02*
X121721100Y-86051000D01*
X120235700Y-86462500D02*
X121309600Y-86462500D01*
X170930000Y-100162300D02*
X166643200Y-95875500D01*
X127423900Y-80135000D02*
X128684400Y-81395500D01*
X144238900Y-87337100D02*
X142138700Y-85236900D01*
%TO.N,Net-(J23-Pad4)*%
X119422800Y-69920100D02*
X119772900Y-69570000D01*
X119772900Y-69570000D02*
X119772900Y-57927100D01*
X119772900Y-57927100D02*
X121250000Y-56450000D01*
%TO.N,/rp2040/GPIO17{slash}22*%
X120011300Y-89224400D02*
X118154600Y-89224400D01*
X120235700Y-89000000D02*
X120011300Y-89224400D01*
X158018900Y-81302700D02*
X154360100Y-84961500D01*
X154360100Y-84961500D02*
X149642400Y-84961500D01*
%TO.N,/rp2040/GPIO19{slash}25*%
X126336400Y-85192500D02*
X126336400Y-88385000D01*
X126336400Y-88385000D02*
X126315800Y-88405600D01*
X166141600Y-93566400D02*
X166141600Y-96046900D01*
X160488900Y-87913700D02*
X166141600Y-93566400D01*
X170254900Y-100160200D02*
X170254900Y-100441900D01*
X166141600Y-96046900D02*
X170254900Y-100160200D01*
X126336400Y-85192500D02*
X126087900Y-84944000D01*
X126087900Y-84944000D02*
X126087900Y-84347000D01*
X171425800Y-101612800D02*
X171707500Y-101612800D01*
X142647500Y-88018100D02*
X142751900Y-87913700D01*
X127764300Y-85192500D02*
X126336400Y-85192500D01*
X142751900Y-87913700D02*
X160488900Y-87913700D01*
X170254900Y-100441900D02*
X171425800Y-101612800D01*
%TO.N,/LineTrimmer/SCL*%
X89800100Y-113853600D02*
X88096800Y-112150300D01*
X137250000Y-136162500D02*
X137000000Y-135912500D01*
X90790100Y-85296300D02*
X93562500Y-85296300D01*
X89800100Y-118733300D02*
X89800100Y-113853600D01*
X83207200Y-112150300D02*
X78985400Y-107928500D01*
X92817300Y-121750500D02*
X89800100Y-118733300D01*
X78985400Y-97101000D02*
X90790100Y-85296300D01*
X88096800Y-112150300D02*
X83207200Y-112150300D01*
X111982400Y-66876400D02*
X116729100Y-66876400D01*
X137250000Y-138450000D02*
X137250000Y-136162500D01*
X93562500Y-85296300D02*
X111982400Y-66876400D01*
X78985400Y-107928500D02*
X78985400Y-97101000D01*
%TO.N,/LineTrimmer/SDA*%
X87892100Y-83180900D02*
X87892100Y-81924200D01*
X87892100Y-81924200D02*
X114018400Y-55797900D01*
X93959300Y-113608700D02*
X93959300Y-113974400D01*
X70351600Y-109090200D02*
X70351600Y-100721400D01*
X131268600Y-139356100D02*
X133343900Y-139356100D01*
X93959300Y-113974400D02*
X114978800Y-134993900D01*
X130000000Y-138087500D02*
X131268600Y-139356100D01*
X114018400Y-55797900D02*
X116407500Y-55797900D01*
X70351600Y-100721400D02*
X87892100Y-83180900D01*
X133343900Y-139356100D02*
X134250000Y-138450000D01*
%TO.N,Net-(J24-Pad2)*%
X91196300Y-88696300D02*
X90000000Y-87500000D01*
X133975200Y-78474100D02*
X129684800Y-78474100D01*
X134750000Y-77550000D02*
X134750000Y-77699300D01*
X111910100Y-72644200D02*
X108529500Y-72644200D01*
X92477400Y-89977400D02*
X92500000Y-90000000D01*
X134750000Y-77699300D02*
X133975200Y-78474100D01*
X129684800Y-78474100D02*
X125802100Y-74591400D01*
X116563300Y-67991000D02*
X111910100Y-72644200D01*
X125802100Y-74591400D02*
X124993400Y-74591400D01*
X92477400Y-88696300D02*
X92477400Y-89977400D01*
X108529500Y-72644200D02*
X92477400Y-88696300D01*
X92477400Y-88696300D02*
X91196300Y-88696300D01*
%TO.N,Line5*%
X117650800Y-95122400D02*
X127562300Y-95122400D01*
X82500000Y-110000000D02*
X90506600Y-101993400D01*
X104425500Y-98974500D02*
X104522000Y-99071000D01*
X132419200Y-90218400D02*
X139250000Y-83387600D01*
X109103700Y-99071000D02*
X113926500Y-94248200D01*
X116776600Y-94248200D02*
X117650800Y-95122400D01*
X104522000Y-99071000D02*
X109103700Y-99071000D01*
X139250000Y-83387600D02*
X139250000Y-77550000D01*
X132419200Y-90265500D02*
X132419200Y-90218400D01*
X80000000Y-107500000D02*
X82500000Y-110000000D01*
X113926500Y-94248200D02*
X116776600Y-94248200D01*
X90506600Y-101993400D02*
X92476500Y-101993400D01*
X92476500Y-101993400D02*
X95495400Y-98974500D01*
X95495400Y-98974500D02*
X104425500Y-98974500D01*
X127562300Y-95122400D02*
X132419200Y-90265500D01*
%TO.N,Net-(J24-Pad3)*%
X117083900Y-93898100D02*
X112549800Y-93898100D01*
X129587200Y-76635400D02*
X135335400Y-76635400D01*
X131744100Y-89588600D02*
X131744100Y-90443600D01*
X82500000Y-100000000D02*
X80000000Y-97500000D01*
X104570600Y-98624400D02*
X95350300Y-98624400D01*
X83544600Y-101044600D02*
X82500000Y-100000000D01*
X126454800Y-73503000D02*
X129587200Y-76635400D01*
X136250000Y-77550000D02*
X136250000Y-85082700D01*
X104667100Y-98720900D02*
X104570600Y-98624400D01*
X136250000Y-85082700D02*
X131744100Y-89588600D01*
X131744100Y-90443600D02*
X127415400Y-94772300D01*
X95350300Y-98624400D02*
X92930100Y-101044600D01*
X127415400Y-94772300D02*
X117958100Y-94772300D01*
X135335400Y-76635400D02*
X136250000Y-77550000D01*
X107727000Y-98720900D02*
X104667100Y-98720900D01*
X92930100Y-101044600D02*
X83544600Y-101044600D01*
X117958100Y-94772300D02*
X117083900Y-93898100D01*
X112549800Y-93898100D02*
X107727000Y-98720900D01*
%TO.N,Net-(J24-Pad4)*%
X136485200Y-76285200D02*
X130009900Y-76285200D01*
X94984800Y-95030400D02*
X92500000Y-97515200D01*
X117572600Y-77170500D02*
X121591700Y-81189600D01*
X130009900Y-76285200D02*
X127129900Y-73405200D01*
X121196300Y-82150000D02*
X120637000Y-82150000D01*
X90015200Y-97515200D02*
X90000000Y-97500000D01*
X127129900Y-73405200D02*
X127129900Y-73223300D01*
X118310400Y-66733900D02*
X118738200Y-66306100D01*
X120637000Y-82150000D02*
X116718000Y-78231000D01*
X116155900Y-77170500D02*
X117572600Y-77170500D01*
X126734500Y-72827900D02*
X120734900Y-72827900D01*
X118310400Y-72332700D02*
X118310400Y-66733900D01*
X120734900Y-72827900D02*
X120384800Y-73178000D01*
X94984800Y-87143600D02*
X94984800Y-95030400D01*
X118546400Y-73178000D02*
X115673100Y-76051300D01*
X115673100Y-76051300D02*
X115673100Y-76687700D01*
X115885400Y-78231000D02*
X114972900Y-77318500D01*
X137750000Y-77550000D02*
X136485200Y-76285200D01*
X105963000Y-76165400D02*
X94984800Y-87143600D01*
X121591700Y-81754600D02*
X121196300Y-82150000D01*
X116718000Y-78231000D02*
X115885400Y-78231000D01*
X92500000Y-97515200D02*
X90015200Y-97515200D01*
X127129900Y-73223300D02*
X126734500Y-72827900D01*
X115673100Y-76687700D02*
X116155900Y-77170500D01*
X120384800Y-73178000D02*
X118546400Y-73178000D01*
X92500000Y-97515200D02*
X92500000Y-100000000D01*
X121591700Y-81189600D02*
X121591700Y-81754600D01*
X114972900Y-77318500D02*
X114972900Y-75670200D01*
X114972900Y-75670200D02*
X118310400Y-72332700D01*
%TO.N,Net-(R9-Pad2)*%
X185602000Y-120293000D02*
X187777900Y-120293000D01*
X187777900Y-120293000D02*
X188024900Y-120540000D01*
X189000000Y-120540000D02*
X188024900Y-120540000D01*
%TO.N,QSPI_SD3*%
X205768300Y-95692400D02*
X205768300Y-87266000D01*
X207399300Y-85635000D02*
X208100000Y-85635000D01*
X205768300Y-87266000D02*
X207399300Y-85635000D01*
X201761900Y-99698800D02*
X205768300Y-95692400D01*
%TO.N,QSPI_CLK*%
X208100000Y-84365000D02*
X207413200Y-84365000D01*
X204782200Y-86996000D02*
X204782200Y-94391200D01*
X207413200Y-84365000D02*
X204782200Y-86996000D01*
X204782200Y-94391200D02*
X200149800Y-99023600D01*
%TO.N,QSPI_SD0*%
X206957000Y-83095000D02*
X208100000Y-83095000D01*
X204081900Y-85970100D02*
X206957000Y-83095000D01*
X196629500Y-98600000D02*
X204081900Y-91147600D01*
X204081900Y-91147600D02*
X204081900Y-85970100D01*
%TO.N,QSPI_SD2*%
X199848300Y-97240400D02*
X204432100Y-92656600D01*
X209694000Y-83455900D02*
X209694000Y-82719100D01*
X204432100Y-86115100D02*
X206825100Y-83722100D01*
X209427800Y-83722100D02*
X209694000Y-83455900D01*
X209465100Y-82490200D02*
X206139700Y-82490200D01*
X204264900Y-84365000D02*
X201900000Y-84365000D01*
X206139700Y-82490200D02*
X204264900Y-84365000D01*
X204432100Y-92656600D02*
X204432100Y-86115100D01*
X209694000Y-82719100D02*
X209465100Y-82490200D01*
X206825100Y-83722100D02*
X209427800Y-83722100D01*
%TO.N,QSPI_SD1*%
X201900000Y-85635000D02*
X201195000Y-85635000D01*
X201195000Y-85635000D02*
X196964500Y-89865500D01*
X196964500Y-89865500D02*
X196964500Y-96187300D01*
%TO.N,Net-(R13-Pad1)*%
X127764300Y-89000000D02*
X126690400Y-89000000D01*
X125412700Y-82254800D02*
X125412700Y-88488200D01*
X126609700Y-89080700D02*
X126690400Y-89000000D01*
X127072000Y-77806600D02*
X127072000Y-80595500D01*
X126005200Y-89080700D02*
X126609700Y-89080700D01*
X125574600Y-76309200D02*
X127072000Y-77806600D01*
X125412700Y-88488200D02*
X126005200Y-89080700D01*
X127072000Y-80595500D02*
X125412700Y-82254800D01*
%TO.N,Net-(R8-Pad1)*%
X120235700Y-92807500D02*
X121309600Y-92807500D01*
X121309600Y-92807500D02*
X121309600Y-93302400D01*
X121309600Y-93302400D02*
X122087500Y-94080300D01*
%TO.N,Net-(R14-Pad1)*%
X120235700Y-87732500D02*
X119161800Y-87732500D01*
X119161800Y-87732500D02*
X119161800Y-88150800D01*
X119161800Y-88150800D02*
X118829800Y-88482800D01*
%TO.N,Net-(R10-Pad1)*%
X120235700Y-90267500D02*
X121309600Y-90267500D01*
X122210600Y-89366500D02*
X122210600Y-83295500D01*
X121309600Y-90267500D02*
X122210600Y-89366500D01*
%TO.N,Net-(R23-Pad1)*%
X100089800Y-92198200D02*
X100089800Y-84472300D01*
X105562900Y-97671300D02*
X100089800Y-92198200D01*
%TO.N,Net-(R12-Pad1)*%
X130870600Y-86462500D02*
X130903300Y-86495200D01*
X127764300Y-86462500D02*
X130870600Y-86462500D01*
%TO.N,Net-(R30-Pad1)*%
X180399000Y-97877200D02*
X176356300Y-101919900D01*
%TO.N,Net-(R36-Pad1)*%
X231000000Y-116700000D02*
X229756100Y-116700000D01*
X229756100Y-116700000D02*
X229581900Y-116874200D01*
%TO.N,Net-(R25-Pad1)*%
X123801800Y-67000000D02*
X124001800Y-66800000D01*
X122912500Y-67000000D02*
X123801800Y-67000000D01*
%TO.N,Net-(R38-Pad2)*%
X127186200Y-114123700D02*
X127186200Y-115210100D01*
X126925000Y-113862500D02*
X127186200Y-114123700D01*
%TO.N,Net-(R39-Pad2)*%
X124980000Y-110498100D02*
X123170000Y-110498100D01*
X125238700Y-110498100D02*
X124980000Y-110498100D01*
X120229300Y-113438800D02*
X120229300Y-117584000D01*
X88725000Y-107147500D02*
X88725000Y-108222600D01*
X126925000Y-108137500D02*
X126925000Y-108811800D01*
X120229300Y-117584000D02*
X121875400Y-119230100D01*
X121875400Y-119230100D02*
X122803800Y-119230100D01*
X123170000Y-110498100D02*
X120229300Y-113438800D01*
X90150200Y-109647800D02*
X88725000Y-108222600D01*
X122803800Y-119230100D02*
X123169700Y-118864200D01*
X90150200Y-115724000D02*
X90150200Y-109647800D01*
X126925000Y-108811800D02*
X125238700Y-110498100D01*
X94699100Y-120272900D02*
X90150200Y-115724000D01*
%TO.N,Net-(R37-Pad1)*%
X165711300Y-102774200D02*
X165711300Y-93667300D01*
X115323000Y-76936700D02*
X115323000Y-75815300D01*
X120916600Y-81474900D02*
X116997600Y-77555900D01*
X116997600Y-77555900D02*
X115942200Y-77555900D01*
X142286200Y-89377400D02*
X141288300Y-89377400D01*
X115942200Y-77555900D02*
X115323000Y-76936700D01*
X160315100Y-88271100D02*
X143392500Y-88271100D01*
X118310400Y-72827900D02*
X119084600Y-72827900D01*
X115323000Y-75815300D02*
X118310400Y-72827900D01*
X165711300Y-93667300D02*
X160315100Y-88271100D01*
X168358400Y-105421300D02*
X165711300Y-102774200D01*
X119084600Y-72827900D02*
X120912500Y-71000000D01*
X143392500Y-88271100D02*
X142286200Y-89377400D01*
%TO.N,Net-(R40-Pad1)*%
X129216000Y-83530300D02*
X129404900Y-83341400D01*
X142505100Y-85108100D02*
X142505100Y-84460900D01*
X167168300Y-93549900D02*
X160605400Y-86987000D01*
X172382700Y-100630400D02*
X167168300Y-95416000D01*
X123179100Y-75266600D02*
X122912500Y-75000000D01*
X160605400Y-86987000D02*
X144384000Y-86987000D01*
X172382700Y-102389900D02*
X172382700Y-100630400D01*
X144384000Y-86987000D02*
X142505100Y-85108100D01*
X128300300Y-80056300D02*
X128300300Y-77584700D01*
X167896000Y-106393800D02*
X167896000Y-106393700D01*
X129404900Y-83341400D02*
X129404900Y-81160900D01*
X125982200Y-75266600D02*
X123179100Y-75266600D01*
X128300300Y-77584700D02*
X125982200Y-75266600D01*
X168378900Y-106393700D02*
X172382700Y-102389900D01*
X167168300Y-95416000D02*
X167168300Y-93549900D01*
X167896000Y-106393700D02*
X168378900Y-106393700D01*
X142505100Y-84460900D02*
X143144900Y-83821100D01*
X129404900Y-81160900D02*
X128300300Y-80056300D01*
%TO.N,Net-(R43-Pad1)*%
X121725000Y-113862500D02*
X121725000Y-113199000D01*
X121725000Y-113199000D02*
X122417200Y-112506800D01*
X122417200Y-112506800D02*
X122505000Y-112506800D01*
%TO.N,Net-(U2-Pad12)*%
X128634600Y-82485000D02*
X128634600Y-82485100D01*
X127248000Y-81374200D02*
X128358800Y-82485000D01*
X128358800Y-82485000D02*
X128634600Y-82485000D01*
%TO.N,Net-(U2-Pad14)*%
X127764300Y-91537500D02*
X128838200Y-91537500D01*
X128838200Y-88134600D02*
X129807500Y-87165300D01*
X128838200Y-91537500D02*
X128838200Y-88134600D01*
%TO.N,Net-(U7-Pad20)*%
X185000000Y-90000000D02*
X183858800Y-88858800D01*
X177990900Y-90403500D02*
X177990900Y-94775900D01*
X179535600Y-88858800D02*
X177990900Y-90403500D01*
X183858800Y-88858800D02*
X179535600Y-88858800D01*
%TO.N,Net-(R41-Pad2)*%
X126275000Y-108766500D02*
X125849900Y-109191600D01*
X126984200Y-106793000D02*
X127100500Y-106793000D01*
X124975000Y-108137500D02*
X124325000Y-108137500D01*
X124975000Y-108831400D02*
X124975000Y-108137500D01*
X126275000Y-108137500D02*
X126275000Y-108766500D01*
X126275000Y-107502200D02*
X126984200Y-106793000D01*
X125849900Y-109191600D02*
X125335200Y-109191600D01*
X125335200Y-109191600D02*
X124975000Y-108831400D01*
X126275000Y-108137500D02*
X126275000Y-107502200D01*
%TO.N,Net-(J19-Pad2)*%
X161398500Y-106787900D02*
X155248300Y-112938100D01*
X155248300Y-112938100D02*
X147489400Y-112938100D01*
X147489400Y-112938100D02*
X147139300Y-113288200D01*
X162848500Y-106787900D02*
X161398500Y-106787900D01*
%TO.N,Net-(J19-Pad4)*%
X155477900Y-110710600D02*
X161640800Y-104547700D01*
X164017000Y-104547700D02*
X165101300Y-105632000D01*
X165101300Y-106354800D02*
X162546900Y-108909200D01*
X138713800Y-110710600D02*
X155477900Y-110710600D01*
X161640800Y-104547700D02*
X164017000Y-104547700D01*
X162546900Y-108909200D02*
X160727200Y-108909200D01*
X136541600Y-108538400D02*
X138713800Y-110710600D01*
X165101300Y-105632000D02*
X165101300Y-106354800D01*
%TO.N,Net-(R37-Pad2)*%
X142640700Y-90185600D02*
X137477000Y-90185600D01*
X139337000Y-110320600D02*
X155068600Y-110320600D01*
X118733400Y-70645900D02*
X118733400Y-67333100D01*
X160157400Y-88651000D02*
X144175300Y-88651000D01*
X136869000Y-107852600D02*
X139337000Y-110320600D01*
X126275000Y-113190700D02*
X131613100Y-107852600D01*
X164837800Y-93331400D02*
X160157400Y-88651000D01*
X126275000Y-113862500D02*
X126275000Y-113190700D01*
X164837800Y-100551400D02*
X164837800Y-93331400D01*
X114622800Y-75525100D02*
X114622800Y-77923100D01*
X119087500Y-71000000D02*
X118733400Y-70645900D01*
X155068600Y-110320600D02*
X164837800Y-100551400D01*
X118733400Y-67333100D02*
X119422800Y-66643700D01*
X117954200Y-66084600D02*
X117954200Y-72193700D01*
X119422800Y-66004700D02*
X119045700Y-65627600D01*
X114622800Y-77923100D02*
X119302100Y-82602400D01*
X118411200Y-65627600D02*
X117954200Y-66084600D01*
X120134500Y-82602400D02*
X120134500Y-82602500D01*
X119045700Y-65627600D02*
X118411200Y-65627600D01*
X144175300Y-88651000D02*
X142640700Y-90185600D01*
X119422800Y-66643700D02*
X119422800Y-66004700D01*
X137477000Y-90185600D02*
X137197700Y-90464900D01*
X131613100Y-107852600D02*
X136869000Y-107852600D01*
X117954200Y-72193700D02*
X114622800Y-75525100D01*
X119302100Y-82602400D02*
X120134500Y-82602400D01*
%TO.N,Net-(R40-Pad2)*%
X121185400Y-83927000D02*
X121309600Y-84051200D01*
X121185400Y-82656100D02*
X121185400Y-83927000D01*
X128759300Y-108761000D02*
X124975000Y-112545300D01*
X121309600Y-84051200D02*
X121309600Y-85655700D01*
X128457200Y-100408900D02*
X128759300Y-100711000D01*
X117234500Y-85817000D02*
X111885000Y-91166500D01*
X121087500Y-75000000D02*
X121941800Y-75854300D01*
X121941800Y-75854300D02*
X121941800Y-81899700D01*
X128759300Y-100711000D02*
X128759300Y-108761000D01*
X124975000Y-112545300D02*
X124975000Y-113862500D01*
X111885000Y-91166500D02*
X111659800Y-91166500D01*
X121309600Y-85655700D02*
X121148300Y-85817000D01*
X121941800Y-81899700D02*
X121185400Y-82656100D01*
X121148300Y-85817000D02*
X117234500Y-85817000D01*
X126424400Y-100408900D02*
X128457200Y-100408900D01*
X126258000Y-100575300D02*
X126424400Y-100408900D01*
%TO.N,Net-(R45-Pad1)*%
X123675000Y-113862500D02*
X123675000Y-116997900D01*
X123675000Y-116997900D02*
X122152000Y-118520900D01*
%TO.N,Net-(R44-Pad1)*%
X123025000Y-113862500D02*
X123025000Y-116250800D01*
X123025000Y-116250800D02*
X121757700Y-117518100D01*
%TO.N,Net-(R42-Pad1)*%
X121075000Y-113862500D02*
X121075000Y-116577000D01*
X102514200Y-109095900D02*
X102514200Y-118851100D01*
X121075000Y-116577000D02*
X120904400Y-116747600D01*
X99530900Y-106112600D02*
X102514200Y-109095900D01*
%TD*%
M02*
