%TF.GenerationSoftware,KiCad,Pcbnew,(6.0.9)*%
%TF.CreationDate,2022-12-21T05:14:32+09:00*%
%TF.ProjectId,main,6d61696e-2e6b-4696-9361-645f70636258,rev?*%
%TF.SameCoordinates,Original*%
%TF.FileFunction,Soldermask,Bot*%
%TF.FilePolarity,Negative*%
%FSLAX46Y46*%
G04 Gerber Fmt 4.6, Leading zero omitted, Abs format (unit mm)*
G04 Created by KiCad (PCBNEW (6.0.9)) date 2022-12-21 05:14:32*
%MOMM*%
%LPD*%
G01*
G04 APERTURE LIST*
G04 Aperture macros list*
%AMRoundRect*
0 Rectangle with rounded corners*
0 $1 Rounding radius*
0 $2 $3 $4 $5 $6 $7 $8 $9 X,Y pos of 4 corners*
0 Add a 4 corners polygon primitive as box body*
4,1,4,$2,$3,$4,$5,$6,$7,$8,$9,$2,$3,0*
0 Add four circle primitives for the rounded corners*
1,1,$1+$1,$2,$3*
1,1,$1+$1,$4,$5*
1,1,$1+$1,$6,$7*
1,1,$1+$1,$8,$9*
0 Add four rect primitives between the rounded corners*
20,1,$1+$1,$2,$3,$4,$5,0*
20,1,$1+$1,$4,$5,$6,$7,0*
20,1,$1+$1,$6,$7,$8,$9,0*
20,1,$1+$1,$8,$9,$2,$3,0*%
%AMHorizOval*
0 Thick line with rounded ends*
0 $1 width*
0 $2 $3 position (X,Y) of the first rounded end (center of the circle)*
0 $4 $5 position (X,Y) of the second rounded end (center of the circle)*
0 Add line between two ends*
20,1,$1,$2,$3,$4,$5,0*
0 Add two circle primitives to create the rounded ends*
1,1,$1,$2,$3*
1,1,$1,$4,$5*%
%AMRotRect*
0 Rectangle, with rotation*
0 The origin of the aperture is its center*
0 $1 length*
0 $2 width*
0 $3 Rotation angle, in degrees counterclockwise*
0 Add horizontal line*
21,1,$1,$2,0,0,$3*%
G04 Aperture macros list end*
%ADD10R,2.500000X1.700000*%
%ADD11O,2.500000X1.700000*%
%ADD12C,1.431000*%
%ADD13R,1.250000X1.250000*%
%ADD14C,1.250000*%
%ADD15RoundRect,0.250000X-0.600000X-0.750000X0.600000X-0.750000X0.600000X0.750000X-0.600000X0.750000X0*%
%ADD16O,1.700000X2.000000*%
%ADD17R,1.524000X1.524000*%
%ADD18C,1.524000*%
%ADD19RoundRect,0.250001X-1.099999X-1.099999X1.099999X-1.099999X1.099999X1.099999X-1.099999X1.099999X0*%
%ADD20C,2.700000*%
%ADD21RotRect,1.250000X1.250000X315.000000*%
%ADD22R,1.600000X1.600000*%
%ADD23O,1.600000X1.600000*%
%ADD24RoundRect,0.250000X0.600000X0.750000X-0.600000X0.750000X-0.600000X-0.750000X0.600000X-0.750000X0*%
%ADD25C,1.400000*%
%ADD26O,1.400000X1.400000*%
%ADD27C,1.397000*%
%ADD28RotRect,1.250000X1.250000X225.000000*%
%ADD29R,1.000000X1.000000*%
%ADD30O,1.000000X1.000000*%
%ADD31RoundRect,0.101600X0.704800X-0.704800X0.704800X0.704800X-0.704800X0.704800X-0.704800X-0.704800X0*%
%ADD32C,1.612800*%
%ADD33RotRect,1.250000X1.250000X135.000000*%
%ADD34RotRect,1.250000X1.250000X45.000000*%
%ADD35R,3.200000X3.200000*%
%ADD36RoundRect,0.237500X0.237500X-0.300000X0.237500X0.300000X-0.237500X0.300000X-0.237500X-0.300000X0*%
%ADD37RoundRect,0.237500X0.300000X0.237500X-0.300000X0.237500X-0.300000X-0.237500X0.300000X-0.237500X0*%
%ADD38RoundRect,0.237500X0.237500X-0.250000X0.237500X0.250000X-0.237500X0.250000X-0.237500X-0.250000X0*%
%ADD39R,3.300000X1.270000*%
%ADD40R,5.890000X3.810000*%
%ADD41R,4.120000X3.830000*%
%ADD42R,3.300000X4.320000*%
%ADD43R,1.270000X3.300000*%
%ADD44RoundRect,0.237500X-0.237500X0.250000X-0.237500X-0.250000X0.237500X-0.250000X0.237500X0.250000X0*%
%ADD45RoundRect,0.237500X0.250000X0.237500X-0.250000X0.237500X-0.250000X-0.237500X0.250000X-0.237500X0*%
%ADD46C,0.750000*%
%ADD47R,1.000000X1.550000*%
%ADD48RoundRect,0.237500X-0.300000X-0.237500X0.300000X-0.237500X0.300000X0.237500X-0.300000X0.237500X0*%
%ADD49RoundRect,0.100000X-0.100000X0.637500X-0.100000X-0.637500X0.100000X-0.637500X0.100000X0.637500X0*%
%ADD50RoundRect,0.237500X-0.237500X0.300000X-0.237500X-0.300000X0.237500X-0.300000X0.237500X0.300000X0*%
%ADD51RotRect,1.700000X1.700000X135.000000*%
%ADD52HorizOval,1.700000X0.000000X0.000000X0.000000X0.000000X0*%
%ADD53R,1.800000X2.500000*%
%ADD54R,1.600000X1.050000*%
%ADD55RotRect,1.700000X1.700000X225.000000*%
%ADD56HorizOval,1.700000X0.000000X0.000000X0.000000X0.000000X0*%
%ADD57RoundRect,0.150000X-1.150000X-0.150000X1.150000X-0.150000X1.150000X0.150000X-1.150000X0.150000X0*%
%ADD58R,2.500000X1.800000*%
%ADD59R,1.597660X0.698500*%
%ADD60RoundRect,0.237500X-0.250000X-0.237500X0.250000X-0.237500X0.250000X0.237500X-0.250000X0.237500X0*%
%ADD61C,1.700000*%
%ADD62RotRect,1.700000X1.700000X315.000000*%
%ADD63HorizOval,1.700000X0.000000X0.000000X0.000000X0.000000X0*%
%ADD64RoundRect,0.250000X-0.450000X0.325000X-0.450000X-0.325000X0.450000X-0.325000X0.450000X0.325000X0*%
%ADD65O,1.800000X1.000000*%
%ADD66O,2.200000X1.000000*%
%ADD67R,1.650000X0.575000*%
%ADD68R,1.650000X0.300000*%
G04 APERTURE END LIST*
D10*
%TO.C,SW5*%
X212000000Y-90000000D03*
D11*
X215000000Y-90000000D03*
X218000000Y-90000000D03*
%TD*%
D12*
%TO.C,RV2*%
X87500000Y-90000000D03*
X90000000Y-87500000D03*
X92500000Y-90000000D03*
%TD*%
D13*
%TO.C,J17*%
X115450000Y-96250000D03*
D14*
X115450000Y-97750000D03*
X115450000Y-99250000D03*
X115450000Y-100750000D03*
X115450000Y-102250000D03*
X115450000Y-103750000D03*
%TD*%
D15*
%TO.C,J8*%
X148750000Y-81000000D03*
D16*
X151250000Y-81000000D03*
%TD*%
D17*
%TO.C,SW6*%
X217645000Y-97460000D03*
D18*
X217645000Y-100000000D03*
X217645000Y-102540000D03*
X212565000Y-97460000D03*
X212565000Y-100000000D03*
X212565000Y-102540000D03*
%TD*%
D13*
%TO.C,J14*%
X123000000Y-122000000D03*
D14*
X121500000Y-122000000D03*
X120000000Y-122000000D03*
X118500000Y-122000000D03*
%TD*%
D19*
%TO.C,J5*%
X148242500Y-129450000D03*
D20*
X152202500Y-129450000D03*
%TD*%
D21*
%TO.C,J20*%
X139272800Y-108909200D03*
D14*
X138212140Y-107848540D03*
X137151480Y-106787880D03*
X136090819Y-105727219D03*
%TD*%
D22*
%TO.C,SW7*%
X88725000Y-114767500D03*
D23*
X91265000Y-114767500D03*
X91265000Y-107147500D03*
X88725000Y-107147500D03*
%TD*%
D24*
%TO.C,J9*%
X151250000Y-118000000D03*
D16*
X148750000Y-118000000D03*
%TD*%
D15*
%TO.C,J15*%
X159000000Y-138000000D03*
D16*
X161500000Y-138000000D03*
%TD*%
D12*
%TO.C,RV5*%
X77500000Y-110000000D03*
X80000000Y-107500000D03*
X82500000Y-110000000D03*
%TD*%
D13*
%TO.C,J23*%
X125750000Y-56450000D03*
D14*
X124250000Y-56450000D03*
X122750000Y-56450000D03*
X121250000Y-56450000D03*
X119750000Y-56450000D03*
X118250000Y-56450000D03*
%TD*%
D12*
%TO.C,RV4*%
X87500000Y-100000000D03*
X90000000Y-97500000D03*
X92500000Y-100000000D03*
%TD*%
D25*
%TO.C,R11*%
X180460000Y-115000000D03*
D26*
X185540000Y-115000000D03*
%TD*%
D27*
%TO.C,SW4*%
X218810000Y-112540000D03*
X211190000Y-112540000D03*
X211190000Y-107460000D03*
X218810000Y-107460000D03*
%TD*%
D28*
%TO.C,J21*%
X136090800Y-94272800D03*
D14*
X137151460Y-93212140D03*
X138212120Y-92151480D03*
X139272781Y-91090819D03*
%TD*%
D29*
%TO.C,JP1*%
X85000000Y-84000000D03*
D30*
X85000000Y-82730000D03*
%TD*%
D13*
%TO.C,J16*%
X156775000Y-77525000D03*
D14*
X158275000Y-77525000D03*
X159775000Y-77525000D03*
X161275000Y-77525000D03*
X162775000Y-77525000D03*
X164275000Y-77525000D03*
X165775000Y-77525000D03*
X167275000Y-77525000D03*
%TD*%
D13*
%TO.C,J6*%
X169000000Y-138000000D03*
D14*
X170500000Y-138000000D03*
X172000000Y-138000000D03*
X173500000Y-138000000D03*
%TD*%
D12*
%TO.C,RV3*%
X77500000Y-100000000D03*
X80000000Y-97500000D03*
X82500000Y-100000000D03*
%TD*%
D13*
%TO.C,J2*%
X112250000Y-123450000D03*
D14*
X110750000Y-123450000D03*
X109250000Y-123450000D03*
X107750000Y-123450000D03*
%TD*%
D31*
%TO.C,U11*%
X131190000Y-130810000D03*
D32*
X133730000Y-130810000D03*
X136270000Y-130810000D03*
X138810000Y-130810000D03*
X138810000Y-123190000D03*
X136270000Y-123190000D03*
X133730000Y-123190000D03*
X131190000Y-123190000D03*
%TD*%
D13*
%TO.C,J22*%
X137250000Y-138450000D03*
D14*
X135750000Y-138450000D03*
X134250000Y-138450000D03*
X132750000Y-138450000D03*
%TD*%
D12*
%TO.C,RV1*%
X77500000Y-90000000D03*
X80000000Y-87500000D03*
X82500000Y-90000000D03*
%TD*%
D13*
%TO.C,J24*%
X133250000Y-77550000D03*
D14*
X134750000Y-77550000D03*
X136250000Y-77550000D03*
X137750000Y-77550000D03*
X139250000Y-77550000D03*
X140750000Y-77550000D03*
%TD*%
D33*
%TO.C,J18*%
X160727200Y-91090800D03*
D14*
X161787860Y-92151460D03*
X162848520Y-93212120D03*
X163909181Y-94272781D03*
%TD*%
D34*
%TO.C,J19*%
X163909200Y-105727200D03*
D14*
X162848540Y-106787860D03*
X161787880Y-107848520D03*
X160727219Y-108909181D03*
%TD*%
D13*
%TO.C,J11*%
X123000000Y-129000000D03*
D14*
X121500000Y-129000000D03*
X120000000Y-129000000D03*
X118500000Y-129000000D03*
%TD*%
D35*
%TO.C,U7*%
X190000000Y-100000000D03*
%TD*%
D25*
%TO.C,R9*%
X189000000Y-115460000D03*
D26*
X189000000Y-120540000D03*
%TD*%
D13*
%TO.C,J3*%
X123250000Y-136450000D03*
D14*
X121750000Y-136450000D03*
X120250000Y-136450000D03*
X118750000Y-136450000D03*
%TD*%
D36*
%TO.C,C24*%
X195000000Y-76862500D03*
X195000000Y-75137500D03*
%TD*%
D37*
%TO.C,C25*%
X196862500Y-73000000D03*
X195137500Y-73000000D03*
%TD*%
D38*
%TO.C,R35*%
X196000000Y-96912500D03*
X196000000Y-95087500D03*
%TD*%
D39*
%TO.C,U4*%
X174422000Y-124873000D03*
D40*
X175693000Y-130457000D03*
D41*
X181154000Y-130457000D03*
D42*
X185599000Y-128298000D03*
D39*
X185602000Y-124873000D03*
X185602000Y-120293000D03*
D43*
X180017000Y-119278000D03*
X177727000Y-119278000D03*
D39*
X174422000Y-120293000D03*
X174422000Y-122583000D03*
D43*
X182297000Y-119278000D03*
%TD*%
D44*
%TO.C,R26*%
X137000000Y-134087500D03*
X137000000Y-135912500D03*
%TD*%
D37*
%TO.C,C14*%
X186862500Y-96000000D03*
X185137500Y-96000000D03*
%TD*%
D38*
%TO.C,R29*%
X70000000Y-112912500D03*
X70000000Y-111087500D03*
%TD*%
D37*
%TO.C,C23*%
X105862500Y-90000000D03*
X104137500Y-90000000D03*
%TD*%
D45*
%TO.C,R6*%
X221912500Y-86500000D03*
X220087500Y-86500000D03*
%TD*%
D38*
%TO.C,R17*%
X203000000Y-114912500D03*
X203000000Y-113087500D03*
%TD*%
D46*
%TO.C,SW1*%
X229625000Y-85000000D03*
X232375000Y-85000000D03*
D47*
X231850000Y-82375000D03*
X231850000Y-87625000D03*
X230150000Y-87625000D03*
X230150000Y-82375000D03*
%TD*%
D44*
%TO.C,R47*%
X127000000Y-129087500D03*
X127000000Y-130912500D03*
%TD*%
D36*
%TO.C,C12*%
X186000000Y-100862500D03*
X186000000Y-99137500D03*
%TD*%
D45*
%TO.C,R37*%
X120912500Y-71000000D03*
X119087500Y-71000000D03*
%TD*%
D48*
%TO.C,C21*%
X166137500Y-80000000D03*
X167862500Y-80000000D03*
%TD*%
D44*
%TO.C,R18*%
X197000000Y-113087500D03*
X197000000Y-114912500D03*
%TD*%
D49*
%TO.C,U10*%
X121075000Y-108137500D03*
X121725000Y-108137500D03*
X122375000Y-108137500D03*
X123025000Y-108137500D03*
X123675000Y-108137500D03*
X124325000Y-108137500D03*
X124975000Y-108137500D03*
X125625000Y-108137500D03*
X126275000Y-108137500D03*
X126925000Y-108137500D03*
X126925000Y-113862500D03*
X126275000Y-113862500D03*
X125625000Y-113862500D03*
X124975000Y-113862500D03*
X124325000Y-113862500D03*
X123675000Y-113862500D03*
X123025000Y-113862500D03*
X122375000Y-113862500D03*
X121725000Y-113862500D03*
X121075000Y-113862500D03*
%TD*%
D50*
%TO.C,C11*%
X116000000Y-64137500D03*
X116000000Y-65862500D03*
%TD*%
D38*
%TO.C,R27*%
X130000000Y-139912500D03*
X130000000Y-138087500D03*
%TD*%
D45*
%TO.C,R40*%
X122912500Y-75000000D03*
X121087500Y-75000000D03*
%TD*%
D51*
%TO.C,J4*%
X205687000Y-122313000D03*
D52*
X203890949Y-124109051D03*
X202094898Y-125905102D03*
X200298846Y-127701154D03*
%TD*%
D45*
%TO.C,R25*%
X122912500Y-67000000D03*
X121087500Y-67000000D03*
%TD*%
D53*
%TO.C,D1*%
X194000000Y-125000000D03*
X194000000Y-121000000D03*
%TD*%
D50*
%TO.C,C15*%
X194000000Y-100137500D03*
X194000000Y-101862500D03*
%TD*%
D48*
%TO.C,C17*%
X194137500Y-91000000D03*
X195862500Y-91000000D03*
%TD*%
D36*
%TO.C,C13*%
X182000000Y-100862500D03*
X182000000Y-99137500D03*
%TD*%
D46*
%TO.C,SW2*%
X69400000Y-117000000D03*
X71000000Y-117000000D03*
D54*
X70200000Y-118700000D03*
X70200000Y-115300000D03*
%TD*%
D53*
%TO.C,D3*%
X225000000Y-86500000D03*
X225000000Y-82500000D03*
%TD*%
D55*
%TO.C,J12*%
X94313000Y-122313000D03*
D56*
X96109051Y-124109051D03*
X97905102Y-125905102D03*
X99701154Y-127701154D03*
%TD*%
D57*
%TO.C,U8*%
X201900000Y-86905000D03*
X201900000Y-85635000D03*
X201900000Y-84365000D03*
X201900000Y-83095000D03*
X208100000Y-83095000D03*
X208100000Y-84365000D03*
X208100000Y-85635000D03*
X208100000Y-86905000D03*
%TD*%
D58*
%TO.C,D2*%
X194000000Y-129000000D03*
X190000000Y-129000000D03*
%TD*%
D59*
%TO.C,U3*%
X120235720Y-92807460D03*
X120235720Y-91537460D03*
X120235720Y-90267460D03*
X120235720Y-89000000D03*
X120235720Y-87732540D03*
X120235720Y-86462540D03*
X120235720Y-85192540D03*
X127764280Y-85192540D03*
X127764280Y-86462540D03*
X127764280Y-87732540D03*
X127764280Y-89000000D03*
X127764280Y-90267460D03*
X127764280Y-91537460D03*
X127764280Y-92807460D03*
%TD*%
D44*
%TO.C,R48*%
X125000000Y-100587500D03*
X125000000Y-102412500D03*
%TD*%
D50*
%TO.C,C16*%
X177000000Y-62137500D03*
X177000000Y-63862500D03*
%TD*%
D37*
%TO.C,C19*%
X189862500Y-67000000D03*
X188137500Y-67000000D03*
%TD*%
D44*
%TO.C,R3*%
X200000000Y-122087500D03*
X200000000Y-123912500D03*
%TD*%
D60*
%TO.C,R5*%
X229587500Y-90500000D03*
X231412500Y-90500000D03*
%TD*%
D48*
%TO.C,C3*%
X228637500Y-80000000D03*
X230362500Y-80000000D03*
%TD*%
D61*
%TO.C,Y3*%
X185000000Y-90000000D03*
X182500000Y-90000000D03*
X180000000Y-90000000D03*
%TD*%
D62*
%TO.C,J13*%
X94313000Y-77687000D03*
D63*
X96109051Y-75890949D03*
X97905102Y-74094898D03*
X99701154Y-72298846D03*
%TD*%
D50*
%TO.C,C27*%
X128000000Y-101225000D03*
X128000000Y-102950000D03*
%TD*%
D46*
%TO.C,SW3*%
X231800000Y-115000000D03*
X230200000Y-115000000D03*
D54*
X231000000Y-113300000D03*
X231000000Y-116700000D03*
%TD*%
D64*
%TO.C,D11*%
X68000000Y-110975000D03*
X68000000Y-113025000D03*
%TD*%
D50*
%TO.C,C18*%
X193000000Y-105137500D03*
X193000000Y-106862500D03*
%TD*%
D44*
%TO.C,R46*%
X115000000Y-128087500D03*
X115000000Y-129912500D03*
%TD*%
D50*
%TO.C,C8*%
X99000000Y-102137500D03*
X99000000Y-103862500D03*
%TD*%
D64*
%TO.C,D12*%
X70000000Y-81975000D03*
X70000000Y-84025000D03*
%TD*%
D50*
%TO.C,C6*%
X200000000Y-113137500D03*
X200000000Y-114862500D03*
%TD*%
D61*
%TO.C,Y2*%
X109000000Y-76450000D03*
X109000000Y-73950000D03*
X109000000Y-71450000D03*
%TD*%
%TO.C,Y1*%
X108000000Y-110000000D03*
X110500000Y-110000000D03*
X113000000Y-110000000D03*
%TD*%
D50*
%TO.C,C22*%
X189000000Y-104137500D03*
X189000000Y-105862500D03*
%TD*%
D65*
%TO.C,J1*%
X226380000Y-94250000D03*
D66*
X230380000Y-94250000D03*
X230380000Y-105750000D03*
D65*
X226380000Y-105750000D03*
D67*
X225270000Y-102450000D03*
X225270000Y-97550000D03*
D68*
X225270000Y-100250000D03*
X225270000Y-99250000D03*
X225270000Y-99750000D03*
X225270000Y-100750000D03*
D67*
X225270000Y-96775000D03*
X225270000Y-103225000D03*
D68*
X225270000Y-98750000D03*
X225270000Y-101750000D03*
%TD*%
M02*
