%TF.GenerationSoftware,KiCad,Pcbnew,(6.0.9)*%
%TF.CreationDate,2023-01-27T20:46:41+09:00*%
%TF.ProjectId,VL6180ToF_5,564c3631-3830-4546-9f46-5f352e6b6963,rev?*%
%TF.SameCoordinates,Original*%
%TF.FileFunction,Legend,Bot*%
%TF.FilePolarity,Positive*%
%FSLAX46Y46*%
G04 Gerber Fmt 4.6, Leading zero omitted, Abs format (unit mm)*
G04 Created by KiCad (PCBNEW (6.0.9)) date 2023-01-27 20:46:41*
%MOMM*%
%LPD*%
G01*
G04 APERTURE LIST*
%ADD10C,0.150000*%
%ADD11C,0.120000*%
G04 APERTURE END LIST*
D10*
%TO.C,C1*%
X118166666Y-101867142D02*
X118214285Y-101914761D01*
X118357142Y-101962380D01*
X118452380Y-101962380D01*
X118595238Y-101914761D01*
X118690476Y-101819523D01*
X118738095Y-101724285D01*
X118785714Y-101533809D01*
X118785714Y-101390952D01*
X118738095Y-101200476D01*
X118690476Y-101105238D01*
X118595238Y-101010000D01*
X118452380Y-100962380D01*
X118357142Y-100962380D01*
X118214285Y-101010000D01*
X118166666Y-101057619D01*
X117214285Y-101962380D02*
X117785714Y-101962380D01*
X117500000Y-101962380D02*
X117500000Y-100962380D01*
X117595238Y-101105238D01*
X117690476Y-101200476D01*
X117785714Y-101248095D01*
%TO.C,C2*%
X121166666Y-99927142D02*
X121214285Y-99974761D01*
X121357142Y-100022380D01*
X121452380Y-100022380D01*
X121595238Y-99974761D01*
X121690476Y-99879523D01*
X121738095Y-99784285D01*
X121785714Y-99593809D01*
X121785714Y-99450952D01*
X121738095Y-99260476D01*
X121690476Y-99165238D01*
X121595238Y-99070000D01*
X121452380Y-99022380D01*
X121357142Y-99022380D01*
X121214285Y-99070000D01*
X121166666Y-99117619D01*
X120785714Y-99117619D02*
X120738095Y-99070000D01*
X120642857Y-99022380D01*
X120404761Y-99022380D01*
X120309523Y-99070000D01*
X120261904Y-99117619D01*
X120214285Y-99212857D01*
X120214285Y-99308095D01*
X120261904Y-99450952D01*
X120833333Y-100022380D01*
X120214285Y-100022380D01*
%TO.C,C3*%
X119857142Y-103833333D02*
X119904761Y-103785714D01*
X119952380Y-103642857D01*
X119952380Y-103547619D01*
X119904761Y-103404761D01*
X119809523Y-103309523D01*
X119714285Y-103261904D01*
X119523809Y-103214285D01*
X119380952Y-103214285D01*
X119190476Y-103261904D01*
X119095238Y-103309523D01*
X119000000Y-103404761D01*
X118952380Y-103547619D01*
X118952380Y-103642857D01*
X119000000Y-103785714D01*
X119047619Y-103833333D01*
X118952380Y-104166666D02*
X118952380Y-104785714D01*
X119333333Y-104452380D01*
X119333333Y-104595238D01*
X119380952Y-104690476D01*
X119428571Y-104738095D01*
X119523809Y-104785714D01*
X119761904Y-104785714D01*
X119857142Y-104738095D01*
X119904761Y-104690476D01*
X119952380Y-104595238D01*
X119952380Y-104309523D01*
X119904761Y-104214285D01*
X119857142Y-104166666D01*
%TO.C,C4*%
X123357142Y-103833333D02*
X123404761Y-103785714D01*
X123452380Y-103642857D01*
X123452380Y-103547619D01*
X123404761Y-103404761D01*
X123309523Y-103309523D01*
X123214285Y-103261904D01*
X123023809Y-103214285D01*
X122880952Y-103214285D01*
X122690476Y-103261904D01*
X122595238Y-103309523D01*
X122500000Y-103404761D01*
X122452380Y-103547619D01*
X122452380Y-103642857D01*
X122500000Y-103785714D01*
X122547619Y-103833333D01*
X122785714Y-104690476D02*
X123452380Y-104690476D01*
X122404761Y-104452380D02*
X123119047Y-104214285D01*
X123119047Y-104833333D01*
%TO.C,C5*%
X127503887Y-107347142D02*
X127551506Y-107394761D01*
X127694363Y-107442380D01*
X127789601Y-107442380D01*
X127932459Y-107394761D01*
X128027697Y-107299523D01*
X128075316Y-107204285D01*
X128122935Y-107013809D01*
X128122935Y-106870952D01*
X128075316Y-106680476D01*
X128027697Y-106585238D01*
X127932459Y-106490000D01*
X127789601Y-106442380D01*
X127694363Y-106442380D01*
X127551506Y-106490000D01*
X127503887Y-106537619D01*
X126599125Y-106442380D02*
X127075316Y-106442380D01*
X127122935Y-106918571D01*
X127075316Y-106870952D01*
X126980078Y-106823333D01*
X126741982Y-106823333D01*
X126646744Y-106870952D01*
X126599125Y-106918571D01*
X126551506Y-107013809D01*
X126551506Y-107251904D01*
X126599125Y-107347142D01*
X126646744Y-107394761D01*
X126741982Y-107442380D01*
X126980078Y-107442380D01*
X127075316Y-107394761D01*
X127122935Y-107347142D01*
%TO.C,Q1*%
X138595238Y-109547619D02*
X138690476Y-109500000D01*
X138785714Y-109404761D01*
X138928571Y-109261904D01*
X139023809Y-109214285D01*
X139119047Y-109214285D01*
X139071428Y-109452380D02*
X139166666Y-109404761D01*
X139261904Y-109309523D01*
X139309523Y-109119047D01*
X139309523Y-108785714D01*
X139261904Y-108595238D01*
X139166666Y-108500000D01*
X139071428Y-108452380D01*
X138880952Y-108452380D01*
X138785714Y-108500000D01*
X138690476Y-108595238D01*
X138642857Y-108785714D01*
X138642857Y-109119047D01*
X138690476Y-109309523D01*
X138785714Y-109404761D01*
X138880952Y-109452380D01*
X139071428Y-109452380D01*
X137690476Y-109452380D02*
X138261904Y-109452380D01*
X137976190Y-109452380D02*
X137976190Y-108452380D01*
X138071428Y-108595238D01*
X138166666Y-108690476D01*
X138261904Y-108738095D01*
%TO.C,R1*%
X123166666Y-105952380D02*
X123500000Y-105476190D01*
X123738095Y-105952380D02*
X123738095Y-104952380D01*
X123357142Y-104952380D01*
X123261904Y-105000000D01*
X123214285Y-105047619D01*
X123166666Y-105142857D01*
X123166666Y-105285714D01*
X123214285Y-105380952D01*
X123261904Y-105428571D01*
X123357142Y-105476190D01*
X123738095Y-105476190D01*
X122214285Y-105952380D02*
X122785714Y-105952380D01*
X122500000Y-105952380D02*
X122500000Y-104952380D01*
X122595238Y-105095238D01*
X122690476Y-105190476D01*
X122785714Y-105238095D01*
%TO.C,R2*%
X123166666Y-108452380D02*
X123500000Y-107976190D01*
X123738095Y-108452380D02*
X123738095Y-107452380D01*
X123357142Y-107452380D01*
X123261904Y-107500000D01*
X123214285Y-107547619D01*
X123166666Y-107642857D01*
X123166666Y-107785714D01*
X123214285Y-107880952D01*
X123261904Y-107928571D01*
X123357142Y-107976190D01*
X123738095Y-107976190D01*
X122785714Y-107547619D02*
X122738095Y-107500000D01*
X122642857Y-107452380D01*
X122404761Y-107452380D01*
X122309523Y-107500000D01*
X122261904Y-107547619D01*
X122214285Y-107642857D01*
X122214285Y-107738095D01*
X122261904Y-107880952D01*
X122833333Y-108452380D01*
X122214285Y-108452380D01*
%TO.C,R3*%
X137166666Y-104952380D02*
X137500000Y-104476190D01*
X137738095Y-104952380D02*
X137738095Y-103952380D01*
X137357142Y-103952380D01*
X137261904Y-104000000D01*
X137214285Y-104047619D01*
X137166666Y-104142857D01*
X137166666Y-104285714D01*
X137214285Y-104380952D01*
X137261904Y-104428571D01*
X137357142Y-104476190D01*
X137738095Y-104476190D01*
X136833333Y-103952380D02*
X136214285Y-103952380D01*
X136547619Y-104333333D01*
X136404761Y-104333333D01*
X136309523Y-104380952D01*
X136261904Y-104428571D01*
X136214285Y-104523809D01*
X136214285Y-104761904D01*
X136261904Y-104857142D01*
X136309523Y-104904761D01*
X136404761Y-104952380D01*
X136690476Y-104952380D01*
X136785714Y-104904761D01*
X136833333Y-104857142D01*
%TO.C,R4*%
X137166666Y-101452380D02*
X137500000Y-100976190D01*
X137738095Y-101452380D02*
X137738095Y-100452380D01*
X137357142Y-100452380D01*
X137261904Y-100500000D01*
X137214285Y-100547619D01*
X137166666Y-100642857D01*
X137166666Y-100785714D01*
X137214285Y-100880952D01*
X137261904Y-100928571D01*
X137357142Y-100976190D01*
X137738095Y-100976190D01*
X136309523Y-100785714D02*
X136309523Y-101452380D01*
X136547619Y-100404761D02*
X136785714Y-101119047D01*
X136166666Y-101119047D01*
%TO.C,R5*%
X140166666Y-105382380D02*
X140500000Y-104906190D01*
X140738095Y-105382380D02*
X140738095Y-104382380D01*
X140357142Y-104382380D01*
X140261904Y-104430000D01*
X140214285Y-104477619D01*
X140166666Y-104572857D01*
X140166666Y-104715714D01*
X140214285Y-104810952D01*
X140261904Y-104858571D01*
X140357142Y-104906190D01*
X140738095Y-104906190D01*
X139261904Y-104382380D02*
X139738095Y-104382380D01*
X139785714Y-104858571D01*
X139738095Y-104810952D01*
X139642857Y-104763333D01*
X139404761Y-104763333D01*
X139309523Y-104810952D01*
X139261904Y-104858571D01*
X139214285Y-104953809D01*
X139214285Y-105191904D01*
X139261904Y-105287142D01*
X139309523Y-105334761D01*
X139404761Y-105382380D01*
X139642857Y-105382380D01*
X139738095Y-105334761D01*
X139785714Y-105287142D01*
%TO.C,R6*%
X140166666Y-101452380D02*
X140500000Y-100976190D01*
X140738095Y-101452380D02*
X140738095Y-100452380D01*
X140357142Y-100452380D01*
X140261904Y-100500000D01*
X140214285Y-100547619D01*
X140166666Y-100642857D01*
X140166666Y-100785714D01*
X140214285Y-100880952D01*
X140261904Y-100928571D01*
X140357142Y-100976190D01*
X140738095Y-100976190D01*
X139309523Y-100452380D02*
X139500000Y-100452380D01*
X139595238Y-100500000D01*
X139642857Y-100547619D01*
X139738095Y-100690476D01*
X139785714Y-100880952D01*
X139785714Y-101261904D01*
X139738095Y-101357142D01*
X139690476Y-101404761D01*
X139595238Y-101452380D01*
X139404761Y-101452380D01*
X139309523Y-101404761D01*
X139261904Y-101357142D01*
X139214285Y-101261904D01*
X139214285Y-101023809D01*
X139261904Y-100928571D01*
X139309523Y-100880952D01*
X139404761Y-100833333D01*
X139595238Y-100833333D01*
X139690476Y-100880952D01*
X139738095Y-100928571D01*
X139785714Y-101023809D01*
%TO.C,R7*%
X143166666Y-105382380D02*
X143500000Y-104906190D01*
X143738095Y-105382380D02*
X143738095Y-104382380D01*
X143357142Y-104382380D01*
X143261904Y-104430000D01*
X143214285Y-104477619D01*
X143166666Y-104572857D01*
X143166666Y-104715714D01*
X143214285Y-104810952D01*
X143261904Y-104858571D01*
X143357142Y-104906190D01*
X143738095Y-104906190D01*
X142833333Y-104382380D02*
X142166666Y-104382380D01*
X142595238Y-105382380D01*
%TO.C,R8*%
X143166666Y-101452380D02*
X143500000Y-100976190D01*
X143738095Y-101452380D02*
X143738095Y-100452380D01*
X143357142Y-100452380D01*
X143261904Y-100500000D01*
X143214285Y-100547619D01*
X143166666Y-100642857D01*
X143166666Y-100785714D01*
X143214285Y-100880952D01*
X143261904Y-100928571D01*
X143357142Y-100976190D01*
X143738095Y-100976190D01*
X142595238Y-100880952D02*
X142690476Y-100833333D01*
X142738095Y-100785714D01*
X142785714Y-100690476D01*
X142785714Y-100642857D01*
X142738095Y-100547619D01*
X142690476Y-100500000D01*
X142595238Y-100452380D01*
X142404761Y-100452380D01*
X142309523Y-100500000D01*
X142261904Y-100547619D01*
X142214285Y-100642857D01*
X142214285Y-100690476D01*
X142261904Y-100785714D01*
X142309523Y-100833333D01*
X142404761Y-100880952D01*
X142595238Y-100880952D01*
X142690476Y-100928571D01*
X142738095Y-100976190D01*
X142785714Y-101071428D01*
X142785714Y-101261904D01*
X142738095Y-101357142D01*
X142690476Y-101404761D01*
X142595238Y-101452380D01*
X142404761Y-101452380D01*
X142309523Y-101404761D01*
X142261904Y-101357142D01*
X142214285Y-101261904D01*
X142214285Y-101071428D01*
X142261904Y-100976190D01*
X142309523Y-100928571D01*
X142404761Y-100880952D01*
%TO.C,U1*%
X115452380Y-102738095D02*
X116261904Y-102738095D01*
X116357142Y-102785714D01*
X116404761Y-102833333D01*
X116452380Y-102928571D01*
X116452380Y-103119047D01*
X116404761Y-103214285D01*
X116357142Y-103261904D01*
X116261904Y-103309523D01*
X115452380Y-103309523D01*
X116452380Y-104309523D02*
X116452380Y-103738095D01*
X116452380Y-104023809D02*
X115452380Y-104023809D01*
X115595238Y-103928571D01*
X115690476Y-103833333D01*
X115738095Y-103738095D01*
%TO.C,J1*%
X123947380Y-103304166D02*
X124661666Y-103304166D01*
X124804523Y-103256547D01*
X124899761Y-103161309D01*
X124947380Y-103018452D01*
X124947380Y-102923214D01*
X124947380Y-104304166D02*
X124947380Y-103732738D01*
X124947380Y-104018452D02*
X123947380Y-104018452D01*
X124090238Y-103923214D01*
X124185476Y-103827976D01*
X124233095Y-103732738D01*
D11*
%TO.C,C1*%
X117859420Y-100490000D02*
X118140580Y-100490000D01*
X117859420Y-101510000D02*
X118140580Y-101510000D01*
%TO.C,C2*%
X121140580Y-100490000D02*
X120859420Y-100490000D01*
X121140580Y-101510000D02*
X120859420Y-101510000D01*
%TO.C,C3*%
X121010000Y-104140580D02*
X121010000Y-103859420D01*
X119990000Y-104140580D02*
X119990000Y-103859420D01*
%TO.C,C4*%
X121490000Y-104140580D02*
X121490000Y-103859420D01*
X122510000Y-104140580D02*
X122510000Y-103859420D01*
%TO.C,C5*%
X127640580Y-106990000D02*
X127359420Y-106990000D01*
X127640580Y-108010000D02*
X127359420Y-108010000D01*
%TO.C,Q1*%
X137705000Y-106150000D02*
X139255000Y-106150000D01*
X137555000Y-107850000D02*
X139255000Y-107850000D01*
%TO.C,R1*%
X122762742Y-107022500D02*
X123237258Y-107022500D01*
X122762742Y-105977500D02*
X123237258Y-105977500D01*
%TO.C,R2*%
X122762742Y-109522500D02*
X123237258Y-109522500D01*
X122762742Y-108477500D02*
X123237258Y-108477500D01*
%TO.C,R3*%
X137237258Y-102977500D02*
X136762742Y-102977500D01*
X137237258Y-104022500D02*
X136762742Y-104022500D01*
%TO.C,R4*%
X137237258Y-101477500D02*
X136762742Y-101477500D01*
X137237258Y-102522500D02*
X136762742Y-102522500D01*
%TO.C,R5*%
X139762742Y-102977500D02*
X140237258Y-102977500D01*
X139762742Y-104022500D02*
X140237258Y-104022500D01*
%TO.C,R6*%
X139762742Y-101477500D02*
X140237258Y-101477500D01*
X139762742Y-102522500D02*
X140237258Y-102522500D01*
%TO.C,R7*%
X142762742Y-102977500D02*
X143237258Y-102977500D01*
X142762742Y-104022500D02*
X143237258Y-104022500D01*
%TO.C,R8*%
X142762742Y-102522500D02*
X143237258Y-102522500D01*
X142762742Y-101477500D02*
X143237258Y-101477500D01*
%TO.C,U1*%
X116440000Y-103500000D02*
X116440000Y-101700000D01*
X116440000Y-103500000D02*
X116440000Y-104300000D01*
X119560000Y-103500000D02*
X119560000Y-102700000D01*
X119560000Y-103500000D02*
X119560000Y-104300000D01*
%TO.C,J1*%
X128045000Y-102527500D02*
X129415000Y-102527500D01*
X134395000Y-102527500D02*
X134505000Y-102527500D01*
X125505000Y-102527500D02*
X126875000Y-102527500D01*
X133125000Y-102527500D02*
X134495000Y-102527500D01*
X130585000Y-102527500D02*
X131955000Y-102527500D01*
%TD*%
M02*
