%TF.GenerationSoftware,KiCad,Pcbnew,(6.0.9)*%
%TF.CreationDate,2023-01-27T20:46:41+09:00*%
%TF.ProjectId,VL6180ToF_5,564c3631-3830-4546-9f46-5f352e6b6963,rev?*%
%TF.SameCoordinates,Original*%
%TF.FileFunction,Soldermask,Bot*%
%TF.FilePolarity,Negative*%
%FSLAX46Y46*%
G04 Gerber Fmt 4.6, Leading zero omitted, Abs format (unit mm)*
G04 Created by KiCad (PCBNEW (6.0.9)) date 2023-01-27 20:46:41*
%MOMM*%
%LPD*%
G01*
G04 APERTURE LIST*
G04 Aperture macros list*
%AMRoundRect*
0 Rectangle with rounded corners*
0 $1 Rounding radius*
0 $2 $3 $4 $5 $6 $7 $8 $9 X,Y pos of 4 corners*
0 Add a 4 corners polygon primitive as box body*
4,1,4,$2,$3,$4,$5,$6,$7,$8,$9,$2,$3,0*
0 Add four circle primitives for the rounded corners*
1,1,$1+$1,$2,$3*
1,1,$1+$1,$4,$5*
1,1,$1+$1,$6,$7*
1,1,$1+$1,$8,$9*
0 Add four rect primitives between the rounded corners*
20,1,$1+$1,$2,$3,$4,$5,0*
20,1,$1+$1,$4,$5,$6,$7,0*
20,1,$1+$1,$6,$7,$8,$9,0*
20,1,$1+$1,$8,$9,$2,$3,0*%
G04 Aperture macros list end*
%ADD10RoundRect,0.275000X-0.225000X-0.250000X0.225000X-0.250000X0.225000X0.250000X-0.225000X0.250000X0*%
%ADD11RoundRect,0.275000X0.225000X0.250000X-0.225000X0.250000X-0.225000X-0.250000X0.225000X-0.250000X0*%
%ADD12RoundRect,0.275000X0.250000X-0.225000X0.250000X0.225000X-0.250000X0.225000X-0.250000X-0.225000X0*%
%ADD13RoundRect,0.050000X0.425000X-0.140000X0.425000X0.140000X-0.425000X0.140000X-0.425000X-0.140000X0*%
%ADD14RoundRect,0.050000X0.375000X-0.140000X0.375000X0.140000X-0.375000X0.140000X-0.375000X-0.140000X0*%
%ADD15RoundRect,0.250000X-0.200000X-0.275000X0.200000X-0.275000X0.200000X0.275000X-0.200000X0.275000X0*%
%ADD16RoundRect,0.250000X0.200000X0.275000X-0.200000X0.275000X-0.200000X-0.275000X0.200000X-0.275000X0*%
%ADD17RoundRect,0.200000X-0.150000X0.512500X-0.150000X-0.512500X0.150000X-0.512500X0.150000X0.512500X0*%
%ADD18RoundRect,0.050000X-0.325000X1.500000X-0.325000X-1.500000X0.325000X-1.500000X0.325000X1.500000X0*%
%ADD19C,2.600000*%
%ADD20C,0.900000*%
G04 APERTURE END LIST*
D10*
%TO.C,C1*%
X117225000Y-101000000D03*
X118775000Y-101000000D03*
%TD*%
D11*
%TO.C,C2*%
X121775000Y-101000000D03*
X120225000Y-101000000D03*
%TD*%
D12*
%TO.C,C3*%
X120500000Y-104775000D03*
X120500000Y-103225000D03*
%TD*%
%TO.C,C4*%
X122000000Y-104775000D03*
X122000000Y-103225000D03*
%TD*%
D11*
%TO.C,C5*%
X128275000Y-107500000D03*
X126725000Y-107500000D03*
%TD*%
D13*
%TO.C,Q1*%
X137975000Y-107500000D03*
D14*
X137925000Y-107000000D03*
X137925000Y-106500000D03*
X139075000Y-106500000D03*
X139075000Y-107000000D03*
X139075000Y-107500000D03*
%TD*%
D15*
%TO.C,R1*%
X122175000Y-106500000D03*
X123825000Y-106500000D03*
%TD*%
%TO.C,R2*%
X122175000Y-109000000D03*
X123825000Y-109000000D03*
%TD*%
D16*
%TO.C,R3*%
X137825000Y-103500000D03*
X136175000Y-103500000D03*
%TD*%
%TO.C,R4*%
X137825000Y-102000000D03*
X136175000Y-102000000D03*
%TD*%
D15*
%TO.C,R5*%
X139175000Y-103500000D03*
X140825000Y-103500000D03*
%TD*%
%TO.C,R6*%
X139175000Y-102000000D03*
X140825000Y-102000000D03*
%TD*%
%TO.C,R7*%
X142175000Y-103500000D03*
X143825000Y-103500000D03*
%TD*%
%TO.C,R8*%
X142175000Y-102000000D03*
X143825000Y-102000000D03*
%TD*%
D17*
%TO.C,U1*%
X117050000Y-102362500D03*
X118000000Y-102362500D03*
X118950000Y-102362500D03*
X118950000Y-104637500D03*
X117050000Y-104637500D03*
%TD*%
D18*
%TO.C,J1*%
X126190000Y-102137500D03*
X127460000Y-102137500D03*
X128730000Y-102137500D03*
X130000000Y-102137500D03*
X131270000Y-102137500D03*
X132540000Y-102137500D03*
X133810000Y-102137500D03*
%TD*%
D19*
X117000000Y-108000000D03*
X143000000Y-108000000D03*
D20*
X127000000Y-106500000D03*
X123723500Y-103587000D03*
X120900900Y-105998100D03*
X129500000Y-107500000D03*
X136919900Y-106325200D03*
X124743500Y-107248200D03*
X138188400Y-108612900D03*
X139337900Y-108277800D03*
X133504900Y-108129600D03*
X134733200Y-108342000D03*
X140417400Y-105453200D03*
X139498200Y-104941100D03*
M02*
