%TF.GenerationSoftware,KiCad,Pcbnew,(6.0.9)*%
%TF.CreationDate,2023-01-27T20:46:41+09:00*%
%TF.ProjectId,VL6180ToF_5,564c3631-3830-4546-9f46-5f352e6b6963,rev?*%
%TF.SameCoordinates,Original*%
%TF.FileFunction,Copper,L2,Bot*%
%TF.FilePolarity,Positive*%
%FSLAX46Y46*%
G04 Gerber Fmt 4.6, Leading zero omitted, Abs format (unit mm)*
G04 Created by KiCad (PCBNEW (6.0.9)) date 2023-01-27 20:46:41*
%MOMM*%
%LPD*%
G01*
G04 APERTURE LIST*
G04 Aperture macros list*
%AMRoundRect*
0 Rectangle with rounded corners*
0 $1 Rounding radius*
0 $2 $3 $4 $5 $6 $7 $8 $9 X,Y pos of 4 corners*
0 Add a 4 corners polygon primitive as box body*
4,1,4,$2,$3,$4,$5,$6,$7,$8,$9,$2,$3,0*
0 Add four circle primitives for the rounded corners*
1,1,$1+$1,$2,$3*
1,1,$1+$1,$4,$5*
1,1,$1+$1,$6,$7*
1,1,$1+$1,$8,$9*
0 Add four rect primitives between the rounded corners*
20,1,$1+$1,$2,$3,$4,$5,0*
20,1,$1+$1,$4,$5,$6,$7,0*
20,1,$1+$1,$6,$7,$8,$9,0*
20,1,$1+$1,$8,$9,$2,$3,0*%
G04 Aperture macros list end*
%TA.AperFunction,SMDPad,CuDef*%
%ADD10RoundRect,0.225000X-0.225000X-0.250000X0.225000X-0.250000X0.225000X0.250000X-0.225000X0.250000X0*%
%TD*%
%TA.AperFunction,SMDPad,CuDef*%
%ADD11RoundRect,0.225000X0.225000X0.250000X-0.225000X0.250000X-0.225000X-0.250000X0.225000X-0.250000X0*%
%TD*%
%TA.AperFunction,SMDPad,CuDef*%
%ADD12RoundRect,0.225000X0.250000X-0.225000X0.250000X0.225000X-0.250000X0.225000X-0.250000X-0.225000X0*%
%TD*%
%TA.AperFunction,SMDPad,CuDef*%
%ADD13R,0.850000X0.280000*%
%TD*%
%TA.AperFunction,SMDPad,CuDef*%
%ADD14R,0.750000X0.280000*%
%TD*%
%TA.AperFunction,SMDPad,CuDef*%
%ADD15RoundRect,0.200000X-0.200000X-0.275000X0.200000X-0.275000X0.200000X0.275000X-0.200000X0.275000X0*%
%TD*%
%TA.AperFunction,SMDPad,CuDef*%
%ADD16RoundRect,0.200000X0.200000X0.275000X-0.200000X0.275000X-0.200000X-0.275000X0.200000X-0.275000X0*%
%TD*%
%TA.AperFunction,SMDPad,CuDef*%
%ADD17RoundRect,0.150000X-0.150000X0.512500X-0.150000X-0.512500X0.150000X-0.512500X0.150000X0.512500X0*%
%TD*%
%TA.AperFunction,SMDPad,CuDef*%
%ADD18R,0.650000X3.000000*%
%TD*%
%TA.AperFunction,ViaPad*%
%ADD19C,2.500000*%
%TD*%
%TA.AperFunction,ViaPad*%
%ADD20C,0.800000*%
%TD*%
%TA.AperFunction,Conductor*%
%ADD21C,0.250000*%
%TD*%
G04 APERTURE END LIST*
D10*
%TO.P,C1,1*%
%TO.N,VCC*%
X117225000Y-101000000D03*
%TO.P,C1,2*%
%TO.N,GND*%
X118775000Y-101000000D03*
%TD*%
D11*
%TO.P,C2,1*%
%TO.N,VCC*%
X121775000Y-101000000D03*
%TO.P,C2,2*%
%TO.N,GND*%
X120225000Y-101000000D03*
%TD*%
D12*
%TO.P,C3,1*%
%TO.N,Net-(C3-Pad1)*%
X120500000Y-104775000D03*
%TO.P,C3,2*%
%TO.N,GND*%
X120500000Y-103225000D03*
%TD*%
%TO.P,C4,1*%
%TO.N,VDD*%
X122000000Y-104775000D03*
%TO.P,C4,2*%
%TO.N,GND*%
X122000000Y-103225000D03*
%TD*%
D11*
%TO.P,C5,1*%
%TO.N,VDD*%
X128275000Y-107500000D03*
%TO.P,C5,2*%
%TO.N,GND*%
X126725000Y-107500000D03*
%TD*%
D13*
%TO.P,Q1,1,S*%
%TO.N,Net-(Q1-Pad1)*%
X137975000Y-107500000D03*
D14*
%TO.P,Q1,2,G*%
%TO.N,VDD*%
X137925000Y-107000000D03*
%TO.P,Q1,3,D*%
%TO.N,Net-(J1-Pad4)*%
X137925000Y-106500000D03*
%TO.P,Q1,4,S*%
%TO.N,Net-(Q1-Pad4)*%
X139075000Y-106500000D03*
%TO.P,Q1,5,G*%
%TO.N,VDD*%
X139075000Y-107000000D03*
%TO.P,Q1,6,D*%
%TO.N,Net-(J1-Pad5)*%
X139075000Y-107500000D03*
%TD*%
D15*
%TO.P,R1,1*%
%TO.N,VCC*%
X122175000Y-106500000D03*
%TO.P,R1,2*%
%TO.N,Net-(J1-Pad5)*%
X123825000Y-106500000D03*
%TD*%
%TO.P,R2,1*%
%TO.N,VCC*%
X122175000Y-109000000D03*
%TO.P,R2,2*%
%TO.N,Net-(J1-Pad4)*%
X123825000Y-109000000D03*
%TD*%
D16*
%TO.P,R3,1*%
%TO.N,VDD*%
X137825000Y-103500000D03*
%TO.P,R3,2*%
%TO.N,Net-(Q1-Pad1)*%
X136175000Y-103500000D03*
%TD*%
%TO.P,R4,1*%
%TO.N,VDD*%
X137825000Y-102000000D03*
%TO.P,R4,2*%
%TO.N,Net-(Q1-Pad4)*%
X136175000Y-102000000D03*
%TD*%
D15*
%TO.P,R5,1*%
%TO.N,VDD*%
X139175000Y-103500000D03*
%TO.P,R5,2*%
%TO.N,Net-(R5-Pad2)*%
X140825000Y-103500000D03*
%TD*%
%TO.P,R6,1*%
%TO.N,VDD*%
X139175000Y-102000000D03*
%TO.P,R6,2*%
%TO.N,Net-(R6-Pad2)*%
X140825000Y-102000000D03*
%TD*%
%TO.P,R7,1*%
%TO.N,Net-(R5-Pad2)*%
X142175000Y-103500000D03*
%TO.P,R7,2*%
%TO.N,Net-(J1-Pad6)*%
X143825000Y-103500000D03*
%TD*%
%TO.P,R8,1*%
%TO.N,Net-(R6-Pad2)*%
X142175000Y-102000000D03*
%TO.P,R8,2*%
%TO.N,Net-(J1-Pad7)*%
X143825000Y-102000000D03*
%TD*%
D17*
%TO.P,U1,1,IN*%
%TO.N,VCC*%
X117050000Y-102362500D03*
%TO.P,U1,2,GND*%
%TO.N,GND*%
X118000000Y-102362500D03*
%TO.P,U1,3,EN*%
%TO.N,VCC*%
X118950000Y-102362500D03*
%TO.P,U1,4,NR*%
%TO.N,Net-(C3-Pad1)*%
X118950000Y-104637500D03*
%TO.P,U1,5,OUT*%
%TO.N,VDD*%
X117050000Y-104637500D03*
%TD*%
D18*
%TO.P,J1,1,Pin_1*%
%TO.N,unconnected-(J1-Pad1)*%
X126190000Y-102137500D03*
%TO.P,J1,2,Pin_2*%
%TO.N,VCC*%
X127460000Y-102137500D03*
%TO.P,J1,3,Pin_3*%
%TO.N,GND*%
X128730000Y-102137500D03*
%TO.P,J1,4,Pin_4*%
%TO.N,Net-(J1-Pad4)*%
X130000000Y-102137500D03*
%TO.P,J1,5,Pin_5*%
%TO.N,Net-(J1-Pad5)*%
X131270000Y-102137500D03*
%TO.P,J1,6,Pin_6*%
%TO.N,Net-(J1-Pad6)*%
X132540000Y-102137500D03*
%TO.P,J1,7,Pin_7*%
%TO.N,Net-(J1-Pad7)*%
X133810000Y-102137500D03*
%TD*%
D19*
%TO.N,*%
X117000000Y-108000000D03*
X143000000Y-108000000D03*
D20*
%TO.N,GND*%
X127000000Y-106500000D03*
%TO.N,VCC*%
X123723500Y-103587000D03*
X120900900Y-105998100D03*
%TO.N,VDD*%
X129500000Y-107500000D03*
X136919900Y-106325200D03*
%TO.N,Net-(J1-Pad5)*%
X124743500Y-107248200D03*
X138188400Y-108612900D03*
%TO.N,Net-(Q1-Pad4)*%
X139337900Y-108277800D03*
X133504900Y-108129600D03*
%TO.N,Net-(Q1-Pad1)*%
X134733200Y-108342000D03*
%TO.N,Net-(R5-Pad2)*%
X140417400Y-105453200D03*
%TO.N,Net-(R6-Pad2)*%
X139498200Y-104941100D03*
%TD*%
D21*
%TO.N,GND*%
X122000000Y-103212500D02*
X123099800Y-104312300D01*
X118787500Y-101000000D02*
X120212500Y-101000000D01*
X126712000Y-107233000D02*
X126712000Y-106966000D01*
X120500000Y-103212500D02*
X120500000Y-101287500D01*
X122000000Y-103212500D02*
X120500000Y-103212500D01*
X118000000Y-102400000D02*
X118000000Y-101544700D01*
X126712000Y-106966000D02*
X126712000Y-106788000D01*
X127000000Y-106500000D02*
X128730000Y-104770000D01*
X118242800Y-101544700D02*
X118787500Y-101000000D01*
X120500000Y-101287500D02*
X120212500Y-101000000D01*
X126712000Y-107233000D02*
X126712500Y-107233500D01*
X126712000Y-106788000D02*
X127000000Y-106500000D01*
X118000000Y-101544700D02*
X118242800Y-101544700D01*
X128730000Y-104770000D02*
X128730000Y-102137500D01*
X126712000Y-107500000D02*
X126712000Y-107233000D01*
X123099800Y-104312300D02*
X124058300Y-104312300D01*
X124058300Y-104312300D02*
X126712000Y-106966000D01*
X126712500Y-107233500D02*
X126712500Y-107500000D01*
%TO.N,VCC*%
X118950000Y-103255300D02*
X117050000Y-103255300D01*
X117088700Y-105998100D02*
X116399700Y-105309100D01*
X122212500Y-109000000D02*
X122212500Y-106500000D01*
X124639100Y-103962800D02*
X123993400Y-103317100D01*
X116399700Y-105309100D02*
X116399700Y-103742900D01*
X127460000Y-102137500D02*
X127460000Y-103962800D01*
X127460000Y-103962800D02*
X124639100Y-103962800D01*
X123993400Y-103205900D02*
X123993400Y-103317100D01*
X118950000Y-102400000D02*
X118950000Y-103255300D01*
X116887300Y-103255300D02*
X117050000Y-103255300D01*
X117050000Y-102400000D02*
X117050000Y-101162500D01*
X122212500Y-106500000D02*
X121710600Y-105998100D01*
X123993400Y-103317100D02*
X123723500Y-103587000D01*
X117050000Y-101162500D02*
X117212500Y-101000000D01*
X117050000Y-102400000D02*
X117050000Y-103255300D01*
X121787500Y-101000000D02*
X123993400Y-103205900D01*
X121710600Y-105998100D02*
X120900900Y-105998100D01*
X120900900Y-105998100D02*
X117088700Y-105998100D01*
X116399700Y-103742900D02*
X116887300Y-103255300D01*
%TO.N,Net-(C3-Pad1)*%
X118950000Y-104600000D02*
X118950000Y-105455300D01*
X118950000Y-105455300D02*
X119832200Y-105455300D01*
X119832200Y-105455300D02*
X120500000Y-104787500D01*
%TO.N,VDD*%
X126210100Y-108306700D02*
X125819000Y-107915600D01*
X125819000Y-107915600D02*
X125819000Y-107282100D01*
X137224600Y-106325200D02*
X136919900Y-106325200D01*
X137925000Y-107000000D02*
X139075000Y-107000000D01*
X137787500Y-102000000D02*
X137787500Y-103500000D01*
X119978000Y-104023800D02*
X119698900Y-103744700D01*
X128288000Y-107500000D02*
X128287500Y-107500000D01*
X128288000Y-107500000D02*
X129500000Y-107500000D01*
X119698900Y-103744700D02*
X117050000Y-103744700D01*
X117050000Y-104600000D02*
X117050000Y-103744700D01*
X122000000Y-104787500D02*
X121236300Y-104023800D01*
X139212500Y-102000000D02*
X139212500Y-103500000D01*
X125819000Y-107282100D02*
X123324400Y-104787500D01*
X121236300Y-104023800D02*
X119978000Y-104023800D01*
X123324400Y-104787500D02*
X122000000Y-104787500D01*
X137925000Y-107000000D02*
X137224700Y-107000000D01*
X127480800Y-108306700D02*
X126210100Y-108306700D01*
X137224600Y-104062900D02*
X137224600Y-106325200D01*
X137224600Y-106999900D02*
X137224700Y-107000000D01*
X128287500Y-107500000D02*
X127480800Y-108306700D01*
X137787500Y-103500000D02*
X137224600Y-104062900D01*
X139212500Y-102000000D02*
X137787500Y-102000000D01*
X137224600Y-106325200D02*
X137224600Y-106999900D01*
%TO.N,Net-(J1-Pad7)*%
X142813600Y-100718600D02*
X135228900Y-100718600D01*
X143787500Y-101692500D02*
X142813600Y-100718600D01*
X143787500Y-102000000D02*
X143787500Y-101692500D01*
X135228900Y-100718600D02*
X133810000Y-102137500D01*
%TO.N,Net-(J1-Pad6)*%
X134269800Y-103962800D02*
X134460400Y-103772200D01*
X132540000Y-102137500D02*
X132540000Y-103962800D01*
X135753300Y-101198900D02*
X142657000Y-101198900D01*
X134460400Y-102491800D02*
X135753300Y-101198900D01*
X142976100Y-102688600D02*
X143787500Y-103500000D01*
X142976100Y-101518000D02*
X142976100Y-102688600D01*
X132540000Y-103962800D02*
X134269800Y-103962800D01*
X142657000Y-101198900D02*
X142976100Y-101518000D01*
X134460400Y-103772200D02*
X134460400Y-102491800D01*
%TO.N,Net-(J1-Pad5)*%
X123787500Y-106500000D02*
X123995300Y-106500000D01*
X138188400Y-108612900D02*
X137732500Y-109068800D01*
X131270000Y-106979100D02*
X131270000Y-102137500D01*
X133359700Y-109068800D02*
X131270000Y-106979100D01*
X137732500Y-109068800D02*
X133359700Y-109068800D01*
X139075000Y-107500000D02*
X138188400Y-108386600D01*
X138188400Y-108386600D02*
X138188400Y-108612900D01*
X123995300Y-106500000D02*
X124743500Y-107248200D01*
%TO.N,Net-(J1-Pad4)*%
X130258200Y-109000000D02*
X130799400Y-109541200D01*
X130000000Y-103962800D02*
X130258200Y-104221000D01*
X130000000Y-102137500D02*
X130000000Y-103962800D01*
X139158500Y-109541200D02*
X140251400Y-108448300D01*
X140251400Y-108448300D02*
X140251400Y-106321700D01*
X139926700Y-105997000D02*
X138428000Y-105997000D01*
X130799400Y-109541200D02*
X139158500Y-109541200D01*
X140251400Y-106321700D02*
X139926700Y-105997000D01*
X138428000Y-105997000D02*
X137925000Y-106500000D01*
X123787500Y-109000000D02*
X130258200Y-109000000D01*
X130258200Y-104221000D02*
X130258200Y-109000000D01*
%TO.N,Net-(Q1-Pad4)*%
X139775300Y-107840400D02*
X139337900Y-108277800D01*
X139775300Y-106500000D02*
X139775300Y-107840400D01*
X135168200Y-106466300D02*
X133504900Y-108129600D01*
X136212500Y-102000000D02*
X135168200Y-103044300D01*
X139075000Y-106500000D02*
X139775300Y-106500000D01*
X135168200Y-103044300D02*
X135168200Y-106466300D01*
%TO.N,Net-(Q1-Pad1)*%
X136169400Y-106905800D02*
X136763500Y-107500000D01*
X137975000Y-107500000D02*
X137224700Y-107500000D01*
X136169300Y-103543200D02*
X136169300Y-106905800D01*
X136763500Y-107500000D02*
X137224700Y-107500000D01*
X136169300Y-106905800D02*
X136169400Y-106905800D01*
X136212500Y-103500000D02*
X136169300Y-103543200D01*
X136169400Y-106905800D02*
X134733200Y-108342000D01*
%TO.N,Net-(R5-Pad2)*%
X140787500Y-103500000D02*
X140787500Y-105083100D01*
X142212500Y-103500000D02*
X140787500Y-103500000D01*
X140787500Y-105083100D02*
X140417400Y-105453200D01*
%TO.N,Net-(R6-Pad2)*%
X139498200Y-104941100D02*
X140000000Y-104439300D01*
X142212500Y-102000000D02*
X140787500Y-102000000D01*
X140000000Y-104439300D02*
X140000000Y-102787500D01*
X140000000Y-102787500D02*
X140787500Y-102000000D01*
%TD*%
%TA.AperFunction,Conductor*%
%TO.N,GND*%
G36*
X128926121Y-101903502D02*
G01*
X128972614Y-101957158D01*
X128984000Y-102009500D01*
X128984000Y-104127384D01*
X128988475Y-104142623D01*
X128989865Y-104143828D01*
X128997548Y-104145499D01*
X129099669Y-104145499D01*
X129106490Y-104145129D01*
X129157352Y-104139605D01*
X129172607Y-104135978D01*
X129241910Y-104109998D01*
X129312717Y-104104815D01*
X129375086Y-104138736D01*
X129407136Y-104192828D01*
X129413982Y-104216393D01*
X129418015Y-104223212D01*
X129418017Y-104223217D01*
X129424293Y-104233828D01*
X129432988Y-104251576D01*
X129440448Y-104270417D01*
X129445110Y-104276833D01*
X129445110Y-104276834D01*
X129466436Y-104306187D01*
X129472952Y-104316107D01*
X129485095Y-104336639D01*
X129495458Y-104354162D01*
X129509782Y-104368486D01*
X129522617Y-104383513D01*
X129534528Y-104399907D01*
X129540636Y-104404960D01*
X129540638Y-104404962D01*
X129568598Y-104428092D01*
X129577378Y-104436082D01*
X129587795Y-104446499D01*
X129621821Y-104508811D01*
X129624700Y-104535594D01*
X129624700Y-106465500D01*
X129604698Y-106533621D01*
X129551042Y-106580114D01*
X129498700Y-106591500D01*
X129404513Y-106591500D01*
X129398061Y-106592872D01*
X129398056Y-106592872D01*
X129311112Y-106611353D01*
X129217712Y-106631206D01*
X129088362Y-106688796D01*
X129017996Y-106698230D01*
X128960450Y-106673191D01*
X128957702Y-106670448D01*
X128831851Y-106592872D01*
X128818331Y-106584538D01*
X128818329Y-106584537D01*
X128812101Y-106580698D01*
X128649757Y-106526851D01*
X128642920Y-106526151D01*
X128642918Y-106526150D01*
X128601599Y-106521917D01*
X128548732Y-106516500D01*
X128001268Y-106516500D01*
X127998022Y-106516837D01*
X127998018Y-106516837D01*
X127968730Y-106519876D01*
X127898981Y-106527113D01*
X127890963Y-106529788D01*
X127743676Y-106578927D01*
X127743674Y-106578928D01*
X127736732Y-106581244D01*
X127730508Y-106585096D01*
X127730507Y-106585096D01*
X127653478Y-106632763D01*
X127591287Y-106671248D01*
X127586114Y-106676430D01*
X127580377Y-106680977D01*
X127578945Y-106679170D01*
X127526425Y-106707902D01*
X127455605Y-106702892D01*
X127419147Y-106679501D01*
X127418317Y-106680552D01*
X127401160Y-106667002D01*
X127268120Y-106584996D01*
X127254939Y-106578849D01*
X127106186Y-106529509D01*
X127092810Y-106526642D01*
X127001903Y-106517328D01*
X126996874Y-106517071D01*
X126981876Y-106521475D01*
X126980671Y-106522865D01*
X126979000Y-106530548D01*
X126979000Y-107547200D01*
X126958998Y-107615321D01*
X126905342Y-107661814D01*
X126853000Y-107673200D01*
X126597000Y-107673200D01*
X126528879Y-107653198D01*
X126482386Y-107599542D01*
X126471000Y-107547200D01*
X126471000Y-106535115D01*
X126466525Y-106519876D01*
X126465135Y-106518671D01*
X126457452Y-106517000D01*
X126454562Y-106517000D01*
X126448047Y-106517337D01*
X126355943Y-106526894D01*
X126342544Y-106529788D01*
X126193893Y-106579381D01*
X126180719Y-106585552D01*
X126165268Y-106595114D01*
X126096816Y-106613952D01*
X126029046Y-106592791D01*
X126009869Y-106577065D01*
X125075933Y-105643128D01*
X124105637Y-104672832D01*
X124071611Y-104610520D01*
X124076676Y-104539704D01*
X124119223Y-104482869D01*
X124185743Y-104458058D01*
X124255117Y-104473149D01*
X124261308Y-104477066D01*
X124263779Y-104479386D01*
X124281531Y-104489145D01*
X124298053Y-104499998D01*
X124314059Y-104512414D01*
X124321337Y-104515564D01*
X124321338Y-104515564D01*
X124354637Y-104529974D01*
X124365287Y-104535191D01*
X124404040Y-104556495D01*
X124411715Y-104558466D01*
X124411716Y-104558466D01*
X124423662Y-104561533D01*
X124442367Y-104567937D01*
X124460955Y-104575981D01*
X124468778Y-104577220D01*
X124468788Y-104577223D01*
X124504624Y-104582899D01*
X124516244Y-104585305D01*
X124551389Y-104594328D01*
X124559070Y-104596300D01*
X124579324Y-104596300D01*
X124599034Y-104597851D01*
X124619043Y-104601020D01*
X124626935Y-104600274D01*
X124638363Y-104599194D01*
X124663062Y-104596859D01*
X124674919Y-104596300D01*
X127388207Y-104596300D01*
X127411816Y-104598532D01*
X127412119Y-104598590D01*
X127412123Y-104598590D01*
X127419906Y-104600075D01*
X127475951Y-104596549D01*
X127483862Y-104596300D01*
X127499856Y-104596300D01*
X127515730Y-104594294D01*
X127523590Y-104593552D01*
X127551049Y-104591824D01*
X127571737Y-104590523D01*
X127571738Y-104590523D01*
X127579650Y-104590025D01*
X127587191Y-104587575D01*
X127587487Y-104587479D01*
X127610631Y-104582306D01*
X127610935Y-104582268D01*
X127610940Y-104582267D01*
X127618797Y-104581274D01*
X127626162Y-104578358D01*
X127626166Y-104578357D01*
X127671011Y-104560601D01*
X127678430Y-104557929D01*
X127731875Y-104540564D01*
X127738572Y-104536314D01*
X127738831Y-104536150D01*
X127759958Y-104525385D01*
X127760246Y-104525271D01*
X127760251Y-104525268D01*
X127767617Y-104522352D01*
X127774025Y-104517696D01*
X127774031Y-104517693D01*
X127813052Y-104489342D01*
X127819589Y-104484899D01*
X127867018Y-104454800D01*
X127872659Y-104448793D01*
X127890446Y-104433112D01*
X127890691Y-104432934D01*
X127890693Y-104432932D01*
X127897107Y-104428272D01*
X127902679Y-104421537D01*
X127932903Y-104385004D01*
X127938134Y-104379070D01*
X127971158Y-104343902D01*
X127971160Y-104343899D01*
X127976586Y-104338121D01*
X127980558Y-104330897D01*
X127993881Y-104311294D01*
X127994080Y-104311054D01*
X127994084Y-104311047D01*
X127999133Y-104304944D01*
X128023047Y-104254124D01*
X128026629Y-104247092D01*
X128053695Y-104197860D01*
X128055667Y-104190181D01*
X128058586Y-104182808D01*
X128061738Y-104184056D01*
X128090195Y-104136326D01*
X128153750Y-104104682D01*
X128220086Y-104110746D01*
X128287391Y-104135978D01*
X128302649Y-104139605D01*
X128353514Y-104145131D01*
X128360328Y-104145500D01*
X128457885Y-104145500D01*
X128473124Y-104141025D01*
X128474329Y-104139635D01*
X128476000Y-104131952D01*
X128476000Y-102009500D01*
X128496002Y-101941379D01*
X128549658Y-101894886D01*
X128602000Y-101883500D01*
X128858000Y-101883500D01*
X128926121Y-101903502D01*
G37*
%TD.AperFunction*%
%TA.AperFunction,Conductor*%
G36*
X120421121Y-100766002D02*
G01*
X120467614Y-100819658D01*
X120479000Y-100872000D01*
X120479000Y-101964885D01*
X120483475Y-101980124D01*
X120484865Y-101981329D01*
X120492548Y-101983000D01*
X120495438Y-101983000D01*
X120501953Y-101982663D01*
X120594057Y-101973106D01*
X120607456Y-101970212D01*
X120756107Y-101920619D01*
X120769286Y-101914445D01*
X120902173Y-101832212D01*
X120919311Y-101818629D01*
X120920841Y-101820559D01*
X120972880Y-101792097D01*
X121043699Y-101797113D01*
X121080617Y-101820799D01*
X121081372Y-101819843D01*
X121087118Y-101824381D01*
X121092298Y-101829552D01*
X121098528Y-101833392D01*
X121098529Y-101833393D01*
X121230020Y-101914445D01*
X121237899Y-101919302D01*
X121400243Y-101973149D01*
X121407080Y-101973849D01*
X121407082Y-101973850D01*
X121442435Y-101977472D01*
X121501268Y-101983500D01*
X121822906Y-101983500D01*
X121891027Y-102003502D01*
X121912001Y-102020405D01*
X121943501Y-102051905D01*
X121977527Y-102114217D01*
X121972462Y-102185032D01*
X121929915Y-102241868D01*
X121863395Y-102266679D01*
X121854406Y-102267000D01*
X121704562Y-102267000D01*
X121698047Y-102267337D01*
X121605943Y-102276894D01*
X121592544Y-102279788D01*
X121443893Y-102329381D01*
X121430715Y-102335555D01*
X121316398Y-102406296D01*
X121247946Y-102425134D01*
X121183979Y-102406412D01*
X121068120Y-102334996D01*
X121054939Y-102328849D01*
X120906186Y-102279509D01*
X120892810Y-102276642D01*
X120801903Y-102267328D01*
X120795486Y-102267000D01*
X120772115Y-102267000D01*
X120756876Y-102271475D01*
X120755671Y-102272865D01*
X120754000Y-102280548D01*
X120754000Y-102952885D01*
X120758475Y-102968124D01*
X120759865Y-102969329D01*
X120767548Y-102971000D01*
X122128000Y-102971000D01*
X122196121Y-102991002D01*
X122242614Y-103044658D01*
X122254000Y-103097000D01*
X122254000Y-103353000D01*
X122233998Y-103421121D01*
X122180342Y-103467614D01*
X122128000Y-103479000D01*
X121598559Y-103479000D01*
X121548519Y-103468637D01*
X121520763Y-103456626D01*
X121510113Y-103451409D01*
X121471360Y-103430105D01*
X121451737Y-103425067D01*
X121433034Y-103418663D01*
X121421720Y-103413767D01*
X121421719Y-103413767D01*
X121414445Y-103410619D01*
X121406622Y-103409380D01*
X121406612Y-103409377D01*
X121370776Y-103403701D01*
X121359156Y-103401295D01*
X121324011Y-103392272D01*
X121324010Y-103392272D01*
X121316330Y-103390300D01*
X121296076Y-103390300D01*
X121276365Y-103388749D01*
X121264186Y-103386820D01*
X121256357Y-103385580D01*
X121248465Y-103386326D01*
X121212339Y-103389741D01*
X121200481Y-103390300D01*
X120372000Y-103390300D01*
X120303879Y-103370298D01*
X120257386Y-103316642D01*
X120246000Y-103264300D01*
X120246000Y-102285115D01*
X120241525Y-102269876D01*
X120240135Y-102268671D01*
X120232452Y-102267000D01*
X120204562Y-102267000D01*
X120198047Y-102267337D01*
X120105943Y-102276894D01*
X120092544Y-102279788D01*
X119943889Y-102329382D01*
X119937951Y-102332164D01*
X119867778Y-102342948D01*
X119802915Y-102314083D01*
X119763954Y-102254732D01*
X119758500Y-102218063D01*
X119758500Y-102102816D01*
X119778502Y-102034695D01*
X119832158Y-101988202D01*
X119897342Y-101977472D01*
X119948097Y-101982672D01*
X119953126Y-101982929D01*
X119968124Y-101978525D01*
X119969329Y-101977135D01*
X119971000Y-101969452D01*
X119971000Y-101272115D01*
X119966525Y-101256876D01*
X119965135Y-101255671D01*
X119957452Y-101254000D01*
X119417570Y-101254000D01*
X119368725Y-101243885D01*
X119363601Y-101240855D01*
X119355993Y-101238645D01*
X119355989Y-101238643D01*
X119275578Y-101215282D01*
X119203831Y-101194438D01*
X119197426Y-101193934D01*
X119197421Y-101193933D01*
X119168958Y-101191693D01*
X119168950Y-101191693D01*
X119166502Y-101191500D01*
X118733498Y-101191500D01*
X118731050Y-101191693D01*
X118731042Y-101191693D01*
X118702579Y-101193933D01*
X118702574Y-101193934D01*
X118696169Y-101194438D01*
X118682153Y-101198510D01*
X118611156Y-101198307D01*
X118551540Y-101159753D01*
X118522232Y-101095088D01*
X118521000Y-101077513D01*
X118521000Y-100872000D01*
X118541002Y-100803879D01*
X118594658Y-100757386D01*
X118647000Y-100746000D01*
X120353000Y-100746000D01*
X120421121Y-100766002D01*
G37*
%TD.AperFunction*%
%TA.AperFunction,Conductor*%
G36*
X118059429Y-101782031D02*
G01*
X118116302Y-101824527D01*
X118141171Y-101891026D01*
X118141500Y-101900125D01*
X118141500Y-102490500D01*
X118121498Y-102558621D01*
X118067842Y-102605114D01*
X118015500Y-102616500D01*
X117984500Y-102616500D01*
X117916379Y-102596498D01*
X117869886Y-102542842D01*
X117858500Y-102490500D01*
X117858500Y-101928379D01*
X117878502Y-101860258D01*
X117904894Y-101831116D01*
X117908713Y-101828752D01*
X117926327Y-101811108D01*
X117988609Y-101777028D01*
X118059429Y-101782031D01*
G37*
%TD.AperFunction*%
%TD*%
M02*
