G04 #@! TF.GenerationSoftware,KiCad,Pcbnew,(6.0.11)*
G04 #@! TF.CreationDate,2023-01-31T15:57:48+09:00*
G04 #@! TF.ProjectId,kick-drib-20230121,6b69636b-2d64-4726-9962-2d3230323330,V2.0*
G04 #@! TF.SameCoordinates,PX73bce80PY7ffbac0*
G04 #@! TF.FileFunction,Soldermask,Top*
G04 #@! TF.FilePolarity,Negative*
%FSLAX46Y46*%
G04 Gerber Fmt 4.6, Leading zero omitted, Abs format (unit mm)*
G04 Created by KiCad (PCBNEW (6.0.11)) date 2023-01-31 15:57:48*
%MOMM*%
%LPD*%
G01*
G04 APERTURE LIST*
G04 Aperture macros list*
%AMRoundRect*
0 Rectangle with rounded corners*
0 $1 Rounding radius*
0 $2 $3 $4 $5 $6 $7 $8 $9 X,Y pos of 4 corners*
0 Add a 4 corners polygon primitive as box body*
4,1,4,$2,$3,$4,$5,$6,$7,$8,$9,$2,$3,0*
0 Add four circle primitives for the rounded corners*
1,1,$1+$1,$2,$3*
1,1,$1+$1,$4,$5*
1,1,$1+$1,$6,$7*
1,1,$1+$1,$8,$9*
0 Add four rect primitives between the rounded corners*
20,1,$1+$1,$2,$3,$4,$5,0*
20,1,$1+$1,$4,$5,$6,$7,0*
20,1,$1+$1,$6,$7,$8,$9,0*
20,1,$1+$1,$8,$9,$2,$3,0*%
%AMHorizOval*
0 Thick line with rounded ends*
0 $1 width*
0 $2 $3 position (X,Y) of the first rounded end (center of the circle)*
0 $4 $5 position (X,Y) of the second rounded end (center of the circle)*
0 Add line between two ends*
20,1,$1,$2,$3,$4,$5,0*
0 Add two circle primitives to create the rounded ends*
1,1,$1,$2,$3*
1,1,$1,$4,$5*%
%AMRotRect*
0 Rectangle, with rotation*
0 The origin of the aperture is its center*
0 $1 length*
0 $2 width*
0 $3 Rotation angle, in degrees counterclockwise*
0 Add horizontal line*
21,1,$1,$2,0,0,$3*%
G04 Aperture macros list end*
%ADD10R,1.400000X0.800000*%
%ADD11RoundRect,0.237500X-0.237500X0.300000X-0.237500X-0.300000X0.237500X-0.300000X0.237500X0.300000X0*%
%ADD12RoundRect,0.250000X0.954594X0.106066X0.106066X0.954594X-0.954594X-0.106066X-0.106066X-0.954594X0*%
%ADD13HorizOval,1.700000X0.106066X0.106066X-0.106066X-0.106066X0*%
%ADD14RotRect,1.700000X1.700000X135.000000*%
%ADD15HorizOval,1.700000X0.000000X0.000000X0.000000X0.000000X0*%
%ADD16C,1.800000*%
%ADD17C,1.431000*%
%ADD18RoundRect,0.237500X-0.237500X0.250000X-0.237500X-0.250000X0.237500X-0.250000X0.237500X0.250000X0*%
%ADD19RoundRect,0.250000X0.106066X-0.954594X0.954594X-0.106066X-0.106066X0.954594X-0.954594X0.106066X0*%
%ADD20HorizOval,1.700000X-0.106066X0.106066X0.106066X-0.106066X0*%
%ADD21C,2.400000*%
%ADD22O,2.400000X2.400000*%
%ADD23RotRect,1.700000X1.700000X45.000000*%
%ADD24HorizOval,1.700000X0.000000X0.000000X0.000000X0.000000X0*%
%ADD25C,1.400000*%
%ADD26O,1.400000X1.400000*%
%ADD27R,2.500000X1.800000*%
%ADD28R,2.200000X1.200000*%
%ADD29R,6.400000X5.800000*%
%ADD30RoundRect,0.237500X-0.237500X0.287500X-0.237500X-0.287500X0.237500X-0.287500X0.237500X0.287500X0*%
%ADD31R,2.400000X2.400000*%
%ADD32R,1.727200X1.727200*%
%ADD33O,1.727200X1.727200*%
%ADD34R,2.000000X2.000000*%
%ADD35C,2.000000*%
%ADD36R,1.700000X1.700000*%
%ADD37O,1.700000X1.700000*%
%ADD38C,0.800000*%
G04 APERTURE END LIST*
D10*
X23442000Y34002200D03*
X23442000Y31462200D03*
X29942000Y31462200D03*
X29942000Y32732200D03*
X29942000Y34002200D03*
D11*
X32692000Y25594700D03*
X32692000Y23869700D03*
D12*
X58420000Y51308000D03*
D13*
X56652233Y53075767D03*
D14*
X35005000Y62045200D03*
D15*
X36801051Y63841251D03*
X38597102Y65637302D03*
X40393154Y67433354D03*
D16*
X8692000Y33732200D03*
X8692000Y45732200D03*
D17*
X14224000Y27900000D03*
X11684000Y25400000D03*
X14224000Y22900000D03*
D18*
X20692000Y33644700D03*
X20692000Y31819700D03*
X20692000Y25644700D03*
X20692000Y23819700D03*
D11*
X31692000Y33594700D03*
X31692000Y31869700D03*
D10*
X23442000Y26002200D03*
X23442000Y23462200D03*
X29942000Y23462200D03*
X29942000Y24732200D03*
X29942000Y26002200D03*
D17*
X26964000Y45720000D03*
X29464000Y48220000D03*
X31964000Y45720000D03*
D19*
X56656900Y26411300D03*
D20*
X58424667Y28179067D03*
D21*
X33528000Y38100000D03*
D22*
X13208000Y38100000D03*
D23*
X35099900Y17324300D03*
D24*
X36895951Y15528249D03*
X38692002Y13732198D03*
X40488054Y11936146D03*
D25*
X10160000Y56896000D03*
D26*
X10160000Y51816000D03*
D27*
X51276000Y41148000D03*
X47276000Y41148000D03*
D28*
X37492000Y37012200D03*
D29*
X43792000Y34732200D03*
D28*
X37492000Y32452200D03*
D30*
X8692000Y40607200D03*
X8692000Y38857200D03*
D31*
X44196000Y18288000D03*
D21*
X44196000Y25788000D03*
D32*
X53020000Y30732200D03*
D33*
X52980000Y48732200D03*
X13020000Y30732200D03*
X13020000Y48732200D03*
D34*
X66679500Y36833000D03*
D35*
X64139500Y36833000D03*
X56519500Y36833000D03*
X56519500Y41913000D03*
X64139500Y41913000D03*
X66679500Y41913000D03*
D31*
X44196000Y53594000D03*
D21*
X44196000Y61094000D03*
D36*
X37440000Y46232200D03*
D37*
X39980000Y46232200D03*
X42520000Y46232200D03*
D38*
X30620700Y30145200D03*
X37297500Y35803000D03*
X31958500Y29838500D03*
M02*
