G04 #@! TF.GenerationSoftware,KiCad,Pcbnew,(6.0.11)*
G04 #@! TF.CreationDate,2023-01-31T15:57:48+09:00*
G04 #@! TF.ProjectId,kick-drib-20230121,6b69636b-2d64-4726-9962-2d3230323330,V2.0*
G04 #@! TF.SameCoordinates,PX73bce80PY7ffbac0*
G04 #@! TF.FileFunction,Legend,Top*
G04 #@! TF.FilePolarity,Positive*
%FSLAX46Y46*%
G04 Gerber Fmt 4.6, Leading zero omitted, Abs format (unit mm)*
G04 Created by KiCad (PCBNEW (6.0.11)) date 2023-01-31 15:57:48*
%MOMM*%
%LPD*%
G01*
G04 APERTURE LIST*
%ADD10C,0.250000*%
%ADD11C,0.100000*%
%ADD12C,0.150000*%
%ADD13C,0.254000*%
%ADD14C,0.120000*%
G04 APERTURE END LIST*
D10*
X25292595Y54497620D02*
X25292595Y55497620D01*
X25864023Y54497620D02*
X25435452Y55069048D01*
X25864023Y55497620D02*
X25292595Y54926191D01*
X26292595Y54497620D02*
X26292595Y55164286D01*
X26292595Y55497620D02*
X26244976Y55450000D01*
X26292595Y55402381D01*
X26340214Y55450000D01*
X26292595Y55497620D01*
X26292595Y55402381D01*
X27197357Y54545239D02*
X27102119Y54497620D01*
X26911642Y54497620D01*
X26816404Y54545239D01*
X26768785Y54592858D01*
X26721166Y54688096D01*
X26721166Y54973810D01*
X26768785Y55069048D01*
X26816404Y55116667D01*
X26911642Y55164286D01*
X27102119Y55164286D01*
X27197357Y55116667D01*
X27625928Y54497620D02*
X27625928Y55497620D01*
X27721166Y54878572D02*
X28006880Y54497620D01*
X28006880Y55164286D02*
X27625928Y54783334D01*
X28435452Y54878572D02*
X29197357Y54878572D01*
X29673547Y54497620D02*
X29673547Y55497620D01*
X29911642Y55497620D01*
X30054500Y55450000D01*
X30149738Y55354762D01*
X30197357Y55259524D01*
X30244976Y55069048D01*
X30244976Y54926191D01*
X30197357Y54735715D01*
X30149738Y54640477D01*
X30054500Y54545239D01*
X29911642Y54497620D01*
X29673547Y54497620D01*
X30673547Y54497620D02*
X30673547Y55164286D01*
X30673547Y54973810D02*
X30721166Y55069048D01*
X30768785Y55116667D01*
X30864023Y55164286D01*
X30959261Y55164286D01*
X31292595Y54497620D02*
X31292595Y55164286D01*
X31292595Y55497620D02*
X31244976Y55450000D01*
X31292595Y55402381D01*
X31340214Y55450000D01*
X31292595Y55497620D01*
X31292595Y55402381D01*
X31768785Y54497620D02*
X31768785Y55497620D01*
X31768785Y55116667D02*
X31864023Y55164286D01*
X32054500Y55164286D01*
X32149738Y55116667D01*
X32197357Y55069048D01*
X32244976Y54973810D01*
X32244976Y54688096D01*
X32197357Y54592858D01*
X32149738Y54545239D01*
X32054500Y54497620D01*
X31864023Y54497620D01*
X31768785Y54545239D01*
X25578309Y53887620D02*
X25578309Y53173334D01*
X25530690Y53030477D01*
X25435452Y52935239D01*
X25292595Y52887620D01*
X25197357Y52887620D01*
X26483071Y52887620D02*
X26483071Y53411429D01*
X26435452Y53506667D01*
X26340214Y53554286D01*
X26149738Y53554286D01*
X26054500Y53506667D01*
X26483071Y52935239D02*
X26387833Y52887620D01*
X26149738Y52887620D01*
X26054500Y52935239D01*
X26006880Y53030477D01*
X26006880Y53125715D01*
X26054500Y53220953D01*
X26149738Y53268572D01*
X26387833Y53268572D01*
X26483071Y53316191D01*
X26959261Y53554286D02*
X26959261Y52887620D01*
X26959261Y53459048D02*
X27006880Y53506667D01*
X27102119Y53554286D01*
X27244976Y53554286D01*
X27340214Y53506667D01*
X27387833Y53411429D01*
X27387833Y52887620D01*
X27864023Y52982858D02*
X27911642Y52935239D01*
X27864023Y52887620D01*
X27816404Y52935239D01*
X27864023Y52982858D01*
X27864023Y52887620D01*
X28292595Y53792381D02*
X28340214Y53840000D01*
X28435452Y53887620D01*
X28673547Y53887620D01*
X28768785Y53840000D01*
X28816404Y53792381D01*
X28864023Y53697143D01*
X28864023Y53601905D01*
X28816404Y53459048D01*
X28244976Y52887620D01*
X28864023Y52887620D01*
X29483071Y53887620D02*
X29578309Y53887620D01*
X29673547Y53840000D01*
X29721166Y53792381D01*
X29768785Y53697143D01*
X29816404Y53506667D01*
X29816404Y53268572D01*
X29768785Y53078096D01*
X29721166Y52982858D01*
X29673547Y52935239D01*
X29578309Y52887620D01*
X29483071Y52887620D01*
X29387833Y52935239D01*
X29340214Y52982858D01*
X29292595Y53078096D01*
X29244976Y53268572D01*
X29244976Y53506667D01*
X29292595Y53697143D01*
X29340214Y53792381D01*
X29387833Y53840000D01*
X29483071Y53887620D01*
X30197357Y53792381D02*
X30244976Y53840000D01*
X30340214Y53887620D01*
X30578309Y53887620D01*
X30673547Y53840000D01*
X30721166Y53792381D01*
X30768785Y53697143D01*
X30768785Y53601905D01*
X30721166Y53459048D01*
X30149738Y52887620D01*
X30768785Y52887620D01*
X31102119Y53887620D02*
X31721166Y53887620D01*
X31387833Y53506667D01*
X31530690Y53506667D01*
X31625928Y53459048D01*
X31673547Y53411429D01*
X31721166Y53316191D01*
X31721166Y53078096D01*
X31673547Y52982858D01*
X31625928Y52935239D01*
X31530690Y52887620D01*
X31244976Y52887620D01*
X31149738Y52935239D01*
X31102119Y52982858D01*
X25292595Y51277620D02*
X25292595Y52277620D01*
X25292595Y51896667D02*
X25387833Y51944286D01*
X25578309Y51944286D01*
X25673547Y51896667D01*
X25721166Y51849048D01*
X25768785Y51753810D01*
X25768785Y51468096D01*
X25721166Y51372858D01*
X25673547Y51325239D01*
X25578309Y51277620D01*
X25387833Y51277620D01*
X25292595Y51325239D01*
X26102119Y51944286D02*
X26340214Y51277620D01*
X26578309Y51944286D02*
X26340214Y51277620D01*
X26244976Y51039524D01*
X26197357Y50991905D01*
X26102119Y50944286D01*
X27673547Y51563334D02*
X28149738Y51563334D01*
X27578309Y51277620D02*
X27911642Y52277620D01*
X28244976Y51277620D01*
X28578309Y51372858D02*
X28625928Y51325239D01*
X28578309Y51277620D01*
X28530690Y51325239D01*
X28578309Y51372858D01*
X28578309Y51277620D01*
X29006880Y51325239D02*
X29149738Y51277620D01*
X29387833Y51277620D01*
X29483071Y51325239D01*
X29530690Y51372858D01*
X29578309Y51468096D01*
X29578309Y51563334D01*
X29530690Y51658572D01*
X29483071Y51706191D01*
X29387833Y51753810D01*
X29197357Y51801429D01*
X29102119Y51849048D01*
X29054500Y51896667D01*
X29006880Y51991905D01*
X29006880Y52087143D01*
X29054500Y52182381D01*
X29102119Y52230000D01*
X29197357Y52277620D01*
X29435452Y52277620D01*
X29578309Y52230000D01*
X30435452Y51277620D02*
X30435452Y51801429D01*
X30387833Y51896667D01*
X30292595Y51944286D01*
X30102119Y51944286D01*
X30006880Y51896667D01*
X30435452Y51325239D02*
X30340214Y51277620D01*
X30102119Y51277620D01*
X30006880Y51325239D01*
X29959261Y51420477D01*
X29959261Y51515715D01*
X30006880Y51610953D01*
X30102119Y51658572D01*
X30340214Y51658572D01*
X30435452Y51706191D01*
X31292595Y51325239D02*
X31197357Y51277620D01*
X31006880Y51277620D01*
X30911642Y51325239D01*
X30864023Y51420477D01*
X30864023Y51801429D01*
X30911642Y51896667D01*
X31006880Y51944286D01*
X31197357Y51944286D01*
X31292595Y51896667D01*
X31340214Y51801429D01*
X31340214Y51706191D01*
X30864023Y51610953D01*
X31768785Y51277620D02*
X31768785Y52277620D01*
X31864023Y51658572D02*
X32149738Y51277620D01*
X32149738Y51944286D02*
X31768785Y51563334D01*
X32578309Y51277620D02*
X32578309Y51944286D01*
X32578309Y52277620D02*
X32530690Y52230000D01*
X32578309Y52182381D01*
X32625928Y52230000D01*
X32578309Y52277620D01*
X32578309Y52182381D01*
D11*
X25918190Y32351248D02*
X26322952Y32351248D01*
X26370571Y32375058D01*
X26394380Y32398867D01*
X26418190Y32446486D01*
X26418190Y32541724D01*
X26394380Y32589343D01*
X26370571Y32613153D01*
X26322952Y32636962D01*
X25918190Y32636962D01*
X25965809Y32851248D02*
X25942000Y32875058D01*
X25918190Y32922677D01*
X25918190Y33041724D01*
X25942000Y33089343D01*
X25965809Y33113153D01*
X26013428Y33136962D01*
X26061047Y33136962D01*
X26132476Y33113153D01*
X26418190Y32827439D01*
X26418190Y33136962D01*
D12*
X34479142Y24565534D02*
X34526761Y24517915D01*
X34574380Y24375058D01*
X34574380Y24279820D01*
X34526761Y24136962D01*
X34431523Y24041724D01*
X34336285Y23994105D01*
X34145809Y23946486D01*
X34002952Y23946486D01*
X33812476Y23994105D01*
X33717238Y24041724D01*
X33622000Y24136962D01*
X33574380Y24279820D01*
X33574380Y24375058D01*
X33622000Y24517915D01*
X33669619Y24565534D01*
X34574380Y25517915D02*
X34574380Y24946486D01*
X34574380Y25232200D02*
X33574380Y25232200D01*
X33717238Y25136962D01*
X33812476Y25041724D01*
X33860095Y24946486D01*
X54874364Y49058727D02*
X55379440Y49563803D01*
X55514127Y49631147D01*
X55648814Y49631147D01*
X55783501Y49563803D01*
X55850844Y49496460D01*
X54200929Y49732162D02*
X54537646Y49395445D01*
X54908035Y49698490D01*
X54840692Y49698490D01*
X54739677Y49732162D01*
X54571318Y49900521D01*
X54537646Y50001536D01*
X54537646Y50068880D01*
X54571318Y50169895D01*
X54739677Y50338254D01*
X54840692Y50371925D01*
X54908035Y50371925D01*
X55009051Y50338254D01*
X55177409Y50169895D01*
X55211081Y50068880D01*
X55211081Y50001536D01*
X33205918Y59774714D02*
X33710994Y60279790D01*
X33845681Y60347134D01*
X33980368Y60347134D01*
X34115055Y60279790D01*
X34182398Y60212447D01*
X32936544Y60044088D02*
X32498811Y60481821D01*
X33003887Y60515493D01*
X32902872Y60616508D01*
X32869200Y60717523D01*
X32869200Y60784867D01*
X32902872Y60885882D01*
X33071231Y61054241D01*
X33172246Y61087912D01*
X33239589Y61087912D01*
X33340605Y61054241D01*
X33542635Y60852210D01*
X33576307Y60751195D01*
X33576307Y60683851D01*
X8130095Y31779820D02*
X8701523Y31779820D01*
X8415809Y30779820D02*
X8415809Y31779820D01*
X9034857Y30779820D02*
X9034857Y31779820D01*
X9415809Y31779820D01*
X9511047Y31732200D01*
X9558666Y31684581D01*
X9606285Y31589343D01*
X9606285Y31446486D01*
X9558666Y31351248D01*
X9511047Y31303629D01*
X9415809Y31256010D01*
X9034857Y31256010D01*
X9987238Y31684581D02*
X10034857Y31732200D01*
X10130095Y31779820D01*
X10368190Y31779820D01*
X10463428Y31732200D01*
X10511047Y31684581D01*
X10558666Y31589343D01*
X10558666Y31494105D01*
X10511047Y31351248D01*
X9939619Y30779820D01*
X10558666Y30779820D01*
X8130095Y43779820D02*
X8701523Y43779820D01*
X8415809Y42779820D02*
X8415809Y43779820D01*
X9034857Y42779820D02*
X9034857Y43779820D01*
X9415809Y43779820D01*
X9511047Y43732200D01*
X9558666Y43684581D01*
X9606285Y43589343D01*
X9606285Y43446486D01*
X9558666Y43351248D01*
X9511047Y43303629D01*
X9415809Y43256010D01*
X9034857Y43256010D01*
X10558666Y42779820D02*
X9987238Y42779820D01*
X10272952Y42779820D02*
X10272952Y43779820D01*
X10177714Y43636962D01*
X10082476Y43541724D01*
X9987238Y43494105D01*
D13*
X17338523Y24644048D02*
X16733761Y24220715D01*
X17338523Y23918334D02*
X16068523Y23918334D01*
X16068523Y24402143D01*
X16129000Y24523096D01*
X16189476Y24583572D01*
X16310428Y24644048D01*
X16491857Y24644048D01*
X16612809Y24583572D01*
X16673285Y24523096D01*
X16733761Y24402143D01*
X16733761Y23918334D01*
X16068523Y25006905D02*
X17338523Y25430239D01*
X16068523Y25853572D01*
X17338523Y26942143D02*
X17338523Y26216429D01*
X17338523Y26579286D02*
X16068523Y26579286D01*
X16249952Y26458334D01*
X16370904Y26337381D01*
X16431380Y26216429D01*
D12*
X22574380Y32565534D02*
X22098190Y32232200D01*
X22574380Y31994105D02*
X21574380Y31994105D01*
X21574380Y32375058D01*
X21622000Y32470296D01*
X21669619Y32517915D01*
X21764857Y32565534D01*
X21907714Y32565534D01*
X22002952Y32517915D01*
X22050571Y32470296D01*
X22098190Y32375058D01*
X22098190Y31994105D01*
X21669619Y32946486D02*
X21622000Y32994105D01*
X21574380Y33089343D01*
X21574380Y33327439D01*
X21622000Y33422677D01*
X21669619Y33470296D01*
X21764857Y33517915D01*
X21860095Y33517915D01*
X22002952Y33470296D01*
X22574380Y32898867D01*
X22574380Y33517915D01*
X22574380Y24565534D02*
X22098190Y24232200D01*
X22574380Y23994105D02*
X21574380Y23994105D01*
X21574380Y24375058D01*
X21622000Y24470296D01*
X21669619Y24517915D01*
X21764857Y24565534D01*
X21907714Y24565534D01*
X22002952Y24517915D01*
X22050571Y24470296D01*
X22098190Y24375058D01*
X22098190Y23994105D01*
X22574380Y25517915D02*
X22574380Y24946486D01*
X22574380Y25232200D02*
X21574380Y25232200D01*
X21717238Y25136962D01*
X21812476Y25041724D01*
X21860095Y24946486D01*
X33479142Y32565534D02*
X33526761Y32517915D01*
X33574380Y32375058D01*
X33574380Y32279820D01*
X33526761Y32136962D01*
X33431523Y32041724D01*
X33336285Y31994105D01*
X33145809Y31946486D01*
X33002952Y31946486D01*
X32812476Y31994105D01*
X32717238Y32041724D01*
X32622000Y32136962D01*
X32574380Y32279820D01*
X32574380Y32375058D01*
X32622000Y32517915D01*
X32669619Y32565534D01*
X32669619Y32946486D02*
X32622000Y32994105D01*
X32574380Y33089343D01*
X32574380Y33327439D01*
X32622000Y33422677D01*
X32669619Y33470296D01*
X32764857Y33517915D01*
X32860095Y33517915D01*
X33002952Y33470296D01*
X33574380Y32898867D01*
X33574380Y33517915D01*
D11*
X25918190Y24351248D02*
X26322952Y24351248D01*
X26370571Y24375058D01*
X26394380Y24398867D01*
X26418190Y24446486D01*
X26418190Y24541724D01*
X26394380Y24589343D01*
X26370571Y24613153D01*
X26322952Y24636962D01*
X25918190Y24636962D01*
X26418190Y25136962D02*
X26418190Y24851248D01*
X26418190Y24994105D02*
X25918190Y24994105D01*
X25989619Y24946486D01*
X26037238Y24898867D01*
X26061047Y24851248D01*
D13*
X21596047Y44637477D02*
X21172714Y45242239D01*
X20870333Y44637477D02*
X20870333Y45907477D01*
X21354142Y45907477D01*
X21475095Y45847000D01*
X21535571Y45786524D01*
X21596047Y45665572D01*
X21596047Y45484143D01*
X21535571Y45363191D01*
X21475095Y45302715D01*
X21354142Y45242239D01*
X20870333Y45242239D01*
X21958904Y45907477D02*
X22382238Y44637477D01*
X22805571Y45907477D01*
X23168428Y45786524D02*
X23228904Y45847000D01*
X23349857Y45907477D01*
X23652238Y45907477D01*
X23773190Y45847000D01*
X23833666Y45786524D01*
X23894142Y45665572D01*
X23894142Y45544620D01*
X23833666Y45363191D01*
X23107952Y44637477D01*
X23894142Y44637477D01*
D12*
X54407626Y29956936D02*
X54912702Y29451860D01*
X54980046Y29317173D01*
X54980046Y29182486D01*
X54912702Y29047799D01*
X54845359Y28980456D01*
X55283092Y30360997D02*
X55754496Y29889593D01*
X54845359Y30462013D02*
X55182076Y29788578D01*
X55619809Y30226310D01*
X23201333Y34727620D02*
X22868000Y35203810D01*
X22629904Y34727620D02*
X22629904Y35727620D01*
X23010857Y35727620D01*
X23106095Y35680000D01*
X23153714Y35632381D01*
X23201333Y35537143D01*
X23201333Y35394286D01*
X23153714Y35299048D01*
X23106095Y35251429D01*
X23010857Y35203810D01*
X22629904Y35203810D01*
X23534666Y35727620D02*
X24153714Y35727620D01*
X23820380Y35346667D01*
X23963238Y35346667D01*
X24058476Y35299048D01*
X24106095Y35251429D01*
X24153714Y35156191D01*
X24153714Y34918096D01*
X24106095Y34822858D01*
X24058476Y34775239D01*
X23963238Y34727620D01*
X23677523Y34727620D01*
X23582285Y34775239D01*
X23534666Y34822858D01*
X32829413Y19123382D02*
X33334489Y18618306D01*
X33401833Y18483619D01*
X33401833Y18348932D01*
X33334489Y18214245D01*
X33267146Y18146902D01*
X34243627Y19123382D02*
X33839566Y18719321D01*
X34041596Y18921352D02*
X33334489Y19628459D01*
X33368161Y19460100D01*
X33368161Y19325413D01*
X33334489Y19224398D01*
X12532380Y54189334D02*
X12056190Y53856000D01*
X12532380Y53617905D02*
X11532380Y53617905D01*
X11532380Y53998858D01*
X11580000Y54094096D01*
X11627619Y54141715D01*
X11722857Y54189334D01*
X11865714Y54189334D01*
X11960952Y54141715D01*
X12008571Y54094096D01*
X12056190Y53998858D01*
X12056190Y53617905D01*
X11865714Y55046477D02*
X12532380Y55046477D01*
X11484761Y54808381D02*
X12199047Y54570286D01*
X12199047Y55189334D01*
X48537904Y38195620D02*
X48537904Y39195620D01*
X48776000Y39195620D01*
X48918857Y39148000D01*
X49014095Y39052762D01*
X49061714Y38957524D01*
X49109333Y38767048D01*
X49109333Y38624191D01*
X49061714Y38433715D01*
X49014095Y38338477D01*
X48918857Y38243239D01*
X48776000Y38195620D01*
X48537904Y38195620D01*
X50061714Y38195620D02*
X49490285Y38195620D01*
X49776000Y38195620D02*
X49776000Y39195620D01*
X49680761Y39052762D01*
X49585523Y38957524D01*
X49490285Y38909905D01*
X41596761Y38684581D02*
X41501523Y38732200D01*
X41406285Y38827439D01*
X41263428Y38970296D01*
X41168190Y39017915D01*
X41072952Y39017915D01*
X41120571Y38779820D02*
X41025333Y38827439D01*
X40930095Y38922677D01*
X40882476Y39113153D01*
X40882476Y39446486D01*
X40930095Y39636962D01*
X41025333Y39732200D01*
X41120571Y39779820D01*
X41311047Y39779820D01*
X41406285Y39732200D01*
X41501523Y39636962D01*
X41549142Y39446486D01*
X41549142Y39113153D01*
X41501523Y38922677D01*
X41406285Y38827439D01*
X41311047Y38779820D01*
X41120571Y38779820D01*
X42501523Y38779820D02*
X41930095Y38779820D01*
X42215809Y38779820D02*
X42215809Y39779820D01*
X42120571Y39636962D01*
X42025333Y39541724D01*
X41930095Y39494105D01*
X10574380Y38994105D02*
X9574380Y38994105D01*
X9574380Y39232200D01*
X9622000Y39375058D01*
X9717238Y39470296D01*
X9812476Y39517915D01*
X10002952Y39565534D01*
X10145809Y39565534D01*
X10336285Y39517915D01*
X10431523Y39470296D01*
X10526761Y39375058D01*
X10574380Y39232200D01*
X10574380Y38994105D01*
X9669619Y39946486D02*
X9622000Y39994105D01*
X9574380Y40089343D01*
X9574380Y40327439D01*
X9622000Y40422677D01*
X9669619Y40470296D01*
X9764857Y40517915D01*
X9860095Y40517915D01*
X10002952Y40470296D01*
X10574380Y39898867D01*
X10574380Y40517915D01*
X25033421Y34032200D02*
G75*
G03*
X25033421Y34032200I-141421J0D01*
G01*
D14*
X32182000Y24878467D02*
X32182000Y24585933D01*
X33202000Y24878467D02*
X33202000Y24585933D01*
G36*
X16388547Y50704266D02*
G01*
X16549430Y50867968D01*
X16781180Y50954195D01*
X16870666Y50960421D01*
X17122046Y50903375D01*
X17317147Y50751565D01*
X17425247Y50533982D01*
X17437333Y50425684D01*
X17376880Y50188469D01*
X17216005Y50004361D01*
X16985430Y49902353D01*
X16870666Y49890948D01*
X16616320Y49945494D01*
X16467636Y50055015D01*
X16333998Y50267119D01*
X16322534Y50386242D01*
X16669317Y50386242D01*
X16698602Y50243763D01*
X16805287Y50113136D01*
X16938104Y50109851D01*
X17024000Y50171684D01*
X17099443Y50320676D01*
X17096881Y50498054D01*
X17029691Y50657075D01*
X16911248Y50750997D01*
X16855683Y50759895D01*
X16759317Y50701741D01*
X16692132Y50560552D01*
X16669317Y50386242D01*
X16322534Y50386242D01*
X16312186Y50493759D01*
X16388547Y50704266D01*
G37*
G36*
X15357924Y51294632D02*
G01*
X15639786Y51280633D01*
X15850056Y51242387D01*
X15932924Y51205866D01*
X16030955Y51060271D01*
X16045022Y50864789D01*
X15974514Y50673871D01*
X15939384Y50628483D01*
X15878912Y50548450D01*
X15872398Y50470303D01*
X15928269Y50355651D01*
X16034253Y50196225D01*
X16243738Y49890948D01*
X16023869Y49893484D01*
X15867125Y49917768D01*
X15741482Y50006649D01*
X15621300Y50160853D01*
X15501338Y50316098D01*
X15402916Y50411396D01*
X15371300Y50425684D01*
X15329157Y50366387D01*
X15305716Y50218254D01*
X15304000Y50158316D01*
X15296102Y49986877D01*
X15253303Y49910666D01*
X15146945Y49891369D01*
X15104000Y49890948D01*
X14904000Y49890948D01*
X14904000Y50860158D01*
X15304000Y50860158D01*
X15322587Y50734772D01*
X15406196Y50699752D01*
X15487333Y50705324D01*
X15630319Y50754005D01*
X15670666Y50860158D01*
X15626527Y50969514D01*
X15487333Y51014993D01*
X15354477Y51012477D01*
X15307947Y50937587D01*
X15304000Y50860158D01*
X14904000Y50860158D01*
X14904000Y51294632D01*
X15357924Y51294632D01*
G37*
G36*
X22517104Y50939838D02*
G01*
X22659391Y50873404D01*
X22703996Y50754089D01*
X22704000Y50752744D01*
X22689293Y50649831D01*
X22624015Y50637756D01*
X22497099Y50696756D01*
X22310435Y50740616D01*
X22162785Y50675177D01*
X22078064Y50523965D01*
X22080189Y50310507D01*
X22084874Y50291269D01*
X22171171Y50174849D01*
X22319011Y50109852D01*
X22467925Y50115833D01*
X22522214Y50149842D01*
X22633430Y50221050D01*
X22695158Y50171586D01*
X22704000Y50098625D01*
X22648127Y49975116D01*
X22504918Y49902782D01*
X22310984Y49883535D01*
X22102936Y49919282D01*
X21917385Y50011933D01*
X21867636Y50055015D01*
X21734981Y50266578D01*
X21713447Y50493754D01*
X21789344Y50705125D01*
X21948981Y50869276D01*
X22178669Y50954791D01*
X22262183Y50960421D01*
X22517104Y50939838D01*
G37*
G36*
X21353326Y50954723D02*
G01*
X21402821Y50919444D01*
X21427652Y50827309D01*
X21436322Y50651043D01*
X21437333Y50425684D01*
X21435557Y50160477D01*
X21424561Y50001676D01*
X21395845Y49922006D01*
X21340906Y49894192D01*
X21270666Y49890948D01*
X21188006Y49896646D01*
X21138511Y49931925D01*
X21113680Y50024059D01*
X21105011Y50200326D01*
X21104000Y50425684D01*
X21105776Y50690892D01*
X21116771Y50849693D01*
X21145488Y50929363D01*
X21200426Y50957177D01*
X21270666Y50960421D01*
X21353326Y50954723D01*
G37*
G36*
X20378326Y54135421D02*
G01*
X21401980Y56174105D01*
X22126789Y56174105D01*
X22446524Y56171947D01*
X22653856Y56163318D01*
X22769675Y56144992D01*
X22814872Y56113741D01*
X22811132Y56068375D01*
X22775834Y55961822D01*
X22770666Y55934691D01*
X22708963Y55922377D01*
X22543692Y55912831D01*
X22304612Y55907441D01*
X22171059Y55906737D01*
X21571451Y55906737D01*
X21037333Y54837263D01*
X20503214Y53767790D01*
X20037333Y53767790D01*
X20037333Y55906737D01*
X18437809Y55906737D01*
X17537571Y54102478D01*
X17312348Y53650004D01*
X17107731Y53236850D01*
X16931025Y52877932D01*
X16789535Y52588165D01*
X16690566Y52382467D01*
X16641424Y52275753D01*
X16637333Y52264320D01*
X16695365Y52240482D01*
X16835109Y52230423D01*
X16836940Y52230421D01*
X16910960Y52235931D01*
X16976589Y52263358D01*
X17045044Y52329052D01*
X17127541Y52449360D01*
X17235297Y52640630D01*
X17379526Y52919213D01*
X17570666Y53299895D01*
X18104785Y54369369D01*
X18570666Y54369369D01*
X18570666Y52230421D01*
X20207329Y52230421D01*
X20737333Y53299895D01*
X20927028Y53681218D01*
X21069114Y53959066D01*
X21175048Y54149813D01*
X21256290Y54269835D01*
X21324296Y54335507D01*
X21390526Y54363203D01*
X21466436Y54369300D01*
X21485668Y54369369D01*
X21625935Y54360159D01*
X21687977Y54306779D01*
X21703606Y54170605D01*
X21704000Y54104268D01*
X21673129Y53859687D01*
X21597761Y53615128D01*
X21587333Y53591975D01*
X21470666Y53344784D01*
X21436216Y53673260D01*
X21401766Y54001737D01*
X20369832Y51963053D01*
X18237333Y51963053D01*
X18229673Y54001737D01*
X17206019Y51963053D01*
X16170943Y51963053D01*
X18269681Y56174105D01*
X20370666Y56174105D01*
X20378326Y54135421D01*
G37*
G36*
X21401360Y51330142D02*
G01*
X21437333Y51227790D01*
X21398271Y51122960D01*
X21270666Y51094105D01*
X21139972Y51125437D01*
X21104000Y51227790D01*
X21143061Y51332620D01*
X21270666Y51361474D01*
X21401360Y51330142D01*
G37*
G36*
X17411329Y56171247D02*
G01*
X17645646Y56163505D01*
X17795913Y56152133D01*
X17837333Y56141106D01*
X17808853Y56074423D01*
X17728987Y55905449D01*
X17606098Y55651407D01*
X17448549Y55329517D01*
X17264703Y54956999D01*
X17154000Y54733941D01*
X16470666Y53359775D01*
X16401766Y54001737D01*
X15369832Y51963053D01*
X14304276Y51963053D01*
X15353645Y54068579D01*
X16403015Y56174105D01*
X17120174Y56174105D01*
X17411329Y56171247D01*
G37*
G36*
X24304000Y56174105D02*
G01*
X24304000Y51963053D01*
X23238947Y51963053D01*
X22719211Y52998719D01*
X22208095Y51963053D01*
X21170943Y51963053D01*
X21728941Y53082658D01*
X22773901Y53082658D01*
X22830250Y53049552D01*
X22973032Y53032970D01*
X23004000Y53032527D01*
X23237333Y53032527D01*
X23230863Y54001737D01*
X23004000Y53567263D01*
X22893039Y53349153D01*
X22811208Y53177654D01*
X22774504Y53086457D01*
X22773901Y53082658D01*
X21728941Y53082658D01*
X23269681Y56174105D01*
X24304000Y56174105D01*
G37*
G36*
X20601360Y51196458D02*
G01*
X20637333Y51094105D01*
X20684473Y50982392D01*
X20770666Y50960421D01*
X20879252Y50918627D01*
X20904000Y50860158D01*
X20848420Y50778504D01*
X20770666Y50759895D01*
X20690692Y50742299D01*
X20650806Y50667613D01*
X20637903Y50502987D01*
X20637333Y50425684D01*
X20644353Y50225224D01*
X20674149Y50125246D01*
X20739826Y50092904D01*
X20770666Y50091474D01*
X20879252Y50049679D01*
X20904000Y49991211D01*
X20848082Y49923027D01*
X20714148Y49891567D01*
X20552927Y49898789D01*
X20415147Y49946647D01*
X20384000Y49971158D01*
X20338501Y50080076D01*
X20309522Y50271087D01*
X20304000Y50405632D01*
X20294392Y50622768D01*
X20260846Y50732397D01*
X20204000Y50759895D01*
X20115615Y50813400D01*
X20104000Y50860158D01*
X20157364Y50948775D01*
X20204000Y50960421D01*
X20285439Y51016147D01*
X20304000Y51094105D01*
X20343061Y51198936D01*
X20470666Y51227790D01*
X20601360Y51196458D01*
G37*
G36*
X17804000Y51361474D02*
G01*
X17916187Y51344298D01*
X17962504Y51266649D01*
X17970666Y51124498D01*
X17977811Y50968759D01*
X18025763Y50912152D01*
X18154297Y50922220D01*
X18206666Y50931912D01*
X18448239Y50931324D01*
X18610155Y50823603D01*
X18692538Y50608629D01*
X18704000Y50448746D01*
X18672883Y50187582D01*
X18568481Y50016847D01*
X18374220Y49922670D01*
X18073523Y49891182D01*
X18037333Y49890948D01*
X17637333Y49890948D01*
X17637333Y50502874D01*
X17982636Y50502874D01*
X17988077Y50268801D01*
X18047493Y50123815D01*
X18146973Y50081728D01*
X18272612Y50156347D01*
X18300385Y50187371D01*
X18349742Y50317644D01*
X18359042Y50499445D01*
X18358548Y50504871D01*
X18327084Y50659147D01*
X18251631Y50719295D01*
X18170666Y50726474D01*
X18052937Y50704546D01*
X17998770Y50612725D01*
X17982636Y50502874D01*
X17637333Y50502874D01*
X17637333Y51361474D01*
X17804000Y51361474D01*
G37*
G36*
X23548382Y50933509D02*
G01*
X23677768Y50850156D01*
X23704000Y50754398D01*
X23685410Y50671063D01*
X23604627Y50669964D01*
X23532993Y50694707D01*
X23313244Y50754683D01*
X23194378Y50728303D01*
X23170666Y50659632D01*
X23227746Y50578499D01*
X23322499Y50559369D01*
X23497068Y50520275D01*
X23658553Y50424908D01*
X23758584Y50306141D01*
X23770666Y50254789D01*
X23709972Y50092168D01*
X23549819Y49967172D01*
X23323102Y49901244D01*
X23220666Y49896225D01*
X23023993Y49907078D01*
X22879068Y49927721D01*
X22854000Y49935216D01*
X22785365Y50021767D01*
X22770666Y50104195D01*
X22796035Y50200215D01*
X22887333Y50189435D01*
X23040709Y50140597D01*
X23195826Y50106605D01*
X23331074Y50106542D01*
X23364442Y50154396D01*
X23305722Y50225045D01*
X23164705Y50293362D01*
X23117670Y50307151D01*
X22918174Y50404266D01*
X22812757Y50551963D01*
X22819304Y50722281D01*
X22833135Y50752031D01*
X22960060Y50890439D01*
X23166744Y50953423D01*
X23303999Y50960421D01*
X23548382Y50933509D01*
G37*
G36*
X18988547Y50704266D02*
G01*
X19149430Y50867968D01*
X19381180Y50954195D01*
X19470666Y50960421D01*
X19722046Y50903375D01*
X19917147Y50751565D01*
X20025247Y50533982D01*
X20037333Y50425684D01*
X19976880Y50188469D01*
X19816005Y50004361D01*
X19585430Y49902353D01*
X19470666Y49890948D01*
X19216320Y49945494D01*
X19067636Y50055015D01*
X18933998Y50267119D01*
X18922935Y50382074D01*
X19264623Y50382074D01*
X19304299Y50220565D01*
X19396371Y50119694D01*
X19519805Y50105711D01*
X19624000Y50171684D01*
X19690865Y50316451D01*
X19695963Y50504828D01*
X19639292Y50661951D01*
X19624000Y50679684D01*
X19487330Y50755777D01*
X19368737Y50701934D01*
X19298381Y50577974D01*
X19264623Y50382074D01*
X18922935Y50382074D01*
X18912186Y50493759D01*
X18988547Y50704266D01*
G37*
X56687588Y50636249D02*
X55980482Y51343355D01*
X60081701Y49363456D02*
X59551371Y49893786D01*
X58490711Y47772466D02*
X59021041Y48302796D01*
X61637336Y51979751D02*
X59480660Y54136427D01*
X53116699Y53146478D02*
X54389491Y51873685D01*
X58490711Y47758324D02*
X62712138Y51979751D01*
X59021041Y48302796D02*
X57748249Y49575588D01*
X54707689Y54737468D02*
X55238019Y54207138D01*
X53102557Y53146478D02*
X58490711Y47758324D01*
X56157258Y50105918D02*
X56687588Y50636249D01*
X62712138Y51979751D02*
X57323984Y57367905D01*
X53647029Y53676808D02*
X53116699Y53146478D01*
X57217918Y49045258D02*
X58490711Y47772466D01*
X58490711Y47348202D02*
X59374594Y48232086D01*
X57606827Y48232086D02*
X58490711Y47348202D01*
X57323984Y56293103D02*
X59480660Y54136427D01*
X57323984Y57367905D02*
X53102557Y53146478D01*
X57748249Y49575588D02*
X57217918Y49045258D01*
X55980482Y51343355D02*
X55450152Y50813025D01*
X59551371Y49893786D02*
X61637336Y51979751D01*
X54389491Y51873685D02*
X54919821Y52404016D01*
X55238019Y54207138D02*
X57323984Y56293103D01*
X55450152Y50813025D02*
X56157258Y50105918D01*
X54919821Y52404016D02*
X53647029Y53676808D01*
X34962574Y63883678D02*
X40393154Y69314258D01*
X35945452Y61104748D02*
X35005000Y60164296D01*
X36843478Y62002774D02*
X34962574Y63883678D01*
X42274058Y67433354D02*
X40393154Y69314258D01*
X36843478Y62002774D02*
X42274058Y67433354D01*
X35005000Y60164296D02*
X34064548Y61104748D01*
X10392000Y33732200D02*
G75*
G03*
X10392000Y33732200I-1700000J0D01*
G01*
X10392000Y45732200D02*
G75*
G03*
X10392000Y45732200I-1700000J0D01*
G01*
D11*
X15084000Y22000000D02*
X8284000Y22000000D01*
X8284000Y22000000D02*
X8284000Y28800000D01*
X15084000Y28800000D02*
X15084000Y22000000D01*
X8284000Y28800000D02*
X15084000Y28800000D01*
D14*
X21214500Y32986924D02*
X21214500Y32477476D01*
X20169500Y32986924D02*
X20169500Y32477476D01*
X21214500Y24986924D02*
X21214500Y24477476D01*
X20169500Y24986924D02*
X20169500Y24477476D01*
X32202000Y32878467D02*
X32202000Y32585933D01*
X31182000Y32878467D02*
X31182000Y32585933D01*
D12*
X25033421Y26032200D02*
G75*
G03*
X25033421Y26032200I-141421J0D01*
G01*
D11*
X32864000Y49120000D02*
X32864000Y42320000D01*
X32864000Y42320000D02*
X26064000Y42320000D01*
X26064000Y42320000D02*
X26064000Y49120000D01*
X26064000Y49120000D02*
X32864000Y49120000D01*
D14*
X60086368Y30123611D02*
X59556038Y29593281D01*
X55985149Y28143712D02*
X56692255Y28850818D01*
X62716805Y27507316D02*
X58495378Y31728743D01*
X56692255Y28850818D02*
X56161925Y29381148D01*
X54394158Y27613382D02*
X53121366Y26340589D01*
X55454818Y28674042D02*
X55985149Y28143712D01*
X54924488Y27083051D02*
X54394158Y27613382D01*
X53107224Y26340589D02*
X57328651Y22119162D01*
X61642003Y27507316D02*
X59485327Y25350640D01*
X57328651Y22119162D02*
X62716805Y27507316D01*
X53580986Y27224473D02*
X52697102Y26340589D01*
X57752916Y29911479D02*
X59025708Y31184271D01*
X54712356Y24749599D02*
X55242686Y25279929D01*
X59556038Y29593281D02*
X61642003Y27507316D01*
X58495378Y31714601D02*
X57222585Y30441809D01*
X52697102Y26340589D02*
X53580986Y25456706D01*
X57328651Y23193964D02*
X59485327Y25350640D01*
X53121366Y26340589D02*
X53651696Y25810259D01*
X55242686Y25279929D02*
X57328651Y23193964D01*
X53651696Y25810259D02*
X54924488Y27083051D01*
X58495378Y31728743D02*
X53107224Y26340589D01*
X59025708Y31184271D02*
X58495378Y31714601D01*
X56161925Y29381148D02*
X55454818Y28674042D01*
X57222585Y30441809D02*
X57752916Y29911479D01*
X28438000Y40020000D02*
X18298000Y40020000D01*
X18298000Y40020000D02*
X18298000Y36180000D01*
X32088000Y38100000D02*
X28438000Y38100000D01*
X18298000Y36180000D02*
X28438000Y36180000D01*
X14648000Y38100000D02*
X18298000Y38100000D01*
X28438000Y36180000D02*
X28438000Y40020000D01*
X35057474Y15485822D02*
X36938378Y17366726D01*
X33218996Y17324300D02*
X34159448Y18264752D01*
X35057474Y15485822D02*
X40488054Y10055242D01*
X36938378Y17366726D02*
X42368958Y11936146D01*
X40488054Y10055242D02*
X42368958Y11936146D01*
X34159448Y16383848D02*
X33218996Y17324300D01*
X11080000Y56276000D02*
X11080000Y52436000D01*
X9240000Y56276000D02*
X9240000Y52436000D01*
X52676000Y39498000D02*
X47276000Y39498000D01*
X52676000Y42798000D02*
X47276000Y42798000D01*
X52676000Y39498000D02*
X52676000Y42798000D01*
X39222000Y38182200D02*
X39222000Y37912200D01*
X39222000Y31282200D02*
X39222000Y31552200D01*
X39222000Y37912200D02*
X36392000Y37912200D01*
X39222000Y31552200D02*
X38122000Y31552200D01*
X40722000Y31282200D02*
X39222000Y31282200D01*
X40722000Y38182200D02*
X39222000Y38182200D01*
X9427000Y41392200D02*
X7957000Y41392200D01*
X7957000Y41392200D02*
X7957000Y38932200D01*
X9427000Y38932200D02*
X9427000Y41392200D01*
M02*
