G04 #@! TF.GenerationSoftware,KiCad,Pcbnew,(6.0.11)*
G04 #@! TF.CreationDate,2023-01-31T15:57:48+09:00*
G04 #@! TF.ProjectId,kick-drib-20230121,6b69636b-2d64-4726-9962-2d3230323330,V2.0*
G04 #@! TF.SameCoordinates,PX73bce80PY7ffbac0*
G04 #@! TF.FileFunction,Copper,L1,Top*
G04 #@! TF.FilePolarity,Positive*
%FSLAX46Y46*%
G04 Gerber Fmt 4.6, Leading zero omitted, Abs format (unit mm)*
G04 Created by KiCad (PCBNEW (6.0.11)) date 2023-01-31 15:57:48*
%MOMM*%
%LPD*%
G01*
G04 APERTURE LIST*
G04 Aperture macros list*
%AMRoundRect*
0 Rectangle with rounded corners*
0 $1 Rounding radius*
0 $2 $3 $4 $5 $6 $7 $8 $9 X,Y pos of 4 corners*
0 Add a 4 corners polygon primitive as box body*
4,1,4,$2,$3,$4,$5,$6,$7,$8,$9,$2,$3,0*
0 Add four circle primitives for the rounded corners*
1,1,$1+$1,$2,$3*
1,1,$1+$1,$4,$5*
1,1,$1+$1,$6,$7*
1,1,$1+$1,$8,$9*
0 Add four rect primitives between the rounded corners*
20,1,$1+$1,$2,$3,$4,$5,0*
20,1,$1+$1,$4,$5,$6,$7,0*
20,1,$1+$1,$6,$7,$8,$9,0*
20,1,$1+$1,$8,$9,$2,$3,0*%
%AMHorizOval*
0 Thick line with rounded ends*
0 $1 width*
0 $2 $3 position (X,Y) of the first rounded end (center of the circle)*
0 $4 $5 position (X,Y) of the second rounded end (center of the circle)*
0 Add line between two ends*
20,1,$1,$2,$3,$4,$5,0*
0 Add two circle primitives to create the rounded ends*
1,1,$1,$2,$3*
1,1,$1,$4,$5*%
%AMRotRect*
0 Rectangle, with rotation*
0 The origin of the aperture is its center*
0 $1 length*
0 $2 width*
0 $3 Rotation angle, in degrees counterclockwise*
0 Add horizontal line*
21,1,$1,$2,0,0,$3*%
G04 Aperture macros list end*
G04 #@! TA.AperFunction,SMDPad,CuDef*
%ADD10R,1.400000X0.800000*%
G04 #@! TD*
G04 #@! TA.AperFunction,SMDPad,CuDef*
%ADD11RoundRect,0.237500X-0.237500X0.300000X-0.237500X-0.300000X0.237500X-0.300000X0.237500X0.300000X0*%
G04 #@! TD*
G04 #@! TA.AperFunction,ComponentPad*
%ADD12RoundRect,0.250000X0.954594X0.106066X0.106066X0.954594X-0.954594X-0.106066X-0.106066X-0.954594X0*%
G04 #@! TD*
G04 #@! TA.AperFunction,ComponentPad*
%ADD13HorizOval,1.700000X0.106066X0.106066X-0.106066X-0.106066X0*%
G04 #@! TD*
G04 #@! TA.AperFunction,ComponentPad*
%ADD14RotRect,1.700000X1.700000X135.000000*%
G04 #@! TD*
G04 #@! TA.AperFunction,ComponentPad*
%ADD15HorizOval,1.700000X0.000000X0.000000X0.000000X0.000000X0*%
G04 #@! TD*
G04 #@! TA.AperFunction,ComponentPad*
%ADD16C,1.800000*%
G04 #@! TD*
G04 #@! TA.AperFunction,ComponentPad*
%ADD17C,1.431000*%
G04 #@! TD*
G04 #@! TA.AperFunction,SMDPad,CuDef*
%ADD18RoundRect,0.237500X-0.237500X0.250000X-0.237500X-0.250000X0.237500X-0.250000X0.237500X0.250000X0*%
G04 #@! TD*
G04 #@! TA.AperFunction,ComponentPad*
%ADD19RoundRect,0.250000X0.106066X-0.954594X0.954594X-0.106066X-0.106066X0.954594X-0.954594X0.106066X0*%
G04 #@! TD*
G04 #@! TA.AperFunction,ComponentPad*
%ADD20HorizOval,1.700000X-0.106066X0.106066X0.106066X-0.106066X0*%
G04 #@! TD*
G04 #@! TA.AperFunction,ComponentPad*
%ADD21C,2.400000*%
G04 #@! TD*
G04 #@! TA.AperFunction,ComponentPad*
%ADD22O,2.400000X2.400000*%
G04 #@! TD*
G04 #@! TA.AperFunction,ComponentPad*
%ADD23RotRect,1.700000X1.700000X45.000000*%
G04 #@! TD*
G04 #@! TA.AperFunction,ComponentPad*
%ADD24HorizOval,1.700000X0.000000X0.000000X0.000000X0.000000X0*%
G04 #@! TD*
G04 #@! TA.AperFunction,ComponentPad*
%ADD25C,1.400000*%
G04 #@! TD*
G04 #@! TA.AperFunction,ComponentPad*
%ADD26O,1.400000X1.400000*%
G04 #@! TD*
G04 #@! TA.AperFunction,SMDPad,CuDef*
%ADD27R,2.500000X1.800000*%
G04 #@! TD*
G04 #@! TA.AperFunction,SMDPad,CuDef*
%ADD28R,2.200000X1.200000*%
G04 #@! TD*
G04 #@! TA.AperFunction,SMDPad,CuDef*
%ADD29R,6.400000X5.800000*%
G04 #@! TD*
G04 #@! TA.AperFunction,SMDPad,CuDef*
%ADD30RoundRect,0.237500X-0.237500X0.287500X-0.237500X-0.287500X0.237500X-0.287500X0.237500X0.287500X0*%
G04 #@! TD*
G04 #@! TA.AperFunction,ComponentPad*
%ADD31R,2.400000X2.400000*%
G04 #@! TD*
G04 #@! TA.AperFunction,ComponentPad*
%ADD32R,1.727200X1.727200*%
G04 #@! TD*
G04 #@! TA.AperFunction,ComponentPad*
%ADD33O,1.727200X1.727200*%
G04 #@! TD*
G04 #@! TA.AperFunction,ComponentPad*
%ADD34R,2.000000X2.000000*%
G04 #@! TD*
G04 #@! TA.AperFunction,ComponentPad*
%ADD35C,2.000000*%
G04 #@! TD*
G04 #@! TA.AperFunction,ComponentPad*
%ADD36R,1.700000X1.700000*%
G04 #@! TD*
G04 #@! TA.AperFunction,ComponentPad*
%ADD37O,1.700000X1.700000*%
G04 #@! TD*
G04 #@! TA.AperFunction,ViaPad*
%ADD38C,0.800000*%
G04 #@! TD*
G04 #@! TA.AperFunction,Conductor*
%ADD39C,0.250000*%
G04 #@! TD*
G04 #@! TA.AperFunction,Conductor*
%ADD40C,0.500000*%
G04 #@! TD*
G04 APERTURE END LIST*
D10*
X23442000Y34002200D03*
X23442000Y31462200D03*
X29942000Y31462200D03*
X29942000Y32732200D03*
X29942000Y34002200D03*
D11*
X32692000Y25594700D03*
X32692000Y23869700D03*
D12*
X58420000Y51308000D03*
D13*
X56652233Y53075767D03*
D14*
X35005000Y62045200D03*
D15*
X36801051Y63841251D03*
X38597102Y65637302D03*
X40393154Y67433354D03*
D16*
X8692000Y33732200D03*
X8692000Y45732200D03*
D17*
X14224000Y27900000D03*
X11684000Y25400000D03*
X14224000Y22900000D03*
D18*
X20692000Y33644700D03*
X20692000Y31819700D03*
X20692000Y25644700D03*
X20692000Y23819700D03*
D11*
X31692000Y33594700D03*
X31692000Y31869700D03*
D10*
X23442000Y26002200D03*
X23442000Y23462200D03*
X29942000Y23462200D03*
X29942000Y24732200D03*
X29942000Y26002200D03*
D17*
X26964000Y45720000D03*
X29464000Y48220000D03*
X31964000Y45720000D03*
D19*
X56656900Y26411300D03*
D20*
X58424667Y28179067D03*
D21*
X33528000Y38100000D03*
D22*
X13208000Y38100000D03*
D23*
X35099900Y17324300D03*
D24*
X36895951Y15528249D03*
X38692002Y13732198D03*
X40488054Y11936146D03*
D25*
X10160000Y56896000D03*
D26*
X10160000Y51816000D03*
D27*
X51276000Y41148000D03*
X47276000Y41148000D03*
D28*
X37492000Y37012200D03*
D29*
X43792000Y34732200D03*
D28*
X37492000Y32452200D03*
D30*
X8692000Y40607200D03*
X8692000Y38857200D03*
D31*
X44196000Y18288000D03*
D21*
X44196000Y25788000D03*
D32*
X53020000Y30732200D03*
D33*
X52980000Y48732200D03*
X13020000Y30732200D03*
X13020000Y48732200D03*
D34*
X66679500Y36833000D03*
D35*
X64139500Y36833000D03*
X56519500Y36833000D03*
X56519500Y41913000D03*
X64139500Y41913000D03*
X66679500Y41913000D03*
D31*
X44196000Y53594000D03*
D21*
X44196000Y61094000D03*
D36*
X37440000Y46232200D03*
D37*
X39980000Y46232200D03*
X42520000Y46232200D03*
D38*
X30620700Y30145200D03*
X37297500Y35803000D03*
X31958500Y29838500D03*
D39*
X44196000Y53594000D02*
X13462000Y53594000D01*
X13462000Y53594000D02*
X10160000Y56896000D01*
D40*
X33108800Y33415000D02*
X33721000Y34027200D01*
X60151900Y27372500D02*
X59190700Y26411300D01*
X51276000Y45414300D02*
X51276000Y42804800D01*
X52980000Y48732200D02*
X52980000Y47118300D01*
X33721000Y34027200D02*
X37350500Y34027200D01*
X33108800Y26419000D02*
X33108800Y33415000D01*
X39445000Y36121700D02*
X39445000Y37584500D01*
X51276000Y37740000D02*
X60151900Y28864100D01*
X31692000Y33594700D02*
X31392300Y33894400D01*
X37350500Y34027200D02*
X39445000Y36121700D01*
X31392300Y26002200D02*
X32692000Y26002200D01*
X32929100Y33594700D02*
X31692000Y33594700D01*
X32692000Y26002200D02*
X33108800Y26419000D01*
X29942000Y34002200D02*
X31392300Y34002200D01*
X39445000Y37584500D02*
X44665300Y42804800D01*
X29942000Y26002200D02*
X31392300Y26002200D01*
X32692000Y26002200D02*
X32692000Y25594700D01*
X60151900Y28864100D02*
X60151900Y27372500D01*
X31392300Y33894400D02*
X31392300Y34002200D01*
X52980000Y47118300D02*
X51276000Y45414300D01*
X51276000Y42804800D02*
X51276000Y41148000D01*
X33108800Y33415000D02*
X32929100Y33594700D01*
X44665300Y42804800D02*
X51276000Y42804800D01*
X51276000Y41148000D02*
X51276000Y37740000D01*
X59190700Y26411300D02*
X56656900Y26411300D01*
X44196000Y61094000D02*
X44196000Y63630600D01*
X41525900Y28458100D02*
X44196000Y25788000D01*
X30281400Y31462200D02*
X29942000Y31462200D01*
X30620700Y31462200D02*
X31392300Y31462200D01*
X39548400Y61094000D02*
X44196000Y61094000D01*
X37505100Y31088800D02*
X37492000Y31101900D01*
X31392300Y31570000D02*
X31692000Y31869700D01*
X51406100Y30732200D02*
X46461900Y25788000D01*
X24792300Y35161600D02*
X19063300Y35161600D01*
X30620700Y30145200D02*
X30620700Y31462200D01*
X29942000Y31462200D02*
X28491700Y31462200D01*
X40393200Y67433400D02*
X41524800Y66301800D01*
X36801100Y63841300D02*
X39548400Y61094000D01*
X13020000Y30732200D02*
X14633900Y30732200D01*
X32692000Y23869700D02*
X32284500Y23462200D01*
X46461900Y25788000D02*
X44196000Y25788000D01*
X30281400Y31462200D02*
X30620700Y31462200D01*
X37505100Y28458100D02*
X41525900Y28458100D01*
X32692000Y23869700D02*
X32916700Y23869700D01*
X8692000Y40607200D02*
X8692000Y45732200D01*
X37492000Y32452200D02*
X37492000Y31101900D01*
X32916700Y23869700D02*
X37505100Y28458100D01*
X31392300Y31462200D02*
X31392300Y31570000D01*
X19063300Y35161600D02*
X14633900Y30732200D01*
X37505100Y28458100D02*
X37505100Y31088800D01*
X53020000Y30732200D02*
X51406100Y30732200D01*
X28491700Y31462200D02*
X24792300Y35161600D01*
X32284500Y23462200D02*
X29942000Y23462200D01*
X44196000Y63630600D02*
X41524800Y66301800D01*
X47276000Y39868200D02*
X47276000Y39497700D01*
X47276000Y40265300D02*
X47276000Y39868200D01*
X43792000Y38382500D02*
X46160800Y38382500D01*
X57187100Y29957100D02*
X57187100Y29416800D01*
X58424700Y28179100D02*
X57187100Y29416800D01*
X46160800Y38382500D02*
X47276000Y39497700D01*
X47276000Y39868200D02*
X57187100Y29957100D01*
X47276000Y41148000D02*
X47276000Y40265300D01*
X43792000Y34732200D02*
X43792000Y38382500D01*
D39*
X25981500Y23737300D02*
X25531200Y24187600D01*
X34268900Y18155400D02*
X34268800Y18155300D01*
X28735800Y21620000D02*
X28384500Y21971300D01*
X28384500Y21971300D02*
X28146300Y21971300D01*
X26380300Y23737300D02*
X25981500Y23737300D01*
X21059900Y24187600D02*
X20692000Y23819700D01*
X25531200Y24187600D02*
X21059900Y24187600D01*
X34268800Y18155300D02*
X33236100Y18155300D01*
X33236100Y18155300D02*
X29771400Y21620000D01*
X35099900Y17324300D02*
X34268900Y18155400D01*
X28146300Y21971300D02*
X26380300Y23737300D01*
X29771400Y21620000D02*
X28735800Y21620000D01*
X19851400Y23366300D02*
X19851400Y30979100D01*
X28362600Y20719400D02*
X28170600Y20911400D01*
X22306300Y20911400D02*
X19851400Y23366300D01*
X28170600Y20911400D02*
X22306300Y20911400D01*
X19851400Y30979100D02*
X20692000Y31819700D01*
X38692000Y13732200D02*
X37861000Y14563300D01*
X37861000Y14563300D02*
X37497300Y14199600D01*
X37497300Y14199600D02*
X35693000Y14199600D01*
X29173200Y20719400D02*
X28362600Y20719400D01*
X35693000Y14199600D02*
X29173200Y20719400D01*
X40938400Y13147900D02*
X40938400Y13174500D01*
X24467300Y26924100D02*
X24467300Y31462200D01*
X31790100Y22322800D02*
X29068600Y22322800D01*
X29068600Y22322800D02*
X24467300Y26924100D01*
X40488100Y11936100D02*
X41319200Y12767200D01*
X41319200Y12767200D02*
X40938400Y13147900D01*
X40938400Y13174500D02*
X31790100Y22322800D01*
X23442000Y31462200D02*
X24467300Y31462200D01*
X26076100Y21853400D02*
X24467300Y23462200D01*
X28197900Y21521000D02*
X27561000Y21521000D01*
X36896000Y15528200D02*
X36065000Y14697200D01*
X27228600Y21853400D02*
X26076100Y21853400D01*
X35226300Y15528200D02*
X29584800Y21169700D01*
X28549200Y21169700D02*
X28197900Y21521000D01*
X35233900Y15528200D02*
X35226300Y15528200D01*
X27561000Y21521000D02*
X27228600Y21853400D01*
X23442000Y23462200D02*
X24467300Y23462200D01*
X36065000Y14697200D02*
X35233900Y15528200D01*
X29584800Y21169700D02*
X28549200Y21169700D01*
X37440000Y46232200D02*
X32476200Y46232200D01*
X32476200Y46232200D02*
X31964000Y45720000D01*
X65337300Y35490800D02*
X66679500Y36833000D01*
X33528000Y38100000D02*
X38722300Y38100000D01*
X50843700Y50221400D02*
X53653700Y50221400D01*
X63576900Y35490800D02*
X65337300Y35490800D01*
X58842000Y40225700D02*
X63576900Y35490800D01*
X38722300Y38100000D02*
X50843700Y50221400D01*
X53653700Y50221400D02*
X58842000Y45033100D01*
X58842000Y45033100D02*
X58842000Y40225700D01*
X64139500Y36833000D02*
X59517300Y41455200D01*
X39550400Y40079000D02*
X33344400Y40079000D01*
X33344400Y40079000D02*
X28616600Y35351200D01*
X59517300Y41455200D02*
X59517300Y45015200D01*
X28616600Y33032300D02*
X28916700Y32732200D01*
X28616600Y35351200D02*
X28616600Y33032300D01*
X53860700Y50671800D02*
X50143200Y50671800D01*
X50143200Y50671800D02*
X39550400Y40079000D01*
X29942000Y32732200D02*
X28916700Y32732200D01*
X59517300Y45015200D02*
X53860700Y50671800D01*
X29942000Y24732200D02*
X28916700Y24732200D01*
X31771700Y29838500D02*
X28616600Y26683400D01*
X37492000Y36086900D02*
X37297500Y35892400D01*
X37297500Y35892400D02*
X37297500Y35803000D01*
X28616600Y26683400D02*
X28616600Y25032300D01*
X31958500Y29838500D02*
X31771700Y29838500D01*
X37492000Y37012200D02*
X37492000Y36086900D01*
X28616600Y25032300D02*
X28916700Y24732200D01*
X11682700Y38100000D02*
X11682700Y36722900D01*
X11682700Y36722900D02*
X8692000Y33732200D01*
X13208000Y38100000D02*
X11682700Y38100000D01*
X23442000Y26002200D02*
X21049500Y26002200D01*
X21049500Y26002200D02*
X20692000Y25644700D01*
X20692000Y33644700D02*
X22059200Y33644700D01*
X22059200Y33644700D02*
X22416700Y34002200D01*
X23442000Y34002200D02*
X22416700Y34002200D01*
X10160000Y51816000D02*
X10160000Y50790700D01*
X8692000Y38857200D02*
X10232700Y40397900D01*
X10232700Y40397900D02*
X10232700Y50718000D01*
X10232700Y50718000D02*
X10160000Y50790700D01*
M02*
