0
SECTION
2
HEADER
9
$INSUNITS
70
4
9
$ACADVER
1
AC1014
9
$HANDSEED
5
FFFF
0
ENDSEC
0
SECTION
2
TABLES
0
TABLE
2
VPORT
5
8
100
AcDbSymbolTable
0
ENDTAB
0
TABLE
2
LTYPE
5
5
100
AcDbSymbolTable
0
LTYPE
5
14
100
AcDbSymbolTableRecord
100
AcDbLinetypeTableRecord
2
BYBLOCK
70
0
0
LTYPE
5
15
100
AcDbSymbolTableRecord
100
AcDbLinetypeTableRecord
2
BYLAYER
70
0
0
ENDTAB
0
TABLE
2
LAYER
5
2
100
AcDbSymbolTable
70
2
0
LAYER
5
50
100
AcDbSymbolTableRecord
100
AcDbLayerTableRecord
2
0
70
0
6
CONTINUOUS
0
ENDTAB
0
TABLE
2
STYLE
5
3
100
AcDbSymbolTable
70
1
0
STYLE
5
11
100
AcDbSymbolTableRecord
100
AcDbTextStyleTableRecord
2
STANDARD
70
0
0
ENDTAB
0
TABLE
2
VIEW
5
6
100
AcDbSymbolTable
70
0
0
ENDTAB
0
TABLE
2
UCS
5
7
100
AcDbSymbolTable
70
0
0
ENDTAB
0
TABLE
2
APPID
5
9
100
AcDbSymbolTable
70
2
0
APPID
5
12
100
AcDbSymbolTableRecord
100
AcDbRegAppTableRecord
2
ACAD
70
0
0
ENDTAB
0
TABLE
2
DIMSTYLE
5
A
100
AcDbSymbolTable
70
1
0
ENDTAB
0
TABLE
2
BLOCK_RECORD
5
1
100
AcDbSymbolTable
70
1
0
BLOCK_RECORD
5
1F
100
AcDbSymbolTableRecord
100
AcDbBlockTableRecord
2
*MODEL_SPACE
0
BLOCK_RECORD
5
1B
100
AcDbSymbolTableRecord
100
AcDbBlockTableRecord
2
*PAPER_SPACE
0
ENDTAB
0
ENDSEC
0
SECTION
2
BLOCKS
0
BLOCK
5
20
100
AcDbEntity
100
AcDbBlockBegin
2
*MODEL_SPACE
0
ENDBLK
5
21
100
AcDbEntity
100
AcDbBlockEnd
0
BLOCK
5
1C
100
AcDbEntity
100
AcDbBlockBegin
2
*PAPER_SPACE
0
ENDBLK
5
1D
100
AcDbEntity
100
AcDbBlockEnd
0
ENDSEC
0
SECTION
2
ENTITIES
0
LWPOLYLINE
5
100
100
AcDbEntity
8
0
100
AcDbPolyline
90
71
70
1
43
0.0
10
19.738329701443732
20
-69.9429111656885
10
24.414213562373082
20
-74.618795026617789
10
27.25585057000659
20
-77.460431635744229
42
-0.55922297392886977
10
26.464326872866675
20
-80.775239200860156
10
23.767065657569923
20
-81.596662636244986
42
-0.028216299310891972
10
23.554216867470753
20
-81.671285454314699
42
-0.0015395860448284703
10
23.050813911480343
20
-81.814790704482675
42
-0.068764338140185205
10
22.508441819445753
20
-81.889736805553611
10
-22.508441819445878
20
-81.889736805553554
42
-0.068764338140501216
10
-23.050813911482905
20
-81.814790704481965
42
-0.0015395860448735453
10
-23.554216867469865
20
-81.671285454314955
42
-0.028216001453355382
10
-23.767063458685634
20
-81.596663549420924
10
-26.464327937957407
20
-80.775238323607326
42
-0.55922297392887765
10
-27.255851127133361
20
-77.46043220086014
10
-19.738329701443732
20
-69.942911165688514
42
0.19891236737965667
10
-19.298989873223537
20
-68.882250993908698
10
-19.298989873223441
20
-62.639610306789379
42
0.1989123673796663
10
-19.738329701443618
20
-61.578950135009542
10
-61.578950135009592
20
-19.738329701443639
42
0.19891236737966286
10
-62.639610306789407
20
-19.298989873223473
10
-68.882250993908727
20
-19.298989873223533
42
0.19891236737965429
10
-69.942911165688528
20
-19.738329701443725
10
-74.117080586558174
20
-23.912499122313413
42
-0.32282279782807793
10
-76.425721286619179
20
-24.287139968596168
10
-81.452505760388789
20
-21.773747918973729
42
-0.21941721524737071
10
-82.499237143729843
20
-20.466457209361558
42
-0.1221883607254847
10
-82.499237143729815
20
20.466457209361678
42
-0.21941721524734176
10
-81.452505760388775
20
21.77374791897369
10
-76.425721286619165
20
24.287139968596179
42
-0.32282279782807222
10
-74.11708058655816
20
23.912499122313431
10
-69.942911165688514
20
19.738329701443746
42
0.19891236737965565
10
-68.882250993908713
20
19.298989873223555
10
-62.639610306789386
20
19.298989873223459
42
0.19891236737966395
10
-61.578950135009549
20
19.738329701443636
10
-56.903066274080139
20
24.414213562373085
42
-0.19891236737965926
10
-55.48885271170704
20
25
10
-51.999999999999993
20
25
42
-0.41421356237309309
10
-49.999999999999993
20
22.999999999999993
10
-50.000000000000007
20
-19.171573260566014
42
0.19891234801622865
10
-49.414213667740228
20
-20.585786717571978
10
-45.000000670552254
20
-25.00000037252903
10
-20.58578643256503
20
-49.414213591875878
42
0.19891236195789883
10
-19.171572899694727
20
-50
10
19.171574209375212
20
-49.999999999999993
42
0.19891236892873182
10
20.585787780177675
20
-49.414213553943718
10
45.000000670552254
20
-25.00000037252903
10
49.414214307431152
20
-20.585786735650139
42
0.19891236737965842
10
50.00000074505806
20
-19.171573173277039
10
50.00000074505806
20
23.00000037252903
42
-0.4142135623730957
10
52.000000745058053
20
25.000000372529026
10
55.488852429943677
20
25.0000003148361
42
-0.19891236308199603
10
56.903065959244046
20
24.414213877209189
10
61.578950135009585
20
19.73832970144365
42
0.19891236737965962
10
62.639610306789386
20
19.298989873223476
10
68.882250993908727
20
19.29898987322354
42
0.19891236737965529
10
69.942911165688528
20
19.738329701443728
10
74.117080586558188
20
23.912499122313427
42
-0.32282279782807383
10
76.425721286619194
20
24.287139968596172
10
81.452505760388817
20
21.773747918973726
42
-0.21941721524735328
10
82.499237143729815
20
20.466457209361618
42
-0.12218836072548536
10
82.499237143729815
20
-20.466457209361653
42
-0.21941721524736177
10
81.452505760388775
20
-21.77374791897368
10
76.425721286619165
20
-24.287139968596176
42
-0.32282279782807194
10
74.11708058655816
20
-23.912499122313427
10
69.942911165688528
20
-19.738329701443739
42
0.1989123673796647
10
68.882250993908713
20
-19.29898987322354
10
62.639610306789393
20
-19.298989873223501
42
0.19891236737966578
10
61.578950135009585
20
-19.738329701443664
10
19.73832970144365
20
-61.578950135009563
42
0.19891236737966503
10
19.298989873223483
20
-62.639610306789379
10
19.298989873223544
20
-68.882250993908698
42
0.19891236737965662
0
CIRCLE
5
101
100
AcDbEntity
8
0
100
AcDbCircle
10
25.841636872866687
20
-78.874645200860144
30
0
40
1.2000000000000011
210
0
220
0
230
1
0
CIRCLE
5
102
100
AcDbEntity
8
0
100
AcDbCircle
10
-25.841638127133351
20
-78.874645200860144
30
0
40
1.2000000000000011
210
0
220
-0
230
1
0
CIRCLE
5
103
100
AcDbEntity
8
0
100
AcDbCircle
10
80.558078622700862
20
19.984893510317832
30
0
40
1.2000000000000011
210
0
220
0
230
1
0
CIRCLE
5
104
100
AcDbEntity
8
0
100
AcDbCircle
10
-80.558078622700805
20
19.984893510317793
30
0
40
1.1999999999999922
210
0
220
0
230
1
0
CIRCLE
5
105
100
AcDbEntity
8
0
100
AcDbCircle
10
-80.558078622700876
20
-19.984893510317839
30
0
40
1.1999999999999922
210
0
220
0
230
1
0
CIRCLE
5
106
100
AcDbEntity
8
0
100
AcDbCircle
10
80.558078622700933
20
-19.984893510317889
30
0
40
1.2000000000000011
210
0
220
0
230
1
0
ENDSEC
0
SECTION
2
OBJECTS
0
DICTIONARY
5
C
100
AcDbDictionary
3
ACAD_GROUP
350
D
3
ACAD_MLINESTYLE
350
17
0
DICTIONARY
5
D
100
AcDbDictionary
0
DICTIONARY
5
1A
330
C
100
AcDbDictionary
0
DICTIONARY
5
17
100
AcDbDictionary
0
ENDSEC
0
EOF
