G04 #@! TF.GenerationSoftware,KiCad,Pcbnew,(6.0.1)*
G04 #@! TF.CreationDate,2022-02-25T16:24:57+09:00*
G04 #@! TF.ProjectId,kick-drib-2,6b69636b-2d64-4726-9962-2d322e6b6963,V1.1*
G04 #@! TF.SameCoordinates,Original*
G04 #@! TF.FileFunction,Soldermask,Top*
G04 #@! TF.FilePolarity,Negative*
%FSLAX46Y46*%
G04 Gerber Fmt 4.6, Leading zero omitted, Abs format (unit mm)*
G04 Created by KiCad (PCBNEW (6.0.1)) date 2022-02-25 16:24:57*
%MOMM*%
%LPD*%
G01*
G04 APERTURE LIST*
G04 Aperture macros list*
%AMRoundRect*
0 Rectangle with rounded corners*
0 $1 Rounding radius*
0 $2 $3 $4 $5 $6 $7 $8 $9 X,Y pos of 4 corners*
0 Add a 4 corners polygon primitive as box body*
4,1,4,$2,$3,$4,$5,$6,$7,$8,$9,$2,$3,0*
0 Add four circle primitives for the rounded corners*
1,1,$1+$1,$2,$3*
1,1,$1+$1,$4,$5*
1,1,$1+$1,$6,$7*
1,1,$1+$1,$8,$9*
0 Add four rect primitives between the rounded corners*
20,1,$1+$1,$2,$3,$4,$5,0*
20,1,$1+$1,$4,$5,$6,$7,0*
20,1,$1+$1,$6,$7,$8,$9,0*
20,1,$1+$1,$8,$9,$2,$3,0*%
%AMHorizOval*
0 Thick line with rounded ends*
0 $1 width*
0 $2 $3 position (X,Y) of the first rounded end (center of the circle)*
0 $4 $5 position (X,Y) of the second rounded end (center of the circle)*
0 Add line between two ends*
20,1,$1,$2,$3,$4,$5,0*
0 Add two circle primitives to create the rounded ends*
1,1,$1,$2,$3*
1,1,$1,$4,$5*%
%AMRotRect*
0 Rectangle, with rotation*
0 The origin of the aperture is its center*
0 $1 length*
0 $2 width*
0 $3 Rotation angle, in degrees counterclockwise*
0 Add horizontal line*
21,1,$1,$2,0,0,$3*%
G04 Aperture macros list end*
%ADD10R,1.400000X0.800000*%
%ADD11RoundRect,0.237500X-0.237500X0.300000X-0.237500X-0.300000X0.237500X-0.300000X0.237500X0.300000X0*%
%ADD12RoundRect,0.250000X0.954594X0.106066X0.106066X0.954594X-0.954594X-0.106066X-0.106066X-0.954594X0*%
%ADD13HorizOval,1.700000X0.106066X0.106066X-0.106066X-0.106066X0*%
%ADD14RotRect,1.700000X1.700000X135.000000*%
%ADD15HorizOval,1.700000X0.000000X0.000000X0.000000X0.000000X0*%
%ADD16C,1.800000*%
%ADD17C,1.431000*%
%ADD18RoundRect,0.237500X-0.237500X0.250000X-0.237500X-0.250000X0.237500X-0.250000X0.237500X0.250000X0*%
%ADD19RoundRect,0.250000X0.106066X-0.954594X0.954594X-0.106066X-0.106066X0.954594X-0.954594X0.106066X0*%
%ADD20HorizOval,1.700000X-0.106066X0.106066X0.106066X-0.106066X0*%
%ADD21C,2.400000*%
%ADD22O,2.400000X2.400000*%
%ADD23RotRect,1.700000X1.700000X45.000000*%
%ADD24HorizOval,1.700000X0.000000X0.000000X0.000000X0.000000X0*%
%ADD25C,1.400000*%
%ADD26O,1.400000X1.400000*%
%ADD27R,2.500000X1.800000*%
%ADD28R,2.200000X1.200000*%
%ADD29R,6.400000X5.800000*%
%ADD30RoundRect,0.237500X-0.237500X0.287500X-0.237500X-0.287500X0.237500X-0.287500X0.237500X0.287500X0*%
%ADD31R,2.400000X2.400000*%
%ADD32R,1.727200X1.727200*%
%ADD33O,1.727200X1.727200*%
%ADD34R,2.000000X2.000000*%
%ADD35C,2.000000*%
%ADD36R,1.700000X1.700000*%
%ADD37O,1.700000X1.700000*%
%ADD38C,0.800000*%
G04 APERTURE END LIST*
D10*
X62750000Y-120730000D03*
X62750000Y-123270000D03*
X69250000Y-123270000D03*
X69250000Y-122000000D03*
X69250000Y-120730000D03*
D11*
X72000000Y-129137500D03*
X72000000Y-130862500D03*
D12*
X104000000Y-111000000D03*
D13*
X102232233Y-109232233D03*
D14*
X74313000Y-92687000D03*
D15*
X76109051Y-90890949D03*
X77905102Y-89094898D03*
X79701154Y-87298846D03*
D16*
X48000000Y-121000000D03*
X48000000Y-109000000D03*
D17*
X52540000Y-125500000D03*
X50000000Y-128000000D03*
X52540000Y-130500000D03*
D18*
X60000000Y-121087500D03*
X60000000Y-122912500D03*
X60000000Y-129087500D03*
X60000000Y-130912500D03*
D11*
X71000000Y-121137500D03*
X71000000Y-122862500D03*
D10*
X62750000Y-128730000D03*
X62750000Y-131270000D03*
X69250000Y-131270000D03*
X69250000Y-130000000D03*
X69250000Y-128730000D03*
D19*
X102232200Y-121000000D03*
D20*
X103999967Y-119232233D03*
D21*
X75160000Y-109000000D03*
D22*
X54840000Y-109000000D03*
D23*
X74407900Y-137407900D03*
D24*
X76203951Y-139203951D03*
X78000002Y-141000002D03*
X79796054Y-142796054D03*
D25*
X51000000Y-112460000D03*
D26*
X51000000Y-117540000D03*
D27*
X94000000Y-118000000D03*
X90000000Y-118000000D03*
D28*
X76800000Y-117720000D03*
D29*
X83100000Y-120000000D03*
D28*
X76800000Y-122280000D03*
D30*
X48000000Y-114125000D03*
X48000000Y-115875000D03*
D31*
X79426000Y-133000000D03*
D21*
X86926000Y-133000000D03*
D32*
X95000000Y-124000000D03*
D33*
X94960000Y-106000000D03*
X55000000Y-124000000D03*
X55000000Y-106000000D03*
D34*
X68957500Y-102407500D03*
D35*
X66417500Y-102407500D03*
X58797500Y-102407500D03*
X58797500Y-97327500D03*
X66417500Y-97327500D03*
X68957500Y-97327500D03*
D31*
X86574000Y-97000000D03*
D21*
X79074000Y-97000000D03*
D36*
X79420000Y-108500000D03*
D37*
X81960000Y-108500000D03*
X84500000Y-108500000D03*
D38*
X86411900Y-111126800D03*
X68455000Y-133846900D03*
X65585400Y-132187500D03*
X74847200Y-118069700D03*
X70578100Y-130000000D03*
X85011300Y-101329600D03*
X85000000Y-99930089D03*
M02*
