G04 #@! TF.GenerationSoftware,KiCad,Pcbnew,(6.0.1)*
G04 #@! TF.CreationDate,2022-02-25T16:24:57+09:00*
G04 #@! TF.ProjectId,kick-drib-2,6b69636b-2d64-4726-9962-2d322e6b6963,V1.1*
G04 #@! TF.SameCoordinates,Original*
G04 #@! TF.FileFunction,Soldermask,Bot*
G04 #@! TF.FilePolarity,Negative*
%FSLAX46Y46*%
G04 Gerber Fmt 4.6, Leading zero omitted, Abs format (unit mm)*
G04 Created by KiCad (PCBNEW (6.0.1)) date 2022-02-25 16:24:57*
%MOMM*%
%LPD*%
G01*
G04 APERTURE LIST*
G04 Aperture macros list*
%AMRoundRect*
0 Rectangle with rounded corners*
0 $1 Rounding radius*
0 $2 $3 $4 $5 $6 $7 $8 $9 X,Y pos of 4 corners*
0 Add a 4 corners polygon primitive as box body*
4,1,4,$2,$3,$4,$5,$6,$7,$8,$9,$2,$3,0*
0 Add four circle primitives for the rounded corners*
1,1,$1+$1,$2,$3*
1,1,$1+$1,$4,$5*
1,1,$1+$1,$6,$7*
1,1,$1+$1,$8,$9*
0 Add four rect primitives between the rounded corners*
20,1,$1+$1,$2,$3,$4,$5,0*
20,1,$1+$1,$4,$5,$6,$7,0*
20,1,$1+$1,$6,$7,$8,$9,0*
20,1,$1+$1,$8,$9,$2,$3,0*%
%AMHorizOval*
0 Thick line with rounded ends*
0 $1 width*
0 $2 $3 position (X,Y) of the first rounded end (center of the circle)*
0 $4 $5 position (X,Y) of the second rounded end (center of the circle)*
0 Add line between two ends*
20,1,$1,$2,$3,$4,$5,0*
0 Add two circle primitives to create the rounded ends*
1,1,$1,$2,$3*
1,1,$1,$4,$5*%
%AMRotRect*
0 Rectangle, with rotation*
0 The origin of the aperture is its center*
0 $1 length*
0 $2 width*
0 $3 Rotation angle, in degrees counterclockwise*
0 Add horizontal line*
21,1,$1,$2,0,0,$3*%
G04 Aperture macros list end*
%ADD10RoundRect,0.250000X0.954594X0.106066X0.106066X0.954594X-0.954594X-0.106066X-0.106066X-0.954594X0*%
%ADD11HorizOval,1.700000X0.106066X0.106066X-0.106066X-0.106066X0*%
%ADD12RotRect,1.700000X1.700000X135.000000*%
%ADD13HorizOval,1.700000X0.000000X0.000000X0.000000X0.000000X0*%
%ADD14C,1.800000*%
%ADD15C,1.431000*%
%ADD16RoundRect,0.250000X0.106066X-0.954594X0.954594X-0.106066X-0.106066X0.954594X-0.954594X0.106066X0*%
%ADD17HorizOval,1.700000X-0.106066X0.106066X0.106066X-0.106066X0*%
%ADD18C,2.400000*%
%ADD19O,2.400000X2.400000*%
%ADD20RotRect,1.700000X1.700000X45.000000*%
%ADD21HorizOval,1.700000X0.000000X0.000000X0.000000X0.000000X0*%
%ADD22C,1.400000*%
%ADD23O,1.400000X1.400000*%
%ADD24R,2.400000X2.400000*%
%ADD25R,1.727200X1.727200*%
%ADD26O,1.727200X1.727200*%
%ADD27R,2.000000X2.000000*%
%ADD28C,2.000000*%
%ADD29R,1.700000X1.700000*%
%ADD30O,1.700000X1.700000*%
%ADD31C,0.800000*%
G04 APERTURE END LIST*
D10*
X104000000Y-111000000D03*
D11*
X102232233Y-109232233D03*
D12*
X74313000Y-92687000D03*
D13*
X76109051Y-90890949D03*
X77905102Y-89094898D03*
X79701154Y-87298846D03*
D14*
X48000000Y-121000000D03*
X48000000Y-109000000D03*
D15*
X52540000Y-125500000D03*
X50000000Y-128000000D03*
X52540000Y-130500000D03*
D16*
X102232200Y-121000000D03*
D17*
X103999967Y-119232233D03*
D18*
X75160000Y-109000000D03*
D19*
X54840000Y-109000000D03*
D20*
X74407900Y-137407900D03*
D21*
X76203951Y-139203951D03*
X78000002Y-141000002D03*
X79796054Y-142796054D03*
D22*
X51000000Y-112460000D03*
D23*
X51000000Y-117540000D03*
D24*
X79426000Y-133000000D03*
D18*
X86926000Y-133000000D03*
D25*
X95000000Y-124000000D03*
D26*
X94960000Y-106000000D03*
X55000000Y-124000000D03*
X55000000Y-106000000D03*
D27*
X68957500Y-102407500D03*
D28*
X66417500Y-102407500D03*
X58797500Y-102407500D03*
X58797500Y-97327500D03*
X66417500Y-97327500D03*
X68957500Y-97327500D03*
D24*
X86574000Y-97000000D03*
D18*
X79074000Y-97000000D03*
D29*
X79420000Y-108500000D03*
D30*
X81960000Y-108500000D03*
X84500000Y-108500000D03*
D31*
X86411900Y-111126800D03*
X68455000Y-133846900D03*
X65585400Y-132187500D03*
X74847200Y-118069700D03*
X70578100Y-130000000D03*
X85011300Y-101329600D03*
X85000000Y-99930089D03*
M02*
