G04 #@! TF.GenerationSoftware,KiCad,Pcbnew,(6.0.1)*
G04 #@! TF.CreationDate,2022-02-25T16:24:57+09:00*
G04 #@! TF.ProjectId,kick-drib-2,6b69636b-2d64-4726-9962-2d322e6b6963,V1.1*
G04 #@! TF.SameCoordinates,Original*
G04 #@! TF.FileFunction,Legend,Bot*
G04 #@! TF.FilePolarity,Positive*
%FSLAX46Y46*%
G04 Gerber Fmt 4.6, Leading zero omitted, Abs format (unit mm)*
G04 Created by KiCad (PCBNEW (6.0.1)) date 2022-02-25 16:24:57*
%MOMM*%
%LPD*%
G01*
G04 APERTURE LIST*
%ADD10C,0.150000*%
%ADD11C,0.120000*%
G04 APERTURE END LIST*
D10*
X83342666Y-140857142D02*
X83390285Y-140904761D01*
X83533142Y-140952380D01*
X83628380Y-140952380D01*
X83771238Y-140904761D01*
X83866476Y-140809523D01*
X83914095Y-140714285D01*
X83961714Y-140523809D01*
X83961714Y-140380952D01*
X83914095Y-140190476D01*
X83866476Y-140095238D01*
X83771238Y-140000000D01*
X83628380Y-139952380D01*
X83533142Y-139952380D01*
X83390285Y-140000000D01*
X83342666Y-140047619D01*
X82485523Y-140285714D02*
X82485523Y-140952380D01*
X82723619Y-139904761D02*
X82961714Y-140619047D01*
X82342666Y-140619047D01*
X75761904Y-114952380D02*
X75761904Y-115761904D01*
X75714285Y-115857142D01*
X75666666Y-115904761D01*
X75571428Y-115952380D01*
X75380952Y-115952380D01*
X75285714Y-115904761D01*
X75238095Y-115857142D01*
X75190476Y-115761904D01*
X75190476Y-114952380D01*
X74809523Y-114952380D02*
X74190476Y-114952380D01*
X74523809Y-115333333D01*
X74380952Y-115333333D01*
X74285714Y-115380952D01*
X74238095Y-115428571D01*
X74190476Y-115523809D01*
X74190476Y-115761904D01*
X74238095Y-115857142D01*
X74285714Y-115904761D01*
X74380952Y-115952380D01*
X74666666Y-115952380D01*
X74761904Y-115904761D01*
X74809523Y-115857142D01*
X57619047Y-121952380D02*
X57428571Y-121952380D01*
X57333333Y-122000000D01*
X57238095Y-122095238D01*
X57190476Y-122285714D01*
X57190476Y-122619047D01*
X57238095Y-122809523D01*
X57333333Y-122904761D01*
X57428571Y-122952380D01*
X57619047Y-122952380D01*
X57714285Y-122904761D01*
X57809523Y-122809523D01*
X57857142Y-122619047D01*
X57857142Y-122285714D01*
X57809523Y-122095238D01*
X57714285Y-122000000D01*
X57619047Y-121952380D01*
X56761904Y-121952380D02*
X56761904Y-122761904D01*
X56714285Y-122857142D01*
X56666666Y-122904761D01*
X56571428Y-122952380D01*
X56380952Y-122952380D01*
X56285714Y-122904761D01*
X56238095Y-122857142D01*
X56190476Y-122761904D01*
X56190476Y-121952380D01*
X55857142Y-121952380D02*
X55285714Y-121952380D01*
X55571428Y-122952380D02*
X55571428Y-121952380D01*
X54952380Y-122571428D02*
X54190476Y-122571428D01*
X95642857Y-122952380D02*
X95642857Y-121952380D01*
X95166666Y-122952380D02*
X95166666Y-121952380D01*
X94595238Y-122952380D01*
X94595238Y-121952380D01*
X94119047Y-122571428D02*
X93357142Y-122571428D01*
X95642857Y-108452380D02*
X95642857Y-107452380D01*
X95166666Y-108452380D02*
X95166666Y-107452380D01*
X94595238Y-108452380D01*
X94595238Y-107452380D01*
X94119047Y-108071428D02*
X93357142Y-108071428D01*
X93738095Y-108452380D02*
X93738095Y-107690476D01*
X58119047Y-107452380D02*
X57928571Y-107452380D01*
X57833333Y-107500000D01*
X57738095Y-107595238D01*
X57690476Y-107785714D01*
X57690476Y-108119047D01*
X57738095Y-108309523D01*
X57833333Y-108404761D01*
X57928571Y-108452380D01*
X58119047Y-108452380D01*
X58214285Y-108404761D01*
X58309523Y-108309523D01*
X58357142Y-108119047D01*
X58357142Y-107785714D01*
X58309523Y-107595238D01*
X58214285Y-107500000D01*
X58119047Y-107452380D01*
X57261904Y-107452380D02*
X57261904Y-108261904D01*
X57214285Y-108357142D01*
X57166666Y-108404761D01*
X57071428Y-108452380D01*
X56880952Y-108452380D01*
X56785714Y-108404761D01*
X56738095Y-108357142D01*
X56690476Y-108261904D01*
X56690476Y-107452380D01*
X56357142Y-107452380D02*
X55785714Y-107452380D01*
X56071428Y-108452380D02*
X56071428Y-107452380D01*
X55452380Y-108071428D02*
X54690476Y-108071428D01*
X55071428Y-108452380D02*
X55071428Y-107690476D01*
X71609880Y-99169404D02*
X70609880Y-99169404D01*
X71609880Y-99740833D02*
X71038452Y-99312261D01*
X70609880Y-99740833D02*
X71181309Y-99169404D01*
X71609880Y-100693214D02*
X71609880Y-100121785D01*
X71609880Y-100407500D02*
X70609880Y-100407500D01*
X70752738Y-100312261D01*
X70847976Y-100217023D01*
X70895595Y-100121785D01*
X82990666Y-89857142D02*
X83038285Y-89904761D01*
X83181142Y-89952380D01*
X83276380Y-89952380D01*
X83419238Y-89904761D01*
X83514476Y-89809523D01*
X83562095Y-89714285D01*
X83609714Y-89523809D01*
X83609714Y-89380952D01*
X83562095Y-89190476D01*
X83514476Y-89095238D01*
X83419238Y-89000000D01*
X83276380Y-88952380D01*
X83181142Y-88952380D01*
X83038285Y-89000000D01*
X82990666Y-89047619D01*
X82657333Y-88952380D02*
X82038285Y-88952380D01*
X82371619Y-89333333D01*
X82228761Y-89333333D01*
X82133523Y-89380952D01*
X82085904Y-89428571D01*
X82038285Y-89523809D01*
X82038285Y-89761904D01*
X82085904Y-89857142D01*
X82133523Y-89904761D01*
X82228761Y-89952380D01*
X82514476Y-89952380D01*
X82609714Y-89904761D01*
X82657333Y-89857142D01*
X76542380Y-108166666D02*
X77256666Y-108166666D01*
X77399523Y-108119047D01*
X77494761Y-108023809D01*
X77542380Y-107880952D01*
X77542380Y-107785714D01*
X76637619Y-108595238D02*
X76590000Y-108642857D01*
X76542380Y-108738095D01*
X76542380Y-108976190D01*
X76590000Y-109071428D01*
X76637619Y-109119047D01*
X76732857Y-109166666D01*
X76828095Y-109166666D01*
X76970952Y-109119047D01*
X77542380Y-108547619D01*
X77542380Y-109166666D01*
D11*
X85297000Y-138967000D02*
X85297000Y-127033000D01*
X87777000Y-131560000D02*
X87777000Y-128633000D01*
X84217000Y-139245000D02*
X84217000Y-126755000D01*
X87857000Y-131560000D02*
X87857000Y-128718000D01*
X87937000Y-131560000D02*
X87937000Y-128806000D01*
X86097000Y-138622000D02*
X86097000Y-134440000D01*
X85617000Y-138845000D02*
X85617000Y-134440000D01*
X85737000Y-131560000D02*
X85737000Y-127207000D01*
X85857000Y-138739000D02*
X85857000Y-134440000D01*
X86057000Y-131560000D02*
X86057000Y-127358000D01*
X88097000Y-131560000D02*
X88097000Y-128993000D01*
X86697000Y-131560000D02*
X86697000Y-127730000D01*
X84257000Y-139238000D02*
X84257000Y-126762000D01*
X85577000Y-131560000D02*
X85577000Y-127139000D01*
X86177000Y-138580000D02*
X86177000Y-134440000D01*
X86137000Y-138601000D02*
X86137000Y-134440000D01*
X87617000Y-137528000D02*
X87617000Y-134440000D01*
X86377000Y-138468000D02*
X86377000Y-134440000D01*
X84137000Y-139258000D02*
X84137000Y-126742000D01*
X87657000Y-131560000D02*
X87657000Y-128511000D01*
X86737000Y-138243000D02*
X86737000Y-134440000D01*
X85497000Y-131560000D02*
X85497000Y-127107000D01*
X88737000Y-136069000D02*
X88737000Y-129931000D01*
X76358918Y-136575000D02*
X77608918Y-136575000D01*
X89497000Y-133757000D02*
X89497000Y-132243000D01*
X88817000Y-135921000D02*
X88817000Y-130079000D01*
X86057000Y-138642000D02*
X86057000Y-134440000D01*
X87577000Y-131560000D02*
X87577000Y-128433000D01*
X85937000Y-131560000D02*
X85937000Y-127298000D01*
X88177000Y-136907000D02*
X88177000Y-134440000D01*
X88297000Y-131560000D02*
X88297000Y-129250000D01*
X86617000Y-138322000D02*
X86617000Y-134440000D01*
X84297000Y-139231000D02*
X84297000Y-126769000D01*
X86937000Y-138102000D02*
X86937000Y-134440000D01*
X85257000Y-138981000D02*
X85257000Y-127019000D01*
X88137000Y-136957000D02*
X88137000Y-134440000D01*
X83977000Y-139280000D02*
X83977000Y-126720000D01*
X88857000Y-135844000D02*
X88857000Y-130156000D01*
X83376000Y-139327000D02*
X83376000Y-126673000D01*
X85017000Y-139059000D02*
X85017000Y-126941000D01*
X87257000Y-137852000D02*
X87257000Y-134440000D01*
X84097000Y-139264000D02*
X84097000Y-126736000D01*
X86817000Y-131560000D02*
X86817000Y-127812000D01*
X87137000Y-131560000D02*
X87137000Y-128050000D01*
X87537000Y-137605000D02*
X87537000Y-134440000D01*
X88377000Y-136640000D02*
X88377000Y-129360000D01*
X85897000Y-131560000D02*
X85897000Y-127279000D01*
X84897000Y-139094000D02*
X84897000Y-126906000D01*
X83937000Y-139285000D02*
X83937000Y-126715000D01*
X88097000Y-137007000D02*
X88097000Y-134440000D01*
X86137000Y-131560000D02*
X86137000Y-127399000D01*
X89177000Y-135100000D02*
X89177000Y-130900000D01*
X85657000Y-138828000D02*
X85657000Y-134440000D01*
X86537000Y-138372000D02*
X86537000Y-134440000D01*
X86297000Y-138514000D02*
X86297000Y-134440000D01*
X85737000Y-138793000D02*
X85737000Y-134440000D01*
X86897000Y-138131000D02*
X86897000Y-134440000D01*
X86857000Y-138160000D02*
X86857000Y-134440000D01*
X85857000Y-131560000D02*
X85857000Y-127261000D01*
X87177000Y-137918000D02*
X87177000Y-134440000D01*
X86817000Y-138188000D02*
X86817000Y-134440000D01*
X86417000Y-138445000D02*
X86417000Y-134440000D01*
X87697000Y-131560000D02*
X87697000Y-128551000D01*
X89297000Y-134728000D02*
X89297000Y-131272000D01*
X89337000Y-134583000D02*
X89337000Y-131417000D01*
X86337000Y-131560000D02*
X86337000Y-127509000D01*
X87217000Y-137885000D02*
X87217000Y-134440000D01*
X88937000Y-135681000D02*
X88937000Y-130319000D01*
X87417000Y-137714000D02*
X87417000Y-134440000D01*
X84497000Y-139192000D02*
X84497000Y-126808000D01*
X86017000Y-138662000D02*
X86017000Y-134440000D01*
X85097000Y-139034000D02*
X85097000Y-126966000D01*
X88257000Y-131560000D02*
X88257000Y-129196000D01*
X87617000Y-131560000D02*
X87617000Y-128472000D01*
X86497000Y-131560000D02*
X86497000Y-127603000D01*
X84817000Y-139116000D02*
X84817000Y-126884000D01*
X85377000Y-138939000D02*
X85377000Y-127061000D01*
X86777000Y-131560000D02*
X86777000Y-127784000D01*
X83536000Y-139320000D02*
X83536000Y-126680000D01*
X85817000Y-131560000D02*
X85817000Y-127242000D01*
X88457000Y-136524000D02*
X88457000Y-129476000D01*
X88497000Y-136464000D02*
X88497000Y-129536000D01*
X86657000Y-131560000D02*
X86657000Y-127704000D01*
X83736000Y-139306000D02*
X83736000Y-126694000D01*
X84617000Y-139166000D02*
X84617000Y-126834000D01*
X86697000Y-138270000D02*
X86697000Y-134440000D01*
X85937000Y-138702000D02*
X85937000Y-134440000D01*
X85977000Y-131560000D02*
X85977000Y-127318000D01*
X88297000Y-136750000D02*
X88297000Y-134440000D01*
X89217000Y-134984000D02*
X89217000Y-131016000D01*
X84657000Y-139156000D02*
X84657000Y-126844000D01*
X87977000Y-137148000D02*
X87977000Y-134440000D01*
X87457000Y-137678000D02*
X87457000Y-134440000D01*
X89137000Y-135209000D02*
X89137000Y-130791000D01*
X88057000Y-131560000D02*
X88057000Y-128945000D01*
X83336000Y-139328000D02*
X83336000Y-126672000D01*
X87937000Y-137194000D02*
X87937000Y-134440000D01*
X86217000Y-138558000D02*
X86217000Y-134440000D01*
X86617000Y-131560000D02*
X86617000Y-127678000D01*
X88337000Y-136696000D02*
X88337000Y-134440000D01*
X85457000Y-138908000D02*
X85457000Y-127092000D01*
X76983918Y-137200000D02*
X76983918Y-135950000D01*
X86097000Y-131560000D02*
X86097000Y-127378000D01*
X86857000Y-131560000D02*
X86857000Y-127840000D01*
X84337000Y-139224000D02*
X84337000Y-126776000D01*
X87377000Y-131560000D02*
X87377000Y-128250000D01*
X85217000Y-138995000D02*
X85217000Y-127005000D01*
X85897000Y-138721000D02*
X85897000Y-134440000D01*
X83656000Y-139312000D02*
X83656000Y-126688000D01*
X83897000Y-139290000D02*
X83897000Y-126710000D01*
X89257000Y-134861000D02*
X89257000Y-131139000D01*
X83776000Y-139302000D02*
X83776000Y-126698000D01*
X84377000Y-139216000D02*
X84377000Y-126784000D01*
X87017000Y-131560000D02*
X87017000Y-127957000D01*
X85337000Y-138953000D02*
X85337000Y-127047000D01*
X89017000Y-135504000D02*
X89017000Y-130496000D01*
X86977000Y-138073000D02*
X86977000Y-134440000D01*
X83216000Y-139330000D02*
X83216000Y-126670000D01*
X88177000Y-131560000D02*
X88177000Y-129093000D01*
X86417000Y-131560000D02*
X86417000Y-127555000D01*
X86777000Y-138216000D02*
X86777000Y-134440000D01*
X86737000Y-131560000D02*
X86737000Y-127757000D01*
X83696000Y-139309000D02*
X83696000Y-126691000D01*
X87057000Y-138012000D02*
X87057000Y-134440000D01*
X86457000Y-138421000D02*
X86457000Y-134440000D01*
X84977000Y-139071000D02*
X84977000Y-126929000D01*
X87817000Y-131560000D02*
X87817000Y-128675000D01*
X84537000Y-139184000D02*
X84537000Y-126816000D01*
X84697000Y-139146000D02*
X84697000Y-126854000D01*
X88017000Y-137102000D02*
X88017000Y-134440000D01*
X87457000Y-131560000D02*
X87457000Y-128322000D01*
X88577000Y-136339000D02*
X88577000Y-129661000D01*
X87217000Y-131560000D02*
X87217000Y-128115000D01*
X89377000Y-134422000D02*
X89377000Y-131578000D01*
X86177000Y-131560000D02*
X86177000Y-127420000D01*
X86457000Y-131560000D02*
X86457000Y-127579000D01*
X88537000Y-136402000D02*
X88537000Y-129598000D01*
X87257000Y-131560000D02*
X87257000Y-128148000D01*
X84177000Y-139252000D02*
X84177000Y-126748000D01*
X87817000Y-137325000D02*
X87817000Y-134440000D01*
X87497000Y-137642000D02*
X87497000Y-134440000D01*
X88777000Y-135996000D02*
X88777000Y-130004000D01*
X86337000Y-138491000D02*
X86337000Y-134440000D01*
X88617000Y-136275000D02*
X88617000Y-129725000D01*
X87137000Y-137950000D02*
X87137000Y-134440000D01*
X83576000Y-139318000D02*
X83576000Y-126682000D01*
X89097000Y-135312000D02*
X89097000Y-130688000D01*
X88657000Y-136208000D02*
X88657000Y-129792000D01*
X86657000Y-138296000D02*
X86657000Y-134440000D01*
X86257000Y-131560000D02*
X86257000Y-127464000D01*
X85057000Y-139047000D02*
X85057000Y-126953000D01*
X85697000Y-138811000D02*
X85697000Y-134440000D01*
X87857000Y-137282000D02*
X87857000Y-134440000D01*
X87297000Y-137819000D02*
X87297000Y-134440000D01*
X85177000Y-139008000D02*
X85177000Y-126992000D01*
X83616000Y-139315000D02*
X83616000Y-126685000D01*
X86537000Y-131560000D02*
X86537000Y-127628000D01*
X85417000Y-138924000D02*
X85417000Y-127076000D01*
X87337000Y-131560000D02*
X87337000Y-128215000D01*
X87177000Y-131560000D02*
X87177000Y-128082000D01*
X87497000Y-131560000D02*
X87497000Y-128358000D01*
X86897000Y-131560000D02*
X86897000Y-127869000D01*
X87537000Y-131560000D02*
X87537000Y-128395000D01*
X86297000Y-131560000D02*
X86297000Y-127486000D01*
X84577000Y-139175000D02*
X84577000Y-126825000D01*
X84937000Y-139083000D02*
X84937000Y-126917000D01*
X83456000Y-139324000D02*
X83456000Y-126676000D01*
X86977000Y-131560000D02*
X86977000Y-127927000D01*
X86497000Y-138397000D02*
X86497000Y-134440000D01*
X87777000Y-137367000D02*
X87777000Y-134440000D01*
X83416000Y-139326000D02*
X83416000Y-126674000D01*
X85697000Y-131560000D02*
X85697000Y-127189000D01*
X86577000Y-131560000D02*
X86577000Y-127653000D01*
X83496000Y-139322000D02*
X83496000Y-126678000D01*
X88137000Y-131560000D02*
X88137000Y-129043000D01*
X87297000Y-131560000D02*
X87297000Y-128181000D01*
X89457000Y-134028000D02*
X89457000Y-131972000D01*
X87897000Y-137238000D02*
X87897000Y-134440000D01*
X87977000Y-131560000D02*
X87977000Y-128852000D01*
X88417000Y-136583000D02*
X88417000Y-129417000D01*
X87417000Y-131560000D02*
X87417000Y-128286000D01*
X88697000Y-136140000D02*
X88697000Y-129860000D01*
X84857000Y-139105000D02*
X84857000Y-126895000D01*
X86217000Y-131560000D02*
X86217000Y-127442000D01*
X88897000Y-135764000D02*
X88897000Y-130236000D01*
X85777000Y-131560000D02*
X85777000Y-127224000D01*
X87377000Y-137750000D02*
X87377000Y-134440000D01*
X87097000Y-137982000D02*
X87097000Y-134440000D01*
X87737000Y-131560000D02*
X87737000Y-128592000D01*
X85617000Y-131560000D02*
X85617000Y-127155000D01*
X84017000Y-139275000D02*
X84017000Y-126725000D01*
X85537000Y-138877000D02*
X85537000Y-134440000D01*
X84737000Y-139137000D02*
X84737000Y-126863000D01*
X88217000Y-136856000D02*
X88217000Y-134440000D01*
X88257000Y-136804000D02*
X88257000Y-134440000D01*
X88017000Y-131560000D02*
X88017000Y-128898000D01*
X86577000Y-138347000D02*
X86577000Y-134440000D01*
X87657000Y-137489000D02*
X87657000Y-134440000D01*
X85817000Y-138758000D02*
X85817000Y-134440000D01*
X83816000Y-139298000D02*
X83816000Y-126702000D01*
X86377000Y-131560000D02*
X86377000Y-127532000D01*
X89057000Y-135410000D02*
X89057000Y-130590000D01*
X83296000Y-139329000D02*
X83296000Y-126671000D01*
X83176000Y-139330000D02*
X83176000Y-126670000D01*
X87697000Y-137449000D02*
X87697000Y-134440000D01*
X85537000Y-131560000D02*
X85537000Y-127123000D01*
X84057000Y-139269000D02*
X84057000Y-126731000D01*
X85137000Y-139021000D02*
X85137000Y-126979000D01*
X88057000Y-137055000D02*
X88057000Y-134440000D01*
X85657000Y-131560000D02*
X85657000Y-127172000D01*
X87097000Y-131560000D02*
X87097000Y-128018000D01*
X85497000Y-138893000D02*
X85497000Y-134440000D01*
X89417000Y-134241000D02*
X89417000Y-131759000D01*
X86937000Y-131560000D02*
X86937000Y-127898000D01*
X86017000Y-131560000D02*
X86017000Y-127338000D01*
X87577000Y-137567000D02*
X87577000Y-134440000D01*
X87337000Y-137785000D02*
X87337000Y-134440000D01*
X87057000Y-131560000D02*
X87057000Y-127988000D01*
X87017000Y-138043000D02*
X87017000Y-134440000D01*
X83856000Y-139294000D02*
X83856000Y-126706000D01*
X86257000Y-138536000D02*
X86257000Y-134440000D01*
X84457000Y-139201000D02*
X84457000Y-126799000D01*
X85777000Y-138776000D02*
X85777000Y-134440000D01*
X85577000Y-138861000D02*
X85577000Y-134440000D01*
X88337000Y-131560000D02*
X88337000Y-129304000D01*
X88977000Y-135594000D02*
X88977000Y-130406000D01*
X83256000Y-139330000D02*
X83256000Y-126670000D01*
X87897000Y-131560000D02*
X87897000Y-128762000D01*
X87737000Y-137408000D02*
X87737000Y-134440000D01*
X88217000Y-131560000D02*
X88217000Y-129144000D01*
X85977000Y-138682000D02*
X85977000Y-134440000D01*
X89537000Y-133317000D02*
X89537000Y-132683000D01*
X84777000Y-139126000D02*
X84777000Y-126874000D01*
X84417000Y-139209000D02*
X84417000Y-126791000D01*
X89546000Y-133000000D02*
G75*
G03*
X89546000Y-133000000I-6370000J0D01*
G01*
X96500000Y-125500000D02*
X96500000Y-104500000D01*
X96500000Y-104500000D02*
X53500000Y-104500000D01*
X53500000Y-125500000D02*
X96500000Y-125500000D01*
X53500000Y-104500000D02*
X53500000Y-125500000D01*
X91500000Y-107000000D02*
G75*
G03*
X91500000Y-107000000I-1500000J0D01*
G01*
X61500000Y-123000000D02*
G75*
G03*
X61500000Y-123000000I-1500000J0D01*
G01*
X65147500Y-99080500D02*
X65147500Y-100985500D01*
X70457500Y-104007500D02*
X70457500Y-101807500D01*
X70257500Y-96007500D02*
X57557500Y-96007500D01*
X64639500Y-101645500D02*
X64639500Y-100985500D01*
X68357500Y-104007500D02*
X70457500Y-104007500D01*
X57557500Y-103807500D02*
X70257500Y-103807500D01*
X57557500Y-96007500D02*
X57557500Y-103807500D01*
X65147500Y-99080500D02*
X64131500Y-99080500D01*
X64131500Y-100985500D02*
X64131500Y-99080500D01*
X65147500Y-100985500D02*
X64131500Y-100985500D01*
X64639500Y-98445500D02*
X64639500Y-99080500D01*
X65274500Y-101645500D02*
X64639500Y-101645500D01*
X65274500Y-98445500D02*
X64639500Y-98445500D01*
X70257500Y-103807500D02*
X70257500Y-96007500D01*
X65147500Y-99461500D02*
X64131500Y-100096500D01*
X80783000Y-91005000D02*
X80783000Y-102995000D01*
X80503000Y-98440000D02*
X80503000Y-102893000D01*
X78703000Y-92181000D02*
X78703000Y-95560000D01*
X78863000Y-92050000D02*
X78863000Y-95560000D01*
X80343000Y-91172000D02*
X80343000Y-95560000D01*
X80183000Y-98440000D02*
X80183000Y-102758000D01*
X82344000Y-90688000D02*
X82344000Y-103312000D01*
X79023000Y-98440000D02*
X79023000Y-102073000D01*
X77023000Y-94406000D02*
X77023000Y-99594000D01*
X81143000Y-90895000D02*
X81143000Y-103105000D01*
X80903000Y-90966000D02*
X80903000Y-103034000D01*
X79103000Y-98440000D02*
X79103000Y-102131000D01*
X76983000Y-94496000D02*
X76983000Y-99504000D01*
X81623000Y-90784000D02*
X81623000Y-103216000D01*
X79583000Y-91555000D02*
X79583000Y-95560000D01*
X82464000Y-90680000D02*
X82464000Y-103320000D01*
X81223000Y-90874000D02*
X81223000Y-103126000D01*
X79703000Y-91486000D02*
X79703000Y-95560000D01*
X76543000Y-95972000D02*
X76543000Y-98028000D01*
X78823000Y-92082000D02*
X78823000Y-95560000D01*
X78503000Y-92358000D02*
X78503000Y-95560000D01*
X76863000Y-94791000D02*
X76863000Y-99209000D01*
X77743000Y-98440000D02*
X77743000Y-100804000D01*
X81743000Y-90762000D02*
X81743000Y-103238000D01*
X78623000Y-98440000D02*
X78623000Y-101750000D01*
X78543000Y-92322000D02*
X78543000Y-95560000D01*
X76503000Y-96243000D02*
X76503000Y-97757000D01*
X80103000Y-91279000D02*
X80103000Y-95560000D01*
X82584000Y-90674000D02*
X82584000Y-103326000D01*
X79663000Y-91509000D02*
X79663000Y-95560000D01*
X80303000Y-91189000D02*
X80303000Y-95560000D01*
X79023000Y-91927000D02*
X79023000Y-95560000D01*
X79063000Y-91898000D02*
X79063000Y-95560000D01*
X79503000Y-91603000D02*
X79503000Y-95560000D01*
X78583000Y-92286000D02*
X78583000Y-95560000D01*
X78063000Y-98440000D02*
X78063000Y-101194000D01*
X80583000Y-91076000D02*
X80583000Y-102924000D01*
X78103000Y-98440000D02*
X78103000Y-101238000D01*
X82504000Y-90678000D02*
X82504000Y-103322000D01*
X82063000Y-90715000D02*
X82063000Y-103285000D01*
X80223000Y-98440000D02*
X80223000Y-102776000D01*
X81543000Y-90799000D02*
X81543000Y-103201000D01*
X76623000Y-95578000D02*
X76623000Y-98422000D01*
X80863000Y-90979000D02*
X80863000Y-103021000D01*
X77903000Y-92993000D02*
X77903000Y-95560000D01*
X81503000Y-90808000D02*
X81503000Y-103192000D01*
X79543000Y-91579000D02*
X79543000Y-95560000D01*
X76823000Y-94900000D02*
X76823000Y-99100000D01*
X79943000Y-98440000D02*
X79943000Y-102642000D01*
X78903000Y-98440000D02*
X78903000Y-101982000D01*
X79063000Y-98440000D02*
X79063000Y-102102000D01*
X80263000Y-91207000D02*
X80263000Y-95560000D01*
X77303000Y-93860000D02*
X77303000Y-100140000D01*
X76783000Y-95016000D02*
X76783000Y-98984000D01*
X81383000Y-90834000D02*
X81383000Y-103166000D01*
X77943000Y-92945000D02*
X77943000Y-95560000D01*
X82704000Y-90671000D02*
X82704000Y-103329000D01*
X79263000Y-98440000D02*
X79263000Y-102243000D01*
X81983000Y-90725000D02*
X81983000Y-103275000D01*
X79823000Y-98440000D02*
X79823000Y-102580000D01*
X78023000Y-92852000D02*
X78023000Y-95560000D01*
X82744000Y-90670000D02*
X82744000Y-103330000D01*
X78663000Y-98440000D02*
X78663000Y-101785000D01*
X80623000Y-91061000D02*
X80623000Y-102939000D01*
X81023000Y-90929000D02*
X81023000Y-103071000D01*
X81903000Y-90736000D02*
X81903000Y-103264000D01*
X77983000Y-98440000D02*
X77983000Y-101102000D01*
X79623000Y-91532000D02*
X79623000Y-95560000D01*
X80023000Y-91318000D02*
X80023000Y-95560000D01*
X81663000Y-90776000D02*
X81663000Y-103224000D01*
X77903000Y-98440000D02*
X77903000Y-101007000D01*
X77783000Y-93144000D02*
X77783000Y-95560000D01*
X80383000Y-91155000D02*
X80383000Y-95560000D01*
X81343000Y-90844000D02*
X81343000Y-103156000D01*
X77343000Y-93792000D02*
X77343000Y-100208000D01*
X78423000Y-98440000D02*
X78423000Y-101567000D01*
X82424000Y-90682000D02*
X82424000Y-103318000D01*
X79383000Y-98440000D02*
X79383000Y-102322000D01*
X79743000Y-91464000D02*
X79743000Y-95560000D01*
X81303000Y-90854000D02*
X81303000Y-103146000D01*
X80823000Y-90992000D02*
X80823000Y-103008000D01*
X78263000Y-92592000D02*
X78263000Y-95560000D01*
X77703000Y-98440000D02*
X77703000Y-100750000D01*
X79623000Y-98440000D02*
X79623000Y-102468000D01*
X80943000Y-90953000D02*
X80943000Y-103047000D01*
X78183000Y-92675000D02*
X78183000Y-95560000D01*
X80463000Y-91123000D02*
X80463000Y-95560000D01*
X79943000Y-91358000D02*
X79943000Y-95560000D01*
X80343000Y-98440000D02*
X80343000Y-102828000D01*
X80023000Y-98440000D02*
X80023000Y-102682000D01*
X79863000Y-98440000D02*
X79863000Y-102601000D01*
X79823000Y-91420000D02*
X79823000Y-95560000D01*
X78543000Y-98440000D02*
X78543000Y-101678000D01*
X78183000Y-98440000D02*
X78183000Y-101325000D01*
X82304000Y-90691000D02*
X82304000Y-103309000D01*
X79903000Y-98440000D02*
X79903000Y-102622000D01*
X78663000Y-92215000D02*
X78663000Y-95560000D01*
X81103000Y-90906000D02*
X81103000Y-103094000D01*
X78983000Y-98440000D02*
X78983000Y-102043000D01*
X81183000Y-90884000D02*
X81183000Y-103116000D01*
X79463000Y-98440000D02*
X79463000Y-102372000D01*
X79903000Y-91378000D02*
X79903000Y-95560000D01*
X80423000Y-98440000D02*
X80423000Y-102861000D01*
X80143000Y-98440000D02*
X80143000Y-102739000D01*
X78983000Y-91957000D02*
X78983000Y-95560000D01*
X77423000Y-93661000D02*
X77423000Y-100339000D01*
X82224000Y-90698000D02*
X82224000Y-103302000D01*
X80183000Y-91242000D02*
X80183000Y-95560000D01*
X78823000Y-98440000D02*
X78823000Y-101918000D01*
X77863000Y-93043000D02*
X77863000Y-95560000D01*
X79183000Y-91812000D02*
X79183000Y-95560000D01*
X78263000Y-98440000D02*
X78263000Y-101408000D01*
X79543000Y-98440000D02*
X79543000Y-102421000D01*
X80103000Y-98440000D02*
X80103000Y-102721000D01*
X81583000Y-90791000D02*
X81583000Y-103209000D01*
X79223000Y-98440000D02*
X79223000Y-102216000D01*
X77703000Y-93250000D02*
X77703000Y-95560000D01*
X79343000Y-91704000D02*
X79343000Y-95560000D01*
X79343000Y-98440000D02*
X79343000Y-102296000D01*
X78303000Y-92551000D02*
X78303000Y-95560000D01*
X78583000Y-98440000D02*
X78583000Y-101714000D01*
X79983000Y-98440000D02*
X79983000Y-102662000D01*
X79423000Y-98440000D02*
X79423000Y-102347000D01*
X81863000Y-90742000D02*
X81863000Y-103258000D01*
X78303000Y-98440000D02*
X78303000Y-101449000D01*
X77983000Y-92898000D02*
X77983000Y-95560000D01*
X79263000Y-91757000D02*
X79263000Y-95560000D01*
X81423000Y-90825000D02*
X81423000Y-103175000D01*
X82103000Y-90710000D02*
X82103000Y-103290000D01*
X78223000Y-92633000D02*
X78223000Y-95560000D01*
X77543000Y-93476000D02*
X77543000Y-100524000D01*
X79863000Y-91399000D02*
X79863000Y-95560000D01*
X82824000Y-90670000D02*
X82824000Y-103330000D01*
X78423000Y-92433000D02*
X78423000Y-95560000D01*
X79143000Y-98440000D02*
X79143000Y-102160000D01*
X80223000Y-91224000D02*
X80223000Y-95560000D01*
X78903000Y-92018000D02*
X78903000Y-95560000D01*
X81463000Y-90816000D02*
X81463000Y-103184000D01*
X79303000Y-91730000D02*
X79303000Y-95560000D01*
X82544000Y-90676000D02*
X82544000Y-103324000D01*
X81703000Y-90769000D02*
X81703000Y-103231000D01*
X77743000Y-93196000D02*
X77743000Y-95560000D01*
X77663000Y-93304000D02*
X77663000Y-95560000D01*
X80703000Y-91033000D02*
X80703000Y-102967000D01*
X79103000Y-91869000D02*
X79103000Y-95560000D01*
X80383000Y-98440000D02*
X80383000Y-102845000D01*
X79503000Y-98440000D02*
X79503000Y-102397000D01*
X76463000Y-96683000D02*
X76463000Y-97317000D01*
X81263000Y-90863000D02*
X81263000Y-103137000D01*
X77143000Y-94156000D02*
X77143000Y-99844000D01*
X77183000Y-94079000D02*
X77183000Y-99921000D01*
X79783000Y-91442000D02*
X79783000Y-95560000D01*
X77823000Y-98440000D02*
X77823000Y-100907000D01*
X82664000Y-90672000D02*
X82664000Y-103328000D01*
X89641082Y-93425000D02*
X88391082Y-93425000D01*
X77223000Y-94004000D02*
X77223000Y-99996000D01*
X80303000Y-98440000D02*
X80303000Y-102811000D01*
X82264000Y-90694000D02*
X82264000Y-103306000D01*
X78503000Y-98440000D02*
X78503000Y-101642000D01*
X77663000Y-98440000D02*
X77663000Y-100696000D01*
X77823000Y-93093000D02*
X77823000Y-95560000D01*
X79463000Y-91628000D02*
X79463000Y-95560000D01*
X79383000Y-91678000D02*
X79383000Y-95560000D01*
X78703000Y-98440000D02*
X78703000Y-101819000D01*
X80663000Y-91047000D02*
X80663000Y-102953000D01*
X79223000Y-91784000D02*
X79223000Y-95560000D01*
X78223000Y-98440000D02*
X78223000Y-101367000D01*
X77463000Y-93598000D02*
X77463000Y-100402000D01*
X81783000Y-90755000D02*
X81783000Y-103245000D01*
X80463000Y-98440000D02*
X80463000Y-102877000D01*
X89016082Y-92800000D02*
X89016082Y-94050000D01*
X78863000Y-98440000D02*
X78863000Y-101950000D01*
X78143000Y-98440000D02*
X78143000Y-101282000D01*
X79423000Y-91653000D02*
X79423000Y-95560000D01*
X81823000Y-90748000D02*
X81823000Y-103252000D01*
X77863000Y-98440000D02*
X77863000Y-100957000D01*
X76703000Y-95272000D02*
X76703000Y-98728000D01*
X82144000Y-90706000D02*
X82144000Y-103294000D01*
X79303000Y-98440000D02*
X79303000Y-102270000D01*
X76903000Y-94688000D02*
X76903000Y-99312000D01*
X82624000Y-90673000D02*
X82624000Y-103327000D01*
X82184000Y-90702000D02*
X82184000Y-103298000D01*
X82023000Y-90720000D02*
X82023000Y-103280000D01*
X77943000Y-98440000D02*
X77943000Y-101055000D01*
X76943000Y-94590000D02*
X76943000Y-99410000D01*
X77583000Y-93417000D02*
X77583000Y-100583000D01*
X80143000Y-91261000D02*
X80143000Y-95560000D01*
X78383000Y-98440000D02*
X78383000Y-101528000D01*
X82384000Y-90685000D02*
X82384000Y-103315000D01*
X78743000Y-92148000D02*
X78743000Y-95560000D01*
X78143000Y-92718000D02*
X78143000Y-95560000D01*
X77623000Y-93360000D02*
X77623000Y-100640000D01*
X80503000Y-91107000D02*
X80503000Y-95560000D01*
X78743000Y-98440000D02*
X78743000Y-101852000D01*
X80743000Y-91019000D02*
X80743000Y-102981000D01*
X78463000Y-98440000D02*
X78463000Y-101605000D01*
X80063000Y-91298000D02*
X80063000Y-95560000D01*
X77103000Y-94236000D02*
X77103000Y-99764000D01*
X77063000Y-94319000D02*
X77063000Y-99681000D01*
X78943000Y-91988000D02*
X78943000Y-95560000D01*
X77783000Y-98440000D02*
X77783000Y-100856000D01*
X80983000Y-90941000D02*
X80983000Y-103059000D01*
X79703000Y-98440000D02*
X79703000Y-102514000D01*
X77503000Y-93536000D02*
X77503000Y-100464000D01*
X79143000Y-91840000D02*
X79143000Y-95560000D01*
X80063000Y-98440000D02*
X80063000Y-102702000D01*
X79983000Y-91338000D02*
X79983000Y-95560000D01*
X78383000Y-92472000D02*
X78383000Y-95560000D01*
X76583000Y-95759000D02*
X76583000Y-98241000D01*
X78063000Y-92806000D02*
X78063000Y-95560000D01*
X79783000Y-98440000D02*
X79783000Y-102558000D01*
X79743000Y-98440000D02*
X79743000Y-102536000D01*
X77383000Y-93725000D02*
X77383000Y-100275000D01*
X78343000Y-98440000D02*
X78343000Y-101489000D01*
X78623000Y-92250000D02*
X78623000Y-95560000D01*
X76743000Y-95139000D02*
X76743000Y-98861000D01*
X78343000Y-92511000D02*
X78343000Y-95560000D01*
X79663000Y-98440000D02*
X79663000Y-102491000D01*
X78783000Y-98440000D02*
X78783000Y-101885000D01*
X77263000Y-93931000D02*
X77263000Y-100069000D01*
X80263000Y-98440000D02*
X80263000Y-102793000D01*
X78023000Y-98440000D02*
X78023000Y-101148000D01*
X81943000Y-90731000D02*
X81943000Y-103269000D01*
X78463000Y-92395000D02*
X78463000Y-95560000D01*
X80543000Y-91092000D02*
X80543000Y-102908000D01*
X79583000Y-98440000D02*
X79583000Y-102445000D01*
X80423000Y-91139000D02*
X80423000Y-95560000D01*
X76663000Y-95417000D02*
X76663000Y-98583000D01*
X81063000Y-90917000D02*
X81063000Y-103083000D01*
X79183000Y-98440000D02*
X79183000Y-102188000D01*
X78943000Y-98440000D02*
X78943000Y-102012000D01*
X78783000Y-92115000D02*
X78783000Y-95560000D01*
X82784000Y-90670000D02*
X82784000Y-103330000D01*
X78103000Y-92762000D02*
X78103000Y-95560000D01*
X89194000Y-97000000D02*
G75*
G03*
X89194000Y-97000000I-6370000J0D01*
G01*
X85830000Y-107170000D02*
X85830000Y-109830000D01*
X80690000Y-109830000D02*
X85830000Y-109830000D01*
X79420000Y-107170000D02*
X78090000Y-107170000D01*
X80690000Y-107170000D02*
X85830000Y-107170000D01*
X78090000Y-107170000D02*
X78090000Y-108500000D01*
X80690000Y-107170000D02*
X80690000Y-109830000D01*
M02*
