%TF.GenerationSoftware,KiCad,Pcbnew,(6.0.1)*%
%TF.CreationDate,2022-12-02T00:54:43+09:00*%
%TF.ProjectId,VL6180ToF,564c3631-3830-4546-9f46-2e6b69636164,rev?*%
%TF.SameCoordinates,Original*%
%TF.FileFunction,Legend,Bot*%
%TF.FilePolarity,Positive*%
%FSLAX46Y46*%
G04 Gerber Fmt 4.6, Leading zero omitted, Abs format (unit mm)*
G04 Created by KiCad (PCBNEW (6.0.1)) date 2022-12-02 00:54:43*
%MOMM*%
%LPD*%
G01*
G04 APERTURE LIST*
G04 Aperture macros list*
%AMRoundRect*
0 Rectangle with rounded corners*
0 $1 Rounding radius*
0 $2 $3 $4 $5 $6 $7 $8 $9 X,Y pos of 4 corners*
0 Add a 4 corners polygon primitive as box body*
4,1,4,$2,$3,$4,$5,$6,$7,$8,$9,$2,$3,0*
0 Add four circle primitives for the rounded corners*
1,1,$1+$1,$2,$3*
1,1,$1+$1,$4,$5*
1,1,$1+$1,$6,$7*
1,1,$1+$1,$8,$9*
0 Add four rect primitives between the rounded corners*
20,1,$1+$1,$2,$3,$4,$5,0*
20,1,$1+$1,$4,$5,$6,$7,0*
20,1,$1+$1,$6,$7,$8,$9,0*
20,1,$1+$1,$8,$9,$2,$3,0*%
G04 Aperture macros list end*
%ADD10C,0.150000*%
%ADD11C,0.120000*%
%ADD12RoundRect,0.268750X-0.218750X-0.256250X0.218750X-0.256250X0.218750X0.256250X-0.218750X0.256250X0*%
%ADD13RoundRect,0.268750X0.218750X0.256250X-0.218750X0.256250X-0.218750X-0.256250X0.218750X-0.256250X0*%
%ADD14RoundRect,0.268750X0.256250X-0.218750X0.256250X0.218750X-0.256250X0.218750X-0.256250X-0.218750X0*%
%ADD15RoundRect,0.050000X0.425000X-0.140000X0.425000X0.140000X-0.425000X0.140000X-0.425000X-0.140000X0*%
%ADD16RoundRect,0.050000X0.375000X-0.140000X0.375000X0.140000X-0.375000X0.140000X-0.375000X-0.140000X0*%
%ADD17RoundRect,0.050000X-0.325000X0.530000X-0.325000X-0.530000X0.325000X-0.530000X0.325000X0.530000X0*%
%ADD18RoundRect,0.050000X-0.325000X1.500000X-0.325000X-1.500000X0.325000X-1.500000X0.325000X1.500000X0*%
G04 APERTURE END LIST*
D10*
%TO.C,C1*%
X118166666Y-101867142D02*
X118214285Y-101914761D01*
X118357142Y-101962380D01*
X118452380Y-101962380D01*
X118595238Y-101914761D01*
X118690476Y-101819523D01*
X118738095Y-101724285D01*
X118785714Y-101533809D01*
X118785714Y-101390952D01*
X118738095Y-101200476D01*
X118690476Y-101105238D01*
X118595238Y-101010000D01*
X118452380Y-100962380D01*
X118357142Y-100962380D01*
X118214285Y-101010000D01*
X118166666Y-101057619D01*
X117214285Y-101962380D02*
X117785714Y-101962380D01*
X117500000Y-101962380D02*
X117500000Y-100962380D01*
X117595238Y-101105238D01*
X117690476Y-101200476D01*
X117785714Y-101248095D01*
%TO.C,C2*%
X121166666Y-102357142D02*
X121214285Y-102404761D01*
X121357142Y-102452380D01*
X121452380Y-102452380D01*
X121595238Y-102404761D01*
X121690476Y-102309523D01*
X121738095Y-102214285D01*
X121785714Y-102023809D01*
X121785714Y-101880952D01*
X121738095Y-101690476D01*
X121690476Y-101595238D01*
X121595238Y-101500000D01*
X121452380Y-101452380D01*
X121357142Y-101452380D01*
X121214285Y-101500000D01*
X121166666Y-101547619D01*
X120785714Y-101547619D02*
X120738095Y-101500000D01*
X120642857Y-101452380D01*
X120404761Y-101452380D01*
X120309523Y-101500000D01*
X120261904Y-101547619D01*
X120214285Y-101642857D01*
X120214285Y-101738095D01*
X120261904Y-101880952D01*
X120833333Y-102452380D01*
X120214285Y-102452380D01*
%TO.C,C3*%
X119857142Y-103833333D02*
X119904761Y-103785714D01*
X119952380Y-103642857D01*
X119952380Y-103547619D01*
X119904761Y-103404761D01*
X119809523Y-103309523D01*
X119714285Y-103261904D01*
X119523809Y-103214285D01*
X119380952Y-103214285D01*
X119190476Y-103261904D01*
X119095238Y-103309523D01*
X119000000Y-103404761D01*
X118952380Y-103547619D01*
X118952380Y-103642857D01*
X119000000Y-103785714D01*
X119047619Y-103833333D01*
X118952380Y-104166666D02*
X118952380Y-104785714D01*
X119333333Y-104452380D01*
X119333333Y-104595238D01*
X119380952Y-104690476D01*
X119428571Y-104738095D01*
X119523809Y-104785714D01*
X119761904Y-104785714D01*
X119857142Y-104738095D01*
X119904761Y-104690476D01*
X119952380Y-104595238D01*
X119952380Y-104309523D01*
X119904761Y-104214285D01*
X119857142Y-104166666D01*
%TO.C,C4*%
X123357142Y-103833333D02*
X123404761Y-103785714D01*
X123452380Y-103642857D01*
X123452380Y-103547619D01*
X123404761Y-103404761D01*
X123309523Y-103309523D01*
X123214285Y-103261904D01*
X123023809Y-103214285D01*
X122880952Y-103214285D01*
X122690476Y-103261904D01*
X122595238Y-103309523D01*
X122500000Y-103404761D01*
X122452380Y-103547619D01*
X122452380Y-103642857D01*
X122500000Y-103785714D01*
X122547619Y-103833333D01*
X122785714Y-104690476D02*
X123452380Y-104690476D01*
X122404761Y-104452380D02*
X123119047Y-104214285D01*
X123119047Y-104833333D01*
%TO.C,C5*%
X127503887Y-107347142D02*
X127551506Y-107394761D01*
X127694363Y-107442380D01*
X127789601Y-107442380D01*
X127932459Y-107394761D01*
X128027697Y-107299523D01*
X128075316Y-107204285D01*
X128122935Y-107013809D01*
X128122935Y-106870952D01*
X128075316Y-106680476D01*
X128027697Y-106585238D01*
X127932459Y-106490000D01*
X127789601Y-106442380D01*
X127694363Y-106442380D01*
X127551506Y-106490000D01*
X127503887Y-106537619D01*
X126599125Y-106442380D02*
X127075316Y-106442380D01*
X127122935Y-106918571D01*
X127075316Y-106870952D01*
X126980078Y-106823333D01*
X126741982Y-106823333D01*
X126646744Y-106870952D01*
X126599125Y-106918571D01*
X126551506Y-107013809D01*
X126551506Y-107251904D01*
X126599125Y-107347142D01*
X126646744Y-107394761D01*
X126741982Y-107442380D01*
X126980078Y-107442380D01*
X127075316Y-107394761D01*
X127122935Y-107347142D01*
%TO.C,Q1*%
X138595238Y-109547619D02*
X138690476Y-109500000D01*
X138785714Y-109404761D01*
X138928571Y-109261904D01*
X139023809Y-109214285D01*
X139119047Y-109214285D01*
X139071428Y-109452380D02*
X139166666Y-109404761D01*
X139261904Y-109309523D01*
X139309523Y-109119047D01*
X139309523Y-108785714D01*
X139261904Y-108595238D01*
X139166666Y-108500000D01*
X139071428Y-108452380D01*
X138880952Y-108452380D01*
X138785714Y-108500000D01*
X138690476Y-108595238D01*
X138642857Y-108785714D01*
X138642857Y-109119047D01*
X138690476Y-109309523D01*
X138785714Y-109404761D01*
X138880952Y-109452380D01*
X139071428Y-109452380D01*
X137690476Y-109452380D02*
X138261904Y-109452380D01*
X137976190Y-109452380D02*
X137976190Y-108452380D01*
X138071428Y-108595238D01*
X138166666Y-108690476D01*
X138261904Y-108738095D01*
%TO.C,R1*%
X123166666Y-105952380D02*
X123500000Y-105476190D01*
X123738095Y-105952380D02*
X123738095Y-104952380D01*
X123357142Y-104952380D01*
X123261904Y-105000000D01*
X123214285Y-105047619D01*
X123166666Y-105142857D01*
X123166666Y-105285714D01*
X123214285Y-105380952D01*
X123261904Y-105428571D01*
X123357142Y-105476190D01*
X123738095Y-105476190D01*
X122214285Y-105952380D02*
X122785714Y-105952380D01*
X122500000Y-105952380D02*
X122500000Y-104952380D01*
X122595238Y-105095238D01*
X122690476Y-105190476D01*
X122785714Y-105238095D01*
%TO.C,R2*%
X123166666Y-108452380D02*
X123500000Y-107976190D01*
X123738095Y-108452380D02*
X123738095Y-107452380D01*
X123357142Y-107452380D01*
X123261904Y-107500000D01*
X123214285Y-107547619D01*
X123166666Y-107642857D01*
X123166666Y-107785714D01*
X123214285Y-107880952D01*
X123261904Y-107928571D01*
X123357142Y-107976190D01*
X123738095Y-107976190D01*
X122785714Y-107547619D02*
X122738095Y-107500000D01*
X122642857Y-107452380D01*
X122404761Y-107452380D01*
X122309523Y-107500000D01*
X122261904Y-107547619D01*
X122214285Y-107642857D01*
X122214285Y-107738095D01*
X122261904Y-107880952D01*
X122833333Y-108452380D01*
X122214285Y-108452380D01*
%TO.C,R3*%
X137166666Y-104952380D02*
X137500000Y-104476190D01*
X137738095Y-104952380D02*
X137738095Y-103952380D01*
X137357142Y-103952380D01*
X137261904Y-104000000D01*
X137214285Y-104047619D01*
X137166666Y-104142857D01*
X137166666Y-104285714D01*
X137214285Y-104380952D01*
X137261904Y-104428571D01*
X137357142Y-104476190D01*
X137738095Y-104476190D01*
X136833333Y-103952380D02*
X136214285Y-103952380D01*
X136547619Y-104333333D01*
X136404761Y-104333333D01*
X136309523Y-104380952D01*
X136261904Y-104428571D01*
X136214285Y-104523809D01*
X136214285Y-104761904D01*
X136261904Y-104857142D01*
X136309523Y-104904761D01*
X136404761Y-104952380D01*
X136690476Y-104952380D01*
X136785714Y-104904761D01*
X136833333Y-104857142D01*
%TO.C,R4*%
X137166666Y-101452380D02*
X137500000Y-100976190D01*
X137738095Y-101452380D02*
X137738095Y-100452380D01*
X137357142Y-100452380D01*
X137261904Y-100500000D01*
X137214285Y-100547619D01*
X137166666Y-100642857D01*
X137166666Y-100785714D01*
X137214285Y-100880952D01*
X137261904Y-100928571D01*
X137357142Y-100976190D01*
X137738095Y-100976190D01*
X136309523Y-100785714D02*
X136309523Y-101452380D01*
X136547619Y-100404761D02*
X136785714Y-101119047D01*
X136166666Y-101119047D01*
%TO.C,R5*%
X140166666Y-105382380D02*
X140500000Y-104906190D01*
X140738095Y-105382380D02*
X140738095Y-104382380D01*
X140357142Y-104382380D01*
X140261904Y-104430000D01*
X140214285Y-104477619D01*
X140166666Y-104572857D01*
X140166666Y-104715714D01*
X140214285Y-104810952D01*
X140261904Y-104858571D01*
X140357142Y-104906190D01*
X140738095Y-104906190D01*
X139261904Y-104382380D02*
X139738095Y-104382380D01*
X139785714Y-104858571D01*
X139738095Y-104810952D01*
X139642857Y-104763333D01*
X139404761Y-104763333D01*
X139309523Y-104810952D01*
X139261904Y-104858571D01*
X139214285Y-104953809D01*
X139214285Y-105191904D01*
X139261904Y-105287142D01*
X139309523Y-105334761D01*
X139404761Y-105382380D01*
X139642857Y-105382380D01*
X139738095Y-105334761D01*
X139785714Y-105287142D01*
%TO.C,R6*%
X140166666Y-101452380D02*
X140500000Y-100976190D01*
X140738095Y-101452380D02*
X140738095Y-100452380D01*
X140357142Y-100452380D01*
X140261904Y-100500000D01*
X140214285Y-100547619D01*
X140166666Y-100642857D01*
X140166666Y-100785714D01*
X140214285Y-100880952D01*
X140261904Y-100928571D01*
X140357142Y-100976190D01*
X140738095Y-100976190D01*
X139309523Y-100452380D02*
X139500000Y-100452380D01*
X139595238Y-100500000D01*
X139642857Y-100547619D01*
X139738095Y-100690476D01*
X139785714Y-100880952D01*
X139785714Y-101261904D01*
X139738095Y-101357142D01*
X139690476Y-101404761D01*
X139595238Y-101452380D01*
X139404761Y-101452380D01*
X139309523Y-101404761D01*
X139261904Y-101357142D01*
X139214285Y-101261904D01*
X139214285Y-101023809D01*
X139261904Y-100928571D01*
X139309523Y-100880952D01*
X139404761Y-100833333D01*
X139595238Y-100833333D01*
X139690476Y-100880952D01*
X139738095Y-100928571D01*
X139785714Y-101023809D01*
%TO.C,R7*%
X143166666Y-105382380D02*
X143500000Y-104906190D01*
X143738095Y-105382380D02*
X143738095Y-104382380D01*
X143357142Y-104382380D01*
X143261904Y-104430000D01*
X143214285Y-104477619D01*
X143166666Y-104572857D01*
X143166666Y-104715714D01*
X143214285Y-104810952D01*
X143261904Y-104858571D01*
X143357142Y-104906190D01*
X143738095Y-104906190D01*
X142833333Y-104382380D02*
X142166666Y-104382380D01*
X142595238Y-105382380D01*
%TO.C,R8*%
X143166666Y-101452380D02*
X143500000Y-100976190D01*
X143738095Y-101452380D02*
X143738095Y-100452380D01*
X143357142Y-100452380D01*
X143261904Y-100500000D01*
X143214285Y-100547619D01*
X143166666Y-100642857D01*
X143166666Y-100785714D01*
X143214285Y-100880952D01*
X143261904Y-100928571D01*
X143357142Y-100976190D01*
X143738095Y-100976190D01*
X142595238Y-100880952D02*
X142690476Y-100833333D01*
X142738095Y-100785714D01*
X142785714Y-100690476D01*
X142785714Y-100642857D01*
X142738095Y-100547619D01*
X142690476Y-100500000D01*
X142595238Y-100452380D01*
X142404761Y-100452380D01*
X142309523Y-100500000D01*
X142261904Y-100547619D01*
X142214285Y-100642857D01*
X142214285Y-100690476D01*
X142261904Y-100785714D01*
X142309523Y-100833333D01*
X142404761Y-100880952D01*
X142595238Y-100880952D01*
X142690476Y-100928571D01*
X142738095Y-100976190D01*
X142785714Y-101071428D01*
X142785714Y-101261904D01*
X142738095Y-101357142D01*
X142690476Y-101404761D01*
X142595238Y-101452380D01*
X142404761Y-101452380D01*
X142309523Y-101404761D01*
X142261904Y-101357142D01*
X142214285Y-101261904D01*
X142214285Y-101071428D01*
X142261904Y-100976190D01*
X142309523Y-100928571D01*
X142404761Y-100880952D01*
%TO.C,U1*%
X115452380Y-102738095D02*
X116261904Y-102738095D01*
X116357142Y-102785714D01*
X116404761Y-102833333D01*
X116452380Y-102928571D01*
X116452380Y-103119047D01*
X116404761Y-103214285D01*
X116357142Y-103261904D01*
X116261904Y-103309523D01*
X115452380Y-103309523D01*
X116452380Y-104309523D02*
X116452380Y-103738095D01*
X116452380Y-104023809D02*
X115452380Y-104023809D01*
X115595238Y-103928571D01*
X115690476Y-103833333D01*
X115738095Y-103738095D01*
%TO.C,R3*%
X167166666Y-114952380D02*
X167500000Y-114476190D01*
X167738095Y-114952380D02*
X167738095Y-113952380D01*
X167357142Y-113952380D01*
X167261904Y-114000000D01*
X167214285Y-114047619D01*
X167166666Y-114142857D01*
X167166666Y-114285714D01*
X167214285Y-114380952D01*
X167261904Y-114428571D01*
X167357142Y-114476190D01*
X167738095Y-114476190D01*
X166833333Y-113952380D02*
X166214285Y-113952380D01*
X166547619Y-114333333D01*
X166404761Y-114333333D01*
X166309523Y-114380952D01*
X166261904Y-114428571D01*
X166214285Y-114523809D01*
X166214285Y-114761904D01*
X166261904Y-114857142D01*
X166309523Y-114904761D01*
X166404761Y-114952380D01*
X166690476Y-114952380D01*
X166785714Y-114904761D01*
X166833333Y-114857142D01*
X137166666Y-114952380D02*
X137500000Y-114476190D01*
X137738095Y-114952380D02*
X137738095Y-113952380D01*
X137357142Y-113952380D01*
X137261904Y-114000000D01*
X137214285Y-114047619D01*
X137166666Y-114142857D01*
X137166666Y-114285714D01*
X137214285Y-114380952D01*
X137261904Y-114428571D01*
X137357142Y-114476190D01*
X137738095Y-114476190D01*
X136833333Y-113952380D02*
X136214285Y-113952380D01*
X136547619Y-114333333D01*
X136404761Y-114333333D01*
X136309523Y-114380952D01*
X136261904Y-114428571D01*
X136214285Y-114523809D01*
X136214285Y-114761904D01*
X136261904Y-114857142D01*
X136309523Y-114904761D01*
X136404761Y-114952380D01*
X136690476Y-114952380D01*
X136785714Y-114904761D01*
X136833333Y-114857142D01*
%TO.C,Q1*%
X168595238Y-109547619D02*
X168690476Y-109500000D01*
X168785714Y-109404761D01*
X168928571Y-109261904D01*
X169023809Y-109214285D01*
X169119047Y-109214285D01*
X169071428Y-109452380D02*
X169166666Y-109404761D01*
X169261904Y-109309523D01*
X169309523Y-109119047D01*
X169309523Y-108785714D01*
X169261904Y-108595238D01*
X169166666Y-108500000D01*
X169071428Y-108452380D01*
X168880952Y-108452380D01*
X168785714Y-108500000D01*
X168690476Y-108595238D01*
X168642857Y-108785714D01*
X168642857Y-109119047D01*
X168690476Y-109309523D01*
X168785714Y-109404761D01*
X168880952Y-109452380D01*
X169071428Y-109452380D01*
X167690476Y-109452380D02*
X168261904Y-109452380D01*
X167976190Y-109452380D02*
X167976190Y-108452380D01*
X168071428Y-108595238D01*
X168166666Y-108690476D01*
X168261904Y-108738095D01*
%TO.C,C3*%
X119857142Y-113833333D02*
X119904761Y-113785714D01*
X119952380Y-113642857D01*
X119952380Y-113547619D01*
X119904761Y-113404761D01*
X119809523Y-113309523D01*
X119714285Y-113261904D01*
X119523809Y-113214285D01*
X119380952Y-113214285D01*
X119190476Y-113261904D01*
X119095238Y-113309523D01*
X119000000Y-113404761D01*
X118952380Y-113547619D01*
X118952380Y-113642857D01*
X119000000Y-113785714D01*
X119047619Y-113833333D01*
X118952380Y-114166666D02*
X118952380Y-114785714D01*
X119333333Y-114452380D01*
X119333333Y-114595238D01*
X119380952Y-114690476D01*
X119428571Y-114738095D01*
X119523809Y-114785714D01*
X119761904Y-114785714D01*
X119857142Y-114738095D01*
X119904761Y-114690476D01*
X119952380Y-114595238D01*
X119952380Y-114309523D01*
X119904761Y-114214285D01*
X119857142Y-114166666D01*
%TO.C,C2*%
X151166666Y-102357142D02*
X151214285Y-102404761D01*
X151357142Y-102452380D01*
X151452380Y-102452380D01*
X151595238Y-102404761D01*
X151690476Y-102309523D01*
X151738095Y-102214285D01*
X151785714Y-102023809D01*
X151785714Y-101880952D01*
X151738095Y-101690476D01*
X151690476Y-101595238D01*
X151595238Y-101500000D01*
X151452380Y-101452380D01*
X151357142Y-101452380D01*
X151214285Y-101500000D01*
X151166666Y-101547619D01*
X150785714Y-101547619D02*
X150738095Y-101500000D01*
X150642857Y-101452380D01*
X150404761Y-101452380D01*
X150309523Y-101500000D01*
X150261904Y-101547619D01*
X150214285Y-101642857D01*
X150214285Y-101738095D01*
X150261904Y-101880952D01*
X150833333Y-102452380D01*
X150214285Y-102452380D01*
%TO.C,C1*%
X148166666Y-111867142D02*
X148214285Y-111914761D01*
X148357142Y-111962380D01*
X148452380Y-111962380D01*
X148595238Y-111914761D01*
X148690476Y-111819523D01*
X148738095Y-111724285D01*
X148785714Y-111533809D01*
X148785714Y-111390952D01*
X148738095Y-111200476D01*
X148690476Y-111105238D01*
X148595238Y-111010000D01*
X148452380Y-110962380D01*
X148357142Y-110962380D01*
X148214285Y-111010000D01*
X148166666Y-111057619D01*
X147214285Y-111962380D02*
X147785714Y-111962380D01*
X147500000Y-111962380D02*
X147500000Y-110962380D01*
X147595238Y-111105238D01*
X147690476Y-111200476D01*
X147785714Y-111248095D01*
%TO.C,R7*%
X173166666Y-105382380D02*
X173500000Y-104906190D01*
X173738095Y-105382380D02*
X173738095Y-104382380D01*
X173357142Y-104382380D01*
X173261904Y-104430000D01*
X173214285Y-104477619D01*
X173166666Y-104572857D01*
X173166666Y-104715714D01*
X173214285Y-104810952D01*
X173261904Y-104858571D01*
X173357142Y-104906190D01*
X173738095Y-104906190D01*
X172833333Y-104382380D02*
X172166666Y-104382380D01*
X172595238Y-105382380D01*
%TO.C,R2*%
X153166666Y-108452380D02*
X153500000Y-107976190D01*
X153738095Y-108452380D02*
X153738095Y-107452380D01*
X153357142Y-107452380D01*
X153261904Y-107500000D01*
X153214285Y-107547619D01*
X153166666Y-107642857D01*
X153166666Y-107785714D01*
X153214285Y-107880952D01*
X153261904Y-107928571D01*
X153357142Y-107976190D01*
X153738095Y-107976190D01*
X152785714Y-107547619D02*
X152738095Y-107500000D01*
X152642857Y-107452380D01*
X152404761Y-107452380D01*
X152309523Y-107500000D01*
X152261904Y-107547619D01*
X152214285Y-107642857D01*
X152214285Y-107738095D01*
X152261904Y-107880952D01*
X152833333Y-108452380D01*
X152214285Y-108452380D01*
%TO.C,R4*%
X167166666Y-111452380D02*
X167500000Y-110976190D01*
X167738095Y-111452380D02*
X167738095Y-110452380D01*
X167357142Y-110452380D01*
X167261904Y-110500000D01*
X167214285Y-110547619D01*
X167166666Y-110642857D01*
X167166666Y-110785714D01*
X167214285Y-110880952D01*
X167261904Y-110928571D01*
X167357142Y-110976190D01*
X167738095Y-110976190D01*
X166309523Y-110785714D02*
X166309523Y-111452380D01*
X166547619Y-110404761D02*
X166785714Y-111119047D01*
X166166666Y-111119047D01*
%TO.C,R6*%
X170166666Y-101452380D02*
X170500000Y-100976190D01*
X170738095Y-101452380D02*
X170738095Y-100452380D01*
X170357142Y-100452380D01*
X170261904Y-100500000D01*
X170214285Y-100547619D01*
X170166666Y-100642857D01*
X170166666Y-100785714D01*
X170214285Y-100880952D01*
X170261904Y-100928571D01*
X170357142Y-100976190D01*
X170738095Y-100976190D01*
X169309523Y-100452380D02*
X169500000Y-100452380D01*
X169595238Y-100500000D01*
X169642857Y-100547619D01*
X169738095Y-100690476D01*
X169785714Y-100880952D01*
X169785714Y-101261904D01*
X169738095Y-101357142D01*
X169690476Y-101404761D01*
X169595238Y-101452380D01*
X169404761Y-101452380D01*
X169309523Y-101404761D01*
X169261904Y-101357142D01*
X169214285Y-101261904D01*
X169214285Y-101023809D01*
X169261904Y-100928571D01*
X169309523Y-100880952D01*
X169404761Y-100833333D01*
X169595238Y-100833333D01*
X169690476Y-100880952D01*
X169738095Y-100928571D01*
X169785714Y-101023809D01*
%TO.C,R2*%
X123166666Y-118452380D02*
X123500000Y-117976190D01*
X123738095Y-118452380D02*
X123738095Y-117452380D01*
X123357142Y-117452380D01*
X123261904Y-117500000D01*
X123214285Y-117547619D01*
X123166666Y-117642857D01*
X123166666Y-117785714D01*
X123214285Y-117880952D01*
X123261904Y-117928571D01*
X123357142Y-117976190D01*
X123738095Y-117976190D01*
X122785714Y-117547619D02*
X122738095Y-117500000D01*
X122642857Y-117452380D01*
X122404761Y-117452380D01*
X122309523Y-117500000D01*
X122261904Y-117547619D01*
X122214285Y-117642857D01*
X122214285Y-117738095D01*
X122261904Y-117880952D01*
X122833333Y-118452380D01*
X122214285Y-118452380D01*
%TO.C,C2*%
X121166666Y-112357142D02*
X121214285Y-112404761D01*
X121357142Y-112452380D01*
X121452380Y-112452380D01*
X121595238Y-112404761D01*
X121690476Y-112309523D01*
X121738095Y-112214285D01*
X121785714Y-112023809D01*
X121785714Y-111880952D01*
X121738095Y-111690476D01*
X121690476Y-111595238D01*
X121595238Y-111500000D01*
X121452380Y-111452380D01*
X121357142Y-111452380D01*
X121214285Y-111500000D01*
X121166666Y-111547619D01*
X120785714Y-111547619D02*
X120738095Y-111500000D01*
X120642857Y-111452380D01*
X120404761Y-111452380D01*
X120309523Y-111500000D01*
X120261904Y-111547619D01*
X120214285Y-111642857D01*
X120214285Y-111738095D01*
X120261904Y-111880952D01*
X120833333Y-112452380D01*
X120214285Y-112452380D01*
%TO.C,J1*%
X153947380Y-103304166D02*
X154661666Y-103304166D01*
X154804523Y-103256547D01*
X154899761Y-103161309D01*
X154947380Y-103018452D01*
X154947380Y-102923214D01*
X154947380Y-104304166D02*
X154947380Y-103732738D01*
X154947380Y-104018452D02*
X153947380Y-104018452D01*
X154090238Y-103923214D01*
X154185476Y-103827976D01*
X154233095Y-103732738D01*
%TO.C,R8*%
X173166666Y-111452380D02*
X173500000Y-110976190D01*
X173738095Y-111452380D02*
X173738095Y-110452380D01*
X173357142Y-110452380D01*
X173261904Y-110500000D01*
X173214285Y-110547619D01*
X173166666Y-110642857D01*
X173166666Y-110785714D01*
X173214285Y-110880952D01*
X173261904Y-110928571D01*
X173357142Y-110976190D01*
X173738095Y-110976190D01*
X172595238Y-110880952D02*
X172690476Y-110833333D01*
X172738095Y-110785714D01*
X172785714Y-110690476D01*
X172785714Y-110642857D01*
X172738095Y-110547619D01*
X172690476Y-110500000D01*
X172595238Y-110452380D01*
X172404761Y-110452380D01*
X172309523Y-110500000D01*
X172261904Y-110547619D01*
X172214285Y-110642857D01*
X172214285Y-110690476D01*
X172261904Y-110785714D01*
X172309523Y-110833333D01*
X172404761Y-110880952D01*
X172595238Y-110880952D01*
X172690476Y-110928571D01*
X172738095Y-110976190D01*
X172785714Y-111071428D01*
X172785714Y-111261904D01*
X172738095Y-111357142D01*
X172690476Y-111404761D01*
X172595238Y-111452380D01*
X172404761Y-111452380D01*
X172309523Y-111404761D01*
X172261904Y-111357142D01*
X172214285Y-111261904D01*
X172214285Y-111071428D01*
X172261904Y-110976190D01*
X172309523Y-110928571D01*
X172404761Y-110880952D01*
%TO.C,R7*%
X173166666Y-115382380D02*
X173500000Y-114906190D01*
X173738095Y-115382380D02*
X173738095Y-114382380D01*
X173357142Y-114382380D01*
X173261904Y-114430000D01*
X173214285Y-114477619D01*
X173166666Y-114572857D01*
X173166666Y-114715714D01*
X173214285Y-114810952D01*
X173261904Y-114858571D01*
X173357142Y-114906190D01*
X173738095Y-114906190D01*
X172833333Y-114382380D02*
X172166666Y-114382380D01*
X172595238Y-115382380D01*
%TO.C,C4*%
X123357142Y-113833333D02*
X123404761Y-113785714D01*
X123452380Y-113642857D01*
X123452380Y-113547619D01*
X123404761Y-113404761D01*
X123309523Y-113309523D01*
X123214285Y-113261904D01*
X123023809Y-113214285D01*
X122880952Y-113214285D01*
X122690476Y-113261904D01*
X122595238Y-113309523D01*
X122500000Y-113404761D01*
X122452380Y-113547619D01*
X122452380Y-113642857D01*
X122500000Y-113785714D01*
X122547619Y-113833333D01*
X122785714Y-114690476D02*
X123452380Y-114690476D01*
X122404761Y-114452380D02*
X123119047Y-114214285D01*
X123119047Y-114833333D01*
%TO.C,C5*%
X127503887Y-117347142D02*
X127551506Y-117394761D01*
X127694363Y-117442380D01*
X127789601Y-117442380D01*
X127932459Y-117394761D01*
X128027697Y-117299523D01*
X128075316Y-117204285D01*
X128122935Y-117013809D01*
X128122935Y-116870952D01*
X128075316Y-116680476D01*
X128027697Y-116585238D01*
X127932459Y-116490000D01*
X127789601Y-116442380D01*
X127694363Y-116442380D01*
X127551506Y-116490000D01*
X127503887Y-116537619D01*
X126599125Y-116442380D02*
X127075316Y-116442380D01*
X127122935Y-116918571D01*
X127075316Y-116870952D01*
X126980078Y-116823333D01*
X126741982Y-116823333D01*
X126646744Y-116870952D01*
X126599125Y-116918571D01*
X126551506Y-117013809D01*
X126551506Y-117251904D01*
X126599125Y-117347142D01*
X126646744Y-117394761D01*
X126741982Y-117442380D01*
X126980078Y-117442380D01*
X127075316Y-117394761D01*
X127122935Y-117347142D01*
%TO.C,R8*%
X143166666Y-111452380D02*
X143500000Y-110976190D01*
X143738095Y-111452380D02*
X143738095Y-110452380D01*
X143357142Y-110452380D01*
X143261904Y-110500000D01*
X143214285Y-110547619D01*
X143166666Y-110642857D01*
X143166666Y-110785714D01*
X143214285Y-110880952D01*
X143261904Y-110928571D01*
X143357142Y-110976190D01*
X143738095Y-110976190D01*
X142595238Y-110880952D02*
X142690476Y-110833333D01*
X142738095Y-110785714D01*
X142785714Y-110690476D01*
X142785714Y-110642857D01*
X142738095Y-110547619D01*
X142690476Y-110500000D01*
X142595238Y-110452380D01*
X142404761Y-110452380D01*
X142309523Y-110500000D01*
X142261904Y-110547619D01*
X142214285Y-110642857D01*
X142214285Y-110690476D01*
X142261904Y-110785714D01*
X142309523Y-110833333D01*
X142404761Y-110880952D01*
X142595238Y-110880952D01*
X142690476Y-110928571D01*
X142738095Y-110976190D01*
X142785714Y-111071428D01*
X142785714Y-111261904D01*
X142738095Y-111357142D01*
X142690476Y-111404761D01*
X142595238Y-111452380D01*
X142404761Y-111452380D01*
X142309523Y-111404761D01*
X142261904Y-111357142D01*
X142214285Y-111261904D01*
X142214285Y-111071428D01*
X142261904Y-110976190D01*
X142309523Y-110928571D01*
X142404761Y-110880952D01*
%TO.C,J1*%
X153947380Y-113304166D02*
X154661666Y-113304166D01*
X154804523Y-113256547D01*
X154899761Y-113161309D01*
X154947380Y-113018452D01*
X154947380Y-112923214D01*
X154947380Y-114304166D02*
X154947380Y-113732738D01*
X154947380Y-114018452D02*
X153947380Y-114018452D01*
X154090238Y-113923214D01*
X154185476Y-113827976D01*
X154233095Y-113732738D01*
%TO.C,U1*%
X115452380Y-112738095D02*
X116261904Y-112738095D01*
X116357142Y-112785714D01*
X116404761Y-112833333D01*
X116452380Y-112928571D01*
X116452380Y-113119047D01*
X116404761Y-113214285D01*
X116357142Y-113261904D01*
X116261904Y-113309523D01*
X115452380Y-113309523D01*
X116452380Y-114309523D02*
X116452380Y-113738095D01*
X116452380Y-114023809D02*
X115452380Y-114023809D01*
X115595238Y-113928571D01*
X115690476Y-113833333D01*
X115738095Y-113738095D01*
%TO.C,J1*%
X123947380Y-103304166D02*
X124661666Y-103304166D01*
X124804523Y-103256547D01*
X124899761Y-103161309D01*
X124947380Y-103018452D01*
X124947380Y-102923214D01*
X124947380Y-104304166D02*
X124947380Y-103732738D01*
X124947380Y-104018452D02*
X123947380Y-104018452D01*
X124090238Y-103923214D01*
X124185476Y-103827976D01*
X124233095Y-103732738D01*
%TO.C,Q1*%
X138595238Y-119547619D02*
X138690476Y-119500000D01*
X138785714Y-119404761D01*
X138928571Y-119261904D01*
X139023809Y-119214285D01*
X139119047Y-119214285D01*
X139071428Y-119452380D02*
X139166666Y-119404761D01*
X139261904Y-119309523D01*
X139309523Y-119119047D01*
X139309523Y-118785714D01*
X139261904Y-118595238D01*
X139166666Y-118500000D01*
X139071428Y-118452380D01*
X138880952Y-118452380D01*
X138785714Y-118500000D01*
X138690476Y-118595238D01*
X138642857Y-118785714D01*
X138642857Y-119119047D01*
X138690476Y-119309523D01*
X138785714Y-119404761D01*
X138880952Y-119452380D01*
X139071428Y-119452380D01*
X137690476Y-119452380D02*
X138261904Y-119452380D01*
X137976190Y-119452380D02*
X137976190Y-118452380D01*
X138071428Y-118595238D01*
X138166666Y-118690476D01*
X138261904Y-118738095D01*
%TO.C,C3*%
X149857142Y-113833333D02*
X149904761Y-113785714D01*
X149952380Y-113642857D01*
X149952380Y-113547619D01*
X149904761Y-113404761D01*
X149809523Y-113309523D01*
X149714285Y-113261904D01*
X149523809Y-113214285D01*
X149380952Y-113214285D01*
X149190476Y-113261904D01*
X149095238Y-113309523D01*
X149000000Y-113404761D01*
X148952380Y-113547619D01*
X148952380Y-113642857D01*
X149000000Y-113785714D01*
X149047619Y-113833333D01*
X148952380Y-114166666D02*
X148952380Y-114785714D01*
X149333333Y-114452380D01*
X149333333Y-114595238D01*
X149380952Y-114690476D01*
X149428571Y-114738095D01*
X149523809Y-114785714D01*
X149761904Y-114785714D01*
X149857142Y-114738095D01*
X149904761Y-114690476D01*
X149952380Y-114595238D01*
X149952380Y-114309523D01*
X149904761Y-114214285D01*
X149857142Y-114166666D01*
%TO.C,R7*%
X143166666Y-115382380D02*
X143500000Y-114906190D01*
X143738095Y-115382380D02*
X143738095Y-114382380D01*
X143357142Y-114382380D01*
X143261904Y-114430000D01*
X143214285Y-114477619D01*
X143166666Y-114572857D01*
X143166666Y-114715714D01*
X143214285Y-114810952D01*
X143261904Y-114858571D01*
X143357142Y-114906190D01*
X143738095Y-114906190D01*
X142833333Y-114382380D02*
X142166666Y-114382380D01*
X142595238Y-115382380D01*
%TO.C,R5*%
X170166666Y-105382380D02*
X170500000Y-104906190D01*
X170738095Y-105382380D02*
X170738095Y-104382380D01*
X170357142Y-104382380D01*
X170261904Y-104430000D01*
X170214285Y-104477619D01*
X170166666Y-104572857D01*
X170166666Y-104715714D01*
X170214285Y-104810952D01*
X170261904Y-104858571D01*
X170357142Y-104906190D01*
X170738095Y-104906190D01*
X169261904Y-104382380D02*
X169738095Y-104382380D01*
X169785714Y-104858571D01*
X169738095Y-104810952D01*
X169642857Y-104763333D01*
X169404761Y-104763333D01*
X169309523Y-104810952D01*
X169261904Y-104858571D01*
X169214285Y-104953809D01*
X169214285Y-105191904D01*
X169261904Y-105287142D01*
X169309523Y-105334761D01*
X169404761Y-105382380D01*
X169642857Y-105382380D01*
X169738095Y-105334761D01*
X169785714Y-105287142D01*
%TO.C,C5*%
X157503887Y-117347142D02*
X157551506Y-117394761D01*
X157694363Y-117442380D01*
X157789601Y-117442380D01*
X157932459Y-117394761D01*
X158027697Y-117299523D01*
X158075316Y-117204285D01*
X158122935Y-117013809D01*
X158122935Y-116870952D01*
X158075316Y-116680476D01*
X158027697Y-116585238D01*
X157932459Y-116490000D01*
X157789601Y-116442380D01*
X157694363Y-116442380D01*
X157551506Y-116490000D01*
X157503887Y-116537619D01*
X156599125Y-116442380D02*
X157075316Y-116442380D01*
X157122935Y-116918571D01*
X157075316Y-116870952D01*
X156980078Y-116823333D01*
X156741982Y-116823333D01*
X156646744Y-116870952D01*
X156599125Y-116918571D01*
X156551506Y-117013809D01*
X156551506Y-117251904D01*
X156599125Y-117347142D01*
X156646744Y-117394761D01*
X156741982Y-117442380D01*
X156980078Y-117442380D01*
X157075316Y-117394761D01*
X157122935Y-117347142D01*
%TO.C,R1*%
X153166666Y-105952380D02*
X153500000Y-105476190D01*
X153738095Y-105952380D02*
X153738095Y-104952380D01*
X153357142Y-104952380D01*
X153261904Y-105000000D01*
X153214285Y-105047619D01*
X153166666Y-105142857D01*
X153166666Y-105285714D01*
X153214285Y-105380952D01*
X153261904Y-105428571D01*
X153357142Y-105476190D01*
X153738095Y-105476190D01*
X152214285Y-105952380D02*
X152785714Y-105952380D01*
X152500000Y-105952380D02*
X152500000Y-104952380D01*
X152595238Y-105095238D01*
X152690476Y-105190476D01*
X152785714Y-105238095D01*
%TO.C,C3*%
X149857142Y-103833333D02*
X149904761Y-103785714D01*
X149952380Y-103642857D01*
X149952380Y-103547619D01*
X149904761Y-103404761D01*
X149809523Y-103309523D01*
X149714285Y-103261904D01*
X149523809Y-103214285D01*
X149380952Y-103214285D01*
X149190476Y-103261904D01*
X149095238Y-103309523D01*
X149000000Y-103404761D01*
X148952380Y-103547619D01*
X148952380Y-103642857D01*
X149000000Y-103785714D01*
X149047619Y-103833333D01*
X148952380Y-104166666D02*
X148952380Y-104785714D01*
X149333333Y-104452380D01*
X149333333Y-104595238D01*
X149380952Y-104690476D01*
X149428571Y-104738095D01*
X149523809Y-104785714D01*
X149761904Y-104785714D01*
X149857142Y-104738095D01*
X149904761Y-104690476D01*
X149952380Y-104595238D01*
X149952380Y-104309523D01*
X149904761Y-104214285D01*
X149857142Y-104166666D01*
%TO.C,R1*%
X123166666Y-115952380D02*
X123500000Y-115476190D01*
X123738095Y-115952380D02*
X123738095Y-114952380D01*
X123357142Y-114952380D01*
X123261904Y-115000000D01*
X123214285Y-115047619D01*
X123166666Y-115142857D01*
X123166666Y-115285714D01*
X123214285Y-115380952D01*
X123261904Y-115428571D01*
X123357142Y-115476190D01*
X123738095Y-115476190D01*
X122214285Y-115952380D02*
X122785714Y-115952380D01*
X122500000Y-115952380D02*
X122500000Y-114952380D01*
X122595238Y-115095238D01*
X122690476Y-115190476D01*
X122785714Y-115238095D01*
X153166666Y-115952380D02*
X153500000Y-115476190D01*
X153738095Y-115952380D02*
X153738095Y-114952380D01*
X153357142Y-114952380D01*
X153261904Y-115000000D01*
X153214285Y-115047619D01*
X153166666Y-115142857D01*
X153166666Y-115285714D01*
X153214285Y-115380952D01*
X153261904Y-115428571D01*
X153357142Y-115476190D01*
X153738095Y-115476190D01*
X152214285Y-115952380D02*
X152785714Y-115952380D01*
X152500000Y-115952380D02*
X152500000Y-114952380D01*
X152595238Y-115095238D01*
X152690476Y-115190476D01*
X152785714Y-115238095D01*
%TO.C,C5*%
X157503887Y-107347142D02*
X157551506Y-107394761D01*
X157694363Y-107442380D01*
X157789601Y-107442380D01*
X157932459Y-107394761D01*
X158027697Y-107299523D01*
X158075316Y-107204285D01*
X158122935Y-107013809D01*
X158122935Y-106870952D01*
X158075316Y-106680476D01*
X158027697Y-106585238D01*
X157932459Y-106490000D01*
X157789601Y-106442380D01*
X157694363Y-106442380D01*
X157551506Y-106490000D01*
X157503887Y-106537619D01*
X156599125Y-106442380D02*
X157075316Y-106442380D01*
X157122935Y-106918571D01*
X157075316Y-106870952D01*
X156980078Y-106823333D01*
X156741982Y-106823333D01*
X156646744Y-106870952D01*
X156599125Y-106918571D01*
X156551506Y-107013809D01*
X156551506Y-107251904D01*
X156599125Y-107347142D01*
X156646744Y-107394761D01*
X156741982Y-107442380D01*
X156980078Y-107442380D01*
X157075316Y-107394761D01*
X157122935Y-107347142D01*
%TO.C,R5*%
X140166666Y-115382380D02*
X140500000Y-114906190D01*
X140738095Y-115382380D02*
X140738095Y-114382380D01*
X140357142Y-114382380D01*
X140261904Y-114430000D01*
X140214285Y-114477619D01*
X140166666Y-114572857D01*
X140166666Y-114715714D01*
X140214285Y-114810952D01*
X140261904Y-114858571D01*
X140357142Y-114906190D01*
X140738095Y-114906190D01*
X139261904Y-114382380D02*
X139738095Y-114382380D01*
X139785714Y-114858571D01*
X139738095Y-114810952D01*
X139642857Y-114763333D01*
X139404761Y-114763333D01*
X139309523Y-114810952D01*
X139261904Y-114858571D01*
X139214285Y-114953809D01*
X139214285Y-115191904D01*
X139261904Y-115287142D01*
X139309523Y-115334761D01*
X139404761Y-115382380D01*
X139642857Y-115382380D01*
X139738095Y-115334761D01*
X139785714Y-115287142D01*
X170166666Y-115382380D02*
X170500000Y-114906190D01*
X170738095Y-115382380D02*
X170738095Y-114382380D01*
X170357142Y-114382380D01*
X170261904Y-114430000D01*
X170214285Y-114477619D01*
X170166666Y-114572857D01*
X170166666Y-114715714D01*
X170214285Y-114810952D01*
X170261904Y-114858571D01*
X170357142Y-114906190D01*
X170738095Y-114906190D01*
X169261904Y-114382380D02*
X169738095Y-114382380D01*
X169785714Y-114858571D01*
X169738095Y-114810952D01*
X169642857Y-114763333D01*
X169404761Y-114763333D01*
X169309523Y-114810952D01*
X169261904Y-114858571D01*
X169214285Y-114953809D01*
X169214285Y-115191904D01*
X169261904Y-115287142D01*
X169309523Y-115334761D01*
X169404761Y-115382380D01*
X169642857Y-115382380D01*
X169738095Y-115334761D01*
X169785714Y-115287142D01*
%TO.C,R4*%
X137166666Y-111452380D02*
X137500000Y-110976190D01*
X137738095Y-111452380D02*
X137738095Y-110452380D01*
X137357142Y-110452380D01*
X137261904Y-110500000D01*
X137214285Y-110547619D01*
X137166666Y-110642857D01*
X137166666Y-110785714D01*
X137214285Y-110880952D01*
X137261904Y-110928571D01*
X137357142Y-110976190D01*
X137738095Y-110976190D01*
X136309523Y-110785714D02*
X136309523Y-111452380D01*
X136547619Y-110404761D02*
X136785714Y-111119047D01*
X136166666Y-111119047D01*
%TO.C,R6*%
X140166666Y-111452380D02*
X140500000Y-110976190D01*
X140738095Y-111452380D02*
X140738095Y-110452380D01*
X140357142Y-110452380D01*
X140261904Y-110500000D01*
X140214285Y-110547619D01*
X140166666Y-110642857D01*
X140166666Y-110785714D01*
X140214285Y-110880952D01*
X140261904Y-110928571D01*
X140357142Y-110976190D01*
X140738095Y-110976190D01*
X139309523Y-110452380D02*
X139500000Y-110452380D01*
X139595238Y-110500000D01*
X139642857Y-110547619D01*
X139738095Y-110690476D01*
X139785714Y-110880952D01*
X139785714Y-111261904D01*
X139738095Y-111357142D01*
X139690476Y-111404761D01*
X139595238Y-111452380D01*
X139404761Y-111452380D01*
X139309523Y-111404761D01*
X139261904Y-111357142D01*
X139214285Y-111261904D01*
X139214285Y-111023809D01*
X139261904Y-110928571D01*
X139309523Y-110880952D01*
X139404761Y-110833333D01*
X139595238Y-110833333D01*
X139690476Y-110880952D01*
X139738095Y-110928571D01*
X139785714Y-111023809D01*
%TO.C,C1*%
X118166666Y-111867142D02*
X118214285Y-111914761D01*
X118357142Y-111962380D01*
X118452380Y-111962380D01*
X118595238Y-111914761D01*
X118690476Y-111819523D01*
X118738095Y-111724285D01*
X118785714Y-111533809D01*
X118785714Y-111390952D01*
X118738095Y-111200476D01*
X118690476Y-111105238D01*
X118595238Y-111010000D01*
X118452380Y-110962380D01*
X118357142Y-110962380D01*
X118214285Y-111010000D01*
X118166666Y-111057619D01*
X117214285Y-111962380D02*
X117785714Y-111962380D01*
X117500000Y-111962380D02*
X117500000Y-110962380D01*
X117595238Y-111105238D01*
X117690476Y-111200476D01*
X117785714Y-111248095D01*
X148166666Y-101867142D02*
X148214285Y-101914761D01*
X148357142Y-101962380D01*
X148452380Y-101962380D01*
X148595238Y-101914761D01*
X148690476Y-101819523D01*
X148738095Y-101724285D01*
X148785714Y-101533809D01*
X148785714Y-101390952D01*
X148738095Y-101200476D01*
X148690476Y-101105238D01*
X148595238Y-101010000D01*
X148452380Y-100962380D01*
X148357142Y-100962380D01*
X148214285Y-101010000D01*
X148166666Y-101057619D01*
X147214285Y-101962380D02*
X147785714Y-101962380D01*
X147500000Y-101962380D02*
X147500000Y-100962380D01*
X147595238Y-101105238D01*
X147690476Y-101200476D01*
X147785714Y-101248095D01*
%TO.C,R2*%
X153166666Y-118452380D02*
X153500000Y-117976190D01*
X153738095Y-118452380D02*
X153738095Y-117452380D01*
X153357142Y-117452380D01*
X153261904Y-117500000D01*
X153214285Y-117547619D01*
X153166666Y-117642857D01*
X153166666Y-117785714D01*
X153214285Y-117880952D01*
X153261904Y-117928571D01*
X153357142Y-117976190D01*
X153738095Y-117976190D01*
X152785714Y-117547619D02*
X152738095Y-117500000D01*
X152642857Y-117452380D01*
X152404761Y-117452380D01*
X152309523Y-117500000D01*
X152261904Y-117547619D01*
X152214285Y-117642857D01*
X152214285Y-117738095D01*
X152261904Y-117880952D01*
X152833333Y-118452380D01*
X152214285Y-118452380D01*
%TO.C,C4*%
X153357142Y-113833333D02*
X153404761Y-113785714D01*
X153452380Y-113642857D01*
X153452380Y-113547619D01*
X153404761Y-113404761D01*
X153309523Y-113309523D01*
X153214285Y-113261904D01*
X153023809Y-113214285D01*
X152880952Y-113214285D01*
X152690476Y-113261904D01*
X152595238Y-113309523D01*
X152500000Y-113404761D01*
X152452380Y-113547619D01*
X152452380Y-113642857D01*
X152500000Y-113785714D01*
X152547619Y-113833333D01*
X152785714Y-114690476D02*
X153452380Y-114690476D01*
X152404761Y-114452380D02*
X153119047Y-114214285D01*
X153119047Y-114833333D01*
%TO.C,C2*%
X151166666Y-112357142D02*
X151214285Y-112404761D01*
X151357142Y-112452380D01*
X151452380Y-112452380D01*
X151595238Y-112404761D01*
X151690476Y-112309523D01*
X151738095Y-112214285D01*
X151785714Y-112023809D01*
X151785714Y-111880952D01*
X151738095Y-111690476D01*
X151690476Y-111595238D01*
X151595238Y-111500000D01*
X151452380Y-111452380D01*
X151357142Y-111452380D01*
X151214285Y-111500000D01*
X151166666Y-111547619D01*
X150785714Y-111547619D02*
X150738095Y-111500000D01*
X150642857Y-111452380D01*
X150404761Y-111452380D01*
X150309523Y-111500000D01*
X150261904Y-111547619D01*
X150214285Y-111642857D01*
X150214285Y-111738095D01*
X150261904Y-111880952D01*
X150833333Y-112452380D01*
X150214285Y-112452380D01*
%TO.C,U1*%
X145452380Y-112738095D02*
X146261904Y-112738095D01*
X146357142Y-112785714D01*
X146404761Y-112833333D01*
X146452380Y-112928571D01*
X146452380Y-113119047D01*
X146404761Y-113214285D01*
X146357142Y-113261904D01*
X146261904Y-113309523D01*
X145452380Y-113309523D01*
X146452380Y-114309523D02*
X146452380Y-113738095D01*
X146452380Y-114023809D02*
X145452380Y-114023809D01*
X145595238Y-113928571D01*
X145690476Y-113833333D01*
X145738095Y-113738095D01*
%TO.C,R6*%
X170166666Y-111452380D02*
X170500000Y-110976190D01*
X170738095Y-111452380D02*
X170738095Y-110452380D01*
X170357142Y-110452380D01*
X170261904Y-110500000D01*
X170214285Y-110547619D01*
X170166666Y-110642857D01*
X170166666Y-110785714D01*
X170214285Y-110880952D01*
X170261904Y-110928571D01*
X170357142Y-110976190D01*
X170738095Y-110976190D01*
X169309523Y-110452380D02*
X169500000Y-110452380D01*
X169595238Y-110500000D01*
X169642857Y-110547619D01*
X169738095Y-110690476D01*
X169785714Y-110880952D01*
X169785714Y-111261904D01*
X169738095Y-111357142D01*
X169690476Y-111404761D01*
X169595238Y-111452380D01*
X169404761Y-111452380D01*
X169309523Y-111404761D01*
X169261904Y-111357142D01*
X169214285Y-111261904D01*
X169214285Y-111023809D01*
X169261904Y-110928571D01*
X169309523Y-110880952D01*
X169404761Y-110833333D01*
X169595238Y-110833333D01*
X169690476Y-110880952D01*
X169738095Y-110928571D01*
X169785714Y-111023809D01*
%TO.C,Q1*%
X168595238Y-119547619D02*
X168690476Y-119500000D01*
X168785714Y-119404761D01*
X168928571Y-119261904D01*
X169023809Y-119214285D01*
X169119047Y-119214285D01*
X169071428Y-119452380D02*
X169166666Y-119404761D01*
X169261904Y-119309523D01*
X169309523Y-119119047D01*
X169309523Y-118785714D01*
X169261904Y-118595238D01*
X169166666Y-118500000D01*
X169071428Y-118452380D01*
X168880952Y-118452380D01*
X168785714Y-118500000D01*
X168690476Y-118595238D01*
X168642857Y-118785714D01*
X168642857Y-119119047D01*
X168690476Y-119309523D01*
X168785714Y-119404761D01*
X168880952Y-119452380D01*
X169071428Y-119452380D01*
X167690476Y-119452380D02*
X168261904Y-119452380D01*
X167976190Y-119452380D02*
X167976190Y-118452380D01*
X168071428Y-118595238D01*
X168166666Y-118690476D01*
X168261904Y-118738095D01*
%TO.C,R3*%
X167166666Y-104952380D02*
X167500000Y-104476190D01*
X167738095Y-104952380D02*
X167738095Y-103952380D01*
X167357142Y-103952380D01*
X167261904Y-104000000D01*
X167214285Y-104047619D01*
X167166666Y-104142857D01*
X167166666Y-104285714D01*
X167214285Y-104380952D01*
X167261904Y-104428571D01*
X167357142Y-104476190D01*
X167738095Y-104476190D01*
X166833333Y-103952380D02*
X166214285Y-103952380D01*
X166547619Y-104333333D01*
X166404761Y-104333333D01*
X166309523Y-104380952D01*
X166261904Y-104428571D01*
X166214285Y-104523809D01*
X166214285Y-104761904D01*
X166261904Y-104857142D01*
X166309523Y-104904761D01*
X166404761Y-104952380D01*
X166690476Y-104952380D01*
X166785714Y-104904761D01*
X166833333Y-104857142D01*
%TO.C,U1*%
X145452380Y-102738095D02*
X146261904Y-102738095D01*
X146357142Y-102785714D01*
X146404761Y-102833333D01*
X146452380Y-102928571D01*
X146452380Y-103119047D01*
X146404761Y-103214285D01*
X146357142Y-103261904D01*
X146261904Y-103309523D01*
X145452380Y-103309523D01*
X146452380Y-104309523D02*
X146452380Y-103738095D01*
X146452380Y-104023809D02*
X145452380Y-104023809D01*
X145595238Y-103928571D01*
X145690476Y-103833333D01*
X145738095Y-103738095D01*
%TO.C,R4*%
X167166666Y-101452380D02*
X167500000Y-100976190D01*
X167738095Y-101452380D02*
X167738095Y-100452380D01*
X167357142Y-100452380D01*
X167261904Y-100500000D01*
X167214285Y-100547619D01*
X167166666Y-100642857D01*
X167166666Y-100785714D01*
X167214285Y-100880952D01*
X167261904Y-100928571D01*
X167357142Y-100976190D01*
X167738095Y-100976190D01*
X166309523Y-100785714D02*
X166309523Y-101452380D01*
X166547619Y-100404761D02*
X166785714Y-101119047D01*
X166166666Y-101119047D01*
%TO.C,R8*%
X173166666Y-101452380D02*
X173500000Y-100976190D01*
X173738095Y-101452380D02*
X173738095Y-100452380D01*
X173357142Y-100452380D01*
X173261904Y-100500000D01*
X173214285Y-100547619D01*
X173166666Y-100642857D01*
X173166666Y-100785714D01*
X173214285Y-100880952D01*
X173261904Y-100928571D01*
X173357142Y-100976190D01*
X173738095Y-100976190D01*
X172595238Y-100880952D02*
X172690476Y-100833333D01*
X172738095Y-100785714D01*
X172785714Y-100690476D01*
X172785714Y-100642857D01*
X172738095Y-100547619D01*
X172690476Y-100500000D01*
X172595238Y-100452380D01*
X172404761Y-100452380D01*
X172309523Y-100500000D01*
X172261904Y-100547619D01*
X172214285Y-100642857D01*
X172214285Y-100690476D01*
X172261904Y-100785714D01*
X172309523Y-100833333D01*
X172404761Y-100880952D01*
X172595238Y-100880952D01*
X172690476Y-100928571D01*
X172738095Y-100976190D01*
X172785714Y-101071428D01*
X172785714Y-101261904D01*
X172738095Y-101357142D01*
X172690476Y-101404761D01*
X172595238Y-101452380D01*
X172404761Y-101452380D01*
X172309523Y-101404761D01*
X172261904Y-101357142D01*
X172214285Y-101261904D01*
X172214285Y-101071428D01*
X172261904Y-100976190D01*
X172309523Y-100928571D01*
X172404761Y-100880952D01*
%TO.C,C4*%
X153357142Y-103833333D02*
X153404761Y-103785714D01*
X153452380Y-103642857D01*
X153452380Y-103547619D01*
X153404761Y-103404761D01*
X153309523Y-103309523D01*
X153214285Y-103261904D01*
X153023809Y-103214285D01*
X152880952Y-103214285D01*
X152690476Y-103261904D01*
X152595238Y-103309523D01*
X152500000Y-103404761D01*
X152452380Y-103547619D01*
X152452380Y-103642857D01*
X152500000Y-103785714D01*
X152547619Y-103833333D01*
X152785714Y-104690476D02*
X153452380Y-104690476D01*
X152404761Y-104452380D02*
X153119047Y-104214285D01*
X153119047Y-104833333D01*
%TO.C,J1*%
X123947380Y-113304166D02*
X124661666Y-113304166D01*
X124804523Y-113256547D01*
X124899761Y-113161309D01*
X124947380Y-113018452D01*
X124947380Y-112923214D01*
X124947380Y-114304166D02*
X124947380Y-113732738D01*
X124947380Y-114018452D02*
X123947380Y-114018452D01*
X124090238Y-113923214D01*
X124185476Y-113827976D01*
X124233095Y-113732738D01*
D11*
%TO.C,C1*%
X117837221Y-100490000D02*
X118162779Y-100490000D01*
X117837221Y-101510000D02*
X118162779Y-101510000D01*
%TO.C,C2*%
X121162779Y-101510000D02*
X120837221Y-101510000D01*
X121162779Y-100490000D02*
X120837221Y-100490000D01*
%TO.C,C3*%
X121010000Y-104162779D02*
X121010000Y-103837221D01*
X119990000Y-104162779D02*
X119990000Y-103837221D01*
%TO.C,C4*%
X122510000Y-104162779D02*
X122510000Y-103837221D01*
X121490000Y-104162779D02*
X121490000Y-103837221D01*
%TO.C,C5*%
X127662779Y-108010000D02*
X127337221Y-108010000D01*
X127662779Y-106990000D02*
X127337221Y-106990000D01*
%TO.C,Q1*%
X137555000Y-107850000D02*
X139255000Y-107850000D01*
X137705000Y-106150000D02*
X139255000Y-106150000D01*
%TO.C,R1*%
X122837221Y-105990000D02*
X123162779Y-105990000D01*
X122837221Y-107010000D02*
X123162779Y-107010000D01*
%TO.C,R2*%
X122837221Y-109510000D02*
X123162779Y-109510000D01*
X122837221Y-108490000D02*
X123162779Y-108490000D01*
%TO.C,R3*%
X137162779Y-104010000D02*
X136837221Y-104010000D01*
X137162779Y-102990000D02*
X136837221Y-102990000D01*
%TO.C,R4*%
X137162779Y-101490000D02*
X136837221Y-101490000D01*
X137162779Y-102510000D02*
X136837221Y-102510000D01*
%TO.C,R5*%
X139837221Y-102990000D02*
X140162779Y-102990000D01*
X139837221Y-104010000D02*
X140162779Y-104010000D01*
%TO.C,R6*%
X139837221Y-101490000D02*
X140162779Y-101490000D01*
X139837221Y-102510000D02*
X140162779Y-102510000D01*
%TO.C,R7*%
X142837221Y-104010000D02*
X143162779Y-104010000D01*
X142837221Y-102990000D02*
X143162779Y-102990000D01*
%TO.C,R8*%
X142837221Y-101490000D02*
X143162779Y-101490000D01*
X142837221Y-102510000D02*
X143162779Y-102510000D01*
%TO.C,U1*%
X116390000Y-104400000D02*
X116390000Y-101950000D01*
X119610000Y-102600000D02*
X119610000Y-104400000D01*
%TO.C,R3*%
X167162779Y-112990000D02*
X166837221Y-112990000D01*
X167162779Y-114010000D02*
X166837221Y-114010000D01*
X137162779Y-112990000D02*
X136837221Y-112990000D01*
X137162779Y-114010000D02*
X136837221Y-114010000D01*
%TO.C,Q1*%
X167555000Y-107850000D02*
X169255000Y-107850000D01*
X167705000Y-106150000D02*
X169255000Y-106150000D01*
%TO.C,C3*%
X119990000Y-114162779D02*
X119990000Y-113837221D01*
X121010000Y-114162779D02*
X121010000Y-113837221D01*
%TO.C,C2*%
X151162779Y-100490000D02*
X150837221Y-100490000D01*
X151162779Y-101510000D02*
X150837221Y-101510000D01*
%TO.C,C1*%
X147837221Y-111510000D02*
X148162779Y-111510000D01*
X147837221Y-110490000D02*
X148162779Y-110490000D01*
%TO.C,R7*%
X172837221Y-102990000D02*
X173162779Y-102990000D01*
X172837221Y-104010000D02*
X173162779Y-104010000D01*
%TO.C,R2*%
X152837221Y-108490000D02*
X153162779Y-108490000D01*
X152837221Y-109510000D02*
X153162779Y-109510000D01*
%TO.C,R4*%
X167162779Y-111490000D02*
X166837221Y-111490000D01*
X167162779Y-112510000D02*
X166837221Y-112510000D01*
%TO.C,R6*%
X169837221Y-102510000D02*
X170162779Y-102510000D01*
X169837221Y-101490000D02*
X170162779Y-101490000D01*
%TO.C,R2*%
X122837221Y-119510000D02*
X123162779Y-119510000D01*
X122837221Y-118490000D02*
X123162779Y-118490000D01*
%TO.C,C2*%
X121162779Y-110490000D02*
X120837221Y-110490000D01*
X121162779Y-111510000D02*
X120837221Y-111510000D01*
%TO.C,J1*%
X164395000Y-102527500D02*
X164505000Y-102527500D01*
X160585000Y-102527500D02*
X161955000Y-102527500D01*
X155505000Y-102527500D02*
X156875000Y-102527500D01*
X163125000Y-102527500D02*
X164495000Y-102527500D01*
X158045000Y-102527500D02*
X159415000Y-102527500D01*
%TO.C,R8*%
X172837221Y-111490000D02*
X173162779Y-111490000D01*
X172837221Y-112510000D02*
X173162779Y-112510000D01*
%TO.C,R7*%
X172837221Y-112990000D02*
X173162779Y-112990000D01*
X172837221Y-114010000D02*
X173162779Y-114010000D01*
%TO.C,C4*%
X121490000Y-114162779D02*
X121490000Y-113837221D01*
X122510000Y-114162779D02*
X122510000Y-113837221D01*
%TO.C,C5*%
X127662779Y-116990000D02*
X127337221Y-116990000D01*
X127662779Y-118010000D02*
X127337221Y-118010000D01*
%TO.C,R8*%
X142837221Y-111490000D02*
X143162779Y-111490000D01*
X142837221Y-112510000D02*
X143162779Y-112510000D01*
%TO.C,J1*%
X164395000Y-112527500D02*
X164505000Y-112527500D01*
X158045000Y-112527500D02*
X159415000Y-112527500D01*
X163125000Y-112527500D02*
X164495000Y-112527500D01*
X160585000Y-112527500D02*
X161955000Y-112527500D01*
X155505000Y-112527500D02*
X156875000Y-112527500D01*
%TO.C,U1*%
X116390000Y-114400000D02*
X116390000Y-111950000D01*
X119610000Y-112600000D02*
X119610000Y-114400000D01*
%TO.C,J1*%
X128045000Y-102527500D02*
X129415000Y-102527500D01*
X130585000Y-102527500D02*
X131955000Y-102527500D01*
X125505000Y-102527500D02*
X126875000Y-102527500D01*
X133125000Y-102527500D02*
X134495000Y-102527500D01*
X134395000Y-102527500D02*
X134505000Y-102527500D01*
%TO.C,Q1*%
X137705000Y-116150000D02*
X139255000Y-116150000D01*
X137555000Y-117850000D02*
X139255000Y-117850000D01*
%TO.C,C3*%
X151010000Y-114162779D02*
X151010000Y-113837221D01*
X149990000Y-114162779D02*
X149990000Y-113837221D01*
%TO.C,R7*%
X142837221Y-114010000D02*
X143162779Y-114010000D01*
X142837221Y-112990000D02*
X143162779Y-112990000D01*
%TO.C,R5*%
X169837221Y-102990000D02*
X170162779Y-102990000D01*
X169837221Y-104010000D02*
X170162779Y-104010000D01*
%TO.C,C5*%
X157662779Y-118010000D02*
X157337221Y-118010000D01*
X157662779Y-116990000D02*
X157337221Y-116990000D01*
%TO.C,R1*%
X152837221Y-105990000D02*
X153162779Y-105990000D01*
X152837221Y-107010000D02*
X153162779Y-107010000D01*
%TO.C,C3*%
X151010000Y-104162779D02*
X151010000Y-103837221D01*
X149990000Y-104162779D02*
X149990000Y-103837221D01*
%TO.C,R1*%
X122837221Y-115990000D02*
X123162779Y-115990000D01*
X122837221Y-117010000D02*
X123162779Y-117010000D01*
X152837221Y-117010000D02*
X153162779Y-117010000D01*
X152837221Y-115990000D02*
X153162779Y-115990000D01*
%TO.C,C5*%
X157662779Y-106990000D02*
X157337221Y-106990000D01*
X157662779Y-108010000D02*
X157337221Y-108010000D01*
%TO.C,R5*%
X139837221Y-114010000D02*
X140162779Y-114010000D01*
X139837221Y-112990000D02*
X140162779Y-112990000D01*
X169837221Y-114010000D02*
X170162779Y-114010000D01*
X169837221Y-112990000D02*
X170162779Y-112990000D01*
%TO.C,R4*%
X137162779Y-111490000D02*
X136837221Y-111490000D01*
X137162779Y-112510000D02*
X136837221Y-112510000D01*
%TO.C,R6*%
X139837221Y-111490000D02*
X140162779Y-111490000D01*
X139837221Y-112510000D02*
X140162779Y-112510000D01*
%TO.C,C1*%
X117837221Y-110490000D02*
X118162779Y-110490000D01*
X117837221Y-111510000D02*
X118162779Y-111510000D01*
X147837221Y-101510000D02*
X148162779Y-101510000D01*
X147837221Y-100490000D02*
X148162779Y-100490000D01*
%TO.C,R2*%
X152837221Y-118490000D02*
X153162779Y-118490000D01*
X152837221Y-119510000D02*
X153162779Y-119510000D01*
%TO.C,C4*%
X151490000Y-114162779D02*
X151490000Y-113837221D01*
X152510000Y-114162779D02*
X152510000Y-113837221D01*
%TO.C,C2*%
X151162779Y-111510000D02*
X150837221Y-111510000D01*
X151162779Y-110490000D02*
X150837221Y-110490000D01*
%TO.C,U1*%
X149610000Y-112600000D02*
X149610000Y-114400000D01*
X146390000Y-114400000D02*
X146390000Y-111950000D01*
%TO.C,R6*%
X169837221Y-111490000D02*
X170162779Y-111490000D01*
X169837221Y-112510000D02*
X170162779Y-112510000D01*
%TO.C,Q1*%
X167555000Y-117850000D02*
X169255000Y-117850000D01*
X167705000Y-116150000D02*
X169255000Y-116150000D01*
%TO.C,R3*%
X167162779Y-102990000D02*
X166837221Y-102990000D01*
X167162779Y-104010000D02*
X166837221Y-104010000D01*
%TO.C,U1*%
X146390000Y-104400000D02*
X146390000Y-101950000D01*
X149610000Y-102600000D02*
X149610000Y-104400000D01*
%TO.C,R4*%
X167162779Y-101490000D02*
X166837221Y-101490000D01*
X167162779Y-102510000D02*
X166837221Y-102510000D01*
%TO.C,R8*%
X172837221Y-102510000D02*
X173162779Y-102510000D01*
X172837221Y-101490000D02*
X173162779Y-101490000D01*
%TO.C,C4*%
X151490000Y-104162779D02*
X151490000Y-103837221D01*
X152510000Y-104162779D02*
X152510000Y-103837221D01*
%TO.C,J1*%
X125505000Y-112527500D02*
X126875000Y-112527500D01*
X133125000Y-112527500D02*
X134495000Y-112527500D01*
X130585000Y-112527500D02*
X131955000Y-112527500D01*
X128045000Y-112527500D02*
X129415000Y-112527500D01*
X134395000Y-112527500D02*
X134505000Y-112527500D01*
%TD*%
%LPC*%
D12*
%TO.C,C1*%
X117212500Y-101000000D03*
X118787500Y-101000000D03*
%TD*%
D13*
%TO.C,C2*%
X121787500Y-101000000D03*
X120212500Y-101000000D03*
%TD*%
D14*
%TO.C,C3*%
X120500000Y-104787500D03*
X120500000Y-103212500D03*
%TD*%
%TO.C,C4*%
X122000000Y-104787500D03*
X122000000Y-103212500D03*
%TD*%
D13*
%TO.C,C5*%
X128287500Y-107500000D03*
X126712500Y-107500000D03*
%TD*%
D15*
%TO.C,Q1*%
X137975000Y-107500000D03*
D16*
X137925000Y-107000000D03*
X137925000Y-106500000D03*
X139075000Y-106500000D03*
X139075000Y-107000000D03*
X139075000Y-107500000D03*
%TD*%
D12*
%TO.C,R1*%
X122212500Y-106500000D03*
X123787500Y-106500000D03*
%TD*%
%TO.C,R2*%
X122212500Y-109000000D03*
X123787500Y-109000000D03*
%TD*%
D13*
%TO.C,R3*%
X137787500Y-103500000D03*
X136212500Y-103500000D03*
%TD*%
%TO.C,R4*%
X137787500Y-102000000D03*
X136212500Y-102000000D03*
%TD*%
D12*
%TO.C,R5*%
X139212500Y-103500000D03*
X140787500Y-103500000D03*
%TD*%
%TO.C,R6*%
X139212500Y-102000000D03*
X140787500Y-102000000D03*
%TD*%
%TO.C,R7*%
X142212500Y-103500000D03*
X143787500Y-103500000D03*
%TD*%
%TO.C,R8*%
X142212500Y-102000000D03*
X143787500Y-102000000D03*
%TD*%
D17*
%TO.C,U1*%
X117050000Y-102400000D03*
X118000000Y-102400000D03*
X118950000Y-102400000D03*
X118950000Y-104600000D03*
X117050000Y-104600000D03*
%TD*%
D13*
%TO.C,R3*%
X167787500Y-113500000D03*
X166212500Y-113500000D03*
%TD*%
%TO.C,R3*%
X137787500Y-113500000D03*
X136212500Y-113500000D03*
%TD*%
D15*
%TO.C,Q1*%
X167975000Y-107500000D03*
D16*
X167925000Y-107000000D03*
X167925000Y-106500000D03*
X169075000Y-106500000D03*
X169075000Y-107000000D03*
X169075000Y-107500000D03*
%TD*%
D14*
%TO.C,C3*%
X120500000Y-114787500D03*
X120500000Y-113212500D03*
%TD*%
D13*
%TO.C,C2*%
X151787500Y-101000000D03*
X150212500Y-101000000D03*
%TD*%
D12*
%TO.C,C1*%
X147212500Y-111000000D03*
X148787500Y-111000000D03*
%TD*%
%TO.C,R7*%
X172212500Y-103500000D03*
X173787500Y-103500000D03*
%TD*%
%TO.C,R2*%
X152212500Y-109000000D03*
X153787500Y-109000000D03*
%TD*%
D13*
%TO.C,R4*%
X167787500Y-112000000D03*
X166212500Y-112000000D03*
%TD*%
D12*
%TO.C,R6*%
X169212500Y-102000000D03*
X170787500Y-102000000D03*
%TD*%
%TO.C,R2*%
X122212500Y-119000000D03*
X123787500Y-119000000D03*
%TD*%
D13*
%TO.C,C2*%
X121787500Y-111000000D03*
X120212500Y-111000000D03*
%TD*%
D18*
%TO.C,J1*%
X156190000Y-102137500D03*
X157460000Y-102137500D03*
X158730000Y-102137500D03*
X160000000Y-102137500D03*
X161270000Y-102137500D03*
X162540000Y-102137500D03*
X163810000Y-102137500D03*
%TD*%
D12*
%TO.C,R8*%
X172212500Y-112000000D03*
X173787500Y-112000000D03*
%TD*%
%TO.C,R7*%
X172212500Y-113500000D03*
X173787500Y-113500000D03*
%TD*%
D14*
%TO.C,C4*%
X122000000Y-114787500D03*
X122000000Y-113212500D03*
%TD*%
D13*
%TO.C,C5*%
X128287500Y-117500000D03*
X126712500Y-117500000D03*
%TD*%
D12*
%TO.C,R8*%
X142212500Y-112000000D03*
X143787500Y-112000000D03*
%TD*%
D18*
%TO.C,J1*%
X156190000Y-112137500D03*
X157460000Y-112137500D03*
X158730000Y-112137500D03*
X160000000Y-112137500D03*
X161270000Y-112137500D03*
X162540000Y-112137500D03*
X163810000Y-112137500D03*
%TD*%
D17*
%TO.C,U1*%
X117050000Y-112400000D03*
X118000000Y-112400000D03*
X118950000Y-112400000D03*
X118950000Y-114600000D03*
X117050000Y-114600000D03*
%TD*%
D18*
%TO.C,J1*%
X126190000Y-102137500D03*
X127460000Y-102137500D03*
X128730000Y-102137500D03*
X130000000Y-102137500D03*
X131270000Y-102137500D03*
X132540000Y-102137500D03*
X133810000Y-102137500D03*
%TD*%
D15*
%TO.C,Q1*%
X137975000Y-117500000D03*
D16*
X137925000Y-117000000D03*
X137925000Y-116500000D03*
X139075000Y-116500000D03*
X139075000Y-117000000D03*
X139075000Y-117500000D03*
%TD*%
D14*
%TO.C,C3*%
X150500000Y-114787500D03*
X150500000Y-113212500D03*
%TD*%
D12*
%TO.C,R7*%
X142212500Y-113500000D03*
X143787500Y-113500000D03*
%TD*%
%TO.C,R5*%
X169212500Y-103500000D03*
X170787500Y-103500000D03*
%TD*%
D13*
%TO.C,C5*%
X158287500Y-117500000D03*
X156712500Y-117500000D03*
%TD*%
D12*
%TO.C,R1*%
X152212500Y-106500000D03*
X153787500Y-106500000D03*
%TD*%
D14*
%TO.C,C3*%
X150500000Y-104787500D03*
X150500000Y-103212500D03*
%TD*%
D12*
%TO.C,R1*%
X122212500Y-116500000D03*
X123787500Y-116500000D03*
%TD*%
%TO.C,R1*%
X152212500Y-116500000D03*
X153787500Y-116500000D03*
%TD*%
D13*
%TO.C,C5*%
X158287500Y-107500000D03*
X156712500Y-107500000D03*
%TD*%
D12*
%TO.C,R5*%
X139212500Y-113500000D03*
X140787500Y-113500000D03*
%TD*%
%TO.C,R5*%
X169212500Y-113500000D03*
X170787500Y-113500000D03*
%TD*%
D13*
%TO.C,R4*%
X137787500Y-112000000D03*
X136212500Y-112000000D03*
%TD*%
D12*
%TO.C,R6*%
X139212500Y-112000000D03*
X140787500Y-112000000D03*
%TD*%
%TO.C,C1*%
X117212500Y-111000000D03*
X118787500Y-111000000D03*
%TD*%
%TO.C,C1*%
X147212500Y-101000000D03*
X148787500Y-101000000D03*
%TD*%
%TO.C,R2*%
X152212500Y-119000000D03*
X153787500Y-119000000D03*
%TD*%
D14*
%TO.C,C4*%
X152000000Y-114787500D03*
X152000000Y-113212500D03*
%TD*%
D13*
%TO.C,C2*%
X151787500Y-111000000D03*
X150212500Y-111000000D03*
%TD*%
D17*
%TO.C,U1*%
X147050000Y-112400000D03*
X148000000Y-112400000D03*
X148950000Y-112400000D03*
X148950000Y-114600000D03*
X147050000Y-114600000D03*
%TD*%
D12*
%TO.C,R6*%
X169212500Y-112000000D03*
X170787500Y-112000000D03*
%TD*%
D15*
%TO.C,Q1*%
X167975000Y-117500000D03*
D16*
X167925000Y-117000000D03*
X167925000Y-116500000D03*
X169075000Y-116500000D03*
X169075000Y-117000000D03*
X169075000Y-117500000D03*
%TD*%
D13*
%TO.C,R3*%
X167787500Y-103500000D03*
X166212500Y-103500000D03*
%TD*%
D17*
%TO.C,U1*%
X147050000Y-102400000D03*
X148000000Y-102400000D03*
X148950000Y-102400000D03*
X148950000Y-104600000D03*
X147050000Y-104600000D03*
%TD*%
D13*
%TO.C,R4*%
X167787500Y-102000000D03*
X166212500Y-102000000D03*
%TD*%
D12*
%TO.C,R8*%
X172212500Y-102000000D03*
X173787500Y-102000000D03*
%TD*%
D14*
%TO.C,C4*%
X152000000Y-104787500D03*
X152000000Y-103212500D03*
%TD*%
D18*
%TO.C,J1*%
X126190000Y-112137500D03*
X127460000Y-112137500D03*
X128730000Y-112137500D03*
X130000000Y-112137500D03*
X131270000Y-112137500D03*
X132540000Y-112137500D03*
X133810000Y-112137500D03*
%TD*%
M02*
