M48
; DRILL file {KiCad (6.0.1)} date Fri Dec  2 00:54:47 2022
; FORMAT={-:-/ absolute / metric / decimal}
; #@! TF.CreationDate,2022-12-02T00:54:47+09:00
; #@! TF.GenerationSoftware,Kicad,Pcbnew,(6.0.1)
; #@! TF.FileFunction,MixedPlating,1,2
FMAT,2
METRIC
; #@! TA.AperFunction,Plated,PTH,ViaDrill
T1C0.400
; #@! TA.AperFunction,Plated,PTH,ViaDrill
T2C1.600
%
G90
G05
T1
X120.901Y-105.998
X120.901Y-115.998
X123.724Y-103.587
X123.724Y-113.587
X124.743Y-107.248
X124.743Y-117.248
X127.0Y-106.5
X127.0Y-116.5
X129.5Y-107.5
X129.5Y-117.5
X133.505Y-108.13
X133.505Y-118.13
X134.733Y-108.342
X134.733Y-118.342
X136.92Y-106.325
X136.92Y-116.325
X138.188Y-108.613
X138.188Y-118.613
X139.338Y-108.278
X139.338Y-118.278
X139.498Y-104.941
X139.498Y-114.941
X140.417Y-105.453
X140.417Y-115.453
X150.901Y-105.998
X150.901Y-115.998
X153.724Y-103.587
X153.724Y-113.587
X154.743Y-107.248
X154.743Y-117.248
X157.0Y-106.5
X157.0Y-116.5
X159.5Y-107.5
X159.5Y-117.5
X163.505Y-108.13
X163.505Y-118.13
X164.733Y-108.342
X164.733Y-118.342
X166.92Y-106.325
X166.92Y-116.325
X168.188Y-108.613
X168.188Y-118.613
X169.338Y-108.278
X169.338Y-118.278
X169.498Y-104.941
X169.498Y-114.941
X170.417Y-105.453
X170.417Y-115.453
T2
X117.0Y-108.0
X117.0Y-118.0
X143.0Y-108.0
X143.0Y-118.0
X147.0Y-108.0
X147.0Y-118.0
X173.0Y-108.0
X173.0Y-118.0
T0
M30
