%TF.GenerationSoftware,KiCad,Pcbnew,(6.0.1)*%
%TF.CreationDate,2022-12-02T00:54:43+09:00*%
%TF.ProjectId,VL6180ToF,564c3631-3830-4546-9f46-2e6b69636164,rev?*%
%TF.SameCoordinates,Original*%
%TF.FileFunction,Copper,L1,Top*%
%TF.FilePolarity,Positive*%
%FSLAX46Y46*%
G04 Gerber Fmt 4.6, Leading zero omitted, Abs format (unit mm)*
G04 Created by KiCad (PCBNEW (6.0.1)) date 2022-12-02 00:54:43*
%MOMM*%
%LPD*%
G01*
G04 APERTURE LIST*
%TA.AperFunction,SMDPad,CuDef*%
%ADD10R,0.508800X1.011199*%
%TD*%
%TA.AperFunction,ViaPad*%
%ADD11C,2.500000*%
%TD*%
%TA.AperFunction,ViaPad*%
%ADD12C,0.800000*%
%TD*%
%TA.AperFunction,Conductor*%
%ADD13C,0.250000*%
%TD*%
G04 APERTURE END LIST*
D10*
%TO.P,U2,1,GPIO1*%
%TO.N,Net-(R6-Pad2)*%
X128125000Y-108742200D03*
%TO.P,U2,2,NC*%
%TO.N,unconnected-(U2-Pad2)*%
X128875001Y-108742200D03*
%TO.P,U2,3,NC*%
%TO.N,unconnected-(U2-Pad3)*%
X129624999Y-108742200D03*
%TO.P,U2,4,GPIO0*%
%TO.N,Net-(R5-Pad2)*%
X130375001Y-108742200D03*
%TO.P,U2,5,SCL*%
%TO.N,Net-(Q1-Pad1)*%
X131124999Y-108742200D03*
%TO.P,U2,6,SDA*%
%TO.N,Net-(Q1-Pad4)*%
X131875000Y-108742200D03*
%TO.P,U2,7,NC*%
%TO.N,unconnected-(U2-Pad7)*%
X131875000Y-106257800D03*
%TO.P,U2,8,AVDD_VCSEL*%
%TO.N,VDD*%
X131124999Y-106257800D03*
%TO.P,U2,9,AVSS_VCSEL*%
%TO.N,GND*%
X130375001Y-106257800D03*
%TO.P,U2,10,AVDD*%
%TO.N,VDD*%
X129624999Y-106257800D03*
%TO.P,U2,11,NC*%
%TO.N,unconnected-(U2-Pad11)*%
X128875001Y-106257800D03*
%TO.P,U2,12,AVSS*%
%TO.N,GND*%
X128125000Y-106257800D03*
%TD*%
%TO.P,U2,1,GPIO1*%
%TO.N,Net-(R6-Pad2)*%
X128125000Y-118742200D03*
%TO.P,U2,2,NC*%
%TO.N,unconnected-(U2-Pad2)*%
X128875001Y-118742200D03*
%TO.P,U2,3,NC*%
%TO.N,unconnected-(U2-Pad3)*%
X129624999Y-118742200D03*
%TO.P,U2,4,GPIO0*%
%TO.N,Net-(R5-Pad2)*%
X130375001Y-118742200D03*
%TO.P,U2,5,SCL*%
%TO.N,Net-(Q1-Pad1)*%
X131124999Y-118742200D03*
%TO.P,U2,6,SDA*%
%TO.N,Net-(Q1-Pad4)*%
X131875000Y-118742200D03*
%TO.P,U2,7,NC*%
%TO.N,unconnected-(U2-Pad7)*%
X131875000Y-116257800D03*
%TO.P,U2,8,AVDD_VCSEL*%
%TO.N,VDD*%
X131124999Y-116257800D03*
%TO.P,U2,9,AVSS_VCSEL*%
%TO.N,GND*%
X130375001Y-116257800D03*
%TO.P,U2,10,AVDD*%
%TO.N,VDD*%
X129624999Y-116257800D03*
%TO.P,U2,11,NC*%
%TO.N,unconnected-(U2-Pad11)*%
X128875001Y-116257800D03*
%TO.P,U2,12,AVSS*%
%TO.N,GND*%
X128125000Y-116257800D03*
%TD*%
%TO.P,U2,1,GPIO1*%
%TO.N,Net-(R6-Pad2)*%
X158125000Y-108742200D03*
%TO.P,U2,2,NC*%
%TO.N,unconnected-(U2-Pad2)*%
X158875001Y-108742200D03*
%TO.P,U2,3,NC*%
%TO.N,unconnected-(U2-Pad3)*%
X159624999Y-108742200D03*
%TO.P,U2,4,GPIO0*%
%TO.N,Net-(R5-Pad2)*%
X160375001Y-108742200D03*
%TO.P,U2,5,SCL*%
%TO.N,Net-(Q1-Pad1)*%
X161124999Y-108742200D03*
%TO.P,U2,6,SDA*%
%TO.N,Net-(Q1-Pad4)*%
X161875000Y-108742200D03*
%TO.P,U2,7,NC*%
%TO.N,unconnected-(U2-Pad7)*%
X161875000Y-106257800D03*
%TO.P,U2,8,AVDD_VCSEL*%
%TO.N,VDD*%
X161124999Y-106257800D03*
%TO.P,U2,9,AVSS_VCSEL*%
%TO.N,GND*%
X160375001Y-106257800D03*
%TO.P,U2,10,AVDD*%
%TO.N,VDD*%
X159624999Y-106257800D03*
%TO.P,U2,11,NC*%
%TO.N,unconnected-(U2-Pad11)*%
X158875001Y-106257800D03*
%TO.P,U2,12,AVSS*%
%TO.N,GND*%
X158125000Y-106257800D03*
%TD*%
%TO.P,U2,1,GPIO1*%
%TO.N,Net-(R6-Pad2)*%
X158125000Y-118742200D03*
%TO.P,U2,2,NC*%
%TO.N,unconnected-(U2-Pad2)*%
X158875001Y-118742200D03*
%TO.P,U2,3,NC*%
%TO.N,unconnected-(U2-Pad3)*%
X159624999Y-118742200D03*
%TO.P,U2,4,GPIO0*%
%TO.N,Net-(R5-Pad2)*%
X160375001Y-118742200D03*
%TO.P,U2,5,SCL*%
%TO.N,Net-(Q1-Pad1)*%
X161124999Y-118742200D03*
%TO.P,U2,6,SDA*%
%TO.N,Net-(Q1-Pad4)*%
X161875000Y-118742200D03*
%TO.P,U2,7,NC*%
%TO.N,unconnected-(U2-Pad7)*%
X161875000Y-116257800D03*
%TO.P,U2,8,AVDD_VCSEL*%
%TO.N,VDD*%
X161124999Y-116257800D03*
%TO.P,U2,9,AVSS_VCSEL*%
%TO.N,GND*%
X160375001Y-116257800D03*
%TO.P,U2,10,AVDD*%
%TO.N,VDD*%
X159624999Y-116257800D03*
%TO.P,U2,11,NC*%
%TO.N,unconnected-(U2-Pad11)*%
X158875001Y-116257800D03*
%TO.P,U2,12,AVSS*%
%TO.N,GND*%
X158125000Y-116257800D03*
%TD*%
D11*
%TO.N,*%
X117000000Y-108000000D03*
X147000000Y-118000000D03*
X147000000Y-108000000D03*
X143000000Y-108000000D03*
X173000000Y-118000000D03*
X117000000Y-118000000D03*
X173000000Y-108000000D03*
X143000000Y-118000000D03*
D12*
%TO.N,GND*%
X157000000Y-116500000D03*
X127000000Y-106500000D03*
X157000000Y-106500000D03*
X127000000Y-116500000D03*
%TO.N,VCC*%
X153723500Y-113587000D03*
X123723500Y-103587000D03*
X120900900Y-115998100D03*
X153723500Y-103587000D03*
X150900900Y-115998100D03*
X123723500Y-113587000D03*
X120900900Y-105998100D03*
X150900900Y-105998100D03*
%TO.N,VDD*%
X129500000Y-107500000D03*
X136919900Y-106325200D03*
X159500000Y-117500000D03*
X129500000Y-117500000D03*
X136919900Y-116325200D03*
X159500000Y-107500000D03*
X166919900Y-106325200D03*
X166919900Y-116325200D03*
%TO.N,Net-(J1-Pad5)*%
X138188400Y-118612900D03*
X154743500Y-117248200D03*
X124743500Y-117248200D03*
X154743500Y-107248200D03*
X124743500Y-107248200D03*
X168188400Y-118612900D03*
X168188400Y-108612900D03*
X138188400Y-108612900D03*
%TO.N,Net-(Q1-Pad4)*%
X133504900Y-118129600D03*
X139337900Y-118277800D03*
X139337900Y-108277800D03*
X169337900Y-118277800D03*
X163504900Y-108129600D03*
X169337900Y-108277800D03*
X163504900Y-118129600D03*
X133504900Y-108129600D03*
%TO.N,Net-(Q1-Pad1)*%
X134733200Y-108342000D03*
X134733200Y-118342000D03*
X164733200Y-108342000D03*
X164733200Y-118342000D03*
%TO.N,Net-(R5-Pad2)*%
X170417400Y-115453200D03*
X140417400Y-115453200D03*
X170417400Y-105453200D03*
X140417400Y-105453200D03*
%TO.N,Net-(R6-Pad2)*%
X139498200Y-104941100D03*
X169498200Y-104941100D03*
X139498200Y-114941100D03*
X169498200Y-114941100D03*
%TD*%
D13*
%TO.N,GND*%
X127683400Y-106258000D02*
X127683400Y-106154000D01*
X128124800Y-106258000D02*
X128125000Y-106257800D01*
X130375000Y-106257800D02*
X130375000Y-105426900D01*
X128124800Y-116258000D02*
X127683400Y-116258000D01*
X128124800Y-116258000D02*
X128125000Y-116257800D01*
X128125000Y-116258000D02*
X128124800Y-116258000D01*
X128125000Y-106258000D02*
X128124800Y-106258000D01*
X127242000Y-116258000D02*
X127000000Y-116500000D01*
X127683400Y-116154000D02*
X128410500Y-115426900D01*
X157683400Y-116258000D02*
X157683400Y-116154000D01*
X130375000Y-116257800D02*
X130375000Y-115426900D01*
X157683400Y-116154000D02*
X158410500Y-115426900D01*
X157242000Y-106258000D02*
X157000000Y-106500000D01*
X127683400Y-116258000D02*
X127683400Y-116154000D01*
X158124800Y-106258000D02*
X158125000Y-106257800D01*
X157683400Y-106154000D02*
X158410500Y-105426900D01*
X128410500Y-105426900D02*
X130375000Y-105426900D01*
X128124800Y-106258000D02*
X127683400Y-106258000D01*
X158125000Y-106258000D02*
X158124800Y-106258000D01*
X127242000Y-106258000D02*
X127000000Y-106500000D01*
X160375000Y-106257800D02*
X160375000Y-105426900D01*
X158124800Y-116258000D02*
X158125000Y-116257800D01*
X158125000Y-116258000D02*
X158124800Y-116258000D01*
X157683400Y-106258000D02*
X157683400Y-106154000D01*
X158124800Y-106258000D02*
X157683400Y-106258000D01*
X160375000Y-116257800D02*
X160375000Y-115426900D01*
X158410500Y-115426900D02*
X160375000Y-115426900D01*
X128410500Y-115426900D02*
X130375000Y-115426900D01*
X157683400Y-116258000D02*
X157242000Y-116258000D01*
X127683400Y-106154000D02*
X128410500Y-105426900D01*
X157242000Y-116258000D02*
X157000000Y-116500000D01*
X157683400Y-106258000D02*
X157242000Y-106258000D01*
X158410500Y-105426900D02*
X160375000Y-105426900D01*
X158124800Y-116258000D02*
X157683400Y-116258000D01*
X127683400Y-106258000D02*
X127242000Y-106258000D01*
X127683400Y-116258000D02*
X127242000Y-116258000D01*
%TO.N,VCC*%
X153723500Y-113587000D02*
X151312400Y-115998100D01*
X153723500Y-103587000D02*
X151312400Y-105998100D01*
X121312400Y-105998100D02*
X120900900Y-105998100D01*
X123723500Y-103587000D02*
X121312400Y-105998100D01*
X151312400Y-105998100D02*
X150900900Y-105998100D01*
X123723500Y-113587000D02*
X121312400Y-115998100D01*
X121312400Y-115998100D02*
X120900900Y-115998100D01*
X151312400Y-115998100D02*
X150900900Y-115998100D01*
%TO.N,VDD*%
X159625000Y-116258000D02*
X159625000Y-116257800D01*
X131094500Y-117119200D02*
X131125000Y-117088700D01*
X129625000Y-116258000D02*
X129625000Y-116257800D01*
X163300500Y-106325200D02*
X166919900Y-106325200D01*
X162537000Y-107088700D02*
X163300500Y-106325200D01*
X161125000Y-106976100D02*
X161125000Y-107088700D01*
X132537000Y-117088700D02*
X133300500Y-116325200D01*
X161125000Y-117088700D02*
X162537000Y-117088700D01*
X159625000Y-107119200D02*
X159625000Y-107375000D01*
X159625000Y-117119200D02*
X161094500Y-117119200D01*
X131094500Y-107119200D02*
X131125000Y-107088700D01*
X132537000Y-107088700D02*
X133300500Y-106325200D01*
X131125000Y-116976100D02*
X131125000Y-117088700D01*
X162537000Y-117088700D02*
X163300500Y-116325200D01*
X129625000Y-107375000D02*
X129500000Y-107500000D01*
X129625000Y-117119200D02*
X129625000Y-117375000D01*
X131125000Y-107088700D02*
X132537000Y-107088700D01*
X159625000Y-107375000D02*
X159500000Y-107500000D01*
X161094500Y-107119200D02*
X161125000Y-107088700D01*
X129625000Y-107119200D02*
X129625000Y-107375000D01*
X133300500Y-116325200D02*
X136919900Y-116325200D01*
X129625000Y-106258000D02*
X129625000Y-106257800D01*
X159625000Y-117375000D02*
X159500000Y-117500000D01*
X129625000Y-116258000D02*
X129625000Y-117119200D01*
X131125000Y-117088700D02*
X132537000Y-117088700D01*
X159625000Y-107119200D02*
X161094500Y-107119200D01*
X159625000Y-106258000D02*
X159625000Y-106257800D01*
X161125000Y-107088700D02*
X162537000Y-107088700D01*
X161125000Y-116976100D02*
X161125000Y-117088700D01*
X133300500Y-106325200D02*
X136919900Y-106325200D01*
X161125000Y-116257800D02*
X161125000Y-116976100D01*
X129625000Y-117119200D02*
X131094500Y-117119200D01*
X161125000Y-106257800D02*
X161125000Y-106976100D01*
X159625000Y-106258000D02*
X159625000Y-107119200D01*
X159625000Y-116258000D02*
X159625000Y-117119200D01*
X159625000Y-117119200D02*
X159625000Y-117375000D01*
X131125000Y-106257800D02*
X131125000Y-106976100D01*
X129625000Y-106258000D02*
X129625000Y-107119200D01*
X131125000Y-116257800D02*
X131125000Y-116976100D01*
X129625000Y-107119200D02*
X131094500Y-107119200D01*
X129625000Y-117375000D02*
X129500000Y-117500000D01*
X161094500Y-117119200D02*
X161125000Y-117088700D01*
X131125000Y-106976100D02*
X131125000Y-107088700D01*
X163300500Y-116325200D02*
X166919900Y-116325200D01*
%TO.N,Net-(J1-Pad5)*%
X138188400Y-118612900D02*
X138617600Y-119042100D01*
X138188400Y-108612900D02*
X138617600Y-109042100D01*
X141169600Y-115175800D02*
X140169000Y-114175200D01*
X169601800Y-119042100D02*
X171169600Y-117474300D01*
X168188400Y-118612900D02*
X168617600Y-119042100D01*
X157636400Y-114175200D02*
X154743600Y-117068000D01*
X154743600Y-107068000D02*
X154743600Y-107248200D01*
X141169600Y-105175800D02*
X140169000Y-104175200D01*
X171169600Y-105175800D02*
X170169000Y-104175200D01*
X124743600Y-117068000D02*
X124743600Y-117248200D01*
X168617600Y-119042100D02*
X169601800Y-119042100D01*
X170169000Y-114175200D02*
X157636400Y-114175200D01*
X171169600Y-117474300D02*
X171169600Y-115175800D01*
X169601800Y-109042100D02*
X171169600Y-107474300D01*
X168188400Y-108612900D02*
X168617600Y-109042100D01*
X141169600Y-117474300D02*
X141169600Y-115175800D01*
X141169600Y-107474300D02*
X141169600Y-105175800D01*
X124743600Y-107068000D02*
X124743600Y-107248200D01*
X170169000Y-104175200D02*
X157636400Y-104175200D01*
X171169600Y-107474300D02*
X171169600Y-105175800D01*
X157636400Y-104175200D02*
X154743600Y-107068000D01*
X171169600Y-115175800D02*
X170169000Y-114175200D01*
X154743600Y-117068000D02*
X154743600Y-117248200D01*
X168617600Y-109042100D02*
X169601800Y-109042100D01*
X139601800Y-119042100D02*
X141169600Y-117474300D01*
X138617600Y-119042100D02*
X139601800Y-119042100D01*
X140169000Y-104175200D02*
X127636400Y-104175200D01*
X127636400Y-104175200D02*
X124743600Y-107068000D01*
X154743600Y-117248200D02*
X154743500Y-117248200D01*
X124743600Y-107248200D02*
X124743500Y-107248200D01*
X127636400Y-114175200D02*
X124743600Y-117068000D01*
X154743600Y-107248200D02*
X154743500Y-107248200D01*
X124743600Y-117248200D02*
X124743500Y-117248200D01*
X140169000Y-114175200D02*
X127636400Y-114175200D01*
X139601800Y-109042100D02*
X141169600Y-107474300D01*
X138617600Y-109042100D02*
X139601800Y-109042100D01*
%TO.N,Net-(Q1-Pad4)*%
X138641100Y-107581000D02*
X139337900Y-108277800D01*
X168641100Y-117581000D02*
X169337900Y-118277800D01*
X134053500Y-117581000D02*
X138641100Y-117581000D01*
X134053500Y-107581000D02*
X138641100Y-107581000D01*
X131875000Y-118742200D02*
X132892300Y-118742200D01*
X133504900Y-108129600D02*
X134053500Y-107581000D01*
X131875000Y-108742200D02*
X132892300Y-108742200D01*
X163504900Y-118129600D02*
X164053500Y-117581000D01*
X162892300Y-118742200D02*
X163504900Y-118129600D01*
X132892300Y-118742200D02*
X133504900Y-118129600D01*
X162892300Y-108742200D02*
X163504900Y-108129600D01*
X138641100Y-117581000D02*
X139337900Y-118277800D01*
X163504900Y-108129600D02*
X164053500Y-107581000D01*
X161875000Y-118742200D02*
X162892300Y-118742200D01*
X168641100Y-107581000D02*
X169337900Y-108277800D01*
X164053500Y-107581000D02*
X168641100Y-107581000D01*
X133504900Y-118129600D02*
X134053500Y-117581000D01*
X132892300Y-108742200D02*
X133504900Y-108129600D01*
X161875000Y-108742200D02*
X162892300Y-108742200D01*
X164053500Y-117581000D02*
X168641100Y-117581000D01*
%TO.N,Net-(Q1-Pad1)*%
X163502100Y-119573100D02*
X164733200Y-118342000D01*
X161125000Y-109573100D02*
X163502100Y-109573100D01*
X131125000Y-108742200D02*
X131125000Y-109573100D01*
X131125000Y-118742200D02*
X131125000Y-119573100D01*
X133502100Y-109573100D02*
X134733200Y-108342000D01*
X161125000Y-108742200D02*
X161125000Y-109573100D01*
X163502100Y-109573100D02*
X164733200Y-108342000D01*
X161125000Y-119573100D02*
X163502100Y-119573100D01*
X131125000Y-119573100D02*
X133502100Y-119573100D01*
X161125000Y-118742200D02*
X161125000Y-119573100D01*
X133502100Y-119573100D02*
X134733200Y-118342000D01*
X131125000Y-109573100D02*
X133502100Y-109573100D01*
%TO.N,Net-(R5-Pad2)*%
X130375000Y-108742200D02*
X130375000Y-107911300D01*
X160375000Y-118742200D02*
X160375000Y-117911300D01*
X132638800Y-107911300D02*
X130375000Y-107911300D01*
X162638800Y-107911300D02*
X160375000Y-107911300D01*
X140417400Y-115453200D02*
X138740000Y-117130600D01*
X170417400Y-105453200D02*
X168740000Y-107130600D01*
X163419500Y-107130600D02*
X162638800Y-107911300D01*
X138740000Y-117130600D02*
X133419500Y-117130600D01*
X133419500Y-107130600D02*
X132638800Y-107911300D01*
X170417400Y-115453200D02*
X168740000Y-117130600D01*
X160375000Y-108742200D02*
X160375000Y-107911300D01*
X168740000Y-107130600D02*
X163419500Y-107130600D01*
X163419500Y-117130600D02*
X162638800Y-117911300D01*
X130375000Y-118742200D02*
X130375000Y-117911300D01*
X138740000Y-107130600D02*
X133419500Y-107130600D01*
X140417400Y-105453200D02*
X138740000Y-107130600D01*
X162638800Y-117911300D02*
X160375000Y-117911300D01*
X132638800Y-117911300D02*
X130375000Y-117911300D01*
X133419500Y-117130600D02*
X132638800Y-117911300D01*
X168740000Y-117130600D02*
X163419500Y-117130600D01*
%TO.N,Net-(R6-Pad2)*%
X158125000Y-118742200D02*
X158125000Y-117911300D01*
X127377300Y-117911300D02*
X126248300Y-116782300D01*
X158125000Y-117911300D02*
X157377300Y-117911300D01*
X157377300Y-107911300D02*
X156248300Y-106782300D01*
X127377300Y-107911300D02*
X126248300Y-106782300D01*
X126248300Y-106782300D02*
X126248300Y-106200200D01*
X127507400Y-114941100D02*
X139498200Y-114941100D01*
X126248300Y-116782300D02*
X126248300Y-116200200D01*
X128125000Y-118742200D02*
X128125000Y-117911300D01*
X156248300Y-116782300D02*
X156248300Y-116200200D01*
X128125000Y-117911300D02*
X127377300Y-117911300D01*
X126248300Y-106200200D02*
X127507400Y-104941100D01*
X128125000Y-107911300D02*
X127377300Y-107911300D01*
X156248300Y-106200200D02*
X157507400Y-104941100D01*
X158125000Y-107911300D02*
X157377300Y-107911300D01*
X157507400Y-114941100D02*
X169498200Y-114941100D01*
X128125000Y-108742200D02*
X128125000Y-107911300D01*
X157507400Y-104941100D02*
X169498200Y-104941100D01*
X127507400Y-104941100D02*
X139498200Y-104941100D01*
X156248300Y-116200200D02*
X157507400Y-114941100D01*
X157377300Y-117911300D02*
X156248300Y-116782300D01*
X158125000Y-108742200D02*
X158125000Y-107911300D01*
X126248300Y-116200200D02*
X127507400Y-114941100D01*
X156248300Y-106782300D02*
X156248300Y-106200200D01*
%TD*%
%TA.AperFunction,Conductor*%
%TO.N,GND*%
G36*
X128054222Y-116023802D02*
G01*
X128100715Y-116077458D01*
X128112101Y-116129800D01*
X128112101Y-116385800D01*
X128092099Y-116453921D01*
X128038443Y-116500414D01*
X127986101Y-116511800D01*
X127380716Y-116511800D01*
X127365477Y-116516275D01*
X127364272Y-116517665D01*
X127362601Y-116525348D01*
X127362601Y-116696505D01*
X127342599Y-116764626D01*
X127288943Y-116811119D01*
X127218669Y-116821223D01*
X127154089Y-116791729D01*
X127147506Y-116785600D01*
X126942250Y-116580344D01*
X126908224Y-116518032D01*
X126913289Y-116447217D01*
X126942250Y-116402154D01*
X127303699Y-116040705D01*
X127366011Y-116006679D01*
X127392794Y-116003800D01*
X127986101Y-116003800D01*
X128054222Y-116023802D01*
G37*
%TD.AperFunction*%
%TD*%
%TA.AperFunction,Conductor*%
%TO.N,GND*%
G36*
X158054222Y-116023802D02*
G01*
X158100715Y-116077458D01*
X158112101Y-116129800D01*
X158112101Y-116385800D01*
X158092099Y-116453921D01*
X158038443Y-116500414D01*
X157986101Y-116511800D01*
X157380716Y-116511800D01*
X157365477Y-116516275D01*
X157364272Y-116517665D01*
X157362601Y-116525348D01*
X157362601Y-116696505D01*
X157342599Y-116764626D01*
X157288943Y-116811119D01*
X157218669Y-116821223D01*
X157154089Y-116791729D01*
X157147506Y-116785600D01*
X156942250Y-116580344D01*
X156908224Y-116518032D01*
X156913289Y-116447217D01*
X156942250Y-116402154D01*
X157303699Y-116040705D01*
X157366011Y-116006679D01*
X157392794Y-116003800D01*
X157986101Y-116003800D01*
X158054222Y-116023802D01*
G37*
%TD.AperFunction*%
%TD*%
%TA.AperFunction,Conductor*%
%TO.N,GND*%
G36*
X158054222Y-106023802D02*
G01*
X158100715Y-106077458D01*
X158112101Y-106129800D01*
X158112101Y-106385800D01*
X158092099Y-106453921D01*
X158038443Y-106500414D01*
X157986101Y-106511800D01*
X157380716Y-106511800D01*
X157365477Y-106516275D01*
X157364272Y-106517665D01*
X157362601Y-106525348D01*
X157362601Y-106696505D01*
X157342599Y-106764626D01*
X157288943Y-106811119D01*
X157218669Y-106821223D01*
X157154089Y-106791729D01*
X157147506Y-106785600D01*
X156942250Y-106580344D01*
X156908224Y-106518032D01*
X156913289Y-106447217D01*
X156942250Y-106402154D01*
X157303699Y-106040705D01*
X157366011Y-106006679D01*
X157392794Y-106003800D01*
X157986101Y-106003800D01*
X158054222Y-106023802D01*
G37*
%TD.AperFunction*%
%TD*%
%TA.AperFunction,Conductor*%
%TO.N,GND*%
G36*
X128054222Y-106023802D02*
G01*
X128100715Y-106077458D01*
X128112101Y-106129800D01*
X128112101Y-106385800D01*
X128092099Y-106453921D01*
X128038443Y-106500414D01*
X127986101Y-106511800D01*
X127380716Y-106511800D01*
X127365477Y-106516275D01*
X127364272Y-106517665D01*
X127362601Y-106525348D01*
X127362601Y-106696505D01*
X127342599Y-106764626D01*
X127288943Y-106811119D01*
X127218669Y-106821223D01*
X127154089Y-106791729D01*
X127147506Y-106785600D01*
X126942250Y-106580344D01*
X126908224Y-106518032D01*
X126913289Y-106447217D01*
X126942250Y-106402154D01*
X127303699Y-106040705D01*
X127366011Y-106006679D01*
X127392794Y-106003800D01*
X127986101Y-106003800D01*
X128054222Y-106023802D01*
G37*
%TD.AperFunction*%
%TD*%
M02*
